<?xml version="1.0" encoding="UTF-8" standalone="no"?>
<!DOCTYPE svg PUBLIC "-//W3C//DTD SVG 1.1//EN"
 "http://www.w3.org/Graphics/SVG/1.1/DTD/svg11.dtd">
<!-- Generated by graphviz version 2.43.0 (0)
 -->
<!-- Title: lib/BMS/BMS.cpp Pages: 1 -->
<svg width="338pt" height="302pt"
 viewBox="0.00 0.00 338.00 302.00" xmlns="http://www.w3.org/2000/svg" xmlns:xlink="http://www.w3.org/1999/xlink">
<g id="graph0" class="graph" transform="scale(1 1) rotate(0) translate(4 298)">
<title>lib/BMS/BMS.cpp</title>
<!-- Node1 -->
<g id="node1" class="node">
<title>Node1</title>
<g id="a_node1"><a xlink:title="Implementation of the BMS class for managing the Accumulator (Kclear BMS) via CAN bus.">
<polygon fill="#999999" stroke="#666666" points="227.5,-294 129.5,-294 129.5,-275 227.5,-275 227.5,-294"/>
<text text-anchor="middle" x="178.5" y="-282" font-family="Helvetica,sans-Serif" font-size="10.00">lib/BMS/BMS.cpp</text>
</a>
</g>
</g>
<!-- Node2 -->
<g id="node2" class="node">
<title>Node2</title>
<g id="a_node2"><a xlink:href="BMS_8hpp.html" target="_top" xlink:title="Declaration of the BMS class for managing the Accumulator (Kclear BMS) via CAN bus.">
<polygon fill="white" stroke="#666666" points="154,-239 95,-239 95,-220 154,-220 154,-239"/>
<text text-anchor="middle" x="124.5" y="-227" font-family="Helvetica,sans-Serif" font-size="10.00">BMS.hpp</text>
</a>
</g>
</g>
<!-- Node1&#45;&gt;Node2 -->
<g id="edge1" class="edge">
<title>Node1&#45;&gt;Node2</title>
<path fill="none" stroke="#63b8ff" d="M169.58,-274.75C161.72,-267.03 150.07,-255.6 140.58,-246.28"/>
<polygon fill="#63b8ff" stroke="#63b8ff" points="142.84,-243.6 133.25,-239.09 137.94,-248.59 142.84,-243.6"/>
</g>
<!-- Node4 -->
<g id="node4" class="node">
<title>Node4</title>
<g id="a_node4"><a xlink:href="Enums_8h.html" target="_top" xlink:title="Enumeration definitions for the VCU.">
<polygon fill="white" stroke="#666666" points="243,-74 184,-74 184,-55 243,-55 243,-74"/>
<text text-anchor="middle" x="213.5" y="-62" font-family="Helvetica,sans-Serif" font-size="10.00">Enums.h</text>
</a>
</g>
</g>
<!-- Node1&#45;&gt;Node4 -->
<g id="edge14" class="edge">
<title>Node1&#45;&gt;Node4</title>
<path fill="none" stroke="#63b8ff" d="M179.87,-274.95C185.02,-242.88 203.27,-129.2 210.51,-84.12"/>
<polygon fill="#63b8ff" stroke="#63b8ff" points="213.97,-84.65 212.1,-74.22 207.06,-83.54 213.97,-84.65"/>
</g>
<!-- Node7 -->
<g id="node7" class="node">
<title>Node7</title>
<g id="a_node7"><a xlink:title=" ">
<polygon fill="#e0e0e0" stroke="#999999" points="71,-74 0,-74 0,-55 71,-55 71,-74"/>
<text text-anchor="middle" x="35.5" y="-62" font-family="Helvetica,sans-Serif" font-size="10.00">mcp2515.h</text>
</a>
</g>
</g>
<!-- Node1&#45;&gt;Node7 -->
<g id="edge15" class="edge">
<title>Node1&#45;&gt;Node7</title>
<path fill="none" stroke="#63b8ff" d="M148.63,-274.93C128.71,-267.95 103.05,-256.38 85.5,-239 42.67,-196.6 35.97,-120.02 35.29,-84.52"/>
<polygon fill="#63b8ff" stroke="#63b8ff" points="38.79,-84.15 35.25,-74.17 31.79,-84.18 38.79,-84.15"/>
</g>
<!-- Node9 -->
<g id="node9" class="node">
<title>Node9</title>
<g id="a_node9"><a xlink:href="Debug_8hpp.html" target="_top" xlink:title="Debugging macros and functions for serial and CAN output.">
<polygon fill="white" stroke="#666666" points="330,-184 261,-184 261,-165 330,-165 330,-184"/>
<text text-anchor="middle" x="295.5" y="-172" font-family="Helvetica,sans-Serif" font-size="10.00">Debug.hpp</text>
</a>
</g>
</g>
<!-- Node1&#45;&gt;Node9 -->
<g id="edge12" class="edge">
<title>Node1&#45;&gt;Node9</title>
<path fill="none" stroke="#63b8ff" d="M194.69,-274.96C209.18,-266.86 230.55,-253.75 246.5,-239 261.62,-225.02 275.62,-206 284.75,-192.43"/>
<polygon fill="#63b8ff" stroke="#63b8ff" points="287.7,-194.32 290.25,-184.04 281.84,-190.48 287.7,-194.32"/>
</g>
<!-- Node3 -->
<g id="node3" class="node">
<title>Node3</title>
<g id="a_node3"><a xlink:href="Scheduler_8hpp.html" target="_top" xlink:title="Declaration of the Scheduler class template, for scheduling tasks on multiple MCP2515 instances.">
<polygon fill="white" stroke="#666666" points="167,-184 82,-184 82,-165 167,-165 167,-184"/>
<text text-anchor="middle" x="124.5" y="-172" font-family="Helvetica,sans-Serif" font-size="10.00">Scheduler.hpp</text>
</a>
</g>
</g>
<!-- Node2&#45;&gt;Node3 -->
<g id="edge2" class="edge">
<title>Node2&#45;&gt;Node3</title>
<path fill="none" stroke="#63b8ff" d="M124.5,-219.75C124.5,-212.8 124.5,-202.85 124.5,-194.13"/>
<polygon fill="#63b8ff" stroke="#63b8ff" points="128,-194.09 124.5,-184.09 121,-194.09 128,-194.09"/>
</g>
<!-- Node2&#45;&gt;Node7 -->
<g id="edge11" class="edge">
<title>Node2&#45;&gt;Node7</title>
<path fill="none" stroke="#63b8ff" d="M110.65,-219.9C98.91,-211.94 82.44,-199.08 72.5,-184 51.82,-152.62 42.14,-109.01 38.08,-84.39"/>
<polygon fill="#63b8ff" stroke="#63b8ff" points="41.5,-83.61 36.55,-74.24 34.58,-84.65 41.5,-83.61"/>
</g>
<!-- Node3&#45;&gt;Node4 -->
<g id="edge3" class="edge">
<title>Node3&#45;&gt;Node4</title>
<path fill="none" stroke="#63b8ff" d="M136.1,-164.8C146.84,-156.38 162.86,-142.9 174.5,-129 186.41,-114.77 197.22,-96.55 204.42,-83.28"/>
<polygon fill="#63b8ff" stroke="#63b8ff" points="207.62,-84.72 209.18,-74.25 201.42,-81.46 207.62,-84.72"/>
</g>
<!-- Node3&#45;&gt;Node7 -->
<g id="edge6" class="edge">
<title>Node3&#45;&gt;Node7</title>
<path fill="none" stroke="#63b8ff" d="M112.62,-164.87C101.62,-156.51 85.26,-143.06 73.5,-129 61.68,-114.86 51.18,-96.63 44.22,-83.33"/>
<polygon fill="#63b8ff" stroke="#63b8ff" points="47.28,-81.62 39.64,-74.28 41.03,-84.78 47.28,-81.62"/>
</g>
<!-- Node8 -->
<g id="node8" class="node">
<title>Node8</title>
<g id="a_node8"><a xlink:href="Scheduler_8tpp.html" target="_top" xlink:title="Implementation of the Scheduler class template.">
<polygon fill="white" stroke="#666666" points="166,-129 83,-129 83,-110 166,-110 166,-129"/>
<text text-anchor="middle" x="124.5" y="-117" font-family="Helvetica,sans-Serif" font-size="10.00">Scheduler.tpp</text>
</a>
</g>
</g>
<!-- Node3&#45;&gt;Node8 -->
<g id="edge7" class="edge">
<title>Node3&#45;&gt;Node8</title>
<path fill="none" stroke="#63b8ff" d="M119.33,-164.75C117.84,-157.8 117.4,-147.85 118.02,-139.13"/>
<polygon fill="#63b8ff" stroke="#63b8ff" points="121.51,-139.47 119.37,-129.09 114.57,-138.53 121.51,-139.47"/>
</g>
<!-- Node5 -->
<g id="node5" class="node">
<title>Node5</title>
<g id="a_node5"><a xlink:title=" ">
<polygon fill="#e0e0e0" stroke="#999999" points="207,-19 154,-19 154,0 207,0 207,-19"/>
<text text-anchor="middle" x="180.5" y="-7" font-family="Helvetica,sans-Serif" font-size="10.00">stdint.h</text>
</a>
</g>
</g>
<!-- Node4&#45;&gt;Node5 -->
<g id="edge4" class="edge">
<title>Node4&#45;&gt;Node5</title>
<path fill="none" stroke="#63b8ff" d="M208.05,-54.75C203.49,-47.42 196.83,-36.73 191.21,-27.7"/>
<polygon fill="#63b8ff" stroke="#63b8ff" points="194.1,-25.73 185.85,-19.09 188.16,-29.43 194.1,-25.73"/>
</g>
<!-- Node6 -->
<g id="node6" class="node">
<title>Node6</title>
<g id="a_node6"><a xlink:title=" ">
<polygon fill="#e0e0e0" stroke="#999999" points="268,-19 225,-19 225,0 268,0 268,-19"/>
<text text-anchor="middle" x="246.5" y="-7" font-family="Helvetica,sans-Serif" font-size="10.00">can.h</text>
</a>
</g>
</g>
<!-- Node4&#45;&gt;Node6 -->
<g id="edge5" class="edge">
<title>Node4&#45;&gt;Node6</title>
<path fill="none" stroke="#63b8ff" d="M218.95,-54.75C223.51,-47.42 230.17,-36.73 235.79,-27.7"/>
<polygon fill="#63b8ff" stroke="#63b8ff" points="238.84,-29.43 241.15,-19.09 232.9,-25.73 238.84,-29.43"/>
</g>
<!-- Node8&#45;&gt;Node3 -->
<g id="edge10" class="edge">
<title>Node8&#45;&gt;Node3</title>
<path fill="none" stroke="#63b8ff" d="M129.63,-129.09C131.14,-135.99 131.59,-145.93 130.99,-154.66"/>
<polygon fill="#63b8ff" stroke="#63b8ff" points="127.5,-154.38 129.67,-164.75 134.44,-155.29 127.5,-154.38"/>
</g>
<!-- Node8&#45;&gt;Node4 -->
<g id="edge8" class="edge">
<title>Node8&#45;&gt;Node4</title>
<path fill="none" stroke="#63b8ff" d="M138.8,-109.98C152.6,-101.77 173.74,-89.18 190.01,-79.49"/>
<polygon fill="#63b8ff" stroke="#63b8ff" points="192.14,-82.29 198.94,-74.17 188.56,-76.28 192.14,-82.29"/>
</g>
<!-- Node8&#45;&gt;Node7 -->
<g id="edge9" class="edge">
<title>Node8&#45;&gt;Node7</title>
<path fill="none" stroke="#63b8ff" d="M110.2,-109.98C96.4,-101.77 75.26,-89.18 58.99,-79.49"/>
<polygon fill="#63b8ff" stroke="#63b8ff" points="60.44,-76.28 50.06,-74.17 56.86,-82.29 60.44,-76.28"/>
</g>
<!-- Node9&#45;&gt;Node4 -->
<g id="edge13" class="edge">
<title>Node9&#45;&gt;Node4</title>
<path fill="none" stroke="#63b8ff" d="M288.79,-164.66C275.15,-146.69 243.98,-105.64 226.32,-82.38"/>
<polygon fill="#63b8ff" stroke="#63b8ff" points="228.91,-80.01 220.07,-74.16 223.33,-84.24 228.91,-80.01"/>
</g>
</g>
</svg>
