<?xml version="1.0" encoding="UTF-8" standalone="no"?>
<!DOCTYPE svg PUBLIC "-//W3C//DTD SVG 1.1//EN"
 "http://www.w3.org/Graphics/SVG/1.1/DTD/svg11.dtd">
<!-- Generated by graphviz version 2.43.0 (0)
 -->
<!-- Title: lib/BMS/BMS.h Pages: 1 -->
<svg width="184pt" height="192pt"
 viewBox="0.00 0.00 184.00 192.00" xmlns="http://www.w3.org/2000/svg" xmlns:xlink="http://www.w3.org/1999/xlink">
<g id="graph0" class="graph" transform="scale(1 1) rotate(0) translate(4 188)">
<title>lib/BMS/BMS.h</title>
<!-- Node1 -->
<g id="node1" class="node">
<title>Node1</title>
<g id="a_node1"><a xlink:title="Declaration of the BMS class for managing the Accumulator (Kclear BMS) via CAN bus.">
<polygon fill="#999999" stroke="#666666" points="168,-184 81,-184 81,-165 168,-165 168,-184"/>
<text text-anchor="middle" x="124.5" y="-172" font-family="Helvetica,sans-Serif" font-size="10.00">lib/BMS/BMS.h</text>
</a>
</g>
</g>
<!-- Node2 -->
<g id="node2" class="node">
<title>Node2</title>
<g id="a_node2"><a xlink:href="Scheduler_8hpp.html" target="_top" xlink:title="Declaration of the Scheduler class template, for scheduling tasks on multiple MCP2515 instances.">
<polygon fill="white" stroke="#666666" points="113,-129 28,-129 28,-110 113,-110 113,-129"/>
<text text-anchor="middle" x="70.5" y="-117" font-family="Helvetica,sans-Serif" font-size="10.00">Scheduler.hpp</text>
</a>
</g>
</g>
<!-- Node1&#45;&gt;Node2 -->
<g id="edge1" class="edge">
<title>Node1&#45;&gt;Node2</title>
<path fill="none" stroke="#63b8ff" d="M115.58,-164.75C107.72,-157.03 96.07,-145.6 86.58,-136.28"/>
<polygon fill="#63b8ff" stroke="#63b8ff" points="88.84,-133.6 79.25,-129.09 83.94,-138.59 88.84,-133.6"/>
</g>
<!-- Node4 -->
<g id="node4" class="node">
<title>Node4</title>
<g id="a_node4"><a xlink:title=" ">
<polygon fill="#e0e0e0" stroke="#999999" points="176,-19 105,-19 105,0 176,0 176,-19"/>
<text text-anchor="middle" x="140.5" y="-7" font-family="Helvetica,sans-Serif" font-size="10.00">mcp2515.h</text>
</a>
</g>
</g>
<!-- Node1&#45;&gt;Node4 -->
<g id="edge8" class="edge">
<title>Node1&#45;&gt;Node4</title>
<path fill="none" stroke="#63b8ff" d="M126.22,-164.76C129.53,-147.5 136.7,-107.78 139.5,-74 140.74,-59.03 140.94,-42 140.86,-29.35"/>
<polygon fill="#63b8ff" stroke="#63b8ff" points="144.36,-29.1 140.73,-19.15 137.36,-29.19 144.36,-29.1"/>
</g>
<!-- Node3 -->
<g id="node3" class="node">
<title>Node3</title>
<g id="a_node3"><a xlink:href="Enums_8h.html" target="_top" xlink:title=" ">
<polygon fill="white" stroke="#666666" points="59,-19 0,-19 0,0 59,0 59,-19"/>
<text text-anchor="middle" x="29.5" y="-7" font-family="Helvetica,sans-Serif" font-size="10.00">Enums.h</text>
</a>
</g>
</g>
<!-- Node2&#45;&gt;Node3 -->
<g id="edge2" class="edge">
<title>Node2&#45;&gt;Node3</title>
<path fill="none" stroke="#63b8ff" d="M54.77,-109.88C42.62,-102.23 26.7,-89.83 19.5,-74 12.94,-59.57 16.74,-41.61 21.42,-28.47"/>
<polygon fill="#63b8ff" stroke="#63b8ff" points="24.69,-29.71 25.18,-19.13 18.2,-27.1 24.69,-29.71"/>
</g>
<!-- Node2&#45;&gt;Node4 -->
<g id="edge3" class="edge">
<title>Node2&#45;&gt;Node4</title>
<path fill="none" stroke="#63b8ff" d="M83.8,-109.78C95.08,-101.74 110.9,-88.83 120.5,-74 129.33,-60.35 134.49,-42.54 137.36,-29.25"/>
<polygon fill="#63b8ff" stroke="#63b8ff" points="140.81,-29.83 139.25,-19.35 133.93,-28.51 140.81,-29.83"/>
</g>
<!-- Node5 -->
<g id="node5" class="node">
<title>Node5</title>
<g id="a_node5"><a xlink:href="Scheduler_8tpp.html" target="_top" xlink:title="Implementation of the Scheduler class template.">
<polygon fill="white" stroke="#666666" points="112,-74 29,-74 29,-55 112,-55 112,-74"/>
<text text-anchor="middle" x="70.5" y="-62" font-family="Helvetica,sans-Serif" font-size="10.00">Scheduler.tpp</text>
</a>
</g>
</g>
<!-- Node2&#45;&gt;Node5 -->
<g id="edge4" class="edge">
<title>Node2&#45;&gt;Node5</title>
<path fill="none" stroke="#63b8ff" d="M65.33,-109.75C63.84,-102.8 63.4,-92.85 64.02,-84.13"/>
<polygon fill="#63b8ff" stroke="#63b8ff" points="67.51,-84.47 65.37,-74.09 60.57,-83.53 67.51,-84.47"/>
</g>
<!-- Node5&#45;&gt;Node2 -->
<g id="edge7" class="edge">
<title>Node5&#45;&gt;Node2</title>
<path fill="none" stroke="#63b8ff" d="M75.63,-74.09C77.14,-80.99 77.59,-90.93 76.99,-99.66"/>
<polygon fill="#63b8ff" stroke="#63b8ff" points="73.5,-99.38 75.67,-109.75 80.44,-100.29 73.5,-99.38"/>
</g>
<!-- Node5&#45;&gt;Node3 -->
<g id="edge5" class="edge">
<title>Node5&#45;&gt;Node3</title>
<path fill="none" stroke="#63b8ff" d="M63.73,-54.75C57.94,-47.26 49.44,-36.28 42.36,-27.13"/>
<polygon fill="#63b8ff" stroke="#63b8ff" points="45.03,-24.86 36.14,-19.09 39.49,-29.14 45.03,-24.86"/>
</g>
<!-- Node5&#45;&gt;Node4 -->
<g id="edge6" class="edge">
<title>Node5&#45;&gt;Node4</title>
<path fill="none" stroke="#63b8ff" d="M81.75,-54.98C92.3,-47 108.3,-34.88 120.94,-25.31"/>
<polygon fill="#63b8ff" stroke="#63b8ff" points="123.19,-28 129.05,-19.17 118.96,-22.42 123.19,-28"/>
</g>
</g>
</svg>
