<?xml version="1.0" encoding="UTF-8" standalone="no"?>
<!DOCTYPE svg PUBLIC "-//W3C//DTD SVG 1.1//EN"
 "http://www.w3.org/Graphics/SVG/1.1/DTD/svg11.dtd">
<!-- Generated by graphviz version 2.43.0 (0)
 -->
<!-- Title: lib/BMS/BMS.cpp Pages: 1 -->
<svg width="279pt" height="247pt"
 viewBox="0.00 0.00 278.58 247.00" xmlns="http://www.w3.org/2000/svg" xmlns:xlink="http://www.w3.org/1999/xlink">
<g id="graph0" class="graph" transform="scale(1 1) rotate(0) translate(4 243)">
<title>lib/BMS/BMS.cpp</title>
<!-- Node1 -->
<g id="node1" class="node">
<title>Node1</title>
<g id="a_node1"><a xlink:title="Implementation of the BMS class for managing the Accumulator (Kclear BMS) via CAN bus.">
<polygon fill="#999999" stroke="#666666" points="226.5,-239 128.5,-239 128.5,-220 226.5,-220 226.5,-239"/>
<text text-anchor="middle" x="177.5" y="-227" font-family="Helvetica,sans-Serif" font-size="10.00">lib/BMS/BMS.cpp</text>
</a>
</g>
</g>
<!-- Node2 -->
<g id="node2" class="node">
<title>Node2</title>
<g id="a_node2"><a xlink:href="BMS_8hpp.html" target="_top" xlink:title="Declaration of the BMS class for managing the Accumulator (Kclear BMS) via CAN bus.">
<polygon fill="white" stroke="#666666" points="168,-184 109,-184 109,-165 168,-165 168,-184"/>
<text text-anchor="middle" x="138.5" y="-172" font-family="Helvetica,sans-Serif" font-size="10.00">BMS.hpp</text>
</a>
</g>
</g>
<!-- Node1&#45;&gt;Node2 -->
<g id="edge1" class="edge">
<title>Node1&#45;&gt;Node2</title>
<path fill="none" stroke="#63b8ff" d="M171.06,-219.75C165.61,-212.34 157.64,-201.5 150.94,-192.41"/>
<polygon fill="#63b8ff" stroke="#63b8ff" points="153.57,-190.07 144.82,-184.09 147.93,-194.22 153.57,-190.07"/>
</g>
<!-- Node5 -->
<g id="node5" class="node">
<title>Node5</title>
<g id="a_node5"><a xlink:title=" ">
<polygon fill="#e0e0e0" stroke="#999999" points="260,-19 189,-19 189,0 260,0 260,-19"/>
<text text-anchor="middle" x="224.5" y="-7" font-family="Helvetica,sans-Serif" font-size="10.00">mcp2515.h</text>
</a>
</g>
</g>
<!-- Node1&#45;&gt;Node5 -->
<g id="edge13" class="edge">
<title>Node1&#45;&gt;Node5</title>
<path fill="none" stroke="#63b8ff" d="M208.92,-219.97C226.84,-213.32 247.8,-202.09 258.5,-184 288.53,-133.24 254.33,-60.95 235.4,-28.03"/>
<polygon fill="#63b8ff" stroke="#63b8ff" points="238.23,-25.95 230.1,-19.15 232.22,-29.53 238.23,-25.95"/>
</g>
<!-- Node7 -->
<g id="node7" class="node">
<title>Node7</title>
<g id="a_node7"><a xlink:title=" ">
<polygon fill="#e0e0e0" stroke="#999999" points="249,-184 186,-184 186,-165 249,-165 249,-184"/>
<text text-anchor="middle" x="217.5" y="-172" font-family="Helvetica,sans-Serif" font-size="10.00">Arduino.h</text>
</a>
</g>
</g>
<!-- Node1&#45;&gt;Node7 -->
<g id="edge10" class="edge">
<title>Node1&#45;&gt;Node7</title>
<path fill="none" stroke="#63b8ff" d="M184.11,-219.75C189.76,-212.26 198.04,-201.28 204.95,-192.13"/>
<polygon fill="#63b8ff" stroke="#63b8ff" points="207.79,-194.18 211.02,-184.09 202.2,-189.96 207.79,-194.18"/>
</g>
<!-- Node8 -->
<g id="node8" class="node">
<title>Node8</title>
<g id="a_node8"><a xlink:href="Debug_8hpp.html" target="_top" xlink:title="Debugging macros and functions for serial and CAN output.">
<polygon fill="white" stroke="#666666" points="69,-129 0,-129 0,-110 69,-110 69,-129"/>
<text text-anchor="middle" x="34.5" y="-117" font-family="Helvetica,sans-Serif" font-size="10.00">Debug.hpp</text>
</a>
</g>
</g>
<!-- Node1&#45;&gt;Node8 -->
<g id="edge11" class="edge">
<title>Node1&#45;&gt;Node8</title>
<path fill="none" stroke="#63b8ff" d="M159.67,-219.98C143.32,-211.79 118.79,-198.55 99.5,-184 80.52,-169.68 61.35,-150.21 48.81,-136.62"/>
<polygon fill="#63b8ff" stroke="#63b8ff" points="51.22,-134.07 41.91,-129.02 46.03,-138.78 51.22,-134.07"/>
</g>
<!-- Node3 -->
<g id="node3" class="node">
<title>Node3</title>
<g id="a_node3"><a xlink:href="Scheduler_8hpp.html" target="_top" xlink:title="Declaration of the Scheduler class template, for scheduling tasks on multiple MCP2515 instances.">
<polygon fill="white" stroke="#666666" points="178,-129 93,-129 93,-110 178,-110 178,-129"/>
<text text-anchor="middle" x="135.5" y="-117" font-family="Helvetica,sans-Serif" font-size="10.00">Scheduler.hpp</text>
</a>
</g>
</g>
<!-- Node2&#45;&gt;Node3 -->
<g id="edge2" class="edge">
<title>Node2&#45;&gt;Node3</title>
<path fill="none" stroke="#63b8ff" d="M138,-164.75C137.61,-157.8 137.05,-147.85 136.55,-139.13"/>
<polygon fill="#63b8ff" stroke="#63b8ff" points="140.05,-138.88 135.99,-129.09 133.06,-139.27 140.05,-138.88"/>
</g>
<!-- Node2&#45;&gt;Node5 -->
<g id="edge9" class="edge">
<title>Node2&#45;&gt;Node5</title>
<path fill="none" stroke="#63b8ff" d="M151,-164.97C162,-156.88 177.76,-143.77 187.5,-129 208.19,-97.63 217.86,-54.01 221.93,-29.39"/>
<polygon fill="#63b8ff" stroke="#63b8ff" points="225.42,-29.65 223.46,-19.24 218.5,-28.61 225.42,-29.65"/>
</g>
<!-- Node4 -->
<g id="node4" class="node">
<title>Node4</title>
<g id="a_node4"><a xlink:href="Enums_8h.html" target="_top" xlink:title="Enumeration definitions for the VCU.">
<polygon fill="white" stroke="#666666" points="95,-19 36,-19 36,0 95,0 95,-19"/>
<text text-anchor="middle" x="65.5" y="-7" font-family="Helvetica,sans-Serif" font-size="10.00">Enums.h</text>
</a>
</g>
</g>
<!-- Node3&#45;&gt;Node4 -->
<g id="edge3" class="edge">
<title>Node3&#45;&gt;Node4</title>
<path fill="none" stroke="#63b8ff" d="M121.88,-109.87C110.34,-101.89 94.17,-89.02 84.5,-74 75.74,-60.39 70.87,-42.58 68.26,-29.28"/>
<polygon fill="#63b8ff" stroke="#63b8ff" points="71.7,-28.63 66.56,-19.36 64.8,-29.81 71.7,-28.63"/>
</g>
<!-- Node3&#45;&gt;Node5 -->
<g id="edge4" class="edge">
<title>Node3&#45;&gt;Node5</title>
<path fill="none" stroke="#63b8ff" d="M147.38,-109.87C158.38,-101.51 174.74,-88.06 186.5,-74 198.32,-59.86 208.82,-41.63 215.78,-28.33"/>
<polygon fill="#63b8ff" stroke="#63b8ff" points="218.97,-29.78 220.36,-19.28 212.72,-26.62 218.97,-29.78"/>
</g>
<!-- Node6 -->
<g id="node6" class="node">
<title>Node6</title>
<g id="a_node6"><a xlink:href="Scheduler_8tpp.html" target="_top" xlink:title="Implementation of the Scheduler class template.">
<polygon fill="white" stroke="#666666" points="177,-74 94,-74 94,-55 177,-55 177,-74"/>
<text text-anchor="middle" x="135.5" y="-62" font-family="Helvetica,sans-Serif" font-size="10.00">Scheduler.tpp</text>
</a>
</g>
</g>
<!-- Node3&#45;&gt;Node6 -->
<g id="edge5" class="edge">
<title>Node3&#45;&gt;Node6</title>
<path fill="none" stroke="#63b8ff" d="M130.33,-109.75C128.84,-102.8 128.4,-92.85 129.02,-84.13"/>
<polygon fill="#63b8ff" stroke="#63b8ff" points="132.51,-84.47 130.37,-74.09 125.57,-83.53 132.51,-84.47"/>
</g>
<!-- Node6&#45;&gt;Node3 -->
<g id="edge8" class="edge">
<title>Node6&#45;&gt;Node3</title>
<path fill="none" stroke="#63b8ff" d="M140.63,-74.09C142.14,-80.99 142.59,-90.93 141.99,-99.66"/>
<polygon fill="#63b8ff" stroke="#63b8ff" points="138.5,-99.38 140.67,-109.75 145.44,-100.29 138.5,-99.38"/>
</g>
<!-- Node6&#45;&gt;Node4 -->
<g id="edge6" class="edge">
<title>Node6&#45;&gt;Node4</title>
<path fill="none" stroke="#63b8ff" d="M124.25,-54.98C113.7,-47 97.7,-34.88 85.06,-25.31"/>
<polygon fill="#63b8ff" stroke="#63b8ff" points="87.04,-22.42 76.95,-19.17 82.81,-28 87.04,-22.42"/>
</g>
<!-- Node6&#45;&gt;Node5 -->
<g id="edge7" class="edge">
<title>Node6&#45;&gt;Node5</title>
<path fill="none" stroke="#63b8ff" d="M149.8,-54.98C163.6,-46.77 184.74,-34.18 201.01,-24.49"/>
<polygon fill="#63b8ff" stroke="#63b8ff" points="203.14,-27.29 209.94,-19.17 199.56,-21.28 203.14,-27.29"/>
</g>
<!-- Node8&#45;&gt;Node4 -->
<g id="edge12" class="edge">
<title>Node8&#45;&gt;Node4</title>
<path fill="none" stroke="#63b8ff" d="M36.69,-109.84C39.82,-97.59 45.82,-74.51 51.5,-55 53.99,-46.45 56.92,-37.03 59.46,-29.07"/>
<polygon fill="#63b8ff" stroke="#63b8ff" points="62.86,-29.92 62.6,-19.33 56.2,-27.78 62.86,-29.92"/>
</g>
</g>
</svg>
