<?xml version="1.0" encoding="UTF-8" standalone="no"?>
<!DOCTYPE svg PUBLIC "-//W3C//DTD SVG 1.1//EN"
 "http://www.w3.org/Graphics/SVG/1.1/DTD/svg11.dtd">
<!-- Generated by graphviz version 2.43.0 (0)
 -->
<!-- Title: lib/BMS/BMS.cpp Pages: 1 -->
<svg width="267pt" height="247pt"
 viewBox="0.00 0.00 266.67 247.00" xmlns="http://www.w3.org/2000/svg" xmlns:xlink="http://www.w3.org/1999/xlink">
<g id="graph0" class="graph" transform="scale(1 1) rotate(0) translate(4 243)">
<title>lib/BMS/BMS.cpp</title>
<!-- Node1 -->
<g id="node1" class="node">
<title>Node1</title>
<g id="a_node1"><a xlink:title="Implementation of the BMS class for managing the Accumulator (Kclear BMS) via CAN bus.">
<polygon fill="#999999" stroke="#666666" points="217.5,-239 119.5,-239 119.5,-220 217.5,-220 217.5,-239"/>
<text text-anchor="middle" x="168.5" y="-227" font-family="Helvetica,sans-Serif" font-size="10.00">lib/BMS/BMS.cpp</text>
</a>
</g>
</g>
<!-- Node2 -->
<g id="node2" class="node">
<title>Node2</title>
<g id="a_node2"><a xlink:href="BMS_8h.html" target="_top" xlink:title="Declaration of the BMS class for managing the Accumulator (Kclear BMS) via CAN bus.">
<polygon fill="white" stroke="#666666" points="156,-184 109,-184 109,-165 156,-165 156,-184"/>
<text text-anchor="middle" x="132.5" y="-172" font-family="Helvetica,sans-Serif" font-size="10.00">BMS.h</text>
</a>
</g>
</g>
<!-- Node1&#45;&gt;Node2 -->
<g id="edge1" class="edge">
<title>Node1&#45;&gt;Node2</title>
<path fill="none" stroke="#63b8ff" d="M162.56,-219.75C157.52,-212.34 150.16,-201.5 143.99,-192.41"/>
<polygon fill="#63b8ff" stroke="#63b8ff" points="146.85,-190.39 138.33,-184.09 141.06,-194.33 146.85,-190.39"/>
</g>
<!-- Node5 -->
<g id="node5" class="node">
<title>Node5</title>
<g id="a_node5"><a xlink:title=" ">
<polygon fill="#e0e0e0" stroke="#999999" points="251,-19 180,-19 180,0 251,0 251,-19"/>
<text text-anchor="middle" x="215.5" y="-7" font-family="Helvetica,sans-Serif" font-size="10.00">mcp2515.h</text>
</a>
</g>
</g>
<!-- Node1&#45;&gt;Node5 -->
<g id="edge13" class="edge">
<title>Node1&#45;&gt;Node5</title>
<path fill="none" stroke="#63b8ff" d="M198,-219.97C215.44,-213.24 236.09,-201.93 246.5,-184 276.02,-133.16 243.77,-60.91 225.84,-28.02"/>
<polygon fill="#63b8ff" stroke="#63b8ff" points="228.79,-26.12 220.82,-19.14 222.7,-29.57 228.79,-26.12"/>
</g>
<!-- Node7 -->
<g id="node7" class="node">
<title>Node7</title>
<g id="a_node7"><a xlink:title=" ">
<polygon fill="#e0e0e0" stroke="#999999" points="237,-184 174,-184 174,-165 237,-165 237,-184"/>
<text text-anchor="middle" x="205.5" y="-172" font-family="Helvetica,sans-Serif" font-size="10.00">Arduino.h</text>
</a>
</g>
</g>
<!-- Node1&#45;&gt;Node7 -->
<g id="edge10" class="edge">
<title>Node1&#45;&gt;Node7</title>
<path fill="none" stroke="#63b8ff" d="M174.61,-219.75C179.78,-212.34 187.35,-201.5 193.69,-192.41"/>
<polygon fill="#63b8ff" stroke="#63b8ff" points="196.65,-194.29 199.5,-184.09 190.91,-190.29 196.65,-194.29"/>
</g>
<!-- Node8 -->
<g id="node8" class="node">
<title>Node8</title>
<g id="a_node8"><a xlink:href="Debug_8h.html" target="_top" xlink:title=" ">
<polygon fill="white" stroke="#666666" points="57,-129 0,-129 0,-110 57,-110 57,-129"/>
<text text-anchor="middle" x="28.5" y="-117" font-family="Helvetica,sans-Serif" font-size="10.00">Debug.h</text>
</a>
</g>
</g>
<!-- Node1&#45;&gt;Node8 -->
<g id="edge11" class="edge">
<title>Node1&#45;&gt;Node8</title>
<path fill="none" stroke="#63b8ff" d="M153.78,-219.93C139.5,-211.4 117.41,-197.65 99.5,-184 79.71,-168.92 58.66,-149.63 44.66,-136.29"/>
<polygon fill="#63b8ff" stroke="#63b8ff" points="46.93,-133.61 37.3,-129.2 42.07,-138.65 46.93,-133.61"/>
</g>
<!-- Node3 -->
<g id="node3" class="node">
<title>Node3</title>
<g id="a_node3"><a xlink:href="Scheduler_8hpp.html" target="_top" xlink:title="Declaration of the Scheduler class template, for scheduling tasks on multiple MCP2515 instances.">
<polygon fill="white" stroke="#666666" points="169,-129 84,-129 84,-110 169,-110 169,-129"/>
<text text-anchor="middle" x="126.5" y="-117" font-family="Helvetica,sans-Serif" font-size="10.00">Scheduler.hpp</text>
</a>
</g>
</g>
<!-- Node2&#45;&gt;Node3 -->
<g id="edge2" class="edge">
<title>Node2&#45;&gt;Node3</title>
<path fill="none" stroke="#63b8ff" d="M131.51,-164.75C130.72,-157.8 129.6,-147.85 128.61,-139.13"/>
<polygon fill="#63b8ff" stroke="#63b8ff" points="132.08,-138.63 127.47,-129.09 125.12,-139.42 132.08,-138.63"/>
</g>
<!-- Node2&#45;&gt;Node5 -->
<g id="edge9" class="edge">
<title>Node2&#45;&gt;Node5</title>
<path fill="none" stroke="#63b8ff" d="M144.21,-164.81C154.53,-156.6 169.31,-143.43 178.5,-129 198.7,-97.3 208.55,-53.8 212.77,-29.29"/>
<polygon fill="#63b8ff" stroke="#63b8ff" points="216.27,-29.62 214.38,-19.19 209.35,-28.52 216.27,-29.62"/>
</g>
<!-- Node4 -->
<g id="node4" class="node">
<title>Node4</title>
<g id="a_node4"><a xlink:href="Enums_8h.html" target="_top" xlink:title=" ">
<polygon fill="white" stroke="#666666" points="86,-19 27,-19 27,0 86,0 86,-19"/>
<text text-anchor="middle" x="56.5" y="-7" font-family="Helvetica,sans-Serif" font-size="10.00">Enums.h</text>
</a>
</g>
</g>
<!-- Node3&#45;&gt;Node4 -->
<g id="edge3" class="edge">
<title>Node3&#45;&gt;Node4</title>
<path fill="none" stroke="#63b8ff" d="M112.88,-109.87C101.34,-101.89 85.17,-89.02 75.5,-74 66.74,-60.39 61.87,-42.58 59.26,-29.28"/>
<polygon fill="#63b8ff" stroke="#63b8ff" points="62.7,-28.63 57.56,-19.36 55.8,-29.81 62.7,-28.63"/>
</g>
<!-- Node3&#45;&gt;Node5 -->
<g id="edge4" class="edge">
<title>Node3&#45;&gt;Node5</title>
<path fill="none" stroke="#63b8ff" d="M138.38,-109.87C149.38,-101.51 165.74,-88.06 177.5,-74 189.32,-59.86 199.82,-41.63 206.78,-28.33"/>
<polygon fill="#63b8ff" stroke="#63b8ff" points="209.97,-29.78 211.36,-19.28 203.72,-26.62 209.97,-29.78"/>
</g>
<!-- Node6 -->
<g id="node6" class="node">
<title>Node6</title>
<g id="a_node6"><a xlink:href="Scheduler_8tpp.html" target="_top" xlink:title="Implementation of the Scheduler class template.">
<polygon fill="white" stroke="#666666" points="168,-74 85,-74 85,-55 168,-55 168,-74"/>
<text text-anchor="middle" x="126.5" y="-62" font-family="Helvetica,sans-Serif" font-size="10.00">Scheduler.tpp</text>
</a>
</g>
</g>
<!-- Node3&#45;&gt;Node6 -->
<g id="edge5" class="edge">
<title>Node3&#45;&gt;Node6</title>
<path fill="none" stroke="#63b8ff" d="M121.33,-109.75C119.84,-102.8 119.4,-92.85 120.02,-84.13"/>
<polygon fill="#63b8ff" stroke="#63b8ff" points="123.51,-84.47 121.37,-74.09 116.57,-83.53 123.51,-84.47"/>
</g>
<!-- Node6&#45;&gt;Node3 -->
<g id="edge8" class="edge">
<title>Node6&#45;&gt;Node3</title>
<path fill="none" stroke="#63b8ff" d="M131.63,-74.09C133.14,-80.99 133.59,-90.93 132.99,-99.66"/>
<polygon fill="#63b8ff" stroke="#63b8ff" points="129.5,-99.38 131.67,-109.75 136.44,-100.29 129.5,-99.38"/>
</g>
<!-- Node6&#45;&gt;Node4 -->
<g id="edge6" class="edge">
<title>Node6&#45;&gt;Node4</title>
<path fill="none" stroke="#63b8ff" d="M115.25,-54.98C104.7,-47 88.7,-34.88 76.06,-25.31"/>
<polygon fill="#63b8ff" stroke="#63b8ff" points="78.04,-22.42 67.95,-19.17 73.81,-28 78.04,-22.42"/>
</g>
<!-- Node6&#45;&gt;Node5 -->
<g id="edge7" class="edge">
<title>Node6&#45;&gt;Node5</title>
<path fill="none" stroke="#63b8ff" d="M140.8,-54.98C154.6,-46.77 175.74,-34.18 192.01,-24.49"/>
<polygon fill="#63b8ff" stroke="#63b8ff" points="194.14,-27.29 200.94,-19.17 190.56,-21.28 194.14,-27.29"/>
</g>
<!-- Node8&#45;&gt;Node4 -->
<g id="edge12" class="edge">
<title>Node8&#45;&gt;Node4</title>
<path fill="none" stroke="#63b8ff" d="M30.16,-109.81C32.57,-97.53 37.32,-74.41 42.5,-55 44.8,-46.39 47.71,-36.97 50.28,-29.01"/>
<polygon fill="#63b8ff" stroke="#63b8ff" points="53.67,-29.89 53.48,-19.3 47.02,-27.7 53.67,-29.89"/>
</g>
</g>
</svg>
