<?xml version="1.0" encoding="UTF-8" standalone="no"?>
<!DOCTYPE svg PUBLIC "-//W3C//DTD SVG 1.1//EN"
 "http://www.w3.org/Graphics/SVG/1.1/DTD/svg11.dtd">
<!-- Generated by graphviz version 2.43.0 (0)
 -->
<!-- Title: vehicle_control_unit/lib/BMS/BMS.hpp Pages: 1 -->
<svg width="298pt" height="258pt"
 viewBox="0.00 0.00 298.00 258.00" xmlns="http://www.w3.org/2000/svg" xmlns:xlink="http://www.w3.org/1999/xlink">
<g id="graph0" class="graph" transform="scale(1 1) rotate(0) translate(4 254)">
<title>vehicle_control_unit/lib/BMS/BMS.hpp</title>
<!-- Node1 -->
<g id="node1" class="node">
<title>Node1</title>
<g id="a_node1"><a xlink:title="Declaration of the BMS class for managing the Accumulator (Kclear BMS) via CAN bus.">
<polygon fill="#999999" stroke="#666666" points="163,-250 48,-250 48,-220 163,-220 163,-250"/>
<text text-anchor="start" x="56" y="-238" font-family="Helvetica,sans-Serif" font-size="10.00">vehicle_control_unit</text>
<text text-anchor="middle" x="105.5" y="-227" font-family="Helvetica,sans-Serif" font-size="10.00">/lib/BMS/BMS.hpp</text>
</a>
</g>
</g>
<!-- Node2 -->
<g id="node2" class="node">
<title>Node2</title>
<g id="a_node2"><a xlink:href="Scheduler_8hpp.html" target="_top" xlink:title="Declaration of the Scheduler class template, for scheduling tasks on multiple MCP2515 instances.">
<polygon fill="white" stroke="#666666" points="148,-184 63,-184 63,-165 148,-165 148,-184"/>
<text text-anchor="middle" x="105.5" y="-172" font-family="Helvetica,sans-Serif" font-size="10.00">Scheduler.hpp</text>
</a>
</g>
</g>
<!-- Node1&#45;&gt;Node2 -->
<g id="edge1" class="edge">
<title>Node1&#45;&gt;Node2</title>
<path fill="none" stroke="#63b8ff" d="M105.5,-219.84C105.5,-212.21 105.5,-202.7 105.5,-194.45"/>
<polygon fill="#63b8ff" stroke="#63b8ff" points="109,-194.27 105.5,-184.27 102,-194.27 109,-194.27"/>
</g>
<!-- Node6 -->
<g id="node6" class="node">
<title>Node6</title>
<g id="a_node6"><a xlink:title=" ">
<polygon fill="#e0e0e0" stroke="#999999" points="71,-74 0,-74 0,-55 71,-55 71,-74"/>
<text text-anchor="middle" x="35.5" y="-62" font-family="Helvetica,sans-Serif" font-size="10.00">mcp2515.h</text>
</a>
</g>
</g>
<!-- Node1&#45;&gt;Node6 -->
<g id="edge14" class="edge">
<title>Node1&#45;&gt;Node6</title>
<path fill="none" stroke="#63b8ff" d="M85.79,-219.96C74.61,-210.95 61.32,-198.28 53.5,-184 36.06,-152.18 34.03,-108.72 34.51,-84.25"/>
<polygon fill="#63b8ff" stroke="#63b8ff" points="38.01,-84.29 34.87,-74.17 31.01,-84.04 38.01,-84.29"/>
</g>
<!-- Node8 -->
<g id="node8" class="node">
<title>Node8</title>
<g id="a_node8"><a xlink:href="CarState_8hpp.html" target="_top" xlink:title="Definition of the CarState structure representing the state of the car.">
<polygon fill="white" stroke="#666666" points="283.5,-129 203.5,-129 203.5,-110 283.5,-110 283.5,-129"/>
<text text-anchor="middle" x="243.5" y="-117" font-family="Helvetica,sans-Serif" font-size="10.00">CarState.hpp</text>
</a>
</g>
</g>
<!-- Node1&#45;&gt;Node8 -->
<g id="edge10" class="edge">
<title>Node1&#45;&gt;Node8</title>
<path fill="none" stroke="#63b8ff" d="M122.7,-219.85C148.78,-198.41 198.12,-157.82 224.97,-135.74"/>
<polygon fill="#63b8ff" stroke="#63b8ff" points="227.34,-138.33 232.84,-129.27 222.89,-132.92 227.34,-138.33"/>
</g>
<!-- Node3 -->
<g id="node3" class="node">
<title>Node3</title>
<g id="a_node3"><a xlink:href="Enums_8hpp.html" target="_top" xlink:title="Enumeration definitions for the VCU.">
<polygon fill="white" stroke="#666666" points="211,-74 140,-74 140,-55 211,-55 211,-74"/>
<text text-anchor="middle" x="175.5" y="-62" font-family="Helvetica,sans-Serif" font-size="10.00">Enums.hpp</text>
</a>
</g>
</g>
<!-- Node2&#45;&gt;Node3 -->
<g id="edge2" class="edge">
<title>Node2&#45;&gt;Node3</title>
<path fill="none" stroke="#63b8ff" d="M119.12,-164.87C130.66,-156.89 146.83,-144.02 156.5,-129 165.26,-115.39 170.13,-97.58 172.74,-84.28"/>
<polygon fill="#63b8ff" stroke="#63b8ff" points="176.2,-84.81 174.44,-74.36 169.3,-83.63 176.2,-84.81"/>
</g>
<!-- Node2&#45;&gt;Node6 -->
<g id="edge5" class="edge">
<title>Node2&#45;&gt;Node6</title>
<path fill="none" stroke="#63b8ff" d="M91.88,-164.87C80.34,-156.89 64.17,-144.02 54.5,-129 45.74,-115.39 40.87,-97.58 38.26,-84.28"/>
<polygon fill="#63b8ff" stroke="#63b8ff" points="41.7,-83.63 36.56,-74.36 34.8,-84.81 41.7,-83.63"/>
</g>
<!-- Node7 -->
<g id="node7" class="node">
<title>Node7</title>
<g id="a_node7"><a xlink:href="Scheduler_8tpp.html" target="_top" xlink:title="Implementation of the Scheduler class template.">
<polygon fill="white" stroke="#666666" points="147,-129 64,-129 64,-110 147,-110 147,-129"/>
<text text-anchor="middle" x="105.5" y="-117" font-family="Helvetica,sans-Serif" font-size="10.00">Scheduler.tpp</text>
</a>
</g>
</g>
<!-- Node2&#45;&gt;Node7 -->
<g id="edge6" class="edge">
<title>Node2&#45;&gt;Node7</title>
<path fill="none" stroke="#63b8ff" d="M100.33,-164.75C98.84,-157.8 98.4,-147.85 99.02,-139.13"/>
<polygon fill="#63b8ff" stroke="#63b8ff" points="102.51,-139.47 100.37,-129.09 95.57,-138.53 102.51,-139.47"/>
</g>
<!-- Node4 -->
<g id="node4" class="node">
<title>Node4</title>
<g id="a_node4"><a xlink:title=" ">
<polygon fill="#e0e0e0" stroke="#999999" points="220,-19 167,-19 167,0 220,0 220,-19"/>
<text text-anchor="middle" x="193.5" y="-7" font-family="Helvetica,sans-Serif" font-size="10.00">stdint.h</text>
</a>
</g>
</g>
<!-- Node3&#45;&gt;Node4 -->
<g id="edge3" class="edge">
<title>Node3&#45;&gt;Node4</title>
<path fill="none" stroke="#63b8ff" d="M178.47,-54.75C180.86,-47.72 184.29,-37.62 187.27,-28.84"/>
<polygon fill="#63b8ff" stroke="#63b8ff" points="190.68,-29.68 190.58,-19.09 184.05,-27.43 190.68,-29.68"/>
</g>
<!-- Node5 -->
<g id="node5" class="node">
<title>Node5</title>
<g id="a_node5"><a xlink:title=" ">
<polygon fill="#e0e0e0" stroke="#999999" points="290,-19 247,-19 247,0 290,0 290,-19"/>
<text text-anchor="middle" x="268.5" y="-7" font-family="Helvetica,sans-Serif" font-size="10.00">can.h</text>
</a>
</g>
</g>
<!-- Node3&#45;&gt;Node5 -->
<g id="edge4" class="edge">
<title>Node3&#45;&gt;Node5</title>
<path fill="none" stroke="#63b8ff" d="M190.44,-54.98C205,-46.69 227.37,-33.94 244.43,-24.22"/>
<polygon fill="#63b8ff" stroke="#63b8ff" points="246.33,-27.16 253.29,-19.17 242.86,-21.08 246.33,-27.16"/>
</g>
<!-- Node7&#45;&gt;Node2 -->
<g id="edge9" class="edge">
<title>Node7&#45;&gt;Node2</title>
<path fill="none" stroke="#63b8ff" d="M110.63,-129.09C112.14,-135.99 112.59,-145.93 111.99,-154.66"/>
<polygon fill="#63b8ff" stroke="#63b8ff" points="108.5,-154.38 110.67,-164.75 115.44,-155.29 108.5,-154.38"/>
</g>
<!-- Node7&#45;&gt;Node3 -->
<g id="edge7" class="edge">
<title>Node7&#45;&gt;Node3</title>
<path fill="none" stroke="#63b8ff" d="M116.75,-109.98C127.3,-102 143.3,-89.88 155.94,-80.31"/>
<polygon fill="#63b8ff" stroke="#63b8ff" points="158.19,-83 164.05,-74.17 153.96,-77.42 158.19,-83"/>
</g>
<!-- Node7&#45;&gt;Node6 -->
<g id="edge8" class="edge">
<title>Node7&#45;&gt;Node6</title>
<path fill="none" stroke="#63b8ff" d="M94.25,-109.98C83.7,-102 67.7,-89.88 55.06,-80.31"/>
<polygon fill="#63b8ff" stroke="#63b8ff" points="57.04,-77.42 46.95,-74.17 52.81,-83 57.04,-77.42"/>
</g>
<!-- Node8&#45;&gt;Node3 -->
<g id="edge11" class="edge">
<title>Node8&#45;&gt;Node3</title>
<path fill="none" stroke="#63b8ff" d="M232.57,-109.98C222.42,-102.07 207.08,-90.11 194.85,-80.58"/>
<polygon fill="#63b8ff" stroke="#63b8ff" points="196.66,-77.56 186.62,-74.17 192.36,-83.08 196.66,-77.56"/>
</g>
<!-- Node8&#45;&gt;Node4 -->
<g id="edge13" class="edge">
<title>Node8&#45;&gt;Node4</title>
<path fill="none" stroke="#63b8ff" d="M240.91,-109.65C237.11,-97.17 229.51,-73.83 220.5,-55 216.01,-45.63 210.11,-35.69 204.97,-27.6"/>
<polygon fill="#63b8ff" stroke="#63b8ff" points="207.8,-25.54 199.41,-19.08 201.94,-29.37 207.8,-25.54"/>
</g>
<!-- Node8&#45;&gt;Node5 -->
<g id="edge12" class="edge">
<title>Node8&#45;&gt;Node5</title>
<path fill="none" stroke="#63b8ff" d="M245.55,-109.66C249.61,-92.09 258.79,-52.45 264.23,-28.95"/>
<polygon fill="#63b8ff" stroke="#63b8ff" points="267.65,-29.69 266.5,-19.16 260.83,-28.11 267.65,-29.69"/>
</g>
</g>
</svg>
