<?xml version="1.0" encoding="UTF-8" standalone="no"?>
<!DOCTYPE svg PUBLIC "-//W3C//DTD SVG 1.1//EN"
 "http://www.w3.org/Graphics/SVG/1.1/DTD/svg11.dtd">
<!-- Generated by graphviz version 2.43.0 (0)
 -->
<!-- Title: ee_sw_vcu_2025/lib/BMS/BMS.cpp Pages: 1 -->
<svg width="387pt" height="313pt"
 viewBox="0.00 0.00 386.50 313.00" xmlns="http://www.w3.org/2000/svg" xmlns:xlink="http://www.w3.org/1999/xlink">
<g id="graph0" class="graph" transform="scale(1 1) rotate(0) translate(4 309)">
<title>ee_sw_vcu_2025/lib/BMS/BMS.cpp</title>
<!-- Node1 -->
<g id="node1" class="node">
<title>Node1</title>
<g id="a_node1"><a xlink:title="Implementation of the BMS class for managing the Accumulator (Kclear BMS) via CAN bus.">
<polygon fill="#999999" stroke="#666666" points="214,-305 100,-305 100,-275 214,-275 214,-305"/>
<text text-anchor="start" x="108" y="-293" font-family="Helvetica,sans-Serif" font-size="10.00">ee_sw_vcu_2025/lib</text>
<text text-anchor="middle" x="157" y="-282" font-family="Helvetica,sans-Serif" font-size="10.00">/BMS/BMS.cpp</text>
</a>
</g>
</g>
<!-- Node2 -->
<g id="node2" class="node">
<title>Node2</title>
<g id="a_node2"><a xlink:href="BMS_8hpp.html" target="_top" xlink:title="Declaration of the BMS class for managing the Accumulator (Kclear BMS) via CAN bus.">
<polygon fill="white" stroke="#666666" points="284.5,-239 225.5,-239 225.5,-220 284.5,-220 284.5,-239"/>
<text text-anchor="middle" x="255" y="-227" font-family="Helvetica,sans-Serif" font-size="10.00">BMS.hpp</text>
</a>
</g>
</g>
<!-- Node1&#45;&gt;Node2 -->
<g id="edge1" class="edge">
<title>Node1&#45;&gt;Node2</title>
<path fill="none" stroke="#63b8ff" d="M180.72,-274.84C196.2,-265.6 216.32,-253.59 231.71,-244.4"/>
<polygon fill="#63b8ff" stroke="#63b8ff" points="233.81,-247.23 240.6,-239.09 230.22,-241.21 233.81,-247.23"/>
</g>
<!-- Node4 -->
<g id="node4" class="node">
<title>Node4</title>
<g id="a_node4"><a xlink:href="Enums_8hpp.html" target="_top" xlink:title="Enumeration definitions for the VCU.">
<polygon fill="white" stroke="#666666" points="177.5,-74 106.5,-74 106.5,-55 177.5,-55 177.5,-74"/>
<text text-anchor="middle" x="142" y="-62" font-family="Helvetica,sans-Serif" font-size="10.00">Enums.hpp</text>
</a>
</g>
</g>
<!-- Node1&#45;&gt;Node4 -->
<g id="edge18" class="edge">
<title>Node1&#45;&gt;Node4</title>
<path fill="none" stroke="#63b8ff" d="M148.99,-274.97C138.29,-255.36 119.9,-218.3 113,-184 105.76,-147.99 121.64,-106.38 132.64,-83.29"/>
<polygon fill="#63b8ff" stroke="#63b8ff" points="135.91,-84.58 137.25,-74.07 129.64,-81.45 135.91,-84.58"/>
</g>
<!-- Node7 -->
<g id="node7" class="node">
<title>Node7</title>
<g id="a_node7"><a xlink:title=" ">
<polygon fill="#e0e0e0" stroke="#999999" points="378.5,-74 307.5,-74 307.5,-55 378.5,-55 378.5,-74"/>
<text text-anchor="middle" x="343" y="-62" font-family="Helvetica,sans-Serif" font-size="10.00">mcp2515.h</text>
</a>
</g>
</g>
<!-- Node1&#45;&gt;Node7 -->
<g id="edge20" class="edge">
<title>Node1&#45;&gt;Node7</title>
<path fill="none" stroke="#63b8ff" d="M214.21,-277.84C263.53,-264.78 331.32,-237.68 361,-184 376.98,-155.09 376.36,-141.96 368,-110 365.45,-100.26 360.25,-90.41 355.24,-82.46"/>
<polygon fill="#63b8ff" stroke="#63b8ff" points="358.11,-80.46 349.63,-74.12 352.31,-84.37 358.11,-80.46"/>
</g>
<!-- Node9 -->
<g id="node9" class="node">
<title>Node9</title>
<g id="a_node9"><a xlink:href="CarState_8hpp.html" target="_top" xlink:title="Definition of the CarState structure representing the state of the car.">
<polygon fill="white" stroke="#666666" points="80,-129 0,-129 0,-110 80,-110 80,-129"/>
<text text-anchor="middle" x="40" y="-117" font-family="Helvetica,sans-Serif" font-size="10.00">CarState.hpp</text>
</a>
</g>
</g>
<!-- Node1&#45;&gt;Node9 -->
<g id="edge19" class="edge">
<title>Node1&#45;&gt;Node9</title>
<path fill="none" stroke="#63b8ff" d="M125.6,-274.87C109.97,-266.44 91.93,-254.36 80,-239 56.56,-208.81 46.44,-164.1 42.41,-139.12"/>
<polygon fill="#63b8ff" stroke="#63b8ff" points="45.86,-138.55 40.96,-129.16 38.93,-139.56 45.86,-138.55"/>
</g>
<!-- Node10 -->
<g id="node10" class="node">
<title>Node10</title>
<g id="a_node10"><a xlink:href="Debug_8hpp.html" target="_top" xlink:title="Debugging macros and functions for serial and CAN output.">
<polygon fill="white" stroke="#666666" points="191.5,-184 122.5,-184 122.5,-165 191.5,-165 191.5,-184"/>
<text text-anchor="middle" x="157" y="-172" font-family="Helvetica,sans-Serif" font-size="10.00">Debug.hpp</text>
</a>
</g>
</g>
<!-- Node1&#45;&gt;Node10 -->
<g id="edge16" class="edge">
<title>Node1&#45;&gt;Node10</title>
<path fill="none" stroke="#63b8ff" d="M157,-274.63C157,-254.21 157,-216.81 157,-194.24"/>
<polygon fill="#63b8ff" stroke="#63b8ff" points="160.5,-194.23 157,-184.23 153.5,-194.23 160.5,-194.23"/>
</g>
<!-- Node3 -->
<g id="node3" class="node">
<title>Node3</title>
<g id="a_node3"><a xlink:href="Scheduler_8hpp.html" target="_top" xlink:title="Declaration of the Scheduler class template, for scheduling tasks on multiple MCP2515 instances.">
<polygon fill="white" stroke="#666666" points="333.5,-184 248.5,-184 248.5,-165 333.5,-165 333.5,-184"/>
<text text-anchor="middle" x="291" y="-172" font-family="Helvetica,sans-Serif" font-size="10.00">Scheduler.hpp</text>
</a>
</g>
</g>
<!-- Node2&#45;&gt;Node3 -->
<g id="edge2" class="edge">
<title>Node2&#45;&gt;Node3</title>
<path fill="none" stroke="#63b8ff" d="M260.94,-219.75C265.98,-212.34 273.34,-201.5 279.51,-192.41"/>
<polygon fill="#63b8ff" stroke="#63b8ff" points="282.44,-194.33 285.17,-184.09 276.65,-190.39 282.44,-194.33"/>
</g>
<!-- Node2&#45;&gt;Node7 -->
<g id="edge15" class="edge">
<title>Node2&#45;&gt;Node7</title>
<path fill="none" stroke="#63b8ff" d="M284.67,-222.08C304.94,-215.97 330.36,-204.56 343,-184 361.97,-153.15 354.85,-108.69 348.55,-83.93"/>
<polygon fill="#63b8ff" stroke="#63b8ff" points="351.86,-82.76 345.81,-74.06 345.11,-84.63 351.86,-82.76"/>
</g>
<!-- Node2&#45;&gt;Node9 -->
<g id="edge11" class="edge">
<title>Node2&#45;&gt;Node9</title>
<path fill="none" stroke="#63b8ff" d="M249.92,-219.66C241.52,-205.86 223.45,-179.32 201,-165 167.43,-143.59 123.56,-132.34 90.09,-126.52"/>
<polygon fill="#63b8ff" stroke="#63b8ff" points="90.5,-123.04 80.06,-124.88 89.37,-129.95 90.5,-123.04"/>
</g>
<!-- Node3&#45;&gt;Node4 -->
<g id="edge3" class="edge">
<title>Node3&#45;&gt;Node4</title>
<path fill="none" stroke="#63b8ff" d="M269.51,-164.85C251.19,-156.95 224.62,-144.2 204,-129 185.31,-115.22 167.13,-95.66 155.35,-81.9"/>
<polygon fill="#63b8ff" stroke="#63b8ff" points="157.99,-79.6 148.89,-74.18 152.62,-84.09 157.99,-79.6"/>
</g>
<!-- Node3&#45;&gt;Node7 -->
<g id="edge6" class="edge">
<title>Node3&#45;&gt;Node7</title>
<path fill="none" stroke="#63b8ff" d="M295.26,-164.66C303.79,-146.93 323.15,-106.73 334.42,-83.32"/>
<polygon fill="#63b8ff" stroke="#63b8ff" points="337.65,-84.69 338.83,-74.16 331.34,-81.65 337.65,-84.69"/>
</g>
<!-- Node8 -->
<g id="node8" class="node">
<title>Node8</title>
<g id="a_node8"><a xlink:href="Scheduler_8tpp.html" target="_top" xlink:title="Implementation of the Scheduler class template.">
<polygon fill="white" stroke="#666666" points="295.5,-129 212.5,-129 212.5,-110 295.5,-110 295.5,-129"/>
<text text-anchor="middle" x="254" y="-117" font-family="Helvetica,sans-Serif" font-size="10.00">Scheduler.tpp</text>
</a>
</g>
</g>
<!-- Node3&#45;&gt;Node8 -->
<g id="edge7" class="edge">
<title>Node3&#45;&gt;Node8</title>
<path fill="none" stroke="#63b8ff" d="M279.72,-164.75C273.1,-157.49 265.33,-146.95 259.81,-137.98"/>
<polygon fill="#63b8ff" stroke="#63b8ff" points="262.79,-136.12 254.87,-129.09 256.67,-139.53 262.79,-136.12"/>
</g>
<!-- Node5 -->
<g id="node5" class="node">
<title>Node5</title>
<g id="a_node5"><a xlink:title=" ">
<polygon fill="#e0e0e0" stroke="#999999" points="159.5,-19 106.5,-19 106.5,0 159.5,0 159.5,-19"/>
<text text-anchor="middle" x="133" y="-7" font-family="Helvetica,sans-Serif" font-size="10.00">stdint.h</text>
</a>
</g>
</g>
<!-- Node4&#45;&gt;Node5 -->
<g id="edge4" class="edge">
<title>Node4&#45;&gt;Node5</title>
<path fill="none" stroke="#63b8ff" d="M140.51,-54.75C139.33,-47.8 137.64,-37.85 136.16,-29.13"/>
<polygon fill="#63b8ff" stroke="#63b8ff" points="139.58,-28.36 134.46,-19.09 132.68,-29.53 139.58,-28.36"/>
</g>
<!-- Node6 -->
<g id="node6" class="node">
<title>Node6</title>
<g id="a_node6"><a xlink:title=" ">
<polygon fill="#e0e0e0" stroke="#999999" points="79.5,-19 36.5,-19 36.5,0 79.5,0 79.5,-19"/>
<text text-anchor="middle" x="58" y="-7" font-family="Helvetica,sans-Serif" font-size="10.00">can.h</text>
</a>
</g>
</g>
<!-- Node4&#45;&gt;Node6 -->
<g id="edge5" class="edge">
<title>Node4&#45;&gt;Node6</title>
<path fill="none" stroke="#63b8ff" d="M128.5,-54.98C115.6,-46.84 95.9,-34.41 80.6,-24.76"/>
<polygon fill="#63b8ff" stroke="#63b8ff" points="82.07,-21.55 71.74,-19.17 78.33,-27.47 82.07,-21.55"/>
</g>
<!-- Node8&#45;&gt;Node3 -->
<g id="edge10" class="edge">
<title>Node8&#45;&gt;Node3</title>
<path fill="none" stroke="#63b8ff" d="M265.13,-129.09C271.73,-136.29 279.51,-146.82 285.06,-155.82"/>
<polygon fill="#63b8ff" stroke="#63b8ff" points="282.12,-157.73 290.06,-164.75 288.23,-154.31 282.12,-157.73"/>
</g>
<!-- Node8&#45;&gt;Node4 -->
<g id="edge8" class="edge">
<title>Node8&#45;&gt;Node4</title>
<path fill="none" stroke="#63b8ff" d="M236.01,-109.98C218.07,-101.5 190.28,-88.35 169.57,-78.54"/>
<polygon fill="#63b8ff" stroke="#63b8ff" points="170.86,-75.28 160.32,-74.17 167.86,-81.61 170.86,-75.28"/>
</g>
<!-- Node8&#45;&gt;Node7 -->
<g id="edge9" class="edge">
<title>Node8&#45;&gt;Node7</title>
<path fill="none" stroke="#63b8ff" d="M268.3,-109.98C282.1,-101.77 303.24,-89.18 319.51,-79.49"/>
<polygon fill="#63b8ff" stroke="#63b8ff" points="321.64,-82.29 328.44,-74.17 318.06,-76.28 321.64,-82.29"/>
</g>
<!-- Node9&#45;&gt;Node4 -->
<g id="edge12" class="edge">
<title>Node9&#45;&gt;Node4</title>
<path fill="none" stroke="#63b8ff" d="M56.39,-109.98C72.57,-101.57 97.57,-88.59 116.38,-78.81"/>
<polygon fill="#63b8ff" stroke="#63b8ff" points="118.05,-81.89 125.31,-74.17 114.83,-75.68 118.05,-81.89"/>
</g>
<!-- Node9&#45;&gt;Node5 -->
<g id="edge14" class="edge">
<title>Node9&#45;&gt;Node5</title>
<path fill="none" stroke="#63b8ff" d="M47.61,-109.66C63.22,-91.54 99.06,-49.91 118.99,-26.77"/>
<polygon fill="#63b8ff" stroke="#63b8ff" points="121.67,-29.02 125.54,-19.16 116.37,-24.45 121.67,-29.02"/>
</g>
<!-- Node9&#45;&gt;Node6 -->
<g id="edge13" class="edge">
<title>Node9&#45;&gt;Node6</title>
<path fill="none" stroke="#63b8ff" d="M41.47,-109.66C44.39,-92.17 50.95,-52.8 54.87,-29.27"/>
<polygon fill="#63b8ff" stroke="#63b8ff" points="58.37,-29.6 56.56,-19.16 51.46,-28.45 58.37,-29.6"/>
</g>
<!-- Node10&#45;&gt;Node4 -->
<g id="edge17" class="edge">
<title>Node10&#45;&gt;Node4</title>
<path fill="none" stroke="#63b8ff" d="M155.77,-164.66C153.34,-147.17 147.88,-107.8 144.61,-84.27"/>
<polygon fill="#63b8ff" stroke="#63b8ff" points="148.05,-83.58 143.2,-74.16 141.11,-84.54 148.05,-83.58"/>
</g>
</g>
</svg>
