<?xml version="1.0" encoding="UTF-8" standalone="no"?>
<!DOCTYPE svg PUBLIC "-//W3C//DTD SVG 1.1//EN"
 "http://www.w3.org/Graphics/SVG/1.1/DTD/svg11.dtd">
<!-- Generated by graphviz version 2.43.0 (0)
 -->
<!-- Title: lib/BMS/BMS.cpp Pages: 1 -->
<svg width="279pt" height="302pt"
 viewBox="0.00 0.00 278.58 302.00" xmlns="http://www.w3.org/2000/svg" xmlns:xlink="http://www.w3.org/1999/xlink">
<g id="graph0" class="graph" transform="scale(1 1) rotate(0) translate(4 298)">
<title>lib/BMS/BMS.cpp</title>
<!-- Node1 -->
<g id="node1" class="node">
<title>Node1</title>
<g id="a_node1"><a xlink:title="Implementation of the BMS class for managing the Accumulator (Kclear BMS) via CAN bus.">
<polygon fill="#999999" stroke="#666666" points="226.5,-294 128.5,-294 128.5,-275 226.5,-275 226.5,-294"/>
<text text-anchor="middle" x="177.5" y="-282" font-family="Helvetica,sans-Serif" font-size="10.00">lib/BMS/BMS.cpp</text>
</a>
</g>
</g>
<!-- Node2 -->
<g id="node2" class="node">
<title>Node2</title>
<g id="a_node2"><a xlink:href="BMS_8hpp.html" target="_top" xlink:title="Declaration of the BMS class for managing the Accumulator (Kclear BMS) via CAN bus.">
<polygon fill="white" stroke="#666666" points="168,-239 109,-239 109,-220 168,-220 168,-239"/>
<text text-anchor="middle" x="138.5" y="-227" font-family="Helvetica,sans-Serif" font-size="10.00">BMS.hpp</text>
</a>
</g>
</g>
<!-- Node1&#45;&gt;Node2 -->
<g id="edge1" class="edge">
<title>Node1&#45;&gt;Node2</title>
<path fill="none" stroke="#63b8ff" d="M171.06,-274.75C165.61,-267.34 157.64,-256.5 150.94,-247.41"/>
<polygon fill="#63b8ff" stroke="#63b8ff" points="153.57,-245.07 144.82,-239.09 147.93,-249.22 153.57,-245.07"/>
</g>
<!-- Node7 -->
<g id="node7" class="node">
<title>Node7</title>
<g id="a_node7"><a xlink:title=" ">
<polygon fill="#e0e0e0" stroke="#999999" points="260,-74 189,-74 189,-55 260,-55 260,-74"/>
<text text-anchor="middle" x="224.5" y="-62" font-family="Helvetica,sans-Serif" font-size="10.00">mcp2515.h</text>
</a>
</g>
</g>
<!-- Node1&#45;&gt;Node7 -->
<g id="edge15" class="edge">
<title>Node1&#45;&gt;Node7</title>
<path fill="none" stroke="#63b8ff" d="M208.92,-274.97C226.84,-268.32 247.8,-257.09 258.5,-239 288.53,-188.24 254.33,-115.95 235.4,-83.03"/>
<polygon fill="#63b8ff" stroke="#63b8ff" points="238.23,-80.95 230.1,-74.15 232.22,-84.53 238.23,-80.95"/>
</g>
<!-- Node9 -->
<g id="node9" class="node">
<title>Node9</title>
<g id="a_node9"><a xlink:title=" ">
<polygon fill="#e0e0e0" stroke="#999999" points="249,-239 186,-239 186,-220 249,-220 249,-239"/>
<text text-anchor="middle" x="217.5" y="-227" font-family="Helvetica,sans-Serif" font-size="10.00">Arduino.h</text>
</a>
</g>
</g>
<!-- Node1&#45;&gt;Node9 -->
<g id="edge12" class="edge">
<title>Node1&#45;&gt;Node9</title>
<path fill="none" stroke="#63b8ff" d="M184.11,-274.75C189.76,-267.26 198.04,-256.28 204.95,-247.13"/>
<polygon fill="#63b8ff" stroke="#63b8ff" points="207.79,-249.18 211.02,-239.09 202.2,-244.96 207.79,-249.18"/>
</g>
<!-- Node10 -->
<g id="node10" class="node">
<title>Node10</title>
<g id="a_node10"><a xlink:href="Debug_8hpp.html" target="_top" xlink:title="Debugging macros and functions for serial and CAN output.">
<polygon fill="white" stroke="#666666" points="69,-184 0,-184 0,-165 69,-165 69,-184"/>
<text text-anchor="middle" x="34.5" y="-172" font-family="Helvetica,sans-Serif" font-size="10.00">Debug.hpp</text>
</a>
</g>
</g>
<!-- Node1&#45;&gt;Node10 -->
<g id="edge13" class="edge">
<title>Node1&#45;&gt;Node10</title>
<path fill="none" stroke="#63b8ff" d="M159.67,-274.98C143.32,-266.79 118.79,-253.55 99.5,-239 80.52,-224.68 61.35,-205.21 48.81,-191.62"/>
<polygon fill="#63b8ff" stroke="#63b8ff" points="51.22,-189.07 41.91,-184.02 46.03,-193.78 51.22,-189.07"/>
</g>
<!-- Node3 -->
<g id="node3" class="node">
<title>Node3</title>
<g id="a_node3"><a xlink:href="Scheduler_8hpp.html" target="_top" xlink:title="Declaration of the Scheduler class template, for scheduling tasks on multiple MCP2515 instances.">
<polygon fill="white" stroke="#666666" points="178,-184 93,-184 93,-165 178,-165 178,-184"/>
<text text-anchor="middle" x="135.5" y="-172" font-family="Helvetica,sans-Serif" font-size="10.00">Scheduler.hpp</text>
</a>
</g>
</g>
<!-- Node2&#45;&gt;Node3 -->
<g id="edge2" class="edge">
<title>Node2&#45;&gt;Node3</title>
<path fill="none" stroke="#63b8ff" d="M138,-219.75C137.61,-212.8 137.05,-202.85 136.55,-194.13"/>
<polygon fill="#63b8ff" stroke="#63b8ff" points="140.05,-193.88 135.99,-184.09 133.06,-194.27 140.05,-193.88"/>
</g>
<!-- Node2&#45;&gt;Node7 -->
<g id="edge11" class="edge">
<title>Node2&#45;&gt;Node7</title>
<path fill="none" stroke="#63b8ff" d="M151,-219.97C162,-211.88 177.76,-198.77 187.5,-184 208.19,-152.63 217.86,-109.01 221.93,-84.39"/>
<polygon fill="#63b8ff" stroke="#63b8ff" points="225.42,-84.65 223.46,-74.24 218.5,-83.61 225.42,-84.65"/>
</g>
<!-- Node4 -->
<g id="node4" class="node">
<title>Node4</title>
<g id="a_node4"><a xlink:href="Enums_8h.html" target="_top" xlink:title="Enumeration definitions for the VCU.">
<polygon fill="white" stroke="#666666" points="95,-74 36,-74 36,-55 95,-55 95,-74"/>
<text text-anchor="middle" x="65.5" y="-62" font-family="Helvetica,sans-Serif" font-size="10.00">Enums.h</text>
</a>
</g>
</g>
<!-- Node3&#45;&gt;Node4 -->
<g id="edge3" class="edge">
<title>Node3&#45;&gt;Node4</title>
<path fill="none" stroke="#63b8ff" d="M121.88,-164.87C110.34,-156.89 94.17,-144.02 84.5,-129 75.74,-115.39 70.87,-97.58 68.26,-84.28"/>
<polygon fill="#63b8ff" stroke="#63b8ff" points="71.7,-83.63 66.56,-74.36 64.8,-84.81 71.7,-83.63"/>
</g>
<!-- Node3&#45;&gt;Node7 -->
<g id="edge6" class="edge">
<title>Node3&#45;&gt;Node7</title>
<path fill="none" stroke="#63b8ff" d="M147.38,-164.87C158.38,-156.51 174.74,-143.06 186.5,-129 198.32,-114.86 208.82,-96.63 215.78,-83.33"/>
<polygon fill="#63b8ff" stroke="#63b8ff" points="218.97,-84.78 220.36,-74.28 212.72,-81.62 218.97,-84.78"/>
</g>
<!-- Node8 -->
<g id="node8" class="node">
<title>Node8</title>
<g id="a_node8"><a xlink:href="Scheduler_8tpp.html" target="_top" xlink:title="Implementation of the Scheduler class template.">
<polygon fill="white" stroke="#666666" points="177,-129 94,-129 94,-110 177,-110 177,-129"/>
<text text-anchor="middle" x="135.5" y="-117" font-family="Helvetica,sans-Serif" font-size="10.00">Scheduler.tpp</text>
</a>
</g>
</g>
<!-- Node3&#45;&gt;Node8 -->
<g id="edge7" class="edge">
<title>Node3&#45;&gt;Node8</title>
<path fill="none" stroke="#63b8ff" d="M130.33,-164.75C128.84,-157.8 128.4,-147.85 129.02,-139.13"/>
<polygon fill="#63b8ff" stroke="#63b8ff" points="132.51,-139.47 130.37,-129.09 125.57,-138.53 132.51,-139.47"/>
</g>
<!-- Node5 -->
<g id="node5" class="node">
<title>Node5</title>
<g id="a_node5"><a xlink:title=" ">
<polygon fill="#e0e0e0" stroke="#999999" points="59,-19 6,-19 6,0 59,0 59,-19"/>
<text text-anchor="middle" x="32.5" y="-7" font-family="Helvetica,sans-Serif" font-size="10.00">stdint.h</text>
</a>
</g>
</g>
<!-- Node4&#45;&gt;Node5 -->
<g id="edge4" class="edge">
<title>Node4&#45;&gt;Node5</title>
<path fill="none" stroke="#63b8ff" d="M60.05,-54.75C55.49,-47.42 48.83,-36.73 43.21,-27.7"/>
<polygon fill="#63b8ff" stroke="#63b8ff" points="46.1,-25.73 37.85,-19.09 40.16,-29.43 46.1,-25.73"/>
</g>
<!-- Node6 -->
<g id="node6" class="node">
<title>Node6</title>
<g id="a_node6"><a xlink:title=" ">
<polygon fill="#e0e0e0" stroke="#999999" points="120,-19 77,-19 77,0 120,0 120,-19"/>
<text text-anchor="middle" x="98.5" y="-7" font-family="Helvetica,sans-Serif" font-size="10.00">can.h</text>
</a>
</g>
</g>
<!-- Node4&#45;&gt;Node6 -->
<g id="edge5" class="edge">
<title>Node4&#45;&gt;Node6</title>
<path fill="none" stroke="#63b8ff" d="M70.95,-54.75C75.51,-47.42 82.17,-36.73 87.79,-27.7"/>
<polygon fill="#63b8ff" stroke="#63b8ff" points="90.84,-29.43 93.15,-19.09 84.9,-25.73 90.84,-29.43"/>
</g>
<!-- Node8&#45;&gt;Node3 -->
<g id="edge10" class="edge">
<title>Node8&#45;&gt;Node3</title>
<path fill="none" stroke="#63b8ff" d="M140.63,-129.09C142.14,-135.99 142.59,-145.93 141.99,-154.66"/>
<polygon fill="#63b8ff" stroke="#63b8ff" points="138.5,-154.38 140.67,-164.75 145.44,-155.29 138.5,-154.38"/>
</g>
<!-- Node8&#45;&gt;Node4 -->
<g id="edge8" class="edge">
<title>Node8&#45;&gt;Node4</title>
<path fill="none" stroke="#63b8ff" d="M124.25,-109.98C113.7,-102 97.7,-89.88 85.06,-80.31"/>
<polygon fill="#63b8ff" stroke="#63b8ff" points="87.04,-77.42 76.95,-74.17 82.81,-83 87.04,-77.42"/>
</g>
<!-- Node8&#45;&gt;Node7 -->
<g id="edge9" class="edge">
<title>Node8&#45;&gt;Node7</title>
<path fill="none" stroke="#63b8ff" d="M149.8,-109.98C163.6,-101.77 184.74,-89.18 201.01,-79.49"/>
<polygon fill="#63b8ff" stroke="#63b8ff" points="203.14,-82.29 209.94,-74.17 199.56,-76.28 203.14,-82.29"/>
</g>
<!-- Node10&#45;&gt;Node4 -->
<g id="edge14" class="edge">
<title>Node10&#45;&gt;Node4</title>
<path fill="none" stroke="#63b8ff" d="M36.69,-164.84C39.82,-152.59 45.82,-129.51 51.5,-110 53.99,-101.45 56.92,-92.03 59.46,-84.07"/>
<polygon fill="#63b8ff" stroke="#63b8ff" points="62.86,-84.92 62.6,-74.33 56.2,-82.78 62.86,-84.92"/>
</g>
</g>
</svg>
