<?xml version="1.0" encoding="UTF-8" standalone="no"?>
<!DOCTYPE svg PUBLIC "-//W3C//DTD SVG 1.1//EN"
 "http://www.w3.org/Graphics/SVG/1.1/DTD/svg11.dtd">
<!-- Generated by graphviz version 2.43.0 (0)
 -->
<!-- Title: vehicle_control_unit/lib/BMS/BMS.cpp Pages: 1 -->
<svg width="598pt" height="313pt"
 viewBox="0.00 0.00 597.50 313.00" xmlns="http://www.w3.org/2000/svg" xmlns:xlink="http://www.w3.org/1999/xlink">
<g id="graph0" class="graph" transform="scale(1 1) rotate(0) translate(4 309)">
<title>vehicle_control_unit/lib/BMS/BMS.cpp</title>
<!-- Node1 -->
<g id="node1" class="node">
<title>Node1</title>
<g id="a_node1"><a xlink:title="Implementation of the BMS class for managing the Accumulator (Kclear BMS) via CAN bus.">
<polygon fill="#999999" stroke="#666666" points="381,-305 266,-305 266,-275 381,-275 381,-305"/>
<text text-anchor="start" x="274" y="-293" font-family="Helvetica,sans-Serif" font-size="10.00">vehicle_control_unit</text>
<text text-anchor="middle" x="323.5" y="-282" font-family="Helvetica,sans-Serif" font-size="10.00">/lib/BMS/BMS.cpp</text>
</a>
</g>
</g>
<!-- Node2 -->
<g id="node2" class="node">
<title>Node2</title>
<g id="a_node2"><a xlink:href="BMS_8hpp.html" target="_top" xlink:title="Declaration of the BMS class for managing the Accumulator (Kclear BMS) via CAN bus.">
<polygon fill="white" stroke="#666666" points="215,-239 156,-239 156,-220 215,-220 215,-239"/>
<text text-anchor="middle" x="185.5" y="-227" font-family="Helvetica,sans-Serif" font-size="10.00">BMS.hpp</text>
</a>
</g>
</g>
<!-- Node1&#45;&gt;Node2 -->
<g id="edge1" class="edge">
<title>Node1&#45;&gt;Node2</title>
<path fill="none" stroke="#63b8ff" d="M290.45,-274.99C267.52,-265.27 237.26,-252.44 215.12,-243.06"/>
<polygon fill="#63b8ff" stroke="#63b8ff" points="216.45,-239.82 205.88,-239.14 213.72,-246.26 216.45,-239.82"/>
</g>
<!-- Node4 -->
<g id="node4" class="node">
<title>Node4</title>
<g id="a_node4"><a xlink:href="Enums_8hpp.html" target="_top" xlink:title="Enumeration definitions for the VCU.">
<polygon fill="white" stroke="#666666" points="364,-74 293,-74 293,-55 364,-55 364,-74"/>
<text text-anchor="middle" x="328.5" y="-62" font-family="Helvetica,sans-Serif" font-size="10.00">Enums.hpp</text>
</a>
</g>
</g>
<!-- Node1&#45;&gt;Node4 -->
<g id="edge24" class="edge">
<title>Node1&#45;&gt;Node4</title>
<path fill="none" stroke="#63b8ff" d="M349.47,-274.88C401.09,-244.97 507.86,-172.86 462.5,-110 451.86,-95.25 408.55,-82.66 374.01,-74.67"/>
<polygon fill="#63b8ff" stroke="#63b8ff" points="374.6,-71.21 364.08,-72.44 373.07,-78.04 374.6,-71.21"/>
</g>
<!-- Node7 -->
<g id="node7" class="node">
<title>Node7</title>
<g id="a_node7"><a xlink:title=" ">
<polygon fill="#e0e0e0" stroke="#999999" points="71,-74 0,-74 0,-55 71,-55 71,-74"/>
<text text-anchor="middle" x="35.5" y="-62" font-family="Helvetica,sans-Serif" font-size="10.00">mcp2515.h</text>
</a>
</g>
</g>
<!-- Node1&#45;&gt;Node7 -->
<g id="edge26" class="edge">
<title>Node1&#45;&gt;Node7</title>
<path fill="none" stroke="#63b8ff" d="M265.78,-285.47C199.29,-278.03 92.33,-255.02 38.5,-184 16.41,-154.86 23.54,-109.07 29.97,-83.8"/>
<polygon fill="#63b8ff" stroke="#63b8ff" points="33.38,-84.61 32.68,-74.04 26.63,-82.74 33.38,-84.61"/>
</g>
<!-- Node9 -->
<g id="node9" class="node">
<title>Node9</title>
<g id="a_node9"><a xlink:href="CarState_8hpp.html" target="_top" xlink:title="Definition of the CarState structure representing the state of the car.">
<polygon fill="white" stroke="#666666" points="589.5,-129 509.5,-129 509.5,-110 589.5,-110 589.5,-129"/>
<text text-anchor="middle" x="549.5" y="-117" font-family="Helvetica,sans-Serif" font-size="10.00">CarState.hpp</text>
</a>
</g>
</g>
<!-- Node1&#45;&gt;Node9 -->
<g id="edge25" class="edge">
<title>Node1&#45;&gt;Node9</title>
<path fill="none" stroke="#63b8ff" d="M381.17,-284.45C417.65,-278.86 463.75,-266.46 495.5,-239 526.04,-212.59 540.25,-165.36 546.05,-139.21"/>
<polygon fill="#63b8ff" stroke="#63b8ff" points="549.54,-139.62 548.1,-129.13 542.68,-138.23 549.54,-139.62"/>
</g>
<!-- Node10 -->
<g id="node10" class="node">
<title>Node10</title>
<g id="a_node10"><a xlink:href="Debug_8hpp.html" target="_top" xlink:title="Debugging macros and functions for serial and CAN output.">
<polygon fill="white" stroke="#666666" points="358,-184 289,-184 289,-165 358,-165 358,-184"/>
<text text-anchor="middle" x="323.5" y="-172" font-family="Helvetica,sans-Serif" font-size="10.00">Debug.hpp</text>
</a>
</g>
</g>
<!-- Node1&#45;&gt;Node10 -->
<g id="edge16" class="edge">
<title>Node1&#45;&gt;Node10</title>
<path fill="none" stroke="#63b8ff" d="M323.5,-274.63C323.5,-254.21 323.5,-216.81 323.5,-194.24"/>
<polygon fill="#63b8ff" stroke="#63b8ff" points="327,-194.23 323.5,-184.23 320,-194.23 327,-194.23"/>
</g>
<!-- Node3 -->
<g id="node3" class="node">
<title>Node3</title>
<g id="a_node3"><a xlink:href="Scheduler_8hpp.html" target="_top" xlink:title="Declaration of the Scheduler class template, for scheduling tasks on multiple MCP2515 instances.">
<polygon fill="white" stroke="#666666" points="148,-184 63,-184 63,-165 148,-165 148,-184"/>
<text text-anchor="middle" x="105.5" y="-172" font-family="Helvetica,sans-Serif" font-size="10.00">Scheduler.hpp</text>
</a>
</g>
</g>
<!-- Node2&#45;&gt;Node3 -->
<g id="edge2" class="edge">
<title>Node2&#45;&gt;Node3</title>
<path fill="none" stroke="#63b8ff" d="M172.65,-219.98C160.36,-211.84 141.59,-199.41 127.02,-189.76"/>
<polygon fill="#63b8ff" stroke="#63b8ff" points="128.86,-186.78 118.59,-184.17 124.99,-192.61 128.86,-186.78"/>
</g>
<!-- Node2&#45;&gt;Node7 -->
<g id="edge15" class="edge">
<title>Node2&#45;&gt;Node7</title>
<path fill="none" stroke="#63b8ff" d="M155.93,-226.84C125.65,-223.48 79.46,-213.51 53.5,-184 29.08,-156.24 29.89,-109.92 32.67,-84.18"/>
<polygon fill="#63b8ff" stroke="#63b8ff" points="36.14,-84.6 33.96,-74.24 29.2,-83.7 36.14,-84.6"/>
</g>
<!-- Node2&#45;&gt;Node9 -->
<g id="edge11" class="edge">
<title>Node2&#45;&gt;Node9</title>
<path fill="none" stroke="#63b8ff" d="M215.2,-222.09C251.24,-214.11 313.75,-199.6 366.5,-184 420,-168.18 481.01,-146.19 517.33,-132.68"/>
<polygon fill="#63b8ff" stroke="#63b8ff" points="518.76,-135.89 526.9,-129.11 516.3,-129.33 518.76,-135.89"/>
</g>
<!-- Node3&#45;&gt;Node4 -->
<g id="edge3" class="edge">
<title>Node3&#45;&gt;Node4</title>
<path fill="none" stroke="#63b8ff" d="M148.25,-167.96C182.16,-162.13 229.8,-150.68 266.5,-129 286.71,-117.06 304.83,-96.84 316.18,-82.42"/>
<polygon fill="#63b8ff" stroke="#63b8ff" points="319.08,-84.4 322.34,-74.32 313.5,-80.17 319.08,-84.4"/>
</g>
<!-- Node3&#45;&gt;Node7 -->
<g id="edge6" class="edge">
<title>Node3&#45;&gt;Node7</title>
<path fill="none" stroke="#63b8ff" d="M91.88,-164.87C80.34,-156.89 64.17,-144.02 54.5,-129 45.74,-115.39 40.87,-97.58 38.26,-84.28"/>
<polygon fill="#63b8ff" stroke="#63b8ff" points="41.7,-83.63 36.56,-74.36 34.8,-84.81 41.7,-83.63"/>
</g>
<!-- Node8 -->
<g id="node8" class="node">
<title>Node8</title>
<g id="a_node8"><a xlink:href="Scheduler_8tpp.html" target="_top" xlink:title="Implementation of the Scheduler class template.">
<polygon fill="white" stroke="#666666" points="147,-129 64,-129 64,-110 147,-110 147,-129"/>
<text text-anchor="middle" x="105.5" y="-117" font-family="Helvetica,sans-Serif" font-size="10.00">Scheduler.tpp</text>
</a>
</g>
</g>
<!-- Node3&#45;&gt;Node8 -->
<g id="edge7" class="edge">
<title>Node3&#45;&gt;Node8</title>
<path fill="none" stroke="#63b8ff" d="M100.33,-164.75C98.84,-157.8 98.4,-147.85 99.02,-139.13"/>
<polygon fill="#63b8ff" stroke="#63b8ff" points="102.51,-139.47 100.37,-129.09 95.57,-138.53 102.51,-139.47"/>
</g>
<!-- Node5 -->
<g id="node5" class="node">
<title>Node5</title>
<g id="a_node5"><a xlink:title=" ">
<polygon fill="#e0e0e0" stroke="#999999" points="532,-19 479,-19 479,0 532,0 532,-19"/>
<text text-anchor="middle" x="505.5" y="-7" font-family="Helvetica,sans-Serif" font-size="10.00">stdint.h</text>
</a>
</g>
</g>
<!-- Node4&#45;&gt;Node5 -->
<g id="edge4" class="edge">
<title>Node4&#45;&gt;Node5</title>
<path fill="none" stroke="#63b8ff" d="M356.94,-54.98C387.4,-45.86 435.85,-31.36 469.08,-21.41"/>
<polygon fill="#63b8ff" stroke="#63b8ff" points="470.29,-24.7 478.87,-18.47 468.29,-17.99 470.29,-24.7"/>
</g>
<!-- Node6 -->
<g id="node6" class="node">
<title>Node6</title>
<g id="a_node6"><a xlink:title=" ">
<polygon fill="#e0e0e0" stroke="#999999" points="424,-19 381,-19 381,0 424,0 424,-19"/>
<text text-anchor="middle" x="402.5" y="-7" font-family="Helvetica,sans-Serif" font-size="10.00">can.h</text>
</a>
</g>
</g>
<!-- Node4&#45;&gt;Node6 -->
<g id="edge5" class="edge">
<title>Node4&#45;&gt;Node6</title>
<path fill="none" stroke="#63b8ff" d="M340.39,-54.98C351.65,-46.92 368.79,-34.65 382.21,-25.03"/>
<polygon fill="#63b8ff" stroke="#63b8ff" points="384.3,-27.84 390.39,-19.17 380.23,-22.15 384.3,-27.84"/>
</g>
<!-- Node8&#45;&gt;Node3 -->
<g id="edge10" class="edge">
<title>Node8&#45;&gt;Node3</title>
<path fill="none" stroke="#63b8ff" d="M110.63,-129.09C112.14,-135.99 112.59,-145.93 111.99,-154.66"/>
<polygon fill="#63b8ff" stroke="#63b8ff" points="108.5,-154.38 110.67,-164.75 115.44,-155.29 108.5,-154.38"/>
</g>
<!-- Node8&#45;&gt;Node4 -->
<g id="edge8" class="edge">
<title>Node8&#45;&gt;Node4</title>
<path fill="none" stroke="#63b8ff" d="M141.33,-109.98C179.77,-100.85 240.94,-86.31 282.82,-76.36"/>
<polygon fill="#63b8ff" stroke="#63b8ff" points="283.84,-79.71 292.76,-73.99 282.22,-72.9 283.84,-79.71"/>
</g>
<!-- Node8&#45;&gt;Node7 -->
<g id="edge9" class="edge">
<title>Node8&#45;&gt;Node7</title>
<path fill="none" stroke="#63b8ff" d="M94.25,-109.98C83.7,-102 67.7,-89.88 55.06,-80.31"/>
<polygon fill="#63b8ff" stroke="#63b8ff" points="57.04,-77.42 46.95,-74.17 52.81,-83 57.04,-77.42"/>
</g>
<!-- Node9&#45;&gt;Node4 -->
<g id="edge12" class="edge">
<title>Node9&#45;&gt;Node4</title>
<path fill="none" stroke="#63b8ff" d="M513.99,-109.98C476.01,-100.87 415.63,-86.4 374.14,-76.45"/>
<polygon fill="#63b8ff" stroke="#63b8ff" points="374.83,-73.01 364.29,-74.08 373.19,-79.82 374.83,-73.01"/>
</g>
<!-- Node9&#45;&gt;Node5 -->
<g id="edge14" class="edge">
<title>Node9&#45;&gt;Node5</title>
<path fill="none" stroke="#63b8ff" d="M545.9,-109.66C538.71,-92.01 522.44,-52.09 512.89,-28.64"/>
<polygon fill="#63b8ff" stroke="#63b8ff" points="516.04,-27.1 509.03,-19.16 509.56,-29.74 516.04,-27.1"/>
</g>
<!-- Node9&#45;&gt;Node6 -->
<g id="edge13" class="edge">
<title>Node9&#45;&gt;Node6</title>
<path fill="none" stroke="#63b8ff" d="M537.72,-109.84C512.67,-91.44 453.86,-48.23 422.7,-25.34"/>
<polygon fill="#63b8ff" stroke="#63b8ff" points="424.47,-22.3 414.34,-19.2 420.32,-27.94 424.47,-22.3"/>
</g>
<!-- Node10&#45;&gt;Node4 -->
<g id="edge17" class="edge">
<title>Node10&#45;&gt;Node4</title>
<path fill="none" stroke="#63b8ff" d="M323.91,-164.66C324.72,-147.17 326.54,-107.8 327.63,-84.27"/>
<polygon fill="#63b8ff" stroke="#63b8ff" points="331.13,-84.31 328.1,-74.16 324.14,-83.99 331.13,-84.31"/>
</g>
<!-- Node11 -->
<g id="node11" class="node">
<title>Node11</title>
<g id="a_node11"><a xlink:href="Debug__serial_8hpp.html" target="_top" xlink:title="Declaration of the Debug_Serial namespace for serial debugging functions.">
<polygon fill="white" stroke="#666666" points="453,-129 352,-129 352,-110 453,-110 453,-129"/>
<text text-anchor="middle" x="402.5" y="-117" font-family="Helvetica,sans-Serif" font-size="10.00">Debug_serial.hpp</text>
</a>
</g>
</g>
<!-- Node10&#45;&gt;Node11 -->
<g id="edge18" class="edge">
<title>Node10&#45;&gt;Node11</title>
<path fill="none" stroke="#63b8ff" d="M336.19,-164.98C348.33,-156.84 366.86,-144.41 381.25,-134.76"/>
<polygon fill="#63b8ff" stroke="#63b8ff" points="383.22,-137.65 389.58,-129.17 379.32,-131.84 383.22,-137.65"/>
</g>
<!-- Node13 -->
<g id="node13" class="node">
<title>Node13</title>
<g id="a_node13"><a xlink:href="Debug__can_8hpp.html" target="_top" xlink:title="Declaration of the Debug_CAN namespace for CAN debugging functions.">
<polygon fill="white" stroke="#666666" points="257.5,-129 165.5,-129 165.5,-110 257.5,-110 257.5,-129"/>
<text text-anchor="middle" x="211.5" y="-117" font-family="Helvetica,sans-Serif" font-size="10.00">Debug_can.hpp</text>
</a>
</g>
</g>
<!-- Node10&#45;&gt;Node13 -->
<g id="edge21" class="edge">
<title>Node10&#45;&gt;Node13</title>
<path fill="none" stroke="#63b8ff" d="M305.51,-164.98C287.57,-156.5 259.78,-143.35 239.07,-133.54"/>
<polygon fill="#63b8ff" stroke="#63b8ff" points="240.36,-130.28 229.82,-129.17 237.36,-136.61 240.36,-130.28"/>
</g>
<!-- Node11&#45;&gt;Node4 -->
<g id="edge20" class="edge">
<title>Node11&#45;&gt;Node4</title>
<path fill="none" stroke="#63b8ff" d="M390.61,-109.98C379.35,-101.92 362.21,-89.65 348.79,-80.03"/>
<polygon fill="#63b8ff" stroke="#63b8ff" points="350.77,-77.15 340.61,-74.17 346.7,-82.84 350.77,-77.15"/>
</g>
<!-- Node12 -->
<g id="node12" class="node">
<title>Node12</title>
<g id="a_node12"><a xlink:title=" ">
<polygon fill="#e0e0e0" stroke="#999999" points="445,-74 382,-74 382,-55 445,-55 445,-74"/>
<text text-anchor="middle" x="413.5" y="-62" font-family="Helvetica,sans-Serif" font-size="10.00">Arduino.h</text>
</a>
</g>
</g>
<!-- Node11&#45;&gt;Node12 -->
<g id="edge19" class="edge">
<title>Node11&#45;&gt;Node12</title>
<path fill="none" stroke="#63b8ff" d="M404.32,-109.75C405.76,-102.8 407.82,-92.85 409.63,-84.13"/>
<polygon fill="#63b8ff" stroke="#63b8ff" points="413.11,-84.59 411.72,-74.09 406.26,-83.17 413.11,-84.59"/>
</g>
<!-- Node13&#45;&gt;Node4 -->
<g id="edge23" class="edge">
<title>Node13&#45;&gt;Node4</title>
<path fill="none" stroke="#63b8ff" d="M230.3,-109.98C249.12,-101.46 278.32,-88.23 300,-78.41"/>
<polygon fill="#63b8ff" stroke="#63b8ff" points="301.7,-81.48 309.36,-74.17 298.81,-75.11 301.7,-81.48"/>
</g>
<!-- Node13&#45;&gt;Node7 -->
<g id="edge22" class="edge">
<title>Node13&#45;&gt;Node7</title>
<path fill="none" stroke="#63b8ff" d="M183.22,-109.98C153.55,-101.05 106.71,-86.94 73.75,-77.02"/>
<polygon fill="#63b8ff" stroke="#63b8ff" points="74.58,-73.61 64,-74.08 72.57,-80.32 74.58,-73.61"/>
</g>
</g>
</svg>
