<?xml version="1.0" encoding="UTF-8" standalone="no"?>
<!DOCTYPE svg PUBLIC "-//W3C//DTD SVG 1.1//EN"
 "http://www.w3.org/Graphics/SVG/1.1/DTD/svg11.dtd">
<!-- Generated by graphviz version 2.43.0 (0)
 -->
<!-- Title: include/car_state.h Pages: 1 -->
<svg width="138pt" height="82pt"
 viewBox="0.00 0.00 138.00 82.00" xmlns="http://www.w3.org/2000/svg" xmlns:xlink="http://www.w3.org/1999/xlink">
<g id="graph0" class="graph" transform="scale(1 1) rotate(0) translate(4 78)">
<title>include/car_state.h</title>
<!-- Node1 -->
<g id="node1" class="node">
<title>Node1</title>
<g id="a_node1"><a xlink:title=" ">
<polygon fill="#999999" stroke="#666666" points="121,-74 12,-74 12,-55 121,-55 121,-74"/>
<text text-anchor="middle" x="66.5" y="-62" font-family="Helvetica,sans-Serif" font-size="10.00">include/car_state.h</text>
</a>
</g>
</g>
<!-- Node2 -->
<g id="node2" class="node">
<title>Node2</title>
<g id="a_node2"><a xlink:href="Enums_8h.html" target="_top" xlink:title=" ">
<polygon fill="white" stroke="#666666" points="59,-19 0,-19 0,0 59,0 59,-19"/>
<text text-anchor="middle" x="29.5" y="-7" font-family="Helvetica,sans-Serif" font-size="10.00">Enums.h</text>
</a>
</g>
</g>
<!-- Node1&#45;&gt;Node2 -->
<g id="edge1" class="edge">
<title>Node1&#45;&gt;Node2</title>
<path fill="none" stroke="#63b8ff" d="M60.39,-54.75C55.22,-47.34 47.65,-36.5 41.31,-27.41"/>
<polygon fill="#63b8ff" stroke="#63b8ff" points="44.09,-25.29 35.5,-19.09 38.35,-29.29 44.09,-25.29"/>
</g>
<!-- Node3 -->
<g id="node3" class="node">
<title>Node3</title>
<g id="a_node3"><a xlink:title=" ">
<polygon fill="#e0e0e0" stroke="#999999" points="130,-19 77,-19 77,0 130,0 130,-19"/>
<text text-anchor="middle" x="103.5" y="-7" font-family="Helvetica,sans-Serif" font-size="10.00">stdint.h</text>
</a>
</g>
</g>
<!-- Node1&#45;&gt;Node3 -->
<g id="edge2" class="edge">
<title>Node1&#45;&gt;Node3</title>
<path fill="none" stroke="#63b8ff" d="M72.61,-54.75C77.78,-47.34 85.35,-36.5 91.69,-27.41"/>
<polygon fill="#63b8ff" stroke="#63b8ff" points="94.65,-29.29 97.5,-19.09 88.91,-25.29 94.65,-29.29"/>
</g>
</g>
</svg>
