<?xml version="1.0" encoding="UTF-8" standalone="no"?>
<!DOCTYPE svg PUBLIC "-//W3C//DTD SVG 1.1//EN"
 "http://www.w3.org/Graphics/SVG/1.1/DTD/svg11.dtd">
<!-- Generated by graphviz version 2.43.0 (0)
 -->
<!-- Title: ee_sw_vcu_2025/include/CarState.hpp Pages: 1 -->
<svg width="582pt" height="170pt"
 viewBox="0.00 0.00 582.00 170.00" xmlns="http://www.w3.org/2000/svg" xmlns:xlink="http://www.w3.org/1999/xlink">
<g id="graph0" class="graph" transform="scale(1 1) rotate(0) translate(4 166)">
<title>ee_sw_vcu_2025/include/CarState.hpp</title>
<!-- Node1 -->
<g id="node1" class="node">
<title>Node1</title>
<g id="a_node1"><a xlink:title="Definition of the CarState structure representing the state of the car.">
<polygon fill="#999999" stroke="#666666" points="325.5,-162 188.5,-162 188.5,-132 325.5,-132 325.5,-162"/>
<text text-anchor="start" x="196.5" y="-150" font-family="Helvetica,sans-Serif" font-size="10.00">ee_sw_vcu_2025/include</text>
<text text-anchor="middle" x="257" y="-139" font-family="Helvetica,sans-Serif" font-size="10.00">/CarState.hpp</text>
</a>
</g>
</g>
<!-- Node2 -->
<g id="node2" class="node">
<title>Node2</title>
<g id="a_node2"><a xlink:href="BMS_8cpp.html" target="_top" xlink:title="Implementation of the BMS class for managing the Accumulator (Kclear BMS) via CAN bus.">
<polygon fill="white" stroke="#666666" points="114,-30 0,-30 0,0 114,0 114,-30"/>
<text text-anchor="start" x="8" y="-18" font-family="Helvetica,sans-Serif" font-size="10.00">ee_sw_vcu_2025/lib</text>
<text text-anchor="middle" x="57" y="-7" font-family="Helvetica,sans-Serif" font-size="10.00">/BMS/BMS.cpp</text>
</a>
</g>
</g>
<!-- Node1&#45;&gt;Node2 -->
<g id="edge1" class="edge">
<title>Node1&#45;&gt;Node2</title>
<path fill="none" stroke="#63b8ff" d="M178.37,-136.33C129.12,-128.47 72.2,-115.46 57,-96 42.3,-77.17 47.35,-47.53 52.25,-30.11"/>
<polygon fill="#63b8ff" stroke="#63b8ff" points="178.01,-139.81 188.43,-137.88 179.08,-132.9 178.01,-139.81"/>
</g>
<!-- Node3 -->
<g id="node3" class="node">
<title>Node3</title>
<g id="a_node3"><a xlink:href="BMS_8hpp.html" target="_top" xlink:title="Declaration of the BMS class for managing the Accumulator (Kclear BMS) via CAN bus.">
<polygon fill="white" stroke="#666666" points="180,-96 66,-96 66,-66 180,-66 180,-96"/>
<text text-anchor="start" x="74" y="-84" font-family="Helvetica,sans-Serif" font-size="10.00">ee_sw_vcu_2025/lib</text>
<text text-anchor="middle" x="123" y="-73" font-family="Helvetica,sans-Serif" font-size="10.00">/BMS/BMS.hpp</text>
</a>
</g>
</g>
<!-- Node1&#45;&gt;Node3 -->
<g id="edge2" class="edge">
<title>Node1&#45;&gt;Node3</title>
<path fill="none" stroke="#63b8ff" d="M218.29,-127.51C197.27,-117.47 171.7,-105.26 152.34,-96.01"/>
<polygon fill="#63b8ff" stroke="#63b8ff" points="217.06,-130.8 227.59,-131.95 220.08,-124.49 217.06,-130.8"/>
</g>
<!-- Node4 -->
<g id="node4" class="node">
<title>Node4</title>
<g id="a_node4"><a xlink:href="main_8cpp.html" target="_top" xlink:title="Main VCU program entry point.">
<polygon fill="white" stroke="#666666" points="266,-30 150,-30 150,0 266,0 266,-30"/>
<text text-anchor="start" x="158" y="-18" font-family="Helvetica,sans-Serif" font-size="10.00">ee_sw_vcu_2025/src</text>
<text text-anchor="middle" x="208" y="-7" font-family="Helvetica,sans-Serif" font-size="10.00">/main.cpp</text>
</a>
</g>
</g>
<!-- Node1&#45;&gt;Node4 -->
<g id="edge12" class="edge">
<title>Node1&#45;&gt;Node4</title>
<path fill="none" stroke="#63b8ff" d="M241.39,-123.34C236.22,-115.03 230.81,-105.36 227,-96 218.01,-73.92 212.66,-46.6 210.03,-30.28"/>
<polygon fill="#63b8ff" stroke="#63b8ff" points="238.46,-125.25 246.83,-131.75 244.34,-121.45 238.46,-125.25"/>
</g>
<!-- Node5 -->
<g id="node5" class="node">
<title>Node5</title>
<g id="a_node5"><a xlink:href="Pedal_8cpp.html" target="_top" xlink:title="Implementation of the Pedal class for handling throttle pedal inputs.">
<polygon fill="white" stroke="#666666" points="574,-30 460,-30 460,0 574,0 574,-30"/>
<text text-anchor="start" x="468" y="-18" font-family="Helvetica,sans-Serif" font-size="10.00">ee_sw_vcu_2025/lib</text>
<text text-anchor="middle" x="517" y="-7" font-family="Helvetica,sans-Serif" font-size="10.00">/Pedal/Pedal.cpp</text>
</a>
</g>
</g>
<!-- Node1&#45;&gt;Node5 -->
<g id="edge5" class="edge">
<title>Node1&#45;&gt;Node5</title>
<path fill="none" stroke="#63b8ff" d="M335.83,-141.62C403.74,-136.01 494.31,-123.47 517,-96 532.21,-77.58 526.98,-47.8 521.91,-30.24"/>
<polygon fill="#63b8ff" stroke="#63b8ff" points="335.26,-138.16 325.56,-142.43 335.81,-145.14 335.26,-138.16"/>
</g>
<!-- Node6 -->
<g id="node6" class="node">
<title>Node6</title>
<g id="a_node6"><a xlink:href="Pedal_8hpp.html" target="_top" xlink:title="Declaration of the Pedal class for handling throttle and brake pedal inputs.">
<polygon fill="white" stroke="#666666" points="508,-96 394,-96 394,-66 508,-66 508,-96"/>
<text text-anchor="start" x="402" y="-84" font-family="Helvetica,sans-Serif" font-size="10.00">ee_sw_vcu_2025/lib</text>
<text text-anchor="middle" x="451" y="-73" font-family="Helvetica,sans-Serif" font-size="10.00">/Pedal/Pedal.hpp</text>
</a>
</g>
</g>
<!-- Node1&#45;&gt;Node6 -->
<g id="edge6" class="edge">
<title>Node1&#45;&gt;Node6</title>
<path fill="none" stroke="#63b8ff" d="M309.37,-128.72C340.46,-118.47 379.36,-105.63 408.53,-96.01"/>
<polygon fill="#63b8ff" stroke="#63b8ff" points="307.97,-125.5 299.57,-131.95 310.17,-132.15 307.97,-125.5"/>
</g>
<!-- Node7 -->
<g id="node7" class="node">
<title>Node7</title>
<g id="a_node7"><a xlink:href="Telemetry_8hpp.html" target="_top" xlink:title="Declaration of the Telemetry class for sending telemetry data over CAN bus.">
<polygon fill="white" stroke="#666666" points="376,-96 236,-96 236,-66 376,-66 376,-96"/>
<text text-anchor="start" x="244" y="-84" font-family="Helvetica,sans-Serif" font-size="10.00">ee_sw_vcu_2025/lib</text>
<text text-anchor="middle" x="306" y="-73" font-family="Helvetica,sans-Serif" font-size="10.00">/Telemetry/Telemetry.hpp</text>
</a>
</g>
</g>
<!-- Node1&#45;&gt;Node7 -->
<g id="edge9" class="edge">
<title>Node1&#45;&gt;Node7</title>
<path fill="none" stroke="#63b8ff" d="M273.99,-123.81C281.01,-114.64 288.94,-104.28 295.16,-96.16"/>
<polygon fill="#63b8ff" stroke="#63b8ff" points="271.17,-121.73 267.87,-131.8 276.73,-125.98 271.17,-121.73"/>
</g>
<!-- Node3&#45;&gt;Node2 -->
<g id="edge3" class="edge">
<title>Node3&#45;&gt;Node2</title>
<path fill="none" stroke="#63b8ff" d="M100.98,-58.65C91.31,-49.27 80.23,-38.53 71.61,-30.16"/>
<polygon fill="#63b8ff" stroke="#63b8ff" points="98.74,-61.35 108.35,-65.8 103.61,-56.32 98.74,-61.35"/>
</g>
<!-- Node3&#45;&gt;Node4 -->
<g id="edge4" class="edge">
<title>Node3&#45;&gt;Node4</title>
<path fill="none" stroke="#63b8ff" d="M149.89,-59.75C162.67,-50.13 177.64,-38.86 189.19,-30.16"/>
<polygon fill="#63b8ff" stroke="#63b8ff" points="147.75,-56.99 141.86,-65.8 151.96,-62.58 147.75,-56.99"/>
</g>
<!-- Node6&#45;&gt;Node4 -->
<g id="edge8" class="edge">
<title>Node6&#45;&gt;Node4</title>
<path fill="none" stroke="#63b8ff" d="M387.92,-63.39C348.58,-53.03 298.53,-39.84 261.2,-30.01"/>
<polygon fill="#63b8ff" stroke="#63b8ff" points="387.11,-66.79 397.67,-65.95 388.89,-60.02 387.11,-66.79"/>
</g>
<!-- Node6&#45;&gt;Node5 -->
<g id="edge7" class="edge">
<title>Node6&#45;&gt;Node5</title>
<path fill="none" stroke="#63b8ff" d="M473.02,-58.65C482.69,-49.27 493.77,-38.53 502.39,-30.16"/>
<polygon fill="#63b8ff" stroke="#63b8ff" points="470.39,-56.32 465.65,-65.8 475.26,-61.35 470.39,-56.32"/>
</g>
<!-- Node7&#45;&gt;Node4 -->
<g id="edge11" class="edge">
<title>Node7&#45;&gt;Node4</title>
<path fill="none" stroke="#63b8ff" d="M275.84,-60.3C260.92,-50.56 243.25,-39.02 229.69,-30.16"/>
<polygon fill="#63b8ff" stroke="#63b8ff" points="273.96,-63.26 284.25,-65.8 277.79,-57.4 273.96,-63.26"/>
</g>
<!-- Node8 -->
<g id="node8" class="node">
<title>Node8</title>
<g id="a_node8"><a xlink:href="Telemetry_8cpp.html" target="_top" xlink:title="Implementation of the Telemetry class for sending telemetry data over CAN bus.">
<polygon fill="white" stroke="#666666" points="423.5,-30 284.5,-30 284.5,0 423.5,0 423.5,-30"/>
<text text-anchor="start" x="292.5" y="-18" font-family="Helvetica,sans-Serif" font-size="10.00">ee_sw_vcu_2025/lib</text>
<text text-anchor="middle" x="354" y="-7" font-family="Helvetica,sans-Serif" font-size="10.00">/Telemetry/Telemetry.cpp</text>
</a>
</g>
</g>
<!-- Node7&#45;&gt;Node8 -->
<g id="edge10" class="edge">
<title>Node7&#45;&gt;Node8</title>
<path fill="none" stroke="#63b8ff" d="M322.86,-57.53C329.68,-48.43 337.35,-38.19 343.38,-30.16"/>
<polygon fill="#63b8ff" stroke="#63b8ff" points="319.85,-55.7 316.65,-65.8 325.45,-59.9 319.85,-55.7"/>
</g>
</g>
</svg>
