<?xml version="1.0" encoding="UTF-8" standalone="no"?>
<!DOCTYPE svg PUBLIC "-//W3C//DTD SVG 1.1//EN"
 "http://www.w3.org/Graphics/SVG/1.1/DTD/svg11.dtd">
<!-- Generated by graphviz version 2.43.0 (0)
 -->
<!-- Title: include/CarState.hpp Pages: 1 -->
<svg width="398pt" height="137pt"
 viewBox="0.00 0.00 398.00 137.00" xmlns="http://www.w3.org/2000/svg" xmlns:xlink="http://www.w3.org/1999/xlink">
<g id="graph0" class="graph" transform="scale(1 1) rotate(0) translate(4 133)">
<title>include/CarState.hpp</title>
<!-- Node1 -->
<g id="node1" class="node">
<title>Node1</title>
<g id="a_node1"><a xlink:title="Definition of the CarState structure representing the state of the car.">
<polygon fill="#999999" stroke="#666666" points="217.5,-129 99.5,-129 99.5,-110 217.5,-110 217.5,-129"/>
<text text-anchor="middle" x="158.5" y="-117" font-family="Helvetica,sans-Serif" font-size="10.00">include/CarState.hpp</text>
</a>
</g>
</g>
<!-- Node2 -->
<g id="node2" class="node">
<title>Node2</title>
<g id="a_node2"><a xlink:href="Pedal_8cpp.html" target="_top" xlink:title="Implementation of the Pedal class for handling throttle pedal inputs.">
<polygon fill="white" stroke="#666666" points="109,-19 0,-19 0,0 109,0 109,-19"/>
<text text-anchor="middle" x="54.5" y="-7" font-family="Helvetica,sans-Serif" font-size="10.00">lib/Pedal/Pedal.cpp</text>
</a>
</g>
</g>
<!-- Node1&#45;&gt;Node2 -->
<g id="edge1" class="edge">
<title>Node1&#45;&gt;Node2</title>
<path fill="none" stroke="#63b8ff" d="M99.12,-106.69C81.45,-100.11 64.02,-89.88 53.5,-74 42.42,-57.27 47.6,-32.23 51.52,-19.16"/>
<polygon fill="#63b8ff" stroke="#63b8ff" points="98.33,-110.11 108.92,-109.98 100.56,-103.48 98.33,-110.11"/>
</g>
<!-- Node3 -->
<g id="node3" class="node">
<title>Node3</title>
<g id="a_node3"><a xlink:href="Pedal_8hpp.html" target="_top" xlink:title="Declaration of the Pedal class for handling throttle and brake pedal inputs.">
<polygon fill="white" stroke="#666666" points="172.5,-74 62.5,-74 62.5,-55 172.5,-55 172.5,-74"/>
<text text-anchor="middle" x="117.5" y="-62" font-family="Helvetica,sans-Serif" font-size="10.00">lib/Pedal/Pedal.hpp</text>
</a>
</g>
</g>
<!-- Node1&#45;&gt;Node3 -->
<g id="edge2" class="edge">
<title>Node1&#45;&gt;Node3</title>
<path fill="none" stroke="#63b8ff" d="M145.48,-101.67C138.38,-92.5 129.9,-81.52 124.14,-74.09"/>
<polygon fill="#63b8ff" stroke="#63b8ff" points="142.84,-103.98 151.73,-109.75 148.38,-99.7 142.84,-103.98"/>
</g>
<!-- Node4 -->
<g id="node4" class="node">
<title>Node4</title>
<g id="a_node4"><a xlink:href="main_8cpp.html" target="_top" xlink:title="Main VCU program entry point.">
<polygon fill="white" stroke="#666666" points="227,-19 148,-19 148,0 227,0 227,-19"/>
<text text-anchor="middle" x="187.5" y="-7" font-family="Helvetica,sans-Serif" font-size="10.00">src/main.cpp</text>
</a>
</g>
</g>
<!-- Node1&#45;&gt;Node4 -->
<g id="edge8" class="edge">
<title>Node1&#45;&gt;Node4</title>
<path fill="none" stroke="#63b8ff" d="M169.5,-101.04C173.98,-93.09 178.75,-83.37 181.5,-74 187.05,-55.09 187.78,-31.78 187.72,-19.33"/>
<polygon fill="#63b8ff" stroke="#63b8ff" points="166.44,-99.34 164.33,-109.73 172.45,-102.92 166.44,-99.34"/>
</g>
<!-- Node5 -->
<g id="node5" class="node">
<title>Node5</title>
<g id="a_node5"><a xlink:href="Telemetry_8hpp.html" target="_top" xlink:title="Declaration of the Telemetry class for sending telemetry data over CAN bus.">
<polygon fill="white" stroke="#666666" points="380.5,-74 228.5,-74 228.5,-55 380.5,-55 380.5,-74"/>
<text text-anchor="middle" x="304.5" y="-62" font-family="Helvetica,sans-Serif" font-size="10.00">lib/Telemetry/Telemetry.hpp</text>
</a>
</g>
</g>
<!-- Node1&#45;&gt;Node5 -->
<g id="edge5" class="edge">
<title>Node1&#45;&gt;Node5</title>
<path fill="none" stroke="#63b8ff" d="M191.42,-106.55C218.53,-96.71 256.33,-82.98 280.62,-74.17"/>
<polygon fill="#63b8ff" stroke="#63b8ff" points="190.16,-103.28 181.96,-109.98 192.55,-109.86 190.16,-103.28"/>
</g>
<!-- Node3&#45;&gt;Node2 -->
<g id="edge3" class="edge">
<title>Node3&#45;&gt;Node2</title>
<path fill="none" stroke="#63b8ff" d="M99.46,-48.32C88.23,-38.87 74.18,-27.06 64.81,-19.17"/>
<polygon fill="#63b8ff" stroke="#63b8ff" points="97.47,-51.23 107.38,-54.98 101.98,-45.87 97.47,-51.23"/>
</g>
<!-- Node3&#45;&gt;Node4 -->
<g id="edge4" class="edge">
<title>Node3&#45;&gt;Node4</title>
<path fill="none" stroke="#63b8ff" d="M136.81,-48.88C149.41,-39.34 165.43,-27.21 176.05,-19.17"/>
<polygon fill="#63b8ff" stroke="#63b8ff" points="134.61,-46.16 128.75,-54.98 138.83,-51.74 134.61,-46.16"/>
</g>
<!-- Node5&#45;&gt;Node4 -->
<g id="edge7" class="edge">
<title>Node5&#45;&gt;Node4</title>
<path fill="none" stroke="#63b8ff" d="M276.39,-50.77C254.81,-40.99 225.59,-27.75 206.64,-19.17"/>
<polygon fill="#63b8ff" stroke="#63b8ff" points="275.15,-54.05 285.7,-54.98 278.04,-47.67 275.15,-54.05"/>
</g>
<!-- Node6 -->
<g id="node6" class="node">
<title>Node6</title>
<g id="a_node6"><a xlink:href="Telemtry_8cpp.html" target="_top" xlink:title=" ">
<polygon fill="white" stroke="#666666" points="390,-19 245,-19 245,0 390,0 390,-19"/>
<text text-anchor="middle" x="317.5" y="-7" font-family="Helvetica,sans-Serif" font-size="10.00">lib/Telemetry/Telemtry.cpp</text>
</a>
</g>
</g>
<!-- Node5&#45;&gt;Node6 -->
<g id="edge6" class="edge">
<title>Node5&#45;&gt;Node6</title>
<path fill="none" stroke="#63b8ff" d="M309.05,-44.95C311.21,-36.15 313.68,-26.06 315.39,-19.09"/>
<polygon fill="#63b8ff" stroke="#63b8ff" points="305.63,-44.2 306.65,-54.75 312.43,-45.87 305.63,-44.2"/>
</g>
</g>
</svg>
