<?xml version="1.0" encoding="UTF-8" standalone="no"?>
<!DOCTYPE svg PUBLIC "-//W3C//DTD SVG 1.1//EN"
 "http://www.w3.org/Graphics/SVG/1.1/DTD/svg11.dtd">
<!-- Generated by graphviz version 2.43.0 (0)
 -->
<!-- Title: vehicle_control_unit/include/CarState.hpp Pages: 1 -->
<svg width="138pt" height="148pt"
 viewBox="0.00 0.00 138.00 148.00" xmlns="http://www.w3.org/2000/svg" xmlns:xlink="http://www.w3.org/1999/xlink">
<g id="graph0" class="graph" transform="scale(1 1) rotate(0) translate(4 144)">
<title>vehicle_control_unit/include/CarState.hpp</title>
<!-- Node1 -->
<g id="node1" class="node">
<title>Node1</title>
<g id="a_node1"><a xlink:title="Definition of the CarState structure representing the state of the car.">
<polygon fill="#999999" stroke="#666666" points="121,-140 0,-140 0,-110 121,-110 121,-140"/>
<text text-anchor="start" x="8" y="-128" font-family="Helvetica,sans-Serif" font-size="10.00">vehicle_control_unit</text>
<text text-anchor="middle" x="60.5" y="-117" font-family="Helvetica,sans-Serif" font-size="10.00">/include/CarState.hpp</text>
</a>
</g>
</g>
<!-- Node2 -->
<g id="node2" class="node">
<title>Node2</title>
<g id="a_node2"><a xlink:href="Enums_8hpp.html" target="_top" xlink:title="Enumeration definitions for the VCU.">
<polygon fill="white" stroke="#666666" points="96,-74 25,-74 25,-55 96,-55 96,-74"/>
<text text-anchor="middle" x="60.5" y="-62" font-family="Helvetica,sans-Serif" font-size="10.00">Enums.hpp</text>
</a>
</g>
</g>
<!-- Node1&#45;&gt;Node2 -->
<g id="edge1" class="edge">
<title>Node1&#45;&gt;Node2</title>
<path fill="none" stroke="#63b8ff" d="M60.5,-109.84C60.5,-102.21 60.5,-92.7 60.5,-84.45"/>
<polygon fill="#63b8ff" stroke="#63b8ff" points="64,-84.27 60.5,-74.27 57,-84.27 64,-84.27"/>
</g>
<!-- Node3 -->
<g id="node3" class="node">
<title>Node3</title>
<g id="a_node3"><a xlink:title=" ">
<polygon fill="#e0e0e0" stroke="#999999" points="54,-19 1,-19 1,0 54,0 54,-19"/>
<text text-anchor="middle" x="27.5" y="-7" font-family="Helvetica,sans-Serif" font-size="10.00">stdint.h</text>
</a>
</g>
</g>
<!-- Node1&#45;&gt;Node3 -->
<g id="edge5" class="edge">
<title>Node1&#45;&gt;Node3</title>
<path fill="none" stroke="#63b8ff" d="M42.48,-109.89C32.46,-100.85 20.94,-88.17 15.5,-74 9.85,-59.29 14.02,-41.61 18.92,-28.64"/>
<polygon fill="#63b8ff" stroke="#63b8ff" points="22.16,-29.97 22.84,-19.4 15.72,-27.24 22.16,-29.97"/>
</g>
<!-- Node4 -->
<g id="node4" class="node">
<title>Node4</title>
<g id="a_node4"><a xlink:title=" ">
<polygon fill="#e0e0e0" stroke="#999999" points="130,-19 87,-19 87,0 130,0 130,-19"/>
<text text-anchor="middle" x="108.5" y="-7" font-family="Helvetica,sans-Serif" font-size="10.00">can.h</text>
</a>
</g>
</g>
<!-- Node1&#45;&gt;Node4 -->
<g id="edge4" class="edge">
<title>Node1&#45;&gt;Node4</title>
<path fill="none" stroke="#63b8ff" d="M78.28,-109.79C88.21,-100.72 99.73,-88.04 105.5,-74 111.34,-59.79 111.72,-42.25 110.84,-29.21"/>
<polygon fill="#63b8ff" stroke="#63b8ff" points="114.31,-28.72 109.86,-19.11 107.35,-29.4 114.31,-28.72"/>
</g>
<!-- Node2&#45;&gt;Node3 -->
<g id="edge2" class="edge">
<title>Node2&#45;&gt;Node3</title>
<path fill="none" stroke="#63b8ff" d="M55.05,-54.75C50.49,-47.42 43.83,-36.73 38.21,-27.7"/>
<polygon fill="#63b8ff" stroke="#63b8ff" points="41.1,-25.73 32.85,-19.09 35.16,-29.43 41.1,-25.73"/>
</g>
<!-- Node2&#45;&gt;Node4 -->
<g id="edge3" class="edge">
<title>Node2&#45;&gt;Node4</title>
<path fill="none" stroke="#63b8ff" d="M68.43,-54.75C75.35,-47.11 85.57,-35.82 93.95,-26.56"/>
<polygon fill="#63b8ff" stroke="#63b8ff" points="96.6,-28.85 100.72,-19.09 91.41,-24.15 96.6,-28.85"/>
</g>
</g>
</svg>
