<?xml version="1.0" encoding="UTF-8" standalone="no"?>
<!DOCTYPE svg PUBLIC "-//W3C//DTD SVG 1.1//EN"
 "http://www.w3.org/Graphics/SVG/1.1/DTD/svg11.dtd">
<!-- Generated by graphviz version 2.43.0 (0)
 -->
<!-- Title: ee_sw_vcu_2025/include/CarState.hpp Pages: 1 -->
<svg width="146pt" height="148pt"
 viewBox="0.00 0.00 146.00 148.00" xmlns="http://www.w3.org/2000/svg" xmlns:xlink="http://www.w3.org/1999/xlink">
<g id="graph0" class="graph" transform="scale(1 1) rotate(0) translate(4 144)">
<title>ee_sw_vcu_2025/include/CarState.hpp</title>
<!-- Node1 -->
<g id="node1" class="node">
<title>Node1</title>
<g id="a_node1"><a xlink:title="Definition of the CarState structure representing the state of the car.">
<polygon fill="#999999" stroke="#666666" points="137,-140 0,-140 0,-110 137,-110 137,-140"/>
<text text-anchor="start" x="8" y="-128" font-family="Helvetica,sans-Serif" font-size="10.00">ee_sw_vcu_2025/include</text>
<text text-anchor="middle" x="68.5" y="-117" font-family="Helvetica,sans-Serif" font-size="10.00">/CarState.hpp</text>
</a>
</g>
</g>
<!-- Node2 -->
<g id="node2" class="node">
<title>Node2</title>
<g id="a_node2"><a xlink:href="Enums_8hpp.html" target="_top" xlink:title="Enumeration definitions for the VCU.">
<polygon fill="white" stroke="#666666" points="104,-74 33,-74 33,-55 104,-55 104,-74"/>
<text text-anchor="middle" x="68.5" y="-62" font-family="Helvetica,sans-Serif" font-size="10.00">Enums.hpp</text>
</a>
</g>
</g>
<!-- Node1&#45;&gt;Node2 -->
<g id="edge1" class="edge">
<title>Node1&#45;&gt;Node2</title>
<path fill="none" stroke="#63b8ff" d="M68.5,-109.84C68.5,-102.21 68.5,-92.7 68.5,-84.45"/>
<polygon fill="#63b8ff" stroke="#63b8ff" points="72,-84.27 68.5,-74.27 65,-84.27 72,-84.27"/>
</g>
<!-- Node3 -->
<g id="node3" class="node">
<title>Node3</title>
<g id="a_node3"><a xlink:title=" ">
<polygon fill="#e0e0e0" stroke="#999999" points="62,-19 9,-19 9,0 62,0 62,-19"/>
<text text-anchor="middle" x="35.5" y="-7" font-family="Helvetica,sans-Serif" font-size="10.00">stdint.h</text>
</a>
</g>
</g>
<!-- Node1&#45;&gt;Node3 -->
<g id="edge5" class="edge">
<title>Node1&#45;&gt;Node3</title>
<path fill="none" stroke="#63b8ff" d="M50.48,-109.89C40.46,-100.85 28.94,-88.17 23.5,-74 17.85,-59.29 22.02,-41.61 26.92,-28.64"/>
<polygon fill="#63b8ff" stroke="#63b8ff" points="30.16,-29.97 30.84,-19.4 23.72,-27.24 30.16,-29.97"/>
</g>
<!-- Node4 -->
<g id="node4" class="node">
<title>Node4</title>
<g id="a_node4"><a xlink:title=" ">
<polygon fill="#e0e0e0" stroke="#999999" points="138,-19 95,-19 95,0 138,0 138,-19"/>
<text text-anchor="middle" x="116.5" y="-7" font-family="Helvetica,sans-Serif" font-size="10.00">can.h</text>
</a>
</g>
</g>
<!-- Node1&#45;&gt;Node4 -->
<g id="edge4" class="edge">
<title>Node1&#45;&gt;Node4</title>
<path fill="none" stroke="#63b8ff" d="M86.28,-109.79C96.21,-100.72 107.73,-88.04 113.5,-74 119.34,-59.79 119.72,-42.25 118.84,-29.21"/>
<polygon fill="#63b8ff" stroke="#63b8ff" points="122.31,-28.72 117.86,-19.11 115.35,-29.4 122.31,-28.72"/>
</g>
<!-- Node2&#45;&gt;Node3 -->
<g id="edge2" class="edge">
<title>Node2&#45;&gt;Node3</title>
<path fill="none" stroke="#63b8ff" d="M63.05,-54.75C58.49,-47.42 51.83,-36.73 46.21,-27.7"/>
<polygon fill="#63b8ff" stroke="#63b8ff" points="49.1,-25.73 40.85,-19.09 43.16,-29.43 49.1,-25.73"/>
</g>
<!-- Node2&#45;&gt;Node4 -->
<g id="edge3" class="edge">
<title>Node2&#45;&gt;Node4</title>
<path fill="none" stroke="#63b8ff" d="M76.43,-54.75C83.35,-47.11 93.57,-35.82 101.95,-26.56"/>
<polygon fill="#63b8ff" stroke="#63b8ff" points="104.6,-28.85 108.72,-19.09 99.41,-24.15 104.6,-28.85"/>
</g>
</g>
</svg>
