<?xml version="1.0" encoding="UTF-8" standalone="no"?>
<!DOCTYPE svg PUBLIC "-//W3C//DTD SVG 1.1//EN"
 "http://www.w3.org/Graphics/SVG/1.1/DTD/svg11.dtd">
<!-- Generated by graphviz version 2.43.0 (0)
 -->
<!-- Title: include/CarState.h Pages: 1 -->
<svg width="214pt" height="137pt"
 viewBox="0.00 0.00 214.00 137.00" xmlns="http://www.w3.org/2000/svg" xmlns:xlink="http://www.w3.org/1999/xlink">
<g id="graph0" class="graph" transform="scale(1 1) rotate(0) translate(4 133)">
<title>include/CarState.h</title>
<!-- Node1 -->
<g id="node1" class="node">
<title>Node1</title>
<g id="a_node1"><a xlink:title="Definition of the CarState structure representing the state of the car.">
<polygon fill="#999999" stroke="#666666" points="177.5,-129 71.5,-129 71.5,-110 177.5,-110 177.5,-129"/>
<text text-anchor="middle" x="124.5" y="-117" font-family="Helvetica,sans-Serif" font-size="10.00">include/CarState.h</text>
</a>
</g>
</g>
<!-- Node2 -->
<g id="node2" class="node">
<title>Node2</title>
<g id="a_node2"><a xlink:href="Pedal_8hpp.html" target="_top" xlink:title=" ">
<polygon fill="white" stroke="#666666" points="138.5,-74 28.5,-74 28.5,-55 138.5,-55 138.5,-74"/>
<text text-anchor="middle" x="83.5" y="-62" font-family="Helvetica,sans-Serif" font-size="10.00">lib/Pedal/Pedal.hpp</text>
</a>
</g>
</g>
<!-- Node1&#45;&gt;Node2 -->
<g id="edge1" class="edge">
<title>Node1&#45;&gt;Node2</title>
<path fill="none" stroke="#63b8ff" d="M111.48,-101.67C104.38,-92.5 95.9,-81.52 90.14,-74.09"/>
<polygon fill="#63b8ff" stroke="#63b8ff" points="108.84,-103.98 117.73,-109.75 114.38,-99.7 108.84,-103.98"/>
</g>
<!-- Node4 -->
<g id="node4" class="node">
<title>Node4</title>
<g id="a_node4"><a xlink:href="main_8cpp.html" target="_top" xlink:title=" ">
<polygon fill="white" stroke="#666666" points="206,-19 127,-19 127,0 206,0 206,-19"/>
<text text-anchor="middle" x="166.5" y="-7" font-family="Helvetica,sans-Serif" font-size="10.00">src/main.cpp</text>
</a>
</g>
</g>
<!-- Node1&#45;&gt;Node4 -->
<g id="edge4" class="edge">
<title>Node1&#45;&gt;Node4</title>
<path fill="none" stroke="#63b8ff" d="M134.48,-101.05C138.84,-92.98 143.8,-83.17 147.5,-74 155.17,-55.01 161.36,-31.73 164.42,-19.3"/>
<polygon fill="#63b8ff" stroke="#63b8ff" points="131.38,-99.42 129.58,-109.86 137.5,-102.82 131.38,-99.42"/>
</g>
<!-- Node3 -->
<g id="node3" class="node">
<title>Node3</title>
<g id="a_node3"><a xlink:href="Pedal_8cpp.html" target="_top" xlink:title="Implementation of the Pedal class for handling throttle pedal inputs.">
<polygon fill="white" stroke="#666666" points="109,-19 0,-19 0,0 109,0 109,-19"/>
<text text-anchor="middle" x="54.5" y="-7" font-family="Helvetica,sans-Serif" font-size="10.00">lib/Pedal/Pedal.cpp</text>
</a>
</g>
</g>
<!-- Node2&#45;&gt;Node3 -->
<g id="edge2" class="edge">
<title>Node2&#45;&gt;Node3</title>
<path fill="none" stroke="#63b8ff" d="M73.82,-45.82C68.9,-36.82 63.14,-26.29 59.2,-19.09"/>
<polygon fill="#63b8ff" stroke="#63b8ff" points="70.84,-47.66 78.71,-54.75 76.98,-44.3 70.84,-47.66"/>
</g>
<!-- Node2&#45;&gt;Node4 -->
<g id="edge3" class="edge">
<title>Node2&#45;&gt;Node4</title>
<path fill="none" stroke="#63b8ff" d="M105.54,-49.42C120.61,-39.81 140.09,-27.37 152.92,-19.17"/>
<polygon fill="#63b8ff" stroke="#63b8ff" points="103.38,-46.65 96.84,-54.98 107.15,-52.55 103.38,-46.65"/>
</g>
</g>
</svg>
