<?xml version="1.0" encoding="UTF-8" standalone="no"?>
<!DOCTYPE svg PUBLIC "-//W3C//DTD SVG 1.1//EN"
 "http://www.w3.org/Graphics/SVG/1.1/DTD/svg11.dtd">
<!-- Generated by graphviz version 2.43.0 (0)
 -->
<!-- Title: include/CarState.hpp Pages: 1 -->
<svg width="551pt" height="137pt"
 viewBox="0.00 0.00 550.50 137.00" xmlns="http://www.w3.org/2000/svg" xmlns:xlink="http://www.w3.org/1999/xlink">
<g id="graph0" class="graph" transform="scale(1 1) rotate(0) translate(4 133)">
<title>include/CarState.hpp</title>
<!-- Node1 -->
<g id="node1" class="node">
<title>Node1</title>
<g id="a_node1"><a xlink:title="Definition of the CarState structure representing the state of the car.">
<polygon fill="#999999" stroke="#666666" points="291,-129 173,-129 173,-110 291,-110 291,-129"/>
<text text-anchor="middle" x="232" y="-117" font-family="Helvetica,sans-Serif" font-size="10.00">include/CarState.hpp</text>
</a>
</g>
</g>
<!-- Node2 -->
<g id="node2" class="node">
<title>Node2</title>
<g id="a_node2"><a xlink:href="BMS_8cpp.html" target="_top" xlink:title="Implementation of the BMS class for managing the Accumulator (Kclear BMS) via CAN bus.">
<polygon fill="white" stroke="#666666" points="98,-19 0,-19 0,0 98,0 98,-19"/>
<text text-anchor="middle" x="49" y="-7" font-family="Helvetica,sans-Serif" font-size="10.00">lib/BMS/BMS.cpp</text>
</a>
</g>
</g>
<!-- Node1&#45;&gt;Node2 -->
<g id="edge1" class="edge">
<title>Node1&#45;&gt;Node2</title>
<path fill="none" stroke="#63b8ff" d="M162.62,-111.17C115.05,-104.54 57.95,-92.87 43,-74 30.49,-58.2 38.8,-32.77 44.65,-19.39"/>
<polygon fill="#63b8ff" stroke="#63b8ff" points="162.23,-114.64 172.61,-112.5 163.16,-107.71 162.23,-114.64"/>
</g>
<!-- Node3 -->
<g id="node3" class="node">
<title>Node3</title>
<g id="a_node3"><a xlink:href="BMS_8hpp.html" target="_top" xlink:title="Declaration of the BMS class for managing the Accumulator (Kclear BMS) via CAN bus.">
<polygon fill="white" stroke="#666666" points="151.5,-74 52.5,-74 52.5,-55 151.5,-55 151.5,-74"/>
<text text-anchor="middle" x="102" y="-62" font-family="Helvetica,sans-Serif" font-size="10.00">lib/BMS/BMS.hpp</text>
</a>
</g>
</g>
<!-- Node1&#45;&gt;Node3 -->
<g id="edge2" class="edge">
<title>Node1&#45;&gt;Node3</title>
<path fill="none" stroke="#63b8ff" d="M201.73,-106.16C177.66,-96.35 144.6,-82.87 123.27,-74.17"/>
<polygon fill="#63b8ff" stroke="#63b8ff" points="200.53,-109.45 211.11,-109.98 203.17,-102.97 200.53,-109.45"/>
</g>
<!-- Node4 -->
<g id="node4" class="node">
<title>Node4</title>
<g id="a_node4"><a xlink:href="main_8cpp.html" target="_top" xlink:title="Main VCU program entry point.">
<polygon fill="white" stroke="#666666" points="219.5,-19 140.5,-19 140.5,0 219.5,0 219.5,-19"/>
<text text-anchor="middle" x="180" y="-7" font-family="Helvetica,sans-Serif" font-size="10.00">src/main.cpp</text>
</a>
</g>
</g>
<!-- Node1&#45;&gt;Node4 -->
<g id="edge12" class="edge">
<title>Node1&#45;&gt;Node4</title>
<path fill="none" stroke="#63b8ff" d="M217.68,-102.09C211.25,-94.05 204,-83.98 199,-74 189.72,-55.48 184.1,-31.61 181.58,-19.07"/>
<polygon fill="#63b8ff" stroke="#63b8ff" points="215.1,-104.46 224.19,-109.9 220.47,-99.98 215.1,-104.46"/>
</g>
<!-- Node5 -->
<g id="node5" class="node">
<title>Node5</title>
<g id="a_node5"><a xlink:href="Pedal_8cpp.html" target="_top" xlink:title="Implementation of the Pedal class for handling throttle pedal inputs.">
<polygon fill="white" stroke="#666666" points="542.5,-19 433.5,-19 433.5,0 542.5,0 542.5,-19"/>
<text text-anchor="middle" x="488" y="-7" font-family="Helvetica,sans-Serif" font-size="10.00">lib/Pedal/Pedal.cpp</text>
</a>
</g>
</g>
<!-- Node1&#45;&gt;Node5 -->
<g id="edge5" class="edge">
<title>Node1&#45;&gt;Node5</title>
<path fill="none" stroke="#63b8ff" d="M301.19,-116.67C371.15,-113.19 472.37,-103.11 497,-74 510.23,-58.36 499.79,-32.4 492.88,-19.03"/>
<polygon fill="#63b8ff" stroke="#63b8ff" points="300.94,-113.18 291.11,-117.14 301.26,-120.17 300.94,-113.18"/>
</g>
<!-- Node6 -->
<g id="node6" class="node">
<title>Node6</title>
<g id="a_node6"><a xlink:href="Pedal_8hpp.html" target="_top" xlink:title="Declaration of the Pedal class for handling throttle and brake pedal inputs.">
<polygon fill="white" stroke="#666666" points="488,-74 378,-74 378,-55 488,-55 488,-74"/>
<text text-anchor="middle" x="433" y="-62" font-family="Helvetica,sans-Serif" font-size="10.00">lib/Pedal/Pedal.hpp</text>
</a>
</g>
</g>
<!-- Node1&#45;&gt;Node6 -->
<g id="edge6" class="edge">
<title>Node1&#45;&gt;Node6</title>
<path fill="none" stroke="#63b8ff" d="M274.43,-107.31C312.04,-97.39 366.17,-83.12 400.45,-74.08"/>
<polygon fill="#63b8ff" stroke="#63b8ff" points="273.07,-104.05 264.29,-109.98 274.86,-110.82 273.07,-104.05"/>
</g>
<!-- Node7 -->
<g id="node7" class="node">
<title>Node7</title>
<g id="a_node7"><a xlink:href="Telemetry_8hpp.html" target="_top" xlink:title="Declaration of the Telemetry class for sending telemetry data over CAN bus.">
<polygon fill="white" stroke="#666666" points="360,-74 208,-74 208,-55 360,-55 360,-74"/>
<text text-anchor="middle" x="284" y="-62" font-family="Helvetica,sans-Serif" font-size="10.00">lib/Telemetry/Telemetry.hpp</text>
</a>
</g>
</g>
<!-- Node1&#45;&gt;Node7 -->
<g id="edge9" class="edge">
<title>Node1&#45;&gt;Node7</title>
<path fill="none" stroke="#63b8ff" d="M247.68,-102.52C256.84,-93.18 268.05,-81.75 275.57,-74.09"/>
<polygon fill="#63b8ff" stroke="#63b8ff" points="245.09,-100.16 240.59,-109.75 250.09,-105.06 245.09,-100.16"/>
</g>
<!-- Node3&#45;&gt;Node2 -->
<g id="edge3" class="edge">
<title>Node3&#45;&gt;Node2</title>
<path fill="none" stroke="#63b8ff" d="M86.02,-47.52C76.68,-38.18 65.25,-26.75 57.59,-19.09"/>
<polygon fill="#63b8ff" stroke="#63b8ff" points="83.7,-50.15 93.25,-54.75 88.65,-45.2 83.7,-50.15"/>
</g>
<!-- Node3&#45;&gt;Node4 -->
<g id="edge4" class="edge">
<title>Node3&#45;&gt;Node4</title>
<path fill="none" stroke="#63b8ff" d="M123.12,-49.15C137.21,-39.57 155.29,-27.29 167.24,-19.17"/>
<polygon fill="#63b8ff" stroke="#63b8ff" points="120.84,-46.47 114.53,-54.98 124.77,-52.26 120.84,-46.47"/>
</g>
<!-- Node6&#45;&gt;Node4 -->
<g id="edge8" class="edge">
<title>Node6&#45;&gt;Node4</title>
<path fill="none" stroke="#63b8ff" d="M382.5,-52.92C334.63,-42.89 263.67,-28.03 219.71,-18.82"/>
<polygon fill="#63b8ff" stroke="#63b8ff" points="381.85,-56.36 392.35,-54.98 383.28,-49.51 381.85,-56.36"/>
</g>
<!-- Node6&#45;&gt;Node5 -->
<g id="edge7" class="edge">
<title>Node6&#45;&gt;Node5</title>
<path fill="none" stroke="#63b8ff" d="M449.29,-47.8C459.04,-38.41 471.05,-26.83 479.09,-19.09"/>
<polygon fill="#63b8ff" stroke="#63b8ff" points="446.85,-45.29 442.08,-54.75 451.71,-50.33 446.85,-45.29"/>
</g>
<!-- Node7&#45;&gt;Node4 -->
<g id="edge11" class="edge">
<title>Node7&#45;&gt;Node4</title>
<path fill="none" stroke="#63b8ff" d="M258.23,-50.37C239.13,-40.63 213.63,-27.64 197.01,-19.17"/>
<polygon fill="#63b8ff" stroke="#63b8ff" points="256.79,-53.56 267.29,-54.98 259.97,-47.33 256.79,-53.56"/>
</g>
<!-- Node8 -->
<g id="node8" class="node">
<title>Node8</title>
<g id="a_node8"><a xlink:href="Telemetry_8cpp.html" target="_top" xlink:title="Implementation of the Telemetry class for sending telemetry data over CAN bus.">
<polygon fill="white" stroke="#666666" points="388.5,-19 237.5,-19 237.5,0 388.5,0 388.5,-19"/>
<text text-anchor="middle" x="313" y="-7" font-family="Helvetica,sans-Serif" font-size="10.00">lib/Telemetry/Telemetry.cpp</text>
</a>
</g>
</g>
<!-- Node7&#45;&gt;Node8 -->
<g id="edge10" class="edge">
<title>Node7&#45;&gt;Node8</title>
<path fill="none" stroke="#63b8ff" d="M293.68,-45.82C298.6,-36.82 304.36,-26.29 308.3,-19.09"/>
<polygon fill="#63b8ff" stroke="#63b8ff" points="290.52,-44.3 288.79,-54.75 296.66,-47.66 290.52,-44.3"/>
</g>
</g>
</svg>
