<?xml version="1.0" encoding="UTF-8" standalone="no"?>
<!DOCTYPE svg PUBLIC "-//W3C//DTD SVG 1.1//EN"
 "http://www.w3.org/Graphics/SVG/1.1/DTD/svg11.dtd">
<!-- Generated by graphviz version 2.43.0 (0)
 -->
<!-- Title: Pedal::checkPedalFault Pages: 1 -->
<svg width="460pt" height="131pt"
 viewBox="0.00 0.00 460.00 130.50" xmlns="http://www.w3.org/2000/svg" xmlns:xlink="http://www.w3.org/1999/xlink">
<g id="graph0" class="graph" transform="scale(1 1) rotate(0) translate(4 126.5)">
<title>Pedal::checkPedalFault</title>
<!-- Node1 -->
<g id="node1" class="node">
<title>Node1</title>
<g id="a_node1"><a xlink:title="Checks for a fault between two pedal sensor readings.">
<polygon fill="#999999" stroke="#666666" points="128,-56 0,-56 0,-37 128,-37 128,-56"/>
<text text-anchor="middle" x="64" y="-44" font-family="Helvetica,sans-Serif" font-size="10.00">Pedal::checkPedalFault</text>
</a>
</g>
</g>
<!-- Node2 -->
<g id="node2" class="node">
<title>Node2</title>
<g id="a_node2"><a xlink:href="Debug_8hpp.html#a83973b3fea610da634610d01cd98e2d8" target="_top" xlink:title="Sends throttle fault debug info via CAN or serial (if enabled). Overloads for fault status with or wi...">
<polygon fill="white" stroke="#666666" points="293,-93 164,-93 164,-74 293,-74 293,-93"/>
<text text-anchor="middle" x="228.5" y="-81" font-family="Helvetica,sans-Serif" font-size="10.00">DBG_THROTTLE_FAULT</text>
</a>
</g>
</g>
<!-- Node1&#45;&gt;Node2 -->
<g id="edge1" class="edge">
<title>Node1&#45;&gt;Node2</title>
<path fill="none" stroke="#63b8ff" d="M106.85,-56.03C127.81,-60.8 153.38,-66.62 175.58,-71.68"/>
<polygon fill="#63b8ff" stroke="#63b8ff" points="174.98,-75.13 185.51,-73.94 176.54,-68.31 174.98,-75.13"/>
</g>
<!-- Node5 -->
<g id="node5" class="node">
<title>Node5</title>
<g id="a_node5"><a xlink:href="classLinearInterp.html#a3c1654f4a47bb4db5386e38a8bdd6bc1" target="_top" xlink:title="Performs linear interpolation for the given input value, using the table.">
<polygon fill="white" stroke="#666666" points="283.5,-56 173.5,-56 173.5,-37 283.5,-37 283.5,-56"/>
<text text-anchor="middle" x="228.5" y="-44" font-family="Helvetica,sans-Serif" font-size="10.00">LinearInterp::interp</text>
</a>
</g>
</g>
<!-- Node1&#45;&gt;Node5 -->
<g id="edge4" class="edge">
<title>Node1&#45;&gt;Node5</title>
<path fill="none" stroke="#63b8ff" d="M128.29,-46.5C139.69,-46.5 151.58,-46.5 163,-46.5"/>
<polygon fill="#63b8ff" stroke="#63b8ff" points="163.34,-50 173.34,-46.5 163.34,-43 163.34,-50"/>
</g>
<!-- Node6 -->
<g id="node6" class="node">
<title>Node6</title>
<g id="a_node6"><a xlink:href="classLinearInterp.html#a9928dbf5a866f066fa19a3c4794bf71a" target="_top" xlink:title="Returns the input range of the interpolation table (last input &#45; first input)">
<polygon fill="white" stroke="#666666" points="283,-19 174,-19 174,0 283,0 283,-19"/>
<text text-anchor="middle" x="228.5" y="-7" font-family="Helvetica,sans-Serif" font-size="10.00">LinearInterp::range</text>
</a>
</g>
</g>
<!-- Node1&#45;&gt;Node6 -->
<g id="edge5" class="edge">
<title>Node1&#45;&gt;Node6</title>
<path fill="none" stroke="#63b8ff" d="M106.85,-36.97C127.81,-32.2 153.38,-26.38 175.58,-21.32"/>
<polygon fill="#63b8ff" stroke="#63b8ff" points="176.54,-24.69 185.51,-19.06 174.98,-17.87 176.54,-24.69"/>
</g>
<!-- Node3 -->
<g id="node3" class="node">
<title>Node3</title>
<g id="a_node3"><a xlink:href="namespaceDebug__CAN.html#aded6aa4b3ac940a9ea0941569e157522" target="_top" xlink:title="Sends a debug throttle fault message over CAN with a float value.">
<polygon fill="white" stroke="#666666" points="448.5,-122.5 332.5,-122.5 332.5,-92.5 448.5,-92.5 448.5,-122.5"/>
<text text-anchor="start" x="340.5" y="-110.5" font-family="Helvetica,sans-Serif" font-size="10.00">Debug_CAN::throttle</text>
<text text-anchor="middle" x="390.5" y="-99.5" font-family="Helvetica,sans-Serif" font-size="10.00">_fault</text>
</a>
</g>
</g>
<!-- Node2&#45;&gt;Node3 -->
<g id="edge2" class="edge">
<title>Node2&#45;&gt;Node3</title>
<path fill="none" stroke="#63b8ff" d="M293.2,-93.05C302.83,-94.5 312.8,-95.99 322.5,-97.45"/>
<polygon fill="#63b8ff" stroke="#63b8ff" points="322.09,-100.93 332.5,-98.95 323.13,-94 322.09,-100.93"/>
</g>
<!-- Node4 -->
<g id="node4" class="node">
<title>Node4</title>
<g id="a_node4"><a xlink:href="namespaceDebug__Serial.html#a190255790b41055a6f76fb66879f99d2" target="_top" xlink:title="Prints a throttle fault message to the serial console. This function formats and sends the throttle f...">
<polygon fill="white" stroke="#666666" points="452,-74.5 329,-74.5 329,-44.5 452,-44.5 452,-74.5"/>
<text text-anchor="start" x="337" y="-62.5" font-family="Helvetica,sans-Serif" font-size="10.00">Debug_Serial::throttle</text>
<text text-anchor="middle" x="390.5" y="-51.5" font-family="Helvetica,sans-Serif" font-size="10.00">_fault</text>
</a>
</g>
</g>
<!-- Node2&#45;&gt;Node4 -->
<g id="edge3" class="edge">
<title>Node2&#45;&gt;Node4</title>
<path fill="none" stroke="#63b8ff" d="M293.2,-73.95C301.65,-72.68 310.36,-71.37 318.93,-70.09"/>
<polygon fill="#63b8ff" stroke="#63b8ff" points="319.52,-73.54 328.89,-68.59 318.48,-66.61 319.52,-73.54"/>
</g>
</g>
</svg>
