<?xml version="1.0" encoding="UTF-8" standalone="no"?>
<!DOCTYPE svg PUBLIC "-//W3C//DTD SVG 1.1//EN"
 "http://www.w3.org/Graphics/SVG/1.1/DTD/svg11.dtd">
<!-- Generated by graphviz version 2.43.0 (0)
 -->
<!-- Title: Pedal::pedal_can_frame_stop_motor Pages: 1 -->
<svg width="386pt" height="59pt"
 viewBox="0.00 0.00 386.00 59.00" xmlns="http://www.w3.org/2000/svg" xmlns:xlink="http://www.w3.org/1999/xlink">
<g id="graph0" class="graph" transform="scale(1 1) rotate(0) translate(4 55)">
<title>Pedal::pedal_can_frame_stop_motor</title>
<!-- Node1 -->
<g id="node1" class="node">
<title>Node1</title>
<g id="a_node1"><a xlink:title=" ">
<polygon fill="#999999" stroke="#666666" points="378,-51 244,-51 244,-21 378,-21 378,-51"/>
<text text-anchor="start" x="252" y="-39" font-family="Helvetica,sans-Serif" font-size="10.00">Pedal::pedal_can_frame</text>
<text text-anchor="middle" x="311" y="-28" font-family="Helvetica,sans-Serif" font-size="10.00">_stop_motor</text>
</a>
</g>
</g>
<!-- Node2 -->
<g id="node2" class="node">
<title>Node2</title>
<g id="a_node2"><a xlink:href="main_8cpp.html#afe461d27b9c48d5921c00d521181f12f" target="_top" xlink:title=" ">
<polygon fill="white" stroke="#666666" points="38,-45.5 0,-45.5 0,-26.5 38,-26.5 38,-45.5"/>
<text text-anchor="middle" x="19" y="-33.5" font-family="Helvetica,sans-Serif" font-size="10.00">loop</text>
</a>
</g>
</g>
<!-- Node1&#45;&gt;Node2 -->
<g id="edge1" class="edge">
<title>Node1&#45;&gt;Node2</title>
<path fill="none" stroke="#63b8ff" d="M233.63,-38.53C187.42,-39.68 127.31,-40.48 74,-39 62.17,-38.67 48.91,-37.94 38.48,-37.28"/>
<polygon fill="#63b8ff" stroke="#63b8ff" points="233.96,-42.03 243.87,-38.27 233.78,-35.03 233.96,-42.03"/>
</g>
<!-- Node3 -->
<g id="node3" class="node">
<title>Node3</title>
<g id="a_node3"><a xlink:href="classPedal.html#a7ba3e35aa516afdfc47606619d16e3a2" target="_top" xlink:title=" ">
<polygon fill="white" stroke="#666666" points="208,-30 74,-30 74,0 208,0 208,-30"/>
<text text-anchor="start" x="82" y="-18" font-family="Helvetica,sans-Serif" font-size="10.00">Pedal::pedal_can_frame</text>
<text text-anchor="middle" x="141" y="-7" font-family="Helvetica,sans-Serif" font-size="10.00">_update</text>
</a>
</g>
</g>
<!-- Node1&#45;&gt;Node3 -->
<g id="edge2" class="edge">
<title>Node1&#45;&gt;Node3</title>
<path fill="none" stroke="#63b8ff" d="M233.41,-26.43C224.99,-25.37 216.47,-24.31 208.19,-23.27"/>
<polygon fill="#63b8ff" stroke="#63b8ff" points="233.25,-29.93 243.6,-27.7 234.11,-22.99 233.25,-29.93"/>
</g>
<!-- Node3&#45;&gt;Node2 -->
<g id="edge3" class="edge">
<title>Node3&#45;&gt;Node2</title>
<path fill="none" stroke="#63b8ff" d="M63.74,-28.34C54.36,-29.99 45.56,-31.53 38.34,-32.79"/>
<polygon fill="#63b8ff" stroke="#63b8ff" points="64.44,-31.78 73.68,-26.61 63.23,-24.88 64.44,-31.78"/>
</g>
</g>
</svg>
