<?xml version="1.0" encoding="UTF-8" standalone="no"?>
<!DOCTYPE svg PUBLIC "-//W3C//DTD SVG 1.1//EN"
 "http://www.w3.org/Graphics/SVG/1.1/DTD/svg11.dtd">
<!-- Generated by graphviz version 2.43.0 (0)
 -->
<!-- Title: Pedal::checkPedalFault Pages: 1 -->
<svg width="474pt" height="161pt"
 viewBox="0.00 0.00 474.00 160.50" xmlns="http://www.w3.org/2000/svg" xmlns:xlink="http://www.w3.org/1999/xlink">
<g id="graph0" class="graph" transform="scale(1 1) rotate(0) translate(4 156.5)">
<title>Pedal::checkPedalFault</title>
<!-- Node1 -->
<g id="node1" class="node">
<title>Node1</title>
<g id="a_node1"><a xlink:title="Checks for a fault between two pedal sensor readings.">
<polygon fill="#999999" stroke="#666666" points="128,-77 0,-77 0,-58 128,-58 128,-77"/>
<text text-anchor="middle" x="64" y="-65" font-family="Helvetica,sans-Serif" font-size="10.00">Pedal::checkPedalFault</text>
</a>
</g>
</g>
<!-- Node2 -->
<g id="node2" class="node">
<title>Node2</title>
<g id="a_node2"><a xlink:href="Debug_8hpp.html#a27a4d84e5afbe5f46066606c2cfcd97d" target="_top" xlink:title="Sends throttle fault debug info via CAN or serial (if enabled). Overloads for fault status with or wi...">
<polygon fill="white" stroke="#666666" points="293,-99 164,-99 164,-80 293,-80 293,-99"/>
<text text-anchor="middle" x="228.5" y="-87" font-family="Helvetica,sans-Serif" font-size="10.00">DBG_THROTTLE_FAULT</text>
</a>
</g>
</g>
<!-- Node1&#45;&gt;Node2 -->
<g id="edge1" class="edge">
<title>Node1&#45;&gt;Node2</title>
<path fill="none" stroke="#63b8ff" d="M128.29,-76.07C136.68,-77.2 145.34,-78.38 153.89,-79.53"/>
<polygon fill="#63b8ff" stroke="#63b8ff" points="153.47,-83.01 163.85,-80.88 154.41,-76.07 153.47,-83.01"/>
</g>
<!-- Node5 -->
<g id="node5" class="node">
<title>Node5</title>
<g id="a_node5"><a xlink:href="Debug_8hpp.html#afa1e089b7149386f290d4ebb4d373bf6" target="_top" xlink:title="Sends throttle pedal input debug info via CAN or serial (if enabled).">
<polygon fill="white" stroke="#666666" points="283.5,-56 173.5,-56 173.5,-37 283.5,-37 283.5,-56"/>
<text text-anchor="middle" x="228.5" y="-44" font-family="Helvetica,sans-Serif" font-size="10.00">DBG_THROTTLE_IN</text>
</a>
</g>
</g>
<!-- Node1&#45;&gt;Node5 -->
<g id="edge4" class="edge">
<title>Node1&#45;&gt;Node5</title>
<path fill="none" stroke="#63b8ff" d="M128.29,-59.32C139.8,-57.83 151.82,-56.28 163.35,-54.79"/>
<polygon fill="#63b8ff" stroke="#63b8ff" points="163.87,-58.25 173.34,-53.5 162.98,-51.31 163.87,-58.25"/>
</g>
<!-- Node3 -->
<g id="node3" class="node">
<title>Node3</title>
<g id="a_node3"><a xlink:href="namespaceDebug__CAN.html#a8e6443068f8aa21ba673ad7bc132e739" target="_top" xlink:title="Sends a debug throttle fault message over CAN with a float value.">
<polygon fill="white" stroke="#666666" points="455.5,-152.5 339.5,-152.5 339.5,-122.5 455.5,-122.5 455.5,-152.5"/>
<text text-anchor="start" x="347.5" y="-140.5" font-family="Helvetica,sans-Serif" font-size="10.00">Debug_CAN::throttle</text>
<text text-anchor="middle" x="397.5" y="-129.5" font-family="Helvetica,sans-Serif" font-size="10.00">_fault</text>
</a>
</g>
</g>
<!-- Node2&#45;&gt;Node3 -->
<g id="edge2" class="edge">
<title>Node2&#45;&gt;Node3</title>
<path fill="none" stroke="#63b8ff" d="M262.89,-99.1C283.31,-104.97 310.06,-112.65 334.26,-119.61"/>
<polygon fill="#63b8ff" stroke="#63b8ff" points="333.52,-123.04 344.09,-122.44 335.45,-116.31 333.52,-123.04"/>
</g>
<!-- Node4 -->
<g id="node4" class="node">
<title>Node4</title>
<g id="a_node4"><a xlink:href="namespaceDebug__Serial.html#aa73ff8f930647f4c70741b4e50ef6a5d" target="_top" xlink:title="Prints a throttle fault message to the serial console. This function formats and sends the throttle f...">
<polygon fill="white" stroke="#666666" points="459,-104.5 336,-104.5 336,-74.5 459,-74.5 459,-104.5"/>
<text text-anchor="start" x="344" y="-92.5" font-family="Helvetica,sans-Serif" font-size="10.00">Debug_Serial::throttle</text>
<text text-anchor="middle" x="397.5" y="-81.5" font-family="Helvetica,sans-Serif" font-size="10.00">_fault</text>
</a>
</g>
</g>
<!-- Node2&#45;&gt;Node4 -->
<g id="edge3" class="edge">
<title>Node2&#45;&gt;Node4</title>
<path fill="none" stroke="#63b8ff" d="M293.11,-89.5C303.73,-89.5 314.8,-89.5 325.59,-89.5"/>
<polygon fill="#63b8ff" stroke="#63b8ff" points="325.82,-93 335.82,-89.5 325.82,-86 325.82,-93"/>
</g>
<!-- Node6 -->
<g id="node6" class="node">
<title>Node6</title>
<g id="a_node6"><a xlink:href="namespaceDebug__CAN.html#a5c26a2303b6fa92439c0a693728d760e" target="_top" xlink:title="Sends a debug throttle input message over CAN.">
<polygon fill="white" stroke="#666666" points="463,-56 332,-56 332,-37 463,-37 463,-56"/>
<text text-anchor="middle" x="397.5" y="-44" font-family="Helvetica,sans-Serif" font-size="10.00">Debug_CAN::throttle_in</text>
</a>
</g>
</g>
<!-- Node5&#45;&gt;Node6 -->
<g id="edge5" class="edge">
<title>Node5&#45;&gt;Node6</title>
<path fill="none" stroke="#63b8ff" d="M283.72,-46.5C295.82,-46.5 308.86,-46.5 321.62,-46.5"/>
<polygon fill="#63b8ff" stroke="#63b8ff" points="321.78,-50 331.78,-46.5 321.78,-43 321.78,-50"/>
</g>
<!-- Node7 -->
<g id="node7" class="node">
<title>Node7</title>
<g id="a_node7"><a xlink:href="namespaceDebug__Serial.html#a9e68fe4f00e7b1bf1a9c2addc2222a9b" target="_top" xlink:title="Prints a throttle input message to the serial console. This function formats and sends the throttle i...">
<polygon fill="white" stroke="#666666" points="466,-19 329,-19 329,0 466,0 466,-19"/>
<text text-anchor="middle" x="397.5" y="-7" font-family="Helvetica,sans-Serif" font-size="10.00">Debug_Serial::throttle_in</text>
</a>
</g>
</g>
<!-- Node5&#45;&gt;Node7 -->
<g id="edge6" class="edge">
<title>Node5&#45;&gt;Node7</title>
<path fill="none" stroke="#63b8ff" d="M272.51,-36.97C294.14,-32.18 320.56,-26.32 343.45,-21.25"/>
<polygon fill="#63b8ff" stroke="#63b8ff" points="344.34,-24.64 353.35,-19.06 342.83,-17.81 344.34,-24.64"/>
</g>
</g>
</svg>
