<?xml version="1.0" encoding="UTF-8" standalone="no"?>
<!DOCTYPE svg PUBLIC "-//W3C//DTD SVG 1.1//EN"
 "http://www.w3.org/Graphics/SVG/1.1/DTD/svg11.dtd">
<!-- Generated by graphviz version 2.43.0 (0)
 -->
<!-- Title: Pedal::check_pedal_fault Pages: 1 -->
<svg width="456pt" height="161pt"
 viewBox="0.00 0.00 456.00 160.50" xmlns="http://www.w3.org/2000/svg" xmlns:xlink="http://www.w3.org/1999/xlink">
<g id="graph0" class="graph" transform="scale(1 1) rotate(0) translate(4 156.5)">
<title>Pedal::check_pedal_fault</title>
<!-- Node1 -->
<g id="node1" class="node">
<title>Node1</title>
<g id="a_node1"><a xlink:title="Checks for a fault between two pedal sensor readings.">
<polygon fill="#999999" stroke="#666666" points="110,-82.5 0,-82.5 0,-52.5 110,-52.5 110,-82.5"/>
<text text-anchor="start" x="8" y="-70.5" font-family="Helvetica,sans-Serif" font-size="10.00">Pedal::check_pedal</text>
<text text-anchor="middle" x="55" y="-59.5" font-family="Helvetica,sans-Serif" font-size="10.00">_fault</text>
</a>
</g>
</g>
<!-- Node2 -->
<g id="node2" class="node">
<title>Node2</title>
<g id="a_node2"><a xlink:href="Debug_8hpp.html#a27a4d84e5afbe5f46066606c2cfcd97d" target="_top" xlink:title="Sends throttle fault debug info via CAN or serial (if enabled). Overloads for fault status with or wi...">
<polygon fill="white" stroke="#666666" points="275,-99 146,-99 146,-80 275,-80 275,-99"/>
<text text-anchor="middle" x="210.5" y="-87" font-family="Helvetica,sans-Serif" font-size="10.00">DBG_THROTTLE_FAULT</text>
</a>
</g>
</g>
<!-- Node1&#45;&gt;Node2 -->
<g id="edge1" class="edge">
<title>Node1&#45;&gt;Node2</title>
<path fill="none" stroke="#63b8ff" d="M110.12,-75.26C118.43,-76.45 127.13,-77.7 135.78,-78.93"/>
<polygon fill="#63b8ff" stroke="#63b8ff" points="135.49,-82.43 145.89,-80.38 136.49,-75.5 135.49,-82.43"/>
</g>
<!-- Node5 -->
<g id="node5" class="node">
<title>Node5</title>
<g id="a_node5"><a xlink:href="Debug_8hpp.html#afa1e089b7149386f290d4ebb4d373bf6" target="_top" xlink:title="Sends throttle pedal input debug info via CAN or serial (if enabled).">
<polygon fill="white" stroke="#666666" points="265.5,-56 155.5,-56 155.5,-37 265.5,-37 265.5,-56"/>
<text text-anchor="middle" x="210.5" y="-44" font-family="Helvetica,sans-Serif" font-size="10.00">DBG_THROTTLE_IN</text>
</a>
</g>
</g>
<!-- Node1&#45;&gt;Node5 -->
<g id="edge4" class="edge">
<title>Node1&#45;&gt;Node5</title>
<path fill="none" stroke="#63b8ff" d="M110.12,-60.1C121.47,-58.54 133.54,-56.89 145.22,-55.29"/>
<polygon fill="#63b8ff" stroke="#63b8ff" points="145.92,-58.73 155.35,-53.91 144.97,-51.8 145.92,-58.73"/>
</g>
<!-- Node3 -->
<g id="node3" class="node">
<title>Node3</title>
<g id="a_node3"><a xlink:href="namespaceDebug__CAN.html#a8e6443068f8aa21ba673ad7bc132e739" target="_top" xlink:title="Sends a debug throttle fault message over CAN with a float value.">
<polygon fill="white" stroke="#666666" points="437.5,-152.5 321.5,-152.5 321.5,-122.5 437.5,-122.5 437.5,-152.5"/>
<text text-anchor="start" x="329.5" y="-140.5" font-family="Helvetica,sans-Serif" font-size="10.00">Debug_CAN::throttle</text>
<text text-anchor="middle" x="379.5" y="-129.5" font-family="Helvetica,sans-Serif" font-size="10.00">_fault</text>
</a>
</g>
</g>
<!-- Node2&#45;&gt;Node3 -->
<g id="edge2" class="edge">
<title>Node2&#45;&gt;Node3</title>
<path fill="none" stroke="#63b8ff" d="M244.89,-99.1C265.31,-104.97 292.06,-112.65 316.26,-119.61"/>
<polygon fill="#63b8ff" stroke="#63b8ff" points="315.52,-123.04 326.09,-122.44 317.45,-116.31 315.52,-123.04"/>
</g>
<!-- Node4 -->
<g id="node4" class="node">
<title>Node4</title>
<g id="a_node4"><a xlink:href="namespaceDebug__Serial.html#aa73ff8f930647f4c70741b4e50ef6a5d" target="_top" xlink:title="Prints a throttle fault message to the serial console. This function formats and sends the throttle f...">
<polygon fill="white" stroke="#666666" points="441,-104.5 318,-104.5 318,-74.5 441,-74.5 441,-104.5"/>
<text text-anchor="start" x="326" y="-92.5" font-family="Helvetica,sans-Serif" font-size="10.00">Debug_Serial::throttle</text>
<text text-anchor="middle" x="379.5" y="-81.5" font-family="Helvetica,sans-Serif" font-size="10.00">_fault</text>
</a>
</g>
</g>
<!-- Node2&#45;&gt;Node4 -->
<g id="edge3" class="edge">
<title>Node2&#45;&gt;Node4</title>
<path fill="none" stroke="#63b8ff" d="M275.11,-89.5C285.73,-89.5 296.8,-89.5 307.59,-89.5"/>
<polygon fill="#63b8ff" stroke="#63b8ff" points="307.82,-93 317.82,-89.5 307.82,-86 307.82,-93"/>
</g>
<!-- Node6 -->
<g id="node6" class="node">
<title>Node6</title>
<g id="a_node6"><a xlink:href="namespaceDebug__CAN.html#a5c26a2303b6fa92439c0a693728d760e" target="_top" xlink:title="Sends a debug throttle input message over CAN.">
<polygon fill="white" stroke="#666666" points="445,-56 314,-56 314,-37 445,-37 445,-56"/>
<text text-anchor="middle" x="379.5" y="-44" font-family="Helvetica,sans-Serif" font-size="10.00">Debug_CAN::throttle_in</text>
</a>
</g>
</g>
<!-- Node5&#45;&gt;Node6 -->
<g id="edge5" class="edge">
<title>Node5&#45;&gt;Node6</title>
<path fill="none" stroke="#63b8ff" d="M265.72,-46.5C277.82,-46.5 290.86,-46.5 303.62,-46.5"/>
<polygon fill="#63b8ff" stroke="#63b8ff" points="303.78,-50 313.78,-46.5 303.78,-43 303.78,-50"/>
</g>
<!-- Node7 -->
<g id="node7" class="node">
<title>Node7</title>
<g id="a_node7"><a xlink:href="namespaceDebug__Serial.html#a9e68fe4f00e7b1bf1a9c2addc2222a9b" target="_top" xlink:title="Prints a throttle input message to the serial console. This function formats and sends the throttle i...">
<polygon fill="white" stroke="#666666" points="448,-19 311,-19 311,0 448,0 448,-19"/>
<text text-anchor="middle" x="379.5" y="-7" font-family="Helvetica,sans-Serif" font-size="10.00">Debug_Serial::throttle_in</text>
</a>
</g>
</g>
<!-- Node5&#45;&gt;Node7 -->
<g id="edge6" class="edge">
<title>Node5&#45;&gt;Node7</title>
<path fill="none" stroke="#63b8ff" d="M254.51,-36.97C276.14,-32.18 302.56,-26.32 325.45,-21.25"/>
<polygon fill="#63b8ff" stroke="#63b8ff" points="326.34,-24.64 335.35,-19.06 324.83,-17.81 326.34,-24.64"/>
</g>
</g>
</svg>
