<?xml version="1.0" encoding="UTF-8" standalone="no"?>
<!DOCTYPE svg PUBLIC "-//W3C//DTD SVG 1.1//EN"
 "http://www.w3.org/Graphics/SVG/1.1/DTD/svg11.dtd">
<!-- Generated by graphviz version 2.43.0 (0)
 -->
<!-- Title: Pedal::update Pages: 1 -->
<svg width="579pt" height="124pt"
 viewBox="0.00 0.00 579.00 124.00" xmlns="http://www.w3.org/2000/svg" xmlns:xlink="http://www.w3.org/1999/xlink">
<g id="graph0" class="graph" transform="scale(1 1) rotate(0) translate(4 120)">
<title>Pedal::update</title>
<!-- Node1 -->
<g id="node1" class="node">
<title>Node1</title>
<g id="a_node1"><a xlink:title="Updates pedal sensor readings, applies filtering, and checks for faults.">
<polygon fill="#999999" stroke="#666666" points="83,-67.5 0,-67.5 0,-48.5 83,-48.5 83,-67.5"/>
<text text-anchor="middle" x="41.5" y="-55.5" font-family="Helvetica,sans-Serif" font-size="10.00">Pedal::update</text>
</a>
</g>
</g>
<!-- Node2 -->
<g id="node2" class="node">
<title>Node2</title>
<g id="a_node2"><a xlink:href="classExponentialFilter.html#a4128176cf6dbe847a521df4dba8d962d" target="_top" xlink:title="Adds a new sample to the ExponentialFilter. Updates the filtered value using the exponential moving a...">
<polygon fill="white" stroke="#666666" points="235.5,-116 130.5,-116 130.5,-86 235.5,-86 235.5,-116"/>
<text text-anchor="start" x="138.5" y="-104" font-family="Helvetica,sans-Serif" font-size="10.00">ExponentialFilter::</text>
<text text-anchor="middle" x="183" y="-93" font-family="Helvetica,sans-Serif" font-size="10.00">addSample</text>
</a>
</g>
</g>
<!-- Node1&#45;&gt;Node2 -->
<g id="edge1" class="edge">
<title>Node1&#45;&gt;Node2</title>
<path fill="none" stroke="#63b8ff" d="M73.46,-67.54C88.15,-72.07 106.22,-77.64 123.36,-82.93"/>
<polygon fill="#63b8ff" stroke="#63b8ff" points="122.73,-86.39 133.32,-85.99 124.79,-79.7 122.73,-86.39"/>
</g>
<!-- Node3 -->
<g id="node3" class="node">
<title>Node3</title>
<g id="a_node3"><a xlink:href="classPedal.html#a4025bb96ea422dbba6d3b604a1066bc7" target="_top" xlink:title="Checks for a fault between two pedal sensor readings.">
<polygon fill="white" stroke="#666666" points="247,-67.5 119,-67.5 119,-48.5 247,-48.5 247,-67.5"/>
<text text-anchor="middle" x="183" y="-55.5" font-family="Helvetica,sans-Serif" font-size="10.00">Pedal::checkPedalFault</text>
</a>
</g>
</g>
<!-- Node1&#45;&gt;Node3 -->
<g id="edge2" class="edge">
<title>Node1&#45;&gt;Node3</title>
<path fill="none" stroke="#63b8ff" d="M83.22,-58C91.26,-58 99.92,-58 108.65,-58"/>
<polygon fill="#63b8ff" stroke="#63b8ff" points="108.91,-61.5 118.91,-58 108.91,-54.5 108.91,-61.5"/>
</g>
<!-- Node4 -->
<g id="node4" class="node">
<title>Node4</title>
<g id="a_node4"><a xlink:href="Debug_8hpp.html#a83973b3fea610da634610d01cd98e2d8" target="_top" xlink:title="Sends throttle fault debug info via CAN or serial (if enabled). Overloads for fault status with or wi...">
<polygon fill="white" stroke="#666666" points="412,-48.5 283,-48.5 283,-29.5 412,-29.5 412,-48.5"/>
<text text-anchor="middle" x="347.5" y="-36.5" font-family="Helvetica,sans-Serif" font-size="10.00">DBG_THROTTLE_FAULT</text>
</a>
</g>
</g>
<!-- Node1&#45;&gt;Node4 -->
<g id="edge6" class="edge">
<title>Node1&#45;&gt;Node4</title>
<path fill="none" stroke="#63b8ff" d="M75.72,-48.45C89.05,-45.08 104.64,-41.7 119,-40 169.94,-33.97 227.76,-33.8 272.35,-35.1"/>
<polygon fill="#63b8ff" stroke="#63b8ff" points="272.42,-38.61 282.52,-35.43 272.64,-31.61 272.42,-38.61"/>
</g>
<!-- Node3&#45;&gt;Node4 -->
<g id="edge3" class="edge">
<title>Node3&#45;&gt;Node4</title>
<path fill="none" stroke="#63b8ff" d="M247.29,-50.6C255.68,-49.62 264.34,-48.61 272.89,-47.61"/>
<polygon fill="#63b8ff" stroke="#63b8ff" points="273.32,-51.08 282.85,-46.44 272.51,-44.13 273.32,-51.08"/>
</g>
<!-- Node5 -->
<g id="node5" class="node">
<title>Node5</title>
<g id="a_node5"><a xlink:href="namespaceDebug__CAN.html#aded6aa4b3ac940a9ea0941569e157522" target="_top" xlink:title="Sends a debug throttle fault message over CAN with a float value.">
<polygon fill="white" stroke="#666666" points="567.5,-78 451.5,-78 451.5,-48 567.5,-48 567.5,-78"/>
<text text-anchor="start" x="459.5" y="-66" font-family="Helvetica,sans-Serif" font-size="10.00">Debug_CAN::throttle</text>
<text text-anchor="middle" x="509.5" y="-55" font-family="Helvetica,sans-Serif" font-size="10.00">_fault</text>
</a>
</g>
</g>
<!-- Node4&#45;&gt;Node5 -->
<g id="edge4" class="edge">
<title>Node4&#45;&gt;Node5</title>
<path fill="none" stroke="#63b8ff" d="M412.2,-48.55C421.83,-50 431.8,-51.49 441.5,-52.95"/>
<polygon fill="#63b8ff" stroke="#63b8ff" points="441.09,-56.43 451.5,-54.45 442.13,-49.5 441.09,-56.43"/>
</g>
<!-- Node6 -->
<g id="node6" class="node">
<title>Node6</title>
<g id="a_node6"><a xlink:href="namespaceDebug__Serial.html#a190255790b41055a6f76fb66879f99d2" target="_top" xlink:title="Prints a throttle fault message to the serial console. This function formats and sends the throttle f...">
<polygon fill="white" stroke="#666666" points="571,-30 448,-30 448,0 571,0 571,-30"/>
<text text-anchor="start" x="456" y="-18" font-family="Helvetica,sans-Serif" font-size="10.00">Debug_Serial::throttle</text>
<text text-anchor="middle" x="509.5" y="-7" font-family="Helvetica,sans-Serif" font-size="10.00">_fault</text>
</a>
</g>
</g>
<!-- Node4&#45;&gt;Node6 -->
<g id="edge5" class="edge">
<title>Node4&#45;&gt;Node6</title>
<path fill="none" stroke="#63b8ff" d="M412.2,-29.45C420.65,-28.18 429.36,-26.87 437.93,-25.59"/>
<polygon fill="#63b8ff" stroke="#63b8ff" points="438.52,-29.04 447.89,-24.09 437.48,-22.11 438.52,-29.04"/>
</g>
</g>
</svg>
