<?xml version="1.0" encoding="UTF-8" standalone="no"?>
<!DOCTYPE svg PUBLIC "-//W3C//DTD SVG 1.1//EN"
 "http://www.w3.org/Graphics/SVG/1.1/DTD/svg11.dtd">
<!-- Generated by graphviz version 2.43.0 (0)
 -->
<!-- Title: Telemetry Pages: 1 -->
<!--zoomable 739 -->
<svg id="main" version="1.1" xmlns="http://www.w3.org/2000/svg" xmlns:xlink="http://www.w3.org/1999/xlink" xml:space="preserve" onload="init(evt)">
<style type="text/css"><![CDATA[
.edge:hover path { stroke: red; }
.edge:hover polygon { stroke: red; fill: red; }
]]></style>
<script type="text/javascript"><![CDATA[
var edges = document.getElementsByTagName('g');
if (edges && edges.length) {
  for (var i=0;i<edges.length;i++) {
    if (edges[i].id.substr(0,4)=='edge') {
      edges[i].setAttribute('class','edge');
    }
  }
}
]]></script>
        <defs>
                <circle id="rim" cx="0" cy="0" r="7"/>
                <circle id="rim2" cx="0" cy="0" r="3.5"/>
                <g id="zoomPlus">
                        <use xlink:href="#rim" fill="#404040">
                                <set attributeName="fill" to="#808080" begin="zoomplus.mouseover" end="zoomplus.mouseout"/>
                        </use>
                        <path d="M-4,0h8M0,-4v8" fill="none" stroke="white" stroke-width="1.5" pointer-events="none"/>
                </g>
                <g id="zoomMin">
                        <use xlink:href="#rim" fill="#404040">
                                <set attributeName="fill" to="#808080" begin="zoomminus.mouseover" end="zoomminus.mouseout"/>
                        </use>
                        <path d="M-4,0h8" fill="none" stroke="white" stroke-width="1.5" pointer-events="none"/>
                </g>
                <g id="dirArrow">
                        <path fill="none" stroke="white" stroke-width="1.5" d="M0,-3.0v7 M-2.5,-0.5L0,-3.0L2.5,-0.5"/>
                </g>
               <g id="resetDef">
                       <use xlink:href="#rim2" fill="#404040">
                               <set attributeName="fill" to="#808080" begin="reset.mouseover" end="reset.mouseout"/>
                       </use>
               </g>
        </defs>

<script type="text/javascript">
var viewWidth = 483;
var viewHeight = 739;
var sectionId = 'dynsection-0';
</script>
<script xlink:href="svgpan.js"/>
<svg id="graph" class="graph">
<g id="viewport">
<title>Telemetry</title>
<!-- Node1 -->
<g id="node1" class="node">
<title>Node1</title>
<g id="a_node1"><a xlink:title="Telemetry class for managing telemetry data transmission over CAN bus Grabs and sends telemetry frame...">
<polygon fill="#999999" stroke="#666666" points="206.5,-0.5 206.5,-156.5 345.5,-156.5 345.5,-0.5 206.5,-0.5"/>
<text text-anchor="middle" x="276" y="-144.5" font-family="Helvetica,sans-Serif" font-size="10.00">Telemetry</text>
<polyline fill="none" stroke="#666666" points="206.5,-137.5 345.5,-137.5 "/>
<text text-anchor="start" x="214.5" y="-125.5" font-family="Helvetica,sans-Serif" font-size="10.00">&#45; mcp2515</text>
<text text-anchor="start" x="214.5" y="-114.5" font-family="Helvetica,sans-Serif" font-size="10.00">&#45; count</text>
<text text-anchor="start" x="214.5" y="-103.5" font-family="Helvetica,sans-Serif" font-size="10.00">&#45; NUM_FREQ_FRAMES</text>
<text text-anchor="start" x="214.5" y="-92.5" font-family="Helvetica,sans-Serif" font-size="10.00">&#45; NUM_INFREQ_FRAMES</text>
<text text-anchor="start" x="214.5" y="-81.5" font-family="Helvetica,sans-Serif" font-size="10.00">&#45; FRAMES_FREQ_RATIO</text>
<text text-anchor="start" x="214.5" y="-70.5" font-family="Helvetica,sans-Serif" font-size="10.00">&#45; MAX_FRAME_COUNTER</text>
<polyline fill="none" stroke="#666666" points="206.5,-63.5 345.5,-63.5 "/>
<text text-anchor="start" x="214.5" y="-51.5" font-family="Helvetica,sans-Serif" font-size="10.00">+ Telemetry()</text>
<text text-anchor="start" x="214.5" y="-40.5" font-family="Helvetica,sans-Serif" font-size="10.00">+ sendTelemetry()</text>
<text text-anchor="start" x="214.5" y="-29.5" font-family="Helvetica,sans-Serif" font-size="10.00">&#45; schedulerPedal()</text>
<text text-anchor="start" x="214.5" y="-18.5" font-family="Helvetica,sans-Serif" font-size="10.00">&#45; schedulerMotor()</text>
<text text-anchor="start" x="214.5" y="-7.5" font-family="Helvetica,sans-Serif" font-size="10.00">&#45; schedulerBms()</text>
</a>
</g>
</g>
<!-- Node2 -->
<g id="node2" class="node">
<title>Node2</title>
<g id="a_node2"><a xlink:href="structCarState.html" target="_top" xlink:title="Represents the state of the car. Holds telemetry data and status, used as central data sharing struct...">
<polygon fill="white" stroke="#666666" points="231,-204.5 231,-272.5 321,-272.5 321,-204.5 231,-204.5"/>
<text text-anchor="middle" x="276" y="-260.5" font-family="Helvetica,sans-Serif" font-size="10.00">CarState</text>
<polyline fill="none" stroke="#666666" points="231,-253.5 321,-253.5 "/>
<text text-anchor="start" x="239" y="-241.5" font-family="Helvetica,sans-Serif" font-size="10.00">+ status_millis</text>
<text text-anchor="start" x="239" y="-230.5" font-family="Helvetica,sans-Serif" font-size="10.00">+ millis</text>
<polyline fill="none" stroke="#666666" points="231,-223.5 321,-223.5 "/>
<text text-anchor="middle" x="276" y="-211.5" font-family="Helvetica,sans-Serif" font-size="10.00"> </text>
</a>
</g>
</g>
<!-- Node2&#45;&gt;Node1 -->
<g id="edge1" class="edge">
<title>Node2&#45;&gt;Node1</title>
<path fill="none" stroke="#404040" d="M276,-204.38C276,-193.75 276,-181.42 276,-168.74"/>
<polygon fill="none" stroke="#404040" points="276,-168.52 272,-162.52 276,-156.52 280,-162.52 276,-168.52"/>
<text text-anchor="middle" x="287" y="-178" font-family="Helvetica,sans-Serif" font-size="10.00"> &#45;car</text>
</g>
<!-- Node3 -->
<g id="node3" class="node">
<title>Node3</title>
<g id="a_node3"><a xlink:href="structTelemetryFramePedal.html" target="_top" xlink:title="Telemetry frame structure for the Pedals.">
<polygon fill="white" stroke="#666666" points="72.5,-320.5 72.5,-421.5 195.5,-421.5 195.5,-320.5 72.5,-320.5"/>
<text text-anchor="middle" x="134" y="-409.5" font-family="Helvetica,sans-Serif" font-size="10.00">TelemetryFramePedal</text>
<polyline fill="none" stroke="#666666" points="72.5,-402.5 195.5,-402.5 "/>
<text text-anchor="start" x="80.5" y="-390.5" font-family="Helvetica,sans-Serif" font-size="10.00">+ apps_5v</text>
<text text-anchor="start" x="80.5" y="-379.5" font-family="Helvetica,sans-Serif" font-size="10.00">+ apps_3v3</text>
<text text-anchor="start" x="80.5" y="-368.5" font-family="Helvetica,sans-Serif" font-size="10.00">+ apps_3v3_scaled</text>
<text text-anchor="start" x="80.5" y="-357.5" font-family="Helvetica,sans-Serif" font-size="10.00">+ brake</text>
<text text-anchor="start" x="80.5" y="-346.5" font-family="Helvetica,sans-Serif" font-size="10.00">+ hall_sensor</text>
<polyline fill="none" stroke="#666666" points="72.5,-339.5 195.5,-339.5 "/>
<text text-anchor="start" x="80.5" y="-327.5" font-family="Helvetica,sans-Serif" font-size="10.00">+ toCanFrame()</text>
</a>
</g>
</g>
<!-- Node3&#45;&gt;Node2 -->
<g id="edge2" class="edge">
<title>Node3&#45;&gt;Node2</title>
<path fill="none" stroke="#404040" d="M188.09,-320.29C202.23,-307.3 217.31,-293.43 230.93,-280.92"/>
<polygon fill="none" stroke="#404040" points="231.25,-280.63 232.96,-273.62 240.09,-272.51 238.37,-279.51 231.25,-280.63"/>
<text text-anchor="middle" x="237.5" y="-294" font-family="Helvetica,sans-Serif" font-size="10.00"> +pedal</text>
</g>
<!-- Node4 -->
<g id="node4" class="node">
<title>Node4</title>
<g id="a_node4"><a xlink:href="unionTelemetryFramePedal_1_1StateByteStatus.html" target="_top" xlink:title=" ">
<polygon fill="white" stroke="#666666" points="2.5,-469.5 2.5,-537.5 125.5,-537.5 125.5,-469.5 2.5,-469.5"/>
<text text-anchor="start" x="10.5" y="-525.5" font-family="Helvetica,sans-Serif" font-size="10.00">TelemetryFramePedal</text>
<text text-anchor="middle" x="64" y="-514.5" font-family="Helvetica,sans-Serif" font-size="10.00">::StateByteStatus</text>
<polyline fill="none" stroke="#666666" points="2.5,-507.5 125.5,-507.5 "/>
<text text-anchor="start" x="10.5" y="-495.5" font-family="Helvetica,sans-Serif" font-size="10.00">+ byte</text>
<polyline fill="none" stroke="#666666" points="2.5,-488.5 125.5,-488.5 "/>
<text text-anchor="middle" x="64" y="-476.5" font-family="Helvetica,sans-Serif" font-size="10.00"> </text>
</a>
</g>
</g>
<!-- Node4&#45;&gt;Node3 -->
<g id="edge3" class="edge">
<title>Node4&#45;&gt;Node3</title>
<path fill="none" stroke="#404040" d="M81.85,-469.23C87.8,-458.13 94.63,-445.4 101.35,-432.88"/>
<polygon fill="none" stroke="#404040" points="101.52,-432.55 100.83,-425.37 107.19,-421.98 107.88,-429.15 101.52,-432.55"/>
<text text-anchor="middle" x="118" y="-443" font-family="Helvetica,sans-Serif" font-size="10.00"> +status</text>
</g>
<!-- Node5 -->
<g id="node5" class="node">
<title>Node5</title>
<g id="a_node5"><a xlink:href="structTelemetryFramePedal_1_1StateByteStatus_1_1Bits.html" target="_top" xlink:title=" ">
<polygon fill="white" stroke="#666666" points="0,-591 0,-725 126,-725 126,-591 0,-591"/>
<text text-anchor="start" x="8" y="-713" font-family="Helvetica,sans-Serif" font-size="10.00">TelemetryFramePedal</text>
<text text-anchor="middle" x="63" y="-702" font-family="Helvetica,sans-Serif" font-size="10.00">::StateByteStatus::Bits</text>
<polyline fill="none" stroke="#666666" points="0,-695 126,-695 "/>
<text text-anchor="start" x="8" y="-683" font-family="Helvetica,sans-Serif" font-size="10.00">+ car_status</text>
<text text-anchor="start" x="8" y="-672" font-family="Helvetica,sans-Serif" font-size="10.00">+ state_unknown</text>
<text text-anchor="start" x="8" y="-661" font-family="Helvetica,sans-Serif" font-size="10.00">+ hv_ready</text>
<text text-anchor="start" x="8" y="-650" font-family="Helvetica,sans-Serif" font-size="10.00">+ bms_no_msg</text>
<text text-anchor="start" x="8" y="-639" font-family="Helvetica,sans-Serif" font-size="10.00">+ bms_wrong_id</text>
<text text-anchor="start" x="8" y="-628" font-family="Helvetica,sans-Serif" font-size="10.00">+ screenshot</text>
<text text-anchor="start" x="8" y="-617" font-family="Helvetica,sans-Serif" font-size="10.00">+ force_stop</text>
<polyline fill="none" stroke="#666666" points="0,-610 126,-610 "/>
<text text-anchor="middle" x="63" y="-598" font-family="Helvetica,sans-Serif" font-size="10.00"> </text>
</a>
</g>
</g>
<!-- Node5&#45;&gt;Node4 -->
<g id="edge4" class="edge">
<title>Node5&#45;&gt;Node4</title>
<path fill="none" stroke="#404040" d="M63.43,-591C63.52,-577.23 63.62,-563.01 63.7,-550.18"/>
<polygon fill="none" stroke="#404040" points="63.7,-549.88 59.74,-543.85 63.78,-537.88 67.74,-543.9 63.7,-549.88"/>
<text text-anchor="middle" x="79" y="-559" font-family="Helvetica,sans-Serif" font-size="10.00"> +bits</text>
</g>
<!-- Node6 -->
<g id="node6" class="node">
<title>Node6</title>
<g id="a_node6"><a xlink:href="unionTelemetryFramePedal_1_1StateByteFaults.html" target="_top" xlink:title=" ">
<polygon fill="white" stroke="#666666" points="144.5,-469.5 144.5,-537.5 267.5,-537.5 267.5,-469.5 144.5,-469.5"/>
<text text-anchor="start" x="152.5" y="-525.5" font-family="Helvetica,sans-Serif" font-size="10.00">TelemetryFramePedal</text>
<text text-anchor="middle" x="206" y="-514.5" font-family="Helvetica,sans-Serif" font-size="10.00">::StateByteFaults</text>
<polyline fill="none" stroke="#666666" points="144.5,-507.5 267.5,-507.5 "/>
<text text-anchor="start" x="152.5" y="-495.5" font-family="Helvetica,sans-Serif" font-size="10.00">+ byte</text>
<polyline fill="none" stroke="#666666" points="144.5,-488.5 267.5,-488.5 "/>
<text text-anchor="middle" x="206" y="-476.5" font-family="Helvetica,sans-Serif" font-size="10.00"> </text>
</a>
</g>
</g>
<!-- Node6&#45;&gt;Node3 -->
<g id="edge5" class="edge">
<title>Node6&#45;&gt;Node3</title>
<path fill="none" stroke="#404040" d="M187.65,-469.23C181.46,-458.02 174.35,-445.14 167.38,-432.5"/>
<polygon fill="none" stroke="#404040" points="167.37,-432.48 160.97,-429.16 161.57,-421.98 167.97,-425.3 167.37,-432.48"/>
<text text-anchor="middle" x="197" y="-443" font-family="Helvetica,sans-Serif" font-size="10.00"> +faults</text>
</g>
<!-- Node7 -->
<g id="node7" class="node">
<title>Node7</title>
<g id="a_node7"><a xlink:href="structTelemetryFramePedal_1_1StateByteFaults_1_1Bits.html" target="_top" xlink:title=" ">
<polygon fill="white" stroke="#666666" points="144,-585.5 144,-730.5 268,-730.5 268,-585.5 144,-585.5"/>
<text text-anchor="start" x="152" y="-718.5" font-family="Helvetica,sans-Serif" font-size="10.00">TelemetryFramePedal</text>
<text text-anchor="middle" x="206" y="-707.5" font-family="Helvetica,sans-Serif" font-size="10.00">::StateByteFaults::Bits</text>
<polyline fill="none" stroke="#666666" points="144,-700.5 268,-700.5 "/>
<text text-anchor="start" x="152" y="-688.5" font-family="Helvetica,sans-Serif" font-size="10.00">+ fault_active</text>
<text text-anchor="start" x="152" y="-677.5" font-family="Helvetica,sans-Serif" font-size="10.00">+ fault_exceeded</text>
<text text-anchor="start" x="152" y="-666.5" font-family="Helvetica,sans-Serif" font-size="10.00">+ apps_5v_low</text>
<text text-anchor="start" x="152" y="-655.5" font-family="Helvetica,sans-Serif" font-size="10.00">+ apps_5v_high</text>
<text text-anchor="start" x="152" y="-644.5" font-family="Helvetica,sans-Serif" font-size="10.00">+ apps_3v3_low</text>
<text text-anchor="start" x="152" y="-633.5" font-family="Helvetica,sans-Serif" font-size="10.00">+ apps_3v3_high</text>
<text text-anchor="start" x="152" y="-622.5" font-family="Helvetica,sans-Serif" font-size="10.00">+ brake_low</text>
<text text-anchor="start" x="152" y="-611.5" font-family="Helvetica,sans-Serif" font-size="10.00">+ brake_high</text>
<polyline fill="none" stroke="#666666" points="144,-604.5 268,-604.5 "/>
<text text-anchor="middle" x="206" y="-592.5" font-family="Helvetica,sans-Serif" font-size="10.00"> </text>
</a>
</g>
</g>
<!-- Node7&#45;&gt;Node6 -->
<g id="edge6" class="edge">
<title>Node7&#45;&gt;Node6</title>
<path fill="none" stroke="#404040" d="M206,-585.22C206,-573.09 206,-560.82 206,-549.62"/>
<polygon fill="none" stroke="#404040" points="206,-549.51 202,-543.51 206,-537.51 210,-543.51 206,-549.51"/>
<text text-anchor="middle" x="221" y="-559" font-family="Helvetica,sans-Serif" font-size="10.00"> +bits</text>
</g>
<!-- Node8 -->
<g id="node8" class="node">
<title>Node8</title>
<g id="a_node8"><a xlink:href="structTelemetryFrameMotor.html" target="_top" xlink:title="Telemetry frame structure for motor signals.">
<polygon fill="white" stroke="#666666" points="213.5,-326 213.5,-416 338.5,-416 338.5,-326 213.5,-326"/>
<text text-anchor="middle" x="276" y="-404" font-family="Helvetica,sans-Serif" font-size="10.00">TelemetryFrameMotor</text>
<polyline fill="none" stroke="#666666" points="213.5,-397 338.5,-397 "/>
<text text-anchor="start" x="221.5" y="-385" font-family="Helvetica,sans-Serif" font-size="10.00">+ torque_val</text>
<text text-anchor="start" x="221.5" y="-374" font-family="Helvetica,sans-Serif" font-size="10.00">+ motor_rpm</text>
<text text-anchor="start" x="221.5" y="-363" font-family="Helvetica,sans-Serif" font-size="10.00">+ motor_error</text>
<text text-anchor="start" x="221.5" y="-352" font-family="Helvetica,sans-Serif" font-size="10.00">+ motor_warn</text>
<polyline fill="none" stroke="#666666" points="213.5,-345 338.5,-345 "/>
<text text-anchor="start" x="221.5" y="-333" font-family="Helvetica,sans-Serif" font-size="10.00">+ toCanFrame()</text>
</a>
</g>
</g>
<!-- Node8&#45;&gt;Node2 -->
<g id="edge7" class="edge">
<title>Node8&#45;&gt;Node2</title>
<path fill="none" stroke="#404040" d="M276,-325.82C276,-312.71 276,-298.32 276,-285.12"/>
<polygon fill="none" stroke="#404040" points="276,-284.91 272,-278.91 276,-272.91 280,-278.91 276,-284.91"/>
<text text-anchor="middle" x="296.5" y="-294" font-family="Helvetica,sans-Serif" font-size="10.00"> +motor</text>
</g>
<!-- Node9 -->
<g id="node9" class="node">
<title>Node9</title>
<g id="a_node9"><a xlink:href="structTelemetryFrameBms.html" target="_top" xlink:title="Telemetry frame structure for the BMS data.">
<polygon fill="white" stroke="#666666" points="357,-342.5 357,-399.5 475,-399.5 475,-342.5 357,-342.5"/>
<text text-anchor="middle" x="416" y="-387.5" font-family="Helvetica,sans-Serif" font-size="10.00">TelemetryFrameBms</text>
<polyline fill="none" stroke="#666666" points="357,-380.5 475,-380.5 "/>
<text text-anchor="start" x="365" y="-368.5" font-family="Helvetica,sans-Serif" font-size="10.00">+ bms_data</text>
<polyline fill="none" stroke="#666666" points="357,-361.5 475,-361.5 "/>
<text text-anchor="start" x="365" y="-349.5" font-family="Helvetica,sans-Serif" font-size="10.00">+ toCanFrame()</text>
</a>
</g>
</g>
<!-- Node9&#45;&gt;Node2 -->
<g id="edge8" class="edge">
<title>Node9&#45;&gt;Node2</title>
<path fill="none" stroke="#404040" d="M386.31,-342.32C367.21,-324.52 342.03,-301.05 320.55,-281.03"/>
<polygon fill="none" stroke="#404040" points="320.38,-280.87 313.26,-279.7 311.6,-272.68 318.72,-273.85 320.38,-280.87"/>
<text text-anchor="middle" x="357.5" y="-294" font-family="Helvetica,sans-Serif" font-size="10.00"> +bms</text>
</g>
</g>
</svg>
        <g id="navigator" transform="translate(0 0)" fill="#404254">
                <rect fill="#f2f5e9" fill-opacity="0.5" stroke="#606060" stroke-width=".5" x="0" y="0" width="60" height="60"/>
                <use id="zoomplus" xlink:href="#zoomPlus" x="17" y="9" onmousedown="handleZoom(evt,'in')"/>
                <use id="zoomminus" xlink:href="#zoomMin" x="42" y="9" onmousedown="handleZoom(evt,'out')"/>
                <use id="reset" xlink:href="#resetDef" x="30" y="36" onmousedown="handleReset()"/>
                <g id="arrowUp" xlink:href="#dirArrow" transform="translate(30 24)" onmousedown="handlePan(0,-1)">
                  <use xlink:href="#rim" fill="#404040">
                        <set attributeName="fill" to="#808080" begin="arrowUp.mouseover" end="arrowUp.mouseout"/>
                  </use>
                  <path fill="none" stroke="white" stroke-width="1.5" d="M0,-3.0v7 M-2.5,-0.5L0,-3.0L2.5,-0.5"/>
                </g>
                <g id="arrowRight" xlink:href="#dirArrow" transform="rotate(90) translate(36 -43)" onmousedown="handlePan(1,0)">
                  <use xlink:href="#rim" fill="#404040">
                        <set attributeName="fill" to="#808080" begin="arrowRight.mouseover" end="arrowRight.mouseout"/>
                  </use>
                  <path fill="none" stroke="white" stroke-width="1.5" d="M0,-3.0v7 M-2.5,-0.5L0,-3.0L2.5,-0.5"/>
                </g>
                <g id="arrowDown" xlink:href="#dirArrow" transform="rotate(180) translate(-30 -48)" onmousedown="handlePan(0,1)">
                  <use xlink:href="#rim" fill="#404040">
                        <set attributeName="fill" to="#808080" begin="arrowDown.mouseover" end="arrowDown.mouseout"/>
                  </use>
                  <path fill="none" stroke="white" stroke-width="1.5" d="M0,-3.0v7 M-2.5,-0.5L0,-3.0L2.5,-0.5"/>
                </g>
                <g id="arrowLeft" xlink:href="#dirArrow" transform="rotate(270) translate(-36 17)" onmousedown="handlePan(-1,0)">
                  <use xlink:href="#rim" fill="#404040">
                        <set attributeName="fill" to="#808080" begin="arrowLeft.mouseover" end="arrowLeft.mouseout"/>
                  </use>
                  <path fill="none" stroke="white" stroke-width="1.5" d="M0,-3.0v7 M-2.5,-0.5L0,-3.0L2.5,-0.5"/>
                </g>
        </g>
        <svg viewBox="0 0 15 15" width="100%" height="30px" preserveAspectRatio="xMaxYMin meet">
         <g id="arrow_out" transform="scale(0.3 0.3)">
          <a xlink:href="classTelemetry__coll__graph_org.svg" target="_base">
           <rect id="button" ry="5" rx="5" y="6" x="6" height="38" width="38"
                fill="#f2f5e9" fill-opacity="0.5" stroke="#606060" stroke-width="1.0"/>
           <path id="arrow"
             d="M 11.500037,31.436501 C 11.940474,20.09759 22.043105,11.32322 32.158766,21.979434 L 37.068811,17.246167 C 37.068811,17.246167 37.088388,32 37.088388,32 L 22.160133,31.978069 C 22.160133,31.978069 26.997745,27.140456 26.997745,27.140456 C 18.528582,18.264221 13.291696,25.230495 11.500037,31.436501 z"
             style="fill:#404040;"/>
          </a>
         </g>
        </svg>
</svg>
