<?xml version="1.0" encoding="UTF-8" standalone="no"?>
<!DOCTYPE svg PUBLIC "-//W3C//DTD SVG 1.1//EN"
 "http://www.w3.org/Graphics/SVG/1.1/DTD/svg11.dtd">
<!-- Generated by graphviz version 2.43.0 (0)
 -->
<!-- Title: Pedal::sendFrame Pages: 1 -->
<svg width="454pt" height="150pt"
 viewBox="0.00 0.00 454.00 150.00" xmlns="http://www.w3.org/2000/svg" xmlns:xlink="http://www.w3.org/1999/xlink">
<g id="graph0" class="graph" transform="scale(1 1) rotate(0) translate(4 146)">
<title>Pedal::sendFrame</title>
<!-- Node1 -->
<g id="node1" class="node">
<title>Node1</title>
<g id="a_node1"><a xlink:title="Sends the appropriate CAN frame to the motor based on pedal and car state.">
<polygon fill="#999999" stroke="#666666" points="104,-99 0,-99 0,-80 104,-80 104,-99"/>
<text text-anchor="middle" x="52" y="-87" font-family="Helvetica,sans-Serif" font-size="10.00">Pedal::sendFrame</text>
</a>
</g>
</g>
<!-- Node2 -->
<g id="node2" class="node">
<title>Node2</title>
<g id="a_node2"><a xlink:href="Debug_8hpp.html#a9a564faad1bd32a5894d3706e38f1067" target="_top" xlink:title="Prints a line to the serial console for throttle debug.">
<polygon fill="white" stroke="#666666" points="269,-142 162,-142 162,-123 269,-123 269,-142"/>
<text text-anchor="middle" x="215.5" y="-130" font-family="Helvetica,sans-Serif" font-size="10.00">DBGLN_THROTTLE</text>
</a>
</g>
</g>
<!-- Node1&#45;&gt;Node2 -->
<g id="edge1" class="edge">
<title>Node1&#45;&gt;Node2</title>
<path fill="none" stroke="#63b8ff" d="M87.25,-99.12C103.26,-103.56 122.58,-108.88 140,-113.5 148.62,-115.79 157.82,-118.18 166.71,-120.46"/>
<polygon fill="#63b8ff" stroke="#63b8ff" points="166.01,-123.89 176.56,-122.98 167.74,-117.11 166.01,-123.89"/>
</g>
<!-- Node4 -->
<g id="node4" class="node">
<title>Node4</title>
<g id="a_node4"><a xlink:href="classExponentialFilter.html#a598576f308881ed4adeb618e0bf1f75a" target="_top" xlink:title="Retrieves the filtered value from the ExponentialFilter.">
<polygon fill="white" stroke="#666666" points="268,-104.5 163,-104.5 163,-74.5 268,-74.5 268,-104.5"/>
<text text-anchor="start" x="171" y="-92.5" font-family="Helvetica,sans-Serif" font-size="10.00">ExponentialFilter::</text>
<text text-anchor="middle" x="215.5" y="-81.5" font-family="Helvetica,sans-Serif" font-size="10.00">getFiltered</text>
</a>
</g>
</g>
<!-- Node1&#45;&gt;Node4 -->
<g id="edge3" class="edge">
<title>Node1&#45;&gt;Node4</title>
<path fill="none" stroke="#63b8ff" d="M104.1,-89.5C119.49,-89.5 136.55,-89.5 152.56,-89.5"/>
<polygon fill="#63b8ff" stroke="#63b8ff" points="152.9,-93 162.9,-89.5 152.9,-86 152.9,-93"/>
</g>
<!-- Node5 -->
<g id="node5" class="node">
<title>Node5</title>
<g id="a_node5"><a xlink:href="classPedal.html#ae82e0ae8a1a0c6918d43fb27bf8d9d0d" target="_top" xlink:title="Maps the pedal ADC to a torque value. If no braking requested, maps throttle normally....">
<polygon fill="white" stroke="#666666" points="291,-56 140,-56 140,-37 291,-37 291,-56"/>
<text text-anchor="middle" x="215.5" y="-44" font-family="Helvetica,sans-Serif" font-size="10.00">Pedal::pedalTorqueMapping</text>
</a>
</g>
</g>
<!-- Node1&#45;&gt;Node5 -->
<g id="edge4" class="edge">
<title>Node1&#45;&gt;Node5</title>
<path fill="none" stroke="#63b8ff" d="M87.25,-79.88C103.26,-75.44 122.58,-70.12 140,-65.5 148.62,-63.21 157.82,-60.82 166.71,-58.54"/>
<polygon fill="#63b8ff" stroke="#63b8ff" points="167.74,-61.89 176.56,-56.02 166.01,-55.11 167.74,-61.89"/>
</g>
<!-- Node3 -->
<g id="node3" class="node">
<title>Node3</title>
<g id="a_node3"><a xlink:href="namespaceDebug__Serial.html#a756fa9286151426012a6f8e178a6c550" target="_top" xlink:title="Prints a string AND a newline to the serial console.">
<polygon fill="white" stroke="#666666" points="446,-142 327,-142 327,-123 446,-123 446,-142"/>
<text text-anchor="middle" x="386.5" y="-130" font-family="Helvetica,sans-Serif" font-size="10.00">Debug_Serial::println</text>
</a>
</g>
</g>
<!-- Node2&#45;&gt;Node3 -->
<g id="edge2" class="edge">
<title>Node2&#45;&gt;Node3</title>
<path fill="none" stroke="#63b8ff" d="M269.05,-132.5C284.07,-132.5 300.67,-132.5 316.52,-132.5"/>
<polygon fill="#63b8ff" stroke="#63b8ff" points="316.8,-136 326.8,-132.5 316.8,-129 316.8,-136"/>
</g>
<!-- Node6 -->
<g id="node6" class="node">
<title>Node6</title>
<g id="a_node6"><a xlink:href="classLinearInterp.html#a3c1654f4a47bb4db5386e38a8bdd6bc1" target="_top" xlink:title="Performs linear interpolation for the given input value, using the table.">
<polygon fill="white" stroke="#666666" points="441.5,-93 331.5,-93 331.5,-74 441.5,-74 441.5,-93"/>
<text text-anchor="middle" x="386.5" y="-81" font-family="Helvetica,sans-Serif" font-size="10.00">LinearInterp::interp</text>
</a>
</g>
</g>
<!-- Node5&#45;&gt;Node6 -->
<g id="edge5" class="edge">
<title>Node5&#45;&gt;Node6</title>
<path fill="none" stroke="#63b8ff" d="M260.02,-56.03C281.92,-60.82 308.65,-66.68 331.81,-71.75"/>
<polygon fill="#63b8ff" stroke="#63b8ff" points="331.32,-75.22 341.83,-73.94 332.81,-68.38 331.32,-75.22"/>
</g>
<!-- Node7 -->
<g id="node7" class="node">
<title>Node7</title>
<g id="a_node7"><a xlink:href="main_8cpp.html#a22decc8e5af13f6021fb6ad2aaa765be" target="_top" xlink:title=" ">
<polygon fill="white" stroke="#666666" points="408.5,-56 364.5,-56 364.5,-37 408.5,-37 408.5,-56"/>
<text text-anchor="middle" x="386.5" y="-44" font-family="Helvetica,sans-Serif" font-size="10.00">pedal</text>
</a>
</g>
</g>
<!-- Node5&#45;&gt;Node7 -->
<g id="edge6" class="edge">
<title>Node5&#45;&gt;Node7</title>
<path fill="none" stroke="#63b8ff" d="M291.12,-46.5C313.34,-46.5 336.48,-46.5 354.29,-46.5"/>
<polygon fill="#63b8ff" stroke="#63b8ff" points="354.37,-50 364.37,-46.5 354.37,-43 354.37,-50"/>
</g>
<!-- Node8 -->
<g id="node8" class="node">
<title>Node8</title>
<g id="a_node8"><a xlink:href="classLinearInterp.html#ade361a63c34c53564a1bd9e8ae5b6c4b" target="_top" xlink:title="Returns the starting input value of the interpolation table.">
<polygon fill="white" stroke="#666666" points="438.5,-19 334.5,-19 334.5,0 438.5,0 438.5,-19"/>
<text text-anchor="middle" x="386.5" y="-7" font-family="Helvetica,sans-Serif" font-size="10.00">LinearInterp::start</text>
</a>
</g>
</g>
<!-- Node5&#45;&gt;Node8 -->
<g id="edge7" class="edge">
<title>Node5&#45;&gt;Node8</title>
<path fill="none" stroke="#63b8ff" d="M260.02,-36.97C281.92,-32.18 308.65,-26.32 331.81,-21.25"/>
<polygon fill="#63b8ff" stroke="#63b8ff" points="332.81,-24.62 341.83,-19.06 331.32,-17.78 332.81,-24.62"/>
</g>
</g>
</svg>
