<?xml version="1.0" encoding="UTF-8" standalone="no"?>
<!DOCTYPE svg PUBLIC "-//W3C//DTD SVG 1.1//EN"
 "http://www.w3.org/Graphics/SVG/1.1/DTD/svg11.dtd">
<!-- Generated by graphviz version 2.43.0 (0)
 -->
<!-- Title: Pedal::sendFrame Pages: 1 -->
<svg width="463pt" height="64pt"
 viewBox="0.00 0.00 463.00 64.00" xmlns="http://www.w3.org/2000/svg" xmlns:xlink="http://www.w3.org/1999/xlink">
<g id="graph0" class="graph" transform="scale(1 1) rotate(0) translate(4 60)">
<title>Pedal::sendFrame</title>
<!-- Node1 -->
<g id="node1" class="node">
<title>Node1</title>
<g id="a_node1"><a xlink:title="Sends the appropriate CAN frame based on pedal and car state.">
<polygon fill="#999999" stroke="#666666" points="104,-37 0,-37 0,-18 104,-18 104,-37"/>
<text text-anchor="middle" x="52" y="-25" font-family="Helvetica,sans-Serif" font-size="10.00">Pedal::sendFrame</text>
</a>
</g>
</g>
<!-- Node2 -->
<g id="node2" class="node">
<title>Node2</title>
<g id="a_node2"><a xlink:href="Debug_8hpp.html#a9a564faad1bd32a5894d3706e38f1067" target="_top" xlink:title="Prints a line to the serial console for throttle debug.">
<polygon fill="white" stroke="#666666" points="273.5,-56 166.5,-56 166.5,-37 273.5,-37 273.5,-56"/>
<text text-anchor="middle" x="220" y="-44" font-family="Helvetica,sans-Serif" font-size="10.00">DBGLN_THROTTLE</text>
</a>
</g>
</g>
<!-- Node1&#45;&gt;Node2 -->
<g id="edge1" class="edge">
<title>Node1&#45;&gt;Node2</title>
<path fill="none" stroke="#63b8ff" d="M104.16,-33.36C120.64,-35.24 139.1,-37.36 156.32,-39.33"/>
<polygon fill="#63b8ff" stroke="#63b8ff" points="155.96,-42.81 166.29,-40.47 156.75,-35.85 155.96,-42.81"/>
</g>
<!-- Node4 -->
<g id="node4" class="node">
<title>Node4</title>
<g id="a_node4"><a xlink:href="classPedal.html#abef0e8d31dc31884f9944a149c6b8e5a" target="_top" xlink:title="Maps the pedal ADC to a torque value, handling deadzones and faults.">
<polygon fill="white" stroke="#666666" points="300,-19 140,-19 140,0 300,0 300,-19"/>
<text text-anchor="middle" x="220" y="-7" font-family="Helvetica,sans-Serif" font-size="10.00">Pedal::throttleTorqueMapping</text>
</a>
</g>
</g>
<!-- Node1&#45;&gt;Node4 -->
<g id="edge3" class="edge">
<title>Node1&#45;&gt;Node4</title>
<path fill="none" stroke="#63b8ff" d="M104.16,-21.95C112.4,-21.06 121.13,-20.11 129.95,-19.16"/>
<polygon fill="#63b8ff" stroke="#63b8ff" points="130.36,-22.63 139.92,-18.07 129.61,-15.67 130.36,-22.63"/>
</g>
<!-- Node3 -->
<g id="node3" class="node">
<title>Node3</title>
<g id="a_node3"><a xlink:href="namespaceDebug__Serial.html#a756fa9286151426012a6f8e178a6c550" target="_top" xlink:title="Prints a string AND a newline to the serial console.">
<polygon fill="white" stroke="#666666" points="455,-56 336,-56 336,-37 455,-37 455,-56"/>
<text text-anchor="middle" x="395.5" y="-44" font-family="Helvetica,sans-Serif" font-size="10.00">Debug_Serial::println</text>
</a>
</g>
</g>
<!-- Node2&#45;&gt;Node3 -->
<g id="edge2" class="edge">
<title>Node2&#45;&gt;Node3</title>
<path fill="none" stroke="#63b8ff" d="M273.53,-46.5C289.95,-46.5 308.33,-46.5 325.7,-46.5"/>
<polygon fill="#63b8ff" stroke="#63b8ff" points="325.78,-50 335.78,-46.5 325.78,-43 325.78,-50"/>
</g>
</g>
</svg>
