<?xml version="1.0" encoding="UTF-8" standalone="no"?>
<!DOCTYPE svg PUBLIC "-//W3C//DTD SVG 1.1//EN"
 "http://www.w3.org/Graphics/SVG/1.1/DTD/svg11.dtd">
<!-- Generated by graphviz version 2.43.0 (0)
 -->
<!-- Title: Pedal::pedal_update Pages: 1 -->
<svg width="608pt" height="167pt"
 viewBox="0.00 0.00 608.00 166.50" xmlns="http://www.w3.org/2000/svg" xmlns:xlink="http://www.w3.org/1999/xlink">
<g id="graph0" class="graph" transform="scale(1 1) rotate(0) translate(4 162.5)">
<title>Pedal::pedal_update</title>
<!-- Node1 -->
<g id="node1" class="node">
<title>Node1</title>
<g id="a_node1"><a xlink:title="Updates pedal sensor readings, applies filtering, and checks for faults.">
<polygon fill="#999999" stroke="#666666" points="116,-62 0,-62 0,-43 116,-43 116,-62"/>
<text text-anchor="middle" x="58" y="-50" font-family="Helvetica,sans-Serif" font-size="10.00">Pedal::pedal_update</text>
</a>
</g>
</g>
<!-- Node2 -->
<g id="node2" class="node">
<title>Node2</title>
<g id="a_node2"><a xlink:href="classPedal.html#abdd53f9de825d4925aa7707ddaaa1fa9" target="_top" xlink:title="Checks for a fault between two pedal sensor readings.">
<polygon fill="white" stroke="#666666" points="262,-67.5 152,-67.5 152,-37.5 262,-37.5 262,-67.5"/>
<text text-anchor="start" x="160" y="-55.5" font-family="Helvetica,sans-Serif" font-size="10.00">Pedal::check_pedal</text>
<text text-anchor="middle" x="207" y="-44.5" font-family="Helvetica,sans-Serif" font-size="10.00">_fault</text>
</a>
</g>
</g>
<!-- Node1&#45;&gt;Node2 -->
<g id="edge1" class="edge">
<title>Node1&#45;&gt;Node2</title>
<path fill="none" stroke="#63b8ff" d="M116.25,-52.5C124.51,-52.5 133.05,-52.5 141.43,-52.5"/>
<polygon fill="#63b8ff" stroke="#63b8ff" points="141.55,-56 151.55,-52.5 141.55,-49 141.55,-56"/>
</g>
<!-- Node3 -->
<g id="node3" class="node">
<title>Node3</title>
<g id="a_node3"><a xlink:href="Debug_8h.html#a27a4d84e5afbe5f46066606c2cfcd97d" target="_top" xlink:title="Sends throttle fault debug info via CAN or serial (if enabled). Overloads for fault status with or wi...">
<polygon fill="white" stroke="#666666" points="427,-105 298,-105 298,-86 427,-86 427,-105"/>
<text text-anchor="middle" x="362.5" y="-93" font-family="Helvetica,sans-Serif" font-size="10.00">DBG_THROTTLE_FAULT</text>
</a>
</g>
</g>
<!-- Node1&#45;&gt;Node3 -->
<g id="edge8" class="edge">
<title>Node1&#45;&gt;Node3</title>
<path fill="none" stroke="#63b8ff" d="M90.57,-62.01C108.45,-67.04 131.3,-72.91 152,-76.5 196.78,-84.26 247.54,-88.96 287.87,-91.75"/>
<polygon fill="#63b8ff" stroke="#63b8ff" points="287.68,-95.24 297.89,-92.42 288.15,-88.26 287.68,-95.24"/>
</g>
<!-- Node9 -->
<g id="node9" class="node">
<title>Node9</title>
<g id="a_node9"><a xlink:href="classRingBuffer.html#ad30671837bc9ec407735ecedaeabf36c" target="_top" xlink:title="Pushes a new value into the ring buffer. This will overwrite the oldest value if the buffer is full.">
<polygon fill="white" stroke="#666666" points="255.5,-19 158.5,-19 158.5,0 255.5,0 255.5,-19"/>
<text text-anchor="middle" x="207" y="-7" font-family="Helvetica,sans-Serif" font-size="10.00">RingBuffer::push</text>
</a>
</g>
</g>
<!-- Node1&#45;&gt;Node9 -->
<g id="edge9" class="edge">
<title>Node1&#45;&gt;Node9</title>
<path fill="none" stroke="#63b8ff" d="M91.62,-42.96C112.84,-36.75 140.73,-28.59 163.65,-21.89"/>
<polygon fill="#63b8ff" stroke="#63b8ff" points="164.85,-25.18 173.47,-19.02 162.89,-18.46 164.85,-25.18"/>
</g>
<!-- Node2&#45;&gt;Node3 -->
<g id="edge2" class="edge">
<title>Node2&#45;&gt;Node3</title>
<path fill="none" stroke="#63b8ff" d="M261.69,-67.54C279.9,-72.64 300.02,-78.28 317.4,-83.15"/>
<polygon fill="#63b8ff" stroke="#63b8ff" points="316.7,-86.59 327.28,-85.91 318.59,-79.85 316.7,-86.59"/>
</g>
<!-- Node6 -->
<g id="node6" class="node">
<title>Node6</title>
<g id="a_node6"><a xlink:href="Debug_8h.html#afa1e089b7149386f290d4ebb4d373bf6" target="_top" xlink:title="Sends throttle pedal input debug info via CAN or serial (if enabled).">
<polygon fill="white" stroke="#666666" points="417.5,-62 307.5,-62 307.5,-43 417.5,-43 417.5,-62"/>
<text text-anchor="middle" x="362.5" y="-50" font-family="Helvetica,sans-Serif" font-size="10.00">DBG_THROTTLE_IN</text>
</a>
</g>
</g>
<!-- Node2&#45;&gt;Node6 -->
<g id="edge5" class="edge">
<title>Node2&#45;&gt;Node6</title>
<path fill="none" stroke="#63b8ff" d="M262.12,-52.5C273.47,-52.5 285.54,-52.5 297.22,-52.5"/>
<polygon fill="#63b8ff" stroke="#63b8ff" points="297.35,-56 307.35,-52.5 297.35,-49 297.35,-56"/>
</g>
<!-- Node4 -->
<g id="node4" class="node">
<title>Node4</title>
<g id="a_node4"><a xlink:href="namespaceDebug__CAN.html#a8e6443068f8aa21ba673ad7bc132e739" target="_top" xlink:title="Sends a debug throttle fault message over CAN. This function prepares a CAN frame with the throttle f...">
<polygon fill="white" stroke="#666666" points="589.5,-158.5 473.5,-158.5 473.5,-128.5 589.5,-128.5 589.5,-158.5"/>
<text text-anchor="start" x="481.5" y="-146.5" font-family="Helvetica,sans-Serif" font-size="10.00">Debug_CAN::throttle</text>
<text text-anchor="middle" x="531.5" y="-135.5" font-family="Helvetica,sans-Serif" font-size="10.00">_fault</text>
</a>
</g>
</g>
<!-- Node3&#45;&gt;Node4 -->
<g id="edge3" class="edge">
<title>Node3&#45;&gt;Node4</title>
<path fill="none" stroke="#63b8ff" d="M396.89,-105.1C417.31,-110.97 444.06,-118.65 468.26,-125.61"/>
<polygon fill="#63b8ff" stroke="#63b8ff" points="467.52,-129.04 478.09,-128.44 469.45,-122.31 467.52,-129.04"/>
</g>
<!-- Node5 -->
<g id="node5" class="node">
<title>Node5</title>
<g id="a_node5"><a xlink:href="namespaceDebug__Serial.html#aa73ff8f930647f4c70741b4e50ef6a5d" target="_top" xlink:title="Prints a throttle fault message to the serial console. This function formats and sends the throttle f...">
<polygon fill="white" stroke="#666666" points="593,-110.5 470,-110.5 470,-80.5 593,-80.5 593,-110.5"/>
<text text-anchor="start" x="478" y="-98.5" font-family="Helvetica,sans-Serif" font-size="10.00">Debug_Serial::throttle</text>
<text text-anchor="middle" x="531.5" y="-87.5" font-family="Helvetica,sans-Serif" font-size="10.00">_fault</text>
</a>
</g>
</g>
<!-- Node3&#45;&gt;Node5 -->
<g id="edge4" class="edge">
<title>Node3&#45;&gt;Node5</title>
<path fill="none" stroke="#63b8ff" d="M427.11,-95.5C437.73,-95.5 448.8,-95.5 459.59,-95.5"/>
<polygon fill="#63b8ff" stroke="#63b8ff" points="459.82,-99 469.82,-95.5 459.82,-92 459.82,-99"/>
</g>
<!-- Node7 -->
<g id="node7" class="node">
<title>Node7</title>
<g id="a_node7"><a xlink:href="namespaceDebug__CAN.html#a5c26a2303b6fa92439c0a693728d760e" target="_top" xlink:title="Sends a debug throttle input message over CAN. This function prepares a CAN frame with the throttle i...">
<polygon fill="white" stroke="#666666" points="597,-62 466,-62 466,-43 597,-43 597,-62"/>
<text text-anchor="middle" x="531.5" y="-50" font-family="Helvetica,sans-Serif" font-size="10.00">Debug_CAN::throttle_in</text>
</a>
</g>
</g>
<!-- Node6&#45;&gt;Node7 -->
<g id="edge6" class="edge">
<title>Node6&#45;&gt;Node7</title>
<path fill="none" stroke="#63b8ff" d="M417.72,-52.5C429.82,-52.5 442.86,-52.5 455.62,-52.5"/>
<polygon fill="#63b8ff" stroke="#63b8ff" points="455.78,-56 465.78,-52.5 455.78,-49 455.78,-56"/>
</g>
<!-- Node8 -->
<g id="node8" class="node">
<title>Node8</title>
<g id="a_node8"><a xlink:href="namespaceDebug__Serial.html#a9e68fe4f00e7b1bf1a9c2addc2222a9b" target="_top" xlink:title="Prints a throttle input message to the serial console. This function formats and sends the throttle i...">
<polygon fill="white" stroke="#666666" points="600,-25 463,-25 463,-6 600,-6 600,-25"/>
<text text-anchor="middle" x="531.5" y="-13" font-family="Helvetica,sans-Serif" font-size="10.00">Debug_Serial::throttle_in</text>
</a>
</g>
</g>
<!-- Node6&#45;&gt;Node8 -->
<g id="edge7" class="edge">
<title>Node6&#45;&gt;Node8</title>
<path fill="none" stroke="#63b8ff" d="M406.51,-42.97C428.14,-38.18 454.56,-32.32 477.45,-27.25"/>
<polygon fill="#63b8ff" stroke="#63b8ff" points="478.34,-30.64 487.35,-25.06 476.83,-23.81 478.34,-30.64"/>
</g>
</g>
</svg>
