<?xml version="1.0" encoding="UTF-8" standalone="no"?>
<!DOCTYPE svg PUBLIC "-//W3C//DTD SVG 1.1//EN"
 "http://www.w3.org/Graphics/SVG/1.1/DTD/svg11.dtd">
<!-- Generated by graphviz version 2.43.0 (0)
 -->
<!-- Title: Filter&lt; TypeInput, TypeMid &gt; Pages: 1 -->
<svg width="455pt" height="226pt"
 viewBox="0.00 0.00 454.50 226.00" xmlns="http://www.w3.org/2000/svg" xmlns:xlink="http://www.w3.org/1999/xlink">
<g id="graph0" class="graph" transform="scale(1 1) rotate(0) translate(4 222)">
<title>Filter&lt; TypeInput, TypeMid &gt;</title>
<!-- Node1 -->
<g id="node1" class="node">
<title>Node1</title>
<g id="a_node1"><a xlink:title="Abstract Base Class for signal filters. Defines the interface for adding samples and retrieving filte...">
<polygon fill="#999999" stroke="#666666" points="156.5,-138.5 156.5,-217.5 259.5,-217.5 259.5,-138.5 156.5,-138.5"/>
<text text-anchor="start" x="164.5" y="-205.5" font-family="Helvetica,sans-Serif" font-size="10.00">Filter&lt; TypeInput,</text>
<text text-anchor="middle" x="208" y="-194.5" font-family="Helvetica,sans-Serif" font-size="10.00"> TypeMid &gt;</text>
<polyline fill="none" stroke="#666666" points="156.5,-187.5 259.5,-187.5 "/>
<text text-anchor="middle" x="208" y="-175.5" font-family="Helvetica,sans-Serif" font-size="10.00"> </text>
<polyline fill="none" stroke="#666666" points="156.5,-168.5 259.5,-168.5 "/>
<text text-anchor="start" x="164.5" y="-156.5" font-family="Helvetica,sans-Serif" font-size="10.00">+ addSample()</text>
<text text-anchor="start" x="164.5" y="-145.5" font-family="Helvetica,sans-Serif" font-size="10.00">+ getFiltered()</text>
</a>
</g>
</g>
<!-- Node2 -->
<g id="node2" class="node">
<title>Node2</title>
<g id="a_node2"><a xlink:href="classExponentialFilter.html" target="_top" xlink:title=" ">
<polygon fill="white" stroke="#666666" points="0,-6 0,-96 118,-96 118,-6 0,-6"/>
<text text-anchor="start" x="8" y="-84" font-family="Helvetica,sans-Serif" font-size="10.00">ExponentialFilter&lt;</text>
<text text-anchor="middle" x="59" y="-73" font-family="Helvetica,sans-Serif" font-size="10.00"> uint16_t, uint16_t &gt;</text>
<polyline fill="none" stroke="#666666" points="0,-66 118,-66 "/>
<text text-anchor="start" x="8" y="-54" font-family="Helvetica,sans-Serif" font-size="10.00">&#45; last_out</text>
<polyline fill="none" stroke="#666666" points="0,-47 118,-47 "/>
<text text-anchor="start" x="8" y="-35" font-family="Helvetica,sans-Serif" font-size="10.00">+ ExponentialFilter()</text>
<text text-anchor="start" x="8" y="-24" font-family="Helvetica,sans-Serif" font-size="10.00">+ addSample()</text>
<text text-anchor="start" x="8" y="-13" font-family="Helvetica,sans-Serif" font-size="10.00">+ getFiltered()</text>
</a>
</g>
</g>
<!-- Node1&#45;&gt;Node2 -->
<g id="edge1" class="edge">
<title>Node1&#45;&gt;Node2</title>
<path fill="none" stroke="#63b8ff" d="M154.06,-131.75C140.21,-120.13 125.32,-107.64 111.54,-96.08"/>
<polygon fill="none" stroke="#63b8ff" points="152.17,-134.73 162.08,-138.48 156.67,-129.37 152.17,-134.73"/>
</g>
<!-- Node3 -->
<g id="node3" class="node">
<title>Node3</title>
<g id="a_node3"><a xlink:href="classAverageFilter.html" target="_top" xlink:title="Filter with simple moving average algorithm.">
<polygon fill="white" stroke="#666666" points="136.5,-0.5 136.5,-101.5 279.5,-101.5 279.5,-0.5 136.5,-0.5"/>
<text text-anchor="start" x="144.5" y="-89.5" font-family="Helvetica,sans-Serif" font-size="10.00">AverageFilter&lt; TypeInput,</text>
<text text-anchor="middle" x="208" y="-78.5" font-family="Helvetica,sans-Serif" font-size="10.00"> TypeMid, SIZE &gt;</text>
<polyline fill="none" stroke="#666666" points="136.5,-71.5 279.5,-71.5 "/>
<text text-anchor="start" x="144.5" y="-59.5" font-family="Helvetica,sans-Serif" font-size="10.00">&#45; buffer</text>
<text text-anchor="start" x="144.5" y="-48.5" font-family="Helvetica,sans-Serif" font-size="10.00">&#45; index</text>
<polyline fill="none" stroke="#666666" points="136.5,-41.5 279.5,-41.5 "/>
<text text-anchor="start" x="144.5" y="-29.5" font-family="Helvetica,sans-Serif" font-size="10.00">+ AverageFilter()</text>
<text text-anchor="start" x="144.5" y="-18.5" font-family="Helvetica,sans-Serif" font-size="10.00">+ addSample()</text>
<text text-anchor="start" x="144.5" y="-7.5" font-family="Helvetica,sans-Serif" font-size="10.00">+ getFiltered()</text>
</a>
</g>
</g>
<!-- Node1&#45;&gt;Node3 -->
<g id="edge2" class="edge">
<title>Node1&#45;&gt;Node3</title>
<path fill="none" stroke="#63b8ff" d="M208,-128.41C208,-119.64 208,-110.49 208,-101.69"/>
<polygon fill="none" stroke="#63b8ff" points="204.5,-128.48 208,-138.48 211.5,-128.48 204.5,-128.48"/>
</g>
<!-- Node4 -->
<g id="node4" class="node">
<title>Node4</title>
<g id="a_node4"><a xlink:href="classExponentialFilter.html" target="_top" xlink:title="Filter with exponential moving average algorithm.">
<polygon fill="white" stroke="#666666" points="297.5,-0.5 297.5,-101.5 446.5,-101.5 446.5,-0.5 297.5,-0.5"/>
<text text-anchor="start" x="305.5" y="-89.5" font-family="Helvetica,sans-Serif" font-size="10.00">ExponentialFilter&lt;</text>
<text text-anchor="start" x="305.5" y="-78.5" font-family="Helvetica,sans-Serif" font-size="10.00"> TypeInput, TypeMid,</text>
<text text-anchor="middle" x="372" y="-67.5" font-family="Helvetica,sans-Serif" font-size="10.00"> OLD_RATIO, NEW_RATIO &gt;</text>
<polyline fill="none" stroke="#666666" points="297.5,-60.5 446.5,-60.5 "/>
<text text-anchor="start" x="305.5" y="-48.5" font-family="Helvetica,sans-Serif" font-size="10.00">&#45; last_out</text>
<polyline fill="none" stroke="#666666" points="297.5,-41.5 446.5,-41.5 "/>
<text text-anchor="start" x="305.5" y="-29.5" font-family="Helvetica,sans-Serif" font-size="10.00">+ ExponentialFilter()</text>
<text text-anchor="start" x="305.5" y="-18.5" font-family="Helvetica,sans-Serif" font-size="10.00">+ addSample()</text>
<text text-anchor="start" x="305.5" y="-7.5" font-family="Helvetica,sans-Serif" font-size="10.00">+ getFiltered()</text>
</a>
</g>
</g>
<!-- Node1&#45;&gt;Node4 -->
<g id="edge3" class="edge">
<title>Node1&#45;&gt;Node4</title>
<path fill="none" stroke="#63b8ff" d="M266.54,-132.38C279.59,-122.43 293.51,-111.83 306.81,-101.69"/>
<polygon fill="none" stroke="#63b8ff" points="264.38,-129.63 258.54,-138.48 268.62,-135.2 264.38,-129.63"/>
</g>
</g>
</svg>
