<?xml version="1.0" encoding="UTF-8" standalone="no"?>
<!DOCTYPE svg PUBLIC "-//W3C//DTD SVG 1.1//EN"
 "http://www.w3.org/Graphics/SVG/1.1/DTD/svg11.dtd">
<!-- Generated by graphviz version 2.43.0 (0)
 -->
<!-- Title: Pedal::throttleTorqueMapping Pages: 1 -->
<svg width="501pt" height="103pt"
 viewBox="0.00 0.00 501.00 103.00" xmlns="http://www.w3.org/2000/svg" xmlns:xlink="http://www.w3.org/1999/xlink">
<g id="graph0" class="graph" transform="scale(1 1) rotate(0) translate(4 99)">
<title>Pedal::throttleTorqueMapping</title>
<!-- Node1 -->
<g id="node1" class="node">
<title>Node1</title>
<g id="a_node1"><a xlink:title="Maps the pedal ADC to a torque value, handling deadzones and faults.">
<polygon fill="#999999" stroke="#666666" points="160,-57 0,-57 0,-38 160,-38 160,-57"/>
<text text-anchor="middle" x="80" y="-45" font-family="Helvetica,sans-Serif" font-size="10.00">Pedal::throttleTorqueMapping</text>
</a>
</g>
</g>
<!-- Node2 -->
<g id="node2" class="node">
<title>Node2</title>
<g id="a_node2"><a xlink:href="classPedal.html#a1dab9adf93f55a5d4477a840a794c0a1" target="_top" xlink:title="Maps the brake ADC to a torque value.">
<polygon fill="white" stroke="#666666" points="347,-95 196,-95 196,-76 347,-76 347,-95"/>
<text text-anchor="middle" x="271.5" y="-83" font-family="Helvetica,sans-Serif" font-size="10.00">Pedal::brakeTorqueMapping</text>
</a>
</g>
</g>
<!-- Node1&#45;&gt;Node2 -->
<g id="edge1" class="edge">
<title>Node1&#45;&gt;Node2</title>
<path fill="none" stroke="#63b8ff" d="M128.82,-57.09C154.39,-62.22 186.06,-68.57 212.97,-73.96"/>
<polygon fill="#63b8ff" stroke="#63b8ff" points="212.53,-77.45 223.03,-75.98 213.91,-70.58 212.53,-77.45"/>
</g>
<!-- Node3 -->
<g id="node3" class="node">
<title>Node3</title>
<g id="a_node3"><a xlink:href="classLinearInterp.html#a3c1654f4a47bb4db5386e38a8bdd6bc1" target="_top" xlink:title=" ">
<polygon fill="white" stroke="#666666" points="493,-76 383,-76 383,-57 493,-57 493,-76"/>
<text text-anchor="middle" x="438" y="-64" font-family="Helvetica,sans-Serif" font-size="10.00">LinearInterp::interp</text>
</a>
</g>
</g>
<!-- Node1&#45;&gt;Node3 -->
<g id="edge3" class="edge">
<title>Node1&#45;&gt;Node3</title>
<path fill="none" stroke="#63b8ff" d="M160.01,-51.72C224.01,-55.13 313.04,-59.88 372.72,-63.07"/>
<polygon fill="#63b8ff" stroke="#63b8ff" points="372.6,-66.57 382.78,-63.61 372.98,-59.58 372.6,-66.57"/>
</g>
<!-- Node4 -->
<g id="node4" class="node">
<title>Node4</title>
<g id="a_node4"><a xlink:href="classLinearInterp.html#ade361a63c34c53564a1bd9e8ae5b6c4b" target="_top" xlink:title=" ">
<polygon fill="white" stroke="#666666" points="323.5,-19 219.5,-19 219.5,0 323.5,0 323.5,-19"/>
<text text-anchor="middle" x="271.5" y="-7" font-family="Helvetica,sans-Serif" font-size="10.00">LinearInterp::start</text>
</a>
</g>
</g>
<!-- Node1&#45;&gt;Node4 -->
<g id="edge4" class="edge">
<title>Node1&#45;&gt;Node4</title>
<path fill="none" stroke="#63b8ff" d="M128.82,-37.91C154.39,-32.78 186.06,-26.43 212.97,-21.04"/>
<polygon fill="#63b8ff" stroke="#63b8ff" points="213.91,-24.42 223.03,-19.02 212.53,-17.55 213.91,-24.42"/>
</g>
<!-- Node2&#45;&gt;Node3 -->
<g id="edge2" class="edge">
<title>Node2&#45;&gt;Node3</title>
<path fill="none" stroke="#63b8ff" d="M347.05,-76.89C355.63,-75.9 364.33,-74.89 372.76,-73.92"/>
<polygon fill="#63b8ff" stroke="#63b8ff" points="373.35,-77.38 382.88,-72.75 372.54,-70.42 373.35,-77.38"/>
</g>
</g>
</svg>
