<?xml version="1.0" encoding="UTF-8" standalone="no"?>
<!DOCTYPE svg PUBLIC "-//W3C//DTD SVG 1.1//EN"
 "http://www.w3.org/Graphics/SVG/1.1/DTD/svg11.dtd">
<!-- Generated by graphviz version 2.43.0 (0)
 -->
<!-- Title: Telemetry::sendTelemetry Pages: 1 -->
<svg width="494pt" height="134pt"
 viewBox="0.00 0.00 494.00 134.00" xmlns="http://www.w3.org/2000/svg" xmlns:xlink="http://www.w3.org/1999/xlink">
<g id="graph0" class="graph" transform="scale(1 1) rotate(0) translate(4 130)">
<title>Telemetry::sendTelemetry</title>
<!-- Node1 -->
<g id="node1" class="node">
<title>Node1</title>
<g id="a_node1"><a xlink:title="Sends telemetry data based on the scheduling logic.">
<polygon fill="#999999" stroke="#666666" points="143,-72.5 0,-72.5 0,-53.5 143,-53.5 143,-72.5"/>
<text text-anchor="middle" x="71.5" y="-60.5" font-family="Helvetica,sans-Serif" font-size="10.00">Telemetry::sendTelemetry</text>
</a>
</g>
</g>
<!-- Node2 -->
<g id="node2" class="node">
<title>Node2</title>
<g id="a_node2"><a xlink:href="classTelemetry.html#a25e2add208dc38e8a1f4e453db89d7f6" target="_top" xlink:title="Internal helper to get and send the BMS telemetry frame.">
<polygon fill="white" stroke="#666666" points="322,-114.5 182,-114.5 182,-95.5 322,-95.5 322,-114.5"/>
<text text-anchor="middle" x="252" y="-102.5" font-family="Helvetica,sans-Serif" font-size="10.00">Telemetry::schedulerBms</text>
</a>
</g>
</g>
<!-- Node1&#45;&gt;Node2 -->
<g id="edge1" class="edge">
<title>Node1&#45;&gt;Node2</title>
<path fill="none" stroke="#63b8ff" d="M113,-72.53C138.93,-78.63 172.77,-86.59 200.45,-93.11"/>
<polygon fill="#63b8ff" stroke="#63b8ff" points="199.81,-96.55 210.35,-95.43 201.41,-89.74 199.81,-96.55"/>
</g>
<!-- Node4 -->
<g id="node4" class="node">
<title>Node4</title>
<g id="a_node4"><a xlink:href="classTelemetry.html#a92acf8de276b3b8ded45d44b97ddd13c" target="_top" xlink:title="Internal helper to get and send the motor telemetry frame.">
<polygon fill="white" stroke="#666666" points="325,-72.5 179,-72.5 179,-53.5 325,-53.5 325,-72.5"/>
<text text-anchor="middle" x="252" y="-60.5" font-family="Helvetica,sans-Serif" font-size="10.00">Telemetry::schedulerMotor</text>
</a>
</g>
</g>
<!-- Node1&#45;&gt;Node4 -->
<g id="edge3" class="edge">
<title>Node1&#45;&gt;Node4</title>
<path fill="none" stroke="#63b8ff" d="M143.05,-63C151.52,-63 160.23,-63 168.86,-63"/>
<polygon fill="#63b8ff" stroke="#63b8ff" points="168.92,-66.5 178.92,-63 168.92,-59.5 168.92,-66.5"/>
</g>
<!-- Node6 -->
<g id="node6" class="node">
<title>Node6</title>
<g id="a_node6"><a xlink:href="classTelemetry.html#ae0589db13eb47fa620f8fc8d9fd0f8be" target="_top" xlink:title="Internal helper to get and send the Pedal telemetry frame.">
<polygon fill="white" stroke="#666666" points="324.5,-30.5 179.5,-30.5 179.5,-11.5 324.5,-11.5 324.5,-30.5"/>
<text text-anchor="middle" x="252" y="-18.5" font-family="Helvetica,sans-Serif" font-size="10.00">Telemetry::schedulerPedal</text>
</a>
</g>
</g>
<!-- Node1&#45;&gt;Node6 -->
<g id="edge5" class="edge">
<title>Node1&#45;&gt;Node6</title>
<path fill="none" stroke="#63b8ff" d="M113,-53.47C138.93,-47.37 172.77,-39.41 200.45,-32.89"/>
<polygon fill="#63b8ff" stroke="#63b8ff" points="201.41,-36.26 210.35,-30.57 199.81,-29.45 201.41,-36.26"/>
</g>
<!-- Node3 -->
<g id="node3" class="node">
<title>Node3</title>
<g id="a_node3"><a xlink:href="structTelemetryFrameBms.html#a6b03b160b930c3a40a06e99f6e6cb175" target="_top" xlink:title="Converts the TelemetryFrameBms to a CAN frame.">
<polygon fill="white" stroke="#666666" points="485.5,-126 361.5,-126 361.5,-96 485.5,-96 485.5,-126"/>
<text text-anchor="start" x="369.5" y="-114" font-family="Helvetica,sans-Serif" font-size="10.00">TelemetryFrameBms::</text>
<text text-anchor="middle" x="423.5" y="-103" font-family="Helvetica,sans-Serif" font-size="10.00">toCanFrame</text>
</a>
</g>
</g>
<!-- Node2&#45;&gt;Node3 -->
<g id="edge2" class="edge">
<title>Node2&#45;&gt;Node3</title>
<path fill="none" stroke="#63b8ff" d="M322.43,-107.46C331.9,-107.79 341.63,-108.14 351.13,-108.47"/>
<polygon fill="#63b8ff" stroke="#63b8ff" points="351.21,-111.98 361.32,-108.83 351.45,-104.98 351.21,-111.98"/>
</g>
<!-- Node5 -->
<g id="node5" class="node">
<title>Node5</title>
<g id="a_node5"><a xlink:href="structTelemetryFrameMotor.html#a34bcb5a8f27caa3a1098c35c051236aa" target="_top" xlink:title="Converts the TelemetryFrameMotor to a CAN frame.">
<polygon fill="white" stroke="#666666" points="486,-78 361,-78 361,-48 486,-48 486,-78"/>
<text text-anchor="start" x="369" y="-66" font-family="Helvetica,sans-Serif" font-size="10.00">TelemetryFrameMotor</text>
<text text-anchor="middle" x="423.5" y="-55" font-family="Helvetica,sans-Serif" font-size="10.00">::toCanFrame</text>
</a>
</g>
</g>
<!-- Node4&#45;&gt;Node5 -->
<g id="edge4" class="edge">
<title>Node4&#45;&gt;Node5</title>
<path fill="none" stroke="#63b8ff" d="M325.37,-63C333.75,-63 342.3,-63 350.67,-63"/>
<polygon fill="#63b8ff" stroke="#63b8ff" points="350.78,-66.5 360.78,-63 350.78,-59.5 350.78,-66.5"/>
</g>
<!-- Node7 -->
<g id="node7" class="node">
<title>Node7</title>
<g id="a_node7"><a xlink:href="structTelemetryFramePedal.html#af36459761c019b01b84e3844f8c38f49" target="_top" xlink:title="Converts the TelemetryFramePedal to a CAN frame.">
<polygon fill="white" stroke="#666666" points="485,-30 362,-30 362,0 485,0 485,-30"/>
<text text-anchor="start" x="370" y="-18" font-family="Helvetica,sans-Serif" font-size="10.00">TelemetryFramePedal</text>
<text text-anchor="middle" x="423.5" y="-7" font-family="Helvetica,sans-Serif" font-size="10.00">::toCanFrame</text>
</a>
</g>
</g>
<!-- Node6&#45;&gt;Node7 -->
<g id="edge6" class="edge">
<title>Node6&#45;&gt;Node7</title>
<path fill="none" stroke="#63b8ff" d="M324.88,-18.46C333.7,-18.14 342.71,-17.82 351.52,-17.51"/>
<polygon fill="#63b8ff" stroke="#63b8ff" points="351.87,-21 361.74,-17.15 351.62,-14.01 351.87,-21"/>
</g>
</g>
</svg>
