<?xml version="1.0" encoding="UTF-8" standalone="no"?>
<!DOCTYPE svg PUBLIC "-//W3C//DTD SVG 1.1//EN"
 "http://www.w3.org/Graphics/SVG/1.1/DTD/svg11.dtd">
<!-- Generated by graphviz version 2.43.0 (0)
 -->
<!-- Title: LinearInterp::interp Pages: 1 -->
<svg width="657pt" height="64pt"
 viewBox="0.00 0.00 657.00 64.00" xmlns="http://www.w3.org/2000/svg" xmlns:xlink="http://www.w3.org/1999/xlink">
<g id="graph0" class="graph" transform="scale(1 1) rotate(0) translate(4 60)">
<title>LinearInterp::interp</title>
<!-- Node1 -->
<g id="node1" class="node">
<title>Node1</title>
<g id="a_node1"><a xlink:title="Performs linear interpolation for the given input value, using the table.">
<polygon fill="#999999" stroke="#666666" points="649,-37 539,-37 539,-18 649,-18 649,-37"/>
<text text-anchor="middle" x="594" y="-25" font-family="Helvetica,sans-Serif" font-size="10.00">LinearInterp::interp</text>
</a>
</g>
</g>
<!-- Node2 -->
<g id="node2" class="node">
<title>Node2</title>
<g id="a_node2"><a xlink:href="classPedal.html#a4025bb96ea422dbba6d3b604a1066bc7" target="_top" xlink:title="Checks for a fault between two pedal sensor readings.">
<polygon fill="white" stroke="#666666" points="491.5,-56 363.5,-56 363.5,-37 491.5,-37 491.5,-56"/>
<text text-anchor="middle" x="427.5" y="-44" font-family="Helvetica,sans-Serif" font-size="10.00">Pedal::checkPedalFault</text>
</a>
</g>
</g>
<!-- Node1&#45;&gt;Node2 -->
<g id="edge1" class="edge">
<title>Node1&#45;&gt;Node2</title>
<path fill="none" stroke="#63b8ff" d="M528.61,-34.94C516.45,-36.34 503.73,-37.81 491.6,-39.21"/>
<polygon fill="#63b8ff" stroke="#63b8ff" points="529.15,-38.4 538.68,-33.77 528.35,-31.44 529.15,-38.4"/>
</g>
<!-- Node5 -->
<g id="node5" class="node">
<title>Node5</title>
<g id="a_node5"><a xlink:href="classPedal.html#ae82e0ae8a1a0c6918d43fb27bf8d9d0d" target="_top" xlink:title="Maps the pedal ADC to a torque value. If no braking requested, maps throttle normally....">
<polygon fill="white" stroke="#666666" points="503,-19 352,-19 352,0 503,0 503,-19"/>
<text text-anchor="middle" x="427.5" y="-7" font-family="Helvetica,sans-Serif" font-size="10.00">Pedal::pedalTorqueMapping</text>
</a>
</g>
</g>
<!-- Node1&#45;&gt;Node5 -->
<g id="edge4" class="edge">
<title>Node1&#45;&gt;Node5</title>
<path fill="none" stroke="#63b8ff" d="M528.6,-20.45C520.21,-19.54 511.56,-18.59 503.02,-17.65"/>
<polygon fill="#63b8ff" stroke="#63b8ff" points="528.36,-23.95 538.68,-21.56 529.12,-16.99 528.36,-23.95"/>
</g>
<!-- Node3 -->
<g id="node3" class="node">
<title>Node3</title>
<g id="a_node3"><a xlink:href="classPedal.html#a0ec014fb5ce414deded33ae3db05e231" target="_top" xlink:title="Updates pedal sensor readings, applies filtering, and checks for faults.">
<polygon fill="white" stroke="#666666" points="305.5,-56 222.5,-56 222.5,-37 305.5,-37 305.5,-56"/>
<text text-anchor="middle" x="264" y="-44" font-family="Helvetica,sans-Serif" font-size="10.00">Pedal::update</text>
</a>
</g>
</g>
<!-- Node2&#45;&gt;Node3 -->
<g id="edge2" class="edge">
<title>Node2&#45;&gt;Node3</title>
<path fill="none" stroke="#63b8ff" d="M353.1,-46.5C336.87,-46.5 320.24,-46.5 305.86,-46.5"/>
<polygon fill="#63b8ff" stroke="#63b8ff" points="353.13,-50 363.13,-46.5 353.13,-43 353.13,-50"/>
</g>
<!-- Node4 -->
<g id="node4" class="node">
<title>Node4</title>
<g id="a_node4"><a xlink:href="main_8cpp.html#afe461d27b9c48d5921c00d521181f12f" target="_top" xlink:title="Main loop function for the VCU system. Handles car state transitions, pipes dataflow between modules.">
<polygon fill="white" stroke="#666666" points="147,-56 109,-56 109,-37 147,-37 147,-56"/>
<text text-anchor="middle" x="128" y="-44" font-family="Helvetica,sans-Serif" font-size="10.00">loop</text>
</a>
</g>
</g>
<!-- Node3&#45;&gt;Node4 -->
<g id="edge3" class="edge">
<title>Node3&#45;&gt;Node4</title>
<path fill="none" stroke="#63b8ff" d="M212.16,-46.5C189.29,-46.5 163.76,-46.5 147.09,-46.5"/>
<polygon fill="#63b8ff" stroke="#63b8ff" points="212.43,-50 222.43,-46.5 212.43,-43 212.43,-50"/>
</g>
<!-- Node6 -->
<g id="node6" class="node">
<title>Node6</title>
<g id="a_node6"><a xlink:href="classPedal.html#a1027941444ce0b3f32ab8991e05c2015" target="_top" xlink:title="Sends the appropriate CAN frame to the motor based on pedal and car state.">
<polygon fill="white" stroke="#666666" points="316,-19 212,-19 212,0 316,0 316,-19"/>
<text text-anchor="middle" x="264" y="-7" font-family="Helvetica,sans-Serif" font-size="10.00">Pedal::sendFrame</text>
</a>
</g>
</g>
<!-- Node5&#45;&gt;Node6 -->
<g id="edge5" class="edge">
<title>Node5&#45;&gt;Node6</title>
<path fill="none" stroke="#63b8ff" d="M341.69,-9.5C333.01,-9.5 324.39,-9.5 316.23,-9.5"/>
<polygon fill="#63b8ff" stroke="#63b8ff" points="341.9,-13 351.9,-9.5 341.9,-6 341.9,-13"/>
</g>
<!-- Node7 -->
<g id="node7" class="node">
<title>Node7</title>
<g id="a_node7"><a xlink:href="main_8cpp.html#a1174b6795782479542559289cd623faf" target="_top" xlink:title=" ">
<polygon fill="white" stroke="#666666" points="176,-19 80,-19 80,0 176,0 176,-19"/>
<text text-anchor="middle" x="128" y="-7" font-family="Helvetica,sans-Serif" font-size="10.00">scheduler_pedal</text>
</a>
</g>
</g>
<!-- Node6&#45;&gt;Node7 -->
<g id="edge6" class="edge">
<title>Node6&#45;&gt;Node7</title>
<path fill="none" stroke="#63b8ff" d="M201.69,-9.5C193.19,-9.5 184.57,-9.5 176.37,-9.5"/>
<polygon fill="#63b8ff" stroke="#63b8ff" points="201.96,-13 211.96,-9.5 201.96,-6 201.96,-13"/>
</g>
<!-- Node8 -->
<g id="node8" class="node">
<title>Node8</title>
<g id="a_node8"><a xlink:href="main_8cpp.html#a4fc01d736fe50cf5b977f755b675f11d" target="_top" xlink:title="Setup function for initializing the VCU system. Initializes MCP2515s, IO pins, as well as own modules...">
<polygon fill="white" stroke="#666666" points="44,-19 0,-19 0,0 44,0 44,-19"/>
<text text-anchor="middle" x="22" y="-7" font-family="Helvetica,sans-Serif" font-size="10.00">setup</text>
</a>
</g>
</g>
<!-- Node7&#45;&gt;Node8 -->
<g id="edge7" class="edge">
<title>Node7&#45;&gt;Node8</title>
<path fill="none" stroke="#63b8ff" d="M69.62,-9.5C60.56,-9.5 51.73,-9.5 44.23,-9.5"/>
<polygon fill="#63b8ff" stroke="#63b8ff" points="69.87,-13 79.87,-9.5 69.87,-6 69.87,-13"/>
</g>
</g>
</svg>
