<?xml version="1.0" encoding="UTF-8" standalone="no"?>
<!DOCTYPE svg PUBLIC "-//W3C//DTD SVG 1.1//EN"
 "http://www.w3.org/Graphics/SVG/1.1/DTD/svg11.dtd">
<!-- Generated by graphviz version 2.43.0 (0)
 -->
<!-- Title: Telemetry::sendTelemetry Pages: 1 -->
<svg width="501pt" height="134pt"
 viewBox="0.00 0.00 501.00 134.00" xmlns="http://www.w3.org/2000/svg" xmlns:xlink="http://www.w3.org/1999/xlink">
<g id="graph0" class="graph" transform="scale(1 1) rotate(0) translate(4 130)">
<title>Telemetry::sendTelemetry</title>
<!-- Node1 -->
<g id="node1" class="node">
<title>Node1</title>
<g id="a_node1"><a xlink:title="Sends telemetry data based on the scheduling logic.">
<polygon fill="#999999" stroke="#666666" points="143,-72.5 0,-72.5 0,-53.5 143,-53.5 143,-72.5"/>
<text text-anchor="middle" x="71.5" y="-60.5" font-family="Helvetica,sans-Serif" font-size="10.00">Telemetry::sendTelemetry</text>
</a>
</g>
</g>
<!-- Node2 -->
<g id="node2" class="node">
<title>Node2</title>
<g id="a_node2"><a xlink:href="classTelemetry.html#aeed89696476accb74fb8807b92fbdcd8" target="_top" xlink:title="Internal helper to get and send the ADC telemetry frame.">
<polygon fill="white" stroke="#666666" points="322,-114.5 186,-114.5 186,-95.5 322,-95.5 322,-114.5"/>
<text text-anchor="middle" x="254" y="-102.5" font-family="Helvetica,sans-Serif" font-size="10.00">Telemetry::schedulerAdc</text>
</a>
</g>
</g>
<!-- Node1&#45;&gt;Node2 -->
<g id="edge1" class="edge">
<title>Node1&#45;&gt;Node2</title>
<path fill="none" stroke="#63b8ff" d="M113.46,-72.53C139.67,-78.63 173.9,-86.59 201.89,-93.11"/>
<polygon fill="#63b8ff" stroke="#63b8ff" points="201.36,-96.58 211.89,-95.43 202.95,-89.76 201.36,-96.58"/>
</g>
<!-- Node4 -->
<g id="node4" class="node">
<title>Node4</title>
<g id="a_node4"><a xlink:href="classTelemetry.html#a50074891c9ce48296fe72f159befd488" target="_top" xlink:title="Internal helper to get and send the digital telemetry frame.">
<polygon fill="white" stroke="#666666" points="329,-72.5 179,-72.5 179,-53.5 329,-53.5 329,-72.5"/>
<text text-anchor="middle" x="254" y="-60.5" font-family="Helvetica,sans-Serif" font-size="10.00">Telemetry::schedulerDigital</text>
</a>
</g>
</g>
<!-- Node1&#45;&gt;Node4 -->
<g id="edge3" class="edge">
<title>Node1&#45;&gt;Node4</title>
<path fill="none" stroke="#63b8ff" d="M143.06,-63C151.52,-63 160.22,-63 168.84,-63"/>
<polygon fill="#63b8ff" stroke="#63b8ff" points="168.91,-66.5 178.91,-63 168.91,-59.5 168.91,-66.5"/>
</g>
<!-- Node6 -->
<g id="node6" class="node">
<title>Node6</title>
<g id="a_node6"><a xlink:href="classTelemetry.html#a22bea2cd68922773581b1d460bea6709" target="_top" xlink:title="Internal helper to get and send the state telemetry frame.">
<polygon fill="white" stroke="#666666" points="328.5,-30.5 179.5,-30.5 179.5,-11.5 328.5,-11.5 328.5,-30.5"/>
<text text-anchor="middle" x="254" y="-18.5" font-family="Helvetica,sans-Serif" font-size="10.00">Telemetry::schedulerStates</text>
</a>
</g>
</g>
<!-- Node1&#45;&gt;Node6 -->
<g id="edge5" class="edge">
<title>Node1&#45;&gt;Node6</title>
<path fill="none" stroke="#63b8ff" d="M113.46,-53.47C139.67,-47.37 173.9,-39.41 201.89,-32.89"/>
<polygon fill="#63b8ff" stroke="#63b8ff" points="202.95,-36.24 211.89,-30.57 201.36,-29.42 202.95,-36.24"/>
</g>
<!-- Node3 -->
<g id="node3" class="node">
<title>Node3</title>
<g id="a_node3"><a xlink:href="structTelemetryFrameAdc.html#a4e7f8219ce7209b97691c2ba4df11c23" target="_top" xlink:title="Converts the TelemetryFrameAdc to a CAN frame.">
<polygon fill="white" stroke="#666666" points="489,-126 369,-126 369,-96 489,-96 489,-126"/>
<text text-anchor="start" x="377" y="-114" font-family="Helvetica,sans-Serif" font-size="10.00">TelemetryFrameAdc::</text>
<text text-anchor="middle" x="429" y="-103" font-family="Helvetica,sans-Serif" font-size="10.00">toCanFrame</text>
</a>
</g>
</g>
<!-- Node2&#45;&gt;Node3 -->
<g id="edge2" class="edge">
<title>Node2&#45;&gt;Node3</title>
<path fill="none" stroke="#63b8ff" d="M322.38,-107.34C334.27,-107.75 346.66,-108.18 358.61,-108.59"/>
<polygon fill="#63b8ff" stroke="#63b8ff" points="358.84,-112.1 368.96,-108.95 359.09,-105.11 358.84,-112.1"/>
</g>
<!-- Node5 -->
<g id="node5" class="node">
<title>Node5</title>
<g id="a_node5"><a xlink:href="structTelemetryFrameDigital.html#a854a063396c822b4d02f3897276bd611" target="_top" xlink:title="Converts the TelemetryFrameDigital to a CAN frame.">
<polygon fill="white" stroke="#666666" points="493,-78 365,-78 365,-48 493,-48 493,-78"/>
<text text-anchor="start" x="373" y="-66" font-family="Helvetica,sans-Serif" font-size="10.00">TelemetryFrameDigital</text>
<text text-anchor="middle" x="429" y="-55" font-family="Helvetica,sans-Serif" font-size="10.00">::toCanFrame</text>
</a>
</g>
</g>
<!-- Node4&#45;&gt;Node5 -->
<g id="edge4" class="edge">
<title>Node4&#45;&gt;Node5</title>
<path fill="none" stroke="#63b8ff" d="M329.12,-63C337.6,-63 346.23,-63 354.7,-63"/>
<polygon fill="#63b8ff" stroke="#63b8ff" points="354.92,-66.5 364.92,-63 354.92,-59.5 354.92,-66.5"/>
</g>
<!-- Node7 -->
<g id="node7" class="node">
<title>Node7</title>
<g id="a_node7"><a xlink:href="structTelemetryFrameState.html#a3c77ae091bd1912d700dbb58b2f1c68e" target="_top" xlink:title="Converts the TelemetryFrameState to a CAN frame.">
<polygon fill="white" stroke="#666666" points="490,-30 368,-30 368,0 490,0 490,-30"/>
<text text-anchor="start" x="376" y="-18" font-family="Helvetica,sans-Serif" font-size="10.00">TelemetryFrameState</text>
<text text-anchor="middle" x="429" y="-7" font-family="Helvetica,sans-Serif" font-size="10.00">::toCanFrame</text>
</a>
</g>
</g>
<!-- Node6&#45;&gt;Node7 -->
<g id="edge6" class="edge">
<title>Node6&#45;&gt;Node7</title>
<path fill="none" stroke="#63b8ff" d="M328.62,-18.45C338.21,-18.11 348.02,-17.77 357.55,-17.44"/>
<polygon fill="#63b8ff" stroke="#63b8ff" points="357.9,-20.93 367.77,-17.09 357.66,-13.94 357.9,-20.93"/>
</g>
</g>
</svg>
