<?xml version="1.0" encoding="UTF-8" standalone="no"?>
<!DOCTYPE svg PUBLIC "-//W3C//DTD SVG 1.1//EN"
 "http://www.w3.org/Graphics/SVG/1.1/DTD/svg11.dtd">
<!-- Generated by graphviz version 2.43.0 (0)
 -->
<!-- Title: Pedal Pages: 1 -->
<svg width="408pt" height="595pt"
 viewBox="0.00 0.00 408.00 595.00" xmlns="http://www.w3.org/2000/svg" xmlns:xlink="http://www.w3.org/1999/xlink">
<g id="graph0" class="graph" transform="scale(1 1) rotate(0) translate(4 591)">
<title>Pedal</title>
<!-- Node1 -->
<g id="node1" class="node">
<title>Node1</title>
<g id="a_node1"><a xlink:title="Pedal class for managing throttle and brake pedal inputs. Handles filtering, fault detection,...">
<polygon fill="#999999" stroke="#666666" points="213.5,-0.5 213.5,-156.5 354.5,-156.5 354.5,-0.5 213.5,-0.5"/>
<text text-anchor="middle" x="284" y="-144.5" font-family="Helvetica,sans-Serif" font-size="10.00">Pedal</text>
<polyline fill="none" stroke="#666666" points="213.5,-137.5 354.5,-137.5 "/>
<text text-anchor="start" x="221.5" y="-125.5" font-family="Helvetica,sans-Serif" font-size="10.00">+ pedal_final</text>
<text text-anchor="start" x="221.5" y="-114.5" font-family="Helvetica,sans-Serif" font-size="10.00">&#45; fault</text>
<text text-anchor="start" x="221.5" y="-103.5" font-family="Helvetica,sans-Serif" font-size="10.00">&#45; fault_start_millis</text>
<text text-anchor="start" x="221.5" y="-92.5" font-family="Helvetica,sans-Serif" font-size="10.00">&#45; stop_frame</text>
<text text-anchor="start" x="221.5" y="-81.5" font-family="Helvetica,sans-Serif" font-size="10.00">&#45; torque_msg</text>
<polyline fill="none" stroke="#666666" points="213.5,-74.5 354.5,-74.5 "/>
<text text-anchor="start" x="221.5" y="-62.5" font-family="Helvetica,sans-Serif" font-size="10.00">+ Pedal()</text>
<text text-anchor="start" x="221.5" y="-51.5" font-family="Helvetica,sans-Serif" font-size="10.00">+ update()</text>
<text text-anchor="start" x="221.5" y="-40.5" font-family="Helvetica,sans-Serif" font-size="10.00">+ canFrame()</text>
<text text-anchor="start" x="221.5" y="-29.5" font-family="Helvetica,sans-Serif" font-size="10.00">&#45; checkPedalFault()</text>
<text text-anchor="start" x="221.5" y="-18.5" font-family="Helvetica,sans-Serif" font-size="10.00">&#45; throttleTorqueMapping()</text>
<text text-anchor="start" x="221.5" y="-7.5" font-family="Helvetica,sans-Serif" font-size="10.00">&#45; brakeTorqueMapping()</text>
</a>
</g>
</g>
<!-- Node2 -->
<g id="node2" class="node">
<title>Node2</title>
<g id="a_node2"><a xlink:href="structCarState.html" target="_top" xlink:title="Represents the state of the car. Holds telemetry data and status, used as central data sharing struct...">
<polygon fill="white" stroke="#666666" points="151,-248.5 151,-316.5 241,-316.5 241,-248.5 151,-248.5"/>
<text text-anchor="middle" x="196" y="-304.5" font-family="Helvetica,sans-Serif" font-size="10.00">CarState</text>
<polyline fill="none" stroke="#666666" points="151,-297.5 241,-297.5 "/>
<text text-anchor="start" x="159" y="-285.5" font-family="Helvetica,sans-Serif" font-size="10.00">+ status_millis</text>
<text text-anchor="start" x="159" y="-274.5" font-family="Helvetica,sans-Serif" font-size="10.00">+ millis</text>
<polyline fill="none" stroke="#666666" points="151,-267.5 241,-267.5 "/>
<text text-anchor="middle" x="196" y="-255.5" font-family="Helvetica,sans-Serif" font-size="10.00"> </text>
</a>
</g>
</g>
<!-- Node2&#45;&gt;Node1 -->
<g id="edge1" class="edge">
<title>Node2&#45;&gt;Node1</title>
<path fill="none" stroke="#404040" d="M210.53,-248.14C220.1,-226.18 233.11,-196.32 245.52,-167.83"/>
<polygon fill="none" stroke="#404040" points="245.63,-167.58 244.36,-160.48 250.42,-156.58 251.69,-163.68 245.63,-167.58"/>
<text text-anchor="middle" x="251" y="-189" font-family="Helvetica,sans-Serif" font-size="10.00"> &#45;car</text>
</g>
<!-- Node3 -->
<g id="node3" class="node">
<title>Node3</title>
<g id="a_node3"><a xlink:href="structTelemetryFrameAdc.html" target="_top" xlink:title="Telemetry frame structure for ADC readings.">
<polygon fill="white" stroke="#666666" points="0,-441.5 0,-531.5 114,-531.5 114,-441.5 0,-441.5"/>
<text text-anchor="middle" x="57" y="-519.5" font-family="Helvetica,sans-Serif" font-size="10.00">TelemetryFrameAdc</text>
<polyline fill="none" stroke="#666666" points="0,-512.5 114,-512.5 "/>
<text text-anchor="start" x="8" y="-500.5" font-family="Helvetica,sans-Serif" font-size="10.00">+ apps_5v</text>
<text text-anchor="start" x="8" y="-489.5" font-family="Helvetica,sans-Serif" font-size="10.00">+ apps_3v3</text>
<text text-anchor="start" x="8" y="-478.5" font-family="Helvetica,sans-Serif" font-size="10.00">+ brake</text>
<text text-anchor="start" x="8" y="-467.5" font-family="Helvetica,sans-Serif" font-size="10.00">+ hall_sensor</text>
<polyline fill="none" stroke="#666666" points="0,-460.5 114,-460.5 "/>
<text text-anchor="start" x="8" y="-448.5" font-family="Helvetica,sans-Serif" font-size="10.00">+ toCanFrame()</text>
</a>
</g>
</g>
<!-- Node3&#45;&gt;Node2 -->
<g id="edge2" class="edge">
<title>Node3&#45;&gt;Node2</title>
<path fill="none" stroke="#404040" d="M85.93,-441.21C97.35,-423.9 110.67,-403.94 123,-386 136.58,-366.25 151.92,-344.61 165.02,-326.32"/>
<polygon fill="none" stroke="#404040" points="165.05,-326.29 165.3,-319.08 172.05,-316.54 171.8,-323.75 165.05,-326.29"/>
<text text-anchor="middle" x="157.5" y="-360" font-family="Helvetica,sans-Serif" font-size="10.00"> +adc</text>
</g>
<!-- Node4 -->
<g id="node4" class="node">
<title>Node4</title>
<g id="a_node4"><a xlink:href="structTelemetryFrameDigital.html" target="_top" xlink:title="Telemetry frame structure for digital signals.">
<polygon fill="white" stroke="#666666" points="132,-441.5 132,-531.5 260,-531.5 260,-441.5 132,-441.5"/>
<text text-anchor="middle" x="196" y="-519.5" font-family="Helvetica,sans-Serif" font-size="10.00">TelemetryFrameDigital</text>
<polyline fill="none" stroke="#666666" points="132,-512.5 260,-512.5 "/>
<text text-anchor="start" x="140" y="-500.5" font-family="Helvetica,sans-Serif" font-size="10.00">+ motor_rpm</text>
<text text-anchor="start" x="140" y="-489.5" font-family="Helvetica,sans-Serif" font-size="10.00">+ motor_speed</text>
<text text-anchor="start" x="140" y="-478.5" font-family="Helvetica,sans-Serif" font-size="10.00">+ apps_3v3_scaled</text>
<text text-anchor="start" x="140" y="-467.5" font-family="Helvetica,sans-Serif" font-size="10.00">+ torque_val</text>
<polyline fill="none" stroke="#666666" points="132,-460.5 260,-460.5 "/>
<text text-anchor="start" x="140" y="-448.5" font-family="Helvetica,sans-Serif" font-size="10.00">+ toCanFrame()</text>
</a>
</g>
</g>
<!-- Node4&#45;&gt;Node2 -->
<g id="edge3" class="edge">
<title>Node4&#45;&gt;Node2</title>
<path fill="none" stroke="#404040" d="M196,-441.17C196,-407.91 196,-362.52 196,-328.98"/>
<polygon fill="none" stroke="#404040" points="196,-328.76 192,-322.76 196,-316.76 200,-322.76 196,-328.76"/>
<text text-anchor="middle" x="217.5" y="-360" font-family="Helvetica,sans-Serif" font-size="10.00"> +digital</text>
</g>
<!-- Node5 -->
<g id="node5" class="node">
<title>Node5</title>
<g id="a_node5"><a xlink:href="structTelemetryFrameState.html" target="_top" xlink:title="Telemetry frame structure for VCU states.">
<polygon fill="white" stroke="#666666" points="278,-386.5 278,-586.5 400,-586.5 400,-386.5 278,-386.5"/>
<text text-anchor="middle" x="339" y="-574.5" font-family="Helvetica,sans-Serif" font-size="10.00">TelemetryFrameState</text>
<polyline fill="none" stroke="#666666" points="278,-567.5 400,-567.5 "/>
<text text-anchor="start" x="286" y="-555.5" font-family="Helvetica,sans-Serif" font-size="10.00">+ car_status</text>
<text text-anchor="start" x="286" y="-544.5" font-family="Helvetica,sans-Serif" font-size="10.00">+ force_stop</text>
<text text-anchor="start" x="286" y="-533.5" font-family="Helvetica,sans-Serif" font-size="10.00">+ hv_ready</text>
<text text-anchor="start" x="286" y="-522.5" font-family="Helvetica,sans-Serif" font-size="10.00">+ bms_no_msg</text>
<text text-anchor="start" x="286" y="-511.5" font-family="Helvetica,sans-Serif" font-size="10.00">+ bms_wrong_id</text>
<text text-anchor="start" x="286" y="-500.5" font-family="Helvetica,sans-Serif" font-size="10.00">+ fault_active</text>
<text text-anchor="start" x="286" y="-489.5" font-family="Helvetica,sans-Serif" font-size="10.00">+ fault_exceeded</text>
<text text-anchor="start" x="286" y="-478.5" font-family="Helvetica,sans-Serif" font-size="10.00">+ throttle_low</text>
<text text-anchor="start" x="286" y="-467.5" font-family="Helvetica,sans-Serif" font-size="10.00">+ throttle_high</text>
<text text-anchor="start" x="286" y="-456.5" font-family="Helvetica,sans-Serif" font-size="10.00">+ brake_low</text>
<text text-anchor="start" x="286" y="-445.5" font-family="Helvetica,sans-Serif" font-size="10.00">+ brake_high</text>
<text text-anchor="start" x="286" y="-434.5" font-family="Helvetica,sans-Serif" font-size="10.00">+ screenshot</text>
<text text-anchor="start" x="286" y="-423.5" font-family="Helvetica,sans-Serif" font-size="10.00">+ state_unknown</text>
<text text-anchor="start" x="286" y="-412.5" font-family="Helvetica,sans-Serif" font-size="10.00">+ bms_data</text>
<polyline fill="none" stroke="#666666" points="278,-405.5 400,-405.5 "/>
<text text-anchor="start" x="286" y="-393.5" font-family="Helvetica,sans-Serif" font-size="10.00">+ toCanFrame()</text>
</a>
</g>
</g>
<!-- Node5&#45;&gt;Node2 -->
<g id="edge4" class="edge">
<title>Node5&#45;&gt;Node2</title>
<path fill="none" stroke="#404040" d="M277.95,-398.65C274.92,-394.37 271.93,-390.14 269,-386 255.16,-366.44 239.77,-344.83 226.71,-326.51"/>
<polygon fill="none" stroke="#404040" points="226.69,-326.47 219.95,-323.91 219.72,-316.7 226.46,-319.26 226.69,-326.47"/>
<text text-anchor="middle" x="274.5" y="-360" font-family="Helvetica,sans-Serif" font-size="10.00"> +state</text>
</g>
<!-- Node6 -->
<g id="node6" class="node">
<title>Node6</title>
<g id="a_node6"><a xlink:href="classRingBuffer.html" target="_top" xlink:title=" ">
<polygon fill="white" stroke="#666666" points="259,-226.5 259,-338.5 369,-338.5 369,-226.5 259,-226.5"/>
<text text-anchor="start" x="267" y="-326.5" font-family="Helvetica,sans-Serif" font-size="10.00">RingBuffer&lt; uint16</text>
<text text-anchor="middle" x="314" y="-315.5" font-family="Helvetica,sans-Serif" font-size="10.00">_t, 16 &gt;</text>
<polyline fill="none" stroke="#666666" points="259,-308.5 369,-308.5 "/>
<text text-anchor="start" x="267" y="-296.5" font-family="Helvetica,sans-Serif" font-size="10.00">+ buffer</text>
<text text-anchor="start" x="267" y="-285.5" font-family="Helvetica,sans-Serif" font-size="10.00">+ head</text>
<text text-anchor="start" x="267" y="-274.5" font-family="Helvetica,sans-Serif" font-size="10.00">+ count</text>
<polyline fill="none" stroke="#666666" points="259,-267.5 369,-267.5 "/>
<text text-anchor="start" x="267" y="-255.5" font-family="Helvetica,sans-Serif" font-size="10.00">+ RingBuffer()</text>
<text text-anchor="start" x="267" y="-244.5" font-family="Helvetica,sans-Serif" font-size="10.00">+ push()</text>
<text text-anchor="start" x="267" y="-233.5" font-family="Helvetica,sans-Serif" font-size="10.00">+ getLinearBuffer()</text>
</a>
</g>
</g>
<!-- Node6&#45;&gt;Node1 -->
<g id="edge5" class="edge">
<title>Node6&#45;&gt;Node1</title>
<path fill="none" stroke="#404040" d="M305.8,-226.3C303.16,-208.5 300.16,-188.3 297.25,-168.69"/>
<polygon fill="none" stroke="#404040" points="297.21,-168.46 292.37,-163.11 295.45,-156.59 300.29,-161.94 297.21,-168.46"/>
<text text-anchor="middle" x="339.5" y="-200" font-family="Helvetica,sans-Serif" font-size="10.00"> &#45;brake_value</text>
<text text-anchor="middle" x="339.5" y="-189" font-family="Helvetica,sans-Serif" font-size="10.00">&#45;pedal_value_1</text>
<text text-anchor="middle" x="339.5" y="-178" font-family="Helvetica,sans-Serif" font-size="10.00">&#45;pedal_value_2</text>
</g>
</g>
</svg>
