<?xml version="1.0" encoding="UTF-8" standalone="no"?>
<!DOCTYPE svg PUBLIC "-//W3C//DTD SVG 1.1//EN"
 "http://www.w3.org/Graphics/SVG/1.1/DTD/svg11.dtd">
<!-- Generated by graphviz version 2.43.0 (0)
 -->
<!-- Title: Pedal::brake_torque_mapping Pages: 1 -->
<svg width="457pt" height="172pt"
 viewBox="0.00 0.00 457.00 171.50" xmlns="http://www.w3.org/2000/svg" xmlns:xlink="http://www.w3.org/1999/xlink">
<g id="graph0" class="graph" transform="scale(1 1) rotate(0) translate(4 167.5)">
<title>Pedal::brake_torque_mapping</title>
<!-- Node1 -->
<g id="node1" class="node">
<title>Node1</title>
<g id="a_node1"><a xlink:title="Maps the brake ADC to a torque value.">
<polygon fill="#999999" stroke="#666666" points="113,-102 0,-102 0,-72 113,-72 113,-102"/>
<text text-anchor="start" x="8" y="-90" font-family="Helvetica,sans-Serif" font-size="10.00">Pedal::brake_torque</text>
<text text-anchor="middle" x="56.5" y="-79" font-family="Helvetica,sans-Serif" font-size="10.00">_mapping</text>
</a>
</g>
</g>
<!-- Node2 -->
<g id="node2" class="node">
<title>Node2</title>
<g id="a_node2"><a xlink:href="Debug_8h.html#ae4f010051fc0b65e53e4305c62bae986" target="_top" xlink:title="Sends brake fault debug info via CAN or serial (if enabled). Overloads for fault status with or witho...">
<polygon fill="white" stroke="#666666" points="269,-120.5 158,-120.5 158,-101.5 269,-101.5 269,-120.5"/>
<text text-anchor="middle" x="213.5" y="-108.5" font-family="Helvetica,sans-Serif" font-size="10.00">DBG_BRAKE_FAULT</text>
</a>
</g>
</g>
<!-- Node1&#45;&gt;Node2 -->
<g id="edge1" class="edge">
<title>Node1&#45;&gt;Node2</title>
<path fill="none" stroke="#63b8ff" d="M113.02,-95.6C124.31,-97.34 136.27,-99.2 147.85,-100.99"/>
<polygon fill="#63b8ff" stroke="#63b8ff" points="147.47,-104.47 157.89,-102.54 148.54,-97.55 147.47,-104.47"/>
</g>
<!-- Node5 -->
<g id="node5" class="node">
<title>Node5</title>
<g id="a_node5"><a xlink:href="Debug_8h.html#a27a4d84e5afbe5f46066606c2cfcd97d" target="_top" xlink:title="Sends throttle fault debug info via CAN or serial (if enabled). Overloads for fault status with or wi...">
<polygon fill="white" stroke="#666666" points="278,-72.5 149,-72.5 149,-53.5 278,-53.5 278,-72.5"/>
<text text-anchor="middle" x="213.5" y="-60.5" font-family="Helvetica,sans-Serif" font-size="10.00">DBG_THROTTLE_FAULT</text>
</a>
</g>
</g>
<!-- Node1&#45;&gt;Node5 -->
<g id="edge4" class="edge">
<title>Node1&#45;&gt;Node5</title>
<path fill="none" stroke="#63b8ff" d="M113.02,-78.4C122.08,-77 131.57,-75.53 140.95,-74.08"/>
<polygon fill="#63b8ff" stroke="#63b8ff" points="141.71,-77.5 151.06,-72.51 140.64,-70.59 141.71,-77.5"/>
</g>
<!-- Node3 -->
<g id="node3" class="node">
<title>Node3</title>
<g id="a_node3"><a xlink:href="namespaceDebug__CAN.html#a972189e7412acf4e4b2d36c7693a3f70" target="_top" xlink:title="Sends a debug brake fault message over CAN. This function prepares a CAN frame with the brake fault s...">
<polygon fill="white" stroke="#666666" points="449,-163.5 314,-163.5 314,-144.5 449,-144.5 449,-163.5"/>
<text text-anchor="middle" x="381.5" y="-151.5" font-family="Helvetica,sans-Serif" font-size="10.00">Debug_CAN::brake_fault</text>
</a>
</g>
</g>
<!-- Node2&#45;&gt;Node3 -->
<g id="edge2" class="edge">
<title>Node2&#45;&gt;Node3</title>
<path fill="none" stroke="#63b8ff" d="M251.34,-120.54C275.73,-126.86 307.93,-135.2 334.07,-141.97"/>
<polygon fill="#63b8ff" stroke="#63b8ff" points="333.2,-145.36 343.76,-144.48 334.96,-138.59 333.2,-145.36"/>
</g>
<!-- Node4 -->
<g id="node4" class="node">
<title>Node4</title>
<g id="a_node4"><a xlink:href="namespaceDebug__Serial.html#a9d828bdca10efbda9f4e147a372cbc71" target="_top" xlink:title="Prints a brake fault message to the serial console. This function formats and sends the brake fault s...">
<polygon fill="white" stroke="#666666" points="438.5,-126 324.5,-126 324.5,-96 438.5,-96 438.5,-126"/>
<text text-anchor="start" x="332.5" y="-114" font-family="Helvetica,sans-Serif" font-size="10.00">Debug_Serial::brake</text>
<text text-anchor="middle" x="381.5" y="-103" font-family="Helvetica,sans-Serif" font-size="10.00">_fault</text>
</a>
</g>
</g>
<!-- Node2&#45;&gt;Node4 -->
<g id="edge3" class="edge">
<title>Node2&#45;&gt;Node4</title>
<path fill="none" stroke="#63b8ff" d="M269.31,-111C283.66,-111 299.29,-111 314.17,-111"/>
<polygon fill="#63b8ff" stroke="#63b8ff" points="314.32,-114.5 324.32,-111 314.32,-107.5 314.32,-114.5"/>
</g>
<!-- Node6 -->
<g id="node6" class="node">
<title>Node6</title>
<g id="a_node6"><a xlink:href="namespaceDebug__CAN.html#a8e6443068f8aa21ba673ad7bc132e739" target="_top" xlink:title="Sends a debug throttle fault message over CAN. This function prepares a CAN frame with the throttle f...">
<polygon fill="white" stroke="#666666" points="439.5,-78 323.5,-78 323.5,-48 439.5,-48 439.5,-78"/>
<text text-anchor="start" x="331.5" y="-66" font-family="Helvetica,sans-Serif" font-size="10.00">Debug_CAN::throttle</text>
<text text-anchor="middle" x="381.5" y="-55" font-family="Helvetica,sans-Serif" font-size="10.00">_fault</text>
</a>
</g>
</g>
<!-- Node5&#45;&gt;Node6 -->
<g id="edge5" class="edge">
<title>Node5&#45;&gt;Node6</title>
<path fill="none" stroke="#63b8ff" d="M278.21,-63C289.73,-63 301.78,-63 313.4,-63"/>
<polygon fill="#63b8ff" stroke="#63b8ff" points="313.48,-66.5 323.48,-63 313.48,-59.5 313.48,-66.5"/>
</g>
<!-- Node7 -->
<g id="node7" class="node">
<title>Node7</title>
<g id="a_node7"><a xlink:href="namespaceDebug__Serial.html#aa73ff8f930647f4c70741b4e50ef6a5d" target="_top" xlink:title="Prints a throttle fault message to the serial console. This function formats and sends the throttle f...">
<polygon fill="white" stroke="#666666" points="443,-30 320,-30 320,0 443,0 443,-30"/>
<text text-anchor="start" x="328" y="-18" font-family="Helvetica,sans-Serif" font-size="10.00">Debug_Serial::throttle</text>
<text text-anchor="middle" x="381.5" y="-7" font-family="Helvetica,sans-Serif" font-size="10.00">_fault</text>
</a>
</g>
</g>
<!-- Node5&#45;&gt;Node7 -->
<g id="edge6" class="edge">
<title>Node5&#45;&gt;Node7</title>
<path fill="none" stroke="#63b8ff" d="M247.69,-53.4C267.98,-47.53 294.58,-39.85 318.63,-32.89"/>
<polygon fill="#63b8ff" stroke="#63b8ff" points="319.77,-36.2 328.41,-30.06 317.83,-29.48 319.77,-36.2"/>
</g>
</g>
</svg>
