<?xml version="1.0" encoding="UTF-8" standalone="no"?>
<!DOCTYPE svg PUBLIC "-//W3C//DTD SVG 1.1//EN"
 "http://www.w3.org/Graphics/SVG/1.1/DTD/svg11.dtd">
<!-- Generated by graphviz version 2.43.0 (0)
 -->
<!-- Title: Telemetry::sendBms Pages: 1 -->
<svg width="374pt" height="27pt"
 viewBox="0.00 0.00 374.00 27.00" xmlns="http://www.w3.org/2000/svg" xmlns:xlink="http://www.w3.org/1999/xlink">
<g id="graph0" class="graph" transform="scale(1 1) rotate(0) translate(4 23)">
<title>Telemetry::sendBms</title>
<!-- Node1 -->
<g id="node1" class="node">
<title>Node1</title>
<g id="a_node1"><a xlink:title="Internal helper to get and send the BMS telemetry frame.">
<polygon fill="#999999" stroke="#666666" points="366,-19 250,-19 250,0 366,0 366,-19"/>
<text text-anchor="middle" x="308" y="-7" font-family="Helvetica,sans-Serif" font-size="10.00">Telemetry::sendBms</text>
</a>
</g>
</g>
<!-- Node2 -->
<g id="node2" class="node">
<title>Node2</title>
<g id="a_node2"><a xlink:href="main_8cpp.html#a6ce4f6f8e1e47dc50c24b0240f7390c4" target="_top" xlink:title=" ">
<polygon fill="white" stroke="#666666" points="214,-19 80,-19 80,0 214,0 214,-19"/>
<text text-anchor="middle" x="147" y="-7" font-family="Helvetica,sans-Serif" font-size="10.00">schedulerTelemetryBms</text>
</a>
</g>
</g>
<!-- Node1&#45;&gt;Node2 -->
<g id="edge1" class="edge">
<title>Node1&#45;&gt;Node2</title>
<path fill="none" stroke="#63b8ff" d="M239.5,-9.5C231.14,-9.5 222.59,-9.5 214.24,-9.5"/>
<polygon fill="#63b8ff" stroke="#63b8ff" points="239.6,-13 249.6,-9.5 239.6,-6 239.6,-13"/>
</g>
<!-- Node3 -->
<g id="node3" class="node">
<title>Node3</title>
<g id="a_node3"><a xlink:href="main_8cpp.html#a4fc01d736fe50cf5b977f755b675f11d" target="_top" xlink:title="Setup function for initializing the VCU system. Initializes MCP2515s, IO pins, as well as own modules...">
<polygon fill="white" stroke="#666666" points="44,-19 0,-19 0,0 44,0 44,-19"/>
<text text-anchor="middle" x="22" y="-7" font-family="Helvetica,sans-Serif" font-size="10.00">setup</text>
</a>
</g>
</g>
<!-- Node2&#45;&gt;Node3 -->
<g id="edge2" class="edge">
<title>Node2&#45;&gt;Node3</title>
<path fill="none" stroke="#63b8ff" d="M69.59,-9.5C60.3,-9.5 51.49,-9.5 44.09,-9.5"/>
<polygon fill="#63b8ff" stroke="#63b8ff" points="69.82,-13 79.82,-9.5 69.82,-6 69.82,-13"/>
</g>
</g>
</svg>
