<?xml version="1.0" encoding="UTF-8" standalone="no"?>
<!DOCTYPE svg PUBLIC "-//W3C//DTD SVG 1.1//EN"
 "http://www.w3.org/Graphics/SVG/1.1/DTD/svg11.dtd">
<!-- Generated by graphviz version 2.43.0 (0)
 -->
<!-- Title: Telemetry::schedulerBms Pages: 1 -->
<svg width="556pt" height="27pt"
 viewBox="0.00 0.00 556.00 27.00" xmlns="http://www.w3.org/2000/svg" xmlns:xlink="http://www.w3.org/1999/xlink">
<g id="graph0" class="graph" transform="scale(1 1) rotate(0) translate(4 23)">
<title>Telemetry::schedulerBms</title>
<!-- Node1 -->
<g id="node1" class="node">
<title>Node1</title>
<g id="a_node1"><a xlink:title="Internal helper to get and send the BMS telemetry frame.">
<polygon fill="#999999" stroke="#666666" points="548,-19 408,-19 408,0 548,0 548,-19"/>
<text text-anchor="middle" x="478" y="-7" font-family="Helvetica,sans-Serif" font-size="10.00">Telemetry::schedulerBms</text>
</a>
</g>
</g>
<!-- Node2 -->
<g id="node2" class="node">
<title>Node2</title>
<g id="a_node2"><a xlink:href="classTelemetry.html#a892ba1df53bea0797e63b8e7a0030d91" target="_top" xlink:title="Sends telemetry data based on the scheduling logic.">
<polygon fill="white" stroke="#666666" points="372,-19 229,-19 229,0 372,0 372,-19"/>
<text text-anchor="middle" x="300.5" y="-7" font-family="Helvetica,sans-Serif" font-size="10.00">Telemetry::sendTelemetry</text>
</a>
</g>
</g>
<!-- Node1&#45;&gt;Node2 -->
<g id="edge1" class="edge">
<title>Node1&#45;&gt;Node2</title>
<path fill="none" stroke="#63b8ff" d="M397.65,-9.5C389.19,-9.5 380.63,-9.5 372.28,-9.5"/>
<polygon fill="#63b8ff" stroke="#63b8ff" points="397.89,-13 407.89,-9.5 397.89,-6 397.89,-13"/>
</g>
<!-- Node3 -->
<g id="node3" class="node">
<title>Node3</title>
<g id="a_node3"><a xlink:href="main_8cpp.html#a18a2a13352158a1c448c163c58e2b486" target="_top" xlink:title=" ">
<polygon fill="white" stroke="#666666" points="193,-19 80,-19 80,0 193,0 193,-19"/>
<text text-anchor="middle" x="136.5" y="-7" font-family="Helvetica,sans-Serif" font-size="10.00">schedulerTelemetry</text>
</a>
</g>
</g>
<!-- Node2&#45;&gt;Node3 -->
<g id="edge2" class="edge">
<title>Node2&#45;&gt;Node3</title>
<path fill="none" stroke="#63b8ff" d="M218.79,-9.5C210.15,-9.5 201.5,-9.5 193.24,-9.5"/>
<polygon fill="#63b8ff" stroke="#63b8ff" points="218.92,-13 228.92,-9.5 218.92,-6 218.92,-13"/>
</g>
<!-- Node4 -->
<g id="node4" class="node">
<title>Node4</title>
<g id="a_node4"><a xlink:href="main_8cpp.html#a4fc01d736fe50cf5b977f755b675f11d" target="_top" xlink:title="Setup function for initializing the VCU system. Initializes MCP2515s, IO pins, as well as own modules...">
<polygon fill="white" stroke="#666666" points="44,-19 0,-19 0,0 44,0 44,-19"/>
<text text-anchor="middle" x="22" y="-7" font-family="Helvetica,sans-Serif" font-size="10.00">setup</text>
</a>
</g>
</g>
<!-- Node3&#45;&gt;Node4 -->
<g id="edge3" class="edge">
<title>Node3&#45;&gt;Node4</title>
<path fill="none" stroke="#63b8ff" d="M69.8,-9.5C60.57,-9.5 51.69,-9.5 44.19,-9.5"/>
<polygon fill="#63b8ff" stroke="#63b8ff" points="69.91,-13 79.91,-9.5 69.91,-6 69.91,-13"/>
</g>
</g>
</svg>
