<?xml version="1.0" encoding="UTF-8" standalone="no"?>
<!DOCTYPE svg PUBLIC "-//W3C//DTD SVG 1.1//EN"
 "http://www.w3.org/Graphics/SVG/1.1/DTD/svg11.dtd">
<!-- Generated by graphviz version 2.43.0 (0)
 -->
<!-- Title: Pedal::pedal_can_frame_update Pages: 1 -->
<!--zoomable 267 -->
<svg id="main" version="1.1" xmlns="http://www.w3.org/2000/svg" xmlns:xlink="http://www.w3.org/1999/xlink" xml:space="preserve" onload="init(evt)">
<style type="text/css"><![CDATA[
.edge:hover path { stroke: red; }
.edge:hover polygon { stroke: red; fill: red; }
]]></style>
<script type="text/javascript"><![CDATA[
var edges = document.getElementsByTagName('g');
if (edges && edges.length) {
  for (var i=0;i<edges.length;i++) {
    if (edges[i].id.substr(0,4)=='edge') {
      edges[i].setAttribute('class','edge');
    }
  }
}
]]></script>
        <defs>
                <circle id="rim" cx="0" cy="0" r="7"/>
                <circle id="rim2" cx="0" cy="0" r="3.5"/>
                <g id="zoomPlus">
                        <use xlink:href="#rim" fill="#404040">
                                <set attributeName="fill" to="#808080" begin="zoomplus.mouseover" end="zoomplus.mouseout"/>
                        </use>
                        <path d="M-4,0h8M0,-4v8" fill="none" stroke="white" stroke-width="1.5" pointer-events="none"/>
                </g>
                <g id="zoomMin">
                        <use xlink:href="#rim" fill="#404040">
                                <set attributeName="fill" to="#808080" begin="zoomminus.mouseover" end="zoomminus.mouseout"/>
                        </use>
                        <path d="M-4,0h8" fill="none" stroke="white" stroke-width="1.5" pointer-events="none"/>
                </g>
                <g id="dirArrow">
                        <path fill="none" stroke="white" stroke-width="1.5" d="M0,-3.0v7 M-2.5,-0.5L0,-3.0L2.5,-0.5"/>
                </g>
               <g id="resetDef">
                       <use xlink:href="#rim2" fill="#404040">
                               <set attributeName="fill" to="#808080" begin="reset.mouseover" end="reset.mouseout"/>
                       </use>
               </g>
        </defs>

<script type="text/javascript">
var viewWidth = 816;
var viewHeight = 267;
var sectionId = 'dynsection-6';
</script>
<script xlink:href="svgpan.js"/>
<svg id="graph" class="graph">
<g id="viewport">
<title>Pedal::pedal_can_frame_update</title>
<!-- Node1 -->
<g id="node1" class="node">
<title>Node1</title>
<g id="a_node1"><a xlink:title="Updates the CAN frame with the most recent pedal value.">
<polygon fill="#999999" stroke="#666666" points="134,-168 0,-168 0,-138 134,-138 134,-168"/>
<text text-anchor="start" x="8" y="-156" font-family="Helvetica,sans-Serif" font-size="10.00">Pedal::pedal_can_frame</text>
<text text-anchor="middle" x="67" y="-145" font-family="Helvetica,sans-Serif" font-size="10.00">_update</text>
</a>
</g>
</g>
<!-- Node2 -->
<g id="node2" class="node">
<title>Node2</title>
<g id="a_node2"><a xlink:href="Debug_8hpp.html#a25f28d9aa7440ebc55a76a2b2ce878ea" target="_top" xlink:title="Sends throttle output debug info via CAN or serial (if enabled).">
<polygon fill="white" stroke="#666666" points="297.5,-221.5 176.5,-221.5 176.5,-202.5 297.5,-202.5 297.5,-221.5"/>
<text text-anchor="middle" x="237" y="-209.5" font-family="Helvetica,sans-Serif" font-size="10.00">DBG_THROTTLE_OUT</text>
</a>
</g>
</g>
<!-- Node1&#45;&gt;Node2 -->
<g id="edge1" class="edge">
<title>Node1&#45;&gt;Node2</title>
<path fill="none" stroke="#63b8ff" d="M102.56,-168.05C122.14,-176.29 147.21,-186.34 170,-194 175.91,-195.99 182.17,-197.92 188.39,-199.73"/>
<polygon fill="#63b8ff" stroke="#63b8ff" points="187.5,-203.11 198.08,-202.47 189.41,-196.38 187.5,-203.11"/>
</g>
<!-- Node5 -->
<g id="node5" class="node">
<title>Node5</title>
<g id="a_node5"><a xlink:href="Debug_8hpp.html#a9a564faad1bd32a5894d3706e38f1067" target="_top" xlink:title="Prints a line to the serial console for throttle debug.">
<polygon fill="white" stroke="#666666" points="290.5,-184.5 183.5,-184.5 183.5,-165.5 290.5,-165.5 290.5,-184.5"/>
<text text-anchor="middle" x="237" y="-172.5" font-family="Helvetica,sans-Serif" font-size="10.00">DBGLN_THROTTLE</text>
</a>
</g>
</g>
<!-- Node1&#45;&gt;Node5 -->
<g id="edge4" class="edge">
<title>Node1&#45;&gt;Node5</title>
<path fill="none" stroke="#63b8ff" d="M134.4,-161.69C147.21,-163.37 160.59,-165.12 173.28,-166.79"/>
<polygon fill="#63b8ff" stroke="#63b8ff" points="172.91,-170.27 183.28,-168.1 173.82,-163.33 172.91,-170.27"/>
</g>
<!-- Node7 -->
<g id="node7" class="node">
<title>Node7</title>
<g id="a_node7"><a xlink:href="classPedal.html#a4ff4c5cf21550badfbb93b239b6bdee5" target="_top" xlink:title="Updates the CAN frame with the current pedal values.">
<polygon fill="white" stroke="#666666" points="304,-147 170,-147 170,-117 304,-117 304,-147"/>
<text text-anchor="start" x="178" y="-135" font-family="Helvetica,sans-Serif" font-size="10.00">Pedal::pedal_can_frame</text>
<text text-anchor="middle" x="237" y="-124" font-family="Helvetica,sans-Serif" font-size="10.00">_stop_motor</text>
</a>
</g>
</g>
<!-- Node1&#45;&gt;Node7 -->
<g id="edge6" class="edge">
<title>Node1&#45;&gt;Node7</title>
<path fill="none" stroke="#63b8ff" d="M134.4,-144.7C142.68,-143.67 151.2,-142.6 159.62,-141.55"/>
<polygon fill="#63b8ff" stroke="#63b8ff" points="160.32,-144.99 169.81,-140.27 159.45,-138.04 160.32,-144.99"/>
</g>
<!-- Node8 -->
<g id="node8" class="node">
<title>Node8</title>
<g id="a_node8"><a xlink:href="classPedal.html#a04ce7e5e20d8405f10f281d6c784e1ef" target="_top" xlink:title="Maps the pedal ADC to a torque value, handling deadzones and faults.">
<polygon fill="white" stroke="#666666" points="298,-99 176,-99 176,-69 298,-69 298,-99"/>
<text text-anchor="start" x="184" y="-87" font-family="Helvetica,sans-Serif" font-size="10.00">Pedal::throttle_torque</text>
<text text-anchor="middle" x="237" y="-76" font-family="Helvetica,sans-Serif" font-size="10.00">_mapping</text>
</a>
</g>
</g>
<!-- Node1&#45;&gt;Node8 -->
<g id="edge7" class="edge">
<title>Node1&#45;&gt;Node8</title>
<path fill="none" stroke="#63b8ff" d="M100.84,-137.85C120.71,-128.84 146.65,-117.38 170,-108 174.43,-106.22 179.06,-104.42 183.71,-102.65"/>
<polygon fill="#63b8ff" stroke="#63b8ff" points="185.1,-105.87 193.24,-99.08 182.64,-99.31 185.1,-105.87"/>
</g>
<!-- Node3 -->
<g id="node3" class="node">
<title>Node3</title>
<g id="a_node3"><a xlink:href="namespaceDebug__CAN.html#ace21ce4da40cf6ae391410d839c59cb3" target="_top" xlink:title="Sends a debug throttle output message over CAN.">
<polygon fill="white" stroke="#666666" points="480.5,-258.5 343.5,-258.5 343.5,-239.5 480.5,-239.5 480.5,-258.5"/>
<text text-anchor="middle" x="412" y="-246.5" font-family="Helvetica,sans-Serif" font-size="10.00">Debug_CAN::throttle_out</text>
</a>
</g>
</g>
<!-- Node2&#45;&gt;Node3 -->
<g id="edge2" class="edge">
<title>Node2&#45;&gt;Node3</title>
<path fill="none" stroke="#63b8ff" d="M282.55,-221.53C305.07,-226.34 332.58,-232.23 356.36,-237.31"/>
<polygon fill="#63b8ff" stroke="#63b8ff" points="355.79,-240.77 366.3,-239.44 357.25,-233.93 355.79,-240.77"/>
</g>
<!-- Node4 -->
<g id="node4" class="node">
<title>Node4</title>
<g id="a_node4"><a xlink:href="namespaceDebug__Serial.html#a75dcfc17e13215b801dd9dafa6f7c515" target="_top" xlink:title="Prints a throttle output message to the serial console. This function formats and sends the throttle ...">
<polygon fill="white" stroke="#666666" points="484,-221.5 340,-221.5 340,-202.5 484,-202.5 484,-221.5"/>
<text text-anchor="middle" x="412" y="-209.5" font-family="Helvetica,sans-Serif" font-size="10.00">Debug_Serial::throttle_out</text>
</a>
</g>
</g>
<!-- Node2&#45;&gt;Node4 -->
<g id="edge3" class="edge">
<title>Node2&#45;&gt;Node4</title>
<path fill="none" stroke="#63b8ff" d="M297.54,-212C307.83,-212 318.69,-212 329.45,-212"/>
<polygon fill="#63b8ff" stroke="#63b8ff" points="329.72,-215.5 339.72,-212 329.72,-208.5 329.72,-215.5"/>
</g>
<!-- Node6 -->
<g id="node6" class="node">
<title>Node6</title>
<g id="a_node6"><a xlink:href="namespaceDebug__Serial.html#a756fa9286151426012a6f8e178a6c550" target="_top" xlink:title="Prints a string AND a newline to the serial console.">
<polygon fill="white" stroke="#666666" points="471.5,-184.5 352.5,-184.5 352.5,-165.5 471.5,-165.5 471.5,-184.5"/>
<text text-anchor="middle" x="412" y="-172.5" font-family="Helvetica,sans-Serif" font-size="10.00">Debug_Serial::println</text>
</a>
</g>
</g>
<!-- Node5&#45;&gt;Node6 -->
<g id="edge5" class="edge">
<title>Node5&#45;&gt;Node6</title>
<path fill="none" stroke="#63b8ff" d="M290.85,-175C306.97,-175 324.95,-175 341.99,-175"/>
<polygon fill="#63b8ff" stroke="#63b8ff" points="342.45,-178.5 352.45,-175 342.45,-171.5 342.45,-178.5"/>
</g>
<!-- Node9 -->
<g id="node9" class="node">
<title>Node9</title>
<g id="a_node9"><a xlink:href="classPedal.html#a00f33fcd9507c62193f2ffc3570b7fba" target="_top" xlink:title="Maps the brake ADC to a torque value.">
<polygon fill="white" stroke="#666666" points="468.5,-121 355.5,-121 355.5,-91 468.5,-91 468.5,-121"/>
<text text-anchor="start" x="363.5" y="-109" font-family="Helvetica,sans-Serif" font-size="10.00">Pedal::brake_torque</text>
<text text-anchor="middle" x="412" y="-98" font-family="Helvetica,sans-Serif" font-size="10.00">_mapping</text>
</a>
</g>
</g>
<!-- Node8&#45;&gt;Node9 -->
<g id="edge8" class="edge">
<title>Node8&#45;&gt;Node9</title>
<path fill="none" stroke="#63b8ff" d="M298.02,-91.63C313.31,-93.58 329.82,-95.68 345.38,-97.66"/>
<polygon fill="#63b8ff" stroke="#63b8ff" points="345.08,-101.14 355.44,-98.93 345.96,-94.2 345.08,-101.14"/>
</g>
<!-- Node12 -->
<g id="node12" class="node">
<title>Node12</title>
<g id="a_node12"><a xlink:href="Debug_8hpp.html#a27a4d84e5afbe5f46066606c2cfcd97d" target="_top" xlink:title="Sends throttle fault debug info via CAN or serial (if enabled). Overloads for fault status with or wi...">
<polygon fill="white" stroke="#666666" points="649,-72.5 520,-72.5 520,-53.5 649,-53.5 649,-72.5"/>
<text text-anchor="middle" x="584.5" y="-60.5" font-family="Helvetica,sans-Serif" font-size="10.00">DBG_THROTTLE_FAULT</text>
</a>
</g>
</g>
<!-- Node8&#45;&gt;Node12 -->
<g id="edge14" class="edge">
<title>Node8&#45;&gt;Node12</title>
<path fill="none" stroke="#63b8ff" d="M298.18,-80.34C356.97,-76.77 446.56,-71.32 509.64,-67.49"/>
<polygon fill="#63b8ff" stroke="#63b8ff" points="510.15,-70.97 519.92,-66.86 509.72,-63.98 510.15,-70.97"/>
</g>
<!-- Node10 -->
<g id="node10" class="node">
<title>Node10</title>
<g id="a_node10"><a xlink:href="Debug_8hpp.html#ae4f010051fc0b65e53e4305c62bae986" target="_top" xlink:title="Sends brake fault debug info via CAN or serial (if enabled). Overloads for fault status with or witho...">
<polygon fill="white" stroke="#666666" points="640,-117.5 529,-117.5 529,-98.5 640,-98.5 640,-117.5"/>
<text text-anchor="middle" x="584.5" y="-105.5" font-family="Helvetica,sans-Serif" font-size="10.00">DBG_BRAKE_FAULT</text>
</a>
</g>
</g>
<!-- Node9&#45;&gt;Node10 -->
<g id="edge9" class="edge">
<title>Node9&#45;&gt;Node10</title>
<path fill="none" stroke="#63b8ff" d="M468.83,-106.65C484.83,-106.84 502.41,-107.05 518.9,-107.24"/>
<polygon fill="#63b8ff" stroke="#63b8ff" points="518.96,-110.74 529,-107.36 519.04,-103.74 518.96,-110.74"/>
</g>
<!-- Node9&#45;&gt;Node12 -->
<g id="edge11" class="edge">
<title>Node9&#45;&gt;Node12</title>
<path fill="none" stroke="#63b8ff" d="M468.83,-91.92C490.44,-86.47 514.94,-80.29 535.72,-75.05"/>
<polygon fill="#63b8ff" stroke="#63b8ff" points="536.76,-78.4 545.6,-72.56 535.05,-71.61 536.76,-78.4"/>
</g>
<!-- Node11 -->
<g id="node11" class="node">
<title>Node11</title>
<g id="a_node11"><a xlink:href="namespaceDebug__Serial.html#a9d828bdca10efbda9f4e147a372cbc71" target="_top" xlink:title="Prints a brake fault message to the serial console. This function formats and sends the brake fault s...">
<polygon fill="white" stroke="#666666" points="803.5,-126 689.5,-126 689.5,-96 803.5,-96 803.5,-126"/>
<text text-anchor="start" x="697.5" y="-114" font-family="Helvetica,sans-Serif" font-size="10.00">Debug_Serial::brake</text>
<text text-anchor="middle" x="746.5" y="-103" font-family="Helvetica,sans-Serif" font-size="10.00">_fault</text>
</a>
</g>
</g>
<!-- Node10&#45;&gt;Node11 -->
<g id="edge10" class="edge">
<title>Node10&#45;&gt;Node11</title>
<path fill="none" stroke="#63b8ff" d="M640.12,-109.02C652.69,-109.26 666.19,-109.51 679.2,-109.76"/>
<polygon fill="#63b8ff" stroke="#63b8ff" points="679.43,-113.26 689.5,-109.95 679.57,-106.26 679.43,-113.26"/>
</g>
<!-- Node13 -->
<g id="node13" class="node">
<title>Node13</title>
<g id="a_node13"><a xlink:href="namespaceDebug__CAN.html#a8e6443068f8aa21ba673ad7bc132e739" target="_top" xlink:title="Sends a debug throttle fault message over CAN with a float value.">
<polygon fill="white" stroke="#666666" points="804.5,-78 688.5,-78 688.5,-48 804.5,-48 804.5,-78"/>
<text text-anchor="start" x="696.5" y="-66" font-family="Helvetica,sans-Serif" font-size="10.00">Debug_CAN::throttle</text>
<text text-anchor="middle" x="746.5" y="-55" font-family="Helvetica,sans-Serif" font-size="10.00">_fault</text>
</a>
</g>
</g>
<!-- Node12&#45;&gt;Node13 -->
<g id="edge12" class="edge">
<title>Node12&#45;&gt;Node13</title>
<path fill="none" stroke="#63b8ff" d="M649.2,-63C658.73,-63 668.59,-63 678.2,-63"/>
<polygon fill="#63b8ff" stroke="#63b8ff" points="678.5,-66.5 688.5,-63 678.5,-59.5 678.5,-66.5"/>
</g>
<!-- Node14 -->
<g id="node14" class="node">
<title>Node14</title>
<g id="a_node14"><a xlink:href="namespaceDebug__Serial.html#aa73ff8f930647f4c70741b4e50ef6a5d" target="_top" xlink:title="Prints a throttle fault message to the serial console. This function formats and sends the throttle f...">
<polygon fill="white" stroke="#666666" points="808,-30 685,-30 685,0 808,0 808,-30"/>
<text text-anchor="start" x="693" y="-18" font-family="Helvetica,sans-Serif" font-size="10.00">Debug_Serial::throttle</text>
<text text-anchor="middle" x="746.5" y="-7" font-family="Helvetica,sans-Serif" font-size="10.00">_fault</text>
</a>
</g>
</g>
<!-- Node12&#45;&gt;Node14 -->
<g id="edge13" class="edge">
<title>Node12&#45;&gt;Node14</title>
<path fill="none" stroke="#63b8ff" d="M617.49,-53.4C636.96,-47.56 662.45,-39.91 685.56,-32.98"/>
<polygon fill="#63b8ff" stroke="#63b8ff" points="686.72,-36.29 695.29,-30.06 684.71,-29.58 686.72,-36.29"/>
</g>
</g>
</svg>
        <g id="navigator" transform="translate(0 0)" fill="#404254">
                <rect fill="#f2f5e9" fill-opacity="0.5" stroke="#606060" stroke-width=".5" x="0" y="0" width="60" height="60"/>
                <use id="zoomplus" xlink:href="#zoomPlus" x="17" y="9" onmousedown="handleZoom(evt,'in')"/>
                <use id="zoomminus" xlink:href="#zoomMin" x="42" y="9" onmousedown="handleZoom(evt,'out')"/>
                <use id="reset" xlink:href="#resetDef" x="30" y="36" onmousedown="handleReset()"/>
                <g id="arrowUp" xlink:href="#dirArrow" transform="translate(30 24)" onmousedown="handlePan(0,-1)">
                  <use xlink:href="#rim" fill="#404040">
                        <set attributeName="fill" to="#808080" begin="arrowUp.mouseover" end="arrowUp.mouseout"/>
                  </use>
                  <path fill="none" stroke="white" stroke-width="1.5" d="M0,-3.0v7 M-2.5,-0.5L0,-3.0L2.5,-0.5"/>
                </g>
                <g id="arrowRight" xlink:href="#dirArrow" transform="rotate(90) translate(36 -43)" onmousedown="handlePan(1,0)">
                  <use xlink:href="#rim" fill="#404040">
                        <set attributeName="fill" to="#808080" begin="arrowRight.mouseover" end="arrowRight.mouseout"/>
                  </use>
                  <path fill="none" stroke="white" stroke-width="1.5" d="M0,-3.0v7 M-2.5,-0.5L0,-3.0L2.5,-0.5"/>
                </g>
                <g id="arrowDown" xlink:href="#dirArrow" transform="rotate(180) translate(-30 -48)" onmousedown="handlePan(0,1)">
                  <use xlink:href="#rim" fill="#404040">
                        <set attributeName="fill" to="#808080" begin="arrowDown.mouseover" end="arrowDown.mouseout"/>
                  </use>
                  <path fill="none" stroke="white" stroke-width="1.5" d="M0,-3.0v7 M-2.5,-0.5L0,-3.0L2.5,-0.5"/>
                </g>
                <g id="arrowLeft" xlink:href="#dirArrow" transform="rotate(270) translate(-36 17)" onmousedown="handlePan(-1,0)">
                  <use xlink:href="#rim" fill="#404040">
                        <set attributeName="fill" to="#808080" begin="arrowLeft.mouseover" end="arrowLeft.mouseout"/>
                  </use>
                  <path fill="none" stroke="white" stroke-width="1.5" d="M0,-3.0v7 M-2.5,-0.5L0,-3.0L2.5,-0.5"/>
                </g>
        </g>
        <svg viewBox="0 0 15 15" width="100%" height="30px" preserveAspectRatio="xMaxYMin meet">
         <g id="arrow_out" transform="scale(0.3 0.3)">
          <a xlink:href="classPedal_a2457466d32f6d9f58f8b8ab6c34cd495_cgraph_org.svg" target="_base">
           <rect id="button" ry="5" rx="5" y="6" x="6" height="38" width="38"
                fill="#f2f5e9" fill-opacity="0.5" stroke="#606060" stroke-width="1.0"/>
           <path id="arrow"
             d="M 11.500037,31.436501 C 11.940474,20.09759 22.043105,11.32322 32.158766,21.979434 L 37.068811,17.246167 C 37.068811,17.246167 37.088388,32 37.088388,32 L 22.160133,31.978069 C 22.160133,31.978069 26.997745,27.140456 26.997745,27.140456 C 18.528582,18.264221 13.291696,25.230495 11.500037,31.436501 z"
             style="fill:#404040;"/>
          </a>
         </g>
        </svg>
</svg>
