<?xml version="1.0" encoding="UTF-8" standalone="no"?>
<!DOCTYPE svg PUBLIC "-//W3C//DTD SVG 1.1//EN"
 "http://www.w3.org/Graphics/SVG/1.1/DTD/svg11.dtd">
<!-- Generated by graphviz version 2.43.0 (0)
 -->
<!-- Title: Pedal::update Pages: 1 -->
<svg width="579pt" height="150pt"
 viewBox="0.00 0.00 579.00 149.50" xmlns="http://www.w3.org/2000/svg" xmlns:xlink="http://www.w3.org/1999/xlink">
<g id="graph0" class="graph" transform="scale(1 1) rotate(0) translate(4 145.5)">
<title>Pedal::update</title>
<!-- Node1 -->
<g id="node1" class="node">
<title>Node1</title>
<g id="a_node1"><a xlink:title="Updates pedal sensor readings, applies filtering, and checks for faults.">
<polygon fill="#999999" stroke="#666666" points="83,-93 0,-93 0,-74 83,-74 83,-93"/>
<text text-anchor="middle" x="41.5" y="-81" font-family="Helvetica,sans-Serif" font-size="10.00">Pedal::update</text>
</a>
</g>
</g>
<!-- Node2 -->
<g id="node2" class="node">
<title>Node2</title>
<g id="a_node2"><a xlink:href="classExponentialFilter.html#a4128176cf6dbe847a521df4dba8d962d" target="_top" xlink:title="Adds a new sample to the ExponentialFilter. Updates the filtered value using the exponential moving a...">
<polygon fill="white" stroke="#666666" points="235.5,-141.5 130.5,-141.5 130.5,-111.5 235.5,-111.5 235.5,-141.5"/>
<text text-anchor="start" x="138.5" y="-129.5" font-family="Helvetica,sans-Serif" font-size="10.00">ExponentialFilter::</text>
<text text-anchor="middle" x="183" y="-118.5" font-family="Helvetica,sans-Serif" font-size="10.00">addSample</text>
</a>
</g>
</g>
<!-- Node1&#45;&gt;Node2 -->
<g id="edge1" class="edge">
<title>Node1&#45;&gt;Node2</title>
<path fill="none" stroke="#63b8ff" d="M73.46,-93.04C88.15,-97.57 106.22,-103.14 123.36,-108.43"/>
<polygon fill="#63b8ff" stroke="#63b8ff" points="122.73,-111.89 133.32,-111.49 124.79,-105.2 122.73,-111.89"/>
</g>
<!-- Node3 -->
<g id="node3" class="node">
<title>Node3</title>
<g id="a_node3"><a xlink:href="classPedal.html#a4025bb96ea422dbba6d3b604a1066bc7" target="_top" xlink:title="Checks for a fault between two pedal sensor readings.">
<polygon fill="white" stroke="#666666" points="247,-55 119,-55 119,-36 247,-36 247,-55"/>
<text text-anchor="middle" x="183" y="-43" font-family="Helvetica,sans-Serif" font-size="10.00">Pedal::checkPedalFault</text>
</a>
</g>
</g>
<!-- Node1&#45;&gt;Node3 -->
<g id="edge2" class="edge">
<title>Node1&#45;&gt;Node3</title>
<path fill="none" stroke="#63b8ff" d="M77.7,-73.91C95.71,-69.01 117.83,-62.98 137.06,-57.74"/>
<polygon fill="#63b8ff" stroke="#63b8ff" points="138.08,-61.09 146.81,-55.09 136.24,-54.34 138.08,-61.09"/>
</g>
<!-- Node4 -->
<g id="node4" class="node">
<title>Node4</title>
<g id="a_node4"><a xlink:href="Debug_8hpp.html#a83973b3fea610da634610d01cd98e2d8" target="_top" xlink:title="Sends throttle fault debug info via CAN or serial (if enabled). Overloads for fault status with or wi...">
<polygon fill="white" stroke="#666666" points="412,-93 283,-93 283,-74 412,-74 412,-93"/>
<text text-anchor="middle" x="347.5" y="-81" font-family="Helvetica,sans-Serif" font-size="10.00">DBG_THROTTLE_FAULT</text>
</a>
</g>
</g>
<!-- Node1&#45;&gt;Node4 -->
<g id="edge8" class="edge">
<title>Node1&#45;&gt;Node4</title>
<path fill="none" stroke="#63b8ff" d="M83.18,-83.5C131.51,-83.5 213.08,-83.5 272.65,-83.5"/>
<polygon fill="#63b8ff" stroke="#63b8ff" points="272.76,-87 282.76,-83.5 272.76,-80 272.76,-87"/>
</g>
<!-- Node3&#45;&gt;Node4 -->
<g id="edge3" class="edge">
<title>Node3&#45;&gt;Node4</title>
<path fill="none" stroke="#63b8ff" d="M225.01,-55.09C246.55,-60.13 273.13,-66.34 295.94,-71.68"/>
<polygon fill="#63b8ff" stroke="#63b8ff" points="295.25,-75.11 305.79,-73.98 296.85,-68.29 295.25,-75.11"/>
</g>
<!-- Node7 -->
<g id="node7" class="node">
<title>Node7</title>
<g id="a_node7"><a xlink:href="classLinearInterp.html#a3c1654f4a47bb4db5386e38a8bdd6bc1" target="_top" xlink:title="Performs linear interpolation for the given input value, using the table.">
<polygon fill="white" stroke="#666666" points="402.5,-56 292.5,-56 292.5,-37 402.5,-37 402.5,-56"/>
<text text-anchor="middle" x="347.5" y="-44" font-family="Helvetica,sans-Serif" font-size="10.00">LinearInterp::interp</text>
</a>
</g>
</g>
<!-- Node3&#45;&gt;Node7 -->
<g id="edge6" class="edge">
<title>Node3&#45;&gt;Node7</title>
<path fill="none" stroke="#63b8ff" d="M247.29,-45.89C258.69,-45.96 270.58,-46.03 282,-46.1"/>
<polygon fill="#63b8ff" stroke="#63b8ff" points="282.32,-49.61 292.34,-46.17 282.36,-42.61 282.32,-49.61"/>
</g>
<!-- Node8 -->
<g id="node8" class="node">
<title>Node8</title>
<g id="a_node8"><a xlink:href="classLinearInterp.html#a9928dbf5a866f066fa19a3c4794bf71a" target="_top" xlink:title="Returns the input range of the interpolation table (last input &#45; first input)">
<polygon fill="white" stroke="#666666" points="402,-19 293,-19 293,0 402,0 402,-19"/>
<text text-anchor="middle" x="347.5" y="-7" font-family="Helvetica,sans-Serif" font-size="10.00">LinearInterp::range</text>
</a>
</g>
</g>
<!-- Node3&#45;&gt;Node8 -->
<g id="edge7" class="edge">
<title>Node3&#45;&gt;Node8</title>
<path fill="none" stroke="#63b8ff" d="M227.12,-35.95C247.49,-31.43 272.01,-26 293.5,-21.24"/>
<polygon fill="#63b8ff" stroke="#63b8ff" points="294.45,-24.62 303.46,-19.03 292.94,-17.78 294.45,-24.62"/>
</g>
<!-- Node5 -->
<g id="node5" class="node">
<title>Node5</title>
<g id="a_node5"><a xlink:href="namespaceDebug__CAN.html#aded6aa4b3ac940a9ea0941569e157522" target="_top" xlink:title="Sends a debug throttle fault message over CAN with a float value.">
<polygon fill="white" stroke="#666666" points="567.5,-122.5 451.5,-122.5 451.5,-92.5 567.5,-92.5 567.5,-122.5"/>
<text text-anchor="start" x="459.5" y="-110.5" font-family="Helvetica,sans-Serif" font-size="10.00">Debug_CAN::throttle</text>
<text text-anchor="middle" x="509.5" y="-99.5" font-family="Helvetica,sans-Serif" font-size="10.00">_fault</text>
</a>
</g>
</g>
<!-- Node4&#45;&gt;Node5 -->
<g id="edge4" class="edge">
<title>Node4&#45;&gt;Node5</title>
<path fill="none" stroke="#63b8ff" d="M412.2,-93.05C421.83,-94.5 431.8,-95.99 441.5,-97.45"/>
<polygon fill="#63b8ff" stroke="#63b8ff" points="441.09,-100.93 451.5,-98.95 442.13,-94 441.09,-100.93"/>
</g>
<!-- Node6 -->
<g id="node6" class="node">
<title>Node6</title>
<g id="a_node6"><a xlink:href="namespaceDebug__Serial.html#a190255790b41055a6f76fb66879f99d2" target="_top" xlink:title="Prints a throttle fault message to the serial console. This function formats and sends the throttle f...">
<polygon fill="white" stroke="#666666" points="571,-74.5 448,-74.5 448,-44.5 571,-44.5 571,-74.5"/>
<text text-anchor="start" x="456" y="-62.5" font-family="Helvetica,sans-Serif" font-size="10.00">Debug_Serial::throttle</text>
<text text-anchor="middle" x="509.5" y="-51.5" font-family="Helvetica,sans-Serif" font-size="10.00">_fault</text>
</a>
</g>
</g>
<!-- Node4&#45;&gt;Node6 -->
<g id="edge5" class="edge">
<title>Node4&#45;&gt;Node6</title>
<path fill="none" stroke="#63b8ff" d="M412.2,-73.95C420.65,-72.68 429.36,-71.37 437.93,-70.09"/>
<polygon fill="#63b8ff" stroke="#63b8ff" points="438.52,-73.54 447.89,-68.59 437.48,-66.61 438.52,-73.54"/>
</g>
</g>
</svg>
