<?xml version="1.0" encoding="UTF-8" standalone="no"?>
<!DOCTYPE svg PUBLIC "-//W3C//DTD SVG 1.1//EN"
 "http://www.w3.org/Graphics/SVG/1.1/DTD/svg11.dtd">
<!-- Generated by graphviz version 2.43.0 (0)
 -->
<!-- Title: Pedal::readMotor Pages: 1 -->
<svg width="385pt" height="27pt"
 viewBox="0.00 0.00 385.00 27.00" xmlns="http://www.w3.org/2000/svg" xmlns:xlink="http://www.w3.org/1999/xlink">
<g id="graph0" class="graph" transform="scale(1 1) rotate(0) translate(4 23)">
<title>Pedal::readMotor</title>
<!-- Node1 -->
<g id="node1" class="node">
<title>Node1</title>
<g id="a_node1"><a xlink:title="Reads motor data from the CAN bus and updates the CarState.">
<polygon fill="#999999" stroke="#666666" points="100,-19 0,-19 0,0 100,0 100,-19"/>
<text text-anchor="middle" x="50" y="-7" font-family="Helvetica,sans-Serif" font-size="10.00">Pedal::readMotor</text>
</a>
</g>
</g>
<!-- Node2 -->
<g id="node2" class="node">
<title>Node2</title>
<g id="a_node2"><a xlink:href="Debug_8hpp.html#a9d3888b021fa82a4c78185a961fdad84" target="_top" xlink:title="Prints a throttle debug message to the serial console.">
<polygon fill="white" stroke="#666666" points="231,-19 136,-19 136,0 231,0 231,-19"/>
<text text-anchor="middle" x="183.5" y="-7" font-family="Helvetica,sans-Serif" font-size="10.00">DBG_THROTTLE</text>
</a>
</g>
</g>
<!-- Node1&#45;&gt;Node2 -->
<g id="edge1" class="edge">
<title>Node1&#45;&gt;Node2</title>
<path fill="none" stroke="#63b8ff" d="M100.34,-9.5C108.63,-9.5 117.29,-9.5 125.75,-9.5"/>
<polygon fill="#63b8ff" stroke="#63b8ff" points="125.93,-13 135.93,-9.5 125.93,-6 125.93,-13"/>
</g>
<!-- Node3 -->
<g id="node3" class="node">
<title>Node3</title>
<g id="a_node3"><a xlink:href="namespaceDebug__Serial.html#aecd80296d8a3c5d2f9c51d623e11ff9f" target="_top" xlink:title="Prints a string to the serial console.">
<polygon fill="white" stroke="#666666" points="377,-19 267,-19 267,0 377,0 377,-19"/>
<text text-anchor="middle" x="322" y="-7" font-family="Helvetica,sans-Serif" font-size="10.00">Debug_Serial::print</text>
</a>
</g>
</g>
<!-- Node2&#45;&gt;Node3 -->
<g id="edge2" class="edge">
<title>Node2&#45;&gt;Node3</title>
<path fill="none" stroke="#63b8ff" d="M231.09,-9.5C239.31,-9.5 247.99,-9.5 256.59,-9.5"/>
<polygon fill="#63b8ff" stroke="#63b8ff" points="256.62,-13 266.62,-9.5 256.62,-6 256.62,-13"/>
</g>
</g>
</svg>
