<?xml version="1.0" encoding="UTF-8" standalone="no"?>
<!DOCTYPE svg PUBLIC "-//W3C//DTD SVG 1.1//EN"
 "http://www.w3.org/Graphics/SVG/1.1/DTD/svg11.dtd">
<!-- Generated by graphviz version 2.43.0 (0)
 -->
<!-- Title: Pedal Pages: 1 -->
<!--zoomable 893 -->
<svg id="main" version="1.1" xmlns="http://www.w3.org/2000/svg" xmlns:xlink="http://www.w3.org/1999/xlink" xml:space="preserve" onload="init(evt)">
<style type="text/css"><![CDATA[
.edge:hover path { stroke: red; }
.edge:hover polygon { stroke: red; fill: red; }
]]></style>
<script type="text/javascript"><![CDATA[
var edges = document.getElementsByTagName('g');
if (edges && edges.length) {
  for (var i=0;i<edges.length;i++) {
    if (edges[i].id.substr(0,4)=='edge') {
      edges[i].setAttribute('class','edge');
    }
  }
}
]]></script>
        <defs>
                <circle id="rim" cx="0" cy="0" r="7"/>
                <circle id="rim2" cx="0" cy="0" r="3.5"/>
                <g id="zoomPlus">
                        <use xlink:href="#rim" fill="#404040">
                                <set attributeName="fill" to="#808080" begin="zoomplus.mouseover" end="zoomplus.mouseout"/>
                        </use>
                        <path d="M-4,0h8M0,-4v8" fill="none" stroke="white" stroke-width="1.5" pointer-events="none"/>
                </g>
                <g id="zoomMin">
                        <use xlink:href="#rim" fill="#404040">
                                <set attributeName="fill" to="#808080" begin="zoomminus.mouseover" end="zoomminus.mouseout"/>
                        </use>
                        <path d="M-4,0h8" fill="none" stroke="white" stroke-width="1.5" pointer-events="none"/>
                </g>
                <g id="dirArrow">
                        <path fill="none" stroke="white" stroke-width="1.5" d="M0,-3.0v7 M-2.5,-0.5L0,-3.0L2.5,-0.5"/>
                </g>
               <g id="resetDef">
                       <use xlink:href="#rim2" fill="#404040">
                               <set attributeName="fill" to="#808080" begin="reset.mouseover" end="reset.mouseout"/>
                       </use>
               </g>
        </defs>

<script type="text/javascript">
var viewWidth = 719;
var viewHeight = 893;
var sectionId = 'dynsection-0';
</script>
<script xlink:href="svgpan.js"/>
<svg id="graph" class="graph">
<g id="viewport">
<title>Pedal</title>
<!-- Node1 -->
<g id="node1" class="node">
<title>Node1</title>
<g id="a_node1"><a xlink:title="Pedal class for managing throttle and brake pedal inputs. Handles filtering, fault detection,...">
<polygon fill="#999999" stroke="#666666" points="440,-0.5 440,-244.5 572,-244.5 572,-0.5 440,-0.5"/>
<text text-anchor="middle" x="506" y="-232.5" font-family="Helvetica,sans-Serif" font-size="10.00">Pedal</text>
<polyline fill="none" stroke="#666666" points="440,-225.5 572,-225.5 "/>
<text text-anchor="start" x="448" y="-213.5" font-family="Helvetica,sans-Serif" font-size="10.00">+ pedal_final</text>
<text text-anchor="start" x="448" y="-202.5" font-family="Helvetica,sans-Serif" font-size="10.00">&#45; motor_can</text>
<text text-anchor="start" x="448" y="-191.5" font-family="Helvetica,sans-Serif" font-size="10.00">&#45; fault_start_millis</text>
<text text-anchor="start" x="448" y="-180.5" font-family="Helvetica,sans-Serif" font-size="10.00">&#45; stop_frame</text>
<text text-anchor="start" x="448" y="-169.5" font-family="Helvetica,sans-Serif" font-size="10.00">&#45; torque_msg</text>
<text text-anchor="start" x="448" y="-158.5" font-family="Helvetica,sans-Serif" font-size="10.00">&#45; MOTOR_SEND</text>
<text text-anchor="start" x="448" y="-147.5" font-family="Helvetica,sans-Serif" font-size="10.00">&#45; MOTOR_READ</text>
<text text-anchor="start" x="448" y="-136.5" font-family="Helvetica,sans-Serif" font-size="10.00">&#45; REGID_READ</text>
<text text-anchor="start" x="448" y="-125.5" font-family="Helvetica,sans-Serif" font-size="10.00">&#45; SPEED_IST</text>
<text text-anchor="start" x="448" y="-114.5" font-family="Helvetica,sans-Serif" font-size="10.00">&#45; WARN_ERR</text>
<text text-anchor="start" x="448" y="-103.5" font-family="Helvetica,sans-Serif" font-size="10.00">&#45; RPM_PERIOD</text>
<text text-anchor="start" x="448" y="-92.5" font-family="Helvetica,sans-Serif" font-size="10.00">&#45; ERR_PERIOD</text>
<polyline fill="none" stroke="#666666" points="440,-85.5 572,-85.5 "/>
<text text-anchor="start" x="448" y="-73.5" font-family="Helvetica,sans-Serif" font-size="10.00">+ Pedal()</text>
<text text-anchor="start" x="448" y="-62.5" font-family="Helvetica,sans-Serif" font-size="10.00">+ update()</text>
<text text-anchor="start" x="448" y="-51.5" font-family="Helvetica,sans-Serif" font-size="10.00">+ sendFrame()</text>
<text text-anchor="start" x="448" y="-40.5" font-family="Helvetica,sans-Serif" font-size="10.00">+ readMotor()</text>
<text text-anchor="start" x="448" y="-29.5" font-family="Helvetica,sans-Serif" font-size="10.00">&#45; checkPedalFault()</text>
<text text-anchor="start" x="448" y="-18.5" font-family="Helvetica,sans-Serif" font-size="10.00">&#45; pedalTorqueMapping()</text>
<text text-anchor="start" x="448" y="-7.5" font-family="Helvetica,sans-Serif" font-size="10.00">&#45; sendCyclicRead()</text>
</a>
</g>
</g>
<!-- Node2 -->
<g id="node2" class="node">
<title>Node2</title>
<g id="a_node2"><a xlink:href="structCarState.html" target="_top" xlink:title="Represents the state of the car. Holds telemetry data and status, used as central data sharing struct...">
<polygon fill="white" stroke="#666666" points="301,-336.5 301,-404.5 391,-404.5 391,-336.5 301,-336.5"/>
<text text-anchor="middle" x="346" y="-392.5" font-family="Helvetica,sans-Serif" font-size="10.00">CarState</text>
<polyline fill="none" stroke="#666666" points="301,-385.5 391,-385.5 "/>
<text text-anchor="start" x="309" y="-373.5" font-family="Helvetica,sans-Serif" font-size="10.00">+ status_millis</text>
<text text-anchor="start" x="309" y="-362.5" font-family="Helvetica,sans-Serif" font-size="10.00">+ millis</text>
<polyline fill="none" stroke="#666666" points="301,-355.5 391,-355.5 "/>
<text text-anchor="middle" x="346" y="-343.5" font-family="Helvetica,sans-Serif" font-size="10.00"> </text>
</a>
</g>
</g>
<!-- Node2&#45;&gt;Node1 -->
<g id="edge1" class="edge">
<title>Node2&#45;&gt;Node1</title>
<path fill="none" stroke="#404040" d="M367.58,-336.32C384.58,-310.19 409.31,-272.16 433.18,-235.46"/>
<polygon fill="none" stroke="#404040" points="433.34,-235.21 433.26,-228 439.89,-225.15 439.97,-232.36 433.34,-235.21"/>
<text text-anchor="middle" x="423" y="-277" font-family="Helvetica,sans-Serif" font-size="10.00"> &#45;car</text>
</g>
<!-- Node3 -->
<g id="node3" class="node">
<title>Node3</title>
<g id="a_node3"><a xlink:href="structTelemetryFramePedal.html" target="_top" xlink:title="Telemetry frame structure for the Pedals.">
<polygon fill="white" stroke="#666666" points="72.5,-474.5 72.5,-575.5 195.5,-575.5 195.5,-474.5 72.5,-474.5"/>
<text text-anchor="middle" x="134" y="-563.5" font-family="Helvetica,sans-Serif" font-size="10.00">TelemetryFramePedal</text>
<polyline fill="none" stroke="#666666" points="72.5,-556.5 195.5,-556.5 "/>
<text text-anchor="start" x="80.5" y="-544.5" font-family="Helvetica,sans-Serif" font-size="10.00">+ apps_5v</text>
<text text-anchor="start" x="80.5" y="-533.5" font-family="Helvetica,sans-Serif" font-size="10.00">+ apps_3v3</text>
<text text-anchor="start" x="80.5" y="-522.5" font-family="Helvetica,sans-Serif" font-size="10.00">+ apps_3v3_scaled</text>
<text text-anchor="start" x="80.5" y="-511.5" font-family="Helvetica,sans-Serif" font-size="10.00">+ brake</text>
<text text-anchor="start" x="80.5" y="-500.5" font-family="Helvetica,sans-Serif" font-size="10.00">+ hall_sensor</text>
<polyline fill="none" stroke="#666666" points="72.5,-493.5 195.5,-493.5 "/>
<text text-anchor="start" x="80.5" y="-481.5" font-family="Helvetica,sans-Serif" font-size="10.00">+ toCanFrame()</text>
</a>
</g>
</g>
<!-- Node3&#45;&gt;Node2 -->
<g id="edge2" class="edge">
<title>Node3&#45;&gt;Node2</title>
<path fill="none" stroke="#404040" d="M195.6,-479.69C225.68,-458.05 261.57,-432.23 290.75,-411.24"/>
<polygon fill="none" stroke="#404040" points="291.03,-411.04 293.56,-404.29 300.77,-404.04 298.23,-410.79 291.03,-411.04"/>
<text text-anchor="middle" x="259.5" y="-448" font-family="Helvetica,sans-Serif" font-size="10.00"> +pedal</text>
</g>
<!-- Node4 -->
<g id="node4" class="node">
<title>Node4</title>
<g id="a_node4"><a xlink:href="unionTelemetryFramePedal_1_1StateByteStatus.html" target="_top" xlink:title=" ">
<polygon fill="white" stroke="#666666" points="2.5,-623.5 2.5,-691.5 125.5,-691.5 125.5,-623.5 2.5,-623.5"/>
<text text-anchor="start" x="10.5" y="-679.5" font-family="Helvetica,sans-Serif" font-size="10.00">TelemetryFramePedal</text>
<text text-anchor="middle" x="64" y="-668.5" font-family="Helvetica,sans-Serif" font-size="10.00">::StateByteStatus</text>
<polyline fill="none" stroke="#666666" points="2.5,-661.5 125.5,-661.5 "/>
<text text-anchor="start" x="10.5" y="-649.5" font-family="Helvetica,sans-Serif" font-size="10.00">+ byte</text>
<polyline fill="none" stroke="#666666" points="2.5,-642.5 125.5,-642.5 "/>
<text text-anchor="middle" x="64" y="-630.5" font-family="Helvetica,sans-Serif" font-size="10.00"> </text>
</a>
</g>
</g>
<!-- Node4&#45;&gt;Node3 -->
<g id="edge3" class="edge">
<title>Node4&#45;&gt;Node3</title>
<path fill="none" stroke="#404040" d="M81.85,-623.23C87.8,-612.13 94.63,-599.4 101.35,-586.88"/>
<polygon fill="none" stroke="#404040" points="101.52,-586.55 100.83,-579.37 107.19,-575.98 107.88,-583.15 101.52,-586.55"/>
<text text-anchor="middle" x="118" y="-597" font-family="Helvetica,sans-Serif" font-size="10.00"> +status</text>
</g>
<!-- Node5 -->
<g id="node5" class="node">
<title>Node5</title>
<g id="a_node5"><a xlink:href="structTelemetryFramePedal_1_1StateByteStatus_1_1Bits.html" target="_top" xlink:title=" ">
<polygon fill="white" stroke="#666666" points="0,-745 0,-879 126,-879 126,-745 0,-745"/>
<text text-anchor="start" x="8" y="-867" font-family="Helvetica,sans-Serif" font-size="10.00">TelemetryFramePedal</text>
<text text-anchor="middle" x="63" y="-856" font-family="Helvetica,sans-Serif" font-size="10.00">::StateByteStatus::Bits</text>
<polyline fill="none" stroke="#666666" points="0,-849 126,-849 "/>
<text text-anchor="start" x="8" y="-837" font-family="Helvetica,sans-Serif" font-size="10.00">+ car_status</text>
<text text-anchor="start" x="8" y="-826" font-family="Helvetica,sans-Serif" font-size="10.00">+ state_unknown</text>
<text text-anchor="start" x="8" y="-815" font-family="Helvetica,sans-Serif" font-size="10.00">+ hv_ready</text>
<text text-anchor="start" x="8" y="-804" font-family="Helvetica,sans-Serif" font-size="10.00">+ bms_no_msg</text>
<text text-anchor="start" x="8" y="-793" font-family="Helvetica,sans-Serif" font-size="10.00">+ bms_wrong_id</text>
<text text-anchor="start" x="8" y="-782" font-family="Helvetica,sans-Serif" font-size="10.00">+ screenshot</text>
<text text-anchor="start" x="8" y="-771" font-family="Helvetica,sans-Serif" font-size="10.00">+ force_stop</text>
<polyline fill="none" stroke="#666666" points="0,-764 126,-764 "/>
<text text-anchor="middle" x="63" y="-752" font-family="Helvetica,sans-Serif" font-size="10.00"> </text>
</a>
</g>
</g>
<!-- Node5&#45;&gt;Node4 -->
<g id="edge4" class="edge">
<title>Node5&#45;&gt;Node4</title>
<path fill="none" stroke="#404040" d="M63.43,-745C63.52,-731.23 63.62,-717.01 63.7,-704.18"/>
<polygon fill="none" stroke="#404040" points="63.7,-703.88 59.74,-697.85 63.78,-691.88 67.74,-697.9 63.7,-703.88"/>
<text text-anchor="middle" x="79" y="-713" font-family="Helvetica,sans-Serif" font-size="10.00"> +bits</text>
</g>
<!-- Node6 -->
<g id="node6" class="node">
<title>Node6</title>
<g id="a_node6"><a xlink:href="unionTelemetryFramePedal_1_1StateByteFaults.html" target="_top" xlink:title=" ">
<polygon fill="white" stroke="#666666" points="144.5,-623.5 144.5,-691.5 267.5,-691.5 267.5,-623.5 144.5,-623.5"/>
<text text-anchor="start" x="152.5" y="-679.5" font-family="Helvetica,sans-Serif" font-size="10.00">TelemetryFramePedal</text>
<text text-anchor="middle" x="206" y="-668.5" font-family="Helvetica,sans-Serif" font-size="10.00">::StateByteFaults</text>
<polyline fill="none" stroke="#666666" points="144.5,-661.5 267.5,-661.5 "/>
<text text-anchor="start" x="152.5" y="-649.5" font-family="Helvetica,sans-Serif" font-size="10.00">+ byte</text>
<polyline fill="none" stroke="#666666" points="144.5,-642.5 267.5,-642.5 "/>
<text text-anchor="middle" x="206" y="-630.5" font-family="Helvetica,sans-Serif" font-size="10.00"> </text>
</a>
</g>
</g>
<!-- Node6&#45;&gt;Node3 -->
<g id="edge5" class="edge">
<title>Node6&#45;&gt;Node3</title>
<path fill="none" stroke="#404040" d="M187.65,-623.23C181.46,-612.02 174.35,-599.14 167.38,-586.5"/>
<polygon fill="none" stroke="#404040" points="167.37,-586.48 160.97,-583.16 161.57,-575.98 167.97,-579.3 167.37,-586.48"/>
<text text-anchor="middle" x="197" y="-597" font-family="Helvetica,sans-Serif" font-size="10.00"> +faults</text>
</g>
<!-- Node7 -->
<g id="node7" class="node">
<title>Node7</title>
<g id="a_node7"><a xlink:href="structTelemetryFramePedal_1_1StateByteFaults_1_1Bits.html" target="_top" xlink:title=" ">
<polygon fill="white" stroke="#666666" points="144,-739.5 144,-884.5 268,-884.5 268,-739.5 144,-739.5"/>
<text text-anchor="start" x="152" y="-872.5" font-family="Helvetica,sans-Serif" font-size="10.00">TelemetryFramePedal</text>
<text text-anchor="middle" x="206" y="-861.5" font-family="Helvetica,sans-Serif" font-size="10.00">::StateByteFaults::Bits</text>
<polyline fill="none" stroke="#666666" points="144,-854.5 268,-854.5 "/>
<text text-anchor="start" x="152" y="-842.5" font-family="Helvetica,sans-Serif" font-size="10.00">+ fault_active</text>
<text text-anchor="start" x="152" y="-831.5" font-family="Helvetica,sans-Serif" font-size="10.00">+ fault_exceeded</text>
<text text-anchor="start" x="152" y="-820.5" font-family="Helvetica,sans-Serif" font-size="10.00">+ apps_5v_low</text>
<text text-anchor="start" x="152" y="-809.5" font-family="Helvetica,sans-Serif" font-size="10.00">+ apps_5v_high</text>
<text text-anchor="start" x="152" y="-798.5" font-family="Helvetica,sans-Serif" font-size="10.00">+ apps_3v3_low</text>
<text text-anchor="start" x="152" y="-787.5" font-family="Helvetica,sans-Serif" font-size="10.00">+ apps_3v3_high</text>
<text text-anchor="start" x="152" y="-776.5" font-family="Helvetica,sans-Serif" font-size="10.00">+ brake_low</text>
<text text-anchor="start" x="152" y="-765.5" font-family="Helvetica,sans-Serif" font-size="10.00">+ brake_high</text>
<polyline fill="none" stroke="#666666" points="144,-758.5 268,-758.5 "/>
<text text-anchor="middle" x="206" y="-746.5" font-family="Helvetica,sans-Serif" font-size="10.00"> </text>
</a>
</g>
</g>
<!-- Node7&#45;&gt;Node6 -->
<g id="edge6" class="edge">
<title>Node7&#45;&gt;Node6</title>
<path fill="none" stroke="#404040" d="M206,-739.22C206,-727.09 206,-714.82 206,-703.62"/>
<polygon fill="none" stroke="#404040" points="206,-703.51 202,-697.51 206,-691.51 210,-697.51 206,-703.51"/>
<text text-anchor="middle" x="221" y="-713" font-family="Helvetica,sans-Serif" font-size="10.00"> +bits</text>
</g>
<!-- Node8 -->
<g id="node8" class="node">
<title>Node8</title>
<g id="a_node8"><a xlink:href="structTelemetryFrameMotor.html" target="_top" xlink:title="Telemetry frame structure for motor signals.">
<polygon fill="white" stroke="#666666" points="213.5,-480 213.5,-570 338.5,-570 338.5,-480 213.5,-480"/>
<text text-anchor="middle" x="276" y="-558" font-family="Helvetica,sans-Serif" font-size="10.00">TelemetryFrameMotor</text>
<polyline fill="none" stroke="#666666" points="213.5,-551 338.5,-551 "/>
<text text-anchor="start" x="221.5" y="-539" font-family="Helvetica,sans-Serif" font-size="10.00">+ torque_val</text>
<text text-anchor="start" x="221.5" y="-528" font-family="Helvetica,sans-Serif" font-size="10.00">+ motor_rpm</text>
<text text-anchor="start" x="221.5" y="-517" font-family="Helvetica,sans-Serif" font-size="10.00">+ motor_error</text>
<text text-anchor="start" x="221.5" y="-506" font-family="Helvetica,sans-Serif" font-size="10.00">+ motor_warn</text>
<polyline fill="none" stroke="#666666" points="213.5,-499 338.5,-499 "/>
<text text-anchor="start" x="221.5" y="-487" font-family="Helvetica,sans-Serif" font-size="10.00">+ toCanFrame()</text>
</a>
</g>
</g>
<!-- Node8&#45;&gt;Node2 -->
<g id="edge7" class="edge">
<title>Node8&#45;&gt;Node2</title>
<path fill="none" stroke="#404040" d="M296.25,-479.89C305.47,-459.8 316.37,-436.06 325.61,-415.92"/>
<polygon fill="none" stroke="#404040" points="325.69,-415.75 324.55,-408.63 330.69,-404.85 331.82,-411.97 325.69,-415.75"/>
<text text-anchor="middle" x="331.5" y="-448" font-family="Helvetica,sans-Serif" font-size="10.00"> +motor</text>
</g>
<!-- Node9 -->
<g id="node9" class="node">
<title>Node9</title>
<g id="a_node9"><a xlink:href="structTelemetryFrameBms.html" target="_top" xlink:title="Telemetry frame structure for the BMS data.">
<polygon fill="white" stroke="#666666" points="357,-496.5 357,-553.5 475,-553.5 475,-496.5 357,-496.5"/>
<text text-anchor="middle" x="416" y="-541.5" font-family="Helvetica,sans-Serif" font-size="10.00">TelemetryFrameBms</text>
<polyline fill="none" stroke="#666666" points="357,-534.5 475,-534.5 "/>
<text text-anchor="start" x="365" y="-522.5" font-family="Helvetica,sans-Serif" font-size="10.00">+ bms_data</text>
<polyline fill="none" stroke="#666666" points="357,-515.5 475,-515.5 "/>
<text text-anchor="start" x="365" y="-503.5" font-family="Helvetica,sans-Serif" font-size="10.00">+ toCanFrame()</text>
</a>
</g>
</g>
<!-- Node9&#45;&gt;Node2 -->
<g id="edge8" class="edge">
<title>Node9&#45;&gt;Node2</title>
<path fill="none" stroke="#404040" d="M403.32,-496.38C393.03,-473.95 378.31,-441.89 366.36,-415.86"/>
<polygon fill="none" stroke="#404040" points="366.27,-415.66 360.13,-411.88 361.27,-404.76 367.4,-408.54 366.27,-415.66"/>
<text text-anchor="middle" x="400.5" y="-448" font-family="Helvetica,sans-Serif" font-size="10.00"> +bms</text>
</g>
<!-- Node10 -->
<g id="node10" class="node">
<title>Node10</title>
<g id="a_node10"><a xlink:href="classExponentialFilter.html" target="_top" xlink:title=" ">
<polygon fill="white" stroke="#666666" points="447,-325.5 447,-415.5 565,-415.5 565,-325.5 447,-325.5"/>
<text text-anchor="start" x="455" y="-403.5" font-family="Helvetica,sans-Serif" font-size="10.00">ExponentialFilter&lt;</text>
<text text-anchor="middle" x="506" y="-392.5" font-family="Helvetica,sans-Serif" font-size="10.00"> uint16_t, uint16_t &gt;</text>
<polyline fill="none" stroke="#666666" points="447,-385.5 565,-385.5 "/>
<text text-anchor="start" x="455" y="-373.5" font-family="Helvetica,sans-Serif" font-size="10.00">&#45; last_out</text>
<polyline fill="none" stroke="#666666" points="447,-366.5 565,-366.5 "/>
<text text-anchor="start" x="455" y="-354.5" font-family="Helvetica,sans-Serif" font-size="10.00">+ ExponentialFilter()</text>
<text text-anchor="start" x="455" y="-343.5" font-family="Helvetica,sans-Serif" font-size="10.00">+ addSample()</text>
<text text-anchor="start" x="455" y="-332.5" font-family="Helvetica,sans-Serif" font-size="10.00">+ getFiltered()</text>
</a>
</g>
</g>
<!-- Node10&#45;&gt;Node1 -->
<g id="edge9" class="edge">
<title>Node10&#45;&gt;Node1</title>
<path fill="none" stroke="#404040" d="M506,-325.24C506,-305.68 506,-281.54 506,-256.85"/>
<polygon fill="none" stroke="#404040" points="506,-256.7 502,-250.7 506,-244.7 510,-250.7 506,-256.7"/>
<text text-anchor="middle" x="538.5" y="-288" font-family="Helvetica,sans-Serif" font-size="10.00"> &#45;brake_filter</text>
<text text-anchor="middle" x="538.5" y="-277" font-family="Helvetica,sans-Serif" font-size="10.00">&#45;pedal1_filter</text>
<text text-anchor="middle" x="538.5" y="-266" font-family="Helvetica,sans-Serif" font-size="10.00">&#45;pedal2_filter</text>
</g>
<!-- Node11 -->
<g id="node11" class="node">
<title>Node11</title>
<g id="a_node11"><a xlink:href="classFilter.html" target="_top" xlink:title="Abstract Base Class for signal filters. Defines the interface for adding samples and retrieving filte...">
<polygon fill="white" stroke="#666666" points="493.5,-485.5 493.5,-564.5 596.5,-564.5 596.5,-485.5 493.5,-485.5"/>
<text text-anchor="start" x="501.5" y="-552.5" font-family="Helvetica,sans-Serif" font-size="10.00">Filter&lt; TypeInput,</text>
<text text-anchor="middle" x="545" y="-541.5" font-family="Helvetica,sans-Serif" font-size="10.00"> TypeMid &gt;</text>
<polyline fill="none" stroke="#666666" points="493.5,-534.5 596.5,-534.5 "/>
<text text-anchor="middle" x="545" y="-522.5" font-family="Helvetica,sans-Serif" font-size="10.00"> </text>
<polyline fill="none" stroke="#666666" points="493.5,-515.5 596.5,-515.5 "/>
<text text-anchor="start" x="501.5" y="-503.5" font-family="Helvetica,sans-Serif" font-size="10.00">+ addSample()</text>
<text text-anchor="start" x="501.5" y="-492.5" font-family="Helvetica,sans-Serif" font-size="10.00">+ getFiltered()</text>
</a>
</g>
</g>
<!-- Node11&#45;&gt;Node10 -->
<g id="edge10" class="edge">
<title>Node11&#45;&gt;Node10</title>
<path fill="none" stroke="#63b8ff" d="M532.57,-475.39C527.67,-456.23 522.08,-434.4 517.3,-415.7"/>
<polygon fill="none" stroke="#63b8ff" points="529.19,-476.3 535.06,-485.12 535.97,-474.57 529.19,-476.3"/>
</g>
<!-- Node12 -->
<g id="node12" class="node">
<title>Node12</title>
<g id="a_node12"><a xlink:href="classLinearInterp.html" target="_top" xlink:title=" ">
<polygon fill="white" stroke="#666666" points="583,-314.5 583,-426.5 711,-426.5 711,-314.5 583,-314.5"/>
<text text-anchor="start" x="591" y="-414.5" font-family="Helvetica,sans-Serif" font-size="10.00">LinearInterp&lt; uint16</text>
<text text-anchor="middle" x="647" y="-403.5" font-family="Helvetica,sans-Serif" font-size="10.00">_t, int16_t, int32_t, 5 &gt;</text>
<polyline fill="none" stroke="#666666" points="583,-396.5 711,-396.5 "/>
<text text-anchor="middle" x="647" y="-384.5" font-family="Helvetica,sans-Serif" font-size="10.00"> </text>
<polyline fill="none" stroke="#666666" points="583,-377.5 711,-377.5 "/>
<text text-anchor="start" x="591" y="-365.5" font-family="Helvetica,sans-Serif" font-size="10.00">+ LinearInterp()</text>
<text text-anchor="start" x="591" y="-354.5" font-family="Helvetica,sans-Serif" font-size="10.00">+ LinearInterp()</text>
<text text-anchor="start" x="591" y="-343.5" font-family="Helvetica,sans-Serif" font-size="10.00">+ interp()</text>
<text text-anchor="start" x="591" y="-332.5" font-family="Helvetica,sans-Serif" font-size="10.00">+ start()</text>
<text text-anchor="start" x="591" y="-321.5" font-family="Helvetica,sans-Serif" font-size="10.00">&#45; TablePoint()</text>
</a>
</g>
</g>
<!-- Node12&#45;&gt;Node1 -->
<g id="edge11" class="edge">
<title>Node12&#45;&gt;Node1</title>
<path fill="none" stroke="#404040" d="M615.36,-314.29C604.23,-294.88 591.23,-272.2 578.15,-249.38"/>
<polygon fill="none" stroke="#404040" points="578.11,-249.31 571.66,-246.1 572.14,-238.9 578.6,-242.12 578.11,-249.31"/>
<text text-anchor="middle" x="642" y="-282.5" font-family="Helvetica,sans-Serif" font-size="10.00"> &#45;BRAKE_MAP</text>
<text text-anchor="middle" x="642" y="-271.5" font-family="Helvetica,sans-Serif" font-size="10.00">&#45;THROTTLE_MAP</text>
</g>
</g>
</svg>
        <g id="navigator" transform="translate(0 0)" fill="#404254">
                <rect fill="#f2f5e9" fill-opacity="0.5" stroke="#606060" stroke-width=".5" x="0" y="0" width="60" height="60"/>
                <use id="zoomplus" xlink:href="#zoomPlus" x="17" y="9" onmousedown="handleZoom(evt,'in')"/>
                <use id="zoomminus" xlink:href="#zoomMin" x="42" y="9" onmousedown="handleZoom(evt,'out')"/>
                <use id="reset" xlink:href="#resetDef" x="30" y="36" onmousedown="handleReset()"/>
                <g id="arrowUp" xlink:href="#dirArrow" transform="translate(30 24)" onmousedown="handlePan(0,-1)">
                  <use xlink:href="#rim" fill="#404040">
                        <set attributeName="fill" to="#808080" begin="arrowUp.mouseover" end="arrowUp.mouseout"/>
                  </use>
                  <path fill="none" stroke="white" stroke-width="1.5" d="M0,-3.0v7 M-2.5,-0.5L0,-3.0L2.5,-0.5"/>
                </g>
                <g id="arrowRight" xlink:href="#dirArrow" transform="rotate(90) translate(36 -43)" onmousedown="handlePan(1,0)">
                  <use xlink:href="#rim" fill="#404040">
                        <set attributeName="fill" to="#808080" begin="arrowRight.mouseover" end="arrowRight.mouseout"/>
                  </use>
                  <path fill="none" stroke="white" stroke-width="1.5" d="M0,-3.0v7 M-2.5,-0.5L0,-3.0L2.5,-0.5"/>
                </g>
                <g id="arrowDown" xlink:href="#dirArrow" transform="rotate(180) translate(-30 -48)" onmousedown="handlePan(0,1)">
                  <use xlink:href="#rim" fill="#404040">
                        <set attributeName="fill" to="#808080" begin="arrowDown.mouseover" end="arrowDown.mouseout"/>
                  </use>
                  <path fill="none" stroke="white" stroke-width="1.5" d="M0,-3.0v7 M-2.5,-0.5L0,-3.0L2.5,-0.5"/>
                </g>
                <g id="arrowLeft" xlink:href="#dirArrow" transform="rotate(270) translate(-36 17)" onmousedown="handlePan(-1,0)">
                  <use xlink:href="#rim" fill="#404040">
                        <set attributeName="fill" to="#808080" begin="arrowLeft.mouseover" end="arrowLeft.mouseout"/>
                  </use>
                  <path fill="none" stroke="white" stroke-width="1.5" d="M0,-3.0v7 M-2.5,-0.5L0,-3.0L2.5,-0.5"/>
                </g>
        </g>
        <svg viewBox="0 0 15 15" width="100%" height="30px" preserveAspectRatio="xMaxYMin meet">
         <g id="arrow_out" transform="scale(0.3 0.3)">
          <a xlink:href="classPedal__coll__graph_org.svg" target="_base">
           <rect id="button" ry="5" rx="5" y="6" x="6" height="38" width="38"
                fill="#f2f5e9" fill-opacity="0.5" stroke="#606060" stroke-width="1.0"/>
           <path id="arrow"
             d="M 11.500037,31.436501 C 11.940474,20.09759 22.043105,11.32322 32.158766,21.979434 L 37.068811,17.246167 C 37.068811,17.246167 37.088388,32 37.088388,32 L 22.160133,31.978069 C 22.160133,31.978069 26.997745,27.140456 26.997745,27.140456 C 18.528582,18.264221 13.291696,25.230495 11.500037,31.436501 z"
             style="fill:#404040;"/>
          </a>
         </g>
        </svg>
</svg>
