<?xml version="1.0" encoding="UTF-8" standalone="no"?>
<!DOCTYPE svg PUBLIC "-//W3C//DTD SVG 1.1//EN"
 "http://www.w3.org/Graphics/SVG/1.1/DTD/svg11.dtd">
<!-- Generated by graphviz version 2.43.0 (0)
 -->
<!-- Title: BMS Pages: 1 -->
<svg width="483pt" height="662pt"
 viewBox="0.00 0.00 483.00 662.00" xmlns="http://www.w3.org/2000/svg" xmlns:xlink="http://www.w3.org/1999/xlink">
<g id="graph0" class="graph" transform="scale(1 1) rotate(0) translate(4 658)">
<title>BMS</title>
<!-- Node1 -->
<g id="node1" class="node">
<title>Node1</title>
<g id="a_node1"><a xlink:title="BMS class for managing the Accumulator (Kclear BMS) via CAN bus.">
<polygon fill="#999999" stroke="#666666" points="233,-0.5 233,-90.5 319,-90.5 319,-0.5 233,-0.5"/>
<text text-anchor="middle" x="276" y="-78.5" font-family="Helvetica,sans-Serif" font-size="10.00">BMS</text>
<polyline fill="none" stroke="#666666" points="233,-71.5 319,-71.5 "/>
<text text-anchor="start" x="241" y="-59.5" font-family="Helvetica,sans-Serif" font-size="10.00">&#45; bms_can</text>
<text text-anchor="start" x="241" y="-48.5" font-family="Helvetica,sans-Serif" font-size="10.00">&#45; rx_bms_msg</text>
<polyline fill="none" stroke="#666666" points="233,-41.5 319,-41.5 "/>
<text text-anchor="start" x="241" y="-29.5" font-family="Helvetica,sans-Serif" font-size="10.00">+ BMS()</text>
<text text-anchor="start" x="241" y="-18.5" font-family="Helvetica,sans-Serif" font-size="10.00">+ hvReady()</text>
<text text-anchor="start" x="241" y="-7.5" font-family="Helvetica,sans-Serif" font-size="10.00">+ checkHv()</text>
</a>
</g>
</g>
<!-- Node2 -->
<g id="node2" class="node">
<title>Node2</title>
<g id="a_node2"><a xlink:href="structCarState.html" target="_top" xlink:title="Represents the state of the car. Holds telemetry data and status, used as central data sharing struct...">
<polygon fill="white" stroke="#666666" points="231,-138.5 231,-206.5 321,-206.5 321,-138.5 231,-138.5"/>
<text text-anchor="middle" x="276" y="-194.5" font-family="Helvetica,sans-Serif" font-size="10.00">CarState</text>
<polyline fill="none" stroke="#666666" points="231,-187.5 321,-187.5 "/>
<text text-anchor="start" x="239" y="-175.5" font-family="Helvetica,sans-Serif" font-size="10.00">+ status_millis</text>
<text text-anchor="start" x="239" y="-164.5" font-family="Helvetica,sans-Serif" font-size="10.00">+ millis</text>
<polyline fill="none" stroke="#666666" points="231,-157.5 321,-157.5 "/>
<text text-anchor="middle" x="276" y="-145.5" font-family="Helvetica,sans-Serif" font-size="10.00"> </text>
</a>
</g>
</g>
<!-- Node2&#45;&gt;Node1 -->
<g id="edge1" class="edge">
<title>Node2&#45;&gt;Node1</title>
<path fill="none" stroke="#404040" d="M276,-138.33C276,-127.37 276,-114.86 276,-102.67"/>
<polygon fill="none" stroke="#404040" points="276,-102.66 272,-96.66 276,-90.66 280,-96.66 276,-102.66"/>
<text text-anchor="middle" x="287" y="-112" font-family="Helvetica,sans-Serif" font-size="10.00"> &#45;car</text>
</g>
<!-- Node3 -->
<g id="node3" class="node">
<title>Node3</title>
<g id="a_node3"><a xlink:href="structTelemetryFramePedal.html" target="_top" xlink:title="Telemetry frame structure for the Pedals.">
<polygon fill="white" stroke="#666666" points="72.5,-254.5 72.5,-344.5 195.5,-344.5 195.5,-254.5 72.5,-254.5"/>
<text text-anchor="middle" x="134" y="-332.5" font-family="Helvetica,sans-Serif" font-size="10.00">TelemetryFramePedal</text>
<polyline fill="none" stroke="#666666" points="72.5,-325.5 195.5,-325.5 "/>
<text text-anchor="start" x="80.5" y="-313.5" font-family="Helvetica,sans-Serif" font-size="10.00">+ apps_5v</text>
<text text-anchor="start" x="80.5" y="-302.5" font-family="Helvetica,sans-Serif" font-size="10.00">+ apps_3v3</text>
<text text-anchor="start" x="80.5" y="-291.5" font-family="Helvetica,sans-Serif" font-size="10.00">+ brake</text>
<text text-anchor="start" x="80.5" y="-280.5" font-family="Helvetica,sans-Serif" font-size="10.00">+ hall_sensor</text>
<polyline fill="none" stroke="#666666" points="72.5,-273.5 195.5,-273.5 "/>
<text text-anchor="start" x="80.5" y="-261.5" font-family="Helvetica,sans-Serif" font-size="10.00">+ toCanFrame()</text>
</a>
</g>
</g>
<!-- Node3&#45;&gt;Node2 -->
<g id="edge2" class="edge">
<title>Node3&#45;&gt;Node2</title>
<path fill="none" stroke="#404040" d="M184.06,-254.43C198.74,-241.51 214.72,-227.45 229.18,-214.71"/>
<polygon fill="none" stroke="#404040" points="229.43,-214.5 231.29,-207.53 238.44,-206.57 236.58,-213.53 229.43,-214.5"/>
<text text-anchor="middle" x="233.5" y="-228" font-family="Helvetica,sans-Serif" font-size="10.00"> +pedal</text>
</g>
<!-- Node4 -->
<g id="node4" class="node">
<title>Node4</title>
<g id="a_node4"><a xlink:href="unionTelemetryFramePedal_1_1StateByteStatus.html" target="_top" xlink:title="Union of bits for car status besides Pedal.">
<polygon fill="white" stroke="#666666" points="2.5,-392.5 2.5,-460.5 125.5,-460.5 125.5,-392.5 2.5,-392.5"/>
<text text-anchor="start" x="10.5" y="-448.5" font-family="Helvetica,sans-Serif" font-size="10.00">TelemetryFramePedal</text>
<text text-anchor="middle" x="64" y="-437.5" font-family="Helvetica,sans-Serif" font-size="10.00">::StateByteStatus</text>
<polyline fill="none" stroke="#666666" points="2.5,-430.5 125.5,-430.5 "/>
<text text-anchor="start" x="10.5" y="-418.5" font-family="Helvetica,sans-Serif" font-size="10.00">+ byte</text>
<polyline fill="none" stroke="#666666" points="2.5,-411.5 125.5,-411.5 "/>
<text text-anchor="middle" x="64" y="-399.5" font-family="Helvetica,sans-Serif" font-size="10.00"> </text>
</a>
</g>
</g>
<!-- Node4&#45;&gt;Node3 -->
<g id="edge3" class="edge">
<title>Node4&#45;&gt;Node3</title>
<path fill="none" stroke="#404040" d="M82.57,-392.33C88.97,-380.92 96.3,-367.81 103.4,-355.15"/>
<polygon fill="none" stroke="#404040" points="103.41,-355.13 102.85,-347.94 109.27,-344.66 109.83,-351.85 103.41,-355.13"/>
<text text-anchor="middle" x="120" y="-366" font-family="Helvetica,sans-Serif" font-size="10.00"> +status</text>
</g>
<!-- Node5 -->
<g id="node5" class="node">
<title>Node5</title>
<g id="a_node5"><a xlink:href="structTelemetryFramePedal_1_1StateByteStatus_1_1Bits.html" target="_top" xlink:title="Bitfield representation of the status bits.">
<polygon fill="white" stroke="#666666" points="0,-514 0,-648 126,-648 126,-514 0,-514"/>
<text text-anchor="start" x="8" y="-636" font-family="Helvetica,sans-Serif" font-size="10.00">TelemetryFramePedal</text>
<text text-anchor="middle" x="63" y="-625" font-family="Helvetica,sans-Serif" font-size="10.00">::StateByteStatus::Bits</text>
<polyline fill="none" stroke="#666666" points="0,-618 126,-618 "/>
<text text-anchor="start" x="8" y="-606" font-family="Helvetica,sans-Serif" font-size="10.00">+ car_status</text>
<text text-anchor="start" x="8" y="-595" font-family="Helvetica,sans-Serif" font-size="10.00">+ state_unknown</text>
<text text-anchor="start" x="8" y="-584" font-family="Helvetica,sans-Serif" font-size="10.00">+ hv_ready</text>
<text text-anchor="start" x="8" y="-573" font-family="Helvetica,sans-Serif" font-size="10.00">+ bms_no_msg</text>
<text text-anchor="start" x="8" y="-562" font-family="Helvetica,sans-Serif" font-size="10.00">+ motor_no_read</text>
<text text-anchor="start" x="8" y="-551" font-family="Helvetica,sans-Serif" font-size="10.00">+ screenshot</text>
<text text-anchor="start" x="8" y="-540" font-family="Helvetica,sans-Serif" font-size="10.00">+ force_stop</text>
<polyline fill="none" stroke="#666666" points="0,-533 126,-533 "/>
<text text-anchor="middle" x="63" y="-521" font-family="Helvetica,sans-Serif" font-size="10.00"> </text>
</a>
</g>
</g>
<!-- Node5&#45;&gt;Node4 -->
<g id="edge4" class="edge">
<title>Node5&#45;&gt;Node4</title>
<path fill="none" stroke="#404040" d="M63.43,-514C63.52,-500.23 63.62,-486.01 63.7,-473.18"/>
<polygon fill="none" stroke="#404040" points="63.7,-472.88 59.74,-466.85 63.78,-460.88 67.74,-466.9 63.7,-472.88"/>
<text text-anchor="middle" x="79" y="-482" font-family="Helvetica,sans-Serif" font-size="10.00"> +bits</text>
</g>
<!-- Node6 -->
<g id="node6" class="node">
<title>Node6</title>
<g id="a_node6"><a xlink:href="unionTelemetryFramePedal_1_1StateByteFaults.html" target="_top" xlink:title="Union of bits for pedal faults.">
<polygon fill="white" stroke="#666666" points="144.5,-392.5 144.5,-460.5 267.5,-460.5 267.5,-392.5 144.5,-392.5"/>
<text text-anchor="start" x="152.5" y="-448.5" font-family="Helvetica,sans-Serif" font-size="10.00">TelemetryFramePedal</text>
<text text-anchor="middle" x="206" y="-437.5" font-family="Helvetica,sans-Serif" font-size="10.00">::StateByteFaults</text>
<polyline fill="none" stroke="#666666" points="144.5,-430.5 267.5,-430.5 "/>
<text text-anchor="start" x="152.5" y="-418.5" font-family="Helvetica,sans-Serif" font-size="10.00">+ byte</text>
<polyline fill="none" stroke="#666666" points="144.5,-411.5 267.5,-411.5 "/>
<text text-anchor="middle" x="206" y="-399.5" font-family="Helvetica,sans-Serif" font-size="10.00"> </text>
</a>
</g>
</g>
<!-- Node6&#45;&gt;Node3 -->
<g id="edge5" class="edge">
<title>Node6&#45;&gt;Node3</title>
<path fill="none" stroke="#404040" d="M186.89,-392.33C180.32,-380.92 172.77,-367.81 165.48,-355.15"/>
<polygon fill="none" stroke="#404040" points="165.43,-355.06 158.96,-351.86 159.44,-344.66 165.9,-347.86 165.43,-355.06"/>
<text text-anchor="middle" x="195" y="-366" font-family="Helvetica,sans-Serif" font-size="10.00"> +faults</text>
</g>
<!-- Node7 -->
<g id="node7" class="node">
<title>Node7</title>
<g id="a_node7"><a xlink:href="structTelemetryFramePedal_1_1StateByteFaults_1_1Bits.html" target="_top" xlink:title="Bitfield representation of the fault bits.">
<polygon fill="white" stroke="#666666" points="144,-508.5 144,-653.5 268,-653.5 268,-508.5 144,-508.5"/>
<text text-anchor="start" x="152" y="-641.5" font-family="Helvetica,sans-Serif" font-size="10.00">TelemetryFramePedal</text>
<text text-anchor="middle" x="206" y="-630.5" font-family="Helvetica,sans-Serif" font-size="10.00">::StateByteFaults::Bits</text>
<polyline fill="none" stroke="#666666" points="144,-623.5 268,-623.5 "/>
<text text-anchor="start" x="152" y="-611.5" font-family="Helvetica,sans-Serif" font-size="10.00">+ fault_active</text>
<text text-anchor="start" x="152" y="-600.5" font-family="Helvetica,sans-Serif" font-size="10.00">+ fault_exceeded</text>
<text text-anchor="start" x="152" y="-589.5" font-family="Helvetica,sans-Serif" font-size="10.00">+ apps_5v_low</text>
<text text-anchor="start" x="152" y="-578.5" font-family="Helvetica,sans-Serif" font-size="10.00">+ apps_5v_high</text>
<text text-anchor="start" x="152" y="-567.5" font-family="Helvetica,sans-Serif" font-size="10.00">+ apps_3v3_low</text>
<text text-anchor="start" x="152" y="-556.5" font-family="Helvetica,sans-Serif" font-size="10.00">+ apps_3v3_high</text>
<text text-anchor="start" x="152" y="-545.5" font-family="Helvetica,sans-Serif" font-size="10.00">+ brake_low</text>
<text text-anchor="start" x="152" y="-534.5" font-family="Helvetica,sans-Serif" font-size="10.00">+ brake_high</text>
<polyline fill="none" stroke="#666666" points="144,-527.5 268,-527.5 "/>
<text text-anchor="middle" x="206" y="-515.5" font-family="Helvetica,sans-Serif" font-size="10.00"> </text>
</a>
</g>
</g>
<!-- Node7&#45;&gt;Node6 -->
<g id="edge6" class="edge">
<title>Node7&#45;&gt;Node6</title>
<path fill="none" stroke="#404040" d="M206,-508.22C206,-496.09 206,-483.82 206,-472.62"/>
<polygon fill="none" stroke="#404040" points="206,-472.51 202,-466.51 206,-460.51 210,-466.51 206,-472.51"/>
<text text-anchor="middle" x="221" y="-482" font-family="Helvetica,sans-Serif" font-size="10.00"> +bits</text>
</g>
<!-- Node8 -->
<g id="node8" class="node">
<title>Node8</title>
<g id="a_node8"><a xlink:href="structTelemetryFrameMotor.html" target="_top" xlink:title="Telemetry frame structure for motor signals.">
<polygon fill="white" stroke="#666666" points="213.5,-254.5 213.5,-344.5 338.5,-344.5 338.5,-254.5 213.5,-254.5"/>
<text text-anchor="middle" x="276" y="-332.5" font-family="Helvetica,sans-Serif" font-size="10.00">TelemetryFrameMotor</text>
<polyline fill="none" stroke="#666666" points="213.5,-325.5 338.5,-325.5 "/>
<text text-anchor="start" x="221.5" y="-313.5" font-family="Helvetica,sans-Serif" font-size="10.00">+ torque_val</text>
<text text-anchor="start" x="221.5" y="-302.5" font-family="Helvetica,sans-Serif" font-size="10.00">+ motor_rpm</text>
<text text-anchor="start" x="221.5" y="-291.5" font-family="Helvetica,sans-Serif" font-size="10.00">+ motor_error</text>
<text text-anchor="start" x="221.5" y="-280.5" font-family="Helvetica,sans-Serif" font-size="10.00">+ motor_warn</text>
<polyline fill="none" stroke="#666666" points="213.5,-273.5 338.5,-273.5 "/>
<text text-anchor="start" x="221.5" y="-261.5" font-family="Helvetica,sans-Serif" font-size="10.00">+ toCanFrame()</text>
</a>
</g>
</g>
<!-- Node8&#45;&gt;Node2 -->
<g id="edge7" class="edge">
<title>Node8&#45;&gt;Node2</title>
<path fill="none" stroke="#404040" d="M276,-254.43C276,-242.87 276,-230.38 276,-218.76"/>
<polygon fill="none" stroke="#404040" points="276,-218.57 272,-212.57 276,-206.57 280,-212.57 276,-218.57"/>
<text text-anchor="middle" x="296.5" y="-228" font-family="Helvetica,sans-Serif" font-size="10.00"> +motor</text>
</g>
<!-- Node9 -->
<g id="node9" class="node">
<title>Node9</title>
<g id="a_node9"><a xlink:href="structTelemetryFrameBms.html" target="_top" xlink:title="Telemetry frame structure for the BMS data.">
<polygon fill="white" stroke="#666666" points="357,-271 357,-328 475,-328 475,-271 357,-271"/>
<text text-anchor="middle" x="416" y="-316" font-family="Helvetica,sans-Serif" font-size="10.00">TelemetryFrameBms</text>
<polyline fill="none" stroke="#666666" points="357,-309 475,-309 "/>
<text text-anchor="start" x="365" y="-297" font-family="Helvetica,sans-Serif" font-size="10.00">+ bms_data</text>
<polyline fill="none" stroke="#666666" points="357,-290 475,-290 "/>
<text text-anchor="start" x="365" y="-278" font-family="Helvetica,sans-Serif" font-size="10.00">+ toCanFrame()</text>
</a>
</g>
</g>
<!-- Node9&#45;&gt;Node2 -->
<g id="edge8" class="edge">
<title>Node9&#45;&gt;Node2</title>
<path fill="none" stroke="#404040" d="M384.93,-270.76C366.56,-254.35 342.94,-233.27 322.39,-214.92"/>
<polygon fill="none" stroke="#404040" points="322.15,-214.71 315.01,-213.69 313.2,-206.71 320.34,-207.73 322.15,-214.71"/>
<text text-anchor="middle" x="362.5" y="-228" font-family="Helvetica,sans-Serif" font-size="10.00"> +bms</text>
</g>
</g>
</svg>
