<?xml version="1.0" encoding="UTF-8" standalone="no"?>
<!DOCTYPE svg PUBLIC "-//W3C//DTD SVG 1.1//EN"
 "http://www.w3.org/Graphics/SVG/1.1/DTD/svg11.dtd">
<!-- Generated by graphviz version 2.43.0 (0)
 -->
<!-- Title: RingBuffer::push Pages: 1 -->
<svg width="331pt" height="27pt"
 viewBox="0.00 0.00 331.00 27.00" xmlns="http://www.w3.org/2000/svg" xmlns:xlink="http://www.w3.org/1999/xlink">
<g id="graph0" class="graph" transform="scale(1 1) rotate(0) translate(4 23)">
<title>RingBuffer::push</title>
<!-- Node1 -->
<g id="node1" class="node">
<title>Node1</title>
<g id="a_node1"><a xlink:title="Pushes a new value into the ring buffer. This will overwrite the oldest value if the buffer is full.">
<polygon fill="#999999" stroke="#666666" points="323,-19 226,-19 226,0 323,0 323,-19"/>
<text text-anchor="middle" x="274.5" y="-7" font-family="Helvetica,sans-Serif" font-size="10.00">RingBuffer::push</text>
</a>
</g>
</g>
<!-- Node2 -->
<g id="node2" class="node">
<title>Node2</title>
<g id="a_node2"><a xlink:href="classPedal.html#aef9f2037f590fd4b41f3c50a7c2b3568" target="_top" xlink:title="Updates pedal sensor readings, applies filtering, and checks for faults.">
<polygon fill="white" stroke="#666666" points="190,-19 74,-19 74,0 190,0 190,-19"/>
<text text-anchor="middle" x="132" y="-7" font-family="Helvetica,sans-Serif" font-size="10.00">Pedal::pedal_update</text>
</a>
</g>
</g>
<!-- Node1&#45;&gt;Node2 -->
<g id="edge1" class="edge">
<title>Node1&#45;&gt;Node2</title>
<path fill="none" stroke="#63b8ff" d="M215.8,-9.5C207.36,-9.5 198.68,-9.5 190.25,-9.5"/>
<polygon fill="#63b8ff" stroke="#63b8ff" points="215.93,-13 225.93,-9.5 215.93,-6 215.93,-13"/>
</g>
<!-- Node3 -->
<g id="node3" class="node">
<title>Node3</title>
<g id="a_node3"><a xlink:href="main_8cpp.html#afe461d27b9c48d5921c00d521181f12f" target="_top" xlink:title="Main loop function for the VCU system. Handles car state transitions, pipes dataflow between modules.">
<polygon fill="white" stroke="#666666" points="38,-19 0,-19 0,0 38,0 38,-19"/>
<text text-anchor="middle" x="19" y="-7" font-family="Helvetica,sans-Serif" font-size="10.00">loop</text>
</a>
</g>
</g>
<!-- Node2&#45;&gt;Node3 -->
<g id="edge2" class="edge">
<title>Node2&#45;&gt;Node3</title>
<path fill="none" stroke="#63b8ff" d="M63.62,-9.5C54.3,-9.5 45.44,-9.5 38.18,-9.5"/>
<polygon fill="#63b8ff" stroke="#63b8ff" points="63.87,-13 73.87,-9.5 63.87,-6 63.87,-13"/>
</g>
</g>
</svg>
