<?xml version="1.0" encoding="UTF-8" standalone="no"?>
<!DOCTYPE svg PUBLIC "-//W3C//DTD SVG 1.1//EN"
 "http://www.w3.org/Graphics/SVG/1.1/DTD/svg11.dtd">
<!-- Generated by graphviz version 2.43.0 (0)
 -->
<!-- Title: Pedal::throttle_torque_mapping Pages: 1 -->
<svg width="603pt" height="134pt"
 viewBox="0.00 0.00 603.00 134.00" xmlns="http://www.w3.org/2000/svg" xmlns:xlink="http://www.w3.org/1999/xlink">
<g id="graph0" class="graph" transform="scale(1 1) rotate(0) translate(4 130)">
<title>Pedal::throttle_torque_mapping</title>
<!-- Node1 -->
<g id="node1" class="node">
<title>Node1</title>
<g id="a_node1"><a xlink:title="Maps the pedal ADC to a torque value, handling deadzones and faults.">
<polygon fill="#999999" stroke="#666666" points="122,-99 0,-99 0,-69 122,-69 122,-99"/>
<text text-anchor="start" x="8" y="-87" font-family="Helvetica,sans-Serif" font-size="10.00">Pedal::throttle_torque</text>
<text text-anchor="middle" x="61" y="-76" font-family="Helvetica,sans-Serif" font-size="10.00">_mapping</text>
</a>
</g>
</g>
<!-- Node2 -->
<g id="node2" class="node">
<title>Node2</title>
<g id="a_node2"><a xlink:href="classPedal.html#a00f33fcd9507c62193f2ffc3570b7fba" target="_top" xlink:title="Maps the brake ADC to a torque value.">
<polygon fill="white" stroke="#666666" points="271,-121 158,-121 158,-91 271,-91 271,-121"/>
<text text-anchor="start" x="166" y="-109" font-family="Helvetica,sans-Serif" font-size="10.00">Pedal::brake_torque</text>
<text text-anchor="middle" x="214.5" y="-98" font-family="Helvetica,sans-Serif" font-size="10.00">_mapping</text>
</a>
</g>
</g>
<!-- Node1&#45;&gt;Node2 -->
<g id="edge1" class="edge">
<title>Node1&#45;&gt;Node2</title>
<path fill="none" stroke="#63b8ff" d="M122.31,-92.76C130.64,-93.97 139.23,-95.22 147.66,-96.44"/>
<polygon fill="#63b8ff" stroke="#63b8ff" points="147.42,-99.94 157.82,-97.91 148.43,-93.01 147.42,-99.94"/>
</g>
<!-- Node5 -->
<g id="node5" class="node">
<title>Node5</title>
<g id="a_node5"><a xlink:href="Debug_8hpp.html#a27a4d84e5afbe5f46066606c2cfcd97d" target="_top" xlink:title="Sends throttle fault debug info via CAN or serial (if enabled). Overloads for fault status with or wi...">
<polygon fill="white" stroke="#666666" points="436,-72.5 307,-72.5 307,-53.5 436,-53.5 436,-72.5"/>
<text text-anchor="middle" x="371.5" y="-60.5" font-family="Helvetica,sans-Serif" font-size="10.00">DBG_THROTTLE_FAULT</text>
</a>
</g>
</g>
<!-- Node1&#45;&gt;Node5 -->
<g id="edge7" class="edge">
<title>Node1&#45;&gt;Node5</title>
<path fill="none" stroke="#63b8ff" d="M122.21,-79.9C172.21,-76.5 243.52,-71.64 296.9,-68.01"/>
<polygon fill="#63b8ff" stroke="#63b8ff" points="297.25,-71.49 306.99,-67.32 296.77,-64.51 297.25,-71.49"/>
</g>
<!-- Node3 -->
<g id="node3" class="node">
<title>Node3</title>
<g id="a_node3"><a xlink:href="Debug_8hpp.html#ae4f010051fc0b65e53e4305c62bae986" target="_top" xlink:title="Sends brake fault debug info via CAN or serial (if enabled). Overloads for fault status with or witho...">
<polygon fill="white" stroke="#666666" points="427,-117.5 316,-117.5 316,-98.5 427,-98.5 427,-117.5"/>
<text text-anchor="middle" x="371.5" y="-105.5" font-family="Helvetica,sans-Serif" font-size="10.00">DBG_BRAKE_FAULT</text>
</a>
</g>
</g>
<!-- Node2&#45;&gt;Node3 -->
<g id="edge2" class="edge">
<title>Node2&#45;&gt;Node3</title>
<path fill="none" stroke="#63b8ff" d="M271.02,-106.72C282.31,-106.86 294.27,-107.02 305.85,-107.17"/>
<polygon fill="#63b8ff" stroke="#63b8ff" points="305.84,-110.67 315.89,-107.3 305.93,-103.67 305.84,-110.67"/>
</g>
<!-- Node2&#45;&gt;Node5 -->
<g id="edge4" class="edge">
<title>Node2&#45;&gt;Node5</title>
<path fill="none" stroke="#63b8ff" d="M269.71,-90.96C288.1,-85.86 308.42,-80.22 325.97,-75.35"/>
<polygon fill="#63b8ff" stroke="#63b8ff" points="327.24,-78.63 335.94,-72.59 325.37,-71.89 327.24,-78.63"/>
</g>
<!-- Node4 -->
<g id="node4" class="node">
<title>Node4</title>
<g id="a_node4"><a xlink:href="namespaceDebug__Serial.html#a9d828bdca10efbda9f4e147a372cbc71" target="_top" xlink:title="Prints a brake fault message to the serial console. This function formats and sends the brake fault s...">
<polygon fill="white" stroke="#666666" points="590.5,-126 476.5,-126 476.5,-96 590.5,-96 590.5,-126"/>
<text text-anchor="start" x="484.5" y="-114" font-family="Helvetica,sans-Serif" font-size="10.00">Debug_Serial::brake</text>
<text text-anchor="middle" x="533.5" y="-103" font-family="Helvetica,sans-Serif" font-size="10.00">_fault</text>
</a>
</g>
</g>
<!-- Node3&#45;&gt;Node4 -->
<g id="edge3" class="edge">
<title>Node3&#45;&gt;Node4</title>
<path fill="none" stroke="#63b8ff" d="M427.12,-109.02C439.69,-109.26 453.19,-109.51 466.2,-109.76"/>
<polygon fill="#63b8ff" stroke="#63b8ff" points="466.43,-113.26 476.5,-109.95 466.57,-106.26 466.43,-113.26"/>
</g>
<!-- Node6 -->
<g id="node6" class="node">
<title>Node6</title>
<g id="a_node6"><a xlink:href="namespaceDebug__CAN.html#a8e6443068f8aa21ba673ad7bc132e739" target="_top" xlink:title="Sends a debug throttle fault message over CAN with a float value.">
<polygon fill="white" stroke="#666666" points="591.5,-78 475.5,-78 475.5,-48 591.5,-48 591.5,-78"/>
<text text-anchor="start" x="483.5" y="-66" font-family="Helvetica,sans-Serif" font-size="10.00">Debug_CAN::throttle</text>
<text text-anchor="middle" x="533.5" y="-55" font-family="Helvetica,sans-Serif" font-size="10.00">_fault</text>
</a>
</g>
</g>
<!-- Node5&#45;&gt;Node6 -->
<g id="edge5" class="edge">
<title>Node5&#45;&gt;Node6</title>
<path fill="none" stroke="#63b8ff" d="M436.2,-63C445.73,-63 455.59,-63 465.2,-63"/>
<polygon fill="#63b8ff" stroke="#63b8ff" points="465.5,-66.5 475.5,-63 465.5,-59.5 465.5,-66.5"/>
</g>
<!-- Node7 -->
<g id="node7" class="node">
<title>Node7</title>
<g id="a_node7"><a xlink:href="namespaceDebug__Serial.html#aa73ff8f930647f4c70741b4e50ef6a5d" target="_top" xlink:title="Prints a throttle fault message to the serial console. This function formats and sends the throttle f...">
<polygon fill="white" stroke="#666666" points="595,-30 472,-30 472,0 595,0 595,-30"/>
<text text-anchor="start" x="480" y="-18" font-family="Helvetica,sans-Serif" font-size="10.00">Debug_Serial::throttle</text>
<text text-anchor="middle" x="533.5" y="-7" font-family="Helvetica,sans-Serif" font-size="10.00">_fault</text>
</a>
</g>
</g>
<!-- Node5&#45;&gt;Node7 -->
<g id="edge6" class="edge">
<title>Node5&#45;&gt;Node7</title>
<path fill="none" stroke="#63b8ff" d="M404.49,-53.4C423.96,-47.56 449.45,-39.91 472.56,-32.98"/>
<polygon fill="#63b8ff" stroke="#63b8ff" points="473.72,-36.29 482.29,-30.06 471.71,-29.58 473.72,-36.29"/>
</g>
</g>
</svg>
