<?xml version="1.0" encoding="UTF-8" standalone="no"?>
<!DOCTYPE svg PUBLIC "-//W3C//DTD SVG 1.1//EN"
 "http://www.w3.org/Graphics/SVG/1.1/DTD/svg11.dtd">
<!-- Generated by graphviz version 2.43.0 (0)
 -->
<!-- Title: Pedal::pedalTorqueMapping Pages: 1 -->
<svg width="305pt" height="101pt"
 viewBox="0.00 0.00 305.00 101.00" xmlns="http://www.w3.org/2000/svg" xmlns:xlink="http://www.w3.org/1999/xlink">
<g id="graph0" class="graph" transform="scale(1 1) rotate(0) translate(4 97)">
<title>Pedal::pedalTorqueMapping</title>
<!-- Node1 -->
<g id="node1" class="node">
<title>Node1</title>
<g id="a_node1"><a xlink:title="Maps the pedal ADC to a torque value. If no braking requested, maps throttle normally....">
<polygon fill="#999999" stroke="#666666" points="151,-56 0,-56 0,-37 151,-37 151,-56"/>
<text text-anchor="middle" x="75.5" y="-44" font-family="Helvetica,sans-Serif" font-size="10.00">Pedal::pedalTorqueMapping</text>
</a>
</g>
</g>
<!-- Node2 -->
<g id="node2" class="node">
<title>Node2</title>
<g id="a_node2"><a xlink:href="classLinearInterp.html#a3c1654f4a47bb4db5386e38a8bdd6bc1" target="_top" xlink:title="Performs linear interpolation for the given input value, using the table.">
<polygon fill="white" stroke="#666666" points="297,-93 187,-93 187,-74 297,-74 297,-93"/>
<text text-anchor="middle" x="242" y="-81" font-family="Helvetica,sans-Serif" font-size="10.00">LinearInterp::interp</text>
</a>
</g>
</g>
<!-- Node1&#45;&gt;Node2 -->
<g id="edge1" class="edge">
<title>Node1&#45;&gt;Node2</title>
<path fill="none" stroke="#63b8ff" d="M118.86,-56.03C140.08,-60.8 165.97,-66.62 188.44,-71.68"/>
<polygon fill="#63b8ff" stroke="#63b8ff" points="187.97,-75.16 198.5,-73.94 189.51,-68.33 187.97,-75.16"/>
</g>
<!-- Node3 -->
<g id="node3" class="node">
<title>Node3</title>
<g id="a_node3"><a xlink:href="main_8cpp.html#a22decc8e5af13f6021fb6ad2aaa765be" target="_top" xlink:title=" ">
<polygon fill="white" stroke="#666666" points="264,-56 220,-56 220,-37 264,-37 264,-56"/>
<text text-anchor="middle" x="242" y="-44" font-family="Helvetica,sans-Serif" font-size="10.00">pedal</text>
</a>
</g>
</g>
<!-- Node1&#45;&gt;Node3 -->
<g id="edge2" class="edge">
<title>Node1&#45;&gt;Node3</title>
<path fill="none" stroke="#63b8ff" d="M151.05,-46.5C171.69,-46.5 192.98,-46.5 209.67,-46.5"/>
<polygon fill="#63b8ff" stroke="#63b8ff" points="209.92,-50 219.92,-46.5 209.92,-43 209.92,-50"/>
</g>
<!-- Node4 -->
<g id="node4" class="node">
<title>Node4</title>
<g id="a_node4"><a xlink:href="classLinearInterp.html#ade361a63c34c53564a1bd9e8ae5b6c4b" target="_top" xlink:title="Returns the starting input value of the interpolation table.">
<polygon fill="white" stroke="#666666" points="294,-19 190,-19 190,0 294,0 294,-19"/>
<text text-anchor="middle" x="242" y="-7" font-family="Helvetica,sans-Serif" font-size="10.00">LinearInterp::start</text>
</a>
</g>
</g>
<!-- Node1&#45;&gt;Node4 -->
<g id="edge3" class="edge">
<title>Node1&#45;&gt;Node4</title>
<path fill="none" stroke="#63b8ff" d="M118.86,-36.97C140.08,-32.2 165.97,-26.38 188.44,-21.32"/>
<polygon fill="#63b8ff" stroke="#63b8ff" points="189.51,-24.67 198.5,-19.06 187.97,-17.84 189.51,-24.67"/>
</g>
</g>
</svg>
