<?xml version="1.0" encoding="UTF-8" standalone="no"?>
<!DOCTYPE svg PUBLIC "-//W3C//DTD SVG 1.1//EN"
 "http://www.w3.org/Graphics/SVG/1.1/DTD/svg11.dtd">
<!-- Generated by graphviz version 2.43.0 (0)
 -->
<!-- Title: Pedal::update Pages: 1 -->
<!--zoomable 161 -->
<svg id="main" version="1.1" xmlns="http://www.w3.org/2000/svg" xmlns:xlink="http://www.w3.org/1999/xlink" xml:space="preserve" onload="init(evt)">
<style type="text/css"><![CDATA[
.edge:hover path { stroke: red; }
.edge:hover polygon { stroke: red; fill: red; }
]]></style>
<script type="text/javascript"><![CDATA[
var edges = document.getElementsByTagName('g');
if (edges && edges.length) {
  for (var i=0;i<edges.length;i++) {
    if (edges[i].id.substr(0,4)=='edge') {
      edges[i].setAttribute('class','edge');
    }
  }
}
]]></script>
        <defs>
                <circle id="rim" cx="0" cy="0" r="7"/>
                <circle id="rim2" cx="0" cy="0" r="3.5"/>
                <g id="zoomPlus">
                        <use xlink:href="#rim" fill="#404040">
                                <set attributeName="fill" to="#808080" begin="zoomplus.mouseover" end="zoomplus.mouseout"/>
                        </use>
                        <path d="M-4,0h8M0,-4v8" fill="none" stroke="white" stroke-width="1.5" pointer-events="none"/>
                </g>
                <g id="zoomMin">
                        <use xlink:href="#rim" fill="#404040">
                                <set attributeName="fill" to="#808080" begin="zoomminus.mouseover" end="zoomminus.mouseout"/>
                        </use>
                        <path d="M-4,0h8" fill="none" stroke="white" stroke-width="1.5" pointer-events="none"/>
                </g>
                <g id="dirArrow">
                        <path fill="none" stroke="white" stroke-width="1.5" d="M0,-3.0v7 M-2.5,-0.5L0,-3.0L2.5,-0.5"/>
                </g>
               <g id="resetDef">
                       <use xlink:href="#rim2" fill="#404040">
                               <set attributeName="fill" to="#808080" begin="reset.mouseover" end="reset.mouseout"/>
                       </use>
               </g>
        </defs>

<script type="text/javascript">
var viewWidth = 593;
var viewHeight = 161;
var sectionId = 'dynsection-6';
</script>
<script xlink:href="svgpan.js"/>
<svg id="graph" class="graph">
<g id="viewport">
<title>Pedal::update</title>
<!-- Node1 -->
<g id="node1" class="node">
<title>Node1</title>
<g id="a_node1"><a xlink:title="Updates pedal sensor readings, applies filtering, and checks for faults.">
<polygon fill="#999999" stroke="#666666" points="83,-61 0,-61 0,-42 83,-42 83,-61"/>
<text text-anchor="middle" x="41.5" y="-49" font-family="Helvetica,sans-Serif" font-size="10.00">Pedal::update</text>
</a>
</g>
</g>
<!-- Node2 -->
<g id="node2" class="node">
<title>Node2</title>
<g id="a_node2"><a xlink:href="classPedal.html#a4025bb96ea422dbba6d3b604a1066bc7" target="_top" xlink:title="Checks for a fault between two pedal sensor readings.">
<polygon fill="white" stroke="#666666" points="247,-61 119,-61 119,-42 247,-42 247,-61"/>
<text text-anchor="middle" x="183" y="-49" font-family="Helvetica,sans-Serif" font-size="10.00">Pedal::checkPedalFault</text>
</a>
</g>
</g>
<!-- Node1&#45;&gt;Node2 -->
<g id="edge1" class="edge">
<title>Node1&#45;&gt;Node2</title>
<path fill="none" stroke="#63b8ff" d="M83.22,-51.5C91.26,-51.5 99.92,-51.5 108.65,-51.5"/>
<polygon fill="#63b8ff" stroke="#63b8ff" points="108.91,-55 118.91,-51.5 108.91,-48 108.91,-55"/>
</g>
<!-- Node3 -->
<g id="node3" class="node">
<title>Node3</title>
<g id="a_node3"><a xlink:href="Debug_8hpp.html#a27a4d84e5afbe5f46066606c2cfcd97d" target="_top" xlink:title="Sends throttle fault debug info via CAN or serial (if enabled). Overloads for fault status with or wi...">
<polygon fill="white" stroke="#666666" points="412,-99 283,-99 283,-80 412,-80 412,-99"/>
<text text-anchor="middle" x="347.5" y="-87" font-family="Helvetica,sans-Serif" font-size="10.00">DBG_THROTTLE_FAULT</text>
</a>
</g>
</g>
<!-- Node1&#45;&gt;Node3 -->
<g id="edge8" class="edge">
<title>Node1&#45;&gt;Node3</title>
<path fill="none" stroke="#63b8ff" d="M76.15,-61.09C89.41,-64.55 104.82,-68.16 119,-70.5 169.97,-78.9 228.02,-83.67 272.72,-86.33"/>
<polygon fill="#63b8ff" stroke="#63b8ff" points="272.73,-89.84 282.91,-86.92 273.13,-82.85 272.73,-89.84"/>
</g>
<!-- Node9 -->
<g id="node9" class="node">
<title>Node9</title>
<g id="a_node9"><a xlink:href="classRingBuffer.html#ad30671837bc9ec407735ecedaeabf36c" target="_top" xlink:title="Pushes a new value into the ring buffer. This will overwrite the oldest value if the buffer is full.">
<polygon fill="white" stroke="#666666" points="231.5,-24 134.5,-24 134.5,-5 231.5,-5 231.5,-24"/>
<text text-anchor="middle" x="183" y="-12" font-family="Helvetica,sans-Serif" font-size="10.00">RingBuffer::push</text>
</a>
</g>
</g>
<!-- Node1&#45;&gt;Node9 -->
<g id="edge9" class="edge">
<title>Node1&#45;&gt;Node9</title>
<path fill="none" stroke="#63b8ff" d="M78.42,-41.97C95.94,-37.33 117.22,-31.68 135.92,-26.72"/>
<polygon fill="#63b8ff" stroke="#63b8ff" points="136.94,-30.07 145.71,-24.12 135.15,-23.31 136.94,-30.07"/>
</g>
<!-- Node2&#45;&gt;Node3 -->
<g id="edge2" class="edge">
<title>Node2&#45;&gt;Node3</title>
<path fill="none" stroke="#63b8ff" d="M225.01,-61.09C246.55,-66.13 273.13,-72.34 295.94,-77.68"/>
<polygon fill="#63b8ff" stroke="#63b8ff" points="295.25,-81.11 305.79,-79.98 296.85,-74.29 295.25,-81.11"/>
</g>
<!-- Node6 -->
<g id="node6" class="node">
<title>Node6</title>
<g id="a_node6"><a xlink:href="Debug_8hpp.html#afa1e089b7149386f290d4ebb4d373bf6" target="_top" xlink:title="Sends throttle pedal input debug info via CAN or serial (if enabled).">
<polygon fill="white" stroke="#666666" points="402.5,-56 292.5,-56 292.5,-37 402.5,-37 402.5,-56"/>
<text text-anchor="middle" x="347.5" y="-44" font-family="Helvetica,sans-Serif" font-size="10.00">DBG_THROTTLE_IN</text>
</a>
</g>
</g>
<!-- Node2&#45;&gt;Node6 -->
<g id="edge5" class="edge">
<title>Node2&#45;&gt;Node6</title>
<path fill="none" stroke="#63b8ff" d="M247.29,-49.55C258.69,-49.2 270.58,-48.84 282,-48.48"/>
<polygon fill="#63b8ff" stroke="#63b8ff" points="282.45,-51.97 292.34,-48.17 282.24,-44.98 282.45,-51.97"/>
</g>
<!-- Node4 -->
<g id="node4" class="node">
<title>Node4</title>
<g id="a_node4"><a xlink:href="namespaceDebug__CAN.html#a8e6443068f8aa21ba673ad7bc132e739" target="_top" xlink:title="Sends a debug throttle fault message over CAN with a float value.">
<polygon fill="white" stroke="#666666" points="574.5,-152.5 458.5,-152.5 458.5,-122.5 574.5,-122.5 574.5,-152.5"/>
<text text-anchor="start" x="466.5" y="-140.5" font-family="Helvetica,sans-Serif" font-size="10.00">Debug_CAN::throttle</text>
<text text-anchor="middle" x="516.5" y="-129.5" font-family="Helvetica,sans-Serif" font-size="10.00">_fault</text>
</a>
</g>
</g>
<!-- Node3&#45;&gt;Node4 -->
<g id="edge3" class="edge">
<title>Node3&#45;&gt;Node4</title>
<path fill="none" stroke="#63b8ff" d="M381.89,-99.1C402.31,-104.97 429.06,-112.65 453.26,-119.61"/>
<polygon fill="#63b8ff" stroke="#63b8ff" points="452.52,-123.04 463.09,-122.44 454.45,-116.31 452.52,-123.04"/>
</g>
<!-- Node5 -->
<g id="node5" class="node">
<title>Node5</title>
<g id="a_node5"><a xlink:href="namespaceDebug__Serial.html#aa73ff8f930647f4c70741b4e50ef6a5d" target="_top" xlink:title="Prints a throttle fault message to the serial console. This function formats and sends the throttle f...">
<polygon fill="white" stroke="#666666" points="578,-104.5 455,-104.5 455,-74.5 578,-74.5 578,-104.5"/>
<text text-anchor="start" x="463" y="-92.5" font-family="Helvetica,sans-Serif" font-size="10.00">Debug_Serial::throttle</text>
<text text-anchor="middle" x="516.5" y="-81.5" font-family="Helvetica,sans-Serif" font-size="10.00">_fault</text>
</a>
</g>
</g>
<!-- Node3&#45;&gt;Node5 -->
<g id="edge4" class="edge">
<title>Node3&#45;&gt;Node5</title>
<path fill="none" stroke="#63b8ff" d="M412.11,-89.5C422.73,-89.5 433.8,-89.5 444.59,-89.5"/>
<polygon fill="#63b8ff" stroke="#63b8ff" points="444.82,-93 454.82,-89.5 444.82,-86 444.82,-93"/>
</g>
<!-- Node7 -->
<g id="node7" class="node">
<title>Node7</title>
<g id="a_node7"><a xlink:href="namespaceDebug__CAN.html#a5c26a2303b6fa92439c0a693728d760e" target="_top" xlink:title="Sends a debug throttle input message over CAN.">
<polygon fill="white" stroke="#666666" points="582,-56 451,-56 451,-37 582,-37 582,-56"/>
<text text-anchor="middle" x="516.5" y="-44" font-family="Helvetica,sans-Serif" font-size="10.00">Debug_CAN::throttle_in</text>
</a>
</g>
</g>
<!-- Node6&#45;&gt;Node7 -->
<g id="edge6" class="edge">
<title>Node6&#45;&gt;Node7</title>
<path fill="none" stroke="#63b8ff" d="M402.72,-46.5C414.82,-46.5 427.86,-46.5 440.62,-46.5"/>
<polygon fill="#63b8ff" stroke="#63b8ff" points="440.78,-50 450.78,-46.5 440.78,-43 440.78,-50"/>
</g>
<!-- Node8 -->
<g id="node8" class="node">
<title>Node8</title>
<g id="a_node8"><a xlink:href="namespaceDebug__Serial.html#a9e68fe4f00e7b1bf1a9c2addc2222a9b" target="_top" xlink:title="Prints a throttle input message to the serial console. This function formats and sends the throttle i...">
<polygon fill="white" stroke="#666666" points="585,-19 448,-19 448,0 585,0 585,-19"/>
<text text-anchor="middle" x="516.5" y="-7" font-family="Helvetica,sans-Serif" font-size="10.00">Debug_Serial::throttle_in</text>
</a>
</g>
</g>
<!-- Node6&#45;&gt;Node8 -->
<g id="edge7" class="edge">
<title>Node6&#45;&gt;Node8</title>
<path fill="none" stroke="#63b8ff" d="M391.51,-36.97C413.14,-32.18 439.56,-26.32 462.45,-21.25"/>
<polygon fill="#63b8ff" stroke="#63b8ff" points="463.34,-24.64 472.35,-19.06 461.83,-17.81 463.34,-24.64"/>
</g>
</g>
</svg>
        <g id="navigator" transform="translate(0 0)" fill="#404254">
                <rect fill="#f2f5e9" fill-opacity="0.5" stroke="#606060" stroke-width=".5" x="0" y="0" width="60" height="60"/>
                <use id="zoomplus" xlink:href="#zoomPlus" x="17" y="9" onmousedown="handleZoom(evt,'in')"/>
                <use id="zoomminus" xlink:href="#zoomMin" x="42" y="9" onmousedown="handleZoom(evt,'out')"/>
                <use id="reset" xlink:href="#resetDef" x="30" y="36" onmousedown="handleReset()"/>
                <g id="arrowUp" xlink:href="#dirArrow" transform="translate(30 24)" onmousedown="handlePan(0,-1)">
                  <use xlink:href="#rim" fill="#404040">
                        <set attributeName="fill" to="#808080" begin="arrowUp.mouseover" end="arrowUp.mouseout"/>
                  </use>
                  <path fill="none" stroke="white" stroke-width="1.5" d="M0,-3.0v7 M-2.5,-0.5L0,-3.0L2.5,-0.5"/>
                </g>
                <g id="arrowRight" xlink:href="#dirArrow" transform="rotate(90) translate(36 -43)" onmousedown="handlePan(1,0)">
                  <use xlink:href="#rim" fill="#404040">
                        <set attributeName="fill" to="#808080" begin="arrowRight.mouseover" end="arrowRight.mouseout"/>
                  </use>
                  <path fill="none" stroke="white" stroke-width="1.5" d="M0,-3.0v7 M-2.5,-0.5L0,-3.0L2.5,-0.5"/>
                </g>
                <g id="arrowDown" xlink:href="#dirArrow" transform="rotate(180) translate(-30 -48)" onmousedown="handlePan(0,1)">
                  <use xlink:href="#rim" fill="#404040">
                        <set attributeName="fill" to="#808080" begin="arrowDown.mouseover" end="arrowDown.mouseout"/>
                  </use>
                  <path fill="none" stroke="white" stroke-width="1.5" d="M0,-3.0v7 M-2.5,-0.5L0,-3.0L2.5,-0.5"/>
                </g>
                <g id="arrowLeft" xlink:href="#dirArrow" transform="rotate(270) translate(-36 17)" onmousedown="handlePan(-1,0)">
                  <use xlink:href="#rim" fill="#404040">
                        <set attributeName="fill" to="#808080" begin="arrowLeft.mouseover" end="arrowLeft.mouseout"/>
                  </use>
                  <path fill="none" stroke="white" stroke-width="1.5" d="M0,-3.0v7 M-2.5,-0.5L0,-3.0L2.5,-0.5"/>
                </g>
        </g>
        <svg viewBox="0 0 15 15" width="100%" height="30px" preserveAspectRatio="xMaxYMin meet">
         <g id="arrow_out" transform="scale(0.3 0.3)">
          <a xlink:href="classPedal_a0ec014fb5ce414deded33ae3db05e231_cgraph_org.svg" target="_base">
           <rect id="button" ry="5" rx="5" y="6" x="6" height="38" width="38"
                fill="#f2f5e9" fill-opacity="0.5" stroke="#606060" stroke-width="1.0"/>
           <path id="arrow"
             d="M 11.500037,31.436501 C 11.940474,20.09759 22.043105,11.32322 32.158766,21.979434 L 37.068811,17.246167 C 37.068811,17.246167 37.088388,32 37.088388,32 L 22.160133,31.978069 C 22.160133,31.978069 26.997745,27.140456 26.997745,27.140456 C 18.528582,18.264221 13.291696,25.230495 11.500037,31.436501 z"
             style="fill:#404040;"/>
          </a>
         </g>
        </svg>
</svg>
