<?xml version="1.0" encoding="UTF-8" standalone="no"?>
<!DOCTYPE svg PUBLIC "-//W3C//DTD SVG 1.1//EN"
 "http://www.w3.org/Graphics/SVG/1.1/DTD/svg11.dtd">
<!-- Generated by graphviz version 2.43.0 (0)
 -->
<!-- Title: Pedal::sendFrame Pages: 1 -->
<svg width="641pt" height="140pt"
 viewBox="0.00 0.00 641.00 140.00" xmlns="http://www.w3.org/2000/svg" xmlns:xlink="http://www.w3.org/1999/xlink">
<g id="graph0" class="graph" transform="scale(1 1) rotate(0) translate(4 136)">
<title>Pedal::sendFrame</title>
<!-- Node1 -->
<g id="node1" class="node">
<title>Node1</title>
<g id="a_node1"><a xlink:title="Sends the appropriate CAN frame based on pedal and car state.">
<polygon fill="#999999" stroke="#666666" points="104,-94 0,-94 0,-75 104,-75 104,-94"/>
<text text-anchor="middle" x="52" y="-82" font-family="Helvetica,sans-Serif" font-size="10.00">Pedal::sendFrame</text>
</a>
</g>
</g>
<!-- Node2 -->
<g id="node2" class="node">
<title>Node2</title>
<g id="a_node2"><a xlink:href="Debug_8hpp.html#a9a564faad1bd32a5894d3706e38f1067" target="_top" xlink:title="Prints a line to the serial console for throttle debug.">
<polygon fill="white" stroke="#666666" points="273.5,-122 166.5,-122 166.5,-103 273.5,-103 273.5,-122"/>
<text text-anchor="middle" x="220" y="-110" font-family="Helvetica,sans-Serif" font-size="10.00">DBGLN_THROTTLE</text>
</a>
</g>
</g>
<!-- Node1&#45;&gt;Node2 -->
<g id="edge1" class="edge">
<title>Node1&#45;&gt;Node2</title>
<path fill="none" stroke="#63b8ff" d="M104.16,-93.13C120.64,-95.91 139.1,-99.02 156.32,-101.93"/>
<polygon fill="#63b8ff" stroke="#63b8ff" points="155.85,-105.4 166.29,-103.61 157.01,-98.49 155.85,-105.4"/>
</g>
<!-- Node4 -->
<g id="node4" class="node">
<title>Node4</title>
<g id="a_node4"><a xlink:href="classPedal.html#a79e52120f8539d9e847fd0498cc47754" target="_top" xlink:title="Maps the pedal ADC to a torque value, handling deadzones and faults.">
<polygon fill="white" stroke="#666666" points="300,-76 140,-76 140,-57 300,-57 300,-76"/>
<text text-anchor="middle" x="220" y="-64" font-family="Helvetica,sans-Serif" font-size="10.00">Pedal::throttleTorqueMapping</text>
</a>
</g>
</g>
<!-- Node1&#45;&gt;Node4 -->
<g id="edge3" class="edge">
<title>Node1&#45;&gt;Node4</title>
<path fill="none" stroke="#63b8ff" d="M104.16,-78.95C112.4,-78.06 121.13,-77.11 129.95,-76.16"/>
<polygon fill="#63b8ff" stroke="#63b8ff" points="130.36,-79.63 139.92,-75.07 129.61,-72.67 130.36,-79.63"/>
</g>
<!-- Node3 -->
<g id="node3" class="node">
<title>Node3</title>
<g id="a_node3"><a xlink:href="namespaceDebug__Serial.html#a756fa9286151426012a6f8e178a6c550" target="_top" xlink:title="Prints a string AND a newline to the serial console.">
<polygon fill="white" stroke="#666666" points="471,-132 352,-132 352,-113 471,-113 471,-132"/>
<text text-anchor="middle" x="411.5" y="-120" font-family="Helvetica,sans-Serif" font-size="10.00">Debug_Serial::println</text>
</a>
</g>
</g>
<!-- Node2&#45;&gt;Node3 -->
<g id="edge2" class="edge">
<title>Node2&#45;&gt;Node3</title>
<path fill="none" stroke="#63b8ff" d="M273.53,-115.27C294.62,-116.39 319.22,-117.68 341.7,-118.87"/>
<polygon fill="#63b8ff" stroke="#63b8ff" points="341.69,-122.37 351.86,-119.41 342.06,-115.38 341.69,-122.37"/>
</g>
<!-- Node5 -->
<g id="node5" class="node">
<title>Node5</title>
<g id="a_node5"><a xlink:href="classPedal.html#a1dab9adf93f55a5d4477a840a794c0a1" target="_top" xlink:title="Maps the brake ADC to a torque value.">
<polygon fill="white" stroke="#666666" points="487,-95 336,-95 336,-76 487,-76 487,-95"/>
<text text-anchor="middle" x="411.5" y="-83" font-family="Helvetica,sans-Serif" font-size="10.00">Pedal::brakeTorqueMapping</text>
</a>
</g>
</g>
<!-- Node4&#45;&gt;Node5 -->
<g id="edge4" class="edge">
<title>Node4&#45;&gt;Node5</title>
<path fill="none" stroke="#63b8ff" d="M300.27,-74.45C308.63,-75.29 317.16,-76.14 325.59,-76.99"/>
<polygon fill="#63b8ff" stroke="#63b8ff" points="325.49,-80.49 335.79,-78.01 326.19,-73.53 325.49,-80.49"/>
</g>
<!-- Node6 -->
<g id="node6" class="node">
<title>Node6</title>
<g id="a_node6"><a xlink:href="classLinearInterp.html#a3c1654f4a47bb4db5386e38a8bdd6bc1" target="_top" xlink:title="Performs linear interpolation for the given input value, using the table.">
<polygon fill="white" stroke="#666666" points="633,-76 523,-76 523,-57 633,-57 633,-76"/>
<text text-anchor="middle" x="578" y="-64" font-family="Helvetica,sans-Serif" font-size="10.00">LinearInterp::interp</text>
</a>
</g>
</g>
<!-- Node4&#45;&gt;Node6 -->
<g id="edge6" class="edge">
<title>Node4&#45;&gt;Node6</title>
<path fill="none" stroke="#63b8ff" d="M300.01,-66.5C364.01,-66.5 453.04,-66.5 512.72,-66.5"/>
<polygon fill="#63b8ff" stroke="#63b8ff" points="512.78,-70 522.78,-66.5 512.78,-63 512.78,-70"/>
</g>
<!-- Node7 -->
<g id="node7" class="node">
<title>Node7</title>
<g id="a_node7"><a xlink:href="classLinearInterp.html#ade361a63c34c53564a1bd9e8ae5b6c4b" target="_top" xlink:title="Returns the starting input value of the interpolation table.">
<polygon fill="white" stroke="#666666" points="463.5,-19 359.5,-19 359.5,0 463.5,0 463.5,-19"/>
<text text-anchor="middle" x="411.5" y="-7" font-family="Helvetica,sans-Serif" font-size="10.00">LinearInterp::start</text>
</a>
</g>
</g>
<!-- Node4&#45;&gt;Node7 -->
<g id="edge7" class="edge">
<title>Node4&#45;&gt;Node7</title>
<path fill="none" stroke="#63b8ff" d="M252.72,-56.96C284.56,-47.38 333.77,-32.58 368.76,-22.05"/>
<polygon fill="#63b8ff" stroke="#63b8ff" points="370.11,-25.3 378.68,-19.07 368.09,-18.6 370.11,-25.3"/>
</g>
<!-- Node5&#45;&gt;Node6 -->
<g id="edge5" class="edge">
<title>Node5&#45;&gt;Node6</title>
<path fill="none" stroke="#63b8ff" d="M487.05,-76.89C495.63,-75.9 504.33,-74.89 512.76,-73.92"/>
<polygon fill="#63b8ff" stroke="#63b8ff" points="513.35,-77.38 522.88,-72.75 512.54,-70.42 513.35,-77.38"/>
</g>
</g>
</svg>
