<?xml version="1.0" encoding="UTF-8" standalone="no"?>
<!DOCTYPE svg PUBLIC "-//W3C//DTD SVG 1.1//EN"
 "http://www.w3.org/Graphics/SVG/1.1/DTD/svg11.dtd">
<!-- Generated by graphviz version 2.43.0 (0)
 -->
<!-- Title: Pedal::throttle_torque_mapping Pages: 1 -->
<!--zoomable 172 -->
<svg id="main" version="1.1" xmlns="http://www.w3.org/2000/svg" xmlns:xlink="http://www.w3.org/1999/xlink" xml:space="preserve" onload="init(evt)">
<style type="text/css"><![CDATA[
.edge:hover path { stroke: red; }
.edge:hover polygon { stroke: red; fill: red; }
]]></style>
<script type="text/javascript"><![CDATA[
var edges = document.getElementsByTagName('g');
if (edges && edges.length) {
  for (var i=0;i<edges.length;i++) {
    if (edges[i].id.substr(0,4)=='edge') {
      edges[i].setAttribute('class','edge');
    }
  }
}
]]></script>
        <defs>
                <circle id="rim" cx="0" cy="0" r="7"/>
                <circle id="rim2" cx="0" cy="0" r="3.5"/>
                <g id="zoomPlus">
                        <use xlink:href="#rim" fill="#404040">
                                <set attributeName="fill" to="#808080" begin="zoomplus.mouseover" end="zoomplus.mouseout"/>
                        </use>
                        <path d="M-4,0h8M0,-4v8" fill="none" stroke="white" stroke-width="1.5" pointer-events="none"/>
                </g>
                <g id="zoomMin">
                        <use xlink:href="#rim" fill="#404040">
                                <set attributeName="fill" to="#808080" begin="zoomminus.mouseover" end="zoomminus.mouseout"/>
                        </use>
                        <path d="M-4,0h8" fill="none" stroke="white" stroke-width="1.5" pointer-events="none"/>
                </g>
                <g id="dirArrow">
                        <path fill="none" stroke="white" stroke-width="1.5" d="M0,-3.0v7 M-2.5,-0.5L0,-3.0L2.5,-0.5"/>
                </g>
               <g id="resetDef">
                       <use xlink:href="#rim2" fill="#404040">
                               <set attributeName="fill" to="#808080" begin="reset.mouseover" end="reset.mouseout"/>
                       </use>
               </g>
        </defs>

<script type="text/javascript">
var viewWidth = 615;
var viewHeight = 172;
var sectionId = 'dynsection-10';
</script>
<script xlink:href="svgpan.js"/>
<svg id="graph" class="graph">
<g id="viewport">
<title>Pedal::throttle_torque_mapping</title>
<!-- Node1 -->
<g id="node1" class="node">
<title>Node1</title>
<g id="a_node1"><a xlink:title="Maps the pedal ADC to a torque value, handling deadzones and faults.">
<polygon fill="#999999" stroke="#666666" points="122,-99 0,-99 0,-69 122,-69 122,-99"/>
<text text-anchor="start" x="8" y="-87" font-family="Helvetica,sans-Serif" font-size="10.00">Pedal::throttle_torque</text>
<text text-anchor="middle" x="61" y="-76" font-family="Helvetica,sans-Serif" font-size="10.00">_mapping</text>
</a>
</g>
</g>
<!-- Node2 -->
<g id="node2" class="node">
<title>Node2</title>
<g id="a_node2"><a xlink:href="classPedal.html#a00f33fcd9507c62193f2ffc3570b7fba" target="_top" xlink:title="Maps the brake ADC to a torque value.">
<polygon fill="white" stroke="#666666" points="271,-121 158,-121 158,-91 271,-91 271,-121"/>
<text text-anchor="start" x="166" y="-109" font-family="Helvetica,sans-Serif" font-size="10.00">Pedal::brake_torque</text>
<text text-anchor="middle" x="214.5" y="-98" font-family="Helvetica,sans-Serif" font-size="10.00">_mapping</text>
</a>
</g>
</g>
<!-- Node1&#45;&gt;Node2 -->
<g id="edge1" class="edge">
<title>Node1&#45;&gt;Node2</title>
<path fill="none" stroke="#63b8ff" d="M122.31,-92.76C130.64,-93.97 139.23,-95.22 147.66,-96.44"/>
<polygon fill="#63b8ff" stroke="#63b8ff" points="147.42,-99.94 157.82,-97.91 148.43,-93.01 147.42,-99.94"/>
</g>
<!-- Node6 -->
<g id="node6" class="node">
<title>Node6</title>
<g id="a_node6"><a xlink:href="Debug_8h.html#a27a4d84e5afbe5f46066606c2cfcd97d" target="_top" xlink:title="Sends throttle fault debug info via CAN or serial (if enabled). Overloads for fault status with or wi...">
<polygon fill="white" stroke="#666666" points="436,-72.5 307,-72.5 307,-53.5 436,-53.5 436,-72.5"/>
<text text-anchor="middle" x="371.5" y="-60.5" font-family="Helvetica,sans-Serif" font-size="10.00">DBG_THROTTLE_FAULT</text>
</a>
</g>
</g>
<!-- Node1&#45;&gt;Node6 -->
<g id="edge8" class="edge">
<title>Node1&#45;&gt;Node6</title>
<path fill="none" stroke="#63b8ff" d="M122.21,-79.9C172.21,-76.5 243.52,-71.64 296.9,-68.01"/>
<polygon fill="#63b8ff" stroke="#63b8ff" points="297.25,-71.49 306.99,-67.32 296.77,-64.51 297.25,-71.49"/>
</g>
<!-- Node3 -->
<g id="node3" class="node">
<title>Node3</title>
<g id="a_node3"><a xlink:href="Debug_8h.html#ae4f010051fc0b65e53e4305c62bae986" target="_top" xlink:title="Sends brake fault debug info via CAN or serial (if enabled). Overloads for fault status with or witho...">
<polygon fill="white" stroke="#666666" points="427,-120.5 316,-120.5 316,-101.5 427,-101.5 427,-120.5"/>
<text text-anchor="middle" x="371.5" y="-108.5" font-family="Helvetica,sans-Serif" font-size="10.00">DBG_BRAKE_FAULT</text>
</a>
</g>
</g>
<!-- Node2&#45;&gt;Node3 -->
<g id="edge2" class="edge">
<title>Node2&#45;&gt;Node3</title>
<path fill="none" stroke="#63b8ff" d="M271.02,-107.79C282.31,-108.16 294.27,-108.54 305.85,-108.91"/>
<polygon fill="#63b8ff" stroke="#63b8ff" points="305.78,-112.41 315.89,-109.24 306,-105.42 305.78,-112.41"/>
</g>
<!-- Node2&#45;&gt;Node6 -->
<g id="edge5" class="edge">
<title>Node2&#45;&gt;Node6</title>
<path fill="none" stroke="#63b8ff" d="M269.71,-90.96C288.1,-85.86 308.42,-80.22 325.97,-75.35"/>
<polygon fill="#63b8ff" stroke="#63b8ff" points="327.24,-78.63 335.94,-72.59 325.37,-71.89 327.24,-78.63"/>
</g>
<!-- Node4 -->
<g id="node4" class="node">
<title>Node4</title>
<g id="a_node4"><a xlink:href="namespaceDebug__CAN.html#a972189e7412acf4e4b2d36c7693a3f70" target="_top" xlink:title="Sends a debug brake fault message over CAN. This function prepares a CAN frame with the brake fault s...">
<polygon fill="white" stroke="#666666" points="607,-163.5 472,-163.5 472,-144.5 607,-144.5 607,-163.5"/>
<text text-anchor="middle" x="539.5" y="-151.5" font-family="Helvetica,sans-Serif" font-size="10.00">Debug_CAN::brake_fault</text>
</a>
</g>
</g>
<!-- Node3&#45;&gt;Node4 -->
<g id="edge3" class="edge">
<title>Node3&#45;&gt;Node4</title>
<path fill="none" stroke="#63b8ff" d="M409.34,-120.54C433.73,-126.86 465.93,-135.2 492.07,-141.97"/>
<polygon fill="#63b8ff" stroke="#63b8ff" points="491.2,-145.36 501.76,-144.48 492.96,-138.59 491.2,-145.36"/>
</g>
<!-- Node5 -->
<g id="node5" class="node">
<title>Node5</title>
<g id="a_node5"><a xlink:href="namespaceDebug__Serial.html#a9d828bdca10efbda9f4e147a372cbc71" target="_top" xlink:title="Prints a brake fault message to the serial console. This function formats and sends the brake fault s...">
<polygon fill="white" stroke="#666666" points="596.5,-126 482.5,-126 482.5,-96 596.5,-96 596.5,-126"/>
<text text-anchor="start" x="490.5" y="-114" font-family="Helvetica,sans-Serif" font-size="10.00">Debug_Serial::brake</text>
<text text-anchor="middle" x="539.5" y="-103" font-family="Helvetica,sans-Serif" font-size="10.00">_fault</text>
</a>
</g>
</g>
<!-- Node3&#45;&gt;Node5 -->
<g id="edge4" class="edge">
<title>Node3&#45;&gt;Node5</title>
<path fill="none" stroke="#63b8ff" d="M427.31,-111C441.66,-111 457.29,-111 472.17,-111"/>
<polygon fill="#63b8ff" stroke="#63b8ff" points="472.32,-114.5 482.32,-111 472.32,-107.5 472.32,-114.5"/>
</g>
<!-- Node7 -->
<g id="node7" class="node">
<title>Node7</title>
<g id="a_node7"><a xlink:href="namespaceDebug__CAN.html#a8e6443068f8aa21ba673ad7bc132e739" target="_top" xlink:title="Sends a debug throttle fault message over CAN. This function prepares a CAN frame with the throttle f...">
<polygon fill="white" stroke="#666666" points="597.5,-78 481.5,-78 481.5,-48 597.5,-48 597.5,-78"/>
<text text-anchor="start" x="489.5" y="-66" font-family="Helvetica,sans-Serif" font-size="10.00">Debug_CAN::throttle</text>
<text text-anchor="middle" x="539.5" y="-55" font-family="Helvetica,sans-Serif" font-size="10.00">_fault</text>
</a>
</g>
</g>
<!-- Node6&#45;&gt;Node7 -->
<g id="edge6" class="edge">
<title>Node6&#45;&gt;Node7</title>
<path fill="none" stroke="#63b8ff" d="M436.21,-63C447.73,-63 459.78,-63 471.4,-63"/>
<polygon fill="#63b8ff" stroke="#63b8ff" points="471.48,-66.5 481.48,-63 471.48,-59.5 471.48,-66.5"/>
</g>
<!-- Node8 -->
<g id="node8" class="node">
<title>Node8</title>
<g id="a_node8"><a xlink:href="namespaceDebug__Serial.html#aa73ff8f930647f4c70741b4e50ef6a5d" target="_top" xlink:title="Prints a throttle fault message to the serial console. This function formats and sends the throttle f...">
<polygon fill="white" stroke="#666666" points="601,-30 478,-30 478,0 601,0 601,-30"/>
<text text-anchor="start" x="486" y="-18" font-family="Helvetica,sans-Serif" font-size="10.00">Debug_Serial::throttle</text>
<text text-anchor="middle" x="539.5" y="-7" font-family="Helvetica,sans-Serif" font-size="10.00">_fault</text>
</a>
</g>
</g>
<!-- Node6&#45;&gt;Node8 -->
<g id="edge7" class="edge">
<title>Node6&#45;&gt;Node8</title>
<path fill="none" stroke="#63b8ff" d="M405.69,-53.4C425.98,-47.53 452.58,-39.85 476.63,-32.89"/>
<polygon fill="#63b8ff" stroke="#63b8ff" points="477.77,-36.2 486.41,-30.06 475.83,-29.48 477.77,-36.2"/>
</g>
</g>
</svg>
        <g id="navigator" transform="translate(0 0)" fill="#404254">
                <rect fill="#f2f5e9" fill-opacity="0.5" stroke="#606060" stroke-width=".5" x="0" y="0" width="60" height="60"/>
                <use id="zoomplus" xlink:href="#zoomPlus" x="17" y="9" onmousedown="handleZoom(evt,'in')"/>
                <use id="zoomminus" xlink:href="#zoomMin" x="42" y="9" onmousedown="handleZoom(evt,'out')"/>
                <use id="reset" xlink:href="#resetDef" x="30" y="36" onmousedown="handleReset()"/>
                <g id="arrowUp" xlink:href="#dirArrow" transform="translate(30 24)" onmousedown="handlePan(0,-1)">
                  <use xlink:href="#rim" fill="#404040">
                        <set attributeName="fill" to="#808080" begin="arrowUp.mouseover" end="arrowUp.mouseout"/>
                  </use>
                  <path fill="none" stroke="white" stroke-width="1.5" d="M0,-3.0v7 M-2.5,-0.5L0,-3.0L2.5,-0.5"/>
                </g>
                <g id="arrowRight" xlink:href="#dirArrow" transform="rotate(90) translate(36 -43)" onmousedown="handlePan(1,0)">
                  <use xlink:href="#rim" fill="#404040">
                        <set attributeName="fill" to="#808080" begin="arrowRight.mouseover" end="arrowRight.mouseout"/>
                  </use>
                  <path fill="none" stroke="white" stroke-width="1.5" d="M0,-3.0v7 M-2.5,-0.5L0,-3.0L2.5,-0.5"/>
                </g>
                <g id="arrowDown" xlink:href="#dirArrow" transform="rotate(180) translate(-30 -48)" onmousedown="handlePan(0,1)">
                  <use xlink:href="#rim" fill="#404040">
                        <set attributeName="fill" to="#808080" begin="arrowDown.mouseover" end="arrowDown.mouseout"/>
                  </use>
                  <path fill="none" stroke="white" stroke-width="1.5" d="M0,-3.0v7 M-2.5,-0.5L0,-3.0L2.5,-0.5"/>
                </g>
                <g id="arrowLeft" xlink:href="#dirArrow" transform="rotate(270) translate(-36 17)" onmousedown="handlePan(-1,0)">
                  <use xlink:href="#rim" fill="#404040">
                        <set attributeName="fill" to="#808080" begin="arrowLeft.mouseover" end="arrowLeft.mouseout"/>
                  </use>
                  <path fill="none" stroke="white" stroke-width="1.5" d="M0,-3.0v7 M-2.5,-0.5L0,-3.0L2.5,-0.5"/>
                </g>
        </g>
        <svg viewBox="0 0 15 15" width="100%" height="30px" preserveAspectRatio="xMaxYMin meet">
         <g id="arrow_out" transform="scale(0.3 0.3)">
          <a xlink:href="classPedal_a04ce7e5e20d8405f10f281d6c784e1ef_cgraph_org.svg" target="_base">
           <rect id="button" ry="5" rx="5" y="6" x="6" height="38" width="38"
                fill="#f2f5e9" fill-opacity="0.5" stroke="#606060" stroke-width="1.0"/>
           <path id="arrow"
             d="M 11.500037,31.436501 C 11.940474,20.09759 22.043105,11.32322 32.158766,21.979434 L 37.068811,17.246167 C 37.068811,17.246167 37.088388,32 37.088388,32 L 22.160133,31.978069 C 22.160133,31.978069 26.997745,27.140456 26.997745,27.140456 C 18.528582,18.264221 13.291696,25.230495 11.500037,31.436501 z"
             style="fill:#404040;"/>
          </a>
         </g>
        </svg>
</svg>
