<?xml version="1.0" encoding="UTF-8" standalone="no"?>
<!DOCTYPE svg PUBLIC "-//W3C//DTD SVG 1.1//EN"
 "http://www.w3.org/Graphics/SVG/1.1/DTD/svg11.dtd">
<!-- Generated by graphviz version 2.43.0 (0)
 -->
<!-- Title: ExponentialFilter&lt; TypeInput, TypeMid, OLD_RATIO, NEW_RATIO &gt; Pages: 1 -->
<svg width="157pt" height="226pt"
 viewBox="0.00 0.00 157.00 226.00" xmlns="http://www.w3.org/2000/svg" xmlns:xlink="http://www.w3.org/1999/xlink">
<g id="graph0" class="graph" transform="scale(1 1) rotate(0) translate(4 222)">
<title>ExponentialFilter&lt; TypeInput, TypeMid, OLD_RATIO, NEW_RATIO &gt;</title>
<!-- Node1 -->
<g id="node1" class="node">
<title>Node1</title>
<g id="a_node1"><a xlink:title="Filter with exponential moving average algorithm.">
<polygon fill="#999999" stroke="#666666" points="0,-0.5 0,-101.5 149,-101.5 149,-0.5 0,-0.5"/>
<text text-anchor="start" x="8" y="-89.5" font-family="Helvetica,sans-Serif" font-size="10.00">ExponentialFilter&lt;</text>
<text text-anchor="start" x="8" y="-78.5" font-family="Helvetica,sans-Serif" font-size="10.00"> TypeInput, TypeMid,</text>
<text text-anchor="middle" x="74.5" y="-67.5" font-family="Helvetica,sans-Serif" font-size="10.00"> OLD_RATIO, NEW_RATIO &gt;</text>
<polyline fill="none" stroke="#666666" points="0,-60.5 149,-60.5 "/>
<text text-anchor="start" x="8" y="-48.5" font-family="Helvetica,sans-Serif" font-size="10.00">&#45; last_out</text>
<polyline fill="none" stroke="#666666" points="0,-41.5 149,-41.5 "/>
<text text-anchor="start" x="8" y="-29.5" font-family="Helvetica,sans-Serif" font-size="10.00">+ ExponentialFilter()</text>
<text text-anchor="start" x="8" y="-18.5" font-family="Helvetica,sans-Serif" font-size="10.00">+ addSample()</text>
<text text-anchor="start" x="8" y="-7.5" font-family="Helvetica,sans-Serif" font-size="10.00">+ getFiltered()</text>
</a>
</g>
</g>
<!-- Node2 -->
<g id="node2" class="node">
<title>Node2</title>
<g id="a_node2"><a xlink:href="classFilter.html" target="_top" xlink:title="Abstract Base Class for signal filters. Defines the interface for adding samples and retrieving filte...">
<polygon fill="white" stroke="#666666" points="23,-138.5 23,-217.5 126,-217.5 126,-138.5 23,-138.5"/>
<text text-anchor="start" x="31" y="-205.5" font-family="Helvetica,sans-Serif" font-size="10.00">Filter&lt; TypeInput,</text>
<text text-anchor="middle" x="74.5" y="-194.5" font-family="Helvetica,sans-Serif" font-size="10.00"> TypeMid &gt;</text>
<polyline fill="none" stroke="#666666" points="23,-187.5 126,-187.5 "/>
<text text-anchor="middle" x="74.5" y="-175.5" font-family="Helvetica,sans-Serif" font-size="10.00"> </text>
<polyline fill="none" stroke="#666666" points="23,-168.5 126,-168.5 "/>
<text text-anchor="start" x="31" y="-156.5" font-family="Helvetica,sans-Serif" font-size="10.00">+ addSample()</text>
<text text-anchor="start" x="31" y="-145.5" font-family="Helvetica,sans-Serif" font-size="10.00">+ getFiltered()</text>
</a>
</g>
</g>
<!-- Node2&#45;&gt;Node1 -->
<g id="edge1" class="edge">
<title>Node2&#45;&gt;Node1</title>
<path fill="none" stroke="#63b8ff" d="M74.5,-128.41C74.5,-119.64 74.5,-110.49 74.5,-101.69"/>
<polygon fill="none" stroke="#63b8ff" points="71,-128.48 74.5,-138.48 78,-128.48 71,-128.48"/>
</g>
</g>
</svg>
