<?xml version="1.0" encoding="UTF-8" standalone="no"?>
<!DOCTYPE svg PUBLIC "-//W3C//DTD SVG 1.1//EN"
 "http://www.w3.org/Graphics/SVG/1.1/DTD/svg11.dtd">
<!-- Generated by graphviz version 2.43.0 (0)
 -->
<!-- Title: Pedal Pages: 1 -->
<svg width="865pt" height="915pt"
 viewBox="0.00 0.00 865.00 915.00" xmlns="http://www.w3.org/2000/svg" xmlns:xlink="http://www.w3.org/1999/xlink">
<g id="graph0" class="graph" transform="scale(1 1) rotate(0) translate(4 911)">
<title>Pedal</title>
<!-- Node1 -->
<g id="node1" class="node">
<title>Node1</title>
<g id="a_node1"><a xlink:title="Pedal class for managing throttle and brake pedal inputs. Handles filtering, fault detection,...">
<polygon fill="#999999" stroke="#666666" points="534.5,-0.5 534.5,-255.5 669.5,-255.5 669.5,-0.5 534.5,-0.5"/>
<text text-anchor="middle" x="602" y="-243.5" font-family="Helvetica,sans-Serif" font-size="10.00">Pedal</text>
<polyline fill="none" stroke="#666666" points="534.5,-236.5 669.5,-236.5 "/>
<text text-anchor="start" x="542.5" y="-224.5" font-family="Helvetica,sans-Serif" font-size="10.00">+ pedal_final</text>
<text text-anchor="start" x="542.5" y="-213.5" font-family="Helvetica,sans-Serif" font-size="10.00">&#45; motor_can</text>
<text text-anchor="start" x="542.5" y="-202.5" font-family="Helvetica,sans-Serif" font-size="10.00">&#45; fault_start_millis</text>
<text text-anchor="start" x="542.5" y="-191.5" font-family="Helvetica,sans-Serif" font-size="10.00">&#45; last_motor_read_millis</text>
<text text-anchor="start" x="542.5" y="-180.5" font-family="Helvetica,sans-Serif" font-size="10.00">&#45; stop_frame</text>
<text text-anchor="start" x="542.5" y="-169.5" font-family="Helvetica,sans-Serif" font-size="10.00">&#45; torque_msg</text>
<text text-anchor="start" x="542.5" y="-158.5" font-family="Helvetica,sans-Serif" font-size="10.00">&#45; MOTOR_SEND</text>
<text text-anchor="start" x="542.5" y="-147.5" font-family="Helvetica,sans-Serif" font-size="10.00">&#45; MOTOR_READ</text>
<text text-anchor="start" x="542.5" y="-136.5" font-family="Helvetica,sans-Serif" font-size="10.00">&#45; REGID_READ</text>
<text text-anchor="start" x="542.5" y="-125.5" font-family="Helvetica,sans-Serif" font-size="10.00">&#45; SPEED_IST</text>
<text text-anchor="start" x="542.5" y="-114.5" font-family="Helvetica,sans-Serif" font-size="10.00">&#45; WARN_ERR</text>
<text text-anchor="start" x="542.5" y="-103.5" font-family="Helvetica,sans-Serif" font-size="10.00">&#45; RPM_PERIOD</text>
<text text-anchor="start" x="542.5" y="-92.5" font-family="Helvetica,sans-Serif" font-size="10.00">&#45; ERR_PERIOD</text>
<polyline fill="none" stroke="#666666" points="534.5,-85.5 669.5,-85.5 "/>
<text text-anchor="start" x="542.5" y="-73.5" font-family="Helvetica,sans-Serif" font-size="10.00">+ Pedal()</text>
<text text-anchor="start" x="542.5" y="-62.5" font-family="Helvetica,sans-Serif" font-size="10.00">+ update()</text>
<text text-anchor="start" x="542.5" y="-51.5" font-family="Helvetica,sans-Serif" font-size="10.00">+ sendFrame()</text>
<text text-anchor="start" x="542.5" y="-40.5" font-family="Helvetica,sans-Serif" font-size="10.00">+ readMotor()</text>
<text text-anchor="start" x="542.5" y="-29.5" font-family="Helvetica,sans-Serif" font-size="10.00">&#45; checkPedalFault()</text>
<text text-anchor="start" x="542.5" y="-18.5" font-family="Helvetica,sans-Serif" font-size="10.00">&#45; pedalTorqueMapping()</text>
<text text-anchor="start" x="542.5" y="-7.5" font-family="Helvetica,sans-Serif" font-size="10.00">&#45; sendCyclicRead()</text>
</a>
</g>
</g>
<!-- Node2 -->
<g id="node2" class="node">
<title>Node2</title>
<g id="a_node2"><a xlink:href="structCarState.html" target="_top" xlink:title="Represents the state of the car. Holds telemetry data and status, used as central data sharing struct...">
<polygon fill="white" stroke="#666666" points="301,-358.5 301,-426.5 391,-426.5 391,-358.5 301,-358.5"/>
<text text-anchor="middle" x="346" y="-414.5" font-family="Helvetica,sans-Serif" font-size="10.00">CarState</text>
<polyline fill="none" stroke="#666666" points="301,-407.5 391,-407.5 "/>
<text text-anchor="start" x="309" y="-395.5" font-family="Helvetica,sans-Serif" font-size="10.00">+ status_millis</text>
<text text-anchor="start" x="309" y="-384.5" font-family="Helvetica,sans-Serif" font-size="10.00">+ millis</text>
<polyline fill="none" stroke="#666666" points="301,-377.5 391,-377.5 "/>
<text text-anchor="middle" x="346" y="-365.5" font-family="Helvetica,sans-Serif" font-size="10.00"> </text>
</a>
</g>
</g>
<!-- Node2&#45;&gt;Node1 -->
<g id="edge1" class="edge">
<title>Node2&#45;&gt;Node1</title>
<path fill="none" stroke="#404040" d="M378.42,-358.25C415.31,-320.43 476.79,-257.39 525.95,-206.98"/>
<polygon fill="none" stroke="#404040" points="525.98,-206.95 527.3,-199.86 534.36,-198.36 533.03,-205.45 525.98,-206.95"/>
<text text-anchor="middle" x="470" y="-288" font-family="Helvetica,sans-Serif" font-size="10.00"> &#45;car</text>
</g>
<!-- Node3 -->
<g id="node3" class="node">
<title>Node3</title>
<g id="a_node3"><a xlink:href="structTelemetryFramePedal.html" target="_top" xlink:title="Telemetry frame structure for the Pedals.">
<polygon fill="white" stroke="#666666" points="72.5,-507.5 72.5,-597.5 195.5,-597.5 195.5,-507.5 72.5,-507.5"/>
<text text-anchor="middle" x="134" y="-585.5" font-family="Helvetica,sans-Serif" font-size="10.00">TelemetryFramePedal</text>
<polyline fill="none" stroke="#666666" points="72.5,-578.5 195.5,-578.5 "/>
<text text-anchor="start" x="80.5" y="-566.5" font-family="Helvetica,sans-Serif" font-size="10.00">+ apps_5v</text>
<text text-anchor="start" x="80.5" y="-555.5" font-family="Helvetica,sans-Serif" font-size="10.00">+ apps_3v3</text>
<text text-anchor="start" x="80.5" y="-544.5" font-family="Helvetica,sans-Serif" font-size="10.00">+ brake</text>
<text text-anchor="start" x="80.5" y="-533.5" font-family="Helvetica,sans-Serif" font-size="10.00">+ hall_sensor</text>
<polyline fill="none" stroke="#666666" points="72.5,-526.5 195.5,-526.5 "/>
<text text-anchor="start" x="80.5" y="-514.5" font-family="Helvetica,sans-Serif" font-size="10.00">+ toCanFrame()</text>
</a>
</g>
</g>
<!-- Node3&#45;&gt;Node2 -->
<g id="edge2" class="edge">
<title>Node3&#45;&gt;Node2</title>
<path fill="none" stroke="#404040" d="M193.05,-507.49C223.98,-484.44 261.6,-456.4 291.79,-433.91"/>
<polygon fill="none" stroke="#404040" points="292.1,-433.67 294.52,-426.88 301.72,-426.5 299.3,-433.3 292.1,-433.67"/>
<text text-anchor="middle" x="247.5" y="-481" font-family="Helvetica,sans-Serif" font-size="10.00"> +pedal</text>
</g>
<!-- Node4 -->
<g id="node4" class="node">
<title>Node4</title>
<g id="a_node4"><a xlink:href="unionTelemetryFramePedal_1_1StateByteStatus.html" target="_top" xlink:title="Union of bits for car status besides Pedal.">
<polygon fill="white" stroke="#666666" points="2.5,-645.5 2.5,-713.5 125.5,-713.5 125.5,-645.5 2.5,-645.5"/>
<text text-anchor="start" x="10.5" y="-701.5" font-family="Helvetica,sans-Serif" font-size="10.00">TelemetryFramePedal</text>
<text text-anchor="middle" x="64" y="-690.5" font-family="Helvetica,sans-Serif" font-size="10.00">::StateByteStatus</text>
<polyline fill="none" stroke="#666666" points="2.5,-683.5 125.5,-683.5 "/>
<text text-anchor="start" x="10.5" y="-671.5" font-family="Helvetica,sans-Serif" font-size="10.00">+ byte</text>
<polyline fill="none" stroke="#666666" points="2.5,-664.5 125.5,-664.5 "/>
<text text-anchor="middle" x="64" y="-652.5" font-family="Helvetica,sans-Serif" font-size="10.00"> </text>
</a>
</g>
</g>
<!-- Node4&#45;&gt;Node3 -->
<g id="edge3" class="edge">
<title>Node4&#45;&gt;Node3</title>
<path fill="none" stroke="#404040" d="M82.57,-645.33C88.97,-633.92 96.3,-620.81 103.4,-608.15"/>
<polygon fill="none" stroke="#404040" points="103.41,-608.13 102.85,-600.94 109.27,-597.66 109.83,-604.85 103.41,-608.13"/>
<text text-anchor="middle" x="120" y="-619" font-family="Helvetica,sans-Serif" font-size="10.00"> +status</text>
</g>
<!-- Node5 -->
<g id="node5" class="node">
<title>Node5</title>
<g id="a_node5"><a xlink:href="structTelemetryFramePedal_1_1StateByteStatus_1_1Bits.html" target="_top" xlink:title="Bitfield representation of the status bits.">
<polygon fill="white" stroke="#666666" points="0,-767 0,-901 126,-901 126,-767 0,-767"/>
<text text-anchor="start" x="8" y="-889" font-family="Helvetica,sans-Serif" font-size="10.00">TelemetryFramePedal</text>
<text text-anchor="middle" x="63" y="-878" font-family="Helvetica,sans-Serif" font-size="10.00">::StateByteStatus::Bits</text>
<polyline fill="none" stroke="#666666" points="0,-871 126,-871 "/>
<text text-anchor="start" x="8" y="-859" font-family="Helvetica,sans-Serif" font-size="10.00">+ car_status</text>
<text text-anchor="start" x="8" y="-848" font-family="Helvetica,sans-Serif" font-size="10.00">+ state_unknown</text>
<text text-anchor="start" x="8" y="-837" font-family="Helvetica,sans-Serif" font-size="10.00">+ hv_ready</text>
<text text-anchor="start" x="8" y="-826" font-family="Helvetica,sans-Serif" font-size="10.00">+ bms_no_msg</text>
<text text-anchor="start" x="8" y="-815" font-family="Helvetica,sans-Serif" font-size="10.00">+ motor_no_read</text>
<text text-anchor="start" x="8" y="-804" font-family="Helvetica,sans-Serif" font-size="10.00">+ screenshot</text>
<text text-anchor="start" x="8" y="-793" font-family="Helvetica,sans-Serif" font-size="10.00">+ force_stop</text>
<polyline fill="none" stroke="#666666" points="0,-786 126,-786 "/>
<text text-anchor="middle" x="63" y="-774" font-family="Helvetica,sans-Serif" font-size="10.00"> </text>
</a>
</g>
</g>
<!-- Node5&#45;&gt;Node4 -->
<g id="edge4" class="edge">
<title>Node5&#45;&gt;Node4</title>
<path fill="none" stroke="#404040" d="M63.43,-767C63.52,-753.23 63.62,-739.01 63.7,-726.18"/>
<polygon fill="none" stroke="#404040" points="63.7,-725.88 59.74,-719.85 63.78,-713.88 67.74,-719.9 63.7,-725.88"/>
<text text-anchor="middle" x="79" y="-735" font-family="Helvetica,sans-Serif" font-size="10.00"> +bits</text>
</g>
<!-- Node6 -->
<g id="node6" class="node">
<title>Node6</title>
<g id="a_node6"><a xlink:href="unionTelemetryFramePedal_1_1StateByteFaults.html" target="_top" xlink:title="Union of bits for pedal faults.">
<polygon fill="white" stroke="#666666" points="144.5,-645.5 144.5,-713.5 267.5,-713.5 267.5,-645.5 144.5,-645.5"/>
<text text-anchor="start" x="152.5" y="-701.5" font-family="Helvetica,sans-Serif" font-size="10.00">TelemetryFramePedal</text>
<text text-anchor="middle" x="206" y="-690.5" font-family="Helvetica,sans-Serif" font-size="10.00">::StateByteFaults</text>
<polyline fill="none" stroke="#666666" points="144.5,-683.5 267.5,-683.5 "/>
<text text-anchor="start" x="152.5" y="-671.5" font-family="Helvetica,sans-Serif" font-size="10.00">+ byte</text>
<polyline fill="none" stroke="#666666" points="144.5,-664.5 267.5,-664.5 "/>
<text text-anchor="middle" x="206" y="-652.5" font-family="Helvetica,sans-Serif" font-size="10.00"> </text>
</a>
</g>
</g>
<!-- Node6&#45;&gt;Node3 -->
<g id="edge5" class="edge">
<title>Node6&#45;&gt;Node3</title>
<path fill="none" stroke="#404040" d="M186.89,-645.33C180.32,-633.92 172.77,-620.81 165.48,-608.15"/>
<polygon fill="none" stroke="#404040" points="165.43,-608.06 158.96,-604.86 159.44,-597.66 165.9,-600.86 165.43,-608.06"/>
<text text-anchor="middle" x="195" y="-619" font-family="Helvetica,sans-Serif" font-size="10.00"> +faults</text>
</g>
<!-- Node7 -->
<g id="node7" class="node">
<title>Node7</title>
<g id="a_node7"><a xlink:href="structTelemetryFramePedal_1_1StateByteFaults_1_1Bits.html" target="_top" xlink:title="Bitfield representation of the fault bits.">
<polygon fill="white" stroke="#666666" points="144,-761.5 144,-906.5 268,-906.5 268,-761.5 144,-761.5"/>
<text text-anchor="start" x="152" y="-894.5" font-family="Helvetica,sans-Serif" font-size="10.00">TelemetryFramePedal</text>
<text text-anchor="middle" x="206" y="-883.5" font-family="Helvetica,sans-Serif" font-size="10.00">::StateByteFaults::Bits</text>
<polyline fill="none" stroke="#666666" points="144,-876.5 268,-876.5 "/>
<text text-anchor="start" x="152" y="-864.5" font-family="Helvetica,sans-Serif" font-size="10.00">+ fault_active</text>
<text text-anchor="start" x="152" y="-853.5" font-family="Helvetica,sans-Serif" font-size="10.00">+ fault_exceeded</text>
<text text-anchor="start" x="152" y="-842.5" font-family="Helvetica,sans-Serif" font-size="10.00">+ apps_5v_low</text>
<text text-anchor="start" x="152" y="-831.5" font-family="Helvetica,sans-Serif" font-size="10.00">+ apps_5v_high</text>
<text text-anchor="start" x="152" y="-820.5" font-family="Helvetica,sans-Serif" font-size="10.00">+ apps_3v3_low</text>
<text text-anchor="start" x="152" y="-809.5" font-family="Helvetica,sans-Serif" font-size="10.00">+ apps_3v3_high</text>
<text text-anchor="start" x="152" y="-798.5" font-family="Helvetica,sans-Serif" font-size="10.00">+ brake_low</text>
<text text-anchor="start" x="152" y="-787.5" font-family="Helvetica,sans-Serif" font-size="10.00">+ brake_high</text>
<polyline fill="none" stroke="#666666" points="144,-780.5 268,-780.5 "/>
<text text-anchor="middle" x="206" y="-768.5" font-family="Helvetica,sans-Serif" font-size="10.00"> </text>
</a>
</g>
</g>
<!-- Node7&#45;&gt;Node6 -->
<g id="edge6" class="edge">
<title>Node7&#45;&gt;Node6</title>
<path fill="none" stroke="#404040" d="M206,-761.22C206,-749.09 206,-736.82 206,-725.62"/>
<polygon fill="none" stroke="#404040" points="206,-725.51 202,-719.51 206,-713.51 210,-719.51 206,-725.51"/>
<text text-anchor="middle" x="221" y="-735" font-family="Helvetica,sans-Serif" font-size="10.00"> +bits</text>
</g>
<!-- Node8 -->
<g id="node8" class="node">
<title>Node8</title>
<g id="a_node8"><a xlink:href="structTelemetryFrameMotor.html" target="_top" xlink:title="Telemetry frame structure for motor signals.">
<polygon fill="white" stroke="#666666" points="213.5,-507.5 213.5,-597.5 338.5,-597.5 338.5,-507.5 213.5,-507.5"/>
<text text-anchor="middle" x="276" y="-585.5" font-family="Helvetica,sans-Serif" font-size="10.00">TelemetryFrameMotor</text>
<polyline fill="none" stroke="#666666" points="213.5,-578.5 338.5,-578.5 "/>
<text text-anchor="start" x="221.5" y="-566.5" font-family="Helvetica,sans-Serif" font-size="10.00">+ torque_val</text>
<text text-anchor="start" x="221.5" y="-555.5" font-family="Helvetica,sans-Serif" font-size="10.00">+ motor_rpm</text>
<text text-anchor="start" x="221.5" y="-544.5" font-family="Helvetica,sans-Serif" font-size="10.00">+ motor_error</text>
<text text-anchor="start" x="221.5" y="-533.5" font-family="Helvetica,sans-Serif" font-size="10.00">+ motor_warn</text>
<polyline fill="none" stroke="#666666" points="213.5,-526.5 338.5,-526.5 "/>
<text text-anchor="start" x="221.5" y="-514.5" font-family="Helvetica,sans-Serif" font-size="10.00">+ toCanFrame()</text>
</a>
</g>
</g>
<!-- Node8&#45;&gt;Node2 -->
<g id="edge7" class="edge">
<title>Node8&#45;&gt;Node2</title>
<path fill="none" stroke="#404040" d="M295.5,-507.49C305.1,-485.82 316.65,-459.74 326.28,-438"/>
<polygon fill="none" stroke="#404040" points="326.41,-437.73 325.18,-430.62 331.27,-426.75 332.49,-433.86 326.41,-437.73"/>
<text text-anchor="middle" x="327.5" y="-481" font-family="Helvetica,sans-Serif" font-size="10.00"> +motor</text>
</g>
<!-- Node9 -->
<g id="node9" class="node">
<title>Node9</title>
<g id="a_node9"><a xlink:href="structTelemetryFrameBms.html" target="_top" xlink:title="Telemetry frame structure for the BMS data.">
<polygon fill="white" stroke="#666666" points="357,-524 357,-581 475,-581 475,-524 357,-524"/>
<text text-anchor="middle" x="416" y="-569" font-family="Helvetica,sans-Serif" font-size="10.00">TelemetryFrameBms</text>
<polyline fill="none" stroke="#666666" points="357,-562 475,-562 "/>
<text text-anchor="start" x="365" y="-550" font-family="Helvetica,sans-Serif" font-size="10.00">+ bms_data</text>
<polyline fill="none" stroke="#666666" points="357,-543 475,-543 "/>
<text text-anchor="start" x="365" y="-531" font-family="Helvetica,sans-Serif" font-size="10.00">+ toCanFrame()</text>
</a>
</g>
</g>
<!-- Node9&#45;&gt;Node2 -->
<g id="edge8" class="edge">
<title>Node9&#45;&gt;Node2</title>
<path fill="none" stroke="#404040" d="M403.81,-523.98C393.27,-500.2 377.85,-465.4 365.59,-437.72"/>
<polygon fill="none" stroke="#404040" points="365.58,-437.7 359.5,-433.84 360.72,-426.73 366.81,-430.6 365.58,-437.7"/>
<text text-anchor="middle" x="404.5" y="-481" font-family="Helvetica,sans-Serif" font-size="10.00"> +bms</text>
</g>
<!-- Node10 -->
<g id="node10" class="node">
<title>Node10</title>
<g id="a_node10"><a xlink:href="classExponentialFilter.html" target="_top" xlink:title=" ">
<polygon fill="white" stroke="#666666" points="447,-347.5 447,-437.5 565,-437.5 565,-347.5 447,-347.5"/>
<text text-anchor="start" x="455" y="-425.5" font-family="Helvetica,sans-Serif" font-size="10.00">ExponentialFilter&lt;</text>
<text text-anchor="middle" x="506" y="-414.5" font-family="Helvetica,sans-Serif" font-size="10.00"> uint16_t, uint16_t &gt;</text>
<polyline fill="none" stroke="#666666" points="447,-407.5 565,-407.5 "/>
<text text-anchor="start" x="455" y="-395.5" font-family="Helvetica,sans-Serif" font-size="10.00">&#45; last_out</text>
<polyline fill="none" stroke="#666666" points="447,-388.5 565,-388.5 "/>
<text text-anchor="start" x="455" y="-376.5" font-family="Helvetica,sans-Serif" font-size="10.00">+ ExponentialFilter()</text>
<text text-anchor="start" x="455" y="-365.5" font-family="Helvetica,sans-Serif" font-size="10.00">+ addSample()</text>
<text text-anchor="start" x="455" y="-354.5" font-family="Helvetica,sans-Serif" font-size="10.00">+ getFiltered()</text>
</a>
</g>
</g>
<!-- Node10&#45;&gt;Node1 -->
<g id="edge9" class="edge">
<title>Node10&#45;&gt;Node1</title>
<path fill="none" stroke="#404040" d="M522.18,-347.27C530.38,-324.82 540.85,-296.2 551.49,-267.12"/>
<polygon fill="none" stroke="#404040" points="551.6,-266.81 549.91,-259.8 555.72,-255.54 557.42,-262.54 551.6,-266.81"/>
<text text-anchor="middle" x="581.5" y="-299" font-family="Helvetica,sans-Serif" font-size="10.00"> &#45;brake_filter</text>
<text text-anchor="middle" x="581.5" y="-288" font-family="Helvetica,sans-Serif" font-size="10.00">&#45;pedal1_filter</text>
<text text-anchor="middle" x="581.5" y="-277" font-family="Helvetica,sans-Serif" font-size="10.00">&#45;pedal2_filter</text>
</g>
<!-- Node11 -->
<g id="node11" class="node">
<title>Node11</title>
<g id="a_node11"><a xlink:href="classFilter.html" target="_top" xlink:title="Abstract Base Class for signal filters. Defines the interface for adding samples and retrieving filte...">
<polygon fill="white" stroke="#666666" points="493.5,-513 493.5,-592 596.5,-592 596.5,-513 493.5,-513"/>
<text text-anchor="start" x="501.5" y="-580" font-family="Helvetica,sans-Serif" font-size="10.00">Filter&lt; TypeInput,</text>
<text text-anchor="middle" x="545" y="-569" font-family="Helvetica,sans-Serif" font-size="10.00"> TypeMid &gt;</text>
<polyline fill="none" stroke="#666666" points="493.5,-562 596.5,-562 "/>
<text text-anchor="middle" x="545" y="-550" font-family="Helvetica,sans-Serif" font-size="10.00"> </text>
<polyline fill="none" stroke="#666666" points="493.5,-543 596.5,-543 "/>
<text text-anchor="start" x="501.5" y="-531" font-family="Helvetica,sans-Serif" font-size="10.00">+ addSample()</text>
<text text-anchor="start" x="501.5" y="-520" font-family="Helvetica,sans-Serif" font-size="10.00">+ getFiltered()</text>
</a>
</g>
</g>
<!-- Node11&#45;&gt;Node10 -->
<g id="edge10" class="edge">
<title>Node11&#45;&gt;Node10</title>
<path fill="none" stroke="#63b8ff" d="M533.01,-502.92C527.87,-482.09 521.9,-457.93 516.89,-437.61"/>
<polygon fill="none" stroke="#63b8ff" points="529.67,-503.98 535.46,-512.85 536.46,-502.3 529.67,-503.98"/>
</g>
<!-- Node12 -->
<g id="node12" class="node">
<title>Node12</title>
<g id="a_node12"><a xlink:href="classLinearInterp.html" target="_top" xlink:title=" ">
<polygon fill="white" stroke="#666666" points="583,-331 583,-454 711,-454 711,-331 583,-331"/>
<text text-anchor="start" x="591" y="-442" font-family="Helvetica,sans-Serif" font-size="10.00">LinearInterp&lt; uint16</text>
<text text-anchor="middle" x="647" y="-431" font-family="Helvetica,sans-Serif" font-size="10.00">_t, int16_t, int32_t, 5 &gt;</text>
<polyline fill="none" stroke="#666666" points="583,-424 711,-424 "/>
<text text-anchor="middle" x="647" y="-412" font-family="Helvetica,sans-Serif" font-size="10.00"> </text>
<polyline fill="none" stroke="#666666" points="583,-405 711,-405 "/>
<text text-anchor="start" x="591" y="-393" font-family="Helvetica,sans-Serif" font-size="10.00">+ LinearInterp()</text>
<text text-anchor="start" x="591" y="-382" font-family="Helvetica,sans-Serif" font-size="10.00">+ LinearInterp()</text>
<text text-anchor="start" x="591" y="-371" font-family="Helvetica,sans-Serif" font-size="10.00">+ interp()</text>
<text text-anchor="start" x="591" y="-360" font-family="Helvetica,sans-Serif" font-size="10.00">+ start()</text>
<text text-anchor="start" x="591" y="-349" font-family="Helvetica,sans-Serif" font-size="10.00">+ range()</text>
<text text-anchor="start" x="591" y="-338" font-family="Helvetica,sans-Serif" font-size="10.00">&#45; TablePoint()</text>
</a>
</g>
</g>
<!-- Node12&#45;&gt;Node1 -->
<g id="edge11" class="edge">
<title>Node12&#45;&gt;Node1</title>
<path fill="none" stroke="#404040" d="M636.62,-330.95C633.34,-311.82 629.57,-289.85 625.76,-267.59"/>
<polygon fill="none" stroke="#404040" points="625.73,-267.4 620.77,-262.16 623.7,-255.57 628.65,-260.81 625.73,-267.4"/>
<text text-anchor="middle" x="673" y="-293.5" font-family="Helvetica,sans-Serif" font-size="10.00"> &#45;BRAKE_MAP</text>
<text text-anchor="middle" x="673" y="-282.5" font-family="Helvetica,sans-Serif" font-size="10.00">&#45;THROTTLE_MAP</text>
</g>
<!-- Node13 -->
<g id="node13" class="node">
<title>Node13</title>
<g id="a_node13"><a xlink:href="classLinearInterp.html" target="_top" xlink:title=" ">
<polygon fill="white" stroke="#666666" points="729.5,-325.5 729.5,-459.5 846.5,-459.5 846.5,-325.5 729.5,-325.5"/>
<text text-anchor="start" x="737.5" y="-447.5" font-family="Helvetica,sans-Serif" font-size="10.00">LinearInterp&lt; uint16</text>
<text text-anchor="start" x="737.5" y="-436.5" font-family="Helvetica,sans-Serif" font-size="10.00">_t, uint16_t, uint32</text>
<text text-anchor="middle" x="788" y="-425.5" font-family="Helvetica,sans-Serif" font-size="10.00">_t, 2 &gt;</text>
<polyline fill="none" stroke="#666666" points="729.5,-418.5 846.5,-418.5 "/>
<text text-anchor="middle" x="788" y="-406.5" font-family="Helvetica,sans-Serif" font-size="10.00"> </text>
<polyline fill="none" stroke="#666666" points="729.5,-399.5 846.5,-399.5 "/>
<text text-anchor="start" x="737.5" y="-387.5" font-family="Helvetica,sans-Serif" font-size="10.00">+ LinearInterp()</text>
<text text-anchor="start" x="737.5" y="-376.5" font-family="Helvetica,sans-Serif" font-size="10.00">+ LinearInterp()</text>
<text text-anchor="start" x="737.5" y="-365.5" font-family="Helvetica,sans-Serif" font-size="10.00">+ interp()</text>
<text text-anchor="start" x="737.5" y="-354.5" font-family="Helvetica,sans-Serif" font-size="10.00">+ start()</text>
<text text-anchor="start" x="737.5" y="-343.5" font-family="Helvetica,sans-Serif" font-size="10.00">+ range()</text>
<text text-anchor="start" x="737.5" y="-332.5" font-family="Helvetica,sans-Serif" font-size="10.00">&#45; TablePoint()</text>
</a>
</g>
</g>
<!-- Node13&#45;&gt;Node1 -->
<g id="edge12" class="edge">
<title>Node13&#45;&gt;Node1</title>
<path fill="none" stroke="#404040" d="M750.68,-325.24C740.53,-308.24 729.23,-290.2 718,-274 705.45,-255.89 691.33,-237.12 677.38,-219.32"/>
<polygon fill="none" stroke="#404040" points="677.1,-218.96 670.24,-216.74 669.66,-209.55 676.52,-211.78 677.1,-218.96"/>
<text text-anchor="middle" x="797.5" y="-288" font-family="Helvetica,sans-Serif" font-size="10.00"> &#45;APPS_3V3_SCALE_MAP</text>
</g>
</g>
</svg>
