<?xml version="1.0" encoding="UTF-8" standalone="no"?>
<!DOCTYPE svg PUBLIC "-//W3C//DTD SVG 1.1//EN"
 "http://www.w3.org/Graphics/SVG/1.1/DTD/svg11.dtd">
<!-- Generated by graphviz version 2.43.0 (0)
 -->
<!-- Title: Pedal::update Pages: 1 -->
<svg width="579pt" height="114pt"
 viewBox="0.00 0.00 579.00 113.50" xmlns="http://www.w3.org/2000/svg" xmlns:xlink="http://www.w3.org/1999/xlink">
<g id="graph0" class="graph" transform="scale(1 1) rotate(0) translate(4 109.5)">
<title>Pedal::update</title>
<!-- Node1 -->
<g id="node1" class="node">
<title>Node1</title>
<g id="a_node1"><a xlink:title="Updates pedal sensor readings, applies filtering, and checks for faults.">
<polygon fill="#999999" stroke="#666666" points="83,-57 0,-57 0,-38 83,-38 83,-57"/>
<text text-anchor="middle" x="41.5" y="-45" font-family="Helvetica,sans-Serif" font-size="10.00">Pedal::update</text>
</a>
</g>
</g>
<!-- Node2 -->
<g id="node2" class="node">
<title>Node2</title>
<g id="a_node2"><a xlink:href="classPedal.html#a4025bb96ea422dbba6d3b604a1066bc7" target="_top" xlink:title="Checks for a fault between two pedal sensor readings.">
<polygon fill="white" stroke="#666666" points="247,-95 119,-95 119,-76 247,-76 247,-95"/>
<text text-anchor="middle" x="183" y="-83" font-family="Helvetica,sans-Serif" font-size="10.00">Pedal::checkPedalFault</text>
</a>
</g>
</g>
<!-- Node1&#45;&gt;Node2 -->
<g id="edge1" class="edge">
<title>Node1&#45;&gt;Node2</title>
<path fill="none" stroke="#63b8ff" d="M77.7,-57.09C95.71,-61.99 117.83,-68.02 137.06,-73.26"/>
<polygon fill="#63b8ff" stroke="#63b8ff" points="136.24,-76.66 146.81,-75.91 138.08,-69.91 136.24,-76.66"/>
</g>
<!-- Node3 -->
<g id="node3" class="node">
<title>Node3</title>
<g id="a_node3"><a xlink:href="Debug_8hpp.html#a27a4d84e5afbe5f46066606c2cfcd97d" target="_top" xlink:title="Sends throttle fault debug info via CAN or serial (if enabled). Overloads for fault status with or wi...">
<polygon fill="white" stroke="#666666" points="412,-76 283,-76 283,-57 412,-57 412,-76"/>
<text text-anchor="middle" x="347.5" y="-64" font-family="Helvetica,sans-Serif" font-size="10.00">DBG_THROTTLE_FAULT</text>
</a>
</g>
</g>
<!-- Node1&#45;&gt;Node3 -->
<g id="edge5" class="edge">
<title>Node1&#45;&gt;Node3</title>
<path fill="none" stroke="#63b8ff" d="M83.18,-50.04C131.51,-53.06 213.08,-58.16 272.65,-61.88"/>
<polygon fill="#63b8ff" stroke="#63b8ff" points="272.56,-65.39 282.76,-62.52 272.99,-58.4 272.56,-65.39"/>
</g>
<!-- Node6 -->
<g id="node6" class="node">
<title>Node6</title>
<g id="a_node6"><a xlink:href="classRingBuffer.html#ad30671837bc9ec407735ecedaeabf36c" target="_top" xlink:title="Pushes a new value into the ring buffer. This will overwrite the oldest value if the buffer is full.">
<polygon fill="white" stroke="#666666" points="231.5,-19 134.5,-19 134.5,0 231.5,0 231.5,-19"/>
<text text-anchor="middle" x="183" y="-7" font-family="Helvetica,sans-Serif" font-size="10.00">RingBuffer::push</text>
</a>
</g>
</g>
<!-- Node1&#45;&gt;Node6 -->
<g id="edge6" class="edge">
<title>Node1&#45;&gt;Node6</title>
<path fill="none" stroke="#63b8ff" d="M77.7,-37.91C95.71,-33.01 117.83,-26.98 137.06,-21.74"/>
<polygon fill="#63b8ff" stroke="#63b8ff" points="138.08,-25.09 146.81,-19.09 136.24,-18.34 138.08,-25.09"/>
</g>
<!-- Node2&#45;&gt;Node3 -->
<g id="edge2" class="edge">
<title>Node2&#45;&gt;Node3</title>
<path fill="none" stroke="#63b8ff" d="M247.29,-78.1C255.68,-77.12 264.34,-76.11 272.89,-75.11"/>
<polygon fill="#63b8ff" stroke="#63b8ff" points="273.32,-78.58 282.85,-73.94 272.51,-71.63 273.32,-78.58"/>
</g>
<!-- Node4 -->
<g id="node4" class="node">
<title>Node4</title>
<g id="a_node4"><a xlink:href="namespaceDebug__CAN.html#a8e6443068f8aa21ba673ad7bc132e739" target="_top" xlink:title="Sends a debug throttle fault message over CAN with a float value.">
<polygon fill="white" stroke="#666666" points="567.5,-105.5 451.5,-105.5 451.5,-75.5 567.5,-75.5 567.5,-105.5"/>
<text text-anchor="start" x="459.5" y="-93.5" font-family="Helvetica,sans-Serif" font-size="10.00">Debug_CAN::throttle</text>
<text text-anchor="middle" x="509.5" y="-82.5" font-family="Helvetica,sans-Serif" font-size="10.00">_fault</text>
</a>
</g>
</g>
<!-- Node3&#45;&gt;Node4 -->
<g id="edge3" class="edge">
<title>Node3&#45;&gt;Node4</title>
<path fill="none" stroke="#63b8ff" d="M412.2,-76.05C421.83,-77.5 431.8,-78.99 441.5,-80.45"/>
<polygon fill="#63b8ff" stroke="#63b8ff" points="441.09,-83.93 451.5,-81.95 442.13,-77 441.09,-83.93"/>
</g>
<!-- Node5 -->
<g id="node5" class="node">
<title>Node5</title>
<g id="a_node5"><a xlink:href="namespaceDebug__Serial.html#aa73ff8f930647f4c70741b4e50ef6a5d" target="_top" xlink:title="Prints a throttle fault message to the serial console. This function formats and sends the throttle f...">
<polygon fill="white" stroke="#666666" points="571,-57.5 448,-57.5 448,-27.5 571,-27.5 571,-57.5"/>
<text text-anchor="start" x="456" y="-45.5" font-family="Helvetica,sans-Serif" font-size="10.00">Debug_Serial::throttle</text>
<text text-anchor="middle" x="509.5" y="-34.5" font-family="Helvetica,sans-Serif" font-size="10.00">_fault</text>
</a>
</g>
</g>
<!-- Node3&#45;&gt;Node5 -->
<g id="edge4" class="edge">
<title>Node3&#45;&gt;Node5</title>
<path fill="none" stroke="#63b8ff" d="M412.2,-56.95C420.65,-55.68 429.36,-54.37 437.93,-53.09"/>
<polygon fill="#63b8ff" stroke="#63b8ff" points="438.52,-56.54 447.89,-51.59 437.48,-49.61 438.52,-56.54"/>
</g>
</g>
</svg>
