<?xml version="1.0" encoding="UTF-8" standalone="no"?>
<!DOCTYPE svg PUBLIC "-//W3C//DTD SVG 1.1//EN"
 "http://www.w3.org/Graphics/SVG/1.1/DTD/svg11.dtd">
<!-- Generated by graphviz version 2.43.0 (0)
 -->
<!-- Title: Telemetry Pages: 1 -->
<svg width="478pt" height="667pt"
 viewBox="0.00 0.00 478.00 667.00" xmlns="http://www.w3.org/2000/svg" xmlns:xlink="http://www.w3.org/1999/xlink">
<g id="graph0" class="graph" transform="scale(1 1) rotate(0) translate(4 663)">
<title>Telemetry</title>
<!-- Node1 -->
<g id="node1" class="node">
<title>Node1</title>
<g id="a_node1"><a xlink:title=" ">
<polygon fill="#999999" stroke="#666666" points="126.5,-0.5 126.5,-189.5 265.5,-189.5 265.5,-0.5 126.5,-0.5"/>
<text text-anchor="middle" x="196" y="-177.5" font-family="Helvetica,sans-Serif" font-size="10.00">Telemetry</text>
<polyline fill="none" stroke="#666666" points="126.5,-170.5 265.5,-170.5 "/>
<text text-anchor="start" x="134.5" y="-158.5" font-family="Helvetica,sans-Serif" font-size="10.00">&#45; mcp2515</text>
<text text-anchor="start" x="134.5" y="-147.5" font-family="Helvetica,sans-Serif" font-size="10.00">&#45; count</text>
<text text-anchor="start" x="134.5" y="-136.5" font-family="Helvetica,sans-Serif" font-size="10.00">&#45; NUM_FREQ_FRAMES</text>
<text text-anchor="start" x="134.5" y="-125.5" font-family="Helvetica,sans-Serif" font-size="10.00">&#45; NUM_INFREQ_FRAMES</text>
<text text-anchor="start" x="134.5" y="-114.5" font-family="Helvetica,sans-Serif" font-size="10.00">&#45; FRAMES_FREQ_RATIO</text>
<text text-anchor="start" x="134.5" y="-103.5" font-family="Helvetica,sans-Serif" font-size="10.00">&#45; MAX_FRAME_COUNTER</text>
<text text-anchor="start" x="134.5" y="-92.5" font-family="Helvetica,sans-Serif" font-size="10.00">&#45; TelemetryAdcMsg</text>
<text text-anchor="start" x="134.5" y="-81.5" font-family="Helvetica,sans-Serif" font-size="10.00">&#45; TelemetryDigitalMsg</text>
<text text-anchor="start" x="134.5" y="-70.5" font-family="Helvetica,sans-Serif" font-size="10.00">&#45; TelemetryStateMsg</text>
<polyline fill="none" stroke="#666666" points="126.5,-63.5 265.5,-63.5 "/>
<text text-anchor="start" x="134.5" y="-51.5" font-family="Helvetica,sans-Serif" font-size="10.00">+ Telemetry()</text>
<text text-anchor="start" x="134.5" y="-40.5" font-family="Helvetica,sans-Serif" font-size="10.00">+ sendTelemetry()</text>
<text text-anchor="start" x="134.5" y="-29.5" font-family="Helvetica,sans-Serif" font-size="10.00">&#45; schedulerAdc()</text>
<text text-anchor="start" x="134.5" y="-18.5" font-family="Helvetica,sans-Serif" font-size="10.00">&#45; schedulerDigital()</text>
<text text-anchor="start" x="134.5" y="-7.5" font-family="Helvetica,sans-Serif" font-size="10.00">&#45; schedulerStates()</text>
</a>
</g>
</g>
<!-- Node2 -->
<g id="node2" class="node">
<title>Node2</title>
<g id="a_node2"><a xlink:href="structCarState.html" target="_top" xlink:title="Represents the state of the car. Holds telemetry data and status, used as central data sharing struct...">
<polygon fill="white" stroke="#666666" points="151,-237.5 151,-305.5 241,-305.5 241,-237.5 151,-237.5"/>
<text text-anchor="middle" x="196" y="-293.5" font-family="Helvetica,sans-Serif" font-size="10.00">CarState</text>
<polyline fill="none" stroke="#666666" points="151,-286.5 241,-286.5 "/>
<text text-anchor="start" x="159" y="-274.5" font-family="Helvetica,sans-Serif" font-size="10.00">+ status_millis</text>
<text text-anchor="start" x="159" y="-263.5" font-family="Helvetica,sans-Serif" font-size="10.00">+ millis</text>
<polyline fill="none" stroke="#666666" points="151,-256.5 241,-256.5 "/>
<text text-anchor="middle" x="196" y="-244.5" font-family="Helvetica,sans-Serif" font-size="10.00"> </text>
</a>
</g>
</g>
<!-- Node2&#45;&gt;Node1 -->
<g id="edge1" class="edge">
<title>Node2&#45;&gt;Node1</title>
<path fill="none" stroke="#404040" d="M196,-237.27C196,-226.85 196,-214.74 196,-202.08"/>
<polygon fill="none" stroke="#404040" points="196,-201.8 192,-195.8 196,-189.8 200,-195.8 196,-201.8"/>
<text text-anchor="middle" x="207" y="-211" font-family="Helvetica,sans-Serif" font-size="10.00"> &#45;car</text>
</g>
<!-- Node3 -->
<g id="node3" class="node">
<title>Node3</title>
<g id="a_node3"><a xlink:href="structTelemetryFrameAdc.html" target="_top" xlink:title="Telemetry frame structure for ADC readings.">
<polygon fill="white" stroke="#666666" points="0,-353.5 0,-443.5 114,-443.5 114,-353.5 0,-353.5"/>
<text text-anchor="middle" x="57" y="-431.5" font-family="Helvetica,sans-Serif" font-size="10.00">TelemetryFrameAdc</text>
<polyline fill="none" stroke="#666666" points="0,-424.5 114,-424.5 "/>
<text text-anchor="start" x="8" y="-412.5" font-family="Helvetica,sans-Serif" font-size="10.00">+ apps_5v</text>
<text text-anchor="start" x="8" y="-401.5" font-family="Helvetica,sans-Serif" font-size="10.00">+ apps_3v3</text>
<text text-anchor="start" x="8" y="-390.5" font-family="Helvetica,sans-Serif" font-size="10.00">+ brake</text>
<text text-anchor="start" x="8" y="-379.5" font-family="Helvetica,sans-Serif" font-size="10.00">+ hall_sensor</text>
<polyline fill="none" stroke="#666666" points="0,-372.5 114,-372.5 "/>
<text text-anchor="start" x="8" y="-360.5" font-family="Helvetica,sans-Serif" font-size="10.00">+ toCanFrame()</text>
</a>
</g>
</g>
<!-- Node3&#45;&gt;Node2 -->
<g id="edge2" class="edge">
<title>Node3&#45;&gt;Node2</title>
<path fill="none" stroke="#404040" d="M106.01,-353.43C120.37,-340.51 136.01,-326.45 150.17,-313.71"/>
<polygon fill="none" stroke="#404040" points="150.31,-313.59 152.09,-306.6 159.23,-305.57 157.44,-312.55 150.31,-313.59"/>
<text text-anchor="middle" x="148.5" y="-327" font-family="Helvetica,sans-Serif" font-size="10.00"> +adc</text>
</g>
<!-- Node4 -->
<g id="node4" class="node">
<title>Node4</title>
<g id="a_node4"><a xlink:href="structTelemetryFrameDigital.html" target="_top" xlink:title="Telemetry frame structure for digital signals.">
<polygon fill="white" stroke="#666666" points="132,-353.5 132,-443.5 260,-443.5 260,-353.5 132,-353.5"/>
<text text-anchor="middle" x="196" y="-431.5" font-family="Helvetica,sans-Serif" font-size="10.00">TelemetryFrameDigital</text>
<polyline fill="none" stroke="#666666" points="132,-424.5 260,-424.5 "/>
<text text-anchor="start" x="140" y="-412.5" font-family="Helvetica,sans-Serif" font-size="10.00">+ motor_rpm</text>
<text text-anchor="start" x="140" y="-401.5" font-family="Helvetica,sans-Serif" font-size="10.00">+ motor_speed</text>
<text text-anchor="start" x="140" y="-390.5" font-family="Helvetica,sans-Serif" font-size="10.00">+ apps_3v3_scaled</text>
<text text-anchor="start" x="140" y="-379.5" font-family="Helvetica,sans-Serif" font-size="10.00">+ torque_val</text>
<polyline fill="none" stroke="#666666" points="132,-372.5 260,-372.5 "/>
<text text-anchor="start" x="140" y="-360.5" font-family="Helvetica,sans-Serif" font-size="10.00">+ toCanFrame()</text>
</a>
</g>
</g>
<!-- Node4&#45;&gt;Node2 -->
<g id="edge3" class="edge">
<title>Node4&#45;&gt;Node2</title>
<path fill="none" stroke="#404040" d="M196,-353.43C196,-341.87 196,-329.38 196,-317.76"/>
<polygon fill="none" stroke="#404040" points="196,-317.57 192,-311.57 196,-305.57 200,-311.57 196,-317.57"/>
<text text-anchor="middle" x="217.5" y="-327" font-family="Helvetica,sans-Serif" font-size="10.00"> +digital</text>
</g>
<!-- Node5 -->
<g id="node5" class="node">
<title>Node5</title>
<g id="a_node5"><a xlink:href="structTelemetryFrameState.html" target="_top" xlink:title="Telemetry frame structure for VCU states.">
<polygon fill="white" stroke="#666666" points="278,-370 278,-427 400,-427 400,-370 278,-370"/>
<text text-anchor="middle" x="339" y="-415" font-family="Helvetica,sans-Serif" font-size="10.00">TelemetryFrameState</text>
<polyline fill="none" stroke="#666666" points="278,-408 400,-408 "/>
<text text-anchor="start" x="286" y="-396" font-family="Helvetica,sans-Serif" font-size="10.00">+ bms_data</text>
<polyline fill="none" stroke="#666666" points="278,-389 400,-389 "/>
<text text-anchor="start" x="286" y="-377" font-family="Helvetica,sans-Serif" font-size="10.00">+ toCanFrame()</text>
</a>
</g>
</g>
<!-- Node5&#45;&gt;Node2 -->
<g id="edge4" class="edge">
<title>Node5&#45;&gt;Node2</title>
<path fill="none" stroke="#404040" d="M307.26,-369.76C288.41,-353.28 264.15,-332.08 243.1,-313.67"/>
<polygon fill="none" stroke="#404040" points="243.03,-313.61 235.88,-312.67 234,-305.71 241.15,-306.65 243.03,-313.61"/>
<text text-anchor="middle" x="285.5" y="-327" font-family="Helvetica,sans-Serif" font-size="10.00"> +state</text>
</g>
<!-- Node6 -->
<g id="node6" class="node">
<title>Node6</title>
<g id="a_node6"><a xlink:href="unionTelemetryFrameState_1_1StateByte0.html" target="_top" xlink:title=" ">
<polygon fill="white" stroke="#666666" points="208,-497 208,-653 330,-653 330,-497 208,-497"/>
<text text-anchor="start" x="216" y="-641" font-family="Helvetica,sans-Serif" font-size="10.00">TelemetryFrameState</text>
<text text-anchor="middle" x="269" y="-630" font-family="Helvetica,sans-Serif" font-size="10.00">::StateByte0</text>
<polyline fill="none" stroke="#666666" points="208,-623 330,-623 "/>
<text text-anchor="start" x="216" y="-611" font-family="Helvetica,sans-Serif" font-size="10.00">+ byte</text>
<text text-anchor="start" x="216" y="-600" font-family="Helvetica,sans-Serif" font-size="10.00">+ car_status</text>
<text text-anchor="start" x="216" y="-589" font-family="Helvetica,sans-Serif" font-size="10.00">+ state_unknown</text>
<text text-anchor="start" x="216" y="-578" font-family="Helvetica,sans-Serif" font-size="10.00">+ hv_ready</text>
<text text-anchor="start" x="216" y="-567" font-family="Helvetica,sans-Serif" font-size="10.00">+ bms_no_msg</text>
<text text-anchor="start" x="216" y="-556" font-family="Helvetica,sans-Serif" font-size="10.00">+ bms_wrong_id</text>
<text text-anchor="start" x="216" y="-545" font-family="Helvetica,sans-Serif" font-size="10.00">+ force_stop</text>
<text text-anchor="start" x="216" y="-534" font-family="Helvetica,sans-Serif" font-size="10.00">+ screenshot</text>
<text text-anchor="start" x="216" y="-523" font-family="Helvetica,sans-Serif" font-size="10.00">+ bits</text>
<polyline fill="none" stroke="#666666" points="208,-516 330,-516 "/>
<text text-anchor="middle" x="269" y="-504" font-family="Helvetica,sans-Serif" font-size="10.00"> </text>
</a>
</g>
</g>
<!-- Node6&#45;&gt;Node5 -->
<g id="edge5" class="edge">
<title>Node6&#45;&gt;Node5</title>
<path fill="none" stroke="#404040" d="M299.91,-496.95C308,-476.78 316.39,-455.86 323.31,-438.6"/>
<polygon fill="none" stroke="#404040" points="323.38,-438.43 321.9,-431.37 327.85,-427.29 329.33,-434.35 323.38,-438.43"/>
<text text-anchor="middle" x="333" y="-465" font-family="Helvetica,sans-Serif" font-size="10.00"> +status</text>
</g>
<!-- Node7 -->
<g id="node7" class="node">
<title>Node7</title>
<g id="a_node7"><a xlink:href="unionTelemetryFrameState_1_1StateByte1.html" target="_top" xlink:title=" ">
<polygon fill="white" stroke="#666666" points="348,-491.5 348,-658.5 470,-658.5 470,-491.5 348,-491.5"/>
<text text-anchor="start" x="356" y="-646.5" font-family="Helvetica,sans-Serif" font-size="10.00">TelemetryFrameState</text>
<text text-anchor="middle" x="409" y="-635.5" font-family="Helvetica,sans-Serif" font-size="10.00">::StateByte1</text>
<polyline fill="none" stroke="#666666" points="348,-628.5 470,-628.5 "/>
<text text-anchor="start" x="356" y="-616.5" font-family="Helvetica,sans-Serif" font-size="10.00">+ byte</text>
<text text-anchor="start" x="356" y="-605.5" font-family="Helvetica,sans-Serif" font-size="10.00">+ fault_active</text>
<text text-anchor="start" x="356" y="-594.5" font-family="Helvetica,sans-Serif" font-size="10.00">+ fault_exceeded</text>
<text text-anchor="start" x="356" y="-583.5" font-family="Helvetica,sans-Serif" font-size="10.00">+ apps_5v_low</text>
<text text-anchor="start" x="356" y="-572.5" font-family="Helvetica,sans-Serif" font-size="10.00">+ apps_5v_high</text>
<text text-anchor="start" x="356" y="-561.5" font-family="Helvetica,sans-Serif" font-size="10.00">+ apps_3v3_low</text>
<text text-anchor="start" x="356" y="-550.5" font-family="Helvetica,sans-Serif" font-size="10.00">+ apps_3v3_high</text>
<text text-anchor="start" x="356" y="-539.5" font-family="Helvetica,sans-Serif" font-size="10.00">+ brake_low</text>
<text text-anchor="start" x="356" y="-528.5" font-family="Helvetica,sans-Serif" font-size="10.00">+ brake_high</text>
<text text-anchor="start" x="356" y="-517.5" font-family="Helvetica,sans-Serif" font-size="10.00">+ bits</text>
<polyline fill="none" stroke="#666666" points="348,-510.5 470,-510.5 "/>
<text text-anchor="middle" x="409" y="-498.5" font-family="Helvetica,sans-Serif" font-size="10.00"> </text>
</a>
</g>
</g>
<!-- Node7&#45;&gt;Node5 -->
<g id="edge6" class="edge">
<title>Node7&#45;&gt;Node5</title>
<path fill="none" stroke="#404040" d="M375.84,-491.35C368.47,-472.96 360.98,-454.29 354.7,-438.63"/>
<polygon fill="none" stroke="#404040" points="354.62,-438.44 348.67,-434.36 350.15,-427.3 356.1,-431.38 354.62,-438.44"/>
<text text-anchor="middle" x="387" y="-465" font-family="Helvetica,sans-Serif" font-size="10.00"> +faults</text>
</g>
</g>
</svg>
