<?xml version="1.0" encoding="UTF-8" standalone="no"?>
<!DOCTYPE svg PUBLIC "-//W3C//DTD SVG 1.1//EN"
 "http://www.w3.org/Graphics/SVG/1.1/DTD/svg11.dtd">
<!-- Generated by graphviz version 2.43.0 (0)
 -->
<!-- Title: Pedal::sendFrame Pages: 1 -->
<svg width="488pt" height="138pt"
 viewBox="0.00 0.00 488.00 138.00" xmlns="http://www.w3.org/2000/svg" xmlns:xlink="http://www.w3.org/1999/xlink">
<g id="graph0" class="graph" transform="scale(1 1) rotate(0) translate(4 134)">
<title>Pedal::sendFrame</title>
<!-- Node1 -->
<g id="node1" class="node">
<title>Node1</title>
<g id="a_node1"><a xlink:title="Sends the appropriate CAN frame based on pedal and car state.">
<polygon fill="#999999" stroke="#666666" points="104,-56 0,-56 0,-37 104,-37 104,-56"/>
<text text-anchor="middle" x="52" y="-44" font-family="Helvetica,sans-Serif" font-size="10.00">Pedal::sendFrame</text>
</a>
</g>
</g>
<!-- Node2 -->
<g id="node2" class="node">
<title>Node2</title>
<g id="a_node2"><a xlink:href="Debug_8hpp.html#a25f28d9aa7440ebc55a76a2b2ce878ea" target="_top" xlink:title="Sends throttle output debug info via CAN or serial (if enabled).">
<polygon fill="white" stroke="#666666" points="280.5,-93 159.5,-93 159.5,-74 280.5,-74 280.5,-93"/>
<text text-anchor="middle" x="220" y="-81" font-family="Helvetica,sans-Serif" font-size="10.00">DBG_THROTTLE_OUT</text>
</a>
</g>
</g>
<!-- Node1&#45;&gt;Node2 -->
<g id="edge1" class="edge">
<title>Node1&#45;&gt;Node2</title>
<path fill="none" stroke="#63b8ff" d="M95.75,-56.03C117.26,-60.82 143.52,-66.68 166.27,-71.75"/>
<polygon fill="#63b8ff" stroke="#63b8ff" points="165.59,-75.18 176.11,-73.94 167.11,-68.35 165.59,-75.18"/>
</g>
<!-- Node5 -->
<g id="node5" class="node">
<title>Node5</title>
<g id="a_node5"><a xlink:href="Debug_8hpp.html#a9a564faad1bd32a5894d3706e38f1067" target="_top" xlink:title="Prints a line to the serial console for throttle debug.">
<polygon fill="white" stroke="#666666" points="273.5,-56 166.5,-56 166.5,-37 273.5,-37 273.5,-56"/>
<text text-anchor="middle" x="220" y="-44" font-family="Helvetica,sans-Serif" font-size="10.00">DBGLN_THROTTLE</text>
</a>
</g>
</g>
<!-- Node1&#45;&gt;Node5 -->
<g id="edge4" class="edge">
<title>Node1&#45;&gt;Node5</title>
<path fill="none" stroke="#63b8ff" d="M104.16,-46.5C120.49,-46.5 138.76,-46.5 155.84,-46.5"/>
<polygon fill="#63b8ff" stroke="#63b8ff" points="156.29,-50 166.29,-46.5 156.29,-43 156.29,-50"/>
</g>
<!-- Node7 -->
<g id="node7" class="node">
<title>Node7</title>
<g id="a_node7"><a xlink:href="classPedal.html#abef0e8d31dc31884f9944a149c6b8e5a" target="_top" xlink:title="Maps the pedal ADC to a torque value, handling deadzones and faults.">
<polygon fill="white" stroke="#666666" points="300,-19 140,-19 140,0 300,0 300,-19"/>
<text text-anchor="middle" x="220" y="-7" font-family="Helvetica,sans-Serif" font-size="10.00">Pedal::throttleTorqueMapping</text>
</a>
</g>
</g>
<!-- Node1&#45;&gt;Node7 -->
<g id="edge6" class="edge">
<title>Node1&#45;&gt;Node7</title>
<path fill="none" stroke="#63b8ff" d="M95.75,-36.97C117.26,-32.18 143.52,-26.32 166.27,-21.25"/>
<polygon fill="#63b8ff" stroke="#63b8ff" points="167.11,-24.65 176.11,-19.06 165.59,-17.82 167.11,-24.65"/>
</g>
<!-- Node3 -->
<g id="node3" class="node">
<title>Node3</title>
<g id="a_node3"><a xlink:href="namespaceDebug__CAN.html#ace21ce4da40cf6ae391410d839c59cb3" target="_top" xlink:title="Sends a debug throttle output message over CAN.">
<polygon fill="white" stroke="#666666" points="476.5,-130 339.5,-130 339.5,-111 476.5,-111 476.5,-130"/>
<text text-anchor="middle" x="408" y="-118" font-family="Helvetica,sans-Serif" font-size="10.00">Debug_CAN::throttle_out</text>
</a>
</g>
</g>
<!-- Node2&#45;&gt;Node3 -->
<g id="edge2" class="edge">
<title>Node2&#45;&gt;Node3</title>
<path fill="none" stroke="#63b8ff" d="M268.9,-93.03C293.32,-97.89 323.22,-103.83 348.94,-108.95"/>
<polygon fill="#63b8ff" stroke="#63b8ff" points="348.45,-112.42 358.94,-110.94 349.81,-105.56 348.45,-112.42"/>
</g>
<!-- Node4 -->
<g id="node4" class="node">
<title>Node4</title>
<g id="a_node4"><a xlink:href="namespaceDebug__Serial.html#a75dcfc17e13215b801dd9dafa6f7c515" target="_top" xlink:title="Prints a throttle output message to the serial console. This function formats and sends the throttle ...">
<polygon fill="white" stroke="#666666" points="480,-93 336,-93 336,-74 480,-74 480,-93"/>
<text text-anchor="middle" x="408" y="-81" font-family="Helvetica,sans-Serif" font-size="10.00">Debug_Serial::throttle_out</text>
</a>
</g>
</g>
<!-- Node2&#45;&gt;Node4 -->
<g id="edge3" class="edge">
<title>Node2&#45;&gt;Node4</title>
<path fill="none" stroke="#63b8ff" d="M280.62,-83.5C294.86,-83.5 310.31,-83.5 325.36,-83.5"/>
<polygon fill="#63b8ff" stroke="#63b8ff" points="325.69,-87 335.69,-83.5 325.69,-80 325.69,-87"/>
</g>
<!-- Node6 -->
<g id="node6" class="node">
<title>Node6</title>
<g id="a_node6"><a xlink:href="namespaceDebug__Serial.html#a756fa9286151426012a6f8e178a6c550" target="_top" xlink:title="Prints a string AND a newline to the serial console.">
<polygon fill="white" stroke="#666666" points="467.5,-56 348.5,-56 348.5,-37 467.5,-37 467.5,-56"/>
<text text-anchor="middle" x="408" y="-44" font-family="Helvetica,sans-Serif" font-size="10.00">Debug_Serial::println</text>
</a>
</g>
</g>
<!-- Node5&#45;&gt;Node6 -->
<g id="edge5" class="edge">
<title>Node5&#45;&gt;Node6</title>
<path fill="none" stroke="#63b8ff" d="M273.8,-46.5C293.74,-46.5 316.73,-46.5 337.93,-46.5"/>
<polygon fill="#63b8ff" stroke="#63b8ff" points="338.18,-50 348.18,-46.5 338.18,-43 338.18,-50"/>
</g>
</g>
</svg>
