<?xml version="1.0" encoding="UTF-8" standalone="no"?>
<!DOCTYPE svg PUBLIC "-//W3C//DTD SVG 1.1//EN"
 "http://www.w3.org/Graphics/SVG/1.1/DTD/svg11.dtd">
<!-- Generated by graphviz version 2.43.0 (0)
 -->
<!-- Title: Pedal Pages: 1 -->
<svg width="523pt" height="573pt"
 viewBox="0.00 0.00 523.00 573.00" xmlns="http://www.w3.org/2000/svg" xmlns:xlink="http://www.w3.org/1999/xlink">
<g id="graph0" class="graph" transform="scale(1 1) rotate(0) translate(4 569)">
<title>Pedal</title>
<!-- Node1 -->
<g id="node1" class="node">
<title>Node1</title>
<g id="a_node1"><a xlink:title="Pedal class for managing throttle and brake pedal inputs. Handles filtering, fault detection,...">
<polygon fill="#999999" stroke="#666666" points="243.5,-0.5 243.5,-167.5 384.5,-167.5 384.5,-0.5 243.5,-0.5"/>
<text text-anchor="middle" x="314" y="-155.5" font-family="Helvetica,sans-Serif" font-size="10.00">Pedal</text>
<polyline fill="none" stroke="#666666" points="243.5,-148.5 384.5,-148.5 "/>
<text text-anchor="start" x="251.5" y="-136.5" font-family="Helvetica,sans-Serif" font-size="10.00">+ pedal_final</text>
<text text-anchor="start" x="251.5" y="-125.5" font-family="Helvetica,sans-Serif" font-size="10.00">&#45; motor_can</text>
<text text-anchor="start" x="251.5" y="-114.5" font-family="Helvetica,sans-Serif" font-size="10.00">&#45; fault</text>
<text text-anchor="start" x="251.5" y="-103.5" font-family="Helvetica,sans-Serif" font-size="10.00">&#45; fault_start_millis</text>
<text text-anchor="start" x="251.5" y="-92.5" font-family="Helvetica,sans-Serif" font-size="10.00">&#45; stop_frame</text>
<text text-anchor="start" x="251.5" y="-81.5" font-family="Helvetica,sans-Serif" font-size="10.00">&#45; torque_msg</text>
<polyline fill="none" stroke="#666666" points="243.5,-74.5 384.5,-74.5 "/>
<text text-anchor="start" x="251.5" y="-62.5" font-family="Helvetica,sans-Serif" font-size="10.00">+ Pedal()</text>
<text text-anchor="start" x="251.5" y="-51.5" font-family="Helvetica,sans-Serif" font-size="10.00">+ update()</text>
<text text-anchor="start" x="251.5" y="-40.5" font-family="Helvetica,sans-Serif" font-size="10.00">+ sendFrame()</text>
<text text-anchor="start" x="251.5" y="-29.5" font-family="Helvetica,sans-Serif" font-size="10.00">&#45; checkPedalFault()</text>
<text text-anchor="start" x="251.5" y="-18.5" font-family="Helvetica,sans-Serif" font-size="10.00">&#45; throttleTorqueMapping()</text>
<text text-anchor="start" x="251.5" y="-7.5" font-family="Helvetica,sans-Serif" font-size="10.00">&#45; brakeTorqueMapping()</text>
</a>
</g>
</g>
<!-- Node2 -->
<g id="node2" class="node">
<title>Node2</title>
<g id="a_node2"><a xlink:href="structCarState.html" target="_top" xlink:title="Represents the state of the car. Holds telemetry data and status, used as central data sharing struct...">
<polygon fill="white" stroke="#666666" points="151,-259.5 151,-327.5 241,-327.5 241,-259.5 151,-259.5"/>
<text text-anchor="middle" x="196" y="-315.5" font-family="Helvetica,sans-Serif" font-size="10.00">CarState</text>
<polyline fill="none" stroke="#666666" points="151,-308.5 241,-308.5 "/>
<text text-anchor="start" x="159" y="-296.5" font-family="Helvetica,sans-Serif" font-size="10.00">+ status_millis</text>
<text text-anchor="start" x="159" y="-285.5" font-family="Helvetica,sans-Serif" font-size="10.00">+ millis</text>
<polyline fill="none" stroke="#666666" points="151,-278.5 241,-278.5 "/>
<text text-anchor="middle" x="196" y="-266.5" font-family="Helvetica,sans-Serif" font-size="10.00"> </text>
</a>
</g>
</g>
<!-- Node2&#45;&gt;Node1 -->
<g id="edge1" class="edge">
<title>Node2&#45;&gt;Node1</title>
<path fill="none" stroke="#404040" d="M214.96,-259.16C227.49,-237.12 244.59,-207.06 261.05,-178.11"/>
<polygon fill="none" stroke="#404040" points="261.15,-177.94 260.63,-170.75 267.08,-167.51 267.59,-174.71 261.15,-177.94"/>
<text text-anchor="middle" x="266" y="-200" font-family="Helvetica,sans-Serif" font-size="10.00"> &#45;car</text>
</g>
<!-- Node3 -->
<g id="node3" class="node">
<title>Node3</title>
<g id="a_node3"><a xlink:href="structTelemetryFrameAdc.html" target="_top" xlink:title="Telemetry frame structure for ADC readings.">
<polygon fill="white" stroke="#666666" points="0,-436 0,-526 114,-526 114,-436 0,-436"/>
<text text-anchor="middle" x="57" y="-514" font-family="Helvetica,sans-Serif" font-size="10.00">TelemetryFrameAdc</text>
<polyline fill="none" stroke="#666666" points="0,-507 114,-507 "/>
<text text-anchor="start" x="8" y="-495" font-family="Helvetica,sans-Serif" font-size="10.00">+ apps_5v</text>
<text text-anchor="start" x="8" y="-484" font-family="Helvetica,sans-Serif" font-size="10.00">+ apps_3v3</text>
<text text-anchor="start" x="8" y="-473" font-family="Helvetica,sans-Serif" font-size="10.00">+ brake</text>
<text text-anchor="start" x="8" y="-462" font-family="Helvetica,sans-Serif" font-size="10.00">+ hall_sensor</text>
<polyline fill="none" stroke="#666666" points="0,-455 114,-455 "/>
<text text-anchor="start" x="8" y="-443" font-family="Helvetica,sans-Serif" font-size="10.00">+ toCanFrame()</text>
</a>
</g>
</g>
<!-- Node3&#45;&gt;Node2 -->
<g id="edge2" class="edge">
<title>Node3&#45;&gt;Node2</title>
<path fill="none" stroke="#404040" d="M90.29,-435.57C112.57,-405.85 141.72,-366.94 163.77,-337.51"/>
<polygon fill="none" stroke="#404040" points="164.05,-337.13 164.45,-329.93 171.25,-327.53 170.85,-334.73 164.05,-337.13"/>
<text text-anchor="middle" x="153.5" y="-371" font-family="Helvetica,sans-Serif" font-size="10.00"> +adc</text>
</g>
<!-- Node4 -->
<g id="node4" class="node">
<title>Node4</title>
<g id="a_node4"><a xlink:href="structTelemetryFrameDigital.html" target="_top" xlink:title="Telemetry frame structure for digital signals.">
<polygon fill="white" stroke="#666666" points="132,-436 132,-526 260,-526 260,-436 132,-436"/>
<text text-anchor="middle" x="196" y="-514" font-family="Helvetica,sans-Serif" font-size="10.00">TelemetryFrameDigital</text>
<polyline fill="none" stroke="#666666" points="132,-507 260,-507 "/>
<text text-anchor="start" x="140" y="-495" font-family="Helvetica,sans-Serif" font-size="10.00">+ motor_rpm</text>
<text text-anchor="start" x="140" y="-484" font-family="Helvetica,sans-Serif" font-size="10.00">+ motor_speed</text>
<text text-anchor="start" x="140" y="-473" font-family="Helvetica,sans-Serif" font-size="10.00">+ apps_3v3_scaled</text>
<text text-anchor="start" x="140" y="-462" font-family="Helvetica,sans-Serif" font-size="10.00">+ torque_val</text>
<polyline fill="none" stroke="#666666" points="132,-455 260,-455 "/>
<text text-anchor="start" x="140" y="-443" font-family="Helvetica,sans-Serif" font-size="10.00">+ toCanFrame()</text>
</a>
</g>
</g>
<!-- Node4&#45;&gt;Node2 -->
<g id="edge3" class="edge">
<title>Node4&#45;&gt;Node2</title>
<path fill="none" stroke="#404040" d="M196,-435.57C196,-406.62 196,-368.97 196,-339.85"/>
<polygon fill="none" stroke="#404040" points="196,-339.53 192,-333.53 196,-327.53 200,-333.53 196,-339.53"/>
<text text-anchor="middle" x="217.5" y="-371" font-family="Helvetica,sans-Serif" font-size="10.00"> +digital</text>
</g>
<!-- Node5 -->
<g id="node5" class="node">
<title>Node5</title>
<g id="a_node5"><a xlink:href="structTelemetryFrameState.html" target="_top" xlink:title="Telemetry frame structure for VCU states.">
<polygon fill="white" stroke="#666666" points="278,-397.5 278,-564.5 400,-564.5 400,-397.5 278,-397.5"/>
<text text-anchor="middle" x="339" y="-552.5" font-family="Helvetica,sans-Serif" font-size="10.00">TelemetryFrameState</text>
<polyline fill="none" stroke="#666666" points="278,-545.5 400,-545.5 "/>
<text text-anchor="start" x="286" y="-533.5" font-family="Helvetica,sans-Serif" font-size="10.00">+ car_status</text>
<text text-anchor="start" x="286" y="-522.5" font-family="Helvetica,sans-Serif" font-size="10.00">+ state_unknown</text>
<text text-anchor="start" x="286" y="-511.5" font-family="Helvetica,sans-Serif" font-size="10.00">+ hv_ready</text>
<text text-anchor="start" x="286" y="-500.5" font-family="Helvetica,sans-Serif" font-size="10.00">+ bms_no_msg</text>
<text text-anchor="start" x="286" y="-489.5" font-family="Helvetica,sans-Serif" font-size="10.00">+ bms_wrong_id</text>
<text text-anchor="start" x="286" y="-478.5" font-family="Helvetica,sans-Serif" font-size="10.00">+ force_stop</text>
<text text-anchor="start" x="286" y="-467.5" font-family="Helvetica,sans-Serif" font-size="10.00">+ screenshot</text>
<text text-anchor="start" x="286" y="-456.5" font-family="Helvetica,sans-Serif" font-size="10.00">+ fault_active</text>
<text text-anchor="start" x="286" y="-445.5" font-family="Helvetica,sans-Serif" font-size="10.00">+ fault_exceeded</text>
<text text-anchor="start" x="286" y="-434.5" font-family="Helvetica,sans-Serif" font-size="10.00">+ apps_5v_low</text>
<text text-anchor="start" x="286" y="-423.5" font-family="Helvetica,sans-Serif" font-size="10.00">and 6 more...</text>
<polyline fill="none" stroke="#666666" points="278,-416.5 400,-416.5 "/>
<text text-anchor="start" x="286" y="-404.5" font-family="Helvetica,sans-Serif" font-size="10.00">+ toCanFrame()</text>
</a>
</g>
</g>
<!-- Node5&#45;&gt;Node2 -->
<g id="edge4" class="edge">
<title>Node5&#45;&gt;Node2</title>
<path fill="none" stroke="#404040" d="M277.94,-400.79C261.21,-379.09 243.7,-356.38 229.18,-337.54"/>
<polygon fill="none" stroke="#404040" points="228.99,-337.3 222.16,-334.99 221.67,-327.79 228.5,-330.1 228.99,-337.3"/>
<text text-anchor="middle" x="277.5" y="-371" font-family="Helvetica,sans-Serif" font-size="10.00"> +state</text>
</g>
<!-- Node6 -->
<g id="node6" class="node">
<title>Node6</title>
<g id="a_node6"><a xlink:href="classRingBuffer.html" target="_top" xlink:title=" ">
<polygon fill="white" stroke="#666666" points="259,-237.5 259,-349.5 369,-349.5 369,-237.5 259,-237.5"/>
<text text-anchor="start" x="267" y="-337.5" font-family="Helvetica,sans-Serif" font-size="10.00">RingBuffer&lt; uint16</text>
<text text-anchor="middle" x="314" y="-326.5" font-family="Helvetica,sans-Serif" font-size="10.00">_t, 16 &gt;</text>
<polyline fill="none" stroke="#666666" points="259,-319.5 369,-319.5 "/>
<text text-anchor="start" x="267" y="-307.5" font-family="Helvetica,sans-Serif" font-size="10.00">+ buffer</text>
<text text-anchor="start" x="267" y="-296.5" font-family="Helvetica,sans-Serif" font-size="10.00">+ head</text>
<text text-anchor="start" x="267" y="-285.5" font-family="Helvetica,sans-Serif" font-size="10.00">+ count</text>
<polyline fill="none" stroke="#666666" points="259,-278.5 369,-278.5 "/>
<text text-anchor="start" x="267" y="-266.5" font-family="Helvetica,sans-Serif" font-size="10.00">+ RingBuffer()</text>
<text text-anchor="start" x="267" y="-255.5" font-family="Helvetica,sans-Serif" font-size="10.00">+ push()</text>
<text text-anchor="start" x="267" y="-244.5" font-family="Helvetica,sans-Serif" font-size="10.00">+ getLinearBuffer()</text>
</a>
</g>
</g>
<!-- Node6&#45;&gt;Node1 -->
<g id="edge5" class="edge">
<title>Node6&#45;&gt;Node1</title>
<path fill="none" stroke="#404040" d="M314,-237.44C314,-219.74 314,-199.6 314,-179.88"/>
<polygon fill="none" stroke="#404040" points="314,-179.69 310,-173.69 314,-167.69 318,-173.69 314,-179.69"/>
<text text-anchor="middle" x="351.5" y="-211" font-family="Helvetica,sans-Serif" font-size="10.00"> &#45;brake_value</text>
<text text-anchor="middle" x="351.5" y="-200" font-family="Helvetica,sans-Serif" font-size="10.00">&#45;pedal_value_1</text>
<text text-anchor="middle" x="351.5" y="-189" font-family="Helvetica,sans-Serif" font-size="10.00">&#45;pedal_value_2</text>
</g>
<!-- Node7 -->
<g id="node7" class="node">
<title>Node7</title>
<g id="a_node7"><a xlink:href="classLinearInterp.html" target="_top" xlink:title=" ">
<polygon fill="white" stroke="#666666" points="387,-243 387,-344 515,-344 515,-243 387,-243"/>
<text text-anchor="start" x="395" y="-332" font-family="Helvetica,sans-Serif" font-size="10.00">LinearInterp&lt; uint16</text>
<text text-anchor="middle" x="451" y="-321" font-family="Helvetica,sans-Serif" font-size="10.00">_t, int16_t, int32_t, 5 &gt;</text>
<polyline fill="none" stroke="#666666" points="387,-314 515,-314 "/>
<text text-anchor="middle" x="451" y="-302" font-family="Helvetica,sans-Serif" font-size="10.00"> </text>
<polyline fill="none" stroke="#666666" points="387,-295 515,-295 "/>
<text text-anchor="start" x="395" y="-283" font-family="Helvetica,sans-Serif" font-size="10.00">+ LinearInterp()</text>
<text text-anchor="start" x="395" y="-272" font-family="Helvetica,sans-Serif" font-size="10.00">+ LinearInterp()</text>
<text text-anchor="start" x="395" y="-261" font-family="Helvetica,sans-Serif" font-size="10.00">+ interp()</text>
<text text-anchor="start" x="395" y="-250" font-family="Helvetica,sans-Serif" font-size="10.00">&#45; TablePoint()</text>
</a>
</g>
</g>
<!-- Node7&#45;&gt;Node1 -->
<g id="edge6" class="edge">
<title>Node7&#45;&gt;Node1</title>
<path fill="none" stroke="#404040" d="M426.09,-242.73C416.39,-224.5 404.79,-203.95 393,-186 391.2,-183.26 389.35,-180.5 387.45,-177.73"/>
<polygon fill="none" stroke="#404040" points="387.31,-177.53 380.59,-174.91 380.42,-167.7 387.14,-170.32 387.31,-177.53"/>
<text text-anchor="middle" x="442.5" y="-205.5" font-family="Helvetica,sans-Serif" font-size="10.00"> &#45;brakeMap</text>
<text text-anchor="middle" x="442.5" y="-194.5" font-family="Helvetica,sans-Serif" font-size="10.00">&#45;throttleMap</text>
</g>
</g>
</svg>
