<?xml version="1.0" encoding="UTF-8" standalone="no"?>
<!DOCTYPE svg PUBLIC "-//W3C//DTD SVG 1.1//EN"
 "http://www.w3.org/Graphics/SVG/1.1/DTD/svg11.dtd">
<!-- Generated by graphviz version 2.43.0 (0)
 -->
<!-- Title: BMS::checkHv Pages: 1 -->
<svg width="416pt" height="101pt"
 viewBox="0.00 0.00 416.00 101.00" xmlns="http://www.w3.org/2000/svg" xmlns:xlink="http://www.w3.org/1999/xlink">
<g id="graph0" class="graph" transform="scale(1 1) rotate(0) translate(4 97)">
<title>BMS::checkHv</title>
<!-- Node1 -->
<g id="node1" class="node">
<title>Node1</title>
<g id="a_node1"><a xlink:title="Attempts to start HV. First check BMS is in standby(3) state, then send the HV start command....">
<polygon fill="#999999" stroke="#666666" points="86,-37 0,-37 0,-18 86,-18 86,-37"/>
<text text-anchor="middle" x="43" y="-25" font-family="Helvetica,sans-Serif" font-size="10.00">BMS::checkHv</text>
</a>
</g>
</g>
<!-- Node2 -->
<g id="node2" class="node">
<title>Node2</title>
<g id="a_node2"><a xlink:href="Debug_8hpp.html#a460f71d79003b7e0c37275d93f7d5c53" target="_top" xlink:title="Sends BMS debug info via CAN or serial (if enabled).">
<polygon fill="white" stroke="#666666" points="229,-56 122,-56 122,-37 229,-37 229,-56"/>
<text text-anchor="middle" x="175.5" y="-44" font-family="Helvetica,sans-Serif" font-size="10.00">DBG_BMS_STATUS</text>
</a>
</g>
</g>
<!-- Node1&#45;&gt;Node2 -->
<g id="edge1" class="edge">
<title>Node1&#45;&gt;Node2</title>
<path fill="none" stroke="#63b8ff" d="M86.01,-33.62C94.15,-34.8 102.84,-36.07 111.49,-37.33"/>
<polygon fill="#63b8ff" stroke="#63b8ff" points="111.17,-40.82 121.57,-38.79 112.18,-33.89 111.17,-40.82"/>
</g>
<!-- Node5 -->
<g id="node5" class="node">
<title>Node5</title>
<g id="a_node5"><a xlink:href="Debug_8hpp.html#a8e8d6e3de15309922f25c12f4d7cf727" target="_top" xlink:title="Prints a line to the serial console for general debug.">
<polygon fill="white" stroke="#666666" points="226.5,-19 124.5,-19 124.5,0 226.5,0 226.5,-19"/>
<text text-anchor="middle" x="175.5" y="-7" font-family="Helvetica,sans-Serif" font-size="10.00">DBGLN_GENERAL</text>
</a>
</g>
</g>
<!-- Node1&#45;&gt;Node5 -->
<g id="edge4" class="edge">
<title>Node1&#45;&gt;Node5</title>
<path fill="none" stroke="#63b8ff" d="M86.01,-21.71C95.08,-20.45 104.84,-19.11 114.44,-17.78"/>
<polygon fill="#63b8ff" stroke="#63b8ff" points="114.94,-21.25 124.37,-16.42 113.98,-14.31 114.94,-21.25"/>
</g>
<!-- Node3 -->
<g id="node3" class="node">
<title>Node3</title>
<g id="a_node3"><a xlink:href="namespaceDebug__CAN.html#a0514cc9d56b82f8a3b586aee6f4c97b0" target="_top" xlink:title="Sends a debug BMS status message over CAN.">
<polygon fill="white" stroke="#666666" points="405,-93 268,-93 268,-74 405,-74 405,-93"/>
<text text-anchor="middle" x="336.5" y="-81" font-family="Helvetica,sans-Serif" font-size="10.00">Debug_CAN::status_bms</text>
</a>
</g>
</g>
<!-- Node2&#45;&gt;Node3 -->
<g id="edge2" class="edge">
<title>Node2&#45;&gt;Node3</title>
<path fill="none" stroke="#63b8ff" d="M217.45,-56.03C237.86,-60.78 262.75,-66.57 284.4,-71.61"/>
<polygon fill="#63b8ff" stroke="#63b8ff" points="283.88,-75.08 294.42,-73.94 285.47,-68.26 283.88,-75.08"/>
</g>
<!-- Node4 -->
<g id="node4" class="node">
<title>Node4</title>
<g id="a_node4"><a xlink:href="namespaceDebug__Serial.html#a1a39bd8c1cd5d475881b10a3a5deeb03" target="_top" xlink:title="Prints the current BMS status to the serial console. This function formats and sends the current BMS ...">
<polygon fill="white" stroke="#666666" points="408,-56 265,-56 265,-37 408,-37 408,-56"/>
<text text-anchor="middle" x="336.5" y="-44" font-family="Helvetica,sans-Serif" font-size="10.00">Debug_Serial::status_bms</text>
</a>
</g>
</g>
<!-- Node2&#45;&gt;Node4 -->
<g id="edge3" class="edge">
<title>Node2&#45;&gt;Node4</title>
<path fill="none" stroke="#63b8ff" d="M229,-46.5C237.26,-46.5 245.96,-46.5 254.68,-46.5"/>
<polygon fill="#63b8ff" stroke="#63b8ff" points="254.9,-50 264.9,-46.5 254.9,-43 254.9,-50"/>
</g>
<!-- Node6 -->
<g id="node6" class="node">
<title>Node6</title>
<g id="a_node6"><a xlink:href="namespaceDebug__Serial.html#a756fa9286151426012a6f8e178a6c550" target="_top" xlink:title="Prints a string AND a newline to the serial console.">
<polygon fill="white" stroke="#666666" points="396,-19 277,-19 277,0 396,0 396,-19"/>
<text text-anchor="middle" x="336.5" y="-7" font-family="Helvetica,sans-Serif" font-size="10.00">Debug_Serial::println</text>
</a>
</g>
</g>
<!-- Node5&#45;&gt;Node6 -->
<g id="edge5" class="edge">
<title>Node5&#45;&gt;Node6</title>
<path fill="none" stroke="#63b8ff" d="M226.81,-9.5C239.5,-9.5 253.34,-9.5 266.76,-9.5"/>
<polygon fill="#63b8ff" stroke="#63b8ff" points="266.92,-13 276.92,-9.5 266.92,-6 266.92,-13"/>
</g>
</g>
</svg>
