<?xml version="1.0" encoding="UTF-8" standalone="no"?>
<!DOCTYPE svg PUBLIC "-//W3C//DTD SVG 1.1//EN"
 "http://www.w3.org/Graphics/SVG/1.1/DTD/svg11.dtd">
<!-- Generated by graphviz version 2.43.0 (0)
 -->
<!-- Title: Pedal::checkPedalFault Pages: 1 -->
<svg width="460pt" height="86pt"
 viewBox="0.00 0.00 460.00 86.00" xmlns="http://www.w3.org/2000/svg" xmlns:xlink="http://www.w3.org/1999/xlink">
<g id="graph0" class="graph" transform="scale(1 1) rotate(0) translate(4 82)">
<title>Pedal::checkPedalFault</title>
<!-- Node1 -->
<g id="node1" class="node">
<title>Node1</title>
<g id="a_node1"><a xlink:title="Checks for a fault between two pedal sensor readings.">
<polygon fill="#999999" stroke="#666666" points="128,-48.5 0,-48.5 0,-29.5 128,-29.5 128,-48.5"/>
<text text-anchor="middle" x="64" y="-36.5" font-family="Helvetica,sans-Serif" font-size="10.00">Pedal::checkPedalFault</text>
</a>
</g>
</g>
<!-- Node2 -->
<g id="node2" class="node">
<title>Node2</title>
<g id="a_node2"><a xlink:href="Debug_8hpp.html#a83973b3fea610da634610d01cd98e2d8" target="_top" xlink:title="Sends throttle fault debug info via CAN or serial (if enabled). Overloads for fault status with or wi...">
<polygon fill="white" stroke="#666666" points="293,-48.5 164,-48.5 164,-29.5 293,-29.5 293,-48.5"/>
<text text-anchor="middle" x="228.5" y="-36.5" font-family="Helvetica,sans-Serif" font-size="10.00">DBG_THROTTLE_FAULT</text>
</a>
</g>
</g>
<!-- Node1&#45;&gt;Node2 -->
<g id="edge1" class="edge">
<title>Node1&#45;&gt;Node2</title>
<path fill="none" stroke="#63b8ff" d="M128.29,-39C136.59,-39 145.15,-39 153.61,-39"/>
<polygon fill="#63b8ff" stroke="#63b8ff" points="153.85,-42.5 163.85,-39 153.85,-35.5 153.85,-42.5"/>
</g>
<!-- Node3 -->
<g id="node3" class="node">
<title>Node3</title>
<g id="a_node3"><a xlink:href="namespaceDebug__CAN.html#aded6aa4b3ac940a9ea0941569e157522" target="_top" xlink:title="Sends a debug throttle fault message over CAN with a float value.">
<polygon fill="white" stroke="#666666" points="448.5,-78 332.5,-78 332.5,-48 448.5,-48 448.5,-78"/>
<text text-anchor="start" x="340.5" y="-66" font-family="Helvetica,sans-Serif" font-size="10.00">Debug_CAN::throttle</text>
<text text-anchor="middle" x="390.5" y="-55" font-family="Helvetica,sans-Serif" font-size="10.00">_fault</text>
</a>
</g>
</g>
<!-- Node2&#45;&gt;Node3 -->
<g id="edge2" class="edge">
<title>Node2&#45;&gt;Node3</title>
<path fill="none" stroke="#63b8ff" d="M293.2,-48.55C302.83,-50 312.8,-51.49 322.5,-52.95"/>
<polygon fill="#63b8ff" stroke="#63b8ff" points="322.09,-56.43 332.5,-54.45 323.13,-49.5 322.09,-56.43"/>
</g>
<!-- Node4 -->
<g id="node4" class="node">
<title>Node4</title>
<g id="a_node4"><a xlink:href="namespaceDebug__Serial.html#a190255790b41055a6f76fb66879f99d2" target="_top" xlink:title="Prints a throttle fault message to the serial console. This function formats and sends the throttle f...">
<polygon fill="white" stroke="#666666" points="452,-30 329,-30 329,0 452,0 452,-30"/>
<text text-anchor="start" x="337" y="-18" font-family="Helvetica,sans-Serif" font-size="10.00">Debug_Serial::throttle</text>
<text text-anchor="middle" x="390.5" y="-7" font-family="Helvetica,sans-Serif" font-size="10.00">_fault</text>
</a>
</g>
</g>
<!-- Node2&#45;&gt;Node4 -->
<g id="edge3" class="edge">
<title>Node2&#45;&gt;Node4</title>
<path fill="none" stroke="#63b8ff" d="M293.2,-29.45C301.65,-28.18 310.36,-26.87 318.93,-25.59"/>
<polygon fill="#63b8ff" stroke="#63b8ff" points="319.52,-29.04 328.89,-24.09 318.48,-22.11 319.52,-29.04"/>
</g>
</g>
</svg>
