<?xml version="1.0" encoding="UTF-8" standalone="no"?>
<!DOCTYPE svg PUBLIC "-//W3C//DTD SVG 1.1//EN"
 "http://www.w3.org/Graphics/SVG/1.1/DTD/svg11.dtd">
<!-- Generated by graphviz version 2.43.0 (0)
 -->
<!-- Title: Pedal::pedal_can_frame_update Pages: 1 -->
<svg width="828pt" height="267pt"
 viewBox="0.00 0.00 828.00 266.50" xmlns="http://www.w3.org/2000/svg" xmlns:xlink="http://www.w3.org/1999/xlink">
<g id="graph0" class="graph" transform="scale(1 1) rotate(0) translate(4 262.5)">
<title>Pedal::pedal_can_frame_update</title>
<!-- Node1 -->
<g id="node1" class="node">
<title>Node1</title>
<g id="a_node1"><a xlink:title="Updates the CAN frame with the most recent pedal value.">
<polygon fill="#999999" stroke="#666666" points="134,-168 0,-168 0,-138 134,-138 134,-168"/>
<text text-anchor="start" x="8" y="-156" font-family="Helvetica,sans-Serif" font-size="10.00">Pedal::pedal_can_frame</text>
<text text-anchor="middle" x="67" y="-145" font-family="Helvetica,sans-Serif" font-size="10.00">_update</text>
</a>
</g>
</g>
<!-- Node2 -->
<g id="node2" class="node">
<title>Node2</title>
<g id="a_node2"><a xlink:href="Debug_8h.html#a25f28d9aa7440ebc55a76a2b2ce878ea" target="_top" xlink:title="Sends throttle output debug info via CAN or serial (if enabled).">
<polygon fill="white" stroke="#666666" points="297.5,-221.5 176.5,-221.5 176.5,-202.5 297.5,-202.5 297.5,-221.5"/>
<text text-anchor="middle" x="237" y="-209.5" font-family="Helvetica,sans-Serif" font-size="10.00">DBG_THROTTLE_OUT</text>
</a>
</g>
</g>
<!-- Node1&#45;&gt;Node2 -->
<g id="edge1" class="edge">
<title>Node1&#45;&gt;Node2</title>
<path fill="none" stroke="#63b8ff" d="M102.56,-168.05C122.14,-176.29 147.21,-186.34 170,-194 175.91,-195.99 182.17,-197.92 188.39,-199.73"/>
<polygon fill="#63b8ff" stroke="#63b8ff" points="187.5,-203.11 198.08,-202.47 189.41,-196.38 187.5,-203.11"/>
</g>
<!-- Node5 -->
<g id="node5" class="node">
<title>Node5</title>
<g id="a_node5"><a xlink:href="Debug_8h.html#a9a564faad1bd32a5894d3706e38f1067" target="_top" xlink:title="Prints a line to the serial console for throttle debug.">
<polygon fill="white" stroke="#666666" points="290.5,-184.5 183.5,-184.5 183.5,-165.5 290.5,-165.5 290.5,-184.5"/>
<text text-anchor="middle" x="237" y="-172.5" font-family="Helvetica,sans-Serif" font-size="10.00">DBGLN_THROTTLE</text>
</a>
</g>
</g>
<!-- Node1&#45;&gt;Node5 -->
<g id="edge4" class="edge">
<title>Node1&#45;&gt;Node5</title>
<path fill="none" stroke="#63b8ff" d="M134.4,-161.69C147.21,-163.37 160.59,-165.12 173.28,-166.79"/>
<polygon fill="#63b8ff" stroke="#63b8ff" points="172.91,-170.27 183.28,-168.1 173.82,-163.33 172.91,-170.27"/>
</g>
<!-- Node7 -->
<g id="node7" class="node">
<title>Node7</title>
<g id="a_node7"><a xlink:href="classPedal.html#a4ff4c5cf21550badfbb93b239b6bdee5" target="_top" xlink:title="Updates the CAN frame with the current pedal values.">
<polygon fill="white" stroke="#666666" points="304,-147 170,-147 170,-117 304,-117 304,-147"/>
<text text-anchor="start" x="178" y="-135" font-family="Helvetica,sans-Serif" font-size="10.00">Pedal::pedal_can_frame</text>
<text text-anchor="middle" x="237" y="-124" font-family="Helvetica,sans-Serif" font-size="10.00">_stop_motor</text>
</a>
</g>
</g>
<!-- Node1&#45;&gt;Node7 -->
<g id="edge6" class="edge">
<title>Node1&#45;&gt;Node7</title>
<path fill="none" stroke="#63b8ff" d="M134.4,-144.7C142.68,-143.67 151.2,-142.6 159.62,-141.55"/>
<polygon fill="#63b8ff" stroke="#63b8ff" points="160.32,-144.99 169.81,-140.27 159.45,-138.04 160.32,-144.99"/>
</g>
<!-- Node8 -->
<g id="node8" class="node">
<title>Node8</title>
<g id="a_node8"><a xlink:href="classPedal.html#a04ce7e5e20d8405f10f281d6c784e1ef" target="_top" xlink:title="Maps the pedal ADC to a torque value, handling deadzones and faults.">
<polygon fill="white" stroke="#666666" points="298,-99 176,-99 176,-69 298,-69 298,-99"/>
<text text-anchor="start" x="184" y="-87" font-family="Helvetica,sans-Serif" font-size="10.00">Pedal::throttle_torque</text>
<text text-anchor="middle" x="237" y="-76" font-family="Helvetica,sans-Serif" font-size="10.00">_mapping</text>
</a>
</g>
</g>
<!-- Node1&#45;&gt;Node8 -->
<g id="edge7" class="edge">
<title>Node1&#45;&gt;Node8</title>
<path fill="none" stroke="#63b8ff" d="M100.84,-137.85C120.71,-128.84 146.65,-117.38 170,-108 174.43,-106.22 179.06,-104.42 183.71,-102.65"/>
<polygon fill="#63b8ff" stroke="#63b8ff" points="185.1,-105.87 193.24,-99.08 182.64,-99.31 185.1,-105.87"/>
</g>
<!-- Node3 -->
<g id="node3" class="node">
<title>Node3</title>
<g id="a_node3"><a xlink:href="namespaceDebug__CAN.html#ace21ce4da40cf6ae391410d839c59cb3" target="_top" xlink:title="Sends a debug throttle output message over CAN. This function prepares a CAN frame with the throttle ...">
<polygon fill="white" stroke="#666666" points="480.5,-258.5 343.5,-258.5 343.5,-239.5 480.5,-239.5 480.5,-258.5"/>
<text text-anchor="middle" x="412" y="-246.5" font-family="Helvetica,sans-Serif" font-size="10.00">Debug_CAN::throttle_out</text>
</a>
</g>
</g>
<!-- Node2&#45;&gt;Node3 -->
<g id="edge2" class="edge">
<title>Node2&#45;&gt;Node3</title>
<path fill="none" stroke="#63b8ff" d="M282.55,-221.53C305.07,-226.34 332.58,-232.23 356.36,-237.31"/>
<polygon fill="#63b8ff" stroke="#63b8ff" points="355.79,-240.77 366.3,-239.44 357.25,-233.93 355.79,-240.77"/>
</g>
<!-- Node4 -->
<g id="node4" class="node">
<title>Node4</title>
<g id="a_node4"><a xlink:href="namespaceDebug__Serial.html#a75dcfc17e13215b801dd9dafa6f7c515" target="_top" xlink:title="Prints a throttle output message to the serial console. This function formats and sends the throttle ...">
<polygon fill="white" stroke="#666666" points="484,-221.5 340,-221.5 340,-202.5 484,-202.5 484,-221.5"/>
<text text-anchor="middle" x="412" y="-209.5" font-family="Helvetica,sans-Serif" font-size="10.00">Debug_Serial::throttle_out</text>
</a>
</g>
</g>
<!-- Node2&#45;&gt;Node4 -->
<g id="edge3" class="edge">
<title>Node2&#45;&gt;Node4</title>
<path fill="none" stroke="#63b8ff" d="M297.54,-212C307.83,-212 318.69,-212 329.45,-212"/>
<polygon fill="#63b8ff" stroke="#63b8ff" points="329.72,-215.5 339.72,-212 329.72,-208.5 329.72,-215.5"/>
</g>
<!-- Node6 -->
<g id="node6" class="node">
<title>Node6</title>
<g id="a_node6"><a xlink:href="namespaceDebug__Serial.html#a756fa9286151426012a6f8e178a6c550" target="_top" xlink:title="Prints a line to the serial console. This function sends a string message followed by a newline to th...">
<polygon fill="white" stroke="#666666" points="471.5,-184.5 352.5,-184.5 352.5,-165.5 471.5,-165.5 471.5,-184.5"/>
<text text-anchor="middle" x="412" y="-172.5" font-family="Helvetica,sans-Serif" font-size="10.00">Debug_Serial::println</text>
</a>
</g>
</g>
<!-- Node5&#45;&gt;Node6 -->
<g id="edge5" class="edge">
<title>Node5&#45;&gt;Node6</title>
<path fill="none" stroke="#63b8ff" d="M290.85,-175C306.97,-175 324.95,-175 341.99,-175"/>
<polygon fill="#63b8ff" stroke="#63b8ff" points="342.45,-178.5 352.45,-175 342.45,-171.5 342.45,-178.5"/>
</g>
<!-- Node9 -->
<g id="node9" class="node">
<title>Node9</title>
<g id="a_node9"><a xlink:href="classPedal.html#a00f33fcd9507c62193f2ffc3570b7fba" target="_top" xlink:title="Maps the brake ADC to a torque value.">
<polygon fill="white" stroke="#666666" points="468.5,-121 355.5,-121 355.5,-91 468.5,-91 468.5,-121"/>
<text text-anchor="start" x="363.5" y="-109" font-family="Helvetica,sans-Serif" font-size="10.00">Pedal::brake_torque</text>
<text text-anchor="middle" x="412" y="-98" font-family="Helvetica,sans-Serif" font-size="10.00">_mapping</text>
</a>
</g>
</g>
<!-- Node8&#45;&gt;Node9 -->
<g id="edge8" class="edge">
<title>Node8&#45;&gt;Node9</title>
<path fill="none" stroke="#63b8ff" d="M298.02,-91.63C313.31,-93.58 329.82,-95.68 345.38,-97.66"/>
<polygon fill="#63b8ff" stroke="#63b8ff" points="345.08,-101.14 355.44,-98.93 345.96,-94.2 345.08,-101.14"/>
</g>
<!-- Node13 -->
<g id="node13" class="node">
<title>Node13</title>
<g id="a_node13"><a xlink:href="Debug_8h.html#a27a4d84e5afbe5f46066606c2cfcd97d" target="_top" xlink:title="Sends throttle fault debug info via CAN or serial (if enabled). Overloads for fault status with or wi...">
<polygon fill="white" stroke="#666666" points="649,-72.5 520,-72.5 520,-53.5 649,-53.5 649,-72.5"/>
<text text-anchor="middle" x="584.5" y="-60.5" font-family="Helvetica,sans-Serif" font-size="10.00">DBG_THROTTLE_FAULT</text>
</a>
</g>
</g>
<!-- Node8&#45;&gt;Node13 -->
<g id="edge15" class="edge">
<title>Node8&#45;&gt;Node13</title>
<path fill="none" stroke="#63b8ff" d="M298.18,-80.34C356.97,-76.77 446.56,-71.32 509.64,-67.49"/>
<polygon fill="#63b8ff" stroke="#63b8ff" points="510.15,-70.97 519.92,-66.86 509.72,-63.98 510.15,-70.97"/>
</g>
<!-- Node10 -->
<g id="node10" class="node">
<title>Node10</title>
<g id="a_node10"><a xlink:href="Debug_8h.html#ae4f010051fc0b65e53e4305c62bae986" target="_top" xlink:title="Sends brake fault debug info via CAN or serial (if enabled). Overloads for fault status with or witho...">
<polygon fill="white" stroke="#666666" points="640,-120.5 529,-120.5 529,-101.5 640,-101.5 640,-120.5"/>
<text text-anchor="middle" x="584.5" y="-108.5" font-family="Helvetica,sans-Serif" font-size="10.00">DBG_BRAKE_FAULT</text>
</a>
</g>
</g>
<!-- Node9&#45;&gt;Node10 -->
<g id="edge9" class="edge">
<title>Node9&#45;&gt;Node10</title>
<path fill="none" stroke="#63b8ff" d="M468.83,-107.64C484.83,-108.11 502.41,-108.62 518.9,-109.11"/>
<polygon fill="#63b8ff" stroke="#63b8ff" points="518.9,-112.61 529,-109.4 519.11,-105.61 518.9,-112.61"/>
</g>
<!-- Node9&#45;&gt;Node13 -->
<g id="edge12" class="edge">
<title>Node9&#45;&gt;Node13</title>
<path fill="none" stroke="#63b8ff" d="M468.83,-91.92C490.44,-86.47 514.94,-80.29 535.72,-75.05"/>
<polygon fill="#63b8ff" stroke="#63b8ff" points="536.76,-78.4 545.6,-72.56 535.05,-71.61 536.76,-78.4"/>
</g>
<!-- Node11 -->
<g id="node11" class="node">
<title>Node11</title>
<g id="a_node11"><a xlink:href="namespaceDebug__CAN.html#a972189e7412acf4e4b2d36c7693a3f70" target="_top" xlink:title="Sends a debug brake fault message over CAN. This function prepares a CAN frame with the brake fault s...">
<polygon fill="white" stroke="#666666" points="820,-163.5 685,-163.5 685,-144.5 820,-144.5 820,-163.5"/>
<text text-anchor="middle" x="752.5" y="-151.5" font-family="Helvetica,sans-Serif" font-size="10.00">Debug_CAN::brake_fault</text>
</a>
</g>
</g>
<!-- Node10&#45;&gt;Node11 -->
<g id="edge10" class="edge">
<title>Node10&#45;&gt;Node11</title>
<path fill="none" stroke="#63b8ff" d="M622.34,-120.54C646.73,-126.86 678.93,-135.2 705.07,-141.97"/>
<polygon fill="#63b8ff" stroke="#63b8ff" points="704.2,-145.36 714.76,-144.48 705.96,-138.59 704.2,-145.36"/>
</g>
<!-- Node12 -->
<g id="node12" class="node">
<title>Node12</title>
<g id="a_node12"><a xlink:href="namespaceDebug__Serial.html#a9d828bdca10efbda9f4e147a372cbc71" target="_top" xlink:title="Prints a brake fault message to the serial console. This function formats and sends the brake fault s...">
<polygon fill="white" stroke="#666666" points="809.5,-126 695.5,-126 695.5,-96 809.5,-96 809.5,-126"/>
<text text-anchor="start" x="703.5" y="-114" font-family="Helvetica,sans-Serif" font-size="10.00">Debug_Serial::brake</text>
<text text-anchor="middle" x="752.5" y="-103" font-family="Helvetica,sans-Serif" font-size="10.00">_fault</text>
</a>
</g>
</g>
<!-- Node10&#45;&gt;Node12 -->
<g id="edge11" class="edge">
<title>Node10&#45;&gt;Node12</title>
<path fill="none" stroke="#63b8ff" d="M640.31,-111C654.66,-111 670.29,-111 685.17,-111"/>
<polygon fill="#63b8ff" stroke="#63b8ff" points="685.32,-114.5 695.32,-111 685.32,-107.5 685.32,-114.5"/>
</g>
<!-- Node14 -->
<g id="node14" class="node">
<title>Node14</title>
<g id="a_node14"><a xlink:href="namespaceDebug__CAN.html#a8e6443068f8aa21ba673ad7bc132e739" target="_top" xlink:title="Sends a debug throttle fault message over CAN. This function prepares a CAN frame with the throttle f...">
<polygon fill="white" stroke="#666666" points="810.5,-78 694.5,-78 694.5,-48 810.5,-48 810.5,-78"/>
<text text-anchor="start" x="702.5" y="-66" font-family="Helvetica,sans-Serif" font-size="10.00">Debug_CAN::throttle</text>
<text text-anchor="middle" x="752.5" y="-55" font-family="Helvetica,sans-Serif" font-size="10.00">_fault</text>
</a>
</g>
</g>
<!-- Node13&#45;&gt;Node14 -->
<g id="edge13" class="edge">
<title>Node13&#45;&gt;Node14</title>
<path fill="none" stroke="#63b8ff" d="M649.21,-63C660.73,-63 672.78,-63 684.4,-63"/>
<polygon fill="#63b8ff" stroke="#63b8ff" points="684.48,-66.5 694.48,-63 684.48,-59.5 684.48,-66.5"/>
</g>
<!-- Node15 -->
<g id="node15" class="node">
<title>Node15</title>
<g id="a_node15"><a xlink:href="namespaceDebug__Serial.html#aa73ff8f930647f4c70741b4e50ef6a5d" target="_top" xlink:title="Prints a throttle fault message to the serial console. This function formats and sends the throttle f...">
<polygon fill="white" stroke="#666666" points="814,-30 691,-30 691,0 814,0 814,-30"/>
<text text-anchor="start" x="699" y="-18" font-family="Helvetica,sans-Serif" font-size="10.00">Debug_Serial::throttle</text>
<text text-anchor="middle" x="752.5" y="-7" font-family="Helvetica,sans-Serif" font-size="10.00">_fault</text>
</a>
</g>
</g>
<!-- Node13&#45;&gt;Node15 -->
<g id="edge14" class="edge">
<title>Node13&#45;&gt;Node15</title>
<path fill="none" stroke="#63b8ff" d="M618.69,-53.4C638.98,-47.53 665.58,-39.85 689.63,-32.89"/>
<polygon fill="#63b8ff" stroke="#63b8ff" points="690.77,-36.2 699.41,-30.06 688.83,-29.48 690.77,-36.2"/>
</g>
</g>
</svg>
