<?xml version="1.0" encoding="UTF-8" standalone="no"?>
<!DOCTYPE svg PUBLIC "-//W3C//DTD SVG 1.1//EN"
 "http://www.w3.org/Graphics/SVG/1.1/DTD/svg11.dtd">
<!-- Generated by graphviz version 2.43.0 (0)
 -->
<!-- Title: include/Curves.hpp Pages: 1 -->
<svg width="241pt" height="137pt"
 viewBox="0.00 0.00 241.00 137.00" xmlns="http://www.w3.org/2000/svg" xmlns:xlink="http://www.w3.org/1999/xlink">
<g id="graph0" class="graph" transform="scale(1 1) rotate(0) translate(4 133)">
<title>include/Curves.hpp</title>
<!-- Node1 -->
<g id="node1" class="node">
<title>Node1</title>
<g id="a_node1"><a xlink:title="Definition of throttle and brake mapping tables.">
<polygon fill="#999999" stroke="#666666" points="179.5,-129 69.5,-129 69.5,-110 179.5,-110 179.5,-129"/>
<text text-anchor="middle" x="124.5" y="-117" font-family="Helvetica,sans-Serif" font-size="10.00">include/Curves.hpp</text>
</a>
</g>
</g>
<!-- Node2 -->
<g id="node2" class="node">
<title>Node2</title>
<g id="a_node2"><a xlink:href="Pedal_8cpp.html" target="_top" xlink:title="Implementation of the Pedal class for handling throttle pedal inputs.">
<polygon fill="white" stroke="#666666" points="109,-19 0,-19 0,0 109,0 109,-19"/>
<text text-anchor="middle" x="54.5" y="-7" font-family="Helvetica,sans-Serif" font-size="10.00">lib/Pedal/Pedal.cpp</text>
</a>
</g>
</g>
<!-- Node1&#45;&gt;Node2 -->
<g id="edge1" class="edge">
<title>Node1&#45;&gt;Node2</title>
<path fill="none" stroke="#63b8ff" d="M94.81,-105.12C82.08,-97.8 68.36,-87.45 60.5,-74 50.45,-56.79 51.56,-32.39 53.11,-19.42"/>
<polygon fill="#63b8ff" stroke="#63b8ff" points="93.33,-108.29 103.81,-109.91 96.63,-102.12 93.33,-108.29"/>
</g>
<!-- Node3 -->
<g id="node3" class="node">
<title>Node3</title>
<g id="a_node3"><a xlink:href="Pedal_8hpp.html" target="_top" xlink:title="Declaration of the Pedal class for handling throttle and brake pedal inputs.">
<polygon fill="white" stroke="#666666" points="179.5,-74 69.5,-74 69.5,-55 179.5,-55 179.5,-74"/>
<text text-anchor="middle" x="124.5" y="-62" font-family="Helvetica,sans-Serif" font-size="10.00">lib/Pedal/Pedal.hpp</text>
</a>
</g>
</g>
<!-- Node1&#45;&gt;Node3 -->
<g id="edge2" class="edge">
<title>Node1&#45;&gt;Node3</title>
<path fill="none" stroke="#63b8ff" d="M124.5,-99.66C124.5,-90.93 124.5,-80.99 124.5,-74.09"/>
<polygon fill="#63b8ff" stroke="#63b8ff" points="121,-99.75 124.5,-109.75 128,-99.75 121,-99.75"/>
</g>
<!-- Node4 -->
<g id="node4" class="node">
<title>Node4</title>
<g id="a_node4"><a xlink:href="main_8cpp.html" target="_top" xlink:title="Main VCU program entry point.">
<polygon fill="white" stroke="#666666" points="233,-19 154,-19 154,0 233,0 233,-19"/>
<text text-anchor="middle" x="193.5" y="-7" font-family="Helvetica,sans-Serif" font-size="10.00">src/main.cpp</text>
</a>
</g>
</g>
<!-- Node1&#45;&gt;Node4 -->
<g id="edge5" class="edge">
<title>Node1&#45;&gt;Node4</title>
<path fill="none" stroke="#63b8ff" d="M154.29,-105.17C167.04,-97.86 180.75,-87.51 188.5,-74 198.41,-56.73 196.85,-32.36 195.06,-19.4"/>
<polygon fill="#63b8ff" stroke="#63b8ff" points="152.46,-102.18 145.27,-109.95 155.75,-108.36 152.46,-102.18"/>
</g>
<!-- Node3&#45;&gt;Node2 -->
<g id="edge3" class="edge">
<title>Node3&#45;&gt;Node2</title>
<path fill="none" stroke="#63b8ff" d="M105.19,-48.88C92.59,-39.34 76.57,-27.21 65.95,-19.17"/>
<polygon fill="#63b8ff" stroke="#63b8ff" points="103.17,-51.74 113.25,-54.98 107.39,-46.16 103.17,-51.74"/>
</g>
<!-- Node3&#45;&gt;Node4 -->
<g id="edge4" class="edge">
<title>Node3&#45;&gt;Node4</title>
<path fill="none" stroke="#63b8ff" d="M143.54,-48.88C155.96,-39.34 171.74,-27.21 182.21,-19.17"/>
<polygon fill="#63b8ff" stroke="#63b8ff" points="141.38,-46.12 135.59,-54.98 145.65,-51.67 141.38,-46.12"/>
</g>
</g>
</svg>
