<?xml version="1.0" encoding="UTF-8" standalone="no"?>
<!DOCTYPE svg PUBLIC "-//W3C//DTD SVG 1.1//EN"
 "http://www.w3.org/Graphics/SVG/1.1/DTD/svg11.dtd">
<!-- Generated by graphviz version 2.43.0 (0)
 -->
<!-- Title: ee_sw_vcu_2025/include/Curves.hpp Pages: 1 -->
<svg width="145pt" height="148pt"
 viewBox="0.00 0.00 145.00 148.00" xmlns="http://www.w3.org/2000/svg" xmlns:xlink="http://www.w3.org/1999/xlink">
<g id="graph0" class="graph" transform="scale(1 1) rotate(0) translate(4 144)">
<title>ee_sw_vcu_2025/include/Curves.hpp</title>
<!-- Node1 -->
<g id="node1" class="node">
<title>Node1</title>
<g id="a_node1"><a xlink:title="Definition of throttle and brake mapping tables.">
<polygon fill="#999999" stroke="#666666" points="137,-140 0,-140 0,-110 137,-110 137,-140"/>
<text text-anchor="start" x="8" y="-128" font-family="Helvetica,sans-Serif" font-size="10.00">ee_sw_vcu_2025/include</text>
<text text-anchor="middle" x="68.5" y="-117" font-family="Helvetica,sans-Serif" font-size="10.00">/Curves.hpp</text>
</a>
</g>
</g>
<!-- Node2 -->
<g id="node2" class="node">
<title>Node2</title>
<g id="a_node2"><a xlink:href="Interp_8hpp.html" target="_top" xlink:title="Declaration and definition of the LinearInterp class template for linear interpolation.">
<polygon fill="white" stroke="#666666" points="71.5,-74 5.5,-74 5.5,-55 71.5,-55 71.5,-74"/>
<text text-anchor="middle" x="38.5" y="-62" font-family="Helvetica,sans-Serif" font-size="10.00">Interp.hpp</text>
</a>
</g>
</g>
<!-- Node1&#45;&gt;Node2 -->
<g id="edge1" class="edge">
<title>Node1&#45;&gt;Node2</title>
<path fill="none" stroke="#63b8ff" d="M61.24,-109.84C57.15,-101.87 52.01,-91.84 47.64,-83.33"/>
<polygon fill="#63b8ff" stroke="#63b8ff" points="50.67,-81.57 43,-74.27 44.44,-84.76 50.67,-81.57"/>
</g>
<!-- Node3 -->
<g id="node3" class="node">
<title>Node3</title>
<g id="a_node3"><a xlink:title=" ">
<polygon fill="#e0e0e0" stroke="#999999" points="95,-19 42,-19 42,0 95,0 95,-19"/>
<text text-anchor="middle" x="68.5" y="-7" font-family="Helvetica,sans-Serif" font-size="10.00">stdint.h</text>
</a>
</g>
</g>
<!-- Node1&#45;&gt;Node3 -->
<g id="edge3" class="edge">
<title>Node1&#45;&gt;Node3</title>
<path fill="none" stroke="#63b8ff" d="M73.54,-109.78C77.86,-95.86 83.02,-74.04 80.5,-55 79.34,-46.27 76.97,-36.83 74.63,-28.9"/>
<polygon fill="#63b8ff" stroke="#63b8ff" points="77.93,-27.72 71.59,-19.23 71.25,-29.82 77.93,-27.72"/>
</g>
<!-- Node2&#45;&gt;Node3 -->
<g id="edge2" class="edge">
<title>Node2&#45;&gt;Node3</title>
<path fill="none" stroke="#63b8ff" d="M43.45,-54.75C47.56,-47.49 53.53,-36.95 58.6,-27.98"/>
<polygon fill="#63b8ff" stroke="#63b8ff" points="61.76,-29.52 63.64,-19.09 55.67,-26.07 61.76,-29.52"/>
</g>
</g>
</svg>
