<?xml version="1.0" encoding="UTF-8" standalone="no"?>
<!DOCTYPE svg PUBLIC "-//W3C//DTD SVG 1.1//EN"
 "http://www.w3.org/Graphics/SVG/1.1/DTD/svg11.dtd">
<!-- Generated by graphviz version 2.43.0 (0)
 -->
<!-- Title: vehicle_control_unit/include/Curves.hpp Pages: 1 -->
<svg width="129pt" height="148pt"
 viewBox="0.00 0.00 128.50 148.00" xmlns="http://www.w3.org/2000/svg" xmlns:xlink="http://www.w3.org/1999/xlink">
<g id="graph0" class="graph" transform="scale(1 1) rotate(0) translate(4 144)">
<title>vehicle_control_unit/include/Curves.hpp</title>
<!-- Node1 -->
<g id="node1" class="node">
<title>Node1</title>
<g id="a_node1"><a xlink:title="Definition of throttle and brake mapping tables.">
<polygon fill="#999999" stroke="#666666" points="120.5,-140 5.5,-140 5.5,-110 120.5,-110 120.5,-140"/>
<text text-anchor="start" x="13.5" y="-128" font-family="Helvetica,sans-Serif" font-size="10.00">vehicle_control_unit</text>
<text text-anchor="middle" x="63" y="-117" font-family="Helvetica,sans-Serif" font-size="10.00">/include/Curves.hpp</text>
</a>
</g>
</g>
<!-- Node2 -->
<g id="node2" class="node">
<title>Node2</title>
<g id="a_node2"><a xlink:href="Interp_8hpp.html" target="_top" xlink:title="Declaration and definition of the LinearInterp class template for linear interpolation.">
<polygon fill="white" stroke="#666666" points="66,-74 0,-74 0,-55 66,-55 66,-74"/>
<text text-anchor="middle" x="33" y="-62" font-family="Helvetica,sans-Serif" font-size="10.00">Interp.hpp</text>
</a>
</g>
</g>
<!-- Node1&#45;&gt;Node2 -->
<g id="edge1" class="edge">
<title>Node1&#45;&gt;Node2</title>
<path fill="none" stroke="#63b8ff" d="M55.74,-109.84C51.65,-101.87 46.51,-91.84 42.14,-83.33"/>
<polygon fill="#63b8ff" stroke="#63b8ff" points="45.17,-81.57 37.5,-74.27 38.94,-84.76 45.17,-81.57"/>
</g>
<!-- Node3 -->
<g id="node3" class="node">
<title>Node3</title>
<g id="a_node3"><a xlink:title=" ">
<polygon fill="#e0e0e0" stroke="#999999" points="89.5,-19 36.5,-19 36.5,0 89.5,0 89.5,-19"/>
<text text-anchor="middle" x="63" y="-7" font-family="Helvetica,sans-Serif" font-size="10.00">stdint.h</text>
</a>
</g>
</g>
<!-- Node1&#45;&gt;Node3 -->
<g id="edge3" class="edge">
<title>Node1&#45;&gt;Node3</title>
<path fill="none" stroke="#63b8ff" d="M68.04,-109.78C72.36,-95.86 77.52,-74.04 75,-55 73.84,-46.27 71.47,-36.83 69.13,-28.9"/>
<polygon fill="#63b8ff" stroke="#63b8ff" points="72.43,-27.72 66.09,-19.23 65.75,-29.82 72.43,-27.72"/>
</g>
<!-- Node2&#45;&gt;Node3 -->
<g id="edge2" class="edge">
<title>Node2&#45;&gt;Node3</title>
<path fill="none" stroke="#63b8ff" d="M37.95,-54.75C42.06,-47.49 48.03,-36.95 53.1,-27.98"/>
<polygon fill="#63b8ff" stroke="#63b8ff" points="56.26,-29.52 58.14,-19.09 50.17,-26.07 56.26,-29.52"/>
</g>
</g>
</svg>
