<?xml version="1.0" encoding="UTF-8" standalone="no"?>
<!DOCTYPE svg PUBLIC "-//W3C//DTD SVG 1.1//EN"
 "http://www.w3.org/Graphics/SVG/1.1/DTD/svg11.dtd">
<!-- Generated by graphviz version 2.43.0 (0)
 -->
<!-- Title: vehicle_control_unit/include/Curves.hpp Pages: 1 -->
<svg width="266pt" height="170pt"
 viewBox="0.00 0.00 266.00 170.00" xmlns="http://www.w3.org/2000/svg" xmlns:xlink="http://www.w3.org/1999/xlink">
<g id="graph0" class="graph" transform="scale(1 1) rotate(0) translate(4 166)">
<title>vehicle_control_unit/include/Curves.hpp</title>
<!-- Node1 -->
<g id="node1" class="node">
<title>Node1</title>
<g id="a_node1"><a xlink:title="Definition of throttle and brake mapping tables.">
<polygon fill="#999999" stroke="#666666" points="182,-162 67,-162 67,-132 182,-132 182,-162"/>
<text text-anchor="start" x="75" y="-150" font-family="Helvetica,sans-Serif" font-size="10.00">vehicle_control_unit</text>
<text text-anchor="middle" x="124.5" y="-139" font-family="Helvetica,sans-Serif" font-size="10.00">/include/Curves.hpp</text>
</a>
</g>
</g>
<!-- Node2 -->
<g id="node2" class="node">
<title>Node2</title>
<g id="a_node2"><a xlink:href="Pedal_8cpp.html" target="_top" xlink:title="Implementation of the Pedal class for handling throttle pedal inputs.">
<polygon fill="white" stroke="#666666" points="115,-30 0,-30 0,0 115,0 115,-30"/>
<text text-anchor="start" x="8" y="-18" font-family="Helvetica,sans-Serif" font-size="10.00">vehicle_control_unit</text>
<text text-anchor="middle" x="57.5" y="-7" font-family="Helvetica,sans-Serif" font-size="10.00">/lib/Pedal/Pedal.cpp</text>
</a>
</g>
</g>
<!-- Node1&#45;&gt;Node2 -->
<g id="edge1" class="edge">
<title>Node1&#45;&gt;Node2</title>
<path fill="none" stroke="#63b8ff" d="M85.89,-126.32C74.64,-118.52 63.72,-108.41 57.5,-96 46.98,-75.02 50.35,-46.87 53.85,-30.17"/>
<polygon fill="#63b8ff" stroke="#63b8ff" points="84.17,-129.38 94.47,-131.84 87.95,-123.49 84.17,-129.38"/>
</g>
<!-- Node3 -->
<g id="node3" class="node">
<title>Node3</title>
<g id="a_node3"><a xlink:href="Pedal_8hpp.html" target="_top" xlink:title="Declaration of the Pedal class for handling throttle and brake pedal inputs.">
<polygon fill="white" stroke="#666666" points="182,-96 67,-96 67,-66 182,-66 182,-96"/>
<text text-anchor="start" x="75" y="-84" font-family="Helvetica,sans-Serif" font-size="10.00">vehicle_control_unit</text>
<text text-anchor="middle" x="124.5" y="-73" font-family="Helvetica,sans-Serif" font-size="10.00">/lib/Pedal/Pedal.hpp</text>
</a>
</g>
</g>
<!-- Node1&#45;&gt;Node3 -->
<g id="edge2" class="edge">
<title>Node1&#45;&gt;Node3</title>
<path fill="none" stroke="#63b8ff" d="M124.5,-121.54C124.5,-112.96 124.5,-103.61 124.5,-96.16"/>
<polygon fill="#63b8ff" stroke="#63b8ff" points="121,-121.8 124.5,-131.8 128,-121.8 121,-121.8"/>
</g>
<!-- Node4 -->
<g id="node4" class="node">
<title>Node4</title>
<g id="a_node4"><a xlink:href="main_8cpp.html" target="_top" xlink:title="Main VCU program entry point.">
<polygon fill="white" stroke="#666666" points="258,-30 143,-30 143,0 258,0 258,-30"/>
<text text-anchor="start" x="151" y="-18" font-family="Helvetica,sans-Serif" font-size="10.00">vehicle_control_unit</text>
<text text-anchor="middle" x="200.5" y="-7" font-family="Helvetica,sans-Serif" font-size="10.00">/src/main.cpp</text>
</a>
</g>
</g>
<!-- Node1&#45;&gt;Node4 -->
<g id="edge5" class="edge">
<title>Node1&#45;&gt;Node4</title>
<path fill="none" stroke="#63b8ff" d="M160.84,-126.32C172.13,-118.39 183.46,-108.2 190.5,-96 202.39,-75.39 202.9,-46.87 201.9,-30.04"/>
<polygon fill="#63b8ff" stroke="#63b8ff" points="158.72,-123.52 152.28,-131.94 162.56,-129.38 158.72,-123.52"/>
</g>
<!-- Node3&#45;&gt;Node2 -->
<g id="edge3" class="edge">
<title>Node3&#45;&gt;Node2</title>
<path fill="none" stroke="#63b8ff" d="M102.15,-58.65C92.33,-49.27 81.08,-38.53 72.33,-30.16"/>
<polygon fill="#63b8ff" stroke="#63b8ff" points="99.98,-61.42 109.63,-65.8 104.82,-56.36 99.98,-61.42"/>
</g>
<!-- Node3&#45;&gt;Node4 -->
<g id="edge4" class="edge">
<title>Node3&#45;&gt;Node4</title>
<path fill="none" stroke="#63b8ff" d="M149.2,-59.2C160.48,-49.7 173.55,-38.69 183.68,-30.16"/>
<polygon fill="#63b8ff" stroke="#63b8ff" points="146.76,-56.68 141.37,-65.8 151.27,-62.03 146.76,-56.68"/>
</g>
</g>
</svg>
