<?xml version="1.0" encoding="UTF-8" standalone="no"?>
<!DOCTYPE svg PUBLIC "-//W3C//DTD SVG 1.1//EN"
 "http://www.w3.org/Graphics/SVG/1.1/DTD/svg11.dtd">
<!-- Generated by graphviz version 2.43.0 (0)
 -->
<!-- Title: ee_sw_vcu_2025/include/Curves.hpp Pages: 1 -->
<svg width="274pt" height="170pt"
 viewBox="0.00 0.00 274.00 170.00" xmlns="http://www.w3.org/2000/svg" xmlns:xlink="http://www.w3.org/1999/xlink">
<g id="graph0" class="graph" transform="scale(1 1) rotate(0) translate(4 166)">
<title>ee_sw_vcu_2025/include/Curves.hpp</title>
<!-- Node1 -->
<g id="node1" class="node">
<title>Node1</title>
<g id="a_node1"><a xlink:title="Definition of throttle and brake mapping tables.">
<polygon fill="#999999" stroke="#666666" points="201.5,-162 64.5,-162 64.5,-132 201.5,-132 201.5,-162"/>
<text text-anchor="start" x="72.5" y="-150" font-family="Helvetica,sans-Serif" font-size="10.00">ee_sw_vcu_2025/include</text>
<text text-anchor="middle" x="133" y="-139" font-family="Helvetica,sans-Serif" font-size="10.00">/Curves.hpp</text>
</a>
</g>
</g>
<!-- Node2 -->
<g id="node2" class="node">
<title>Node2</title>
<g id="a_node2"><a xlink:href="Pedal_8cpp.html" target="_top" xlink:title="Implementation of the Pedal class for handling throttle pedal inputs.">
<polygon fill="white" stroke="#666666" points="114,-30 0,-30 0,0 114,0 114,-30"/>
<text text-anchor="start" x="8" y="-18" font-family="Helvetica,sans-Serif" font-size="10.00">ee_sw_vcu_2025/lib</text>
<text text-anchor="middle" x="57" y="-7" font-family="Helvetica,sans-Serif" font-size="10.00">/Pedal/Pedal.cpp</text>
</a>
</g>
</g>
<!-- Node1&#45;&gt;Node2 -->
<g id="edge1" class="edge">
<title>Node1&#45;&gt;Node2</title>
<path fill="none" stroke="#63b8ff" d="M96.66,-126.32C85.37,-118.39 74.04,-108.2 67,-96 55.11,-75.39 54.6,-46.87 55.6,-30.04"/>
<polygon fill="#63b8ff" stroke="#63b8ff" points="94.94,-129.38 105.22,-131.94 98.78,-123.52 94.94,-129.38"/>
</g>
<!-- Node3 -->
<g id="node3" class="node">
<title>Node3</title>
<g id="a_node3"><a xlink:href="Pedal_8hpp.html" target="_top" xlink:title="Declaration of the Pedal class for handling throttle and brake pedal inputs.">
<polygon fill="white" stroke="#666666" points="190,-96 76,-96 76,-66 190,-66 190,-96"/>
<text text-anchor="start" x="84" y="-84" font-family="Helvetica,sans-Serif" font-size="10.00">ee_sw_vcu_2025/lib</text>
<text text-anchor="middle" x="133" y="-73" font-family="Helvetica,sans-Serif" font-size="10.00">/Pedal/Pedal.hpp</text>
</a>
</g>
</g>
<!-- Node1&#45;&gt;Node3 -->
<g id="edge2" class="edge">
<title>Node1&#45;&gt;Node3</title>
<path fill="none" stroke="#63b8ff" d="M133,-121.54C133,-112.96 133,-103.61 133,-96.16"/>
<polygon fill="#63b8ff" stroke="#63b8ff" points="129.5,-121.8 133,-131.8 136.5,-121.8 129.5,-121.8"/>
</g>
<!-- Node4 -->
<g id="node4" class="node">
<title>Node4</title>
<g id="a_node4"><a xlink:href="main_8cpp.html" target="_top" xlink:title="Main VCU program entry point.">
<polygon fill="white" stroke="#666666" points="266,-30 150,-30 150,0 266,0 266,-30"/>
<text text-anchor="start" x="158" y="-18" font-family="Helvetica,sans-Serif" font-size="10.00">ee_sw_vcu_2025/src</text>
<text text-anchor="middle" x="208" y="-7" font-family="Helvetica,sans-Serif" font-size="10.00">/main.cpp</text>
</a>
</g>
</g>
<!-- Node1&#45;&gt;Node4 -->
<g id="edge5" class="edge">
<title>Node1&#45;&gt;Node4</title>
<path fill="none" stroke="#63b8ff" d="M169.42,-126.37C180.73,-118.45 192.03,-108.25 199,-96 210.75,-75.35 210.86,-46.85 209.61,-30.03"/>
<polygon fill="#63b8ff" stroke="#63b8ff" points="167.3,-123.57 160.85,-131.98 171.14,-129.43 167.3,-123.57"/>
</g>
<!-- Node3&#45;&gt;Node2 -->
<g id="edge3" class="edge">
<title>Node3&#45;&gt;Node2</title>
<path fill="none" stroke="#63b8ff" d="M108.3,-59.2C97.02,-49.7 83.95,-38.69 73.82,-30.16"/>
<polygon fill="#63b8ff" stroke="#63b8ff" points="106.23,-62.03 116.13,-65.8 110.74,-56.68 106.23,-62.03"/>
</g>
<!-- Node3&#45;&gt;Node4 -->
<g id="edge4" class="edge">
<title>Node3&#45;&gt;Node4</title>
<path fill="none" stroke="#63b8ff" d="M157.37,-59.2C168.51,-49.7 181.41,-38.69 191.4,-30.16"/>
<polygon fill="#63b8ff" stroke="#63b8ff" points="154.98,-56.64 149.64,-65.8 159.52,-61.97 154.98,-56.64"/>
</g>
</g>
</svg>
