<?xml version="1.0" encoding="UTF-8" standalone="no"?>
<!DOCTYPE svg PUBLIC "-//W3C//DTD SVG 1.1//EN"
 "http://www.w3.org/Graphics/SVG/1.1/DTD/svg11.dtd">
<!-- Generated by graphviz version 2.43.0 (0)
 -->
<!-- Title: DBG_THROTTLE Pages: 1 -->
<svg width="451pt" height="27pt"
 viewBox="0.00 0.00 451.00 27.00" xmlns="http://www.w3.org/2000/svg" xmlns:xlink="http://www.w3.org/1999/xlink">
<g id="graph0" class="graph" transform="scale(1 1) rotate(0) translate(4 23)">
<title>DBG_THROTTLE</title>
<!-- Node1 -->
<g id="node1" class="node">
<title>Node1</title>
<g id="a_node1"><a xlink:title="Prints a throttle debug message to the serial console.">
<polygon fill="#999999" stroke="#666666" points="443,-19 348,-19 348,0 443,0 443,-19"/>
<text text-anchor="middle" x="395.5" y="-7" font-family="Helvetica,sans-Serif" font-size="10.00">DBG_THROTTLE</text>
</a>
</g>
</g>
<!-- Node2 -->
<g id="node2" class="node">
<title>Node2</title>
<g id="a_node2"><a xlink:href="classPedal.html#aa66167fb494c00db7b8a0b8140e85973" target="_top" xlink:title="Reads motor data from the CAN bus and updates the CarState.">
<polygon fill="white" stroke="#666666" points="312,-19 212,-19 212,0 312,0 312,-19"/>
<text text-anchor="middle" x="262" y="-7" font-family="Helvetica,sans-Serif" font-size="10.00">Pedal::readMotor</text>
</a>
</g>
</g>
<!-- Node1&#45;&gt;Node2 -->
<g id="edge1" class="edge">
<title>Node1&#45;&gt;Node2</title>
<path fill="none" stroke="#63b8ff" d="M337.61,-9.5C329.16,-9.5 320.52,-9.5 312.25,-9.5"/>
<polygon fill="#63b8ff" stroke="#63b8ff" points="337.77,-13 347.77,-9.5 337.77,-6 337.77,-13"/>
</g>
<!-- Node3 -->
<g id="node3" class="node">
<title>Node3</title>
<g id="a_node3"><a xlink:href="main_8cpp.html#a1174b6795782479542559289cd623faf" target="_top" xlink:title=" ">
<polygon fill="white" stroke="#666666" points="176,-19 80,-19 80,0 176,0 176,-19"/>
<text text-anchor="middle" x="128" y="-7" font-family="Helvetica,sans-Serif" font-size="10.00">scheduler_pedal</text>
</a>
</g>
</g>
<!-- Node2&#45;&gt;Node3 -->
<g id="edge2" class="edge">
<title>Node2&#45;&gt;Node3</title>
<path fill="none" stroke="#63b8ff" d="M201.81,-9.5C193.16,-9.5 184.36,-9.5 176,-9.5"/>
<polygon fill="#63b8ff" stroke="#63b8ff" points="201.85,-13 211.85,-9.5 201.85,-6 201.85,-13"/>
</g>
<!-- Node4 -->
<g id="node4" class="node">
<title>Node4</title>
<g id="a_node4"><a xlink:href="main_8cpp.html#a4fc01d736fe50cf5b977f755b675f11d" target="_top" xlink:title="Setup function for initializing the VCU system. Initializes MCP2515s, IO pins, as well as own modules...">
<polygon fill="white" stroke="#666666" points="44,-19 0,-19 0,0 44,0 44,-19"/>
<text text-anchor="middle" x="22" y="-7" font-family="Helvetica,sans-Serif" font-size="10.00">setup</text>
</a>
</g>
</g>
<!-- Node3&#45;&gt;Node4 -->
<g id="edge3" class="edge">
<title>Node3&#45;&gt;Node4</title>
<path fill="none" stroke="#63b8ff" d="M69.62,-9.5C60.56,-9.5 51.73,-9.5 44.23,-9.5"/>
<polygon fill="#63b8ff" stroke="#63b8ff" points="69.87,-13 79.87,-9.5 69.87,-6 69.87,-13"/>
</g>
</g>
</svg>
