<?xml version="1.0" encoding="UTF-8" standalone="no"?>
<!DOCTYPE svg PUBLIC "-//W3C//DTD SVG 1.1//EN"
 "http://www.w3.org/Graphics/SVG/1.1/DTD/svg11.dtd">
<!-- Generated by graphviz version 2.43.0 (0)
 -->
<!-- Title: ee_sw_vcu_2025/lib/Debug/Debug_serial.hpp Pages: 1 -->
<svg width="179pt" height="148pt"
 viewBox="0.00 0.00 179.00 148.00" xmlns="http://www.w3.org/2000/svg" xmlns:xlink="http://www.w3.org/1999/xlink">
<g id="graph0" class="graph" transform="scale(1 1) rotate(0) translate(4 144)">
<title>ee_sw_vcu_2025/lib/Debug/Debug_serial.hpp</title>
<!-- Node1 -->
<g id="node1" class="node">
<title>Node1</title>
<g id="a_node1"><a xlink:title="Declaration of the Debug_Serial namespace for serial debugging functions.">
<polygon fill="#999999" stroke="#666666" points="143,-140 4,-140 4,-110 143,-110 143,-140"/>
<text text-anchor="start" x="12" y="-128" font-family="Helvetica,sans-Serif" font-size="10.00">ee_sw_vcu_2025/lib</text>
<text text-anchor="middle" x="73.5" y="-117" font-family="Helvetica,sans-Serif" font-size="10.00">/Debug/Debug_serial.hpp</text>
</a>
</g>
</g>
<!-- Node2 -->
<g id="node2" class="node">
<title>Node2</title>
<g id="a_node2"><a xlink:title=" ">
<polygon fill="#e0e0e0" stroke="#999999" points="63,-74 0,-74 0,-55 63,-55 63,-74"/>
<text text-anchor="middle" x="31.5" y="-62" font-family="Helvetica,sans-Serif" font-size="10.00">Arduino.h</text>
</a>
</g>
</g>
<!-- Node1&#45;&gt;Node2 -->
<g id="edge1" class="edge">
<title>Node1&#45;&gt;Node2</title>
<path fill="none" stroke="#63b8ff" d="M63.33,-109.84C57.42,-101.61 49.94,-91.18 43.71,-82.51"/>
<polygon fill="#63b8ff" stroke="#63b8ff" points="46.47,-80.35 37.79,-74.27 40.78,-84.43 46.47,-80.35"/>
</g>
<!-- Node3 -->
<g id="node3" class="node">
<title>Node3</title>
<g id="a_node3"><a xlink:href="Enums_8hpp.html" target="_top" xlink:title="Enumeration definitions for the VCU.">
<polygon fill="white" stroke="#666666" points="152,-74 81,-74 81,-55 152,-55 152,-74"/>
<text text-anchor="middle" x="116.5" y="-62" font-family="Helvetica,sans-Serif" font-size="10.00">Enums.hpp</text>
</a>
</g>
</g>
<!-- Node1&#45;&gt;Node3 -->
<g id="edge2" class="edge">
<title>Node1&#45;&gt;Node3</title>
<path fill="none" stroke="#63b8ff" d="M83.91,-109.84C89.96,-101.61 97.62,-91.18 104,-82.51"/>
<polygon fill="#63b8ff" stroke="#63b8ff" points="106.95,-84.4 110.06,-74.27 101.31,-80.25 106.95,-84.4"/>
</g>
<!-- Node4 -->
<g id="node4" class="node">
<title>Node4</title>
<g id="a_node4"><a xlink:title=" ">
<polygon fill="#e0e0e0" stroke="#999999" points="110,-19 57,-19 57,0 110,0 110,-19"/>
<text text-anchor="middle" x="83.5" y="-7" font-family="Helvetica,sans-Serif" font-size="10.00">stdint.h</text>
</a>
</g>
</g>
<!-- Node3&#45;&gt;Node4 -->
<g id="edge3" class="edge">
<title>Node3&#45;&gt;Node4</title>
<path fill="none" stroke="#63b8ff" d="M111.05,-54.75C106.49,-47.42 99.83,-36.73 94.21,-27.7"/>
<polygon fill="#63b8ff" stroke="#63b8ff" points="97.1,-25.73 88.85,-19.09 91.16,-29.43 97.1,-25.73"/>
</g>
<!-- Node5 -->
<g id="node5" class="node">
<title>Node5</title>
<g id="a_node5"><a xlink:title=" ">
<polygon fill="#e0e0e0" stroke="#999999" points="171,-19 128,-19 128,0 171,0 171,-19"/>
<text text-anchor="middle" x="149.5" y="-7" font-family="Helvetica,sans-Serif" font-size="10.00">can.h</text>
</a>
</g>
</g>
<!-- Node3&#45;&gt;Node5 -->
<g id="edge4" class="edge">
<title>Node3&#45;&gt;Node5</title>
<path fill="none" stroke="#63b8ff" d="M121.95,-54.75C126.51,-47.42 133.17,-36.73 138.79,-27.7"/>
<polygon fill="#63b8ff" stroke="#63b8ff" points="141.84,-29.43 144.15,-19.09 135.9,-25.73 141.84,-29.43"/>
</g>
</g>
</svg>
