<?xml version="1.0" encoding="UTF-8" standalone="no"?>
<!DOCTYPE svg PUBLIC "-//W3C//DTD SVG 1.1//EN"
 "http://www.w3.org/Graphics/SVG/1.1/DTD/svg11.dtd">
<!-- Generated by graphviz version 2.43.0 (0)
 -->
<!-- Title: DBGLN_THROTTLE Pages: 1 -->
<svg width="467pt" height="64pt"
 viewBox="0.00 0.00 467.00 64.00" xmlns="http://www.w3.org/2000/svg" xmlns:xlink="http://www.w3.org/1999/xlink">
<g id="graph0" class="graph" transform="scale(1 1) rotate(0) translate(4 60)">
<title>DBGLN_THROTTLE</title>
<!-- Node1 -->
<g id="node1" class="node">
<title>Node1</title>
<g id="a_node1"><a xlink:title="Prints a line to the serial console for throttle debug.">
<polygon fill="#999999" stroke="#666666" points="459,-37 352,-37 352,-18 459,-18 459,-37"/>
<text text-anchor="middle" x="405.5" y="-25" font-family="Helvetica,sans-Serif" font-size="10.00">DBGLN_THROTTLE</text>
</a>
</g>
</g>
<!-- Node2 -->
<g id="node2" class="node">
<title>Node2</title>
<g id="a_node2"><a xlink:href="main_8cpp.html#afe461d27b9c48d5921c00d521181f12f" target="_top" xlink:title="Main loop function for the VCU system. Handles car state transitions, pipes dataflow between modules.">
<polygon fill="white" stroke="#666666" points="283,-56 245,-56 245,-37 283,-37 283,-56"/>
<text text-anchor="middle" x="264" y="-44" font-family="Helvetica,sans-Serif" font-size="10.00">loop</text>
</a>
</g>
</g>
<!-- Node1&#45;&gt;Node2 -->
<g id="edge1" class="edge">
<title>Node1&#45;&gt;Node2</title>
<path fill="none" stroke="#63b8ff" d="M341.69,-36.05C320.29,-38.97 298.02,-42 283.02,-44.05"/>
<polygon fill="#63b8ff" stroke="#63b8ff" points="342.32,-39.5 351.76,-34.68 341.38,-32.56 342.32,-39.5"/>
</g>
<!-- Node3 -->
<g id="node3" class="node">
<title>Node3</title>
<g id="a_node3"><a xlink:href="classPedal.html#a1027941444ce0b3f32ab8991e05c2015" target="_top" xlink:title="Sends the appropriate CAN frame to the motor based on pedal and car state.">
<polygon fill="white" stroke="#666666" points="316,-19 212,-19 212,0 316,0 316,-19"/>
<text text-anchor="middle" x="264" y="-7" font-family="Helvetica,sans-Serif" font-size="10.00">Pedal::sendFrame</text>
</a>
</g>
</g>
<!-- Node1&#45;&gt;Node3 -->
<g id="edge2" class="edge">
<title>Node1&#45;&gt;Node3</title>
<path fill="none" stroke="#63b8ff" d="M341.59,-19.38C333.17,-18.3 324.62,-17.19 316.43,-16.14"/>
<polygon fill="#63b8ff" stroke="#63b8ff" points="341.4,-22.89 351.76,-20.69 342.29,-15.94 341.4,-22.89"/>
</g>
<!-- Node4 -->
<g id="node4" class="node">
<title>Node4</title>
<g id="a_node4"><a xlink:href="main_8cpp.html#a1174b6795782479542559289cd623faf" target="_top" xlink:title=" ">
<polygon fill="white" stroke="#666666" points="176,-19 80,-19 80,0 176,0 176,-19"/>
<text text-anchor="middle" x="128" y="-7" font-family="Helvetica,sans-Serif" font-size="10.00">scheduler_pedal</text>
</a>
</g>
</g>
<!-- Node3&#45;&gt;Node4 -->
<g id="edge3" class="edge">
<title>Node3&#45;&gt;Node4</title>
<path fill="none" stroke="#63b8ff" d="M201.69,-9.5C193.19,-9.5 184.57,-9.5 176.37,-9.5"/>
<polygon fill="#63b8ff" stroke="#63b8ff" points="201.96,-13 211.96,-9.5 201.96,-6 201.96,-13"/>
</g>
<!-- Node5 -->
<g id="node5" class="node">
<title>Node5</title>
<g id="a_node5"><a xlink:href="main_8cpp.html#a4fc01d736fe50cf5b977f755b675f11d" target="_top" xlink:title="Setup function for initializing the VCU system. Initializes MCP2515s, IO pins, as well as own modules...">
<polygon fill="white" stroke="#666666" points="44,-19 0,-19 0,0 44,0 44,-19"/>
<text text-anchor="middle" x="22" y="-7" font-family="Helvetica,sans-Serif" font-size="10.00">setup</text>
</a>
</g>
</g>
<!-- Node4&#45;&gt;Node5 -->
<g id="edge4" class="edge">
<title>Node4&#45;&gt;Node5</title>
<path fill="none" stroke="#63b8ff" d="M69.62,-9.5C60.56,-9.5 51.73,-9.5 44.23,-9.5"/>
<polygon fill="#63b8ff" stroke="#63b8ff" points="69.87,-13 79.87,-9.5 69.87,-6 69.87,-13"/>
</g>
</g>
</svg>
