<?xml version="1.0" encoding="UTF-8" standalone="no"?>
<!DOCTYPE svg PUBLIC "-//W3C//DTD SVG 1.1//EN"
 "http://www.w3.org/Graphics/SVG/1.1/DTD/svg11.dtd">
<!-- Generated by graphviz version 2.43.0 (0)
 -->
<!-- Title: lib/Debug/Debug_can.cpp Pages: 1 -->
<svg width="187pt" height="192pt"
 viewBox="0.00 0.00 187.00 192.00" xmlns="http://www.w3.org/2000/svg" xmlns:xlink="http://www.w3.org/1999/xlink">
<g id="graph0" class="graph" transform="scale(1 1) rotate(0) translate(4 188)">
<title>lib/Debug/Debug_can.cpp</title>
<!-- Node1 -->
<g id="node1" class="node">
<title>Node1</title>
<g id="a_node1"><a xlink:title="Implementation of the Debug_CAN namespace for CAN debugging functions.">
<polygon fill="#999999" stroke="#666666" points="142.5,-184 2.5,-184 2.5,-165 142.5,-165 142.5,-184"/>
<text text-anchor="middle" x="72.5" y="-172" font-family="Helvetica,sans-Serif" font-size="10.00">lib/Debug/Debug_can.cpp</text>
</a>
</g>
</g>
<!-- Node2 -->
<g id="node2" class="node">
<title>Node2</title>
<g id="a_node2"><a xlink:href="Debug__can_8hpp.html" target="_top" xlink:title="Declaration of the Debug_CAN namespace for CAN debugging functions.">
<polygon fill="white" stroke="#666666" points="155.5,-129 63.5,-129 63.5,-110 155.5,-110 155.5,-129"/>
<text text-anchor="middle" x="109.5" y="-117" font-family="Helvetica,sans-Serif" font-size="10.00">Debug_can.hpp</text>
</a>
</g>
</g>
<!-- Node1&#45;&gt;Node2 -->
<g id="edge1" class="edge">
<title>Node1&#45;&gt;Node2</title>
<path fill="none" stroke="#63b8ff" d="M78.61,-164.75C83.78,-157.34 91.35,-146.5 97.69,-137.41"/>
<polygon fill="#63b8ff" stroke="#63b8ff" points="100.65,-139.29 103.5,-129.09 94.91,-135.29 100.65,-139.29"/>
</g>
<!-- Node3 -->
<g id="node3" class="node">
<title>Node3</title>
<g id="a_node3"><a xlink:title=" ">
<polygon fill="#e0e0e0" stroke="#999999" points="71,-74 0,-74 0,-55 71,-55 71,-74"/>
<text text-anchor="middle" x="35.5" y="-62" font-family="Helvetica,sans-Serif" font-size="10.00">mcp2515.h</text>
</a>
</g>
</g>
<!-- Node1&#45;&gt;Node3 -->
<g id="edge6" class="edge">
<title>Node1&#45;&gt;Node3</title>
<path fill="none" stroke="#63b8ff" d="M68.67,-164.73C64.84,-155.82 58.92,-141.58 54.5,-129 49.25,-114.05 44.15,-96.82 40.56,-84.08"/>
<polygon fill="#63b8ff" stroke="#63b8ff" points="43.87,-82.91 37.83,-74.21 37.13,-84.78 43.87,-82.91"/>
</g>
<!-- Node2&#45;&gt;Node3 -->
<g id="edge2" class="edge">
<title>Node2&#45;&gt;Node3</title>
<path fill="none" stroke="#63b8ff" d="M97.61,-109.98C86.35,-101.92 69.21,-89.65 55.79,-80.03"/>
<polygon fill="#63b8ff" stroke="#63b8ff" points="57.77,-77.15 47.61,-74.17 53.7,-82.84 57.77,-77.15"/>
</g>
<!-- Node4 -->
<g id="node4" class="node">
<title>Node4</title>
<g id="a_node4"><a xlink:href="Enums_8hpp.html" target="_top" xlink:title=" ">
<polygon fill="white" stroke="#666666" points="160,-74 89,-74 89,-55 160,-55 160,-74"/>
<text text-anchor="middle" x="124.5" y="-62" font-family="Helvetica,sans-Serif" font-size="10.00">Enums.hpp</text>
</a>
</g>
</g>
<!-- Node2&#45;&gt;Node4 -->
<g id="edge3" class="edge">
<title>Node2&#45;&gt;Node4</title>
<path fill="none" stroke="#63b8ff" d="M111.98,-109.75C113.96,-102.72 116.82,-92.62 119.31,-83.84"/>
<polygon fill="#63b8ff" stroke="#63b8ff" points="122.71,-84.66 122.07,-74.09 115.98,-82.76 122.71,-84.66"/>
</g>
<!-- Node5 -->
<g id="node5" class="node">
<title>Node5</title>
<g id="a_node5"><a xlink:title=" ">
<polygon fill="#e0e0e0" stroke="#999999" points="118,-19 65,-19 65,0 118,0 118,-19"/>
<text text-anchor="middle" x="91.5" y="-7" font-family="Helvetica,sans-Serif" font-size="10.00">stdint.h</text>
</a>
</g>
</g>
<!-- Node4&#45;&gt;Node5 -->
<g id="edge4" class="edge">
<title>Node4&#45;&gt;Node5</title>
<path fill="none" stroke="#63b8ff" d="M119.05,-54.75C114.49,-47.42 107.83,-36.73 102.21,-27.7"/>
<polygon fill="#63b8ff" stroke="#63b8ff" points="105.1,-25.73 96.85,-19.09 99.16,-29.43 105.1,-25.73"/>
</g>
<!-- Node6 -->
<g id="node6" class="node">
<title>Node6</title>
<g id="a_node6"><a xlink:title=" ">
<polygon fill="#e0e0e0" stroke="#999999" points="179,-19 136,-19 136,0 179,0 179,-19"/>
<text text-anchor="middle" x="157.5" y="-7" font-family="Helvetica,sans-Serif" font-size="10.00">can.h</text>
</a>
</g>
</g>
<!-- Node4&#45;&gt;Node6 -->
<g id="edge5" class="edge">
<title>Node4&#45;&gt;Node6</title>
<path fill="none" stroke="#63b8ff" d="M129.95,-54.75C134.51,-47.42 141.17,-36.73 146.79,-27.7"/>
<polygon fill="#63b8ff" stroke="#63b8ff" points="149.84,-29.43 152.15,-19.09 143.9,-25.73 149.84,-29.43"/>
</g>
</g>
</svg>
