<?xml version="1.0" encoding="UTF-8" standalone="no"?>
<!DOCTYPE svg PUBLIC "-//W3C//DTD SVG 1.1//EN"
 "http://www.w3.org/Graphics/SVG/1.1/DTD/svg11.dtd">
<!-- Generated by graphviz version 2.43.0 (0)
 -->
<!-- Title: DBGLN_GENERAL Pages: 1 -->
<svg width="436pt" height="64pt"
 viewBox="0.00 0.00 436.00 64.00" xmlns="http://www.w3.org/2000/svg" xmlns:xlink="http://www.w3.org/1999/xlink">
<g id="graph0" class="graph" transform="scale(1 1) rotate(0) translate(4 60)">
<title>DBGLN_GENERAL</title>
<!-- Node1 -->
<g id="node1" class="node">
<title>Node1</title>
<g id="a_node1"><a xlink:title="Prints a line to the serial console for general debug.">
<polygon fill="#999999" stroke="#666666" points="428,-37 326,-37 326,-18 428,-18 428,-37"/>
<text text-anchor="middle" x="377" y="-25" font-family="Helvetica,sans-Serif" font-size="10.00">DBGLN_GENERAL</text>
</a>
</g>
</g>
<!-- Node2 -->
<g id="node2" class="node">
<title>Node2</title>
<g id="a_node2"><a xlink:href="classBMS.html#a2b5ec1ea35cac26d5defeb652f721975" target="_top" xlink:title="Attempt to start HV. First check BMS is in standby(3) state, then send the HV start command....">
<polygon fill="white" stroke="#666666" points="290,-56 200,-56 200,-37 290,-37 290,-56"/>
<text text-anchor="middle" x="245" y="-44" font-family="Helvetica,sans-Serif" font-size="10.00">BMS::check_hv</text>
</a>
</g>
</g>
<!-- Node1&#45;&gt;Node2 -->
<g id="edge1" class="edge">
<title>Node1&#45;&gt;Node2</title>
<path fill="none" stroke="#63b8ff" d="M315.73,-36.31C307.13,-37.57 298.41,-38.84 290.2,-40.04"/>
<polygon fill="#63b8ff" stroke="#63b8ff" points="316.35,-39.76 325.74,-34.85 315.34,-32.83 316.35,-39.76"/>
</g>
<!-- Node5 -->
<g id="node5" class="node">
<title>Node5</title>
<g id="a_node5"><a xlink:href="main_8cpp.html#a4fc01d736fe50cf5b977f755b675f11d" target="_top" xlink:title="Setup function for initializing the VCU system. Initializes MCP2515s, IO pins, as well as own modules...">
<polygon fill="white" stroke="#666666" points="267,-19 223,-19 223,0 267,0 267,-19"/>
<text text-anchor="middle" x="245" y="-7" font-family="Helvetica,sans-Serif" font-size="10.00">setup</text>
</a>
</g>
</g>
<!-- Node1&#45;&gt;Node5 -->
<g id="edge4" class="edge">
<title>Node1&#45;&gt;Node5</title>
<path fill="none" stroke="#63b8ff" d="M315.63,-19.14C298.3,-16.74 280.53,-14.28 267.28,-12.45"/>
<polygon fill="#63b8ff" stroke="#63b8ff" points="315.35,-22.64 325.74,-20.54 316.31,-15.7 315.35,-22.64"/>
</g>
<!-- Node3 -->
<g id="node3" class="node">
<title>Node3</title>
<g id="a_node3"><a xlink:href="main_8cpp.html#a1ea17ca2552291c88af3e9ec6804264b" target="_top" xlink:title=" ">
<polygon fill="white" stroke="#666666" points="164,-56 74,-56 74,-37 164,-37 164,-56"/>
<text text-anchor="middle" x="119" y="-44" font-family="Helvetica,sans-Serif" font-size="10.00">scheduler_bms</text>
</a>
</g>
</g>
<!-- Node2&#45;&gt;Node3 -->
<g id="edge2" class="edge">
<title>Node2&#45;&gt;Node3</title>
<path fill="none" stroke="#63b8ff" d="M189.73,-46.5C181.25,-46.5 172.57,-46.5 164.34,-46.5"/>
<polygon fill="#63b8ff" stroke="#63b8ff" points="189.93,-50 199.93,-46.5 189.93,-43 189.93,-50"/>
</g>
<!-- Node4 -->
<g id="node4" class="node">
<title>Node4</title>
<g id="a_node4"><a xlink:href="main_8cpp.html#afe461d27b9c48d5921c00d521181f12f" target="_top" xlink:title="Main loop function for the VCU system. Handles car state transitions, pipes dataflow between modules.">
<polygon fill="white" stroke="#666666" points="38,-56 0,-56 0,-37 38,-37 38,-56"/>
<text text-anchor="middle" x="19" y="-44" font-family="Helvetica,sans-Serif" font-size="10.00">loop</text>
</a>
</g>
</g>
<!-- Node3&#45;&gt;Node4 -->
<g id="edge3" class="edge">
<title>Node3&#45;&gt;Node4</title>
<path fill="none" stroke="#63b8ff" d="M63.8,-46.5C54.56,-46.5 45.56,-46.5 38.15,-46.5"/>
<polygon fill="#63b8ff" stroke="#63b8ff" points="63.87,-50 73.87,-46.5 63.87,-43 63.87,-50"/>
</g>
</g>
</svg>
