<?xml version="1.0" encoding="UTF-8" standalone="no"?>
<!DOCTYPE svg PUBLIC "-//W3C//DTD SVG 1.1//EN"
 "http://www.w3.org/Graphics/SVG/1.1/DTD/svg11.dtd">
<!-- Generated by graphviz version 2.43.0 (0)
 -->
<!-- Title: lib/Debug/Debug_can.cpp Pages: 1 -->
<svg width="164pt" height="137pt"
 viewBox="0.00 0.00 163.50 137.00" xmlns="http://www.w3.org/2000/svg" xmlns:xlink="http://www.w3.org/1999/xlink">
<g id="graph0" class="graph" transform="scale(1 1) rotate(0) translate(4 133)">
<title>lib/Debug/Debug_can.cpp</title>
<!-- Node1 -->
<g id="node1" class="node">
<title>Node1</title>
<g id="a_node1"><a xlink:title="Implementation of the Debug_CAN namespace for CAN debugging functions.">
<polygon fill="#999999" stroke="#666666" points="142.5,-129 2.5,-129 2.5,-110 142.5,-110 142.5,-129"/>
<text text-anchor="middle" x="72.5" y="-117" font-family="Helvetica,sans-Serif" font-size="10.00">lib/Debug/Debug_can.cpp</text>
</a>
</g>
</g>
<!-- Node2 -->
<g id="node2" class="node">
<title>Node2</title>
<g id="a_node2"><a xlink:href="Debug__can_8hpp.html" target="_top" xlink:title="Declaration of the Debug_CAN namespace for CAN debugging functions.">
<polygon fill="white" stroke="#666666" points="155.5,-74 63.5,-74 63.5,-55 155.5,-55 155.5,-74"/>
<text text-anchor="middle" x="109.5" y="-62" font-family="Helvetica,sans-Serif" font-size="10.00">Debug_can.hpp</text>
</a>
</g>
</g>
<!-- Node1&#45;&gt;Node2 -->
<g id="edge1" class="edge">
<title>Node1&#45;&gt;Node2</title>
<path fill="none" stroke="#63b8ff" d="M78.61,-109.75C83.78,-102.34 91.35,-91.5 97.69,-82.41"/>
<polygon fill="#63b8ff" stroke="#63b8ff" points="100.65,-84.29 103.5,-74.09 94.91,-80.29 100.65,-84.29"/>
</g>
<!-- Node3 -->
<g id="node3" class="node">
<title>Node3</title>
<g id="a_node3"><a xlink:title=" ">
<polygon fill="#e0e0e0" stroke="#999999" points="71,-19 0,-19 0,0 71,0 71,-19"/>
<text text-anchor="middle" x="35.5" y="-7" font-family="Helvetica,sans-Serif" font-size="10.00">mcp2515.h</text>
</a>
</g>
</g>
<!-- Node1&#45;&gt;Node3 -->
<g id="edge4" class="edge">
<title>Node1&#45;&gt;Node3</title>
<path fill="none" stroke="#63b8ff" d="M68.67,-109.73C64.84,-100.82 58.92,-86.58 54.5,-74 49.25,-59.05 44.15,-41.82 40.56,-29.08"/>
<polygon fill="#63b8ff" stroke="#63b8ff" points="43.87,-27.91 37.83,-19.21 37.13,-29.78 43.87,-27.91"/>
</g>
<!-- Node2&#45;&gt;Node3 -->
<g id="edge2" class="edge">
<title>Node2&#45;&gt;Node3</title>
<path fill="none" stroke="#63b8ff" d="M97.61,-54.98C86.35,-46.92 69.21,-34.65 55.79,-25.03"/>
<polygon fill="#63b8ff" stroke="#63b8ff" points="57.77,-22.15 47.61,-19.17 53.7,-27.84 57.77,-22.15"/>
</g>
<!-- Node4 -->
<g id="node4" class="node">
<title>Node4</title>
<g id="a_node4"><a xlink:href="Enums_8h.html" target="_top" xlink:title=" ">
<polygon fill="white" stroke="#666666" points="148,-19 89,-19 89,0 148,0 148,-19"/>
<text text-anchor="middle" x="118.5" y="-7" font-family="Helvetica,sans-Serif" font-size="10.00">Enums.h</text>
</a>
</g>
</g>
<!-- Node2&#45;&gt;Node4 -->
<g id="edge3" class="edge">
<title>Node2&#45;&gt;Node4</title>
<path fill="none" stroke="#63b8ff" d="M110.99,-54.75C112.17,-47.8 113.86,-37.85 115.34,-29.13"/>
<polygon fill="#63b8ff" stroke="#63b8ff" points="118.82,-29.53 117.04,-19.09 111.92,-28.36 118.82,-29.53"/>
</g>
</g>
</svg>
