<?xml version="1.0" encoding="UTF-8" standalone="no"?>
<!DOCTYPE svg PUBLIC "-//W3C//DTD SVG 1.1//EN"
 "http://www.w3.org/Graphics/SVG/1.1/DTD/svg11.dtd">
<!-- Generated by graphviz version 2.43.0 (0)
 -->
<!-- Title: lib/Debug/Debug_serial.cpp Pages: 1 -->
<svg width="163pt" height="137pt"
 viewBox="0.00 0.00 163.50 137.00" xmlns="http://www.w3.org/2000/svg" xmlns:xlink="http://www.w3.org/1999/xlink">
<g id="graph0" class="graph" transform="scale(1 1) rotate(0) translate(4 133)">
<title>lib/Debug/Debug_serial.cpp</title>
<!-- Node1 -->
<g id="node1" class="node">
<title>Node1</title>
<g id="a_node1"><a xlink:title=" ">
<polygon fill="#999999" stroke="#666666" points="155.5,-129 5.5,-129 5.5,-110 155.5,-110 155.5,-129"/>
<text text-anchor="middle" x="80.5" y="-117" font-family="Helvetica,sans-Serif" font-size="10.00">lib/Debug/Debug_serial.cpp</text>
</a>
</g>
</g>
<!-- Node2 -->
<g id="node2" class="node">
<title>Node2</title>
<g id="a_node2"><a xlink:href="Debug__serial_8h.html" target="_top" xlink:title=" ">
<polygon fill="white" stroke="#666666" points="89,-74 0,-74 0,-55 89,-55 89,-74"/>
<text text-anchor="middle" x="44.5" y="-62" font-family="Helvetica,sans-Serif" font-size="10.00">Debug_serial.h</text>
</a>
</g>
</g>
<!-- Node1&#45;&gt;Node2 -->
<g id="edge1" class="edge">
<title>Node1&#45;&gt;Node2</title>
<path fill="none" stroke="#63b8ff" d="M74.56,-109.75C69.52,-102.34 62.16,-91.5 55.99,-82.41"/>
<polygon fill="#63b8ff" stroke="#63b8ff" points="58.85,-80.39 50.33,-74.09 53.06,-84.33 58.85,-80.39"/>
</g>
<!-- Node4 -->
<g id="node4" class="node">
<title>Node4</title>
<g id="a_node4"><a xlink:href="Enums_8h.html" target="_top" xlink:title=" ">
<polygon fill="white" stroke="#666666" points="147,-19 88,-19 88,0 147,0 147,-19"/>
<text text-anchor="middle" x="117.5" y="-7" font-family="Helvetica,sans-Serif" font-size="10.00">Enums.h</text>
</a>
</g>
</g>
<!-- Node1&#45;&gt;Node4 -->
<g id="edge4" class="edge">
<title>Node1&#45;&gt;Node4</title>
<path fill="none" stroke="#63b8ff" d="M84.04,-109.69C87.6,-100.76 93.15,-86.5 97.5,-74 102.73,-58.97 108.12,-41.74 111.98,-29.03"/>
<polygon fill="#63b8ff" stroke="#63b8ff" points="115.42,-29.77 114.95,-19.18 108.71,-27.75 115.42,-29.77"/>
</g>
<!-- Node3 -->
<g id="node3" class="node">
<title>Node3</title>
<g id="a_node3"><a xlink:title=" ">
<polygon fill="#e0e0e0" stroke="#999999" points="70,-19 7,-19 7,0 70,0 70,-19"/>
<text text-anchor="middle" x="38.5" y="-7" font-family="Helvetica,sans-Serif" font-size="10.00">Arduino.h</text>
</a>
</g>
</g>
<!-- Node2&#45;&gt;Node3 -->
<g id="edge2" class="edge">
<title>Node2&#45;&gt;Node3</title>
<path fill="none" stroke="#63b8ff" d="M43.51,-54.75C42.72,-47.8 41.6,-37.85 40.61,-29.13"/>
<polygon fill="#63b8ff" stroke="#63b8ff" points="44.08,-28.63 39.47,-19.09 37.12,-29.42 44.08,-28.63"/>
</g>
<!-- Node2&#45;&gt;Node4 -->
<g id="edge3" class="edge">
<title>Node2&#45;&gt;Node4</title>
<path fill="none" stroke="#63b8ff" d="M56.23,-54.98C67.23,-47 83.92,-34.88 97.1,-25.31"/>
<polygon fill="#63b8ff" stroke="#63b8ff" points="99.52,-27.88 105.56,-19.17 95.41,-22.21 99.52,-27.88"/>
</g>
</g>
</svg>
