<?xml version="1.0" encoding="UTF-8" standalone="no"?>
<!DOCTYPE svg PUBLIC "-//W3C//DTD SVG 1.1//EN"
 "http://www.w3.org/Graphics/SVG/1.1/DTD/svg11.dtd">
<!-- Generated by graphviz version 2.43.0 (0)
 -->
<!-- Title: DBGLN_THROTTLE Pages: 1 -->
<svg width="497pt" height="76pt"
 viewBox="0.00 0.00 497.00 75.50" xmlns="http://www.w3.org/2000/svg" xmlns:xlink="http://www.w3.org/1999/xlink">
<g id="graph0" class="graph" transform="scale(1 1) rotate(0) translate(4 71.5)">
<title>DBGLN_THROTTLE</title>
<!-- Node1 -->
<g id="node1" class="node">
<title>Node1</title>
<g id="a_node1"><a xlink:title="Prints a line to the serial console for throttle debug.">
<polygon fill="#999999" stroke="#666666" points="489,-45.5 382,-45.5 382,-26.5 489,-26.5 489,-45.5"/>
<text text-anchor="middle" x="435.5" y="-33.5" font-family="Helvetica,sans-Serif" font-size="10.00">DBGLN_THROTTLE</text>
</a>
</g>
</g>
<!-- Node2 -->
<g id="node2" class="node">
<title>Node2</title>
<g id="a_node2"><a xlink:href="main_8cpp.html#afe461d27b9c48d5921c00d521181f12f" target="_top" xlink:title="Main loop function for the VCU system. Handles car state transitions, pipes dataflow between modules.">
<polygon fill="white" stroke="#666666" points="298,-67.5 260,-67.5 260,-48.5 298,-48.5 298,-67.5"/>
<text text-anchor="middle" x="279" y="-55.5" font-family="Helvetica,sans-Serif" font-size="10.00">loop</text>
</a>
</g>
</g>
<!-- Node1&#45;&gt;Node2 -->
<g id="edge1" class="edge">
<title>Node1&#45;&gt;Node2</title>
<path fill="none" stroke="#63b8ff" d="M371.73,-44.94C345.17,-48.72 316.25,-52.84 298.13,-55.42"/>
<polygon fill="#63b8ff" stroke="#63b8ff" points="372.36,-48.38 381.76,-43.51 371.37,-41.45 372.36,-48.38"/>
</g>
<!-- Node3 -->
<g id="node3" class="node">
<title>Node3</title>
<g id="a_node3"><a xlink:href="classPedal.html#a2457466d32f6d9f58f8b8ab6c34cd495" target="_top" xlink:title="Updates the CAN frame with the most recent pedal value.">
<polygon fill="white" stroke="#666666" points="346,-30 212,-30 212,0 346,0 346,-30"/>
<text text-anchor="start" x="220" y="-18" font-family="Helvetica,sans-Serif" font-size="10.00">Pedal::pedal_can_frame</text>
<text text-anchor="middle" x="279" y="-7" font-family="Helvetica,sans-Serif" font-size="10.00">_update</text>
</a>
</g>
</g>
<!-- Node1&#45;&gt;Node3 -->
<g id="edge2" class="edge">
<title>Node1&#45;&gt;Node3</title>
<path fill="none" stroke="#63b8ff" d="M371.66,-27.46C363.26,-26.32 354.62,-25.14 346.16,-23.99"/>
<polygon fill="#63b8ff" stroke="#63b8ff" points="371.38,-30.95 381.76,-28.83 372.32,-24.02 371.38,-30.95"/>
</g>
<!-- Node4 -->
<g id="node4" class="node">
<title>Node4</title>
<g id="a_node4"><a xlink:href="main_8cpp.html#a2668d80d0711f29d4507c48eb984f684" target="_top" xlink:title=" ">
<polygon fill="white" stroke="#666666" points="176,-24.5 80,-24.5 80,-5.5 176,-5.5 176,-24.5"/>
<text text-anchor="middle" x="128" y="-12.5" font-family="Helvetica,sans-Serif" font-size="10.00">scheduler_pedal</text>
</a>
</g>
</g>
<!-- Node3&#45;&gt;Node4 -->
<g id="edge3" class="edge">
<title>Node3&#45;&gt;Node4</title>
<path fill="none" stroke="#63b8ff" d="M201.64,-15C192.99,-15 184.38,-15 176.26,-15"/>
<polygon fill="#63b8ff" stroke="#63b8ff" points="201.78,-18.5 211.78,-15 201.78,-11.5 201.78,-18.5"/>
</g>
<!-- Node5 -->
<g id="node5" class="node">
<title>Node5</title>
<g id="a_node5"><a xlink:href="main_8cpp.html#a4fc01d736fe50cf5b977f755b675f11d" target="_top" xlink:title="Setup function for initializing the VCU system. Initializes MCP2515s, IO pins, as well as own modules...">
<polygon fill="white" stroke="#666666" points="44,-24.5 0,-24.5 0,-5.5 44,-5.5 44,-24.5"/>
<text text-anchor="middle" x="22" y="-12.5" font-family="Helvetica,sans-Serif" font-size="10.00">setup</text>
</a>
</g>
</g>
<!-- Node4&#45;&gt;Node5 -->
<g id="edge4" class="edge">
<title>Node4&#45;&gt;Node5</title>
<path fill="none" stroke="#63b8ff" d="M69.62,-15C60.56,-15 51.73,-15 44.23,-15"/>
<polygon fill="#63b8ff" stroke="#63b8ff" points="69.87,-18.5 79.87,-15 69.87,-11.5 69.87,-18.5"/>
</g>
</g>
</svg>
