<?xml version="1.0" encoding="UTF-8" standalone="no"?>
<!DOCTYPE svg PUBLIC "-//W3C//DTD SVG 1.1//EN"
 "http://www.w3.org/Graphics/SVG/1.1/DTD/svg11.dtd">
<!-- Generated by graphviz version 2.43.0 (0)
 -->
<!-- Title: vehicle_control_unit/lib/Debug/Debug_serial.hpp Pages: 1 -->
<svg width="183pt" height="148pt"
 viewBox="0.00 0.00 182.50 148.00" xmlns="http://www.w3.org/2000/svg" xmlns:xlink="http://www.w3.org/1999/xlink">
<g id="graph0" class="graph" transform="scale(1 1) rotate(0) translate(4 144)">
<title>vehicle_control_unit/lib/Debug/Debug_serial.hpp</title>
<!-- Node1 -->
<g id="node1" class="node">
<title>Node1</title>
<g id="a_node1"><a xlink:title="Declaration of the Debug_Serial namespace for serial debugging functions.">
<polygon fill="#999999" stroke="#666666" points="154,-140 0,-140 0,-110 154,-110 154,-140"/>
<text text-anchor="start" x="8" y="-128" font-family="Helvetica,sans-Serif" font-size="10.00">vehicle_control_unit</text>
<text text-anchor="middle" x="77" y="-117" font-family="Helvetica,sans-Serif" font-size="10.00">/lib/Debug/Debug_serial.hpp</text>
</a>
</g>
</g>
<!-- Node2 -->
<g id="node2" class="node">
<title>Node2</title>
<g id="a_node2"><a xlink:title=" ">
<polygon fill="#e0e0e0" stroke="#999999" points="66.5,-74 3.5,-74 3.5,-55 66.5,-55 66.5,-74"/>
<text text-anchor="middle" x="35" y="-62" font-family="Helvetica,sans-Serif" font-size="10.00">Arduino.h</text>
</a>
</g>
</g>
<!-- Node1&#45;&gt;Node2 -->
<g id="edge1" class="edge">
<title>Node1&#45;&gt;Node2</title>
<path fill="none" stroke="#63b8ff" d="M66.83,-109.84C60.92,-101.61 53.44,-91.18 47.21,-82.51"/>
<polygon fill="#63b8ff" stroke="#63b8ff" points="49.97,-80.35 41.29,-74.27 44.28,-84.43 49.97,-80.35"/>
</g>
<!-- Node3 -->
<g id="node3" class="node">
<title>Node3</title>
<g id="a_node3"><a xlink:href="Enums_8hpp.html" target="_top" xlink:title="Enumeration definitions for the VCU.">
<polygon fill="white" stroke="#666666" points="155.5,-74 84.5,-74 84.5,-55 155.5,-55 155.5,-74"/>
<text text-anchor="middle" x="120" y="-62" font-family="Helvetica,sans-Serif" font-size="10.00">Enums.hpp</text>
</a>
</g>
</g>
<!-- Node1&#45;&gt;Node3 -->
<g id="edge2" class="edge">
<title>Node1&#45;&gt;Node3</title>
<path fill="none" stroke="#63b8ff" d="M87.41,-109.84C93.46,-101.61 101.12,-91.18 107.5,-82.51"/>
<polygon fill="#63b8ff" stroke="#63b8ff" points="110.45,-84.4 113.56,-74.27 104.81,-80.25 110.45,-84.4"/>
</g>
<!-- Node4 -->
<g id="node4" class="node">
<title>Node4</title>
<g id="a_node4"><a xlink:title=" ">
<polygon fill="#e0e0e0" stroke="#999999" points="113.5,-19 60.5,-19 60.5,0 113.5,0 113.5,-19"/>
<text text-anchor="middle" x="87" y="-7" font-family="Helvetica,sans-Serif" font-size="10.00">stdint.h</text>
</a>
</g>
</g>
<!-- Node3&#45;&gt;Node4 -->
<g id="edge3" class="edge">
<title>Node3&#45;&gt;Node4</title>
<path fill="none" stroke="#63b8ff" d="M114.55,-54.75C109.99,-47.42 103.33,-36.73 97.71,-27.7"/>
<polygon fill="#63b8ff" stroke="#63b8ff" points="100.6,-25.73 92.35,-19.09 94.66,-29.43 100.6,-25.73"/>
</g>
<!-- Node5 -->
<g id="node5" class="node">
<title>Node5</title>
<g id="a_node5"><a xlink:title=" ">
<polygon fill="#e0e0e0" stroke="#999999" points="174.5,-19 131.5,-19 131.5,0 174.5,0 174.5,-19"/>
<text text-anchor="middle" x="153" y="-7" font-family="Helvetica,sans-Serif" font-size="10.00">can.h</text>
</a>
</g>
</g>
<!-- Node3&#45;&gt;Node5 -->
<g id="edge4" class="edge">
<title>Node3&#45;&gt;Node5</title>
<path fill="none" stroke="#63b8ff" d="M125.45,-54.75C130.01,-47.42 136.67,-36.73 142.29,-27.7"/>
<polygon fill="#63b8ff" stroke="#63b8ff" points="145.34,-29.43 147.65,-19.09 139.4,-25.73 145.34,-29.43"/>
</g>
</g>
</svg>
