<?xml version="1.0" encoding="UTF-8" standalone="no"?>
<!DOCTYPE svg PUBLIC "-//W3C//DTD SVG 1.1//EN"
 "http://www.w3.org/Graphics/SVG/1.1/DTD/svg11.dtd">
<!-- Generated by graphviz version 2.43.0 (0)
 -->
<!-- Title: DBG_HALL_SENSOR Pages: 1 -->
<svg width="293pt" height="76pt"
 viewBox="0.00 0.00 293.00 75.50" xmlns="http://www.w3.org/2000/svg" xmlns:xlink="http://www.w3.org/1999/xlink">
<g id="graph0" class="graph" transform="scale(1 1) rotate(0) translate(4 71.5)">
<title>DBG_HALL_SENSOR</title>
<!-- Node1 -->
<g id="node1" class="node">
<title>Node1</title>
<g id="a_node1"><a xlink:title="Send hall sensor debug info via CAN.">
<polygon fill="#999999" stroke="#666666" points="113,-45.5 0,-45.5 0,-26.5 113,-26.5 113,-45.5"/>
<text text-anchor="middle" x="56.5" y="-33.5" font-family="Helvetica,sans-Serif" font-size="10.00">DBG_HALL_SENSOR</text>
</a>
</g>
</g>
<!-- Node2 -->
<g id="node2" class="node">
<title>Node2</title>
<g id="a_node2"><a xlink:href="namespaceDebug__CAN.html#a42414365a04c66411b629e36d4b50466" target="_top" xlink:title=" ">
<polygon fill="white" stroke="#666666" points="285,-67.5 149,-67.5 149,-48.5 285,-48.5 285,-67.5"/>
<text text-anchor="middle" x="217" y="-55.5" font-family="Helvetica,sans-Serif" font-size="10.00">Debug_CAN::hall_sensor</text>
</a>
</g>
</g>
<!-- Node1&#45;&gt;Node2 -->
<g id="edge1" class="edge">
<title>Node1&#45;&gt;Node2</title>
<path fill="none" stroke="#63b8ff" d="M113.38,-43.76C121.64,-44.9 130.28,-46.1 138.88,-47.3"/>
<polygon fill="#63b8ff" stroke="#63b8ff" points="138.56,-50.78 148.94,-48.69 139.52,-43.85 138.56,-50.78"/>
</g>
<!-- Node3 -->
<g id="node3" class="node">
<title>Node3</title>
<g id="a_node3"><a xlink:href="namespaceDebug__Serial.html#ace5ed08d1ebb4eae813ec98d6f6ea769" target="_top" xlink:title=" ">
<polygon fill="white" stroke="#666666" points="269.5,-30 164.5,-30 164.5,0 269.5,0 269.5,-30"/>
<text text-anchor="start" x="172.5" y="-18" font-family="Helvetica,sans-Serif" font-size="10.00">Debug_Serial::hall</text>
<text text-anchor="middle" x="217" y="-7" font-family="Helvetica,sans-Serif" font-size="10.00">_sensor</text>
</a>
</g>
</g>
<!-- Node1&#45;&gt;Node3 -->
<g id="edge2" class="edge">
<title>Node1&#45;&gt;Node3</title>
<path fill="none" stroke="#63b8ff" d="M113.38,-28.6C126.59,-26.85 140.75,-24.97 154.21,-23.19"/>
<polygon fill="#63b8ff" stroke="#63b8ff" points="154.88,-26.63 164.33,-21.85 153.96,-19.69 154.88,-26.63"/>
</g>
</g>
</svg>
