<?xml version="1.0" encoding="UTF-8" standalone="no"?>
<!DOCTYPE svg PUBLIC "-//W3C//DTD SVG 1.1//EN"
 "http://www.w3.org/Graphics/SVG/1.1/DTD/svg11.dtd">
<!-- Generated by graphviz version 2.43.0 (0)
 -->
<!-- Title: DBG_STATUS_CAR Pages: 1 -->
<svg width="287pt" height="64pt"
 viewBox="0.00 0.00 287.00 64.00" xmlns="http://www.w3.org/2000/svg" xmlns:xlink="http://www.w3.org/1999/xlink">
<g id="graph0" class="graph" transform="scale(1 1) rotate(0) translate(4 60)">
<title>DBG_STATUS_CAR</title>
<!-- Node1 -->
<g id="node1" class="node">
<title>Node1</title>
<g id="a_node1"><a xlink:title="Sends car status debug info via CAN or serial (if enabled).">
<polygon fill="#999999" stroke="#666666" points="106,-37 0,-37 0,-18 106,-18 106,-37"/>
<text text-anchor="middle" x="53" y="-25" font-family="Helvetica,sans-Serif" font-size="10.00">DBG_STATUS_CAR</text>
</a>
</g>
</g>
<!-- Node2 -->
<g id="node2" class="node">
<title>Node2</title>
<g id="a_node2"><a xlink:href="namespaceDebug__CAN.html#a33ac5d84927aea929dc26f0820dd58c8" target="_top" xlink:title="Sends a debug car status message over CAN.">
<polygon fill="white" stroke="#666666" points="276,-56 145,-56 145,-37 276,-37 276,-56"/>
<text text-anchor="middle" x="210.5" y="-44" font-family="Helvetica,sans-Serif" font-size="10.00">Debug_CAN::status_car</text>
</a>
</g>
</g>
<!-- Node1&#45;&gt;Node2 -->
<g id="edge1" class="edge">
<title>Node1&#45;&gt;Node2</title>
<path fill="none" stroke="#63b8ff" d="M106.21,-33.88C115.45,-35.01 125.22,-36.2 134.93,-37.39"/>
<polygon fill="#63b8ff" stroke="#63b8ff" points="134.64,-40.88 144.99,-38.62 135.49,-33.93 134.64,-40.88"/>
</g>
<!-- Node3 -->
<g id="node3" class="node">
<title>Node3</title>
<g id="a_node3"><a xlink:href="namespaceDebug__Serial.html#a0f4070c8db2109f53b11b93580bb9472" target="_top" xlink:title="Prints the current car status to the serial console. This function formats and sends the current car ...">
<polygon fill="white" stroke="#666666" points="279,-19 142,-19 142,0 279,0 279,-19"/>
<text text-anchor="middle" x="210.5" y="-7" font-family="Helvetica,sans-Serif" font-size="10.00">Debug_Serial::status_car</text>
</a>
</g>
</g>
<!-- Node1&#45;&gt;Node3 -->
<g id="edge2" class="edge">
<title>Node1&#45;&gt;Node3</title>
<path fill="none" stroke="#63b8ff" d="M106.21,-21.46C114.46,-20.5 123.13,-19.5 131.81,-18.49"/>
<polygon fill="#63b8ff" stroke="#63b8ff" points="132.43,-21.94 141.96,-17.32 131.63,-14.99 132.43,-21.94"/>
</g>
</g>
</svg>
