<?xml version="1.0" encoding="UTF-8" standalone="no"?>
<!DOCTYPE svg PUBLIC "-//W3C//DTD SVG 1.1//EN"
 "http://www.w3.org/Graphics/SVG/1.1/DTD/svg11.dtd">
<!-- Generated by graphviz version 2.43.0 (0)
 -->
<!-- Title: DBG_BMS_STATUS Pages: 1 -->
<svg width="294pt" height="64pt"
 viewBox="0.00 0.00 294.00 64.00" xmlns="http://www.w3.org/2000/svg" xmlns:xlink="http://www.w3.org/1999/xlink">
<g id="graph0" class="graph" transform="scale(1 1) rotate(0) translate(4 60)">
<title>DBG_BMS_STATUS</title>
<!-- Node1 -->
<g id="node1" class="node">
<title>Node1</title>
<g id="a_node1"><a xlink:title="Sends BMS debug info via CAN or serial (if enabled).">
<polygon fill="#999999" stroke="#666666" points="107,-37 0,-37 0,-18 107,-18 107,-37"/>
<text text-anchor="middle" x="53.5" y="-25" font-family="Helvetica,sans-Serif" font-size="10.00">DBG_BMS_STATUS</text>
</a>
</g>
</g>
<!-- Node2 -->
<g id="node2" class="node">
<title>Node2</title>
<g id="a_node2"><a xlink:href="namespaceDebug__CAN.html#a0514cc9d56b82f8a3b586aee6f4c97b0" target="_top" xlink:title="Sends a debug BMS status message over CAN.">
<polygon fill="white" stroke="#666666" points="283,-56 146,-56 146,-37 283,-37 283,-56"/>
<text text-anchor="middle" x="214.5" y="-44" font-family="Helvetica,sans-Serif" font-size="10.00">Debug_CAN::status_bms</text>
</a>
</g>
</g>
<!-- Node1&#45;&gt;Node2 -->
<g id="edge1" class="edge">
<title>Node1&#45;&gt;Node2</title>
<path fill="none" stroke="#63b8ff" d="M107,-33.77C116.2,-34.87 125.95,-36.04 135.66,-37.2"/>
<polygon fill="#63b8ff" stroke="#63b8ff" points="135.4,-40.69 145.74,-38.4 136.23,-33.74 135.4,-40.69"/>
</g>
<!-- Node3 -->
<g id="node3" class="node">
<title>Node3</title>
<g id="a_node3"><a xlink:href="namespaceDebug__Serial.html#a1a39bd8c1cd5d475881b10a3a5deeb03" target="_top" xlink:title="Prints the current BMS status to the serial console. This function formats and sends the current BMS ...">
<polygon fill="white" stroke="#666666" points="286,-19 143,-19 143,0 286,0 286,-19"/>
<text text-anchor="middle" x="214.5" y="-7" font-family="Helvetica,sans-Serif" font-size="10.00">Debug_Serial::status_bms</text>
</a>
</g>
</g>
<!-- Node1&#45;&gt;Node3 -->
<g id="edge2" class="edge">
<title>Node1&#45;&gt;Node3</title>
<path fill="none" stroke="#63b8ff" d="M107,-21.56C115.26,-20.62 123.96,-19.64 132.68,-18.65"/>
<polygon fill="#63b8ff" stroke="#63b8ff" points="133.35,-22.1 142.9,-17.49 132.57,-15.14 133.35,-22.1"/>
</g>
</g>
</svg>
