<?xml version="1.0" encoding="UTF-8" standalone="no"?>
<!DOCTYPE svg PUBLIC "-//W3C//DTD SVG 1.1//EN"
 "http://www.w3.org/Graphics/SVG/1.1/DTD/svg11.dtd">
<!-- Generated by graphviz version 2.43.0 (0)
 -->
<!-- Title: vehicle_control_unit/lib/Debug/Debug_serial.cpp Pages: 1 -->
<svg width="192pt" height="203pt"
 viewBox="0.00 0.00 192.00 203.00" xmlns="http://www.w3.org/2000/svg" xmlns:xlink="http://www.w3.org/1999/xlink">
<g id="graph0" class="graph" transform="scale(1 1) rotate(0) translate(4 199)">
<title>vehicle_control_unit/lib/Debug/Debug_serial.cpp</title>
<!-- Node1 -->
<g id="node1" class="node">
<title>Node1</title>
<g id="a_node1"><a xlink:title="Implementation of the Debug_Serial namespace for serial debugging functions.">
<polygon fill="#999999" stroke="#666666" points="166,-195 13,-195 13,-165 166,-165 166,-195"/>
<text text-anchor="start" x="21" y="-183" font-family="Helvetica,sans-Serif" font-size="10.00">vehicle_control_unit</text>
<text text-anchor="middle" x="89.5" y="-172" font-family="Helvetica,sans-Serif" font-size="10.00">/lib/Debug/Debug_serial.cpp</text>
</a>
</g>
</g>
<!-- Node2 -->
<g id="node2" class="node">
<title>Node2</title>
<g id="a_node2"><a xlink:href="Debug__serial_8hpp.html" target="_top" xlink:title="Declaration of the Debug_Serial namespace for serial debugging functions.">
<polygon fill="white" stroke="#666666" points="101,-129 0,-129 0,-110 101,-110 101,-129"/>
<text text-anchor="middle" x="50.5" y="-117" font-family="Helvetica,sans-Serif" font-size="10.00">Debug_serial.hpp</text>
</a>
</g>
</g>
<!-- Node1&#45;&gt;Node2 -->
<g id="edge1" class="edge">
<title>Node1&#45;&gt;Node2</title>
<path fill="none" stroke="#63b8ff" d="M80.06,-164.84C74.63,-156.69 67.77,-146.4 62.02,-137.78"/>
<polygon fill="#63b8ff" stroke="#63b8ff" points="64.8,-135.65 56.34,-129.27 58.98,-139.53 64.8,-135.65"/>
</g>
<!-- Node4 -->
<g id="node4" class="node">
<title>Node4</title>
<g id="a_node4"><a xlink:href="Enums_8hpp.html" target="_top" xlink:title="Enumeration definitions for the VCU.">
<polygon fill="white" stroke="#666666" points="165,-74 94,-74 94,-55 165,-55 165,-74"/>
<text text-anchor="middle" x="129.5" y="-62" font-family="Helvetica,sans-Serif" font-size="10.00">Enums.hpp</text>
</a>
</g>
</g>
<!-- Node1&#45;&gt;Node4 -->
<g id="edge6" class="edge">
<title>Node1&#45;&gt;Node4</title>
<path fill="none" stroke="#63b8ff" d="M95.57,-164.67C99.69,-154.73 105.16,-141.15 109.5,-129 114.85,-114.01 120.23,-96.78 124.06,-84.05"/>
<polygon fill="#63b8ff" stroke="#63b8ff" points="127.49,-84.78 126.99,-74.2 120.78,-82.79 127.49,-84.78"/>
</g>
<!-- Node3 -->
<g id="node3" class="node">
<title>Node3</title>
<g id="a_node3"><a xlink:title=" ">
<polygon fill="#e0e0e0" stroke="#999999" points="76,-74 13,-74 13,-55 76,-55 76,-74"/>
<text text-anchor="middle" x="44.5" y="-62" font-family="Helvetica,sans-Serif" font-size="10.00">Arduino.h</text>
</a>
</g>
</g>
<!-- Node2&#45;&gt;Node3 -->
<g id="edge2" class="edge">
<title>Node2&#45;&gt;Node3</title>
<path fill="none" stroke="#63b8ff" d="M49.51,-109.75C48.72,-102.8 47.6,-92.85 46.61,-84.13"/>
<polygon fill="#63b8ff" stroke="#63b8ff" points="50.08,-83.63 45.47,-74.09 43.12,-84.42 50.08,-83.63"/>
</g>
<!-- Node2&#45;&gt;Node4 -->
<g id="edge3" class="edge">
<title>Node2&#45;&gt;Node4</title>
<path fill="none" stroke="#63b8ff" d="M63.19,-109.98C75.33,-101.84 93.86,-89.41 108.25,-79.76"/>
<polygon fill="#63b8ff" stroke="#63b8ff" points="110.22,-82.65 116.58,-74.17 106.32,-76.84 110.22,-82.65"/>
</g>
<!-- Node5 -->
<g id="node5" class="node">
<title>Node5</title>
<g id="a_node5"><a xlink:title=" ">
<polygon fill="#e0e0e0" stroke="#999999" points="123,-19 70,-19 70,0 123,0 123,-19"/>
<text text-anchor="middle" x="96.5" y="-7" font-family="Helvetica,sans-Serif" font-size="10.00">stdint.h</text>
</a>
</g>
</g>
<!-- Node4&#45;&gt;Node5 -->
<g id="edge4" class="edge">
<title>Node4&#45;&gt;Node5</title>
<path fill="none" stroke="#63b8ff" d="M124.05,-54.75C119.49,-47.42 112.83,-36.73 107.21,-27.7"/>
<polygon fill="#63b8ff" stroke="#63b8ff" points="110.1,-25.73 101.85,-19.09 104.16,-29.43 110.1,-25.73"/>
</g>
<!-- Node6 -->
<g id="node6" class="node">
<title>Node6</title>
<g id="a_node6"><a xlink:title=" ">
<polygon fill="#e0e0e0" stroke="#999999" points="184,-19 141,-19 141,0 184,0 184,-19"/>
<text text-anchor="middle" x="162.5" y="-7" font-family="Helvetica,sans-Serif" font-size="10.00">can.h</text>
</a>
</g>
</g>
<!-- Node4&#45;&gt;Node6 -->
<g id="edge5" class="edge">
<title>Node4&#45;&gt;Node6</title>
<path fill="none" stroke="#63b8ff" d="M134.95,-54.75C139.51,-47.42 146.17,-36.73 151.79,-27.7"/>
<polygon fill="#63b8ff" stroke="#63b8ff" points="154.84,-29.43 157.15,-19.09 148.9,-25.73 154.84,-29.43"/>
</g>
</g>
</svg>
