<?xml version="1.0" encoding="UTF-8" standalone="no"?>
<!DOCTYPE svg PUBLIC "-//W3C//DTD SVG 1.1//EN"
 "http://www.w3.org/Graphics/SVG/1.1/DTD/svg11.dtd">
<!-- Generated by graphviz version 2.43.0 (0)
 -->
<!-- Title: DBG_BRAKE_FAULT Pages: 1 -->
<svg width="290pt" height="76pt"
 viewBox="0.00 0.00 290.00 75.50" xmlns="http://www.w3.org/2000/svg" xmlns:xlink="http://www.w3.org/1999/xlink">
<g id="graph0" class="graph" transform="scale(1 1) rotate(0) translate(4 71.5)">
<title>DBG_BRAKE_FAULT</title>
<!-- Node1 -->
<g id="node1" class="node">
<title>Node1</title>
<g id="a_node1"><a xlink:title="Sends brake fault debug info via CAN or serial (if enabled). Overloads for fault status with or witho...">
<polygon fill="#999999" stroke="#666666" points="111,-45.5 0,-45.5 0,-26.5 111,-26.5 111,-45.5"/>
<text text-anchor="middle" x="55.5" y="-33.5" font-family="Helvetica,sans-Serif" font-size="10.00">DBG_BRAKE_FAULT</text>
</a>
</g>
</g>
<!-- Node2 -->
<g id="node2" class="node">
<title>Node2</title>
<g id="a_node2"><a xlink:href="namespaceDebug__CAN.html#a972189e7412acf4e4b2d36c7693a3f70" target="_top" xlink:title="Sends a debug brake fault message over CAN with a float value.">
<polygon fill="white" stroke="#666666" points="282,-67.5 147,-67.5 147,-48.5 282,-48.5 282,-67.5"/>
<text text-anchor="middle" x="214.5" y="-55.5" font-family="Helvetica,sans-Serif" font-size="10.00">Debug_CAN::brake_fault</text>
</a>
</g>
</g>
<!-- Node1&#45;&gt;Node2 -->
<g id="edge1" class="edge">
<title>Node1&#45;&gt;Node2</title>
<path fill="none" stroke="#63b8ff" d="M111.41,-43.69C119.61,-44.84 128.19,-46.05 136.74,-47.24"/>
<polygon fill="#63b8ff" stroke="#63b8ff" points="136.35,-50.72 146.74,-48.64 137.32,-43.79 136.35,-50.72"/>
</g>
<!-- Node3 -->
<g id="node3" class="node">
<title>Node3</title>
<g id="a_node3"><a xlink:href="namespaceDebug__Serial.html#a9d828bdca10efbda9f4e147a372cbc71" target="_top" xlink:title="Prints a brake fault message to the serial console. This function formats and sends the brake fault s...">
<polygon fill="white" stroke="#666666" points="271.5,-30 157.5,-30 157.5,0 271.5,0 271.5,-30"/>
<text text-anchor="start" x="165.5" y="-18" font-family="Helvetica,sans-Serif" font-size="10.00">Debug_Serial::brake</text>
<text text-anchor="middle" x="214.5" y="-7" font-family="Helvetica,sans-Serif" font-size="10.00">_fault</text>
</a>
</g>
</g>
<!-- Node1&#45;&gt;Node3 -->
<g id="edge2" class="edge">
<title>Node1&#45;&gt;Node3</title>
<path fill="none" stroke="#63b8ff" d="M111.41,-28.66C123.02,-27.1 135.38,-25.45 147.35,-23.85"/>
<polygon fill="#63b8ff" stroke="#63b8ff" points="147.84,-27.31 157.29,-22.52 146.91,-20.38 147.84,-27.31"/>
</g>
</g>
</svg>
