<?xml version="1.0" encoding="UTF-8" standalone="no"?>
<!DOCTYPE svg PUBLIC "-//W3C//DTD SVG 1.1//EN"
 "http://www.w3.org/Graphics/SVG/1.1/DTD/svg11.dtd">
<!-- Generated by graphviz version 2.43.0 (0)
 -->
<!-- Title: lib/Debug/Debug_serial.h Pages: 1 -->
<svg width="237pt" height="82pt"
 viewBox="0.00 0.00 237.00 82.00" xmlns="http://www.w3.org/2000/svg" xmlns:xlink="http://www.w3.org/1999/xlink">
<g id="graph0" class="graph" transform="scale(1 1) rotate(0) translate(4 78)">
<title>lib/Debug/Debug_serial.h</title>
<!-- Node1 -->
<g id="node1" class="node">
<title>Node1</title>
<g id="a_node1"><a xlink:title=" ">
<polygon fill="#999999" stroke="#666666" points="186,-74 47,-74 47,-55 186,-55 186,-74"/>
<text text-anchor="middle" x="116.5" y="-62" font-family="Helvetica,sans-Serif" font-size="10.00">lib/Debug/Debug_serial.h</text>
</a>
</g>
</g>
<!-- Node2 -->
<g id="node2" class="node">
<title>Node2</title>
<g id="a_node2"><a xlink:title=" ">
<polygon fill="#e0e0e0" stroke="#999999" points="63,-19 0,-19 0,0 63,0 63,-19"/>
<text text-anchor="middle" x="31.5" y="-7" font-family="Helvetica,sans-Serif" font-size="10.00">Arduino.h</text>
</a>
</g>
</g>
<!-- Node1&#45;&gt;Node2 -->
<g id="edge1" class="edge">
<title>Node1&#45;&gt;Node2</title>
<path fill="none" stroke="#63b8ff" d="M102.84,-54.98C89.66,-46.77 69.47,-34.18 53.93,-24.49"/>
<polygon fill="#63b8ff" stroke="#63b8ff" points="55.74,-21.49 45.41,-19.17 52.04,-27.43 55.74,-21.49"/>
</g>
<!-- Node3 -->
<g id="node3" class="node">
<title>Node3</title>
<g id="a_node3"><a xlink:title=" ">
<polygon fill="#e0e0e0" stroke="#999999" points="152,-19 81,-19 81,0 152,0 152,-19"/>
<text text-anchor="middle" x="116.5" y="-7" font-family="Helvetica,sans-Serif" font-size="10.00">mcp2515.h</text>
</a>
</g>
</g>
<!-- Node1&#45;&gt;Node3 -->
<g id="edge2" class="edge">
<title>Node1&#45;&gt;Node3</title>
<path fill="none" stroke="#63b8ff" d="M116.5,-54.75C116.5,-47.8 116.5,-37.85 116.5,-29.13"/>
<polygon fill="#63b8ff" stroke="#63b8ff" points="120,-29.09 116.5,-19.09 113,-29.09 120,-29.09"/>
</g>
<!-- Node4 -->
<g id="node4" class="node">
<title>Node4</title>
<g id="a_node4"><a xlink:title=" ">
<polygon fill="#e0e0e0" stroke="#999999" points="229,-19 170,-19 170,0 229,0 229,-19"/>
<text text-anchor="middle" x="199.5" y="-7" font-family="Helvetica,sans-Serif" font-size="10.00">Enums.h</text>
</a>
</g>
</g>
<!-- Node1&#45;&gt;Node4 -->
<g id="edge3" class="edge">
<title>Node1&#45;&gt;Node4</title>
<path fill="none" stroke="#63b8ff" d="M129.84,-54.98C142.59,-46.84 162.05,-34.41 177.17,-24.76"/>
<polygon fill="#63b8ff" stroke="#63b8ff" points="179.38,-27.5 185.92,-19.17 175.61,-21.6 179.38,-27.5"/>
</g>
</g>
</svg>
