<?xml version="1.0" encoding="UTF-8" standalone="no"?>
<!DOCTYPE svg PUBLIC "-//W3C//DTD SVG 1.1//EN"
 "http://www.w3.org/Graphics/SVG/1.1/DTD/svg11.dtd">
<!-- Generated by graphviz version 2.43.0 (0)
 -->
<!-- Title: lib/Debug/Debug_serial.cpp Pages: 1 -->
<svg width="192pt" height="192pt"
 viewBox="0.00 0.00 192.00 192.00" xmlns="http://www.w3.org/2000/svg" xmlns:xlink="http://www.w3.org/1999/xlink">
<g id="graph0" class="graph" transform="scale(1 1) rotate(0) translate(4 188)">
<title>lib/Debug/Debug_serial.cpp</title>
<!-- Node1 -->
<g id="node1" class="node">
<title>Node1</title>
<g id="a_node1"><a xlink:title="Implementation of the Debug_Serial namespace for serial debugging functions.">
<polygon fill="#999999" stroke="#666666" points="164.5,-184 14.5,-184 14.5,-165 164.5,-165 164.5,-184"/>
<text text-anchor="middle" x="89.5" y="-172" font-family="Helvetica,sans-Serif" font-size="10.00">lib/Debug/Debug_serial.cpp</text>
</a>
</g>
</g>
<!-- Node2 -->
<g id="node2" class="node">
<title>Node2</title>
<g id="a_node2"><a xlink:href="Debug__serial_8hpp.html" target="_top" xlink:title="Declaration of the Debug_Serial namespace for serial debugging functions.">
<polygon fill="white" stroke="#666666" points="101,-129 0,-129 0,-110 101,-110 101,-129"/>
<text text-anchor="middle" x="50.5" y="-117" font-family="Helvetica,sans-Serif" font-size="10.00">Debug_serial.hpp</text>
</a>
</g>
</g>
<!-- Node1&#45;&gt;Node2 -->
<g id="edge1" class="edge">
<title>Node1&#45;&gt;Node2</title>
<path fill="none" stroke="#63b8ff" d="M83.06,-164.75C77.61,-157.34 69.64,-146.5 62.94,-137.41"/>
<polygon fill="#63b8ff" stroke="#63b8ff" points="65.57,-135.07 56.82,-129.09 59.93,-139.22 65.57,-135.07"/>
</g>
<!-- Node4 -->
<g id="node4" class="node">
<title>Node4</title>
<g id="a_node4"><a xlink:href="Enums_8h.html" target="_top" xlink:title="Enumeration definitions for the VCU.">
<polygon fill="white" stroke="#666666" points="159,-74 100,-74 100,-55 159,-55 159,-74"/>
<text text-anchor="middle" x="129.5" y="-62" font-family="Helvetica,sans-Serif" font-size="10.00">Enums.h</text>
</a>
</g>
</g>
<!-- Node1&#45;&gt;Node4 -->
<g id="edge6" class="edge">
<title>Node1&#45;&gt;Node4</title>
<path fill="none" stroke="#63b8ff" d="M93.79,-164.76C98.07,-155.88 104.68,-141.67 109.5,-129 115.16,-114.13 120.52,-96.89 124.26,-84.13"/>
<polygon fill="#63b8ff" stroke="#63b8ff" points="127.7,-84.82 127.1,-74.24 120.98,-82.88 127.7,-84.82"/>
</g>
<!-- Node3 -->
<g id="node3" class="node">
<title>Node3</title>
<g id="a_node3"><a xlink:title=" ">
<polygon fill="#e0e0e0" stroke="#999999" points="82,-74 19,-74 19,-55 82,-55 82,-74"/>
<text text-anchor="middle" x="50.5" y="-62" font-family="Helvetica,sans-Serif" font-size="10.00">Arduino.h</text>
</a>
</g>
</g>
<!-- Node2&#45;&gt;Node3 -->
<g id="edge2" class="edge">
<title>Node2&#45;&gt;Node3</title>
<path fill="none" stroke="#63b8ff" d="M50.5,-109.75C50.5,-102.8 50.5,-92.85 50.5,-84.13"/>
<polygon fill="#63b8ff" stroke="#63b8ff" points="54,-84.09 50.5,-74.09 47,-84.09 54,-84.09"/>
</g>
<!-- Node2&#45;&gt;Node4 -->
<g id="edge3" class="edge">
<title>Node2&#45;&gt;Node4</title>
<path fill="none" stroke="#63b8ff" d="M63.19,-109.98C75.33,-101.84 93.86,-89.41 108.25,-79.76"/>
<polygon fill="#63b8ff" stroke="#63b8ff" points="110.22,-82.65 116.58,-74.17 106.32,-76.84 110.22,-82.65"/>
</g>
<!-- Node5 -->
<g id="node5" class="node">
<title>Node5</title>
<g id="a_node5"><a xlink:title=" ">
<polygon fill="#e0e0e0" stroke="#999999" points="123,-19 70,-19 70,0 123,0 123,-19"/>
<text text-anchor="middle" x="96.5" y="-7" font-family="Helvetica,sans-Serif" font-size="10.00">stdint.h</text>
</a>
</g>
</g>
<!-- Node4&#45;&gt;Node5 -->
<g id="edge4" class="edge">
<title>Node4&#45;&gt;Node5</title>
<path fill="none" stroke="#63b8ff" d="M124.05,-54.75C119.49,-47.42 112.83,-36.73 107.21,-27.7"/>
<polygon fill="#63b8ff" stroke="#63b8ff" points="110.1,-25.73 101.85,-19.09 104.16,-29.43 110.1,-25.73"/>
</g>
<!-- Node6 -->
<g id="node6" class="node">
<title>Node6</title>
<g id="a_node6"><a xlink:title=" ">
<polygon fill="#e0e0e0" stroke="#999999" points="184,-19 141,-19 141,0 184,0 184,-19"/>
<text text-anchor="middle" x="162.5" y="-7" font-family="Helvetica,sans-Serif" font-size="10.00">can.h</text>
</a>
</g>
</g>
<!-- Node4&#45;&gt;Node6 -->
<g id="edge5" class="edge">
<title>Node4&#45;&gt;Node6</title>
<path fill="none" stroke="#63b8ff" d="M134.95,-54.75C139.51,-47.42 146.17,-36.73 151.79,-27.7"/>
<polygon fill="#63b8ff" stroke="#63b8ff" points="154.84,-29.43 157.15,-19.09 148.9,-25.73 154.84,-29.43"/>
</g>
</g>
</svg>
