<?xml version="1.0" encoding="UTF-8" standalone="no"?>
<!DOCTYPE svg PUBLIC "-//W3C//DTD SVG 1.1//EN"
 "http://www.w3.org/Graphics/SVG/1.1/DTD/svg11.dtd">
<!-- Generated by graphviz version 2.43.0 (0)
 -->
<!-- Title: DBG_THROTTLE_IN Pages: 1 -->
<svg width="490pt" height="38pt"
 viewBox="0.00 0.00 490.00 38.00" xmlns="http://www.w3.org/2000/svg" xmlns:xlink="http://www.w3.org/1999/xlink">
<g id="graph0" class="graph" transform="scale(1 1) rotate(0) translate(4 34)">
<title>DBG_THROTTLE_IN</title>
<!-- Node1 -->
<g id="node1" class="node">
<title>Node1</title>
<g id="a_node1"><a xlink:title="Sends throttle pedal input debug info via CAN or serial (if enabled).">
<polygon fill="#999999" stroke="#666666" points="482,-24.5 372,-24.5 372,-5.5 482,-5.5 482,-24.5"/>
<text text-anchor="middle" x="427" y="-12.5" font-family="Helvetica,sans-Serif" font-size="10.00">DBG_THROTTLE_IN</text>
</a>
</g>
</g>
<!-- Node2 -->
<g id="node2" class="node">
<title>Node2</title>
<g id="a_node2"><a xlink:href="classPedal.html#abdd53f9de825d4925aa7707ddaaa1fa9" target="_top" xlink:title="Checks for a fault between two pedal sensor readings.">
<polygon fill="white" stroke="#666666" points="336,-30 226,-30 226,0 336,0 336,-30"/>
<text text-anchor="start" x="234" y="-18" font-family="Helvetica,sans-Serif" font-size="10.00">Pedal::check_pedal</text>
<text text-anchor="middle" x="281" y="-7" font-family="Helvetica,sans-Serif" font-size="10.00">_fault</text>
</a>
</g>
</g>
<!-- Node1&#45;&gt;Node2 -->
<g id="edge1" class="edge">
<title>Node1&#45;&gt;Node2</title>
<path fill="none" stroke="#63b8ff" d="M361.73,-15C353.25,-15 344.62,-15 336.33,-15"/>
<polygon fill="#63b8ff" stroke="#63b8ff" points="361.97,-18.5 371.97,-15 361.97,-11.5 361.97,-18.5"/>
</g>
<!-- Node3 -->
<g id="node3" class="node">
<title>Node3</title>
<g id="a_node3"><a xlink:href="classPedal.html#aef9f2037f590fd4b41f3c50a7c2b3568" target="_top" xlink:title="Updates pedal sensor readings, applies filtering, and checks for faults.">
<polygon fill="white" stroke="#666666" points="190,-24.5 74,-24.5 74,-5.5 190,-5.5 190,-24.5"/>
<text text-anchor="middle" x="132" y="-12.5" font-family="Helvetica,sans-Serif" font-size="10.00">Pedal::pedal_update</text>
</a>
</g>
</g>
<!-- Node2&#45;&gt;Node3 -->
<g id="edge2" class="edge">
<title>Node2&#45;&gt;Node3</title>
<path fill="none" stroke="#63b8ff" d="M215.47,-15C207,-15 198.38,-15 190.05,-15"/>
<polygon fill="#63b8ff" stroke="#63b8ff" points="215.68,-18.5 225.68,-15 215.68,-11.5 215.68,-18.5"/>
</g>
<!-- Node4 -->
<g id="node4" class="node">
<title>Node4</title>
<g id="a_node4"><a xlink:href="main_8cpp.html#afe461d27b9c48d5921c00d521181f12f" target="_top" xlink:title="Main loop function for the VCU system. Handles car state transitions, pipes dataflow between modules.">
<polygon fill="white" stroke="#666666" points="38,-24.5 0,-24.5 0,-5.5 38,-5.5 38,-24.5"/>
<text text-anchor="middle" x="19" y="-12.5" font-family="Helvetica,sans-Serif" font-size="10.00">loop</text>
</a>
</g>
</g>
<!-- Node3&#45;&gt;Node4 -->
<g id="edge3" class="edge">
<title>Node3&#45;&gt;Node4</title>
<path fill="none" stroke="#63b8ff" d="M63.62,-15C54.3,-15 45.44,-15 38.18,-15"/>
<polygon fill="#63b8ff" stroke="#63b8ff" points="63.87,-18.5 73.87,-15 63.87,-11.5 63.87,-18.5"/>
</g>
</g>
</svg>
