<?xml version="1.0" encoding="UTF-8" standalone="no"?>
<!DOCTYPE svg PUBLIC "-//W3C//DTD SVG 1.1//EN"
 "http://www.w3.org/Graphics/SVG/1.1/DTD/svg11.dtd">
<!-- Generated by graphviz version 2.43.0 (0)
 -->
<!-- Title: lib/BMS Pages: 1 -->
<svg width="172pt" height="133pt"
 viewBox="0.00 0.00 172.00 133.00" xmlns="http://www.w3.org/2000/svg" xmlns:xlink="http://www.w3.org/1999/xlink">
<g id="graph0" class="graph" transform="scale(1 1) rotate(0) translate(4 129)">
<title>lib/BMS</title>
<g id="clust1" class="cluster">
<title>clusterdir_97aefd0d527b934f1d99a682da8fe6a9</title>
<g id="a_clust1"><a xlink:href="dir_97aefd0d527b934f1d99a682da8fe6a9.html" target="_top" xlink:title="lib">
<polygon fill="#edf0f7" stroke="#404040" stroke-dasharray="5,2" points="8,-8 8,-117 156,-117 156,-8 8,-8"/>
<text text-anchor="middle" x="82" y="-105" font-family="Helvetica,sans-Serif" font-size="10.00">lib</text>
</a>
</g>
</g>
<!-- dir_16b3056ea5a4b7dd24fe79c68bb88bcd -->
<g id="node1" class="node">
<title>dir_16b3056ea5a4b7dd24fe79c68bb88bcd</title>
<g id="a_node1"><a xlink:href="dir_16b3056ea5a4b7dd24fe79c68bb88bcd.html" target="_top" xlink:title="Debug">
<polygon fill="#a2b4d6" stroke="#404040" points="64,-35 16,-35 16,-16 64,-16 64,-35"/>
<text text-anchor="middle" x="40" y="-23" font-family="Helvetica,sans-Serif" font-size="10.00">Debug</text>
</a>
</g>
</g>
<!-- dir_31ee9004dbbf6d739ca68ba82c1a202b -->
<g id="node2" class="node">
<title>dir_31ee9004dbbf6d739ca68ba82c1a202b</title>
<g id="a_node2"><a xlink:href="dir_31ee9004dbbf6d739ca68ba82c1a202b.html" target="_top" xlink:title="Scheduler">
<polygon fill="#a2b4d6" stroke="#404040" points="147.5,-35 82.5,-35 82.5,-16 147.5,-16 147.5,-35"/>
<text text-anchor="middle" x="115" y="-23" font-family="Helvetica,sans-Serif" font-size="10.00">Scheduler</text>
</a>
</g>
</g>
<!-- dir_646fe5f874d14482d52789d2a4d73df2 -->
<g id="node3" class="node">
<title>dir_646fe5f874d14482d52789d2a4d73df2</title>
<g id="a_node3"><a xlink:href="dir_646fe5f874d14482d52789d2a4d73df2.html" target="_top" xlink:title="BMS">
<polygon fill="#edf0f7" stroke="#404040" stroke-width="2" points="96,-90 58,-90 58,-71 96,-71 96,-90"/>
<text text-anchor="middle" x="77" y="-78" font-family="Helvetica,sans-Serif" font-size="10.00">BMS</text>
</a>
</g>
</g>
<!-- dir_646fe5f874d14482d52789d2a4d73df2&#45;&gt;dir_16b3056ea5a4b7dd24fe79c68bb88bcd -->
<g id="edge1" class="edge">
<title>dir_646fe5f874d14482d52789d2a4d73df2&#45;&gt;dir_16b3056ea5a4b7dd24fe79c68bb88bcd</title>
<path fill="none" stroke="#63b8ff" d="M70.89,-70.75C65.72,-63.34 58.15,-52.5 51.81,-43.41"/>
<polygon fill="#63b8ff" stroke="#63b8ff" points="54.59,-41.29 46,-35.09 48.85,-45.29 54.59,-41.29"/>
<g id="a_edge1&#45;headlabel"><a xlink:href="dir_000000_000001.html" target="_top" xlink:title="1">
<text text-anchor="middle" x="58.98" y="-40.11" font-family="Helvetica,sans-Serif" font-size="10.00" fill="#63b8ff">1</text>
</a>
</g>
</g>
<!-- dir_646fe5f874d14482d52789d2a4d73df2&#45;&gt;dir_31ee9004dbbf6d739ca68ba82c1a202b -->
<g id="edge2" class="edge">
<title>dir_646fe5f874d14482d52789d2a4d73df2&#45;&gt;dir_31ee9004dbbf6d739ca68ba82c1a202b</title>
<path fill="none" stroke="#63b8ff" d="M83.27,-70.75C88.59,-63.34 96.36,-52.5 102.88,-43.41"/>
<polygon fill="#63b8ff" stroke="#63b8ff" points="105.86,-45.26 108.84,-35.09 100.17,-41.18 105.86,-45.26"/>
<g id="a_edge2&#45;headlabel"><a xlink:href="dir_000000_000006.html" target="_top" xlink:title="1">
<text text-anchor="middle" x="106.07" y="-47.33" font-family="Helvetica,sans-Serif" font-size="10.00" fill="#63b8ff">1</text>
</a>
</g>
</g>
</g>
</svg>
