<?xml version="1.0" encoding="UTF-8" standalone="no"?>
<!DOCTYPE svg PUBLIC "-//W3C//DTD SVG 1.1//EN"
 "http://www.w3.org/Graphics/SVG/1.1/DTD/svg11.dtd">
<!-- Generated by graphviz version 2.43.0 (0)
 -->
<!-- Title: lib Pages: 1 -->
<svg width="314pt" height="153pt"
 viewBox="0.00 0.00 314.00 153.00" xmlns="http://www.w3.org/2000/svg" xmlns:xlink="http://www.w3.org/1999/xlink">
<g id="graph0" class="graph" transform="scale(1 1) rotate(0) translate(4 149)">
<title>lib</title>
<g id="clust1" class="cluster">
<title>clusterdir_97aefd0d527b934f1d99a682da8fe6a9</title>
<g id="a_clust1"><a xlink:href="dir_97aefd0d527b934f1d99a682da8fe6a9.html" target="_top">
<polygon fill="#edf0f7" stroke="#404040" stroke-width="2" points="8,-47 8,-137 260,-137 260,-47 8,-47"/>
</a>
</g>
</g>
<!-- dir_97aefd0d527b934f1d99a682da8fe6a9 -->
<g id="node1" class="node">
<title>dir_97aefd0d527b934f1d99a682da8fe6a9</title>
<text text-anchor="middle" x="237" y="-117" font-family="Helvetica,sans-Serif" font-size="10.00">lib</text>
</g>
<!-- dir_646fe5f874d14482d52789d2a4d73df2 -->
<g id="node2" class="node">
<title>dir_646fe5f874d14482d52789d2a4d73df2</title>
<g id="a_node2"><a xlink:href="dir_646fe5f874d14482d52789d2a4d73df2.html" target="_top" xlink:title="BMS">
<polygon fill="#a2b4d6" stroke="#404040" points="121,-129 83,-129 83,-110 121,-110 121,-129"/>
<text text-anchor="middle" x="102" y="-117" font-family="Helvetica,sans-Serif" font-size="10.00">BMS</text>
</a>
</g>
</g>
<!-- dir_16b3056ea5a4b7dd24fe79c68bb88bcd -->
<g id="node3" class="node">
<title>dir_16b3056ea5a4b7dd24fe79c68bb88bcd</title>
<g id="a_node3"><a xlink:href="dir_16b3056ea5a4b7dd24fe79c68bb88bcd.html" target="_top" xlink:title="Debug">
<polygon fill="#a2b4d6" stroke="#404040" points="252,-74 204,-74 204,-55 252,-55 252,-74"/>
<text text-anchor="middle" x="228" y="-62" font-family="Helvetica,sans-Serif" font-size="10.00">Debug</text>
</a>
</g>
</g>
<!-- dir_646fe5f874d14482d52789d2a4d73df2&#45;&gt;dir_16b3056ea5a4b7dd24fe79c68bb88bcd -->
<g id="edge1" class="edge">
<title>dir_646fe5f874d14482d52789d2a4d73df2&#45;&gt;dir_16b3056ea5a4b7dd24fe79c68bb88bcd</title>
<path fill="none" stroke="#63b8ff" d="M121.14,-110.45C141.59,-101.85 174.28,-88.1 198.13,-78.07"/>
<polygon fill="#63b8ff" stroke="#63b8ff" points="199.56,-81.26 207.42,-74.15 196.85,-74.81 199.56,-81.26"/>
<g id="a_edge1&#45;headlabel"><a xlink:href="dir_000000_000001.html" target="_top" xlink:title="1">
<text text-anchor="middle" x="197.35" y="-82.77" font-family="Helvetica,sans-Serif" font-size="10.00" fill="#63b8ff">1</text>
</a>
</g>
</g>
<!-- dir_d44c64559bbebec7f509842c48db8b23 -->
<g id="node8" class="node">
<title>dir_d44c64559bbebec7f509842c48db8b23</title>
<g id="a_node8"><a xlink:href="dir_d44c64559bbebec7f509842c48db8b23.html" target="_top" xlink:title="include">
<polygon fill="#edf0f7" stroke="#404040" points="306,-19 254,-19 254,0 306,0 306,-19"/>
<text text-anchor="middle" x="280" y="-7" font-family="Helvetica,sans-Serif" font-size="10.00">include</text>
</a>
</g>
</g>
<!-- dir_16b3056ea5a4b7dd24fe79c68bb88bcd&#45;&gt;dir_d44c64559bbebec7f509842c48db8b23 -->
<g id="edge2" class="edge">
<title>dir_16b3056ea5a4b7dd24fe79c68bb88bcd&#45;&gt;dir_d44c64559bbebec7f509842c48db8b23</title>
<path fill="none" stroke="#63b8ff" d="M236.59,-54.75C244.16,-47.03 255.38,-35.6 264.51,-26.28"/>
<polygon fill="#63b8ff" stroke="#63b8ff" points="267.07,-28.68 271.57,-19.09 262.07,-23.78 267.07,-28.68"/>
<g id="a_edge2&#45;headlabel"><a xlink:href="dir_000001_000002.html" target="_top" xlink:title="4">
<text text-anchor="middle" x="266.58" y="-30.73" font-family="Helvetica,sans-Serif" font-size="10.00" fill="#63b8ff">4</text>
</a>
</g>
</g>
<!-- dir_8456cc6ee1be6760a905e5b58e691ed8 -->
<g id="node4" class="node">
<title>dir_8456cc6ee1be6760a905e5b58e691ed8</title>
<g id="a_node4"><a xlink:href="dir_8456cc6ee1be6760a905e5b58e691ed8.html" target="_top" xlink:title="Pedal">
<polygon fill="#a2b4d6" stroke="#404040" points="65,-129 21,-129 21,-110 65,-110 65,-129"/>
<text text-anchor="middle" x="43" y="-117" font-family="Helvetica,sans-Serif" font-size="10.00">Pedal</text>
</a>
</g>
</g>
<!-- dir_8456cc6ee1be6760a905e5b58e691ed8&#45;&gt;dir_16b3056ea5a4b7dd24fe79c68bb88bcd -->
<g id="edge3" class="edge">
<title>dir_8456cc6ee1be6760a905e5b58e691ed8&#45;&gt;dir_16b3056ea5a4b7dd24fe79c68bb88bcd</title>
<path fill="none" stroke="#63b8ff" d="M65.32,-112.11C97.29,-102.95 156.41,-86.01 193.89,-75.27"/>
<polygon fill="#63b8ff" stroke="#63b8ff" points="195.2,-78.54 203.85,-72.42 193.27,-71.81 195.2,-78.54"/>
<g id="a_edge3&#45;headlabel"><a xlink:href="dir_000004_000001.html" target="_top" xlink:title="1">
<text text-anchor="middle" x="192.52" y="-79.76" font-family="Helvetica,sans-Serif" font-size="10.00" fill="#63b8ff">1</text>
</a>
</g>
</g>
<!-- dir_39550fe255860117dab43fd68eb13187 -->
<g id="node5" class="node">
<title>dir_39550fe255860117dab43fd68eb13187</title>
<g id="a_node5"><a xlink:href="dir_39550fe255860117dab43fd68eb13187.html" target="_top" xlink:title="Queue">
<polygon fill="#a2b4d6" stroke="#404040" points="64,-74 16,-74 16,-55 64,-55 64,-74"/>
<text text-anchor="middle" x="40" y="-62" font-family="Helvetica,sans-Serif" font-size="10.00">Queue</text>
</a>
</g>
</g>
<!-- dir_8456cc6ee1be6760a905e5b58e691ed8&#45;&gt;dir_39550fe255860117dab43fd68eb13187 -->
<g id="edge5" class="edge">
<title>dir_8456cc6ee1be6760a905e5b58e691ed8&#45;&gt;dir_39550fe255860117dab43fd68eb13187</title>
<path fill="none" stroke="#63b8ff" d="M42.5,-109.75C42.11,-102.8 41.55,-92.85 41.05,-84.13"/>
<polygon fill="#63b8ff" stroke="#63b8ff" points="44.55,-83.88 40.49,-74.09 37.56,-84.27 44.55,-83.88"/>
<g id="a_edge5&#45;headlabel"><a xlink:href="dir_000004_000005.html" target="_top" xlink:title="1">
<text text-anchor="middle" x="47.58" y="-84.8" font-family="Helvetica,sans-Serif" font-size="10.00" fill="#63b8ff">1</text>
</a>
</g>
</g>
<!-- dir_1804e897983548f0d4b52ef7a93f1956 -->
<g id="node7" class="node">
<title>dir_1804e897983548f0d4b52ef7a93f1956</title>
<g id="a_node7"><a xlink:href="dir_1804e897983548f0d4b52ef7a93f1956.html" target="_top" xlink:title="Signal_Processing">
<polygon fill="#a2b4d6" stroke="#404040" points="186,-74 82,-74 82,-55 186,-55 186,-74"/>
<text text-anchor="middle" x="134" y="-62" font-family="Helvetica,sans-Serif" font-size="10.00">Signal_Processing</text>
</a>
</g>
</g>
<!-- dir_8456cc6ee1be6760a905e5b58e691ed8&#45;&gt;dir_1804e897983548f0d4b52ef7a93f1956 -->
<g id="edge4" class="edge">
<title>dir_8456cc6ee1be6760a905e5b58e691ed8&#45;&gt;dir_1804e897983548f0d4b52ef7a93f1956</title>
<path fill="none" stroke="#63b8ff" d="M57.62,-109.98C71.86,-101.69 93.75,-88.94 110.45,-79.22"/>
<polygon fill="#63b8ff" stroke="#63b8ff" points="112.23,-82.23 119.11,-74.17 108.71,-76.18 112.23,-82.23"/>
<g id="a_edge4&#45;headlabel"><a xlink:href="dir_000004_000007.html" target="_top" xlink:title="1">
<text text-anchor="middle" x="110.56" y="-83.99" font-family="Helvetica,sans-Serif" font-size="10.00" fill="#63b8ff">1</text>
</a>
</g>
</g>
<!-- dir_8456cc6ee1be6760a905e5b58e691ed8&#45;&gt;dir_d44c64559bbebec7f509842c48db8b23 -->
<g id="edge6" class="edge">
<title>dir_8456cc6ee1be6760a905e5b58e691ed8&#45;&gt;dir_d44c64559bbebec7f509842c48db8b23</title>
<path fill="none" stroke="#63b8ff" d="M65.3,-112.16C68.22,-111.4 71.17,-110.66 74,-110 156.43,-90.8 198.22,-130.76 261,-74 273.39,-62.79 277.84,-43.87 279.37,-29.6"/>
<polygon fill="#63b8ff" stroke="#63b8ff" points="282.88,-29.59 280.06,-19.37 275.89,-29.11 282.88,-29.59"/>
<g id="a_edge6&#45;headlabel"><a xlink:href="dir_000004_000002.html" target="_top" xlink:title="1">
<text text-anchor="middle" x="285.46" y="-30.87" font-family="Helvetica,sans-Serif" font-size="10.00" fill="#63b8ff">1</text>
</a>
</g>
</g>
<!-- dir_31ee9004dbbf6d739ca68ba82c1a202b -->
<g id="node6" class="node">
<title>dir_31ee9004dbbf6d739ca68ba82c1a202b</title>
<g id="a_node6"><a xlink:href="dir_31ee9004dbbf6d739ca68ba82c1a202b.html" target="_top" xlink:title="Scheduler">
<polygon fill="#a2b4d6" stroke="#404040" points="204.5,-129 139.5,-129 139.5,-110 204.5,-110 204.5,-129"/>
<text text-anchor="middle" x="172" y="-117" font-family="Helvetica,sans-Serif" font-size="10.00">Scheduler</text>
</a>
</g>
</g>
<!-- dir_31ee9004dbbf6d739ca68ba82c1a202b&#45;&gt;dir_d44c64559bbebec7f509842c48db8b23 -->
<g id="edge7" class="edge">
<title>dir_31ee9004dbbf6d739ca68ba82c1a202b&#45;&gt;dir_d44c64559bbebec7f509842c48db8b23</title>
<path fill="none" stroke="#63b8ff" d="M204.73,-111.03C237.17,-102.89 283.5,-89.01 294,-74 303.48,-60.45 297.53,-41.62 290.7,-27.99"/>
<polygon fill="#63b8ff" stroke="#63b8ff" points="293.7,-26.17 285.79,-19.13 287.58,-29.57 293.7,-26.17"/>
<g id="a_edge7&#45;headlabel"><a xlink:href="dir_000006_000002.html" target="_top" xlink:title="2">
<text text-anchor="middle" x="297.93" y="-25.44" font-family="Helvetica,sans-Serif" font-size="10.00" fill="#63b8ff">2</text>
</a>
</g>
</g>
</g>
</svg>
