<?xml version="1.0" encoding="UTF-8" standalone="no"?>
<!DOCTYPE svg PUBLIC "-//W3C//DTD SVG 1.1//EN"
 "http://www.w3.org/Graphics/SVG/1.1/DTD/svg11.dtd">
<!-- Generated by graphviz version 2.43.0 (0)
 -->
<!-- Title: lib/Pedal Pages: 1 -->
<svg width="330pt" height="133pt"
 viewBox="0.00 0.00 330.00 133.00" xmlns="http://www.w3.org/2000/svg" xmlns:xlink="http://www.w3.org/1999/xlink">
<g id="graph0" class="graph" transform="scale(1 1) rotate(0) translate(4 129)">
<title>lib/Pedal</title>
<g id="clust1" class="cluster">
<title>clusterdir_97aefd0d527b934f1d99a682da8fe6a9</title>
<g id="a_clust1"><a xlink:href="dir_97aefd0d527b934f1d99a682da8fe6a9.html" target="_top" xlink:title="lib">
<polygon fill="#edf0f7" stroke="#404040" stroke-dasharray="5,2" points="8,-8 8,-117 260,-117 260,-8 8,-8"/>
<text text-anchor="middle" x="134" y="-105" font-family="Helvetica,sans-Serif" font-size="10.00">lib</text>
</a>
</g>
</g>
<!-- dir_16b3056ea5a4b7dd24fe79c68bb88bcd -->
<g id="node1" class="node">
<title>dir_16b3056ea5a4b7dd24fe79c68bb88bcd</title>
<g id="a_node1"><a xlink:href="dir_16b3056ea5a4b7dd24fe79c68bb88bcd.html" target="_top" xlink:title="Debug">
<polygon fill="#a2b4d6" stroke="#404040" points="64,-35 16,-35 16,-16 64,-16 64,-35"/>
<text text-anchor="middle" x="40" y="-23" font-family="Helvetica,sans-Serif" font-size="10.00">Debug</text>
</a>
</g>
</g>
<!-- dir_1804e897983548f0d4b52ef7a93f1956 -->
<g id="node2" class="node">
<title>dir_1804e897983548f0d4b52ef7a93f1956</title>
<g id="a_node2"><a xlink:href="dir_1804e897983548f0d4b52ef7a93f1956.html" target="_top" xlink:title="Signal_Processing">
<polygon fill="#a2b4d6" stroke="#404040" points="186,-35 82,-35 82,-16 186,-16 186,-35"/>
<text text-anchor="middle" x="134" y="-23" font-family="Helvetica,sans-Serif" font-size="10.00">Signal_Processing</text>
</a>
</g>
</g>
<!-- dir_39550fe255860117dab43fd68eb13187 -->
<g id="node3" class="node">
<title>dir_39550fe255860117dab43fd68eb13187</title>
<g id="a_node3"><a xlink:href="dir_39550fe255860117dab43fd68eb13187.html" target="_top" xlink:title="Queue">
<polygon fill="#a2b4d6" stroke="#404040" points="252,-35 204,-35 204,-16 252,-16 252,-35"/>
<text text-anchor="middle" x="228" y="-23" font-family="Helvetica,sans-Serif" font-size="10.00">Queue</text>
</a>
</g>
</g>
<!-- dir_8456cc6ee1be6760a905e5b58e691ed8 -->
<g id="node4" class="node">
<title>dir_8456cc6ee1be6760a905e5b58e691ed8</title>
<g id="a_node4"><a xlink:href="dir_8456cc6ee1be6760a905e5b58e691ed8.html" target="_top" xlink:title="Pedal">
<polygon fill="#edf0f7" stroke="#404040" stroke-width="2" points="203,-90 159,-90 159,-71 203,-71 203,-90"/>
<text text-anchor="middle" x="181" y="-78" font-family="Helvetica,sans-Serif" font-size="10.00">Pedal</text>
</a>
</g>
</g>
<!-- dir_8456cc6ee1be6760a905e5b58e691ed8&#45;&gt;dir_16b3056ea5a4b7dd24fe79c68bb88bcd -->
<g id="edge1" class="edge">
<title>dir_8456cc6ee1be6760a905e5b58e691ed8&#45;&gt;dir_16b3056ea5a4b7dd24fe79c68bb88bcd</title>
<path fill="none" stroke="#63b8ff" d="M158.97,-71.22C135.76,-62.49 98.95,-48.66 72.42,-38.69"/>
<polygon fill="#63b8ff" stroke="#63b8ff" points="73.4,-35.32 62.81,-35.07 70.94,-41.87 73.4,-35.32"/>
<g id="a_edge1&#45;headlabel"><a xlink:href="dir_000004_000001.html" target="_top" xlink:title="1">
<text text-anchor="middle" x="77.77" y="-31.42" font-family="Helvetica,sans-Serif" font-size="10.00" fill="#63b8ff">1</text>
</a>
</g>
</g>
<!-- dir_8456cc6ee1be6760a905e5b58e691ed8&#45;&gt;dir_1804e897983548f0d4b52ef7a93f1956 -->
<g id="edge2" class="edge">
<title>dir_8456cc6ee1be6760a905e5b58e691ed8&#45;&gt;dir_1804e897983548f0d4b52ef7a93f1956</title>
<path fill="none" stroke="#63b8ff" d="M173.24,-70.75C166.53,-63.18 156.66,-52.05 148.49,-42.84"/>
<polygon fill="#63b8ff" stroke="#63b8ff" points="150.87,-40.25 141.62,-35.09 145.63,-44.89 150.87,-40.25"/>
<g id="a_edge2&#45;headlabel"><a xlink:href="dir_000004_000007.html" target="_top" xlink:title="1">
<text text-anchor="middle" x="155.38" y="-38.55" font-family="Helvetica,sans-Serif" font-size="10.00" fill="#63b8ff">1</text>
</a>
</g>
</g>
<!-- dir_8456cc6ee1be6760a905e5b58e691ed8&#45;&gt;dir_39550fe255860117dab43fd68eb13187 -->
<g id="edge3" class="edge">
<title>dir_8456cc6ee1be6760a905e5b58e691ed8&#45;&gt;dir_39550fe255860117dab43fd68eb13187</title>
<path fill="none" stroke="#63b8ff" d="M188.76,-70.75C195.47,-63.18 205.34,-52.05 213.51,-42.84"/>
<polygon fill="#63b8ff" stroke="#63b8ff" points="216.37,-44.89 220.38,-35.09 211.13,-40.25 216.37,-44.89"/>
<g id="a_edge3&#45;headlabel"><a xlink:href="dir_000004_000005.html" target="_top" xlink:title="1">
<text text-anchor="middle" x="216.11" y="-46.97" font-family="Helvetica,sans-Serif" font-size="10.00" fill="#63b8ff">1</text>
</a>
</g>
</g>
<!-- dir_d44c64559bbebec7f509842c48db8b23 -->
<g id="node5" class="node">
<title>dir_d44c64559bbebec7f509842c48db8b23</title>
<g id="a_node5"><a xlink:href="dir_d44c64559bbebec7f509842c48db8b23.html" target="_top" xlink:title="include">
<polygon fill="#edf0f7" stroke="#404040" points="322,-35 270,-35 270,-16 322,-16 322,-35"/>
<text text-anchor="middle" x="296" y="-23" font-family="Helvetica,sans-Serif" font-size="10.00">include</text>
</a>
</g>
</g>
<!-- dir_8456cc6ee1be6760a905e5b58e691ed8&#45;&gt;dir_d44c64559bbebec7f509842c48db8b23 -->
<g id="edge4" class="edge">
<title>dir_8456cc6ee1be6760a905e5b58e691ed8&#45;&gt;dir_d44c64559bbebec7f509842c48db8b23</title>
<path fill="none" stroke="#63b8ff" d="M199.48,-70.98C217.98,-62.46 246.68,-49.23 267.98,-39.41"/>
<polygon fill="#63b8ff" stroke="#63b8ff" points="269.57,-42.53 277.19,-35.17 266.64,-36.18 269.57,-42.53"/>
<g id="a_edge4&#45;headlabel"><a xlink:href="dir_000004_000002.html" target="_top" xlink:title="3">
<text text-anchor="middle" x="267.49" y="-44.12" font-family="Helvetica,sans-Serif" font-size="10.00" fill="#63b8ff">3</text>
</a>
</g>
</g>
</g>
</svg>
