<?xml version="1.0" encoding="UTF-8" standalone="no"?>
<!DOCTYPE svg PUBLIC "-//W3C//DTD SVG 1.1//EN"
 "http://www.w3.org/Graphics/SVG/1.1/DTD/svg11.dtd">
<!-- Generated by graphviz version 2.43.0 (0)
 -->
<!-- Title: lib/BMS Pages: 1 -->
<svg width="226pt" height="133pt"
 viewBox="0.00 0.00 226.00 133.00" xmlns="http://www.w3.org/2000/svg" xmlns:xlink="http://www.w3.org/1999/xlink">
<g id="graph0" class="graph" transform="scale(1 1) rotate(0) translate(4 129)">
<title>lib/BMS</title>
<g id="clust1" class="cluster">
<title>clusterdir_97aefd0d527b934f1d99a682da8fe6a9</title>
<g id="a_clust1"><a xlink:href="dir_97aefd0d527b934f1d99a682da8fe6a9.html" target="_top" xlink:title="lib">
<polygon fill="#edf0f7" stroke="#404040" stroke-dasharray="5,2" points="8,-8 8,-117 156,-117 156,-8 8,-8"/>
<text text-anchor="middle" x="82" y="-105" font-family="Helvetica,sans-Serif" font-size="10.00">lib</text>
</a>
</g>
</g>
<!-- dir_16b3056ea5a4b7dd24fe79c68bb88bcd -->
<g id="node1" class="node">
<title>dir_16b3056ea5a4b7dd24fe79c68bb88bcd</title>
<g id="a_node1"><a xlink:href="dir_16b3056ea5a4b7dd24fe79c68bb88bcd.html" target="_top" xlink:title="Debug">
<polygon fill="#a2b4d6" stroke="#404040" points="64,-35 16,-35 16,-16 64,-16 64,-35"/>
<text text-anchor="middle" x="40" y="-23" font-family="Helvetica,sans-Serif" font-size="10.00">Debug</text>
</a>
</g>
</g>
<!-- dir_31ee9004dbbf6d739ca68ba82c1a202b -->
<g id="node2" class="node">
<title>dir_31ee9004dbbf6d739ca68ba82c1a202b</title>
<g id="a_node2"><a xlink:href="dir_31ee9004dbbf6d739ca68ba82c1a202b.html" target="_top" xlink:title="Scheduler">
<polygon fill="#a2b4d6" stroke="#404040" points="147.5,-35 82.5,-35 82.5,-16 147.5,-16 147.5,-35"/>
<text text-anchor="middle" x="115" y="-23" font-family="Helvetica,sans-Serif" font-size="10.00">Scheduler</text>
</a>
</g>
</g>
<!-- dir_646fe5f874d14482d52789d2a4d73df2 -->
<g id="node3" class="node">
<title>dir_646fe5f874d14482d52789d2a4d73df2</title>
<g id="a_node3"><a xlink:href="dir_646fe5f874d14482d52789d2a4d73df2.html" target="_top" xlink:title="BMS">
<polygon fill="#edf0f7" stroke="#404040" stroke-width="2" points="134,-90 96,-90 96,-71 134,-71 134,-90"/>
<text text-anchor="middle" x="115" y="-78" font-family="Helvetica,sans-Serif" font-size="10.00">BMS</text>
</a>
</g>
</g>
<!-- dir_646fe5f874d14482d52789d2a4d73df2&#45;&gt;dir_16b3056ea5a4b7dd24fe79c68bb88bcd -->
<g id="edge1" class="edge">
<title>dir_646fe5f874d14482d52789d2a4d73df2&#45;&gt;dir_16b3056ea5a4b7dd24fe79c68bb88bcd</title>
<path fill="none" stroke="#63b8ff" d="M102.95,-70.98C91.54,-62.92 74.17,-50.65 60.57,-41.03"/>
<polygon fill="#63b8ff" stroke="#63b8ff" points="62.46,-38.08 52.27,-35.17 58.42,-43.8 62.46,-38.08"/>
<g id="a_edge1&#45;headlabel"><a xlink:href="dir_000000_000001.html" target="_top" xlink:title="1">
<text text-anchor="middle" x="67.03" y="-35.34" font-family="Helvetica,sans-Serif" font-size="10.00" fill="#63b8ff">1</text>
</a>
</g>
</g>
<!-- dir_646fe5f874d14482d52789d2a4d73df2&#45;&gt;dir_31ee9004dbbf6d739ca68ba82c1a202b -->
<g id="edge2" class="edge">
<title>dir_646fe5f874d14482d52789d2a4d73df2&#45;&gt;dir_31ee9004dbbf6d739ca68ba82c1a202b</title>
<path fill="none" stroke="#63b8ff" d="M115,-70.75C115,-63.8 115,-53.85 115,-45.13"/>
<polygon fill="#63b8ff" stroke="#63b8ff" points="118.5,-45.09 115,-35.09 111.5,-45.09 118.5,-45.09"/>
<g id="a_edge2&#45;headlabel"><a xlink:href="dir_000000_000006.html" target="_top" xlink:title="1">
<text text-anchor="middle" x="121.34" y="-46.18" font-family="Helvetica,sans-Serif" font-size="10.00" fill="#63b8ff">1</text>
</a>
</g>
</g>
<!-- dir_d44c64559bbebec7f509842c48db8b23 -->
<g id="node4" class="node">
<title>dir_d44c64559bbebec7f509842c48db8b23</title>
<g id="a_node4"><a xlink:href="dir_d44c64559bbebec7f509842c48db8b23.html" target="_top" xlink:title="include">
<polygon fill="#edf0f7" stroke="#404040" points="218,-35 166,-35 166,-16 218,-16 218,-35"/>
<text text-anchor="middle" x="192" y="-23" font-family="Helvetica,sans-Serif" font-size="10.00">include</text>
</a>
</g>
</g>
<!-- dir_646fe5f874d14482d52789d2a4d73df2&#45;&gt;dir_d44c64559bbebec7f509842c48db8b23 -->
<g id="edge3" class="edge">
<title>dir_646fe5f874d14482d52789d2a4d73df2&#45;&gt;dir_d44c64559bbebec7f509842c48db8b23</title>
<path fill="none" stroke="#63b8ff" d="M127.37,-70.98C139.09,-62.92 156.92,-50.65 170.89,-41.03"/>
<polygon fill="#63b8ff" stroke="#63b8ff" points="173.15,-43.72 179.4,-35.17 169.18,-37.96 173.15,-43.72"/>
<g id="a_edge3&#45;headlabel"><a xlink:href="dir_000000_000002.html" target="_top" xlink:title="3">
<text text-anchor="middle" x="171.8" y="-45.6" font-family="Helvetica,sans-Serif" font-size="10.00" fill="#63b8ff">3</text>
</a>
</g>
</g>
</g>
</svg>
