<?xml version="1.0" encoding="UTF-8" standalone="no"?>
<!DOCTYPE svg PUBLIC "-//W3C//DTD SVG 1.1//EN"
 "http://www.w3.org/Graphics/SVG/1.1/DTD/svg11.dtd">
<!-- Generated by graphviz version 2.43.0 (0)
 -->
<!-- Title: lib Pages: 1 -->
<svg width="429pt" height="153pt"
 viewBox="0.00 0.00 429.01 153.00" xmlns="http://www.w3.org/2000/svg" xmlns:xlink="http://www.w3.org/1999/xlink">
<g id="graph0" class="graph" transform="scale(1 1) rotate(0) translate(4 149)">
<title>lib</title>
<g id="clust1" class="cluster">
<title>clusterdir_97aefd0d527b934f1d99a682da8fe6a9</title>
<g id="a_clust1"><a xlink:href="dir_97aefd0d527b934f1d99a682da8fe6a9.html" target="_top">
<polygon fill="#edf0f7" stroke="#404040" stroke-width="2" points="8,-47 8,-137 344,-137 344,-47 8,-47"/>
</a>
</g>
</g>
<!-- dir_97aefd0d527b934f1d99a682da8fe6a9 -->
<g id="node1" class="node">
<title>dir_97aefd0d527b934f1d99a682da8fe6a9</title>
<text text-anchor="middle" x="321" y="-117" font-family="Helvetica,sans-Serif" font-size="10.00">lib</text>
</g>
<!-- dir_646fe5f874d14482d52789d2a4d73df2 -->
<g id="node2" class="node">
<title>dir_646fe5f874d14482d52789d2a4d73df2</title>
<g id="a_node2"><a xlink:href="dir_646fe5f874d14482d52789d2a4d73df2.html" target="_top" xlink:title="BMS">
<polygon fill="#a2b4d6" stroke="#404040" points="205,-129 167,-129 167,-110 205,-110 205,-129"/>
<text text-anchor="middle" x="186" y="-117" font-family="Helvetica,sans-Serif" font-size="10.00">BMS</text>
</a>
</g>
</g>
<!-- dir_16b3056ea5a4b7dd24fe79c68bb88bcd -->
<g id="node3" class="node">
<title>dir_16b3056ea5a4b7dd24fe79c68bb88bcd</title>
<g id="a_node3"><a xlink:href="dir_16b3056ea5a4b7dd24fe79c68bb88bcd.html" target="_top" xlink:title="Debug">
<polygon fill="#a2b4d6" stroke="#404040" points="252,-74 204,-74 204,-55 252,-55 252,-74"/>
<text text-anchor="middle" x="228" y="-62" font-family="Helvetica,sans-Serif" font-size="10.00">Debug</text>
</a>
</g>
</g>
<!-- dir_646fe5f874d14482d52789d2a4d73df2&#45;&gt;dir_16b3056ea5a4b7dd24fe79c68bb88bcd -->
<g id="edge1" class="edge">
<title>dir_646fe5f874d14482d52789d2a4d73df2&#45;&gt;dir_16b3056ea5a4b7dd24fe79c68bb88bcd</title>
<path fill="none" stroke="#63b8ff" d="M192.94,-109.75C198.87,-102.26 207.57,-91.28 214.82,-82.13"/>
<polygon fill="#63b8ff" stroke="#63b8ff" points="217.73,-84.1 221.19,-74.09 212.24,-79.75 217.73,-84.1"/>
<g id="a_edge1&#45;headlabel"><a xlink:href="dir_000000_000001.html" target="_top" xlink:title="1">
<text text-anchor="middle" x="217.72" y="-86.18" font-family="Helvetica,sans-Serif" font-size="10.00" fill="#63b8ff">1</text>
</a>
</g>
</g>
<!-- dir_31ee9004dbbf6d739ca68ba82c1a202b -->
<g id="node6" class="node">
<title>dir_31ee9004dbbf6d739ca68ba82c1a202b</title>
<g id="a_node6"><a xlink:href="dir_31ee9004dbbf6d739ca68ba82c1a202b.html" target="_top" xlink:title="Scheduler">
<polygon fill="#a2b4d6" stroke="#404040" points="335.5,-74 270.5,-74 270.5,-55 335.5,-55 335.5,-74"/>
<text text-anchor="middle" x="303" y="-62" font-family="Helvetica,sans-Serif" font-size="10.00">Scheduler</text>
</a>
</g>
</g>
<!-- dir_646fe5f874d14482d52789d2a4d73df2&#45;&gt;dir_31ee9004dbbf6d739ca68ba82c1a202b -->
<g id="edge2" class="edge">
<title>dir_646fe5f874d14482d52789d2a4d73df2&#45;&gt;dir_31ee9004dbbf6d739ca68ba82c1a202b</title>
<path fill="none" stroke="#63b8ff" d="M204.8,-109.98C223.62,-101.46 252.82,-88.23 274.5,-78.41"/>
<polygon fill="#63b8ff" stroke="#63b8ff" points="276.2,-81.48 283.86,-74.17 273.31,-75.11 276.2,-81.48"/>
<g id="a_edge2&#45;headlabel"><a xlink:href="dir_000000_000006.html" target="_top" xlink:title="1">
<text text-anchor="middle" x="274.09" y="-83.05" font-family="Helvetica,sans-Serif" font-size="10.00" fill="#63b8ff">1</text>
</a>
</g>
</g>
<!-- dir_d44c64559bbebec7f509842c48db8b23 -->
<g id="node9" class="node">
<title>dir_d44c64559bbebec7f509842c48db8b23</title>
<g id="a_node9"><a xlink:href="dir_d44c64559bbebec7f509842c48db8b23.html" target="_top" xlink:title="include">
<polygon fill="#edf0f7" stroke="#404040" points="390,-19 338,-19 338,0 390,0 390,-19"/>
<text text-anchor="middle" x="364" y="-7" font-family="Helvetica,sans-Serif" font-size="10.00">include</text>
</a>
</g>
</g>
<!-- dir_646fe5f874d14482d52789d2a4d73df2&#45;&gt;dir_d44c64559bbebec7f509842c48db8b23 -->
<g id="edge3" class="edge">
<title>dir_646fe5f874d14482d52789d2a4d73df2&#45;&gt;dir_d44c64559bbebec7f509842c48db8b23</title>
<path fill="none" stroke="#63b8ff" d="M205.22,-112.45C208.15,-111.59 211.15,-110.74 214,-110 286.2,-91.15 331.23,-132.15 378,-74 388.36,-61.12 382.29,-42.19 375.19,-28.35"/>
<polygon fill="#63b8ff" stroke="#63b8ff" points="378.05,-26.3 370.06,-19.34 371.96,-29.76 378.05,-26.3"/>
<g id="a_edge3&#45;headlabel"><a xlink:href="dir_000000_000002.html" target="_top" xlink:title="3">
<text text-anchor="middle" x="382.29" y="-25.52" font-family="Helvetica,sans-Serif" font-size="10.00" fill="#63b8ff">3</text>
</a>
</g>
</g>
<!-- dir_16b3056ea5a4b7dd24fe79c68bb88bcd&#45;&gt;dir_d44c64559bbebec7f509842c48db8b23 -->
<g id="edge4" class="edge">
<title>dir_16b3056ea5a4b7dd24fe79c68bb88bcd&#45;&gt;dir_d44c64559bbebec7f509842c48db8b23</title>
<path fill="none" stroke="#63b8ff" d="M244.78,-54.91C250.22,-52.25 256.31,-49.39 262,-47 283.66,-37.9 308.46,-28.99 328.19,-22.25"/>
<polygon fill="#63b8ff" stroke="#63b8ff" points="329.36,-25.55 337.71,-19.03 327.12,-18.92 329.36,-25.55"/>
<g id="a_edge4&#45;headlabel"><a xlink:href="dir_000001_000002.html" target="_top" xlink:title="4">
<text text-anchor="middle" x="326.86" y="-26.89" font-family="Helvetica,sans-Serif" font-size="10.00" fill="#63b8ff">4</text>
</a>
</g>
</g>
<!-- dir_8456cc6ee1be6760a905e5b58e691ed8 -->
<g id="node4" class="node">
<title>dir_8456cc6ee1be6760a905e5b58e691ed8</title>
<g id="a_node4"><a xlink:href="dir_8456cc6ee1be6760a905e5b58e691ed8.html" target="_top" xlink:title="Pedal">
<polygon fill="#a2b4d6" stroke="#404040" points="149,-129 105,-129 105,-110 149,-110 149,-129"/>
<text text-anchor="middle" x="127" y="-117" font-family="Helvetica,sans-Serif" font-size="10.00">Pedal</text>
</a>
</g>
</g>
<!-- dir_8456cc6ee1be6760a905e5b58e691ed8&#45;&gt;dir_16b3056ea5a4b7dd24fe79c68bb88bcd -->
<g id="edge5" class="edge">
<title>dir_8456cc6ee1be6760a905e5b58e691ed8&#45;&gt;dir_16b3056ea5a4b7dd24fe79c68bb88bcd</title>
<path fill="none" stroke="#63b8ff" d="M143.23,-109.98C159.18,-101.61 183.78,-88.7 202.38,-78.95"/>
<polygon fill="#63b8ff" stroke="#63b8ff" points="204.25,-81.92 211.48,-74.17 201,-75.72 204.25,-81.92"/>
<g id="a_edge5&#45;headlabel"><a xlink:href="dir_000004_000001.html" target="_top" xlink:title="1">
<text text-anchor="middle" x="202.39" y="-83.6" font-family="Helvetica,sans-Serif" font-size="10.00" fill="#63b8ff">1</text>
</a>
</g>
</g>
<!-- dir_39550fe255860117dab43fd68eb13187 -->
<g id="node5" class="node">
<title>dir_39550fe255860117dab43fd68eb13187</title>
<g id="a_node5"><a xlink:href="dir_39550fe255860117dab43fd68eb13187.html" target="_top" xlink:title="Queue">
<polygon fill="#a2b4d6" stroke="#404040" points="64,-74 16,-74 16,-55 64,-55 64,-74"/>
<text text-anchor="middle" x="40" y="-62" font-family="Helvetica,sans-Serif" font-size="10.00">Queue</text>
</a>
</g>
</g>
<!-- dir_8456cc6ee1be6760a905e5b58e691ed8&#45;&gt;dir_39550fe255860117dab43fd68eb13187 -->
<g id="edge7" class="edge">
<title>dir_8456cc6ee1be6760a905e5b58e691ed8&#45;&gt;dir_39550fe255860117dab43fd68eb13187</title>
<path fill="none" stroke="#63b8ff" d="M113.02,-109.98C99.53,-101.77 78.87,-89.18 62.96,-79.49"/>
<polygon fill="#63b8ff" stroke="#63b8ff" points="64.59,-76.38 54.23,-74.17 60.95,-82.36 64.59,-76.38"/>
<g id="a_edge7&#45;headlabel"><a xlink:href="dir_000004_000005.html" target="_top" xlink:title="1">
<text text-anchor="middle" x="69.14" y="-73.33" font-family="Helvetica,sans-Serif" font-size="10.00" fill="#63b8ff">1</text>
</a>
</g>
</g>
<!-- dir_1804e897983548f0d4b52ef7a93f1956 -->
<g id="node7" class="node">
<title>dir_1804e897983548f0d4b52ef7a93f1956</title>
<g id="a_node7"><a xlink:href="dir_1804e897983548f0d4b52ef7a93f1956.html" target="_top" xlink:title="Signal_Processing">
<polygon fill="#a2b4d6" stroke="#404040" points="186,-74 82,-74 82,-55 186,-55 186,-74"/>
<text text-anchor="middle" x="134" y="-62" font-family="Helvetica,sans-Serif" font-size="10.00">Signal_Processing</text>
</a>
</g>
</g>
<!-- dir_8456cc6ee1be6760a905e5b58e691ed8&#45;&gt;dir_1804e897983548f0d4b52ef7a93f1956 -->
<g id="edge6" class="edge">
<title>dir_8456cc6ee1be6760a905e5b58e691ed8&#45;&gt;dir_1804e897983548f0d4b52ef7a93f1956</title>
<path fill="none" stroke="#63b8ff" d="M128.16,-109.75C129.07,-102.8 130.39,-92.85 131.54,-84.13"/>
<polygon fill="#63b8ff" stroke="#63b8ff" points="135.03,-84.46 132.87,-74.09 128.09,-83.54 135.03,-84.46"/>
<g id="a_edge6&#45;headlabel"><a xlink:href="dir_000004_000007.html" target="_top" xlink:title="2">
<text text-anchor="middle" x="137.37" y="-85.9" font-family="Helvetica,sans-Serif" font-size="10.00" fill="#63b8ff">2</text>
</a>
</g>
</g>
<!-- dir_8456cc6ee1be6760a905e5b58e691ed8&#45;&gt;dir_d44c64559bbebec7f509842c48db8b23 -->
<g id="edge8" class="edge">
<title>dir_8456cc6ee1be6760a905e5b58e691ed8&#45;&gt;dir_d44c64559bbebec7f509842c48db8b23</title>
<path fill="none" stroke="#63b8ff" d="M149.3,-112.16C152.22,-111.4 155.17,-110.66 158,-110 240.43,-90.8 282.22,-130.76 345,-74 357.39,-62.79 361.84,-43.87 363.37,-29.6"/>
<polygon fill="#63b8ff" stroke="#63b8ff" points="366.88,-29.59 364.06,-19.37 359.89,-29.11 366.88,-29.59"/>
<g id="a_edge8&#45;headlabel"><a xlink:href="dir_000004_000002.html" target="_top" xlink:title="6">
<text text-anchor="middle" x="369.46" y="-30.87" font-family="Helvetica,sans-Serif" font-size="10.00" fill="#63b8ff">6</text>
</a>
</g>
</g>
<!-- dir_31ee9004dbbf6d739ca68ba82c1a202b&#45;&gt;dir_d44c64559bbebec7f509842c48db8b23 -->
<g id="edge9" class="edge">
<title>dir_31ee9004dbbf6d739ca68ba82c1a202b&#45;&gt;dir_d44c64559bbebec7f509842c48db8b23</title>
<path fill="none" stroke="#63b8ff" d="M312.8,-54.98C321.82,-47.15 335.41,-35.34 346.32,-25.86"/>
<polygon fill="#63b8ff" stroke="#63b8ff" points="348.77,-28.37 354.02,-19.17 344.18,-23.09 348.77,-28.37"/>
<g id="a_edge9&#45;headlabel"><a xlink:href="dir_000006_000002.html" target="_top" xlink:title="2">
<text text-anchor="middle" x="347.92" y="-30.37" font-family="Helvetica,sans-Serif" font-size="10.00" fill="#63b8ff">2</text>
</a>
</g>
</g>
<!-- dir_518ff1f339c4371cfcdfbdf9640bf38c -->
<g id="node8" class="node">
<title>dir_518ff1f339c4371cfcdfbdf9640bf38c</title>
<g id="a_node8"><a xlink:href="dir_518ff1f339c4371cfcdfbdf9640bf38c.html" target="_top" xlink:title="Telemetry">
<polygon fill="#a2b4d6" stroke="#404040" points="288.5,-129 223.5,-129 223.5,-110 288.5,-110 288.5,-129"/>
<text text-anchor="middle" x="256" y="-117" font-family="Helvetica,sans-Serif" font-size="10.00">Telemetry</text>
</a>
</g>
</g>
<!-- dir_518ff1f339c4371cfcdfbdf9640bf38c&#45;&gt;dir_d44c64559bbebec7f509842c48db8b23 -->
<g id="edge10" class="edge">
<title>dir_518ff1f339c4371cfcdfbdf9640bf38c&#45;&gt;dir_d44c64559bbebec7f509842c48db8b23</title>
<path fill="none" stroke="#63b8ff" d="M288.6,-111.63C333.08,-101.94 408.19,-84.27 416,-74 423.26,-64.45 421.53,-57.65 416,-47 411.04,-37.46 402.32,-29.89 393.41,-24.18"/>
<polygon fill="#63b8ff" stroke="#63b8ff" points="394.99,-21.05 384.58,-19.08 391.49,-27.11 394.99,-21.05"/>
<g id="a_edge10&#45;headlabel"><a xlink:href="dir_000009_000002.html" target="_top" xlink:title="1">
<text text-anchor="middle" x="399.53" y="-17.89" font-family="Helvetica,sans-Serif" font-size="10.00" fill="#63b8ff">1</text>
</a>
</g>
</g>
</g>
</svg>
