<?xml version="1.0" encoding="UTF-8" standalone="no"?>
<!DOCTYPE svg PUBLIC "-//W3C//DTD SVG 1.1//EN"
 "http://www.w3.org/Graphics/SVG/1.1/DTD/svg11.dtd">
<!-- Generated by graphviz version 2.43.0 (0)
 -->
<!-- Title: lib Pages: 1 -->
<svg width="360pt" height="153pt"
 viewBox="0.00 0.00 360.00 153.00" xmlns="http://www.w3.org/2000/svg" xmlns:xlink="http://www.w3.org/1999/xlink">
<g id="graph0" class="graph" transform="scale(1 1) rotate(0) translate(4 149)">
<title>lib</title>
<g id="clust1" class="cluster">
<title>clusterdir_97aefd0d527b934f1d99a682da8fe6a9</title>
<g id="a_clust1"><a xlink:href="dir_97aefd0d527b934f1d99a682da8fe6a9.html" target="_top">
<polygon fill="#edf0f7" stroke="#404040" stroke-width="2" points="8,-47 8,-137 344,-137 344,-47 8,-47"/>
</a>
</g>
</g>
<!-- dir_97aefd0d527b934f1d99a682da8fe6a9 -->
<g id="node1" class="node">
<title>dir_97aefd0d527b934f1d99a682da8fe6a9</title>
<text text-anchor="middle" x="310" y="-117" font-family="Helvetica,sans-Serif" font-size="10.00">lib</text>
</g>
<!-- dir_646fe5f874d14482d52789d2a4d73df2 -->
<g id="node2" class="node">
<title>dir_646fe5f874d14482d52789d2a4d73df2</title>
<g id="a_node2"><a xlink:href="dir_646fe5f874d14482d52789d2a4d73df2.html" target="_top" xlink:title="BMS">
<polygon fill="#a2b4d6" stroke="#404040" points="257,-129 219,-129 219,-110 257,-110 257,-129"/>
<text text-anchor="middle" x="238" y="-117" font-family="Helvetica,sans-Serif" font-size="10.00">BMS</text>
</a>
</g>
</g>
<!-- dir_16b3056ea5a4b7dd24fe79c68bb88bcd -->
<g id="node3" class="node">
<title>dir_16b3056ea5a4b7dd24fe79c68bb88bcd</title>
<g id="a_node3"><a xlink:href="dir_16b3056ea5a4b7dd24fe79c68bb88bcd.html" target="_top" xlink:title="Debug">
<polygon fill="#a2b4d6" stroke="#404040" points="252,-74 204,-74 204,-55 252,-55 252,-74"/>
<text text-anchor="middle" x="228" y="-62" font-family="Helvetica,sans-Serif" font-size="10.00">Debug</text>
</a>
</g>
</g>
<!-- dir_646fe5f874d14482d52789d2a4d73df2&#45;&gt;dir_16b3056ea5a4b7dd24fe79c68bb88bcd -->
<g id="edge1" class="edge">
<title>dir_646fe5f874d14482d52789d2a4d73df2&#45;&gt;dir_16b3056ea5a4b7dd24fe79c68bb88bcd</title>
<path fill="none" stroke="#63b8ff" d="M236.35,-109.75C235.04,-102.8 233.16,-92.85 231.52,-84.13"/>
<polygon fill="#63b8ff" stroke="#63b8ff" points="234.91,-83.27 229.62,-74.09 228.04,-84.56 234.91,-83.27"/>
<g id="a_edge1&#45;headlabel"><a xlink:href="dir_000000_000001.html" target="_top" xlink:title="1">
<text text-anchor="middle" x="238.37" y="-83.77" font-family="Helvetica,sans-Serif" font-size="10.00" fill="#63b8ff">1</text>
</a>
</g>
</g>
<!-- dir_31ee9004dbbf6d739ca68ba82c1a202b -->
<g id="node6" class="node">
<title>dir_31ee9004dbbf6d739ca68ba82c1a202b</title>
<g id="a_node6"><a xlink:href="dir_31ee9004dbbf6d739ca68ba82c1a202b.html" target="_top" xlink:title="Scheduler">
<polygon fill="#a2b4d6" stroke="#404040" points="335.5,-74 270.5,-74 270.5,-55 335.5,-55 335.5,-74"/>
<text text-anchor="middle" x="303" y="-62" font-family="Helvetica,sans-Serif" font-size="10.00">Scheduler</text>
</a>
</g>
</g>
<!-- dir_646fe5f874d14482d52789d2a4d73df2&#45;&gt;dir_31ee9004dbbf6d739ca68ba82c1a202b -->
<g id="edge2" class="edge">
<title>dir_646fe5f874d14482d52789d2a4d73df2&#45;&gt;dir_31ee9004dbbf6d739ca68ba82c1a202b</title>
<path fill="none" stroke="#63b8ff" d="M248.44,-109.98C258.15,-102.07 272.82,-90.11 284.5,-80.58"/>
<polygon fill="#63b8ff" stroke="#63b8ff" points="286.83,-83.2 292.37,-74.17 282.4,-77.78 286.83,-83.2"/>
<g id="a_edge2&#45;headlabel"><a xlink:href="dir_000000_000006.html" target="_top" xlink:title="1">
<text text-anchor="middle" x="285.84" y="-85.17" font-family="Helvetica,sans-Serif" font-size="10.00" fill="#63b8ff">1</text>
</a>
</g>
</g>
<!-- dir_d44c64559bbebec7f509842c48db8b23 -->
<g id="node9" class="node">
<title>dir_d44c64559bbebec7f509842c48db8b23</title>
<g id="a_node9"><a xlink:href="dir_d44c64559bbebec7f509842c48db8b23.html" target="_top" xlink:title="include">
<polygon fill="#edf0f7" stroke="#404040" points="329,-19 277,-19 277,0 329,0 329,-19"/>
<text text-anchor="middle" x="303" y="-7" font-family="Helvetica,sans-Serif" font-size="10.00">include</text>
</a>
</g>
</g>
<!-- dir_16b3056ea5a4b7dd24fe79c68bb88bcd&#45;&gt;dir_d44c64559bbebec7f509842c48db8b23 -->
<g id="edge3" class="edge">
<title>dir_16b3056ea5a4b7dd24fe79c68bb88bcd&#45;&gt;dir_d44c64559bbebec7f509842c48db8b23</title>
<path fill="none" stroke="#63b8ff" d="M240.05,-54.98C251.46,-46.92 268.83,-34.65 282.43,-25.03"/>
<polygon fill="#63b8ff" stroke="#63b8ff" points="284.58,-27.8 290.73,-19.17 280.54,-22.08 284.58,-27.8"/>
<g id="a_edge3&#45;headlabel"><a xlink:href="dir_000001_000002.html" target="_top" xlink:title="4">
<text text-anchor="middle" x="283.29" y="-29.69" font-family="Helvetica,sans-Serif" font-size="10.00" fill="#63b8ff">4</text>
</a>
</g>
</g>
<!-- dir_8456cc6ee1be6760a905e5b58e691ed8 -->
<g id="node4" class="node">
<title>dir_8456cc6ee1be6760a905e5b58e691ed8</title>
<g id="a_node4"><a xlink:href="dir_8456cc6ee1be6760a905e5b58e691ed8.html" target="_top" xlink:title="Pedal">
<polygon fill="#a2b4d6" stroke="#404040" points="192,-129 148,-129 148,-110 192,-110 192,-129"/>
<text text-anchor="middle" x="170" y="-117" font-family="Helvetica,sans-Serif" font-size="10.00">Pedal</text>
</a>
</g>
</g>
<!-- dir_8456cc6ee1be6760a905e5b58e691ed8&#45;&gt;dir_16b3056ea5a4b7dd24fe79c68bb88bcd -->
<g id="edge4" class="edge">
<title>dir_8456cc6ee1be6760a905e5b58e691ed8&#45;&gt;dir_16b3056ea5a4b7dd24fe79c68bb88bcd</title>
<path fill="none" stroke="#63b8ff" d="M179.32,-109.98C187.81,-102.23 200.56,-90.58 210.88,-81.14"/>
<polygon fill="#63b8ff" stroke="#63b8ff" points="213.49,-83.5 218.51,-74.17 208.77,-78.33 213.49,-83.5"/>
<g id="a_edge4&#45;headlabel"><a xlink:href="dir_000004_000001.html" target="_top" xlink:title="1">
<text text-anchor="middle" x="212.75" y="-85.52" font-family="Helvetica,sans-Serif" font-size="10.00" fill="#63b8ff">1</text>
</a>
</g>
</g>
<!-- dir_39550fe255860117dab43fd68eb13187 -->
<g id="node5" class="node">
<title>dir_39550fe255860117dab43fd68eb13187</title>
<g id="a_node5"><a xlink:href="dir_39550fe255860117dab43fd68eb13187.html" target="_top" xlink:title="Queue">
<polygon fill="#a2b4d6" stroke="#404040" points="186,-74 138,-74 138,-55 186,-55 186,-74"/>
<text text-anchor="middle" x="162" y="-62" font-family="Helvetica,sans-Serif" font-size="10.00">Queue</text>
</a>
</g>
</g>
<!-- dir_8456cc6ee1be6760a905e5b58e691ed8&#45;&gt;dir_39550fe255860117dab43fd68eb13187 -->
<g id="edge6" class="edge">
<title>dir_8456cc6ee1be6760a905e5b58e691ed8&#45;&gt;dir_39550fe255860117dab43fd68eb13187</title>
<path fill="none" stroke="#63b8ff" d="M168.68,-109.75C167.63,-102.8 166.13,-92.85 164.81,-84.13"/>
<polygon fill="#63b8ff" stroke="#63b8ff" points="168.25,-83.45 163.3,-74.09 161.33,-84.5 168.25,-83.45"/>
<g id="a_edge6&#45;headlabel"><a xlink:href="dir_000004_000005.html" target="_top" xlink:title="1">
<text text-anchor="middle" x="171.59" y="-84.09" font-family="Helvetica,sans-Serif" font-size="10.00" fill="#63b8ff">1</text>
</a>
</g>
</g>
<!-- dir_1804e897983548f0d4b52ef7a93f1956 -->
<g id="node7" class="node">
<title>dir_1804e897983548f0d4b52ef7a93f1956</title>
<g id="a_node7"><a xlink:href="dir_1804e897983548f0d4b52ef7a93f1956.html" target="_top" xlink:title="Signal_Processing">
<polygon fill="#a2b4d6" stroke="#404040" points="120,-74 16,-74 16,-55 120,-55 120,-74"/>
<text text-anchor="middle" x="68" y="-62" font-family="Helvetica,sans-Serif" font-size="10.00">Signal_Processing</text>
</a>
</g>
</g>
<!-- dir_8456cc6ee1be6760a905e5b58e691ed8&#45;&gt;dir_1804e897983548f0d4b52ef7a93f1956 -->
<g id="edge5" class="edge">
<title>dir_8456cc6ee1be6760a905e5b58e691ed8&#45;&gt;dir_1804e897983548f0d4b52ef7a93f1956</title>
<path fill="none" stroke="#63b8ff" d="M153.61,-109.98C137.43,-101.57 112.43,-88.59 93.62,-78.81"/>
<polygon fill="#63b8ff" stroke="#63b8ff" points="95.17,-75.68 84.69,-74.17 91.95,-81.89 95.17,-75.68"/>
<g id="a_edge5&#45;headlabel"><a xlink:href="dir_000004_000007.html" target="_top" xlink:title="1">
<text text-anchor="middle" x="99.67" y="-72.31" font-family="Helvetica,sans-Serif" font-size="10.00" fill="#63b8ff">1</text>
</a>
</g>
</g>
<!-- dir_8456cc6ee1be6760a905e5b58e691ed8&#45;&gt;dir_d44c64559bbebec7f509842c48db8b23 -->
<g id="edge7" class="edge">
<title>dir_8456cc6ee1be6760a905e5b58e691ed8&#45;&gt;dir_d44c64559bbebec7f509842c48db8b23</title>
<path fill="none" stroke="#63b8ff" d="M192.14,-113.63C238.16,-103.4 340.24,-80.13 345,-74 352.37,-64.53 349.98,-57.92 345,-47 341.08,-38.41 334.03,-31.06 326.82,-25.25"/>
<polygon fill="#63b8ff" stroke="#63b8ff" points="328.59,-22.21 318.44,-19.16 324.47,-27.87 328.59,-22.21"/>
<g id="a_edge7&#45;headlabel"><a xlink:href="dir_000004_000002.html" target="_top" xlink:title="1">
<text text-anchor="middle" x="333.17" y="-19.53" font-family="Helvetica,sans-Serif" font-size="10.00" fill="#63b8ff">1</text>
</a>
</g>
</g>
<!-- dir_31ee9004dbbf6d739ca68ba82c1a202b&#45;&gt;dir_d44c64559bbebec7f509842c48db8b23 -->
<g id="edge8" class="edge">
<title>dir_31ee9004dbbf6d739ca68ba82c1a202b&#45;&gt;dir_d44c64559bbebec7f509842c48db8b23</title>
<path fill="none" stroke="#63b8ff" d="M303,-54.75C303,-47.8 303,-37.85 303,-29.13"/>
<polygon fill="#63b8ff" stroke="#63b8ff" points="306.5,-29.09 303,-19.09 299.5,-29.09 306.5,-29.09"/>
<g id="a_edge8&#45;headlabel"><a xlink:href="dir_000006_000002.html" target="_top" xlink:title="2">
<text text-anchor="middle" x="309.34" y="-30.18" font-family="Helvetica,sans-Serif" font-size="10.00" fill="#63b8ff">2</text>
</a>
</g>
</g>
<!-- dir_518ff1f339c4371cfcdfbdf9640bf38c -->
<g id="node8" class="node">
<title>dir_518ff1f339c4371cfcdfbdf9640bf38c</title>
<g id="a_node8"><a xlink:href="dir_518ff1f339c4371cfcdfbdf9640bf38c.html" target="_top" xlink:title="Telemetry">
<polygon fill="#a2b4d6" stroke="#404040" points="109.5,-129 44.5,-129 44.5,-110 109.5,-110 109.5,-129"/>
<text text-anchor="middle" x="77" y="-117" font-family="Helvetica,sans-Serif" font-size="10.00">Telemetry</text>
</a>
</g>
</g>
</g>
</svg>
