<?xml version="1.0" encoding="UTF-8" standalone="no"?>
<!DOCTYPE svg PUBLIC "-//W3C//DTD SVG 1.1//EN"
 "http://www.w3.org/Graphics/SVG/1.1/DTD/svg11.dtd">
<!-- Generated by graphviz version 2.43.0 (0)
 -->
<!-- Title: lib Pages: 1 -->
<svg width="276pt" height="114pt"
 viewBox="0.00 0.00 276.00 114.00" xmlns="http://www.w3.org/2000/svg" xmlns:xlink="http://www.w3.org/1999/xlink">
<g id="graph0" class="graph" transform="scale(1 1) rotate(0) translate(4 110)">
<title>lib</title>
<g id="clust1" class="cluster">
<title>clusterdir_97aefd0d527b934f1d99a682da8fe6a9</title>
<g id="a_clust1"><a xlink:href="dir_97aefd0d527b934f1d99a682da8fe6a9.html" target="_top">
<polygon fill="#edf0f7" stroke="#404040" stroke-width="2" points="8,-8 8,-98 260,-98 260,-8 8,-8"/>
</a>
</g>
</g>
<!-- dir_97aefd0d527b934f1d99a682da8fe6a9 -->
<g id="node1" class="node">
<title>dir_97aefd0d527b934f1d99a682da8fe6a9</title>
<text text-anchor="middle" x="199" y="-78" font-family="Helvetica,sans-Serif" font-size="10.00">lib</text>
</g>
<!-- dir_16b3056ea5a4b7dd24fe79c68bb88bcd -->
<g id="node2" class="node">
<title>dir_16b3056ea5a4b7dd24fe79c68bb88bcd</title>
<g id="a_node2"><a xlink:href="dir_16b3056ea5a4b7dd24fe79c68bb88bcd.html" target="_top" xlink:title="Debug">
<polygon fill="#a2b4d6" stroke="#404040" points="64,-35 16,-35 16,-16 64,-16 64,-35"/>
<text text-anchor="middle" x="40" y="-23" font-family="Helvetica,sans-Serif" font-size="10.00">Debug</text>
</a>
</g>
</g>
<!-- dir_8456cc6ee1be6760a905e5b58e691ed8 -->
<g id="node3" class="node">
<title>dir_8456cc6ee1be6760a905e5b58e691ed8</title>
<g id="a_node3"><a xlink:href="dir_8456cc6ee1be6760a905e5b58e691ed8.html" target="_top" xlink:title="Pedal">
<polygon fill="#a2b4d6" stroke="#404040" points="128,-90 84,-90 84,-71 128,-71 128,-90"/>
<text text-anchor="middle" x="106" y="-78" font-family="Helvetica,sans-Serif" font-size="10.00">Pedal</text>
</a>
</g>
</g>
<!-- dir_8456cc6ee1be6760a905e5b58e691ed8&#45;&gt;dir_16b3056ea5a4b7dd24fe79c68bb88bcd -->
<g id="edge1" class="edge">
<title>dir_8456cc6ee1be6760a905e5b58e691ed8&#45;&gt;dir_16b3056ea5a4b7dd24fe79c68bb88bcd</title>
<path fill="none" stroke="#63b8ff" d="M95.4,-70.98C85.54,-63.07 70.65,-51.11 58.78,-41.58"/>
<polygon fill="#63b8ff" stroke="#63b8ff" points="60.79,-38.7 50.8,-35.17 56.4,-44.16 60.79,-38.7"/>
<g id="a_edge1&#45;headlabel"><a xlink:href="dir_000002_000000.html" target="_top" xlink:title="1">
<text text-anchor="middle" x="65.37" y="-36.24" font-family="Helvetica,sans-Serif" font-size="10.00" fill="#63b8ff">1</text>
</a>
</g>
</g>
<!-- dir_39550fe255860117dab43fd68eb13187 -->
<g id="node4" class="node">
<title>dir_39550fe255860117dab43fd68eb13187</title>
<g id="a_node4"><a xlink:href="dir_39550fe255860117dab43fd68eb13187.html" target="_top" xlink:title="Queue">
<polygon fill="#a2b4d6" stroke="#404040" points="130,-35 82,-35 82,-16 130,-16 130,-35"/>
<text text-anchor="middle" x="106" y="-23" font-family="Helvetica,sans-Serif" font-size="10.00">Queue</text>
</a>
</g>
</g>
<!-- dir_8456cc6ee1be6760a905e5b58e691ed8&#45;&gt;dir_39550fe255860117dab43fd68eb13187 -->
<g id="edge3" class="edge">
<title>dir_8456cc6ee1be6760a905e5b58e691ed8&#45;&gt;dir_39550fe255860117dab43fd68eb13187</title>
<path fill="none" stroke="#63b8ff" d="M106,-70.75C106,-63.8 106,-53.85 106,-45.13"/>
<polygon fill="#63b8ff" stroke="#63b8ff" points="109.5,-45.09 106,-35.09 102.5,-45.09 109.5,-45.09"/>
<g id="a_edge3&#45;headlabel"><a xlink:href="dir_000002_000003.html" target="_top" xlink:title="1">
<text text-anchor="middle" x="112.34" y="-46.18" font-family="Helvetica,sans-Serif" font-size="10.00" fill="#63b8ff">1</text>
</a>
</g>
</g>
<!-- dir_1804e897983548f0d4b52ef7a93f1956 -->
<g id="node5" class="node">
<title>dir_1804e897983548f0d4b52ef7a93f1956</title>
<g id="a_node5"><a xlink:href="dir_1804e897983548f0d4b52ef7a93f1956.html" target="_top" xlink:title="Signal_Processing">
<polygon fill="#a2b4d6" stroke="#404040" points="252,-35 148,-35 148,-16 252,-16 252,-35"/>
<text text-anchor="middle" x="200" y="-23" font-family="Helvetica,sans-Serif" font-size="10.00">Signal_Processing</text>
</a>
</g>
</g>
<!-- dir_8456cc6ee1be6760a905e5b58e691ed8&#45;&gt;dir_1804e897983548f0d4b52ef7a93f1956 -->
<g id="edge2" class="edge">
<title>dir_8456cc6ee1be6760a905e5b58e691ed8&#45;&gt;dir_1804e897983548f0d4b52ef7a93f1956</title>
<path fill="none" stroke="#63b8ff" d="M121.1,-70.98C135.82,-62.69 158.42,-49.94 175.67,-40.22"/>
<polygon fill="#63b8ff" stroke="#63b8ff" points="177.63,-43.13 184.62,-35.17 174.19,-37.03 177.63,-43.13"/>
<g id="a_edge2&#45;headlabel"><a xlink:href="dir_000002_000004.html" target="_top" xlink:title="1">
<text text-anchor="middle" x="175.89" y="-44.87" font-family="Helvetica,sans-Serif" font-size="10.00" fill="#63b8ff">1</text>
</a>
</g>
</g>
</g>
</svg>
