<?xml version="1.0" encoding="UTF-8" standalone="no"?>
<!DOCTYPE svg PUBLIC "-//W3C//DTD SVG 1.1//EN"
 "http://www.w3.org/Graphics/SVG/1.1/DTD/svg11.dtd">
<!-- Generated by graphviz version 2.43.0 (0)
 -->
<!-- Title: vehicle_control_unit/lib Pages: 1 -->
<svg width="424pt" height="196pt"
 viewBox="0.00 0.00 424.00 196.00" xmlns="http://www.w3.org/2000/svg" xmlns:xlink="http://www.w3.org/1999/xlink">
<g id="graph0" class="graph" transform="scale(1 1) rotate(0) translate(4 192)">
<title>vehicle_control_unit/lib</title>
<g id="clust1" class="cluster">
<title>clusterdir_912669a89c5ad31930a81ceabf9e60c2</title>
<g id="a_clust1"><a xlink:href="dir_912669a89c5ad31930a81ceabf9e60c2.html" target="_top" xlink:title="vehicle_control_unit">
<polygon fill="#edf0f7" stroke="#404040" stroke-dasharray="5,2" points="8,-8 8,-180 408,-180 408,-8 8,-8"/>
<text text-anchor="middle" x="208" y="-168" font-family="Helvetica,sans-Serif" font-size="10.00">vehicle_control_unit</text>
</a>
</g>
</g>
<g id="clust2" class="cluster">
<title>clusterdir_52d0e02f24663f586f5c4084165e2919</title>
<g id="a_clust2"><a xlink:href="dir_52d0e02f24663f586f5c4084165e2919.html" target="_top" xlink:title="Contains all the libraries. Each library is in its own folder of the same name.">
<polygon fill="#edf0f7" stroke="#404040" stroke-width="2" points="16,-63 16,-153 348,-153 348,-63 16,-63"/>
</a>
</g>
</g>
<!-- dir_4534eaa201cb28a3db60a9c0c8fd114c -->
<g id="node1" class="node">
<title>dir_4534eaa201cb28a3db60a9c0c8fd114c</title>
<g id="a_node1"><a xlink:href="dir_4534eaa201cb28a3db60a9c0c8fd114c.html" target="_top" xlink:title="Contains all header&#45;only files.">
<polygon fill="#a2b4d6" stroke="#404040" points="385,-35 333,-35 333,-16 385,-16 385,-35"/>
<text text-anchor="middle" x="359" y="-23" font-family="Helvetica,sans-Serif" font-size="10.00">include</text>
</a>
</g>
</g>
<!-- dir_52d0e02f24663f586f5c4084165e2919 -->
<g id="node2" class="node">
<title>dir_52d0e02f24663f586f5c4084165e2919</title>
<text text-anchor="middle" x="325" y="-133" font-family="Helvetica,sans-Serif" font-size="10.00">lib</text>
</g>
<!-- dir_6103a1d7ef7dbeb97364d91c2c7a8c35 -->
<g id="node3" class="node">
<title>dir_6103a1d7ef7dbeb97364d91c2c7a8c35</title>
<g id="a_node3"><a xlink:href="dir_6103a1d7ef7dbeb97364d91c2c7a8c35.html" target="_top" xlink:title="The BMS library contains the BMS class for managing the Accumulator (Kclear BMS) via CAN bus,...">
<polygon fill="#a2b4d6" stroke="#404040" points="209,-145 171,-145 171,-126 209,-126 209,-145"/>
<text text-anchor="middle" x="190" y="-133" font-family="Helvetica,sans-Serif" font-size="10.00">BMS</text>
</a>
</g>
</g>
<!-- dir_6103a1d7ef7dbeb97364d91c2c7a8c35&#45;&gt;dir_4534eaa201cb28a3db60a9c0c8fd114c -->
<g id="edge2" class="edge">
<title>dir_6103a1d7ef7dbeb97364d91c2c7a8c35&#45;&gt;dir_4534eaa201cb28a3db60a9c0c8fd114c</title>
<path fill="none" stroke="#63b8ff" d="M209.31,-128.72C212.54,-127.79 215.86,-126.85 219,-126 283.1,-108.66 323.09,-142.3 364,-90 373.88,-77.37 370.96,-58.67 366.57,-44.83"/>
<polygon fill="#63b8ff" stroke="#63b8ff" points="369.84,-43.57 363.12,-35.38 363.26,-45.97 369.84,-43.57"/>
<g id="a_edge2&#45;headlabel"><a xlink:href="dir_000000_000002.html" target="_top" xlink:title="3">
<text text-anchor="middle" x="373.74" y="-43.47" font-family="Helvetica,sans-Serif" font-size="10.00" fill="#63b8ff">3</text>
</a>
</g>
</g>
<!-- dir_f6d9364198a163704575b5bbec1250d9 -->
<g id="node4" class="node">
<title>dir_f6d9364198a163704575b5bbec1250d9</title>
<g id="a_node4"><a xlink:href="dir_f6d9364198a163704575b5bbec1250d9.html" target="_top" xlink:title="The Debug library contains debugging macros and functions for serial and CAN output,...">
<polygon fill="#a2b4d6" stroke="#404040" points="256,-90 208,-90 208,-71 256,-71 256,-90"/>
<text text-anchor="middle" x="232" y="-78" font-family="Helvetica,sans-Serif" font-size="10.00">Debug</text>
</a>
</g>
</g>
<!-- dir_6103a1d7ef7dbeb97364d91c2c7a8c35&#45;&gt;dir_f6d9364198a163704575b5bbec1250d9 -->
<g id="edge3" class="edge">
<title>dir_6103a1d7ef7dbeb97364d91c2c7a8c35&#45;&gt;dir_f6d9364198a163704575b5bbec1250d9</title>
<path fill="none" stroke="#63b8ff" d="M196.94,-125.75C202.87,-118.26 211.57,-107.28 218.82,-98.13"/>
<polygon fill="#63b8ff" stroke="#63b8ff" points="221.73,-100.1 225.19,-90.09 216.24,-95.75 221.73,-100.1"/>
<g id="a_edge3&#45;headlabel"><a xlink:href="dir_000000_000001.html" target="_top" xlink:title="1">
<text text-anchor="middle" x="221.72" y="-102.18" font-family="Helvetica,sans-Serif" font-size="10.00" fill="#63b8ff">1</text>
</a>
</g>
</g>
<!-- dir_3a8c15631fc924f005cf6fa85b529cf5 -->
<g id="node7" class="node">
<title>dir_3a8c15631fc924f005cf6fa85b529cf5</title>
<g id="a_node7"><a xlink:href="dir_3a8c15631fc924f005cf6fa85b529cf5.html" target="_top" xlink:title="The Scheduler library contains the Scheduler class template, which manages the scheduling of tasks fo...">
<polygon fill="#a2b4d6" stroke="#404040" points="339.5,-90 274.5,-90 274.5,-71 339.5,-71 339.5,-90"/>
<text text-anchor="middle" x="307" y="-78" font-family="Helvetica,sans-Serif" font-size="10.00">Scheduler</text>
</a>
</g>
</g>
<!-- dir_6103a1d7ef7dbeb97364d91c2c7a8c35&#45;&gt;dir_3a8c15631fc924f005cf6fa85b529cf5 -->
<g id="edge1" class="edge">
<title>dir_6103a1d7ef7dbeb97364d91c2c7a8c35&#45;&gt;dir_3a8c15631fc924f005cf6fa85b529cf5</title>
<path fill="none" stroke="#63b8ff" d="M208.8,-125.98C227.62,-117.46 256.82,-104.23 278.5,-94.41"/>
<polygon fill="#63b8ff" stroke="#63b8ff" points="280.2,-97.48 287.86,-90.17 277.31,-91.11 280.2,-97.48"/>
<g id="a_edge1&#45;headlabel"><a xlink:href="dir_000000_000006.html" target="_top" xlink:title="1">
<text text-anchor="middle" x="278.09" y="-99.05" font-family="Helvetica,sans-Serif" font-size="10.00" fill="#63b8ff">1</text>
</a>
</g>
</g>
<!-- dir_f6d9364198a163704575b5bbec1250d9&#45;&gt;dir_4534eaa201cb28a3db60a9c0c8fd114c -->
<g id="edge4" class="edge">
<title>dir_f6d9364198a163704575b5bbec1250d9&#45;&gt;dir_4534eaa201cb28a3db60a9c0c8fd114c</title>
<path fill="none" stroke="#63b8ff" d="M249.18,-70.84C254.52,-68.23 260.47,-65.42 266,-63 285.84,-54.31 308.45,-45.41 326.41,-38.58"/>
<polygon fill="#63b8ff" stroke="#63b8ff" points="327.75,-41.82 335.86,-35.01 325.27,-35.27 327.75,-41.82"/>
<g id="a_edge4&#45;headlabel"><a xlink:href="dir_000001_000002.html" target="_top" xlink:title="4">
<text text-anchor="middle" x="325.39" y="-43.24" font-family="Helvetica,sans-Serif" font-size="10.00" fill="#63b8ff">4</text>
</a>
</g>
</g>
<!-- dir_d365d50cf827582a435b82b5ddb7202e -->
<g id="node5" class="node">
<title>dir_d365d50cf827582a435b82b5ddb7202e</title>
<g id="a_node5"><a xlink:href="dir_d365d50cf827582a435b82b5ddb7202e.html" target="_top" xlink:title="The Pedal library contains the Pedal class to manage throttle and brake pedal inputs,...">
<polygon fill="#a2b4d6" stroke="#404040" points="153,-145 109,-145 109,-126 153,-126 153,-145"/>
<text text-anchor="middle" x="131" y="-133" font-family="Helvetica,sans-Serif" font-size="10.00">Pedal</text>
</a>
</g>
</g>
<!-- dir_d365d50cf827582a435b82b5ddb7202e&#45;&gt;dir_4534eaa201cb28a3db60a9c0c8fd114c -->
<g id="edge5" class="edge">
<title>dir_d365d50cf827582a435b82b5ddb7202e&#45;&gt;dir_4534eaa201cb28a3db60a9c0c8fd114c</title>
<path fill="none" stroke="#63b8ff" d="M153.3,-128.16C156.22,-127.4 159.17,-126.66 162,-126 244.43,-106.8 290.18,-150.86 349,-90 360.26,-78.35 361.97,-59.49 361.33,-45.34"/>
<polygon fill="#63b8ff" stroke="#63b8ff" points="364.81,-44.9 360.46,-35.24 357.83,-45.5 364.81,-44.9"/>
<g id="a_edge5&#45;headlabel"><a xlink:href="dir_000004_000002.html" target="_top" xlink:title="6">
<text text-anchor="middle" x="367.94" y="-45.74" font-family="Helvetica,sans-Serif" font-size="10.00" fill="#63b8ff">6</text>
</a>
</g>
</g>
<!-- dir_d365d50cf827582a435b82b5ddb7202e&#45;&gt;dir_f6d9364198a163704575b5bbec1250d9 -->
<g id="edge8" class="edge">
<title>dir_d365d50cf827582a435b82b5ddb7202e&#45;&gt;dir_f6d9364198a163704575b5bbec1250d9</title>
<path fill="none" stroke="#63b8ff" d="M147.23,-125.98C163.18,-117.61 187.78,-104.7 206.38,-94.95"/>
<polygon fill="#63b8ff" stroke="#63b8ff" points="208.25,-97.92 215.48,-90.17 205,-91.72 208.25,-97.92"/>
<g id="a_edge8&#45;headlabel"><a xlink:href="dir_000004_000001.html" target="_top" xlink:title="1">
<text text-anchor="middle" x="206.39" y="-99.6" font-family="Helvetica,sans-Serif" font-size="10.00" fill="#63b8ff">1</text>
</a>
</g>
</g>
<!-- dir_ab3e3d01e9c639712f3550a12fd2ea16 -->
<g id="node6" class="node">
<title>dir_ab3e3d01e9c639712f3550a12fd2ea16</title>
<g id="a_node6"><a xlink:href="dir_ab3e3d01e9c639712f3550a12fd2ea16.html" target="_top" xlink:title="The Queue library contains a simple RingBuffer (circular buffer) template class, used for buffering A...">
<polygon fill="#a2b4d6" stroke="#404040" points="72,-90 24,-90 24,-71 72,-71 72,-90"/>
<text text-anchor="middle" x="48" y="-78" font-family="Helvetica,sans-Serif" font-size="10.00">Queue</text>
</a>
</g>
</g>
<!-- dir_d365d50cf827582a435b82b5ddb7202e&#45;&gt;dir_ab3e3d01e9c639712f3550a12fd2ea16 -->
<g id="edge6" class="edge">
<title>dir_d365d50cf827582a435b82b5ddb7202e&#45;&gt;dir_ab3e3d01e9c639712f3550a12fd2ea16</title>
<path fill="none" stroke="#63b8ff" d="M117.66,-125.98C104.91,-117.84 85.45,-105.41 70.33,-95.76"/>
<polygon fill="#63b8ff" stroke="#63b8ff" points="71.89,-92.6 61.58,-90.17 68.12,-98.5 71.89,-92.6"/>
<g id="a_edge6&#45;headlabel"><a xlink:href="dir_000004_000005.html" target="_top" xlink:title="1">
<text text-anchor="middle" x="76.45" y="-89.64" font-family="Helvetica,sans-Serif" font-size="10.00" fill="#63b8ff">1</text>
</a>
</g>
</g>
<!-- dir_d9fc7c82d84c252f7e0bb1ae80116e2a -->
<g id="node8" class="node">
<title>dir_d9fc7c82d84c252f7e0bb1ae80116e2a</title>
<g id="a_node8"><a xlink:href="dir_d9fc7c82d84c252f7e0bb1ae80116e2a.html" target="_top" xlink:title="The SignalProcessing library contains signal processing functions, including the AverageFilter and Ex...">
<polygon fill="#a2b4d6" stroke="#404040" points="189.5,-90 90.5,-90 90.5,-71 189.5,-71 189.5,-90"/>
<text text-anchor="middle" x="140" y="-78" font-family="Helvetica,sans-Serif" font-size="10.00">SignalProcessing</text>
</a>
</g>
</g>
<!-- dir_d365d50cf827582a435b82b5ddb7202e&#45;&gt;dir_d9fc7c82d84c252f7e0bb1ae80116e2a -->
<g id="edge7" class="edge">
<title>dir_d365d50cf827582a435b82b5ddb7202e&#45;&gt;dir_d9fc7c82d84c252f7e0bb1ae80116e2a</title>
<path fill="none" stroke="#63b8ff" d="M132.49,-125.75C133.67,-118.8 135.36,-108.85 136.84,-100.13"/>
<polygon fill="#63b8ff" stroke="#63b8ff" points="140.32,-100.53 138.54,-90.09 133.42,-99.36 140.32,-100.53"/>
<g id="a_edge7&#45;headlabel"><a xlink:href="dir_000004_000007.html" target="_top" xlink:title="2">
<text text-anchor="middle" x="142.52" y="-102.05" font-family="Helvetica,sans-Serif" font-size="10.00" fill="#63b8ff">2</text>
</a>
</g>
</g>
<!-- dir_3a8c15631fc924f005cf6fa85b529cf5&#45;&gt;dir_4534eaa201cb28a3db60a9c0c8fd114c -->
<g id="edge9" class="edge">
<title>dir_3a8c15631fc924f005cf6fa85b529cf5&#45;&gt;dir_4534eaa201cb28a3db60a9c0c8fd114c</title>
<path fill="none" stroke="#63b8ff" d="M315.59,-70.75C323.16,-63.03 334.38,-51.6 343.51,-42.28"/>
<polygon fill="#63b8ff" stroke="#63b8ff" points="346.07,-44.68 350.57,-35.09 341.07,-39.78 346.07,-44.68"/>
<g id="a_edge9&#45;headlabel"><a xlink:href="dir_000006_000002.html" target="_top" xlink:title="2">
<text text-anchor="middle" x="345.58" y="-46.73" font-family="Helvetica,sans-Serif" font-size="10.00" fill="#63b8ff">2</text>
</a>
</g>
</g>
<!-- dir_fdc746eecd608370dba1a871a51f590d -->
<g id="node9" class="node">
<title>dir_fdc746eecd608370dba1a871a51f590d</title>
<g id="a_node9"><a xlink:href="dir_fdc746eecd608370dba1a871a51f590d.html" target="_top" xlink:title="The Telemetry library contains the Telemetry class for managing telemetry data transmission over CAN ...">
<polygon fill="#a2b4d6" stroke="#404040" points="292.5,-145 227.5,-145 227.5,-126 292.5,-126 292.5,-145"/>
<text text-anchor="middle" x="260" y="-133" font-family="Helvetica,sans-Serif" font-size="10.00">Telemetry</text>
</a>
</g>
</g>
<!-- dir_fdc746eecd608370dba1a871a51f590d&#45;&gt;dir_4534eaa201cb28a3db60a9c0c8fd114c -->
<g id="edge10" class="edge">
<title>dir_fdc746eecd608370dba1a871a51f590d&#45;&gt;dir_4534eaa201cb28a3db60a9c0c8fd114c</title>
<path fill="none" stroke="#63b8ff" d="M292.65,-127.26C325.64,-119.2 373.24,-105.29 384,-90 394.07,-75.69 384.2,-56.76 374.05,-43.31"/>
<polygon fill="#63b8ff" stroke="#63b8ff" points="376.59,-40.88 367.55,-35.36 371.17,-45.31 376.59,-40.88"/>
<g id="a_edge10&#45;headlabel"><a xlink:href="dir_000009_000002.html" target="_top" xlink:title="1">
<text text-anchor="middle" x="381.06" y="-39.36" font-family="Helvetica,sans-Serif" font-size="10.00" fill="#63b8ff">1</text>
</a>
</g>
</g>
</g>
</svg>
