<?xml version="1.0" encoding="UTF-8" standalone="no"?>
<!DOCTYPE svg PUBLIC "-//W3C//DTD SVG 1.1//EN"
 "http://www.w3.org/Graphics/SVG/1.1/DTD/svg11.dtd">
<!-- Generated by graphviz version 2.43.0 (0)
 -->
<!-- Title: ee_sw_vcu_2025 Pages: 1 -->
<svg width="189pt" height="169pt"
 viewBox="0.00 0.00 189.00 169.00" xmlns="http://www.w3.org/2000/svg" xmlns:xlink="http://www.w3.org/1999/xlink">
<g id="graph0" class="graph" transform="scale(1 1) rotate(0) translate(4 165)">
<title>ee_sw_vcu_2025</title>
<g id="clust1" class="cluster">
<title>clusterdir_878c97e183bae1c6712242243e36474e</title>
<g id="a_clust1"><a xlink:href="dir_878c97e183bae1c6712242243e36474e.html" target="_top">
<polygon fill="#edf0f7" stroke="#404040" stroke-width="2" points="8,-8 8,-153 173,-153 173,-8 8,-8"/>
</a>
</g>
</g>
<!-- dir_878c97e183bae1c6712242243e36474e -->
<g id="node1" class="node">
<title>dir_878c97e183bae1c6712242243e36474e</title>
<text text-anchor="middle" x="115" y="-133" font-family="Helvetica,sans-Serif" font-size="10.00">ee_sw_vcu_2025</text>
</g>
<!-- dir_4c0538ce41e9062460ce6922c8b17483 -->
<g id="node2" class="node">
<title>dir_4c0538ce41e9062460ce6922c8b17483</title>
<g id="a_node2"><a xlink:href="dir_4c0538ce41e9062460ce6922c8b17483.html" target="_top" xlink:title="Contains all header&#45;only files.">
<polygon fill="#a2b4d6" stroke="#404040" points="76,-35 24,-35 24,-16 76,-16 76,-35"/>
<text text-anchor="middle" x="50" y="-23" font-family="Helvetica,sans-Serif" font-size="10.00">include</text>
</a>
</g>
</g>
<!-- dir_d6c487d3697a32a5301425d1373bccad -->
<g id="node3" class="node">
<title>dir_d6c487d3697a32a5301425d1373bccad</title>
<g id="a_node3"><a xlink:href="dir_d6c487d3697a32a5301425d1373bccad.html" target="_top" xlink:title="Contains all the libraries. Each library is in its own folder of the same name.">
<polygon fill="#a2b4d6" stroke="#404040" points="72.5,-90 43.5,-90 43.5,-71 72.5,-71 72.5,-90"/>
<text text-anchor="middle" x="58" y="-78" font-family="Helvetica,sans-Serif" font-size="10.00">lib</text>
</a>
</g>
</g>
<!-- dir_d6c487d3697a32a5301425d1373bccad&#45;&gt;dir_4c0538ce41e9062460ce6922c8b17483 -->
<g id="edge1" class="edge">
<title>dir_d6c487d3697a32a5301425d1373bccad&#45;&gt;dir_4c0538ce41e9062460ce6922c8b17483</title>
<path fill="none" stroke="#63b8ff" d="M56.68,-70.75C55.63,-63.8 54.13,-53.85 52.81,-45.13"/>
<polygon fill="#63b8ff" stroke="#63b8ff" points="56.25,-44.45 51.3,-35.09 49.33,-45.5 56.25,-44.45"/>
<g id="a_edge1&#45;headlabel"><a xlink:href="dir_000004_000003.html" target="_top" xlink:title="16">
<text text-anchor="middle" x="59.59" y="-45.09" font-family="Helvetica,sans-Serif" font-size="10.00" fill="#63b8ff">16</text>
</a>
</g>
</g>
<!-- dir_867d3a977e5559515914a08a00d25673 -->
<g id="node4" class="node">
<title>dir_867d3a977e5559515914a08a00d25673</title>
<g id="a_node4"><a xlink:href="dir_867d3a977e5559515914a08a00d25673.html" target="_top" xlink:title="Contains the main.cpp file, the main file of the program.">
<polygon fill="#a2b4d6" stroke="#404040" points="47.5,-145 16.5,-145 16.5,-126 47.5,-126 47.5,-145"/>
<text text-anchor="middle" x="32" y="-133" font-family="Helvetica,sans-Serif" font-size="10.00">src</text>
</a>
</g>
</g>
<!-- dir_867d3a977e5559515914a08a00d25673&#45;&gt;dir_4c0538ce41e9062460ce6922c8b17483 -->
<g id="edge2" class="edge">
<title>dir_867d3a977e5559515914a08a00d25673&#45;&gt;dir_4c0538ce41e9062460ce6922c8b17483</title>
<path fill="none" stroke="#63b8ff" d="M31.65,-125.78C31.33,-113.46 31.36,-90.31 35,-71 36.68,-62.09 39.73,-52.52 42.65,-44.54"/>
<polygon fill="#63b8ff" stroke="#63b8ff" points="45.93,-45.76 46.27,-35.17 39.4,-43.24 45.93,-45.76"/>
<g id="a_edge2&#45;headlabel"><a xlink:href="dir_000009_000003.html" target="_top" xlink:title="3">
<text text-anchor="middle" x="47.28" y="-47.64" font-family="Helvetica,sans-Serif" font-size="10.00" fill="#63b8ff">3</text>
</a>
</g>
</g>
<!-- dir_867d3a977e5559515914a08a00d25673&#45;&gt;dir_d6c487d3697a32a5301425d1373bccad -->
<g id="edge3" class="edge">
<title>dir_867d3a977e5559515914a08a00d25673&#45;&gt;dir_d6c487d3697a32a5301425d1373bccad</title>
<path fill="none" stroke="#63b8ff" d="M36.29,-125.75C39.81,-118.57 44.91,-108.18 49.28,-99.27"/>
<polygon fill="#63b8ff" stroke="#63b8ff" points="52.52,-100.61 53.79,-90.09 46.24,-97.53 52.52,-100.61"/>
<g id="a_edge3&#45;headlabel"><a xlink:href="dir_000009_000004.html" target="_top" xlink:title="5">
<text text-anchor="middle" x="53.49" y="-102.59" font-family="Helvetica,sans-Serif" font-size="10.00" fill="#63b8ff">5</text>
</a>
</g>
</g>
</g>
</svg>
