<?xml version="1.0" encoding="UTF-8" standalone="no"?>
<!DOCTYPE svg PUBLIC "-//W3C//DTD SVG 1.1//EN"
 "http://www.w3.org/Graphics/SVG/1.1/DTD/svg11.dtd">
<!-- Generated by graphviz version 2.43.0 (0)
 -->
<!-- Title: include/Enums.hpp Pages: 1 -->
<svg width="1259pt" height="192pt"
 viewBox="0.00 0.00 1259.00 192.00" xmlns="http://www.w3.org/2000/svg" xmlns:xlink="http://www.w3.org/1999/xlink">
<g id="graph0" class="graph" transform="scale(1 1) rotate(0) translate(4 188)">
<title>include/Enums.hpp</title>
<!-- Node1 -->
<g id="node1" class="node">
<title>Node1</title>
<g id="a_node1"><a xlink:title="Enumeration definitions for the VCU.">
<polygon fill="#999999" stroke="#666666" points="769.5,-184 660.5,-184 660.5,-165 769.5,-165 769.5,-184"/>
<text text-anchor="middle" x="715" y="-172" font-family="Helvetica,sans-Serif" font-size="10.00">include/Enums.hpp</text>
</a>
</g>
</g>
<!-- Node2 -->
<g id="node2" class="node">
<title>Node2</title>
<g id="a_node2"><a xlink:href="CarState_8hpp.html" target="_top" xlink:title="Definition of the CarState structure representing the state of the car.">
<polygon fill="white" stroke="#666666" points="423,-129 305,-129 305,-110 423,-110 423,-129"/>
<text text-anchor="middle" x="364" y="-117" font-family="Helvetica,sans-Serif" font-size="10.00">include/CarState.hpp</text>
</a>
</g>
</g>
<!-- Node1&#45;&gt;Node2 -->
<g id="edge1" class="edge">
<title>Node1&#45;&gt;Node2</title>
<path fill="none" stroke="#63b8ff" d="M649.89,-163.67C583.99,-153.72 483.12,-138.49 420.49,-129.03"/>
<polygon fill="#63b8ff" stroke="#63b8ff" points="649.75,-167.19 660.16,-165.22 650.79,-160.26 649.75,-167.19"/>
</g>
<!-- Node3 -->
<g id="node3" class="node">
<title>Node3</title>
<g id="a_node3"><a xlink:href="BMS_8cpp.html" target="_top" xlink:title="Implementation of the BMS class for managing the Accumulator (Kclear BMS) via CAN bus.">
<polygon fill="white" stroke="#666666" points="98,-19 0,-19 0,0 98,0 98,-19"/>
<text text-anchor="middle" x="49" y="-7" font-family="Helvetica,sans-Serif" font-size="10.00">lib/BMS/BMS.cpp</text>
</a>
</g>
</g>
<!-- Node1&#45;&gt;Node3 -->
<g id="edge14" class="edge">
<title>Node1&#45;&gt;Node3</title>
<path fill="none" stroke="#63b8ff" d="M649.92,-171.43C555.56,-167.57 375.57,-156.93 225,-129 136.88,-112.65 85.04,-145.49 31,-74 18.42,-57.36 32.83,-32.29 42.21,-19.18"/>
<polygon fill="#63b8ff" stroke="#63b8ff" points="650.04,-174.94 660.17,-171.84 650.31,-167.94 650.04,-174.94"/>
</g>
<!-- Node5 -->
<g id="node5" class="node">
<title>Node5</title>
<g id="a_node5"><a xlink:href="main_8cpp.html" target="_top" xlink:title="Main VCU program entry point.">
<polygon fill="white" stroke="#666666" points="481.5,-19 402.5,-19 402.5,0 481.5,0 481.5,-19"/>
<text text-anchor="middle" x="442" y="-7" font-family="Helvetica,sans-Serif" font-size="10.00">src/main.cpp</text>
</a>
</g>
</g>
<!-- Node1&#45;&gt;Node5 -->
<g id="edge30" class="edge">
<title>Node1&#45;&gt;Node5</title>
<path fill="none" stroke="#63b8ff" d="M688.64,-160.23C671.74,-151.59 649.41,-139.93 630,-129 562.43,-90.94 485.07,-39.6 454.95,-19.29"/>
<polygon fill="#63b8ff" stroke="#63b8ff" points="687.4,-163.52 697.9,-164.94 690.57,-157.28 687.4,-163.52"/>
</g>
<!-- Node10 -->
<g id="node10" class="node">
<title>Node10</title>
<g id="a_node10"><a xlink:href="Debug_8hpp.html" target="_top" xlink:title="Debugging macros and functions for serial and CAN output.">
<polygon fill="white" stroke="#666666" points="169.5,-74 50.5,-74 50.5,-55 169.5,-55 169.5,-74"/>
<text text-anchor="middle" x="110" y="-62" font-family="Helvetica,sans-Serif" font-size="10.00">lib/Debug/Debug.hpp</text>
</a>
</g>
</g>
<!-- Node1&#45;&gt;Node10 -->
<g id="edge15" class="edge">
<title>Node1&#45;&gt;Node10</title>
<path fill="none" stroke="#63b8ff" d="M650.44,-171.11C567.54,-167.03 419.6,-156.3 296,-129 234.03,-115.31 163.92,-87.99 130.21,-74.08"/>
<polygon fill="#63b8ff" stroke="#63b8ff" points="650.32,-174.61 660.47,-171.59 650.65,-167.62 650.32,-174.61"/>
</g>
<!-- Node11 -->
<g id="node11" class="node">
<title>Node11</title>
<g id="a_node11"><a xlink:href="Debug__can_8hpp.html" target="_top" xlink:title="Declaration of the Debug_CAN namespace for CAN debugging functions.">
<polygon fill="white" stroke="#666666" points="988.5,-129 847.5,-129 847.5,-110 988.5,-110 988.5,-129"/>
<text text-anchor="middle" x="918" y="-117" font-family="Helvetica,sans-Serif" font-size="10.00">lib/Debug/Debug_can.hpp</text>
</a>
</g>
</g>
<!-- Node1&#45;&gt;Node11 -->
<g id="edge19" class="edge">
<title>Node1&#45;&gt;Node11</title>
<path fill="none" stroke="#63b8ff" d="M757.37,-162.44C795.37,-152.52 850.36,-138.16 885.13,-129.08"/>
<polygon fill="#63b8ff" stroke="#63b8ff" points="756.41,-159.07 747.62,-164.98 758.18,-165.84 756.41,-159.07"/>
</g>
<!-- Node13 -->
<g id="node13" class="node">
<title>Node13</title>
<g id="a_node13"><a xlink:href="Debug__serial_8cpp.html" target="_top" xlink:title="Implementation of the Debug_Serial namespace for serial debugging functions.">
<polygon fill="white" stroke="#666666" points="1251,-74 1101,-74 1101,-55 1251,-55 1251,-74"/>
<text text-anchor="middle" x="1176" y="-62" font-family="Helvetica,sans-Serif" font-size="10.00">lib/Debug/Debug_serial.cpp</text>
</a>
</g>
</g>
<!-- Node1&#45;&gt;Node13 -->
<g id="edge21" class="edge">
<title>Node1&#45;&gt;Node13</title>
<path fill="none" stroke="#63b8ff" d="M779.6,-171.43C897.6,-167.04 1138.48,-154.97 1166,-129 1180.93,-114.91 1179.57,-88.27 1177.62,-74.4"/>
<polygon fill="#63b8ff" stroke="#63b8ff" points="779.46,-167.94 769.6,-171.8 779.72,-174.93 779.46,-167.94"/>
</g>
<!-- Node14 -->
<g id="node14" class="node">
<title>Node14</title>
<g id="a_node14"><a xlink:href="Debug__serial_8hpp.html" target="_top" xlink:title="Declaration of the Debug_Serial namespace for serial debugging functions.">
<polygon fill="white" stroke="#666666" points="1157.5,-129 1006.5,-129 1006.5,-110 1157.5,-110 1157.5,-129"/>
<text text-anchor="middle" x="1082" y="-117" font-family="Helvetica,sans-Serif" font-size="10.00">lib/Debug/Debug_serial.hpp</text>
</a>
</g>
</g>
<!-- Node1&#45;&gt;Node14 -->
<g id="edge22" class="edge">
<title>Node1&#45;&gt;Node14</title>
<path fill="none" stroke="#63b8ff" d="M779.82,-164.14C848.61,-154.2 956.36,-138.64 1022.89,-129.04"/>
<polygon fill="#63b8ff" stroke="#63b8ff" points="778.94,-160.73 769.55,-165.62 779.94,-167.66 778.94,-160.73"/>
</g>
<!-- Node15 -->
<g id="node15" class="node">
<title>Node15</title>
<g id="a_node15"><a xlink:href="Scheduler_8hpp.html" target="_top" xlink:title="Declaration of the Scheduler class template, for scheduling tasks on multiple MCP2515 instances.">
<polygon fill="white" stroke="#666666" points="790.5,-129 639.5,-129 639.5,-110 790.5,-110 790.5,-129"/>
<text text-anchor="middle" x="715" y="-117" font-family="Helvetica,sans-Serif" font-size="10.00">lib/Scheduler/Scheduler.hpp</text>
</a>
</g>
</g>
<!-- Node1&#45;&gt;Node15 -->
<g id="edge24" class="edge">
<title>Node1&#45;&gt;Node15</title>
<path fill="none" stroke="#63b8ff" d="M715,-154.66C715,-145.93 715,-135.99 715,-129.09"/>
<polygon fill="#63b8ff" stroke="#63b8ff" points="711.5,-154.75 715,-164.75 718.5,-154.75 711.5,-154.75"/>
</g>
<!-- Node16 -->
<g id="node16" class="node">
<title>Node16</title>
<g id="a_node16"><a xlink:href="Scheduler_8tpp.html" target="_top" xlink:title="Implementation of the Scheduler class template.">
<polygon fill="white" stroke="#666666" points="904.5,-74 755.5,-74 755.5,-55 904.5,-55 904.5,-74"/>
<text text-anchor="middle" x="830" y="-62" font-family="Helvetica,sans-Serif" font-size="10.00">lib/Scheduler/Scheduler.tpp</text>
</a>
</g>
</g>
<!-- Node1&#45;&gt;Node16 -->
<g id="edge29" class="edge">
<title>Node1&#45;&gt;Node16</title>
<path fill="none" stroke="#63b8ff" d="M749.81,-160.98C766.33,-153.67 785.38,-143.08 799,-129 814.53,-112.95 823.64,-87.63 827.62,-74.33"/>
<polygon fill="#63b8ff" stroke="#63b8ff" points="748.31,-157.81 740.44,-164.91 751.02,-164.27 748.31,-157.81"/>
</g>
<!-- Node2&#45;&gt;Node3 -->
<g id="edge2" class="edge">
<title>Node2&#45;&gt;Node3</title>
<path fill="none" stroke="#63b8ff" d="M294.61,-119.14C209.7,-118.27 73.21,-110.95 41,-74 27.57,-58.59 37.58,-32.53 44.27,-19.09"/>
<polygon fill="#63b8ff" stroke="#63b8ff" points="294.67,-122.64 304.7,-119.22 294.73,-115.64 294.67,-122.64"/>
</g>
<!-- Node4 -->
<g id="node4" class="node">
<title>Node4</title>
<g id="a_node4"><a xlink:href="BMS_8hpp.html" target="_top" xlink:title="Declaration of the BMS class for managing the Accumulator (Kclear BMS) via CAN bus.">
<polygon fill="white" stroke="#666666" points="491.5,-74 392.5,-74 392.5,-55 491.5,-55 491.5,-74"/>
<text text-anchor="middle" x="442" y="-62" font-family="Helvetica,sans-Serif" font-size="10.00">lib/BMS/BMS.hpp</text>
</a>
</g>
</g>
<!-- Node2&#45;&gt;Node4 -->
<g id="edge3" class="edge">
<title>Node2&#45;&gt;Node4</title>
<path fill="none" stroke="#63b8ff" d="M385.12,-104.15C399.21,-94.57 417.29,-82.29 429.24,-74.17"/>
<polygon fill="#63b8ff" stroke="#63b8ff" points="382.84,-101.47 376.53,-109.98 386.77,-107.26 382.84,-101.47"/>
</g>
<!-- Node2&#45;&gt;Node5 -->
<g id="edge13" class="edge">
<title>Node2&#45;&gt;Node5</title>
<path fill="none" stroke="#63b8ff" d="M366.39,-99.97C368.83,-86.53 373.66,-68.43 383,-55 393.91,-39.31 412.11,-26.81 425.41,-19.1"/>
<polygon fill="#63b8ff" stroke="#63b8ff" points="362.91,-99.54 364.85,-109.96 369.83,-100.61 362.91,-99.54"/>
</g>
<!-- Node6 -->
<g id="node6" class="node">
<title>Node6</title>
<g id="a_node6"><a xlink:href="Pedal_8cpp.html" target="_top" xlink:title="Implementation of the Pedal class for handling throttle pedal inputs.">
<polygon fill="white" stroke="#666666" points="252.5,-19 143.5,-19 143.5,0 252.5,0 252.5,-19"/>
<text text-anchor="middle" x="198" y="-7" font-family="Helvetica,sans-Serif" font-size="10.00">lib/Pedal/Pedal.cpp</text>
</a>
</g>
</g>
<!-- Node2&#45;&gt;Node6 -->
<g id="edge6" class="edge">
<title>Node2&#45;&gt;Node6</title>
<path fill="none" stroke="#63b8ff" d="M294.96,-111.78C267.51,-105.82 237.62,-94.69 217,-74 202.05,-59 198.78,-32.76 198.12,-19.18"/>
<polygon fill="#63b8ff" stroke="#63b8ff" points="294.46,-115.25 304.94,-113.76 295.81,-108.38 294.46,-115.25"/>
</g>
<!-- Node7 -->
<g id="node7" class="node">
<title>Node7</title>
<g id="a_node7"><a xlink:href="Pedal_8hpp.html" target="_top" xlink:title="Declaration of the Pedal class for handling throttle and brake pedal inputs.">
<polygon fill="white" stroke="#666666" points="336,-74 226,-74 226,-55 336,-55 336,-74"/>
<text text-anchor="middle" x="281" y="-62" font-family="Helvetica,sans-Serif" font-size="10.00">lib/Pedal/Pedal.hpp</text>
</a>
</g>
</g>
<!-- Node2&#45;&gt;Node7 -->
<g id="edge7" class="edge">
<title>Node2&#45;&gt;Node7</title>
<path fill="none" stroke="#63b8ff" d="M341.96,-104.42C326.89,-94.81 307.41,-82.37 294.58,-74.17"/>
<polygon fill="#63b8ff" stroke="#63b8ff" points="340.35,-107.55 350.66,-109.98 344.12,-101.65 340.35,-107.55"/>
</g>
<!-- Node8 -->
<g id="node8" class="node">
<title>Node8</title>
<g id="a_node8"><a xlink:href="Telemetry_8hpp.html" target="_top" xlink:title="Declaration of the Telemetry class for sending telemetry data over CAN bus.">
<polygon fill="white" stroke="#666666" points="700,-74 548,-74 548,-55 700,-55 700,-74"/>
<text text-anchor="middle" x="624" y="-62" font-family="Helvetica,sans-Serif" font-size="10.00">lib/Telemetry/Telemetry.hpp</text>
</a>
</g>
</g>
<!-- Node2&#45;&gt;Node8 -->
<g id="edge10" class="edge">
<title>Node2&#45;&gt;Node8</title>
<path fill="none" stroke="#63b8ff" d="M415.8,-107.94C464.54,-98.01 536.61,-83.31 581.9,-74.08"/>
<polygon fill="#63b8ff" stroke="#63b8ff" points="414.87,-104.56 405.77,-109.98 416.27,-111.42 414.87,-104.56"/>
</g>
<!-- Node4&#45;&gt;Node3 -->
<g id="edge4" class="edge">
<title>Node4&#45;&gt;Node3</title>
<path fill="none" stroke="#63b8ff" d="M382.11,-55.42C304.35,-44.94 170.1,-26.83 98.06,-17.12"/>
<polygon fill="#63b8ff" stroke="#63b8ff" points="381.85,-58.92 392.23,-56.79 382.78,-51.98 381.85,-58.92"/>
</g>
<!-- Node4&#45;&gt;Node5 -->
<g id="edge5" class="edge">
<title>Node4&#45;&gt;Node5</title>
<path fill="none" stroke="#63b8ff" d="M442,-44.66C442,-35.93 442,-25.99 442,-19.09"/>
<polygon fill="#63b8ff" stroke="#63b8ff" points="438.5,-44.75 442,-54.75 445.5,-44.75 438.5,-44.75"/>
</g>
<!-- Node7&#45;&gt;Node5 -->
<g id="edge9" class="edge">
<title>Node7&#45;&gt;Node5</title>
<path fill="none" stroke="#63b8ff" d="M316.55,-51.8C346.59,-41.91 388.94,-27.97 415.93,-19.08"/>
<polygon fill="#63b8ff" stroke="#63b8ff" points="315.27,-48.53 306.87,-54.98 317.46,-55.18 315.27,-48.53"/>
</g>
<!-- Node7&#45;&gt;Node6 -->
<g id="edge8" class="edge">
<title>Node7&#45;&gt;Node6</title>
<path fill="none" stroke="#63b8ff" d="M258.96,-49.42C243.89,-39.81 224.41,-27.37 211.58,-19.17"/>
<polygon fill="#63b8ff" stroke="#63b8ff" points="257.35,-52.55 267.66,-54.98 261.12,-46.65 257.35,-52.55"/>
</g>
<!-- Node8&#45;&gt;Node5 -->
<g id="edge12" class="edge">
<title>Node8&#45;&gt;Node5</title>
<path fill="none" stroke="#63b8ff" d="M585.14,-52.18C551.1,-42.27 502.38,-28.08 471.47,-19.08"/>
<polygon fill="#63b8ff" stroke="#63b8ff" points="584.18,-55.55 594.76,-54.98 586.14,-48.83 584.18,-55.55"/>
</g>
<!-- Node9 -->
<g id="node9" class="node">
<title>Node9</title>
<g id="a_node9"><a xlink:href="Telemetry_8cpp.html" target="_top" xlink:title="Implementation of the Telemetry class for sending telemetry data over CAN bus.">
<polygon fill="white" stroke="#666666" points="699.5,-19 548.5,-19 548.5,0 699.5,0 699.5,-19"/>
<text text-anchor="middle" x="624" y="-7" font-family="Helvetica,sans-Serif" font-size="10.00">lib/Telemetry/Telemetry.cpp</text>
</a>
</g>
</g>
<!-- Node8&#45;&gt;Node9 -->
<g id="edge11" class="edge">
<title>Node8&#45;&gt;Node9</title>
<path fill="none" stroke="#63b8ff" d="M624,-44.66C624,-35.93 624,-25.99 624,-19.09"/>
<polygon fill="#63b8ff" stroke="#63b8ff" points="620.5,-44.75 624,-54.75 627.5,-44.75 620.5,-44.75"/>
</g>
<!-- Node10&#45;&gt;Node3 -->
<g id="edge16" class="edge">
<title>Node10&#45;&gt;Node3</title>
<path fill="none" stroke="#63b8ff" d="M92.53,-48.32C81.66,-38.87 68.06,-27.06 58.98,-19.17"/>
<polygon fill="#63b8ff" stroke="#63b8ff" points="90.35,-51.07 100.2,-54.98 94.95,-45.78 90.35,-51.07"/>
</g>
<!-- Node10&#45;&gt;Node5 -->
<g id="edge18" class="edge">
<title>Node10&#45;&gt;Node5</title>
<path fill="none" stroke="#63b8ff" d="M173.43,-53.37C240.94,-42.6 345.67,-25.88 402.33,-16.83"/>
<polygon fill="#63b8ff" stroke="#63b8ff" points="172.66,-49.95 163.34,-54.98 173.77,-56.86 172.66,-49.95"/>
</g>
<!-- Node10&#45;&gt;Node6 -->
<g id="edge17" class="edge">
<title>Node10&#45;&gt;Node6</title>
<path fill="none" stroke="#63b8ff" d="M132.92,-49.7C148.95,-40.04 169.87,-27.44 183.6,-19.17"/>
<polygon fill="#63b8ff" stroke="#63b8ff" points="130.9,-46.83 124.14,-54.98 134.51,-52.82 130.9,-46.83"/>
</g>
<!-- Node12 -->
<g id="node12" class="node">
<title>Node12</title>
<g id="a_node12"><a xlink:href="Debug__can_8cpp.html" target="_top" xlink:title="Implementation of the Debug_CAN namespace for CAN debugging functions.">
<polygon fill="white" stroke="#666666" points="1063,-74 923,-74 923,-55 1063,-55 1063,-74"/>
<text text-anchor="middle" x="993" y="-62" font-family="Helvetica,sans-Serif" font-size="10.00">lib/Debug/Debug_can.cpp</text>
</a>
</g>
</g>
<!-- Node11&#45;&gt;Node12 -->
<g id="edge20" class="edge">
<title>Node11&#45;&gt;Node12</title>
<path fill="none" stroke="#63b8ff" d="M938.31,-104.15C951.86,-94.57 969.24,-82.29 980.73,-74.17"/>
<polygon fill="#63b8ff" stroke="#63b8ff" points="936.2,-101.36 930.05,-109.98 940.24,-107.07 936.2,-101.36"/>
</g>
<!-- Node14&#45;&gt;Node13 -->
<g id="edge23" class="edge">
<title>Node14&#45;&gt;Node13</title>
<path fill="none" stroke="#63b8ff" d="M1106,-104.97C1123.19,-95.28 1145.81,-82.52 1160.62,-74.17"/>
<polygon fill="#63b8ff" stroke="#63b8ff" points="1104.09,-102.02 1097.1,-109.98 1107.53,-108.12 1104.09,-102.02"/>
</g>
<!-- Node15&#45;&gt;Node4 -->
<g id="edge25" class="edge">
<title>Node15&#45;&gt;Node4</title>
<path fill="none" stroke="#63b8ff" d="M661.25,-108.07C610.07,-98.13 533.96,-83.35 486.21,-74.08"/>
<polygon fill="#63b8ff" stroke="#63b8ff" points="660.65,-111.51 671.14,-109.98 661.99,-104.64 660.65,-111.51"/>
</g>
<!-- Node15&#45;&gt;Node5 -->
<g id="edge28" class="edge">
<title>Node15&#45;&gt;Node5</title>
<path fill="none" stroke="#63b8ff" d="M718.76,-99.72C720.42,-85.61 719.96,-66.76 709,-55 693.69,-38.56 552.24,-21.85 481.66,-14.44"/>
<polygon fill="#63b8ff" stroke="#63b8ff" points="715.27,-99.37 717.14,-109.79 722.18,-100.48 715.27,-99.37"/>
</g>
<!-- Node15&#45;&gt;Node16 -->
<g id="edge26" class="edge">
<title>Node15&#45;&gt;Node16</title>
<path fill="none" stroke="#63b8ff" d="M737.3,-105.5C757.12,-95.75 785.74,-82.68 806.04,-74.17"/>
<polygon fill="#63b8ff" stroke="#63b8ff" points="735.73,-102.37 728.36,-109.98 738.87,-108.63 735.73,-102.37"/>
</g>
<!-- Node16&#45;&gt;Node15 -->
<g id="edge27" class="edge">
<title>Node16&#45;&gt;Node15</title>
<path fill="none" stroke="#63b8ff" d="M807.33,-78.68C787.41,-88.47 758.79,-101.54 738.59,-109.98"/>
<polygon fill="#63b8ff" stroke="#63b8ff" points="808.96,-81.78 816.34,-74.17 805.83,-75.52 808.96,-81.78"/>
</g>
</g>
</svg>
