<?xml version="1.0" encoding="UTF-8" standalone="no"?>
<!DOCTYPE svg PUBLIC "-//W3C//DTD SVG 1.1//EN"
 "http://www.w3.org/Graphics/SVG/1.1/DTD/svg11.dtd">
<!-- Generated by graphviz version 2.43.0 (0)
 -->
<!-- Title: ee_sw_vcu_2025/include/Enums.hpp Pages: 1 -->
<!--zoomable 236 -->
<svg id="main" version="1.1" xmlns="http://www.w3.org/2000/svg" xmlns:xlink="http://www.w3.org/1999/xlink" xml:space="preserve" onload="init(evt)">
<style type="text/css"><![CDATA[
.edge:hover path { stroke: red; }
.edge:hover polygon { stroke: red; fill: red; }
]]></style>
<script type="text/javascript"><![CDATA[
var edges = document.getElementsByTagName('g');
if (edges && edges.length) {
  for (var i=0;i<edges.length;i++) {
    if (edges[i].id.substr(0,4)=='edge') {
      edges[i].setAttribute('class','edge');
    }
  }
}
]]></script>
        <defs>
                <circle id="rim" cx="0" cy="0" r="7"/>
                <circle id="rim2" cx="0" cy="0" r="3.5"/>
                <g id="zoomPlus">
                        <use xlink:href="#rim" fill="#404040">
                                <set attributeName="fill" to="#808080" begin="zoomplus.mouseover" end="zoomplus.mouseout"/>
                        </use>
                        <path d="M-4,0h8M0,-4v8" fill="none" stroke="white" stroke-width="1.5" pointer-events="none"/>
                </g>
                <g id="zoomMin">
                        <use xlink:href="#rim" fill="#404040">
                                <set attributeName="fill" to="#808080" begin="zoomminus.mouseover" end="zoomminus.mouseout"/>
                        </use>
                        <path d="M-4,0h8" fill="none" stroke="white" stroke-width="1.5" pointer-events="none"/>
                </g>
                <g id="dirArrow">
                        <path fill="none" stroke="white" stroke-width="1.5" d="M0,-3.0v7 M-2.5,-0.5L0,-3.0L2.5,-0.5"/>
                </g>
               <g id="resetDef">
                       <use xlink:href="#rim2" fill="#404040">
                               <set attributeName="fill" to="#808080" begin="reset.mouseover" end="reset.mouseout"/>
                       </use>
               </g>
        </defs>

<script type="text/javascript">
var viewWidth = 1240;
var viewHeight = 236;
var sectionId = 'dynsection-1';
</script>
<script xlink:href="svgpan.js"/>
<svg id="graph" class="graph">
<g id="viewport">
<title>ee_sw_vcu_2025/include/Enums.hpp</title>
<!-- Node1 -->
<g id="node1" class="node">
<title>Node1</title>
<g id="a_node1"><a xlink:title="Enumeration definitions for the VCU.">
<polygon fill="#999999" stroke="#666666" points="800.5,-228 663.5,-228 663.5,-198 800.5,-198 800.5,-228"/>
<text text-anchor="start" x="671.5" y="-216" font-family="Helvetica,sans-Serif" font-size="10.00">ee_sw_vcu_2025/include</text>
<text text-anchor="middle" x="732" y="-205" font-family="Helvetica,sans-Serif" font-size="10.00">/Enums.hpp</text>
</a>
</g>
</g>
<!-- Node2 -->
<g id="node2" class="node">
<title>Node2</title>
<g id="a_node2"><a xlink:href="CarState_8hpp.html" target="_top" xlink:title="Definition of the CarState structure representing the state of the car.">
<polygon fill="white" stroke="#666666" points="446.5,-162 309.5,-162 309.5,-132 446.5,-132 446.5,-162"/>
<text text-anchor="start" x="317.5" y="-150" font-family="Helvetica,sans-Serif" font-size="10.00">ee_sw_vcu_2025/include</text>
<text text-anchor="middle" x="378" y="-139" font-family="Helvetica,sans-Serif" font-size="10.00">/CarState.hpp</text>
</a>
</g>
</g>
<!-- Node1&#45;&gt;Node2 -->
<g id="edge1" class="edge">
<title>Node1&#45;&gt;Node2</title>
<path fill="none" stroke="#63b8ff" d="M653.21,-197.76C591.31,-186.56 505.96,-171.13 446.78,-160.44"/>
<polygon fill="#63b8ff" stroke="#63b8ff" points="652.86,-201.25 663.33,-199.58 654.11,-194.36 652.86,-201.25"/>
</g>
<!-- Node3 -->
<g id="node3" class="node">
<title>Node3</title>
<g id="a_node3"><a xlink:href="BMS_8cpp.html" target="_top" xlink:title="Implementation of the BMS class for managing the Accumulator (Kclear BMS) via CAN bus.">
<polygon fill="white" stroke="#666666" points="114,-30 0,-30 0,0 114,0 114,-30"/>
<text text-anchor="start" x="8" y="-18" font-family="Helvetica,sans-Serif" font-size="10.00">ee_sw_vcu_2025/lib</text>
<text text-anchor="middle" x="57" y="-7" font-family="Helvetica,sans-Serif" font-size="10.00">/BMS/BMS.cpp</text>
</a>
</g>
</g>
<!-- Node1&#45;&gt;Node3 -->
<g id="edge14" class="edge">
<title>Node1&#45;&gt;Node3</title>
<path fill="none" stroke="#63b8ff" d="M652.95,-210.81C550.94,-207.81 368.59,-197.44 217,-162 136.46,-143.17 89.98,-164.07 43,-96 29.3,-76.16 40.15,-47.13 48.86,-30.04"/>
<polygon fill="#63b8ff" stroke="#63b8ff" points="653.07,-214.32 663.17,-211.1 653.27,-207.32 653.07,-214.32"/>
</g>
<!-- Node5 -->
<g id="node5" class="node">
<title>Node5</title>
<g id="a_node5"><a xlink:href="main_8cpp.html" target="_top" xlink:title="Main VCU program entry point.">
<polygon fill="white" stroke="#666666" points="521,-30 405,-30 405,0 521,0 521,-30"/>
<text text-anchor="start" x="413" y="-18" font-family="Helvetica,sans-Serif" font-size="10.00">ee_sw_vcu_2025/src</text>
<text text-anchor="middle" x="463" y="-7" font-family="Helvetica,sans-Serif" font-size="10.00">/main.cpp</text>
</a>
</g>
</g>
<!-- Node1&#45;&gt;Node5 -->
<g id="edge30" class="edge">
<title>Node1&#45;&gt;Node5</title>
<path fill="none" stroke="#63b8ff" d="M699.84,-192.56C685.33,-183.56 668.1,-172.54 653,-162 595.85,-122.11 584.13,-108.64 529,-66 513.19,-53.78 495.09,-40.09 481.85,-30.13"/>
<polygon fill="#63b8ff" stroke="#63b8ff" points="698.13,-195.62 708.48,-197.88 701.8,-189.66 698.13,-195.62"/>
</g>
<!-- Node10 -->
<g id="node10" class="node">
<title>Node10</title>
<g id="a_node10"><a xlink:href="Debug_8hpp.html" target="_top" xlink:title="Debugging macros and functions for serial and CAN output.">
<polygon fill="white" stroke="#666666" points="180,-96 66,-96 66,-66 180,-66 180,-96"/>
<text text-anchor="start" x="74" y="-84" font-family="Helvetica,sans-Serif" font-size="10.00">ee_sw_vcu_2025/lib</text>
<text text-anchor="middle" x="123" y="-73" font-family="Helvetica,sans-Serif" font-size="10.00">/Debug/Debug.hpp</text>
</a>
</g>
</g>
<!-- Node1&#45;&gt;Node10 -->
<g id="edge15" class="edge">
<title>Node1&#45;&gt;Node10</title>
<path fill="none" stroke="#63b8ff" d="M653.28,-210.16C565.61,-206.44 420.39,-195.3 300,-162 242.96,-146.22 180.94,-114.48 147.58,-96.08"/>
<polygon fill="#63b8ff" stroke="#63b8ff" points="653.28,-213.66 663.41,-210.57 653.56,-206.67 653.28,-213.66"/>
</g>
<!-- Node11 -->
<g id="node11" class="node">
<title>Node11</title>
<g id="a_node11"><a xlink:href="Debug__can_8hpp.html" target="_top" xlink:title="Declaration of the Debug_CAN namespace for CAN debugging functions.">
<polygon fill="white" stroke="#666666" points="987.5,-162 858.5,-162 858.5,-132 987.5,-132 987.5,-162"/>
<text text-anchor="start" x="866.5" y="-150" font-family="Helvetica,sans-Serif" font-size="10.00">ee_sw_vcu_2025/lib</text>
<text text-anchor="middle" x="923" y="-139" font-family="Helvetica,sans-Serif" font-size="10.00">/Debug/Debug_can.hpp</text>
</a>
</g>
</g>
<!-- Node1&#45;&gt;Node11 -->
<g id="edge19" class="edge">
<title>Node1&#45;&gt;Node11</title>
<path fill="none" stroke="#63b8ff" d="M783.56,-194.72C814.16,-184.47 852.47,-171.63 881.18,-162.01"/>
<polygon fill="#63b8ff" stroke="#63b8ff" points="782.29,-191.46 773.92,-197.95 784.51,-198.1 782.29,-191.46"/>
</g>
<!-- Node13 -->
<g id="node13" class="node">
<title>Node13</title>
<g id="a_node13"><a xlink:href="Debug__serial_8cpp.html" target="_top" xlink:title="Implementation of the Debug_Serial namespace for serial debugging functions.">
<polygon fill="white" stroke="#666666" points="1232,-96 1094,-96 1094,-66 1232,-66 1232,-96"/>
<text text-anchor="start" x="1102" y="-84" font-family="Helvetica,sans-Serif" font-size="10.00">ee_sw_vcu_2025/lib</text>
<text text-anchor="middle" x="1163" y="-73" font-family="Helvetica,sans-Serif" font-size="10.00">/Debug/Debug_serial.cpp</text>
</a>
</g>
</g>
<!-- Node1&#45;&gt;Node13 -->
<g id="edge21" class="edge">
<title>Node1&#45;&gt;Node13</title>
<path fill="none" stroke="#63b8ff" d="M810.77,-207.83C925.92,-200.96 1129.21,-185.64 1153,-162 1170.27,-144.83 1168.69,-114.04 1165.9,-96.08"/>
<polygon fill="#63b8ff" stroke="#63b8ff" points="810.37,-204.35 800.59,-208.43 810.78,-211.33 810.37,-204.35"/>
</g>
<!-- Node14 -->
<g id="node14" class="node">
<title>Node14</title>
<g id="a_node14"><a xlink:href="Debug__serial_8hpp.html" target="_top" xlink:title="Declaration of the Debug_Serial namespace for serial debugging functions.">
<polygon fill="white" stroke="#666666" points="1144.5,-162 1005.5,-162 1005.5,-132 1144.5,-132 1144.5,-162"/>
<text text-anchor="start" x="1013.5" y="-150" font-family="Helvetica,sans-Serif" font-size="10.00">ee_sw_vcu_2025/lib</text>
<text text-anchor="middle" x="1075" y="-139" font-family="Helvetica,sans-Serif" font-size="10.00">/Debug/Debug_serial.hpp</text>
</a>
</g>
</g>
<!-- Node1&#45;&gt;Node14 -->
<g id="edge22" class="edge">
<title>Node1&#45;&gt;Node14</title>
<path fill="none" stroke="#63b8ff" d="M810.56,-197.34C869.3,-186.38 948.88,-171.53 1005.36,-160.99"/>
<polygon fill="#63b8ff" stroke="#63b8ff" points="809.78,-193.93 800.59,-199.2 811.06,-200.81 809.78,-193.93"/>
</g>
<!-- Node15 -->
<g id="node15" class="node">
<title>Node15</title>
<g id="a_node15"><a xlink:href="Scheduler_8hpp.html" target="_top" xlink:title="Declaration of the Scheduler class template, for scheduling tasks on multiple MCP2515 instances.">
<polygon fill="white" stroke="#666666" points="801.5,-162 662.5,-162 662.5,-132 801.5,-132 801.5,-162"/>
<text text-anchor="start" x="670.5" y="-150" font-family="Helvetica,sans-Serif" font-size="10.00">ee_sw_vcu_2025/lib</text>
<text text-anchor="middle" x="732" y="-139" font-family="Helvetica,sans-Serif" font-size="10.00">/Scheduler/Scheduler.hpp</text>
</a>
</g>
</g>
<!-- Node1&#45;&gt;Node15 -->
<g id="edge24" class="edge">
<title>Node1&#45;&gt;Node15</title>
<path fill="none" stroke="#63b8ff" d="M732,-187.54C732,-178.96 732,-169.61 732,-162.16"/>
<polygon fill="#63b8ff" stroke="#63b8ff" points="728.5,-187.8 732,-197.8 735.5,-187.8 728.5,-187.8"/>
</g>
<!-- Node16 -->
<g id="node16" class="node">
<title>Node16</title>
<g id="a_node16"><a xlink:href="Scheduler_8tpp.html" target="_top" xlink:title="Implementation of the Scheduler class template.">
<polygon fill="white" stroke="#666666" points="909.5,-96 772.5,-96 772.5,-66 909.5,-66 909.5,-96"/>
<text text-anchor="start" x="780.5" y="-84" font-family="Helvetica,sans-Serif" font-size="10.00">ee_sw_vcu_2025/lib</text>
<text text-anchor="middle" x="841" y="-73" font-family="Helvetica,sans-Serif" font-size="10.00">/Scheduler/Scheduler.tpp</text>
</a>
</g>
</g>
<!-- Node1&#45;&gt;Node16 -->
<g id="edge29" class="edge">
<title>Node1&#45;&gt;Node16</title>
<path fill="none" stroke="#63b8ff" d="M771.89,-193.02C785.44,-184.99 799.73,-174.57 810,-162 826.12,-142.28 834.54,-113.21 838.35,-96.08"/>
<polygon fill="#63b8ff" stroke="#63b8ff" points="770.14,-189.98 763.15,-197.94 773.58,-196.08 770.14,-189.98"/>
</g>
<!-- Node2&#45;&gt;Node3 -->
<g id="edge2" class="edge">
<title>Node2&#45;&gt;Node3</title>
<path fill="none" stroke="#63b8ff" d="M299.27,-145.03C214.48,-142.12 87.58,-131.71 57,-96 41.37,-77.75 46.87,-47.63 52.07,-30.02"/>
<polygon fill="#63b8ff" stroke="#63b8ff" points="299.28,-148.53 309.39,-145.35 299.51,-141.53 299.28,-148.53"/>
</g>
<!-- Node4 -->
<g id="node4" class="node">
<title>Node4</title>
<g id="a_node4"><a xlink:href="BMS_8hpp.html" target="_top" xlink:title="Declaration of the BMS class for managing the Accumulator (Kclear BMS) via CAN bus.">
<polygon fill="white" stroke="#666666" points="520,-96 406,-96 406,-66 520,-66 520,-96"/>
<text text-anchor="start" x="414" y="-84" font-family="Helvetica,sans-Serif" font-size="10.00">ee_sw_vcu_2025/lib</text>
<text text-anchor="middle" x="463" y="-73" font-family="Helvetica,sans-Serif" font-size="10.00">/BMS/BMS.hpp</text>
</a>
</g>
</g>
<!-- Node2&#45;&gt;Node4 -->
<g id="edge3" class="edge">
<title>Node2&#45;&gt;Node4</title>
<path fill="none" stroke="#63b8ff" d="M404.89,-125.75C417.67,-116.13 432.64,-104.86 444.19,-96.16"/>
<polygon fill="#63b8ff" stroke="#63b8ff" points="402.75,-122.99 396.86,-131.8 406.96,-128.58 402.75,-122.99"/>
</g>
<!-- Node2&#45;&gt;Node5 -->
<g id="edge13" class="edge">
<title>Node2&#45;&gt;Node5</title>
<path fill="none" stroke="#63b8ff" d="M379.47,-121.72C381.46,-104.92 386.13,-82.68 397,-66 406.81,-50.95 422.78,-38.67 436.55,-30.05"/>
<polygon fill="#63b8ff" stroke="#63b8ff" points="375.97,-121.58 378.5,-131.86 382.93,-122.24 375.97,-121.58"/>
</g>
<!-- Node6 -->
<g id="node6" class="node">
<title>Node6</title>
<g id="a_node6"><a xlink:href="Pedal_8cpp.html" target="_top" xlink:title="Implementation of the Pedal class for handling throttle pedal inputs.">
<polygon fill="white" stroke="#666666" points="265,-30 151,-30 151,0 265,0 265,-30"/>
<text text-anchor="start" x="159" y="-18" font-family="Helvetica,sans-Serif" font-size="10.00">ee_sw_vcu_2025/lib</text>
<text text-anchor="middle" x="208" y="-7" font-family="Helvetica,sans-Serif" font-size="10.00">/Pedal/Pedal.cpp</text>
</a>
</g>
</g>
<!-- Node2&#45;&gt;Node6 -->
<g id="edge6" class="edge">
<title>Node2&#45;&gt;Node6</title>
<path fill="none" stroke="#63b8ff" d="M299.42,-135.74C273.14,-128.59 245.78,-116.48 227,-96 210.31,-77.8 207.5,-47.66 207.43,-30.04"/>
<polygon fill="#63b8ff" stroke="#63b8ff" points="298.87,-139.21 309.42,-138.24 300.57,-132.42 298.87,-139.21"/>
</g>
<!-- Node7 -->
<g id="node7" class="node">
<title>Node7</title>
<g id="a_node7"><a xlink:href="Pedal_8hpp.html" target="_top" xlink:title="Declaration of the Pedal class for handling throttle and brake pedal inputs.">
<polygon fill="white" stroke="#666666" points="350,-96 236,-96 236,-66 350,-66 350,-96"/>
<text text-anchor="start" x="244" y="-84" font-family="Helvetica,sans-Serif" font-size="10.00">ee_sw_vcu_2025/lib</text>
<text text-anchor="middle" x="293" y="-73" font-family="Helvetica,sans-Serif" font-size="10.00">/Pedal/Pedal.hpp</text>
</a>
</g>
</g>
<!-- Node2&#45;&gt;Node7 -->
<g id="edge7" class="edge">
<title>Node2&#45;&gt;Node7</title>
<path fill="none" stroke="#63b8ff" d="M351.11,-125.75C338.33,-116.13 323.36,-104.86 311.81,-96.16"/>
<polygon fill="#63b8ff" stroke="#63b8ff" points="349.04,-128.58 359.14,-131.8 353.25,-122.99 349.04,-128.58"/>
</g>
<!-- Node8 -->
<g id="node8" class="node">
<title>Node8</title>
<g id="a_node8"><a xlink:href="Telemetry_8hpp.html" target="_top" xlink:title="Declaration of the Telemetry class for sending telemetry data over CAN bus.">
<polygon fill="white" stroke="#666666" points="716,-96 576,-96 576,-66 716,-66 716,-96"/>
<text text-anchor="start" x="584" y="-84" font-family="Helvetica,sans-Serif" font-size="10.00">ee_sw_vcu_2025/lib</text>
<text text-anchor="middle" x="646" y="-73" font-family="Helvetica,sans-Serif" font-size="10.00">/Telemetry/Telemetry.hpp</text>
</a>
</g>
</g>
<!-- Node2&#45;&gt;Node8 -->
<g id="edge10" class="edge">
<title>Node2&#45;&gt;Node8</title>
<path fill="none" stroke="#63b8ff" d="M446.75,-129.58C490.25,-119.19 545.9,-105.9 587.32,-96.01"/>
<polygon fill="#63b8ff" stroke="#63b8ff" points="445.73,-126.23 436.81,-131.95 447.35,-133.04 445.73,-126.23"/>
</g>
<!-- Node4&#45;&gt;Node3 -->
<g id="edge4" class="edge">
<title>Node4&#45;&gt;Node3</title>
<path fill="none" stroke="#63b8ff" d="M395.75,-69.7C330.79,-59.71 229.62,-44.04 142,-30 132.99,-28.56 123.45,-27.01 114.14,-25.48"/>
<polygon fill="#63b8ff" stroke="#63b8ff" points="395.45,-73.19 405.86,-71.25 396.51,-66.27 395.45,-73.19"/>
</g>
<!-- Node4&#45;&gt;Node5 -->
<g id="edge5" class="edge">
<title>Node4&#45;&gt;Node5</title>
<path fill="none" stroke="#63b8ff" d="M463,-55.54C463,-46.96 463,-37.61 463,-30.16"/>
<polygon fill="#63b8ff" stroke="#63b8ff" points="459.5,-55.8 463,-65.8 466.5,-55.8 459.5,-55.8"/>
</g>
<!-- Node7&#45;&gt;Node5 -->
<g id="edge9" class="edge">
<title>Node7&#45;&gt;Node5</title>
<path fill="none" stroke="#63b8ff" d="M339.96,-62.32C367.01,-52.14 400.55,-39.51 425.78,-30.01"/>
<polygon fill="#63b8ff" stroke="#63b8ff" points="338.43,-59.16 330.31,-65.95 340.9,-65.71 338.43,-59.16"/>
</g>
<!-- Node7&#45;&gt;Node6 -->
<g id="edge8" class="edge">
<title>Node7&#45;&gt;Node6</title>
<path fill="none" stroke="#63b8ff" d="M266.11,-59.75C253.33,-50.13 238.36,-38.86 226.81,-30.16"/>
<polygon fill="#63b8ff" stroke="#63b8ff" points="264.04,-62.58 274.14,-65.8 268.25,-56.99 264.04,-62.58"/>
</g>
<!-- Node8&#45;&gt;Node5 -->
<g id="edge12" class="edge">
<title>Node8&#45;&gt;Node5</title>
<path fill="none" stroke="#63b8ff" d="M596.22,-62.59C566.96,-52.36 530.46,-39.59 503.07,-30.01"/>
<polygon fill="#63b8ff" stroke="#63b8ff" points="595.25,-65.96 605.84,-65.95 597.56,-59.35 595.25,-65.96"/>
</g>
<!-- Node9 -->
<g id="node9" class="node">
<title>Node9</title>
<g id="a_node9"><a xlink:href="Telemetry_8cpp.html" target="_top" xlink:title="Implementation of the Telemetry class for sending telemetry data over CAN bus.">
<polygon fill="white" stroke="#666666" points="715.5,-30 576.5,-30 576.5,0 715.5,0 715.5,-30"/>
<text text-anchor="start" x="584.5" y="-18" font-family="Helvetica,sans-Serif" font-size="10.00">ee_sw_vcu_2025/lib</text>
<text text-anchor="middle" x="646" y="-7" font-family="Helvetica,sans-Serif" font-size="10.00">/Telemetry/Telemetry.cpp</text>
</a>
</g>
</g>
<!-- Node8&#45;&gt;Node9 -->
<g id="edge11" class="edge">
<title>Node8&#45;&gt;Node9</title>
<path fill="none" stroke="#63b8ff" d="M646,-55.54C646,-46.96 646,-37.61 646,-30.16"/>
<polygon fill="#63b8ff" stroke="#63b8ff" points="642.5,-55.8 646,-65.8 649.5,-55.8 642.5,-55.8"/>
</g>
<!-- Node10&#45;&gt;Node3 -->
<g id="edge16" class="edge">
<title>Node10&#45;&gt;Node3</title>
<path fill="none" stroke="#63b8ff" d="M100.98,-58.65C91.31,-49.27 80.23,-38.53 71.61,-30.16"/>
<polygon fill="#63b8ff" stroke="#63b8ff" points="98.74,-61.35 108.35,-65.8 103.61,-56.32 98.74,-61.35"/>
</g>
<!-- Node10&#45;&gt;Node5 -->
<g id="edge18" class="edge">
<title>Node10&#45;&gt;Node5</title>
<path fill="none" stroke="#63b8ff" d="M190.47,-67.3C253.13,-55.51 345.45,-38.13 404.9,-26.94"/>
<polygon fill="#63b8ff" stroke="#63b8ff" points="189.47,-63.93 180.29,-69.22 190.77,-70.81 189.47,-63.93"/>
</g>
<!-- Node10&#45;&gt;Node6 -->
<g id="edge17" class="edge">
<title>Node10&#45;&gt;Node6</title>
<path fill="none" stroke="#63b8ff" d="M149.89,-59.75C162.67,-50.13 177.64,-38.86 189.19,-30.16"/>
<polygon fill="#63b8ff" stroke="#63b8ff" points="147.75,-56.99 141.86,-65.8 151.96,-62.58 147.75,-56.99"/>
</g>
<!-- Node12 -->
<g id="node12" class="node">
<title>Node12</title>
<g id="a_node12"><a xlink:href="Debug__can_8cpp.html" target="_top" xlink:title="Implementation of the Debug_CAN namespace for CAN debugging functions.">
<polygon fill="white" stroke="#666666" points="1056,-96 928,-96 928,-66 1056,-66 1056,-96"/>
<text text-anchor="start" x="936" y="-84" font-family="Helvetica,sans-Serif" font-size="10.00">ee_sw_vcu_2025/lib</text>
<text text-anchor="middle" x="992" y="-73" font-family="Helvetica,sans-Serif" font-size="10.00">/Debug/Debug_can.cpp</text>
</a>
</g>
</g>
<!-- Node11&#45;&gt;Node12 -->
<g id="edge20" class="edge">
<title>Node11&#45;&gt;Node12</title>
<path fill="none" stroke="#63b8ff" d="M945.72,-124.92C955.9,-115.49 967.63,-104.61 976.73,-96.16"/>
<polygon fill="#63b8ff" stroke="#63b8ff" points="943.26,-122.43 938.31,-131.8 948.03,-127.56 943.26,-122.43"/>
</g>
<!-- Node14&#45;&gt;Node13 -->
<g id="edge23" class="edge">
<title>Node14&#45;&gt;Node13</title>
<path fill="none" stroke="#63b8ff" d="M1102.84,-125.75C1116.07,-116.13 1131.57,-104.86 1143.52,-96.16"/>
<polygon fill="#63b8ff" stroke="#63b8ff" points="1100.56,-123.08 1094.53,-131.8 1104.68,-128.75 1100.56,-123.08"/>
</g>
<!-- Node15&#45;&gt;Node4 -->
<g id="edge25" class="edge">
<title>Node15&#45;&gt;Node4</title>
<path fill="none" stroke="#63b8ff" d="M663.14,-129.62C618.8,-119.07 561.85,-105.52 520.05,-95.57"/>
<polygon fill="#63b8ff" stroke="#63b8ff" points="662.43,-133.05 672.97,-131.95 664.05,-126.24 662.43,-133.05"/>
</g>
<!-- Node15&#45;&gt;Node5 -->
<g id="edge28" class="edge">
<title>Node15&#45;&gt;Node5</title>
<path fill="none" stroke="#63b8ff" d="M736.91,-121.74C738.99,-104.11 738.39,-80.82 725,-66 718.15,-58.42 596.21,-37.52 521.13,-25.28"/>
<polygon fill="#63b8ff" stroke="#63b8ff" points="733.42,-121.45 735.37,-131.87 740.34,-122.51 733.42,-121.45"/>
</g>
<!-- Node15&#45;&gt;Node16 -->
<g id="edge26" class="edge">
<title>Node15&#45;&gt;Node16</title>
<path fill="none" stroke="#63b8ff" d="M759.26,-126.3C775.08,-116.56 794.92,-105.02 811.16,-96.16"/>
<polygon fill="#63b8ff" stroke="#63b8ff" points="757.1,-123.53 750.47,-131.8 760.81,-129.46 757.1,-123.53"/>
</g>
<!-- Node16&#45;&gt;Node15 -->
<g id="edge27" class="edge">
<title>Node16&#45;&gt;Node15</title>
<path fill="none" stroke="#63b8ff" d="M813.99,-101.54C798.05,-111.36 777.98,-123.03 761.62,-131.95"/>
<polygon fill="#63b8ff" stroke="#63b8ff" points="816.21,-104.28 822.83,-96.01 812.5,-98.35 816.21,-104.28"/>
</g>
</g>
</svg>
        <g id="navigator" transform="translate(0 0)" fill="#404254">
                <rect fill="#f2f5e9" fill-opacity="0.5" stroke="#606060" stroke-width=".5" x="0" y="0" width="60" height="60"/>
                <use id="zoomplus" xlink:href="#zoomPlus" x="17" y="9" onmousedown="handleZoom(evt,'in')"/>
                <use id="zoomminus" xlink:href="#zoomMin" x="42" y="9" onmousedown="handleZoom(evt,'out')"/>
                <use id="reset" xlink:href="#resetDef" x="30" y="36" onmousedown="handleReset()"/>
                <g id="arrowUp" xlink:href="#dirArrow" transform="translate(30 24)" onmousedown="handlePan(0,-1)">
                  <use xlink:href="#rim" fill="#404040">
                        <set attributeName="fill" to="#808080" begin="arrowUp.mouseover" end="arrowUp.mouseout"/>
                  </use>
                  <path fill="none" stroke="white" stroke-width="1.5" d="M0,-3.0v7 M-2.5,-0.5L0,-3.0L2.5,-0.5"/>
                </g>
                <g id="arrowRight" xlink:href="#dirArrow" transform="rotate(90) translate(36 -43)" onmousedown="handlePan(1,0)">
                  <use xlink:href="#rim" fill="#404040">
                        <set attributeName="fill" to="#808080" begin="arrowRight.mouseover" end="arrowRight.mouseout"/>
                  </use>
                  <path fill="none" stroke="white" stroke-width="1.5" d="M0,-3.0v7 M-2.5,-0.5L0,-3.0L2.5,-0.5"/>
                </g>
                <g id="arrowDown" xlink:href="#dirArrow" transform="rotate(180) translate(-30 -48)" onmousedown="handlePan(0,1)">
                  <use xlink:href="#rim" fill="#404040">
                        <set attributeName="fill" to="#808080" begin="arrowDown.mouseover" end="arrowDown.mouseout"/>
                  </use>
                  <path fill="none" stroke="white" stroke-width="1.5" d="M0,-3.0v7 M-2.5,-0.5L0,-3.0L2.5,-0.5"/>
                </g>
                <g id="arrowLeft" xlink:href="#dirArrow" transform="rotate(270) translate(-36 17)" onmousedown="handlePan(-1,0)">
                  <use xlink:href="#rim" fill="#404040">
                        <set attributeName="fill" to="#808080" begin="arrowLeft.mouseover" end="arrowLeft.mouseout"/>
                  </use>
                  <path fill="none" stroke="white" stroke-width="1.5" d="M0,-3.0v7 M-2.5,-0.5L0,-3.0L2.5,-0.5"/>
                </g>
        </g>
        <svg viewBox="0 0 15 15" width="100%" height="30px" preserveAspectRatio="xMaxYMin meet">
         <g id="arrow_out" transform="scale(0.3 0.3)">
          <a xlink:href="Enums_8hpp__dep__incl_org.svg" target="_base">
           <rect id="button" ry="5" rx="5" y="6" x="6" height="38" width="38"
                fill="#f2f5e9" fill-opacity="0.5" stroke="#606060" stroke-width="1.0"/>
           <path id="arrow"
             d="M 11.500037,31.436501 C 11.940474,20.09759 22.043105,11.32322 32.158766,21.979434 L 37.068811,17.246167 C 37.068811,17.246167 37.088388,32 37.088388,32 L 22.160133,31.978069 C 22.160133,31.978069 26.997745,27.140456 26.997745,27.140456 C 18.528582,18.264221 13.291696,25.230495 11.500037,31.436501 z"
             style="fill:#404040;"/>
          </a>
         </g>
        </svg>
</svg>
