<?xml version="1.0" encoding="UTF-8" standalone="no"?>
<!DOCTYPE svg PUBLIC "-//W3C//DTD SVG 1.1//EN"
 "http://www.w3.org/Graphics/SVG/1.1/DTD/svg11.dtd">
<!-- Generated by graphviz version 2.43.0 (0)
 -->
<!-- Title: include/Enums.h Pages: 1 -->
<svg width="873pt" height="192pt"
 viewBox="0.00 0.00 872.50 192.00" xmlns="http://www.w3.org/2000/svg" xmlns:xlink="http://www.w3.org/1999/xlink">
<g id="graph0" class="graph" transform="scale(1 1) rotate(0) translate(4 188)">
<title>include/Enums.h</title>
<!-- Node1 -->
<g id="node1" class="node">
<title>Node1</title>
<g id="a_node1"><a xlink:title=" ">
<polygon fill="#999999" stroke="#666666" points="507.5,-184 410.5,-184 410.5,-165 507.5,-165 507.5,-184"/>
<text text-anchor="middle" x="459" y="-172" font-family="Helvetica,sans-Serif" font-size="10.00">include/Enums.h</text>
</a>
</g>
</g>
<!-- Node2 -->
<g id="node2" class="node">
<title>Node2</title>
<g id="a_node2"><a xlink:href="car__state_8h.html" target="_top" xlink:title=" ">
<polygon fill="white" stroke="#666666" points="274.5,-129 165.5,-129 165.5,-110 274.5,-110 274.5,-129"/>
<text text-anchor="middle" x="220" y="-117" font-family="Helvetica,sans-Serif" font-size="10.00">include/car_state.h</text>
</a>
</g>
</g>
<!-- Node1&#45;&gt;Node2 -->
<g id="edge1" class="edge">
<title>Node1&#45;&gt;Node2</title>
<path fill="none" stroke="#63b8ff" d="M410.82,-162.82C366.03,-152.88 300.16,-138.28 258.7,-129.08"/>
<polygon fill="#63b8ff" stroke="#63b8ff" points="410.08,-166.24 420.6,-164.98 411.6,-159.4 410.08,-166.24"/>
</g>
<!-- Node5 -->
<g id="node5" class="node">
<title>Node5</title>
<g id="a_node5"><a xlink:href="main_8cpp.html" target="_top" xlink:title=" ">
<polygon fill="white" stroke="#666666" points="322.5,-19 243.5,-19 243.5,0 322.5,0 322.5,-19"/>
<text text-anchor="middle" x="283" y="-7" font-family="Helvetica,sans-Serif" font-size="10.00">src/main.cpp</text>
</a>
</g>
</g>
<!-- Node1&#45;&gt;Node5 -->
<g id="edge20" class="edge">
<title>Node1&#45;&gt;Node5</title>
<path fill="none" stroke="#63b8ff" d="M400.06,-166.66C373.15,-160.73 342.74,-149.66 322,-129 290.54,-97.67 284.46,-40.53 283.28,-19"/>
<polygon fill="#63b8ff" stroke="#63b8ff" points="399.68,-170.15 410.17,-168.69 401.06,-163.29 399.68,-170.15"/>
</g>
<!-- Node6 -->
<g id="node6" class="node">
<title>Node6</title>
<g id="a_node6"><a xlink:href="Debug_8h.html" target="_top" xlink:title=" ">
<polygon fill="white" stroke="#666666" points="120.5,-74 13.5,-74 13.5,-55 120.5,-55 120.5,-74"/>
<text text-anchor="middle" x="67" y="-62" font-family="Helvetica,sans-Serif" font-size="10.00">lib/Debug/Debug.h</text>
</a>
</g>
</g>
<!-- Node1&#45;&gt;Node6 -->
<g id="edge6" class="edge">
<title>Node1&#45;&gt;Node6</title>
<path fill="none" stroke="#63b8ff" d="M400.38,-172.98C337.75,-170.6 236.59,-161.45 156,-129 123.25,-115.81 91.11,-88.27 75.98,-74.19"/>
<polygon fill="#63b8ff" stroke="#63b8ff" points="400.36,-176.48 410.48,-173.32 400.6,-169.49 400.36,-176.48"/>
</g>
<!-- Node8 -->
<g id="node8" class="node">
<title>Node8</title>
<g id="a_node8"><a xlink:href="Debug__can_8h.html" target="_top" xlink:title=" ">
<polygon fill="white" stroke="#666666" points="668.5,-129 539.5,-129 539.5,-110 668.5,-110 668.5,-129"/>
<text text-anchor="middle" x="604" y="-117" font-family="Helvetica,sans-Serif" font-size="10.00">lib/Debug/Debug_can.h</text>
</a>
</g>
</g>
<!-- Node1&#45;&gt;Node8 -->
<g id="edge10" class="edge">
<title>Node1&#45;&gt;Node8</title>
<path fill="none" stroke="#63b8ff" d="M491.69,-161.55C518.62,-151.71 556.16,-137.98 580.28,-129.17"/>
<polygon fill="#63b8ff" stroke="#63b8ff" points="490.49,-158.26 482.3,-164.98 492.89,-164.84 490.49,-158.26"/>
</g>
<!-- Node10 -->
<g id="node10" class="node">
<title>Node10</title>
<g id="a_node10"><a xlink:href="Debug__serial_8cpp.html" target="_top" xlink:title=" ">
<polygon fill="white" stroke="#666666" points="857,-74 707,-74 707,-55 857,-55 857,-74"/>
<text text-anchor="middle" x="782" y="-62" font-family="Helvetica,sans-Serif" font-size="10.00">lib/Debug/Debug_serial.cpp</text>
</a>
</g>
</g>
<!-- Node1&#45;&gt;Node10 -->
<g id="edge12" class="edge">
<title>Node1&#45;&gt;Node10</title>
<path fill="none" stroke="#63b8ff" d="M517.68,-167.06C562.46,-160.84 625.1,-149.29 677,-129 713.71,-114.65 752.2,-87.88 770.72,-74.13"/>
<polygon fill="#63b8ff" stroke="#63b8ff" points="516.99,-163.62 507.55,-168.42 517.92,-170.56 516.99,-163.62"/>
</g>
<!-- Node11 -->
<g id="node11" class="node">
<title>Node11</title>
<g id="a_node11"><a xlink:href="Debug__serial_8h.html" target="_top" xlink:title=" ">
<polygon fill="white" stroke="#666666" points="864.5,-129 725.5,-129 725.5,-110 864.5,-110 864.5,-129"/>
<text text-anchor="middle" x="795" y="-117" font-family="Helvetica,sans-Serif" font-size="10.00">lib/Debug/Debug_serial.h</text>
</a>
</g>
</g>
<!-- Node1&#45;&gt;Node11 -->
<g id="edge13" class="edge">
<title>Node1&#45;&gt;Node11</title>
<path fill="none" stroke="#63b8ff" d="M518.04,-164.19C581.06,-154.25 680.08,-138.63 741.08,-129.01"/>
<polygon fill="#63b8ff" stroke="#63b8ff" points="517.19,-160.78 507.86,-165.79 518.28,-167.69 517.19,-160.78"/>
</g>
<!-- Node12 -->
<g id="node12" class="node">
<title>Node12</title>
<g id="a_node12"><a xlink:href="Scheduler_8hpp.html" target="_top" xlink:title="Declaration of the Scheduler class template, for scheduling tasks on multiple MCP2515 instances.">
<polygon fill="white" stroke="#666666" points="482.5,-129 331.5,-129 331.5,-110 482.5,-110 482.5,-129"/>
<text text-anchor="middle" x="407" y="-117" font-family="Helvetica,sans-Serif" font-size="10.00">lib/Scheduler/Scheduler.hpp</text>
</a>
</g>
</g>
<!-- Node1&#45;&gt;Node12 -->
<g id="edge15" class="edge">
<title>Node1&#45;&gt;Node12</title>
<path fill="none" stroke="#63b8ff" d="M443.32,-157.52C434.16,-148.18 422.95,-136.75 415.43,-129.09"/>
<polygon fill="#63b8ff" stroke="#63b8ff" points="440.91,-160.06 450.41,-164.75 445.91,-155.16 440.91,-160.06"/>
</g>
<!-- Node13 -->
<g id="node13" class="node">
<title>Node13</title>
<g id="a_node13"><a xlink:href="Scheduler_8tpp.html" target="_top" xlink:title="Implementation of the Scheduler class template.">
<polygon fill="white" stroke="#666666" points="517.5,-74 368.5,-74 368.5,-55 517.5,-55 517.5,-74"/>
<text text-anchor="middle" x="443" y="-62" font-family="Helvetica,sans-Serif" font-size="10.00">lib/Scheduler/Scheduler.tpp</text>
</a>
</g>
</g>
<!-- Node1&#45;&gt;Node13 -->
<g id="edge19" class="edge">
<title>Node1&#45;&gt;Node13</title>
<path fill="none" stroke="#63b8ff" d="M476.01,-157.13C487.04,-144.44 498.13,-126.33 491,-110 484.18,-94.38 468.87,-81.79 457.37,-74.04"/>
<polygon fill="#63b8ff" stroke="#63b8ff" points="473.28,-154.93 468.97,-164.61 478.37,-159.73 473.28,-154.93"/>
</g>
<!-- Node3 -->
<g id="node3" class="node">
<title>Node3</title>
<g id="a_node3"><a xlink:href="Pedal_8h.html" target="_top" xlink:title=" ">
<polygon fill="white" stroke="#666666" points="237,-74 139,-74 139,-55 237,-55 237,-74"/>
<text text-anchor="middle" x="188" y="-62" font-family="Helvetica,sans-Serif" font-size="10.00">lib/Pedal/Pedal.h</text>
</a>
</g>
</g>
<!-- Node2&#45;&gt;Node3 -->
<g id="edge2" class="edge">
<title>Node2&#45;&gt;Node3</title>
<path fill="none" stroke="#63b8ff" d="M209.5,-101.1C204.03,-92.04 197.58,-81.37 193.19,-74.09"/>
<polygon fill="#63b8ff" stroke="#63b8ff" points="206.55,-103 214.72,-109.75 212.54,-99.38 206.55,-103"/>
</g>
<!-- Node2&#45;&gt;Node5 -->
<g id="edge5" class="edge">
<title>Node2&#45;&gt;Node5</title>
<path fill="none" stroke="#63b8ff" d="M230.08,-101.27C234.9,-93.02 240.75,-83 246,-74 257.45,-54.38 270.86,-31.35 277.98,-19.13"/>
<polygon fill="#63b8ff" stroke="#63b8ff" points="227.01,-99.57 224.99,-109.97 233.06,-103.1 227.01,-99.57"/>
</g>
<!-- Node4 -->
<g id="node4" class="node">
<title>Node4</title>
<g id="a_node4"><a xlink:href="Pedal_8cpp.html" target="_top" xlink:title=" ">
<polygon fill="white" stroke="#666666" points="225.5,-19 116.5,-19 116.5,0 225.5,0 225.5,-19"/>
<text text-anchor="middle" x="171" y="-7" font-family="Helvetica,sans-Serif" font-size="10.00">lib/Pedal/Pedal.cpp</text>
</a>
</g>
</g>
<!-- Node3&#45;&gt;Node4 -->
<g id="edge3" class="edge">
<title>Node3&#45;&gt;Node4</title>
<path fill="none" stroke="#63b8ff" d="M182.05,-44.95C179.23,-36.15 175.99,-26.06 173.75,-19.09"/>
<polygon fill="#63b8ff" stroke="#63b8ff" points="178.81,-46.29 185.19,-54.75 185.47,-44.16 178.81,-46.29"/>
</g>
<!-- Node3&#45;&gt;Node5 -->
<g id="edge4" class="edge">
<title>Node3&#45;&gt;Node5</title>
<path fill="none" stroke="#63b8ff" d="M212.26,-49.97C229.63,-40.28 252.49,-27.52 267.46,-19.17"/>
<polygon fill="#63b8ff" stroke="#63b8ff" points="210.29,-47.06 203.26,-54.98 213.7,-53.17 210.29,-47.06"/>
</g>
<!-- Node6&#45;&gt;Node4 -->
<g id="edge8" class="edge">
<title>Node6&#45;&gt;Node4</title>
<path fill="none" stroke="#63b8ff" d="M92.77,-50.37C111.87,-40.63 137.37,-27.64 153.99,-19.17"/>
<polygon fill="#63b8ff" stroke="#63b8ff" points="91.03,-47.33 83.71,-54.98 94.21,-53.56 91.03,-47.33"/>
</g>
<!-- Node6&#45;&gt;Node5 -->
<g id="edge9" class="edge">
<title>Node6&#45;&gt;Node5</title>
<path fill="none" stroke="#63b8ff" d="M111.57,-52.56C152.02,-42.64 210.87,-28.2 248.02,-19.08"/>
<polygon fill="#63b8ff" stroke="#63b8ff" points="110.58,-49.2 101.7,-54.98 112.25,-56 110.58,-49.2"/>
</g>
<!-- Node7 -->
<g id="node7" class="node">
<title>Node7</title>
<g id="a_node7"><a xlink:href="BMS_8cpp.html" target="_top" xlink:title=" ">
<polygon fill="white" stroke="#666666" points="98,-19 0,-19 0,0 98,0 98,-19"/>
<text text-anchor="middle" x="49" y="-7" font-family="Helvetica,sans-Serif" font-size="10.00">lib/BMS/BMS.cpp</text>
</a>
</g>
</g>
<!-- Node6&#45;&gt;Node7 -->
<g id="edge7" class="edge">
<title>Node6&#45;&gt;Node7</title>
<path fill="none" stroke="#63b8ff" d="M60.8,-45.24C57.79,-36.37 54.31,-26.14 51.92,-19.09"/>
<polygon fill="#63b8ff" stroke="#63b8ff" points="57.5,-46.4 64.03,-54.75 64.13,-44.15 57.5,-46.4"/>
</g>
<!-- Node9 -->
<g id="node9" class="node">
<title>Node9</title>
<g id="a_node9"><a xlink:href="Debug__can_8cpp.html" target="_top" xlink:title=" ">
<polygon fill="white" stroke="#666666" points="676,-74 536,-74 536,-55 676,-55 676,-74"/>
<text text-anchor="middle" x="606" y="-62" font-family="Helvetica,sans-Serif" font-size="10.00">lib/Debug/Debug_can.cpp</text>
</a>
</g>
</g>
<!-- Node8&#45;&gt;Node9 -->
<g id="edge11" class="edge">
<title>Node8&#45;&gt;Node9</title>
<path fill="none" stroke="#63b8ff" d="M604.71,-99.66C605.04,-90.93 605.42,-80.99 605.68,-74.09"/>
<polygon fill="#63b8ff" stroke="#63b8ff" points="601.21,-99.62 604.33,-109.75 608.2,-99.89 601.21,-99.62"/>
</g>
<!-- Node11&#45;&gt;Node10 -->
<g id="edge14" class="edge">
<title>Node11&#45;&gt;Node10</title>
<path fill="none" stroke="#63b8ff" d="M790.45,-99.95C788.29,-91.15 785.82,-81.06 784.11,-74.09"/>
<polygon fill="#63b8ff" stroke="#63b8ff" points="787.07,-100.87 792.85,-109.75 793.87,-99.2 787.07,-100.87"/>
</g>
<!-- Node12&#45;&gt;Node5 -->
<g id="edge18" class="edge">
<title>Node12&#45;&gt;Node5</title>
<path fill="none" stroke="#63b8ff" d="M389.1,-102.91C362.6,-79.83 313.85,-37.37 292.94,-19.16"/>
<polygon fill="#63b8ff" stroke="#63b8ff" points="387.01,-105.73 396.85,-109.66 391.61,-100.45 387.01,-105.73"/>
</g>
<!-- Node12&#45;&gt;Node13 -->
<g id="edge16" class="edge">
<title>Node12&#45;&gt;Node13</title>
<path fill="none" stroke="#63b8ff" d="M412.61,-100.82C417.99,-91.82 425.56,-81.29 432.03,-74.09"/>
<polygon fill="#63b8ff" stroke="#63b8ff" points="409.45,-99.29 407.78,-109.75 415.61,-102.61 409.45,-99.29"/>
</g>
<!-- Node13&#45;&gt;Node12 -->
<g id="edge17" class="edge">
<title>Node13&#45;&gt;Node12</title>
<path fill="none" stroke="#63b8ff" d="M437.52,-82.98C432.16,-91.95 424.6,-102.49 418.11,-109.75"/>
<polygon fill="#63b8ff" stroke="#63b8ff" points="440.64,-84.55 442.3,-74.09 434.48,-81.24 440.64,-84.55"/>
</g>
</g>
</svg>
