<?xml version="1.0" encoding="UTF-8" standalone="no"?>
<!DOCTYPE svg PUBLIC "-//W3C//DTD SVG 1.1//EN"
 "http://www.w3.org/Graphics/SVG/1.1/DTD/svg11.dtd">
<!-- Generated by graphviz version 2.43.0 (0)
 -->
<!-- Title: include/Enums.h Pages: 1 -->
<!--zoomable 192 -->
<svg id="main" version="1.1" xmlns="http://www.w3.org/2000/svg" xmlns:xlink="http://www.w3.org/1999/xlink" xml:space="preserve" onload="init(evt)">
<style type="text/css"><![CDATA[
.edge:hover path { stroke: red; }
.edge:hover polygon { stroke: red; fill: red; }
]]></style>
<script type="text/javascript"><![CDATA[
var edges = document.getElementsByTagName('g');
if (edges && edges.length) {
  for (var i=0;i<edges.length;i++) {
    if (edges[i].id.substr(0,4)=='edge') {
      edges[i].setAttribute('class','edge');
    }
  }
}
]]></script>
        <defs>
                <circle id="rim" cx="0" cy="0" r="7"/>
                <circle id="rim2" cx="0" cy="0" r="3.5"/>
                <g id="zoomPlus">
                        <use xlink:href="#rim" fill="#404040">
                                <set attributeName="fill" to="#808080" begin="zoomplus.mouseover" end="zoomplus.mouseout"/>
                        </use>
                        <path d="M-4,0h8M0,-4v8" fill="none" stroke="white" stroke-width="1.5" pointer-events="none"/>
                </g>
                <g id="zoomMin">
                        <use xlink:href="#rim" fill="#404040">
                                <set attributeName="fill" to="#808080" begin="zoomminus.mouseover" end="zoomminus.mouseout"/>
                        </use>
                        <path d="M-4,0h8" fill="none" stroke="white" stroke-width="1.5" pointer-events="none"/>
                </g>
                <g id="dirArrow">
                        <path fill="none" stroke="white" stroke-width="1.5" d="M0,-3.0v7 M-2.5,-0.5L0,-3.0L2.5,-0.5"/>
                </g>
               <g id="resetDef">
                       <use xlink:href="#rim2" fill="#404040">
                               <set attributeName="fill" to="#808080" begin="reset.mouseover" end="reset.mouseout"/>
                       </use>
               </g>
        </defs>

<script type="text/javascript">
var viewWidth = 1279;
var viewHeight = 192;
var sectionId = 'dynsection-1';
</script>
<script xlink:href="svgpan.js"/>
<svg id="graph" class="graph">
<g id="viewport">
<title>include/Enums.h</title>
<!-- Node1 -->
<g id="node1" class="node">
<title>Node1</title>
<g id="a_node1"><a xlink:title="Enumeration definitions for the VCU.">
<polygon fill="#999999" stroke="#666666" points="859.5,-184 762.5,-184 762.5,-165 859.5,-165 859.5,-184"/>
<text text-anchor="middle" x="811" y="-172" font-family="Helvetica,sans-Serif" font-size="10.00">include/Enums.h</text>
</a>
</g>
</g>
<!-- Node2 -->
<g id="node2" class="node">
<title>Node2</title>
<g id="a_node2"><a xlink:href="CarState_8hpp.html" target="_top" xlink:title="Definition of the CarState structure representing the state of the car.">
<polygon fill="white" stroke="#666666" points="322,-129 204,-129 204,-110 322,-110 322,-129"/>
<text text-anchor="middle" x="263" y="-117" font-family="Helvetica,sans-Serif" font-size="10.00">include/CarState.hpp</text>
</a>
</g>
</g>
<!-- Node1&#45;&gt;Node2 -->
<g id="edge1" class="edge">
<title>Node1&#45;&gt;Node2</title>
<path fill="none" stroke="#63b8ff" d="M752.25,-167.82C647.04,-157.64 427.67,-136.43 322.17,-126.22"/>
<polygon fill="#63b8ff" stroke="#63b8ff" points="752.08,-171.32 762.37,-168.8 752.75,-164.35 752.08,-171.32"/>
</g>
<!-- Node5 -->
<g id="node5" class="node">
<title>Node5</title>
<g id="a_node5"><a xlink:href="main_8cpp.html" target="_top" xlink:title="Main VCU program entry point.">
<polygon fill="white" stroke="#666666" points="473.5,-19 394.5,-19 394.5,0 473.5,0 473.5,-19"/>
<text text-anchor="middle" x="434" y="-7" font-family="Helvetica,sans-Serif" font-size="10.00">src/main.cpp</text>
</a>
</g>
</g>
<!-- Node1&#45;&gt;Node5 -->
<g id="edge28" class="edge">
<title>Node1&#45;&gt;Node5</title>
<path fill="none" stroke="#63b8ff" d="M752.32,-164.85C714.19,-157.99 663.95,-146.58 622,-129 603.14,-121.1 486.59,-45.02 447.08,-19.1"/>
<polygon fill="#63b8ff" stroke="#63b8ff" points="751.79,-168.31 762.24,-166.58 752.99,-161.42 751.79,-168.31"/>
</g>
<!-- Node8 -->
<g id="node8" class="node">
<title>Node8</title>
<g id="a_node8"><a xlink:href="BMS_8cpp.html" target="_top" xlink:title="Implementation of the BMS class for managing the Accumulator (Kclear BMS) via CAN bus.">
<polygon fill="white" stroke="#666666" points="687,-19 589,-19 589,0 687,0 687,-19"/>
<text text-anchor="middle" x="638" y="-7" font-family="Helvetica,sans-Serif" font-size="10.00">lib/BMS/BMS.cpp</text>
</a>
</g>
</g>
<!-- Node1&#45;&gt;Node8 -->
<g id="edge10" class="edge">
<title>Node1&#45;&gt;Node8</title>
<path fill="none" stroke="#63b8ff" d="M827.88,-157.59C851.57,-133.35 889.01,-86.66 863,-55 841.2,-28.46 746.62,-17.48 687.24,-13.14"/>
<polygon fill="#63b8ff" stroke="#63b8ff" points="825.14,-155.38 820.49,-164.9 830.06,-160.36 825.14,-155.38"/>
</g>
<!-- Node9 -->
<g id="node9" class="node">
<title>Node9</title>
<g id="a_node9"><a xlink:href="Debug_8hpp.html" target="_top" xlink:title="Debugging macros and functions for serial and CAN output.">
<polygon fill="white" stroke="#666666" points="493.5,-74 374.5,-74 374.5,-55 493.5,-55 493.5,-74"/>
<text text-anchor="middle" x="434" y="-62" font-family="Helvetica,sans-Serif" font-size="10.00">lib/Debug/Debug.hpp</text>
</a>
</g>
</g>
<!-- Node1&#45;&gt;Node9 -->
<g id="edge11" class="edge">
<title>Node1&#45;&gt;Node9</title>
<path fill="none" stroke="#63b8ff" d="M751.93,-168.75C676.41,-162 550.34,-148.29 508,-129 479.35,-115.95 453.27,-88.34 441.15,-74.22"/>
<polygon fill="#63b8ff" stroke="#63b8ff" points="751.97,-172.27 762.24,-169.65 752.58,-165.29 751.97,-172.27"/>
</g>
<!-- Node10 -->
<g id="node10" class="node">
<title>Node10</title>
<g id="a_node10"><a xlink:href="Debug__can_8hpp.html" target="_top" xlink:title="Declaration of the Debug_CAN namespace for CAN debugging functions.">
<polygon fill="white" stroke="#666666" points="1050.5,-129 909.5,-129 909.5,-110 1050.5,-110 1050.5,-129"/>
<text text-anchor="middle" x="980" y="-117" font-family="Helvetica,sans-Serif" font-size="10.00">lib/Debug/Debug_can.hpp</text>
</a>
</g>
</g>
<!-- Node1&#45;&gt;Node10 -->
<g id="edge15" class="edge">
<title>Node1&#45;&gt;Node10</title>
<path fill="none" stroke="#63b8ff" d="M847.9,-161.93C879.47,-152.03 924.18,-138.01 952.63,-129.08"/>
<polygon fill="#63b8ff" stroke="#63b8ff" points="846.65,-158.65 838.15,-164.98 848.74,-165.33 846.65,-158.65"/>
</g>
<!-- Node12 -->
<g id="node12" class="node">
<title>Node12</title>
<g id="a_node12"><a xlink:href="Debug__serial_8cpp.html" target="_top" xlink:title="Implementation of the Debug_Serial namespace for serial debugging functions.">
<polygon fill="white" stroke="#666666" points="1271,-74 1121,-74 1121,-55 1271,-55 1271,-74"/>
<text text-anchor="middle" x="1196" y="-62" font-family="Helvetica,sans-Serif" font-size="10.00">lib/Debug/Debug_serial.cpp</text>
</a>
</g>
</g>
<!-- Node1&#45;&gt;Node12 -->
<g id="edge17" class="edge">
<title>Node1&#45;&gt;Node12</title>
<path fill="none" stroke="#63b8ff" d="M870.03,-171.49C979.37,-167.15 1204.51,-155.13 1228,-129 1243.02,-112.29 1220.51,-87.25 1206.24,-74.16"/>
<polygon fill="#63b8ff" stroke="#63b8ff" points="869.67,-168 859.82,-171.89 869.94,-175 869.67,-168"/>
</g>
<!-- Node13 -->
<g id="node13" class="node">
<title>Node13</title>
<g id="a_node13"><a xlink:href="Debug__serial_8hpp.html" target="_top" xlink:title="Declaration of the Debug_Serial namespace for serial debugging functions.">
<polygon fill="white" stroke="#666666" points="1219.5,-129 1068.5,-129 1068.5,-110 1219.5,-110 1219.5,-129"/>
<text text-anchor="middle" x="1144" y="-117" font-family="Helvetica,sans-Serif" font-size="10.00">lib/Debug/Debug_serial.hpp</text>
</a>
</g>
</g>
<!-- Node1&#45;&gt;Node13 -->
<g id="edge18" class="edge">
<title>Node1&#45;&gt;Node13</title>
<path fill="none" stroke="#63b8ff" d="M869.86,-164.13C932.29,-154.2 1030.05,-138.64 1090.4,-129.03"/>
<polygon fill="#63b8ff" stroke="#63b8ff" points="869.1,-160.71 859.78,-165.74 870.2,-167.62 869.1,-160.71"/>
</g>
<!-- Node14 -->
<g id="node14" class="node">
<title>Node14</title>
<g id="a_node14"><a xlink:href="Scheduler_8hpp.html" target="_top" xlink:title="Declaration of the Scheduler class template, for scheduling tasks on multiple MCP2515 instances.">
<polygon fill="white" stroke="#666666" points="782.5,-129 631.5,-129 631.5,-110 782.5,-110 782.5,-129"/>
<text text-anchor="middle" x="707" y="-117" font-family="Helvetica,sans-Serif" font-size="10.00">lib/Scheduler/Scheduler.hpp</text>
</a>
</g>
</g>
<!-- Node1&#45;&gt;Node14 -->
<g id="edge20" class="edge">
<title>Node1&#45;&gt;Node14</title>
<path fill="none" stroke="#63b8ff" d="M785.23,-160.37C766.13,-150.63 740.63,-137.64 724.01,-129.17"/>
<polygon fill="#63b8ff" stroke="#63b8ff" points="783.79,-163.56 794.29,-164.98 786.97,-157.33 783.79,-163.56"/>
</g>
<!-- Node16 -->
<g id="node16" class="node">
<title>Node16</title>
<g id="a_node16"><a xlink:href="Scheduler_8tpp.html" target="_top" xlink:title="Implementation of the Scheduler class template.">
<polygon fill="white" stroke="#666666" points="854.5,-74 705.5,-74 705.5,-55 854.5,-55 854.5,-74"/>
<text text-anchor="middle" x="780" y="-62" font-family="Helvetica,sans-Serif" font-size="10.00">lib/Scheduler/Scheduler.tpp</text>
</a>
</g>
</g>
<!-- Node1&#45;&gt;Node16 -->
<g id="edge27" class="edge">
<title>Node1&#45;&gt;Node16</title>
<path fill="none" stroke="#63b8ff" d="M805.63,-154.8C798.86,-131.2 787.49,-91.58 782.49,-74.16"/>
<polygon fill="#63b8ff" stroke="#63b8ff" points="802.34,-156.02 808.46,-164.66 809.07,-154.08 802.34,-156.02"/>
</g>
<!-- Node3 -->
<g id="node3" class="node">
<title>Node3</title>
<g id="a_node3"><a xlink:href="Pedal_8cpp.html" target="_top" xlink:title="Implementation of the Pedal class for handling throttle pedal inputs.">
<polygon fill="white" stroke="#666666" points="317.5,-19 208.5,-19 208.5,0 317.5,0 317.5,-19"/>
<text text-anchor="middle" x="263" y="-7" font-family="Helvetica,sans-Serif" font-size="10.00">lib/Pedal/Pedal.cpp</text>
</a>
</g>
</g>
<!-- Node2&#45;&gt;Node3 -->
<g id="edge2" class="edge">
<title>Node2&#45;&gt;Node3</title>
<path fill="none" stroke="#63b8ff" d="M233.41,-105.47C211.85,-93.94 188.15,-75.76 199,-55 207.84,-38.09 226.36,-26.31 241.21,-19.13"/>
<polygon fill="#63b8ff" stroke="#63b8ff" points="231.91,-108.63 242.42,-109.99 235.05,-102.38 231.91,-108.63"/>
</g>
<!-- Node4 -->
<g id="node4" class="node">
<title>Node4</title>
<g id="a_node4"><a xlink:href="Pedal_8hpp.html" target="_top" xlink:title="Declaration of the Pedal class for handling throttle and brake pedal inputs.">
<polygon fill="white" stroke="#666666" points="318,-74 208,-74 208,-55 318,-55 318,-74"/>
<text text-anchor="middle" x="263" y="-62" font-family="Helvetica,sans-Serif" font-size="10.00">lib/Pedal/Pedal.hpp</text>
</a>
</g>
</g>
<!-- Node2&#45;&gt;Node4 -->
<g id="edge3" class="edge">
<title>Node2&#45;&gt;Node4</title>
<path fill="none" stroke="#63b8ff" d="M263,-99.66C263,-90.93 263,-80.99 263,-74.09"/>
<polygon fill="#63b8ff" stroke="#63b8ff" points="259.5,-99.75 263,-109.75 266.5,-99.75 259.5,-99.75"/>
</g>
<!-- Node2&#45;&gt;Node5 -->
<g id="edge9" class="edge">
<title>Node2&#45;&gt;Node5</title>
<path fill="none" stroke="#63b8ff" d="M285.49,-104.3C321.43,-81.59 390.78,-37.8 420.23,-19.2"/>
<polygon fill="#63b8ff" stroke="#63b8ff" points="283.29,-101.55 276.7,-109.84 287.03,-107.46 283.29,-101.55"/>
</g>
<!-- Node6 -->
<g id="node6" class="node">
<title>Node6</title>
<g id="a_node6"><a xlink:href="Telemetry_8hpp.html" target="_top" xlink:title="Declaration of the Telemetry class for sending telemetry data over CAN bus.">
<polygon fill="white" stroke="#666666" points="152,-74 0,-74 0,-55 152,-55 152,-74"/>
<text text-anchor="middle" x="76" y="-62" font-family="Helvetica,sans-Serif" font-size="10.00">lib/Telemetry/Telemetry.hpp</text>
</a>
</g>
</g>
<!-- Node2&#45;&gt;Node6 -->
<g id="edge6" class="edge">
<title>Node2&#45;&gt;Node6</title>
<path fill="none" stroke="#63b8ff" d="M223.07,-107.18C188.1,-97.27 138.04,-83.08 106.28,-74.08"/>
<polygon fill="#63b8ff" stroke="#63b8ff" points="222.38,-110.63 232.96,-109.98 224.29,-103.89 222.38,-110.63"/>
</g>
<!-- Node4&#45;&gt;Node3 -->
<g id="edge4" class="edge">
<title>Node4&#45;&gt;Node3</title>
<path fill="none" stroke="#63b8ff" d="M263,-44.66C263,-35.93 263,-25.99 263,-19.09"/>
<polygon fill="#63b8ff" stroke="#63b8ff" points="259.5,-44.75 263,-54.75 266.5,-44.75 259.5,-44.75"/>
</g>
<!-- Node4&#45;&gt;Node5 -->
<g id="edge5" class="edge">
<title>Node4&#45;&gt;Node5</title>
<path fill="none" stroke="#63b8ff" d="M300.34,-51.93C332.28,-42.03 377.52,-28.01 406.31,-19.08"/>
<polygon fill="#63b8ff" stroke="#63b8ff" points="298.99,-48.68 290.47,-54.98 301.06,-55.37 298.99,-48.68"/>
</g>
<!-- Node6&#45;&gt;Node5 -->
<g id="edge8" class="edge">
<title>Node6&#45;&gt;Node5</title>
<path fill="none" stroke="#63b8ff" d="M143.67,-53.48C217.7,-42.52 333.85,-25.33 394.36,-16.37"/>
<polygon fill="#63b8ff" stroke="#63b8ff" points="142.9,-50.06 133.52,-54.98 143.92,-56.98 142.9,-50.06"/>
</g>
<!-- Node7 -->
<g id="node7" class="node">
<title>Node7</title>
<g id="a_node7"><a xlink:href="Telemtry_8cpp.html" target="_top" xlink:title=" ">
<polygon fill="white" stroke="#666666" points="148.5,-19 3.5,-19 3.5,0 148.5,0 148.5,-19"/>
<text text-anchor="middle" x="76" y="-7" font-family="Helvetica,sans-Serif" font-size="10.00">lib/Telemetry/Telemtry.cpp</text>
</a>
</g>
</g>
<!-- Node6&#45;&gt;Node7 -->
<g id="edge7" class="edge">
<title>Node6&#45;&gt;Node7</title>
<path fill="none" stroke="#63b8ff" d="M76,-44.66C76,-35.93 76,-25.99 76,-19.09"/>
<polygon fill="#63b8ff" stroke="#63b8ff" points="72.5,-44.75 76,-54.75 79.5,-44.75 72.5,-44.75"/>
</g>
<!-- Node9&#45;&gt;Node3 -->
<g id="edge13" class="edge">
<title>Node9&#45;&gt;Node3</title>
<path fill="none" stroke="#63b8ff" d="M396.66,-51.93C364.72,-42.03 319.48,-28.01 290.69,-19.08"/>
<polygon fill="#63b8ff" stroke="#63b8ff" points="395.94,-55.37 406.53,-54.98 398.01,-48.68 395.94,-55.37"/>
</g>
<!-- Node9&#45;&gt;Node5 -->
<g id="edge14" class="edge">
<title>Node9&#45;&gt;Node5</title>
<path fill="none" stroke="#63b8ff" d="M434,-44.66C434,-35.93 434,-25.99 434,-19.09"/>
<polygon fill="#63b8ff" stroke="#63b8ff" points="430.5,-44.75 434,-54.75 437.5,-44.75 430.5,-44.75"/>
</g>
<!-- Node9&#45;&gt;Node8 -->
<g id="edge12" class="edge">
<title>Node9&#45;&gt;Node8</title>
<path fill="none" stroke="#63b8ff" d="M476.58,-52.44C514.77,-42.52 570.02,-28.16 604.97,-19.08"/>
<polygon fill="#63b8ff" stroke="#63b8ff" points="475.57,-49.08 466.78,-54.98 477.33,-55.86 475.57,-49.08"/>
</g>
<!-- Node11 -->
<g id="node11" class="node">
<title>Node11</title>
<g id="a_node11"><a xlink:href="Debug__can_8cpp.html" target="_top" xlink:title="Implementation of the Debug_CAN namespace for CAN debugging functions.">
<polygon fill="white" stroke="#666666" points="1050,-74 910,-74 910,-55 1050,-55 1050,-74"/>
<text text-anchor="middle" x="980" y="-62" font-family="Helvetica,sans-Serif" font-size="10.00">lib/Debug/Debug_can.cpp</text>
</a>
</g>
</g>
<!-- Node10&#45;&gt;Node11 -->
<g id="edge16" class="edge">
<title>Node10&#45;&gt;Node11</title>
<path fill="none" stroke="#63b8ff" d="M980,-99.66C980,-90.93 980,-80.99 980,-74.09"/>
<polygon fill="#63b8ff" stroke="#63b8ff" points="976.5,-99.75 980,-109.75 983.5,-99.75 976.5,-99.75"/>
</g>
<!-- Node13&#45;&gt;Node12 -->
<g id="edge19" class="edge">
<title>Node13&#45;&gt;Node12</title>
<path fill="none" stroke="#63b8ff" d="M1159.68,-102.52C1168.84,-93.18 1180.05,-81.75 1187.57,-74.09"/>
<polygon fill="#63b8ff" stroke="#63b8ff" points="1157.09,-100.16 1152.59,-109.75 1162.09,-105.06 1157.09,-100.16"/>
</g>
<!-- Node14&#45;&gt;Node5 -->
<g id="edge26" class="edge">
<title>Node14&#45;&gt;Node5</title>
<path fill="none" stroke="#63b8ff" d="M670.56,-106.71C644.79,-98.16 609.53,-86.03 579,-74 559.56,-66.34 555.13,-63.4 536,-55 507.34,-42.42 474.11,-27.94 453.57,-19"/>
<polygon fill="#63b8ff" stroke="#63b8ff" points="669.7,-110.11 680.29,-109.92 671.89,-103.46 669.7,-110.11"/>
</g>
<!-- Node15 -->
<g id="node15" class="node">
<title>Node15</title>
<g id="a_node15"><a xlink:href="BMS_8hpp.html" target="_top" xlink:title="Declaration of the BMS class for managing the Accumulator (Kclear BMS) via CAN bus.">
<polygon fill="white" stroke="#666666" points="687.5,-74 588.5,-74 588.5,-55 687.5,-55 687.5,-74"/>
<text text-anchor="middle" x="638" y="-62" font-family="Helvetica,sans-Serif" font-size="10.00">lib/BMS/BMS.hpp</text>
</a>
</g>
</g>
<!-- Node14&#45;&gt;Node15 -->
<g id="edge21" class="edge">
<title>Node14&#45;&gt;Node15</title>
<path fill="none" stroke="#63b8ff" d="M687.96,-103.88C675.54,-94.34 659.76,-82.21 649.29,-74.17"/>
<polygon fill="#63b8ff" stroke="#63b8ff" points="685.85,-106.67 695.91,-109.98 690.12,-101.12 685.85,-106.67"/>
</g>
<!-- Node14&#45;&gt;Node16 -->
<g id="edge24" class="edge">
<title>Node14&#45;&gt;Node16</title>
<path fill="none" stroke="#63b8ff" d="M721.38,-103.6C733.39,-94.11 750.21,-82.13 762.91,-74.17"/>
<polygon fill="#63b8ff" stroke="#63b8ff" points="719.12,-100.93 713.61,-109.98 723.56,-106.34 719.12,-100.93"/>
</g>
<!-- Node15&#45;&gt;Node5 -->
<g id="edge23" class="edge">
<title>Node15&#45;&gt;Node5</title>
<path fill="none" stroke="#63b8ff" d="M595.42,-52.44C557.23,-42.52 501.98,-28.16 467.03,-19.08"/>
<polygon fill="#63b8ff" stroke="#63b8ff" points="594.67,-55.86 605.22,-54.98 596.43,-49.08 594.67,-55.86"/>
</g>
<!-- Node15&#45;&gt;Node8 -->
<g id="edge22" class="edge">
<title>Node15&#45;&gt;Node8</title>
<path fill="none" stroke="#63b8ff" d="M638,-44.66C638,-35.93 638,-25.99 638,-19.09"/>
<polygon fill="#63b8ff" stroke="#63b8ff" points="634.5,-44.75 638,-54.75 641.5,-44.75 634.5,-44.75"/>
</g>
<!-- Node16&#45;&gt;Node14 -->
<g id="edge25" class="edge">
<title>Node16&#45;&gt;Node14</title>
<path fill="none" stroke="#63b8ff" d="M765.38,-80.58C753.31,-90.11 736.49,-102.07 723.84,-109.98"/>
<polygon fill="#63b8ff" stroke="#63b8ff" points="767.69,-83.22 773.21,-74.17 763.25,-77.8 767.69,-83.22"/>
</g>
</g>
</svg>
        <g id="navigator" transform="translate(0 0)" fill="#404254">
                <rect fill="#f2f5e9" fill-opacity="0.5" stroke="#606060" stroke-width=".5" x="0" y="0" width="60" height="60"/>
                <use id="zoomplus" xlink:href="#zoomPlus" x="17" y="9" onmousedown="handleZoom(evt,'in')"/>
                <use id="zoomminus" xlink:href="#zoomMin" x="42" y="9" onmousedown="handleZoom(evt,'out')"/>
                <use id="reset" xlink:href="#resetDef" x="30" y="36" onmousedown="handleReset()"/>
                <g id="arrowUp" xlink:href="#dirArrow" transform="translate(30 24)" onmousedown="handlePan(0,-1)">
                  <use xlink:href="#rim" fill="#404040">
                        <set attributeName="fill" to="#808080" begin="arrowUp.mouseover" end="arrowUp.mouseout"/>
                  </use>
                  <path fill="none" stroke="white" stroke-width="1.5" d="M0,-3.0v7 M-2.5,-0.5L0,-3.0L2.5,-0.5"/>
                </g>
                <g id="arrowRight" xlink:href="#dirArrow" transform="rotate(90) translate(36 -43)" onmousedown="handlePan(1,0)">
                  <use xlink:href="#rim" fill="#404040">
                        <set attributeName="fill" to="#808080" begin="arrowRight.mouseover" end="arrowRight.mouseout"/>
                  </use>
                  <path fill="none" stroke="white" stroke-width="1.5" d="M0,-3.0v7 M-2.5,-0.5L0,-3.0L2.5,-0.5"/>
                </g>
                <g id="arrowDown" xlink:href="#dirArrow" transform="rotate(180) translate(-30 -48)" onmousedown="handlePan(0,1)">
                  <use xlink:href="#rim" fill="#404040">
                        <set attributeName="fill" to="#808080" begin="arrowDown.mouseover" end="arrowDown.mouseout"/>
                  </use>
                  <path fill="none" stroke="white" stroke-width="1.5" d="M0,-3.0v7 M-2.5,-0.5L0,-3.0L2.5,-0.5"/>
                </g>
                <g id="arrowLeft" xlink:href="#dirArrow" transform="rotate(270) translate(-36 17)" onmousedown="handlePan(-1,0)">
                  <use xlink:href="#rim" fill="#404040">
                        <set attributeName="fill" to="#808080" begin="arrowLeft.mouseover" end="arrowLeft.mouseout"/>
                  </use>
                  <path fill="none" stroke="white" stroke-width="1.5" d="M0,-3.0v7 M-2.5,-0.5L0,-3.0L2.5,-0.5"/>
                </g>
        </g>
        <svg viewBox="0 0 15 15" width="100%" height="30px" preserveAspectRatio="xMaxYMin meet">
         <g id="arrow_out" transform="scale(0.3 0.3)">
          <a xlink:href="Enums_8h__dep__incl_org.svg" target="_base">
           <rect id="button" ry="5" rx="5" y="6" x="6" height="38" width="38"
                fill="#f2f5e9" fill-opacity="0.5" stroke="#606060" stroke-width="1.0"/>
           <path id="arrow"
             d="M 11.500037,31.436501 C 11.940474,20.09759 22.043105,11.32322 32.158766,21.979434 L 37.068811,17.246167 C 37.068811,17.246167 37.088388,32 37.088388,32 L 22.160133,31.978069 C 22.160133,31.978069 26.997745,27.140456 26.997745,27.140456 C 18.528582,18.264221 13.291696,25.230495 11.500037,31.436501 z"
             style="fill:#404040;"/>
          </a>
         </g>
        </svg>
</svg>
