<?xml version="1.0" encoding="UTF-8" standalone="no"?>
<!DOCTYPE svg PUBLIC "-//W3C//DTD SVG 1.1//EN"
 "http://www.w3.org/Graphics/SVG/1.1/DTD/svg11.dtd">
<!-- Generated by graphviz version 2.43.0 (0)
 -->
<!-- Title: include/Enums.h Pages: 1 -->
<!--zoomable 192 -->
<svg id="main" version="1.1" xmlns="http://www.w3.org/2000/svg" xmlns:xlink="http://www.w3.org/1999/xlink" xml:space="preserve" onload="init(evt)">
<style type="text/css"><![CDATA[
.edge:hover path { stroke: red; }
.edge:hover polygon { stroke: red; fill: red; }
]]></style>
<script type="text/javascript"><![CDATA[
var edges = document.getElementsByTagName('g');
if (edges && edges.length) {
  for (var i=0;i<edges.length;i++) {
    if (edges[i].id.substr(0,4)=='edge') {
      edges[i].setAttribute('class','edge');
    }
  }
}
]]></script>
        <defs>
                <circle id="rim" cx="0" cy="0" r="7"/>
                <circle id="rim2" cx="0" cy="0" r="3.5"/>
                <g id="zoomPlus">
                        <use xlink:href="#rim" fill="#404040">
                                <set attributeName="fill" to="#808080" begin="zoomplus.mouseover" end="zoomplus.mouseout"/>
                        </use>
                        <path d="M-4,0h8M0,-4v8" fill="none" stroke="white" stroke-width="1.5" pointer-events="none"/>
                </g>
                <g id="zoomMin">
                        <use xlink:href="#rim" fill="#404040">
                                <set attributeName="fill" to="#808080" begin="zoomminus.mouseover" end="zoomminus.mouseout"/>
                        </use>
                        <path d="M-4,0h8" fill="none" stroke="white" stroke-width="1.5" pointer-events="none"/>
                </g>
                <g id="dirArrow">
                        <path fill="none" stroke="white" stroke-width="1.5" d="M0,-3.0v7 M-2.5,-0.5L0,-3.0L2.5,-0.5"/>
                </g>
               <g id="resetDef">
                       <use xlink:href="#rim2" fill="#404040">
                               <set attributeName="fill" to="#808080" begin="reset.mouseover" end="reset.mouseout"/>
                       </use>
               </g>
        </defs>

<script type="text/javascript">
var viewWidth = 993;
var viewHeight = 192;
var sectionId = 'dynsection-0';
</script>
<script xlink:href="svgpan.js"/>
<svg id="graph" class="graph">
<g id="viewport">
<title>include/Enums.h</title>
<!-- Node1 -->
<g id="node1" class="node">
<title>Node1</title>
<g id="a_node1"><a xlink:title="Enumeration definitions for the VCU.">
<polygon fill="#999999" stroke="#666666" points="580.88,-184 483.88,-184 483.88,-165 580.88,-165 580.88,-184"/>
<text text-anchor="middle" x="532.38" y="-172" font-family="Helvetica,sans-Serif" font-size="10.00">include/Enums.h</text>
</a>
</g>
</g>
<!-- Node2 -->
<g id="node2" class="node">
<title>Node2</title>
<g id="a_node2"><a xlink:href="CarState_8hpp.html" target="_top" xlink:title="Definition of the CarState structure representing the state of the car.">
<polygon fill="white" stroke="#666666" points="143.38,-129 25.38,-129 25.38,-110 143.38,-110 143.38,-129"/>
<text text-anchor="middle" x="84.38" y="-117" font-family="Helvetica,sans-Serif" font-size="10.00">include/CarState.hpp</text>
</a>
</g>
</g>
<!-- Node1&#45;&gt;Node2 -->
<g id="edge1" class="edge">
<title>Node1&#45;&gt;Node2</title>
<path fill="none" stroke="#63b8ff" d="M473.51,-166.53C387.83,-156.4 229.68,-137.69 143.74,-127.52"/>
<polygon fill="#63b8ff" stroke="#63b8ff" points="473.24,-170.03 483.59,-167.73 474.07,-163.08 473.24,-170.03"/>
</g>
<!-- Node5 -->
<g id="node5" class="node">
<title>Node5</title>
<g id="a_node5"><a xlink:href="main_8cpp.html" target="_top" xlink:title=" ">
<polygon fill="white" stroke="#666666" points="264.88,-19 185.88,-19 185.88,0 264.88,0 264.88,-19"/>
<text text-anchor="middle" x="225.38" y="-7" font-family="Helvetica,sans-Serif" font-size="10.00">src/main.cpp</text>
</a>
</g>
</g>
<!-- Node1&#45;&gt;Node5 -->
<g id="edge24" class="edge">
<title>Node1&#45;&gt;Node5</title>
<path fill="none" stroke="#63b8ff" d="M473.71,-164.36C388.62,-149.73 237.77,-118.14 207.38,-74 195.56,-56.82 209.64,-31.97 218.77,-19.04"/>
<polygon fill="#63b8ff" stroke="#63b8ff" points="473.3,-167.84 483.75,-166.06 474.47,-160.94 473.3,-167.84"/>
</g>
<!-- Node6 -->
<g id="node6" class="node">
<title>Node6</title>
<g id="a_node6"><a xlink:href="Debug_8hpp.html" target="_top" xlink:title="Debugging macros and functions for serial and CAN output.">
<polygon fill="white" stroke="#666666" points="335.88,-74 216.88,-74 216.88,-55 335.88,-55 335.88,-74"/>
<text text-anchor="middle" x="276.38" y="-62" font-family="Helvetica,sans-Serif" font-size="10.00">lib/Debug/Debug.hpp</text>
</a>
</g>
</g>
<!-- Node1&#45;&gt;Node6 -->
<g id="edge7" class="edge">
<title>Node1&#45;&gt;Node6</title>
<path fill="none" stroke="#63b8ff" d="M491.09,-162.15C463.53,-154.08 426.74,-142.34 395.38,-129 356.16,-112.32 312.56,-87.26 290.63,-74.17"/>
<polygon fill="#63b8ff" stroke="#63b8ff" points="490.22,-165.55 500.79,-164.96 492.16,-158.82 490.22,-165.55"/>
</g>
<!-- Node8 -->
<g id="node8" class="node">
<title>Node8</title>
<g id="a_node8"><a xlink:href="Debug__can_8hpp.html" target="_top" xlink:title="Declaration of the Debug_CAN namespace for CAN debugging functions.">
<polygon fill="white" stroke="#666666" points="765.88,-129 624.88,-129 624.88,-110 765.88,-110 765.88,-129"/>
<text text-anchor="middle" x="695.38" y="-117" font-family="Helvetica,sans-Serif" font-size="10.00">lib/Debug/Debug_can.hpp</text>
</a>
</g>
</g>
<!-- Node1&#45;&gt;Node8 -->
<g id="edge11" class="edge">
<title>Node1&#45;&gt;Node8</title>
<path fill="none" stroke="#63b8ff" d="M568.37,-161.8C598.79,-151.91 641.66,-137.97 668.99,-129.08"/>
<polygon fill="#63b8ff" stroke="#63b8ff" points="567,-158.56 558.57,-164.98 569.16,-165.22 567,-158.56"/>
</g>
<!-- Node10 -->
<g id="node10" class="node">
<title>Node10</title>
<g id="a_node10"><a xlink:href="Debug__serial_8cpp.html" target="_top" xlink:title="Implementation of the Debug_Serial namespace for serial debugging functions.">
<polygon fill="white" stroke="#666666" points="985.38,-74 835.38,-74 835.38,-55 985.38,-55 985.38,-74"/>
<text text-anchor="middle" x="910.38" y="-62" font-family="Helvetica,sans-Serif" font-size="10.00">lib/Debug/Debug_serial.cpp</text>
</a>
</g>
</g>
<!-- Node1&#45;&gt;Node10 -->
<g id="edge13" class="edge">
<title>Node1&#45;&gt;Node10</title>
<path fill="none" stroke="#63b8ff" d="M590.95,-166.98C640.6,-160.46 713.28,-148.53 774.38,-129 798.09,-121.42 862.12,-89.81 893.12,-74.24"/>
<polygon fill="#63b8ff" stroke="#63b8ff" points="590.5,-163.51 581.02,-168.26 591.39,-170.46 590.5,-163.51"/>
</g>
<!-- Node11 -->
<g id="node11" class="node">
<title>Node11</title>
<g id="a_node11"><a xlink:href="Debug__serial_8hpp.html" target="_top" xlink:title="Declaration of the Debug_Serial namespace for serial debugging functions.">
<polygon fill="white" stroke="#666666" points="982.88,-129 831.88,-129 831.88,-110 982.88,-110 982.88,-129"/>
<text text-anchor="middle" x="907.38" y="-117" font-family="Helvetica,sans-Serif" font-size="10.00">lib/Debug/Debug_serial.hpp</text>
</a>
</g>
</g>
<!-- Node1&#45;&gt;Node11 -->
<g id="edge14" class="edge">
<title>Node1&#45;&gt;Node11</title>
<path fill="none" stroke="#63b8ff" d="M590.97,-165.22C660.7,-155.36 776.55,-138.99 847.05,-129.03"/>
<polygon fill="#63b8ff" stroke="#63b8ff" points="590.43,-161.76 581.02,-166.63 591.41,-168.69 590.43,-161.76"/>
</g>
<!-- Node12 -->
<g id="node12" class="node">
<title>Node12</title>
<g id="a_node12"><a xlink:href="Scheduler_8hpp.html" target="_top" xlink:title="Declaration of the Scheduler class template, for scheduling tasks on multiple MCP2515 instances.">
<polygon fill="white" stroke="#666666" points="555.88,-129 404.88,-129 404.88,-110 555.88,-110 555.88,-129"/>
<text text-anchor="middle" x="480.38" y="-117" font-family="Helvetica,sans-Serif" font-size="10.00">lib/Scheduler/Scheduler.hpp</text>
</a>
</g>
</g>
<!-- Node1&#45;&gt;Node12 -->
<g id="edge16" class="edge">
<title>Node1&#45;&gt;Node12</title>
<path fill="none" stroke="#63b8ff" d="M516.7,-157.52C507.54,-148.18 496.33,-136.75 488.81,-129.09"/>
<polygon fill="#63b8ff" stroke="#63b8ff" points="514.29,-160.06 523.8,-164.75 519.29,-155.16 514.29,-160.06"/>
</g>
<!-- Node14 -->
<g id="node14" class="node">
<title>Node14</title>
<g id="a_node14"><a xlink:href="Scheduler_8tpp.html" target="_top" xlink:title="Implementation of the Scheduler class template.">
<polygon fill="white" stroke="#666666" points="658.88,-74 509.88,-74 509.88,-55 658.88,-55 658.88,-74"/>
<text text-anchor="middle" x="584.38" y="-62" font-family="Helvetica,sans-Serif" font-size="10.00">lib/Scheduler/Scheduler.tpp</text>
</a>
</g>
</g>
<!-- Node1&#45;&gt;Node14 -->
<g id="edge23" class="edge">
<title>Node1&#45;&gt;Node14</title>
<path fill="none" stroke="#63b8ff" d="M546.19,-156.99C552.4,-148.94 559.44,-138.87 564.38,-129 573.7,-110.4 579.8,-86.56 582.6,-74.05"/>
<polygon fill="#63b8ff" stroke="#63b8ff" points="543.42,-154.85 539.9,-164.84 548.88,-159.22 543.42,-154.85"/>
</g>
<!-- Node3 -->
<g id="node3" class="node">
<title>Node3</title>
<g id="a_node3"><a xlink:href="Pedal_8cpp.html" target="_top" xlink:title="Implementation of the Pedal class for handling throttle pedal inputs.">
<polygon fill="white" stroke="#666666" points="121.88,-19 12.88,-19 12.88,0 121.88,0 121.88,-19"/>
<text text-anchor="middle" x="67.38" y="-7" font-family="Helvetica,sans-Serif" font-size="10.00">lib/Pedal/Pedal.cpp</text>
</a>
</g>
</g>
<!-- Node2&#45;&gt;Node3 -->
<g id="edge2" class="edge">
<title>Node2&#45;&gt;Node3</title>
<path fill="none" stroke="#63b8ff" d="M43.52,-106.12C28.14,-99.26 12.24,-88.98 3.38,-74 -10.33,-50.83 23.28,-30.13 46.8,-19.04"/>
<polygon fill="#63b8ff" stroke="#63b8ff" points="42.38,-109.44 52.96,-109.97 45.02,-102.96 42.38,-109.44"/>
</g>
<!-- Node4 -->
<g id="node4" class="node">
<title>Node4</title>
<g id="a_node4"><a xlink:href="Pedal_8hpp.html" target="_top" xlink:title=" ">
<polygon fill="white" stroke="#666666" points="122.38,-74 12.38,-74 12.38,-55 122.38,-55 122.38,-74"/>
<text text-anchor="middle" x="67.38" y="-62" font-family="Helvetica,sans-Serif" font-size="10.00">lib/Pedal/Pedal.hpp</text>
</a>
</g>
</g>
<!-- Node2&#45;&gt;Node4 -->
<g id="edge3" class="edge">
<title>Node2&#45;&gt;Node4</title>
<path fill="none" stroke="#63b8ff" d="M78.43,-99.95C75.61,-91.15 72.37,-81.06 70.14,-74.09"/>
<polygon fill="#63b8ff" stroke="#63b8ff" points="75.19,-101.29 81.57,-109.75 81.85,-99.16 75.19,-101.29"/>
</g>
<!-- Node2&#45;&gt;Node5 -->
<g id="edge6" class="edge">
<title>Node2&#45;&gt;Node5</title>
<path fill="none" stroke="#63b8ff" d="M103.96,-103.5C133.9,-80.57 190.1,-37.52 214.08,-19.16"/>
<polygon fill="#63b8ff" stroke="#63b8ff" points="101.73,-100.8 95.92,-109.66 105.99,-106.36 101.73,-100.8"/>
</g>
<!-- Node4&#45;&gt;Node3 -->
<g id="edge4" class="edge">
<title>Node4&#45;&gt;Node3</title>
<path fill="none" stroke="#63b8ff" d="M67.38,-44.66C67.38,-35.93 67.38,-25.99 67.38,-19.09"/>
<polygon fill="#63b8ff" stroke="#63b8ff" points="63.88,-44.75 67.38,-54.75 70.88,-44.75 63.88,-44.75"/>
</g>
<!-- Node4&#45;&gt;Node5 -->
<g id="edge5" class="edge">
<title>Node4&#45;&gt;Node5</title>
<path fill="none" stroke="#63b8ff" d="M102.27,-51.8C131.75,-41.91 173.31,-27.97 199.8,-19.08"/>
<polygon fill="#63b8ff" stroke="#63b8ff" points="101.13,-48.49 92.77,-54.98 103.36,-55.12 101.13,-48.49"/>
</g>
<!-- Node6&#45;&gt;Node3 -->
<g id="edge9" class="edge">
<title>Node6&#45;&gt;Node3</title>
<path fill="none" stroke="#63b8ff" d="M233.01,-52.5C193.87,-42.58 137.1,-28.18 101.22,-19.08"/>
<polygon fill="#63b8ff" stroke="#63b8ff" points="232.25,-55.92 242.8,-54.98 233.97,-49.13 232.25,-55.92"/>
</g>
<!-- Node6&#45;&gt;Node5 -->
<g id="edge10" class="edge">
<title>Node6&#45;&gt;Node5</title>
<path fill="none" stroke="#63b8ff" d="M261,-47.52C252.01,-38.18 241.02,-26.75 233.65,-19.09"/>
<polygon fill="#63b8ff" stroke="#63b8ff" points="258.5,-49.97 267.96,-54.75 263.55,-45.12 258.5,-49.97"/>
</g>
<!-- Node7 -->
<g id="node7" class="node">
<title>Node7</title>
<g id="a_node7"><a xlink:href="BMS_8cpp.html" target="_top" xlink:title="Implementation of the BMS class for managing the Accumulator (Kclear BMS) via CAN bus.">
<polygon fill="white" stroke="#666666" points="454.38,-19 356.38,-19 356.38,0 454.38,0 454.38,-19"/>
<text text-anchor="middle" x="405.38" y="-7" font-family="Helvetica,sans-Serif" font-size="10.00">lib/BMS/BMS.cpp</text>
</a>
</g>
</g>
<!-- Node6&#45;&gt;Node7 -->
<g id="edge8" class="edge">
<title>Node6&#45;&gt;Node7</title>
<path fill="none" stroke="#63b8ff" d="M306.42,-51.16C330.3,-41.35 363.11,-27.87 384.28,-19.17"/>
<polygon fill="#63b8ff" stroke="#63b8ff" points="305.03,-47.95 297.11,-54.98 307.69,-54.42 305.03,-47.95"/>
</g>
<!-- Node9 -->
<g id="node9" class="node">
<title>Node9</title>
<g id="a_node9"><a xlink:href="Debug__can_8cpp.html" target="_top" xlink:title="Implementation of the Debug_CAN namespace for CAN debugging functions.">
<polygon fill="white" stroke="#666666" points="817.38,-74 677.38,-74 677.38,-55 817.38,-55 817.38,-74"/>
<text text-anchor="middle" x="747.38" y="-62" font-family="Helvetica,sans-Serif" font-size="10.00">lib/Debug/Debug_can.cpp</text>
</a>
</g>
</g>
<!-- Node8&#45;&gt;Node9 -->
<g id="edge12" class="edge">
<title>Node8&#45;&gt;Node9</title>
<path fill="none" stroke="#63b8ff" d="M711.06,-102.52C720.23,-93.18 731.43,-81.75 738.95,-74.09"/>
<polygon fill="#63b8ff" stroke="#63b8ff" points="708.47,-100.16 703.97,-109.75 713.47,-105.06 708.47,-100.16"/>
</g>
<!-- Node11&#45;&gt;Node10 -->
<g id="edge15" class="edge">
<title>Node11&#45;&gt;Node10</title>
<path fill="none" stroke="#63b8ff" d="M908.45,-99.66C908.94,-90.93 909.51,-80.99 909.9,-74.09"/>
<polygon fill="#63b8ff" stroke="#63b8ff" points="904.95,-99.57 907.88,-109.75 911.94,-99.96 904.95,-99.57"/>
</g>
<!-- Node12&#45;&gt;Node5 -->
<g id="edge22" class="edge">
<title>Node12&#45;&gt;Node5</title>
<path fill="none" stroke="#63b8ff" d="M452.17,-105.77C432.77,-96.96 406.45,-84.91 383.38,-74 365.95,-65.76 362.1,-62.61 344.38,-55 312.36,-41.25 274.54,-27.52 250.27,-19.03"/>
<polygon fill="#63b8ff" stroke="#63b8ff" points="450.81,-108.99 461.36,-109.93 453.7,-102.62 450.81,-108.99"/>
</g>
<!-- Node13 -->
<g id="node13" class="node">
<title>Node13</title>
<g id="a_node13"><a xlink:href="BMS_8hpp.html" target="_top" xlink:title="Declaration of the BMS class for managing the Accumulator (Kclear BMS) via CAN bus.">
<polygon fill="white" stroke="#666666" points="491.88,-74 392.88,-74 392.88,-55 491.88,-55 491.88,-74"/>
<text text-anchor="middle" x="442.38" y="-62" font-family="Helvetica,sans-Serif" font-size="10.00">lib/BMS/BMS.hpp</text>
</a>
</g>
</g>
<!-- Node12&#45;&gt;Node13 -->
<g id="edge17" class="edge">
<title>Node12&#45;&gt;Node13</title>
<path fill="none" stroke="#63b8ff" d="M468.11,-101.39C461.58,-92.27 453.82,-81.45 448.54,-74.09"/>
<polygon fill="#63b8ff" stroke="#63b8ff" points="465.44,-103.66 474.11,-109.75 471.12,-99.58 465.44,-103.66"/>
</g>
<!-- Node12&#45;&gt;Node14 -->
<g id="edge20" class="edge">
<title>Node12&#45;&gt;Node14</title>
<path fill="none" stroke="#63b8ff" d="M500.97,-104.97C518.72,-95.28 544.02,-82.52 562.22,-74.17"/>
<polygon fill="#63b8ff" stroke="#63b8ff" points="499,-102.05 491.98,-109.98 502.41,-108.17 499,-102.05"/>
</g>
<!-- Node13&#45;&gt;Node5 -->
<g id="edge19" class="edge">
<title>Node13&#45;&gt;Node5</title>
<path fill="none" stroke="#63b8ff" d="M397.61,-52.56C356.97,-42.64 297.85,-28.2 260.52,-19.08"/>
<polygon fill="#63b8ff" stroke="#63b8ff" points="396.97,-56.01 407.52,-54.98 398.63,-49.21 396.97,-56.01"/>
</g>
<!-- Node13&#45;&gt;Node7 -->
<g id="edge18" class="edge">
<title>Node13&#45;&gt;Node7</title>
<path fill="none" stroke="#63b8ff" d="M430.44,-46.39C424.07,-37.27 416.52,-26.45 411.38,-19.09"/>
<polygon fill="#63b8ff" stroke="#63b8ff" points="427.68,-48.55 436.27,-54.75 433.42,-44.55 427.68,-48.55"/>
</g>
<!-- Node14&#45;&gt;Node12 -->
<g id="edge21" class="edge">
<title>Node14&#45;&gt;Node12</title>
<path fill="none" stroke="#63b8ff" d="M563.47,-79.22C545.62,-88.94 520.31,-101.69 502.21,-109.98"/>
<polygon fill="#63b8ff" stroke="#63b8ff" points="565.49,-82.1 572.52,-74.17 562.08,-75.98 565.49,-82.1"/>
</g>
</g>
</svg>
        <g id="navigator" transform="translate(0 0)" fill="#404254">
                <rect fill="#f2f5e9" fill-opacity="0.5" stroke="#606060" stroke-width=".5" x="0" y="0" width="60" height="60"/>
                <use id="zoomplus" xlink:href="#zoomPlus" x="17" y="9" onmousedown="handleZoom(evt,'in')"/>
                <use id="zoomminus" xlink:href="#zoomMin" x="42" y="9" onmousedown="handleZoom(evt,'out')"/>
                <use id="reset" xlink:href="#resetDef" x="30" y="36" onmousedown="handleReset()"/>
                <g id="arrowUp" xlink:href="#dirArrow" transform="translate(30 24)" onmousedown="handlePan(0,-1)">
                  <use xlink:href="#rim" fill="#404040">
                        <set attributeName="fill" to="#808080" begin="arrowUp.mouseover" end="arrowUp.mouseout"/>
                  </use>
                  <path fill="none" stroke="white" stroke-width="1.5" d="M0,-3.0v7 M-2.5,-0.5L0,-3.0L2.5,-0.5"/>
                </g>
                <g id="arrowRight" xlink:href="#dirArrow" transform="rotate(90) translate(36 -43)" onmousedown="handlePan(1,0)">
                  <use xlink:href="#rim" fill="#404040">
                        <set attributeName="fill" to="#808080" begin="arrowRight.mouseover" end="arrowRight.mouseout"/>
                  </use>
                  <path fill="none" stroke="white" stroke-width="1.5" d="M0,-3.0v7 M-2.5,-0.5L0,-3.0L2.5,-0.5"/>
                </g>
                <g id="arrowDown" xlink:href="#dirArrow" transform="rotate(180) translate(-30 -48)" onmousedown="handlePan(0,1)">
                  <use xlink:href="#rim" fill="#404040">
                        <set attributeName="fill" to="#808080" begin="arrowDown.mouseover" end="arrowDown.mouseout"/>
                  </use>
                  <path fill="none" stroke="white" stroke-width="1.5" d="M0,-3.0v7 M-2.5,-0.5L0,-3.0L2.5,-0.5"/>
                </g>
                <g id="arrowLeft" xlink:href="#dirArrow" transform="rotate(270) translate(-36 17)" onmousedown="handlePan(-1,0)">
                  <use xlink:href="#rim" fill="#404040">
                        <set attributeName="fill" to="#808080" begin="arrowLeft.mouseover" end="arrowLeft.mouseout"/>
                  </use>
                  <path fill="none" stroke="white" stroke-width="1.5" d="M0,-3.0v7 M-2.5,-0.5L0,-3.0L2.5,-0.5"/>
                </g>
        </g>
        <svg viewBox="0 0 15 15" width="100%" height="30px" preserveAspectRatio="xMaxYMin meet">
         <g id="arrow_out" transform="scale(0.3 0.3)">
          <a xlink:href="Enums_8h__dep__incl_org.svg" target="_base">
           <rect id="button" ry="5" rx="5" y="6" x="6" height="38" width="38"
                fill="#f2f5e9" fill-opacity="0.5" stroke="#606060" stroke-width="1.0"/>
           <path id="arrow"
             d="M 11.500037,31.436501 C 11.940474,20.09759 22.043105,11.32322 32.158766,21.979434 L 37.068811,17.246167 C 37.068811,17.246167 37.088388,32 37.088388,32 L 22.160133,31.978069 C 22.160133,31.978069 26.997745,27.140456 26.997745,27.140456 C 18.528582,18.264221 13.291696,25.230495 11.500037,31.436501 z"
             style="fill:#404040;"/>
          </a>
         </g>
        </svg>
</svg>
