<?xml version="1.0" encoding="UTF-8" standalone="no"?>
<!DOCTYPE svg PUBLIC "-//W3C//DTD SVG 1.1//EN"
 "http://www.w3.org/Graphics/SVG/1.1/DTD/svg11.dtd">
<!-- Generated by graphviz version 2.43.0 (0)
 -->
<!-- Title: vehicle_control_unit/include/Enums.hpp Pages: 1 -->
<svg width="1256pt" height="236pt"
 viewBox="0.00 0.00 1255.67 236.00" xmlns="http://www.w3.org/2000/svg" xmlns:xlink="http://www.w3.org/1999/xlink">
<g id="graph0" class="graph" transform="scale(1 1) rotate(0) translate(4 232)">
<title>vehicle_control_unit/include/Enums.hpp</title>
<!-- Node1 -->
<g id="node1" class="node">
<title>Node1</title>
<g id="a_node1"><a xlink:title="Enumeration definitions for the VCU.">
<polygon fill="#999999" stroke="#666666" points="821.49,-228 706.49,-228 706.49,-198 821.49,-198 821.49,-228"/>
<text text-anchor="start" x="714.49" y="-216" font-family="Helvetica,sans-Serif" font-size="10.00">vehicle_control_unit</text>
<text text-anchor="middle" x="763.99" y="-205" font-family="Helvetica,sans-Serif" font-size="10.00">/include/Enums.hpp</text>
</a>
</g>
</g>
<!-- Node2 -->
<g id="node2" class="node">
<title>Node2</title>
<g id="a_node2"><a xlink:href="CarState_8hpp.html" target="_top" xlink:title="Definition of the CarState structure representing the state of the car.">
<polygon fill="white" stroke="#666666" points="379.49,-162 258.49,-162 258.49,-132 379.49,-132 379.49,-162"/>
<text text-anchor="start" x="266.49" y="-150" font-family="Helvetica,sans-Serif" font-size="10.00">vehicle_control_unit</text>
<text text-anchor="middle" x="318.99" y="-139" font-family="Helvetica,sans-Serif" font-size="10.00">/include/CarState.hpp</text>
</a>
</g>
</g>
<!-- Node1&#45;&gt;Node2 -->
<g id="edge1" class="edge">
<title>Node1&#45;&gt;Node2</title>
<path fill="none" stroke="#63b8ff" d="M696.02,-203.85C621.68,-194.7 499.12,-178.9 393.99,-162 389.28,-161.24 384.41,-160.42 379.53,-159.57"/>
<polygon fill="#63b8ff" stroke="#63b8ff" points="695.83,-207.36 706.18,-205.1 696.68,-200.41 695.83,-207.36"/>
</g>
<!-- Node3 -->
<g id="node3" class="node">
<title>Node3</title>
<g id="a_node3"><a xlink:href="BMS_8cpp.html" target="_top" xlink:title="Implementation of the BMS class for managing the Accumulator (Kclear BMS) via CAN bus.">
<polygon fill="white" stroke="#666666" points="870.49,-30 755.49,-30 755.49,0 870.49,0 870.49,-30"/>
<text text-anchor="start" x="763.49" y="-18" font-family="Helvetica,sans-Serif" font-size="10.00">vehicle_control_unit</text>
<text text-anchor="middle" x="812.99" y="-7" font-family="Helvetica,sans-Serif" font-size="10.00">/lib/BMS/BMS.cpp</text>
</a>
</g>
</g>
<!-- Node1&#45;&gt;Node3 -->
<g id="edge14" class="edge">
<title>Node1&#45;&gt;Node3</title>
<path fill="none" stroke="#63b8ff" d="M831.81,-207.91C928.96,-201.3 1102.39,-186.46 1159.99,-162 1203.05,-143.71 1221.79,-138.2 1241.99,-96 1247.75,-83.97 1250.86,-75.96 1241.99,-66 1217.72,-38.73 982.1,-24.02 870.74,-18.53"/>
<polygon fill="#63b8ff" stroke="#63b8ff" points="831.53,-204.42 821.79,-208.58 832,-211.4 831.53,-204.42"/>
</g>
<!-- Node5 -->
<g id="node5" class="node">
<title>Node5</title>
<g id="a_node5"><a xlink:href="main_8cpp.html" target="_top" xlink:title="Main VCU program entry point.">
<polygon fill="white" stroke="#666666" points="465.49,-30 350.49,-30 350.49,0 465.49,0 465.49,-30"/>
<text text-anchor="start" x="358.49" y="-18" font-family="Helvetica,sans-Serif" font-size="10.00">vehicle_control_unit</text>
<text text-anchor="middle" x="407.99" y="-7" font-family="Helvetica,sans-Serif" font-size="10.00">/src/main.cpp</text>
</a>
</g>
</g>
<!-- Node1&#45;&gt;Node5 -->
<g id="edge32" class="edge">
<title>Node1&#45;&gt;Node5</title>
<path fill="none" stroke="#63b8ff" d="M696.32,-205.85C623.67,-198.26 513.85,-183.64 477.99,-162 446.25,-142.85 442.97,-129.45 426.99,-96 416.66,-74.36 411.7,-46.67 409.52,-30.19"/>
<polygon fill="#63b8ff" stroke="#63b8ff" points="696.01,-209.33 706.31,-206.87 696.72,-202.37 696.01,-209.33"/>
</g>
<!-- Node10 -->
<g id="node10" class="node">
<title>Node10</title>
<g id="a_node10"><a xlink:href="Debug_8hpp.html" target="_top" xlink:title="Debugging macros and functions for serial and CAN output.">
<polygon fill="white" stroke="#666666" points="719.99,-96 597.99,-96 597.99,-66 719.99,-66 719.99,-96"/>
<text text-anchor="start" x="605.99" y="-84" font-family="Helvetica,sans-Serif" font-size="10.00">vehicle_control_unit</text>
<text text-anchor="middle" x="658.99" y="-73" font-family="Helvetica,sans-Serif" font-size="10.00">/lib/Debug/Debug.hpp</text>
</a>
</g>
</g>
<!-- Node1&#45;&gt;Node10 -->
<g id="edge15" class="edge">
<title>Node1&#45;&gt;Node10</title>
<path fill="none" stroke="#63b8ff" d="M716.41,-193.22C702.18,-185.49 687.79,-175.19 677.99,-162 663.44,-142.4 659.85,-113.29 659.07,-96.12"/>
<polygon fill="#63b8ff" stroke="#63b8ff" points="715.18,-196.52 725.68,-197.93 718.35,-190.28 715.18,-196.52"/>
</g>
<!-- Node11 -->
<g id="node11" class="node">
<title>Node11</title>
<g id="a_node11"><a xlink:href="Debug__can_8hpp.html" target="_top" xlink:title="Declaration of the Debug_CAN namespace for CAN debugging functions.">
<polygon fill="white" stroke="#666666" points="630.99,-162 486.99,-162 486.99,-132 630.99,-132 630.99,-162"/>
<text text-anchor="start" x="494.99" y="-150" font-family="Helvetica,sans-Serif" font-size="10.00">vehicle_control_unit</text>
<text text-anchor="middle" x="558.99" y="-139" font-family="Helvetica,sans-Serif" font-size="10.00">/lib/Debug/Debug_can.hpp</text>
</a>
</g>
</g>
<!-- Node1&#45;&gt;Node11 -->
<g id="edge19" class="edge">
<title>Node1&#45;&gt;Node11</title>
<path fill="none" stroke="#63b8ff" d="M709.08,-194.86C676.16,-184.58 634.83,-171.68 603.87,-162.01"/>
<polygon fill="#63b8ff" stroke="#63b8ff" points="708.41,-198.32 719,-197.95 710.5,-191.63 708.41,-198.32"/>
</g>
<!-- Node13 -->
<g id="node13" class="node">
<title>Node13</title>
<g id="a_node13"><a xlink:href="Debug__serial_8cpp.html" target="_top" xlink:title="Implementation of the Debug_Serial namespace for serial debugging functions.">
<polygon fill="white" stroke="#666666" points="891.49,-96 738.49,-96 738.49,-66 891.49,-66 891.49,-96"/>
<text text-anchor="start" x="746.49" y="-84" font-family="Helvetica,sans-Serif" font-size="10.00">vehicle_control_unit</text>
<text text-anchor="middle" x="814.99" y="-73" font-family="Helvetica,sans-Serif" font-size="10.00">/lib/Debug/Debug_serial.cpp</text>
</a>
</g>
</g>
<!-- Node1&#45;&gt;Node13 -->
<g id="edge22" class="edge">
<title>Node1&#45;&gt;Node13</title>
<path fill="none" stroke="#63b8ff" d="M815.69,-193.25C829.24,-185.71 842.22,-175.51 849.99,-162 862.69,-139.92 843.65,-112.37 829.06,-96.03"/>
<polygon fill="#63b8ff" stroke="#63b8ff" points="814.06,-190.15 806.76,-197.83 817.25,-196.38 814.06,-190.15"/>
</g>
<!-- Node14 -->
<g id="node14" class="node">
<title>Node14</title>
<g id="a_node14"><a xlink:href="Debug__serial_8hpp.html" target="_top" xlink:title="Declaration of the Debug_Serial namespace for serial debugging functions.">
<polygon fill="white" stroke="#666666" points="840.99,-162 686.99,-162 686.99,-132 840.99,-132 840.99,-162"/>
<text text-anchor="start" x="694.99" y="-150" font-family="Helvetica,sans-Serif" font-size="10.00">vehicle_control_unit</text>
<text text-anchor="middle" x="763.99" y="-139" font-family="Helvetica,sans-Serif" font-size="10.00">/lib/Debug/Debug_serial.hpp</text>
</a>
</g>
</g>
<!-- Node1&#45;&gt;Node14 -->
<g id="edge23" class="edge">
<title>Node1&#45;&gt;Node14</title>
<path fill="none" stroke="#63b8ff" d="M763.99,-187.54C763.99,-178.96 763.99,-169.61 763.99,-162.16"/>
<polygon fill="#63b8ff" stroke="#63b8ff" points="760.49,-187.8 763.99,-197.8 767.49,-187.8 760.49,-187.8"/>
</g>
<!-- Node15 -->
<g id="node15" class="node">
<title>Node15</title>
<g id="a_node15"><a xlink:href="Scheduler_8hpp.html" target="_top" xlink:title="Declaration of the Scheduler class template, for scheduling tasks on multiple MCP2515 instances.">
<polygon fill="white" stroke="#666666" points="1128.99,-162 974.99,-162 974.99,-132 1128.99,-132 1128.99,-162"/>
<text text-anchor="start" x="982.99" y="-150" font-family="Helvetica,sans-Serif" font-size="10.00">vehicle_control_unit</text>
<text text-anchor="middle" x="1051.99" y="-139" font-family="Helvetica,sans-Serif" font-size="10.00">/lib/Scheduler/Scheduler.hpp</text>
</a>
</g>
</g>
<!-- Node1&#45;&gt;Node15 -->
<g id="edge26" class="edge">
<title>Node1&#45;&gt;Node15</title>
<path fill="none" stroke="#63b8ff" d="M831.47,-197C879,-186.44 942.19,-172.4 988.75,-162.05"/>
<polygon fill="#63b8ff" stroke="#63b8ff" points="830.58,-193.62 821.58,-199.2 832.1,-200.45 830.58,-193.62"/>
</g>
<!-- Node16 -->
<g id="node16" class="node">
<title>Node16</title>
<g id="a_node16"><a xlink:href="Scheduler_8tpp.html" target="_top" xlink:title="Implementation of the Scheduler class template.">
<polygon fill="white" stroke="#666666" points="1232.99,-96 1080.99,-96 1080.99,-66 1232.99,-66 1232.99,-96"/>
<text text-anchor="start" x="1088.99" y="-84" font-family="Helvetica,sans-Serif" font-size="10.00">vehicle_control_unit</text>
<text text-anchor="middle" x="1156.99" y="-73" font-family="Helvetica,sans-Serif" font-size="10.00">/lib/Scheduler/Scheduler.tpp</text>
</a>
</g>
</g>
<!-- Node1&#45;&gt;Node16 -->
<g id="edge31" class="edge">
<title>Node1&#45;&gt;Node16</title>
<path fill="none" stroke="#63b8ff" d="M831.83,-211.85C927.23,-210.2 1094.28,-201.53 1137.99,-162 1156.41,-145.34 1158.57,-114.37 1158.06,-96.24"/>
<polygon fill="#63b8ff" stroke="#63b8ff" points="831.65,-208.35 821.7,-212.01 831.75,-215.35 831.65,-208.35"/>
</g>
<!-- Node2&#45;&gt;Node3 -->
<g id="edge2" class="edge">
<title>Node2&#45;&gt;Node3</title>
<path fill="none" stroke="#63b8ff" d="M340.35,-124.92C360.77,-106.13 393.36,-79.55 426.99,-66 485.28,-42.5 662.63,-26.76 755.27,-19.9"/>
<polygon fill="#63b8ff" stroke="#63b8ff" points="337.76,-122.54 332.88,-131.94 342.56,-127.64 337.76,-122.54"/>
</g>
<!-- Node4 -->
<g id="node4" class="node">
<title>Node4</title>
<g id="a_node4"><a xlink:href="BMS_8hpp.html" target="_top" xlink:title="Declaration of the BMS class for managing the Accumulator (Kclear BMS) via CAN bus.">
<polygon fill="white" stroke="#666666" points="1024.49,-96 909.49,-96 909.49,-66 1024.49,-66 1024.49,-96"/>
<text text-anchor="start" x="917.49" y="-84" font-family="Helvetica,sans-Serif" font-size="10.00">vehicle_control_unit</text>
<text text-anchor="middle" x="966.99" y="-73" font-family="Helvetica,sans-Serif" font-size="10.00">/lib/BMS/BMS.hpp</text>
</a>
</g>
</g>
<!-- Node2&#45;&gt;Node4 -->
<g id="edge3" class="edge">
<title>Node2&#45;&gt;Node4</title>
<path fill="none" stroke="#63b8ff" d="M390.07,-139.7C417.54,-137.28 449.23,-134.49 477.99,-132 665.52,-115.74 713.74,-123.3 899.99,-96 903.05,-95.55 906.17,-95.05 909.33,-94.51"/>
<polygon fill="#63b8ff" stroke="#63b8ff" points="389.42,-136.24 379.77,-140.61 390.04,-143.22 389.42,-136.24"/>
</g>
<!-- Node2&#45;&gt;Node5 -->
<g id="edge13" class="edge">
<title>Node2&#45;&gt;Node5</title>
<path fill="none" stroke="#63b8ff" d="M327.24,-122.34C333.66,-105.72 343.56,-83.44 355.99,-66 365.58,-52.54 379.11,-39.66 389.96,-30.35"/>
<polygon fill="#63b8ff" stroke="#63b8ff" points="323.91,-121.27 323.71,-131.86 330.47,-123.71 323.91,-121.27"/>
</g>
<!-- Node6 -->
<g id="node6" class="node">
<title>Node6</title>
<g id="a_node6"><a xlink:href="Pedal_8cpp.html" target="_top" xlink:title="Implementation of the Pedal class for handling throttle pedal inputs.">
<polygon fill="white" stroke="#666666" points="130.49,-30 15.49,-30 15.49,0 130.49,0 130.49,-30"/>
<text text-anchor="start" x="23.49" y="-18" font-family="Helvetica,sans-Serif" font-size="10.00">vehicle_control_unit</text>
<text text-anchor="middle" x="72.99" y="-7" font-family="Helvetica,sans-Serif" font-size="10.00">/lib/Pedal/Pedal.cpp</text>
</a>
</g>
</g>
<!-- Node2&#45;&gt;Node6 -->
<g id="edge6" class="edge">
<title>Node2&#45;&gt;Node6</title>
<path fill="none" stroke="#63b8ff" d="M248.3,-144.96C165.73,-142.07 36.5,-131.77 5.99,-96 -13.53,-73.12 20.44,-46.27 46.73,-30.23"/>
<polygon fill="#63b8ff" stroke="#63b8ff" points="248.27,-148.46 258.38,-145.28 248.49,-141.46 248.27,-148.46"/>
</g>
<!-- Node7 -->
<g id="node7" class="node">
<title>Node7</title>
<g id="a_node7"><a xlink:href="Pedal_8hpp.html" target="_top" xlink:title="Declaration of the Pedal class for handling throttle and brake pedal inputs.">
<polygon fill="white" stroke="#666666" points="130.49,-96 15.49,-96 15.49,-66 130.49,-66 130.49,-96"/>
<text text-anchor="start" x="23.49" y="-84" font-family="Helvetica,sans-Serif" font-size="10.00">vehicle_control_unit</text>
<text text-anchor="middle" x="72.99" y="-73" font-family="Helvetica,sans-Serif" font-size="10.00">/lib/Pedal/Pedal.hpp</text>
</a>
</g>
</g>
<!-- Node2&#45;&gt;Node7 -->
<g id="edge7" class="edge">
<title>Node2&#45;&gt;Node7</title>
<path fill="none" stroke="#63b8ff" d="M255.13,-129.39C215.31,-119.03 164.63,-105.84 126.85,-96.01"/>
<polygon fill="#63b8ff" stroke="#63b8ff" points="254.45,-132.82 265,-131.95 256.21,-126.05 254.45,-132.82"/>
</g>
<!-- Node8 -->
<g id="node8" class="node">
<title>Node8</title>
<g id="a_node8"><a xlink:href="Telemetry_8hpp.html" target="_top" xlink:title="Declaration of the Telemetry class for sending telemetry data over CAN bus.">
<polygon fill="white" stroke="#666666" points="303.49,-96 148.49,-96 148.49,-66 303.49,-66 303.49,-96"/>
<text text-anchor="start" x="156.49" y="-84" font-family="Helvetica,sans-Serif" font-size="10.00">vehicle_control_unit</text>
<text text-anchor="middle" x="225.99" y="-73" font-family="Helvetica,sans-Serif" font-size="10.00">/lib/Telemetry/Telemetry.hpp</text>
</a>
</g>
</g>
<!-- Node2&#45;&gt;Node8 -->
<g id="edge10" class="edge">
<title>Node2&#45;&gt;Node8</title>
<path fill="none" stroke="#63b8ff" d="M289.97,-126.03C275.9,-116.34 259.32,-104.94 246.57,-96.16"/>
<polygon fill="#63b8ff" stroke="#63b8ff" points="288.13,-129.01 298.35,-131.8 292.1,-123.24 288.13,-129.01"/>
</g>
<!-- Node4&#45;&gt;Node3 -->
<g id="edge4" class="edge">
<title>Node4&#45;&gt;Node3</title>
<path fill="none" stroke="#63b8ff" d="M923.81,-62.05C899.41,-51.91 869.36,-39.43 846.71,-30.01"/>
<polygon fill="#63b8ff" stroke="#63b8ff" points="922.62,-65.35 933.19,-65.95 925.3,-58.89 922.62,-65.35"/>
</g>
<!-- Node4&#45;&gt;Node5 -->
<g id="edge5" class="edge">
<title>Node4&#45;&gt;Node5</title>
<path fill="none" stroke="#63b8ff" d="M899.11,-65.98C736.29,-41.2 556.12,-26.43 465.81,-19.9"/>
<polygon fill="#63b8ff" stroke="#63b8ff" points="898.9,-69.49 909.32,-67.55 899.96,-62.57 898.9,-69.49"/>
</g>
<!-- Node7&#45;&gt;Node5 -->
<g id="edge9" class="edge">
<title>Node7&#45;&gt;Node5</title>
<path fill="none" stroke="#63b8ff" d="M140.57,-65.71C218.64,-50.26 298.16,-35.68 350.45,-26.26"/>
<polygon fill="#63b8ff" stroke="#63b8ff" points="139.69,-62.32 130.57,-67.7 141.06,-69.18 139.69,-62.32"/>
</g>
<!-- Node7&#45;&gt;Node6 -->
<g id="edge8" class="edge">
<title>Node7&#45;&gt;Node6</title>
<path fill="none" stroke="#63b8ff" d="M72.99,-55.54C72.99,-46.96 72.99,-37.61 72.99,-30.16"/>
<polygon fill="#63b8ff" stroke="#63b8ff" points="69.49,-55.8 72.99,-65.8 76.49,-55.8 69.49,-55.8"/>
</g>
<!-- Node8&#45;&gt;Node5 -->
<g id="edge12" class="edge">
<title>Node8&#45;&gt;Node5</title>
<path fill="none" stroke="#63b8ff" d="M275.5,-62.59C304.6,-52.36 340.9,-39.59 368.14,-30.01"/>
<polygon fill="#63b8ff" stroke="#63b8ff" points="274.2,-59.34 265.93,-65.95 276.53,-65.94 274.2,-59.34"/>
</g>
<!-- Node9 -->
<g id="node9" class="node">
<title>Node9</title>
<g id="a_node9"><a xlink:href="Telemetry_8cpp.html" target="_top" xlink:title="Implementation of the Telemetry class for sending telemetry data over CAN bus.">
<polygon fill="white" stroke="#666666" points="302.99,-30 148.99,-30 148.99,0 302.99,0 302.99,-30"/>
<text text-anchor="start" x="156.99" y="-18" font-family="Helvetica,sans-Serif" font-size="10.00">vehicle_control_unit</text>
<text text-anchor="middle" x="225.99" y="-7" font-family="Helvetica,sans-Serif" font-size="10.00">/lib/Telemetry/Telemetry.cpp</text>
</a>
</g>
</g>
<!-- Node8&#45;&gt;Node9 -->
<g id="edge11" class="edge">
<title>Node8&#45;&gt;Node9</title>
<path fill="none" stroke="#63b8ff" d="M225.99,-55.54C225.99,-46.96 225.99,-37.61 225.99,-30.16"/>
<polygon fill="#63b8ff" stroke="#63b8ff" points="222.49,-55.8 225.99,-65.8 229.49,-55.8 222.49,-55.8"/>
</g>
<!-- Node10&#45;&gt;Node3 -->
<g id="edge16" class="edge">
<title>Node10&#45;&gt;Node3</title>
<path fill="none" stroke="#63b8ff" d="M702.17,-62.05C726.57,-51.91 756.62,-39.43 779.27,-30.01"/>
<polygon fill="#63b8ff" stroke="#63b8ff" points="700.68,-58.89 692.79,-65.95 703.36,-65.35 700.68,-58.89"/>
</g>
<!-- Node10&#45;&gt;Node5 -->
<g id="edge18" class="edge">
<title>Node10&#45;&gt;Node5</title>
<path fill="none" stroke="#63b8ff" d="M594.09,-63.45C553.42,-53.08 501.58,-39.86 462.94,-30.01"/>
<polygon fill="#63b8ff" stroke="#63b8ff" points="593.35,-66.88 603.91,-65.95 595.08,-60.09 593.35,-66.88"/>
</g>
<!-- Node10&#45;&gt;Node6 -->
<g id="edge17" class="edge">
<title>Node10&#45;&gt;Node6</title>
<path fill="none" stroke="#63b8ff" d="M587.95,-66.13C388.39,-39.26 334.52,-58.03 139.99,-30 136.93,-29.56 133.8,-29.06 130.65,-28.53"/>
<polygon fill="#63b8ff" stroke="#63b8ff" points="587.49,-69.6 597.87,-67.49 588.44,-62.66 587.49,-69.6"/>
</g>
<!-- Node11&#45;&gt;Node10 -->
<g id="edge20" class="edge">
<title>Node11&#45;&gt;Node10</title>
<path fill="none" stroke="#63b8ff" d="M589.77,-126.3C604.99,-116.56 623.02,-105.02 636.86,-96.16"/>
<polygon fill="#63b8ff" stroke="#63b8ff" points="587.72,-123.46 581.18,-131.8 591.49,-129.35 587.72,-123.46"/>
</g>
<!-- Node12 -->
<g id="node12" class="node">
<title>Node12</title>
<g id="a_node12"><a xlink:href="Debug__can_8cpp.html" target="_top" xlink:title="Implementation of the Debug_CAN namespace for CAN debugging functions.">
<polygon fill="white" stroke="#666666" points="579.49,-96 436.49,-96 436.49,-66 579.49,-66 579.49,-96"/>
<text text-anchor="start" x="444.49" y="-84" font-family="Helvetica,sans-Serif" font-size="10.00">vehicle_control_unit</text>
<text text-anchor="middle" x="507.99" y="-73" font-family="Helvetica,sans-Serif" font-size="10.00">/lib/Debug/Debug_can.cpp</text>
</a>
</g>
</g>
<!-- Node11&#45;&gt;Node12 -->
<g id="edge21" class="edge">
<title>Node11&#45;&gt;Node12</title>
<path fill="none" stroke="#63b8ff" d="M541.31,-123.81C534,-114.64 525.74,-104.28 519.28,-96.16"/>
<polygon fill="#63b8ff" stroke="#63b8ff" points="538.7,-126.16 547.67,-131.8 544.18,-121.79 538.7,-126.16"/>
</g>
<!-- Node14&#45;&gt;Node10 -->
<g id="edge24" class="edge">
<title>Node14&#45;&gt;Node10</title>
<path fill="none" stroke="#63b8ff" d="M732.32,-126.69C716.11,-116.82 696.74,-105.01 681.98,-96.01"/>
<polygon fill="#63b8ff" stroke="#63b8ff" points="730.59,-129.74 740.95,-131.95 734.23,-123.76 730.59,-129.74"/>
</g>
<!-- Node14&#45;&gt;Node13 -->
<g id="edge25" class="edge">
<title>Node14&#45;&gt;Node13</title>
<path fill="none" stroke="#63b8ff" d="M781.67,-123.81C788.98,-114.64 797.24,-104.28 803.7,-96.16"/>
<polygon fill="#63b8ff" stroke="#63b8ff" points="778.8,-121.79 775.31,-131.8 784.28,-126.16 778.8,-121.79"/>
</g>
<!-- Node15&#45;&gt;Node4 -->
<g id="edge27" class="edge">
<title>Node15&#45;&gt;Node4</title>
<path fill="none" stroke="#63b8ff" d="M1025.1,-125.75C1012.32,-116.13 997.35,-104.86 985.8,-96.16"/>
<polygon fill="#63b8ff" stroke="#63b8ff" points="1023.03,-128.58 1033.13,-131.8 1027.24,-122.99 1023.03,-128.58"/>
</g>
<!-- Node15&#45;&gt;Node5 -->
<g id="edge30" class="edge">
<title>Node15&#45;&gt;Node5</title>
<path fill="none" stroke="#63b8ff" d="M1053.24,-121.75C1052.75,-103.55 1048.77,-79.53 1032.99,-66 1011.61,-47.67 616.16,-26.29 465.57,-18.78"/>
<polygon fill="#63b8ff" stroke="#63b8ff" points="1049.74,-121.9 1053.18,-131.92 1056.74,-121.94 1049.74,-121.9"/>
</g>
<!-- Node15&#45;&gt;Node16 -->
<g id="edge28" class="edge">
<title>Node15&#45;&gt;Node16</title>
<path fill="none" stroke="#63b8ff" d="M1078.02,-126.3C1093.23,-116.56 1112.35,-105.02 1128.04,-96.16"/>
<polygon fill="#63b8ff" stroke="#63b8ff" points="1076.05,-123.41 1069.57,-131.8 1079.86,-129.28 1076.05,-123.41"/>
</g>
<!-- Node16&#45;&gt;Node15 -->
<g id="edge29" class="edge">
<title>Node16&#45;&gt;Node15</title>
<path fill="none" stroke="#63b8ff" d="M1131.2,-101.54C1115.88,-111.36 1096.54,-123.03 1080.73,-131.95"/>
<polygon fill="#63b8ff" stroke="#63b8ff" points="1133.23,-104.4 1139.7,-96.01 1129.41,-98.53 1133.23,-104.4"/>
</g>
</g>
</svg>
