<?xml version="1.0" encoding="UTF-8" standalone="no"?>
<!DOCTYPE svg PUBLIC "-//W3C//DTD SVG 1.1//EN"
 "http://www.w3.org/Graphics/SVG/1.1/DTD/svg11.dtd">
<!-- Generated by graphviz version 2.43.0 (0)
 -->
<!-- Title: include/Enums.h Pages: 1 -->
<svg width="981pt" height="192pt"
 viewBox="0.00 0.00 981.00 192.00" xmlns="http://www.w3.org/2000/svg" xmlns:xlink="http://www.w3.org/1999/xlink">
<g id="graph0" class="graph" transform="scale(1 1) rotate(0) translate(4 188)">
<title>include/Enums.h</title>
<!-- Node1 -->
<g id="node1" class="node">
<title>Node1</title>
<g id="a_node1"><a xlink:title="Enumeration definitions for the VCU.">
<polygon fill="#999999" stroke="#666666" points="568.5,-184 471.5,-184 471.5,-165 568.5,-165 568.5,-184"/>
<text text-anchor="middle" x="520" y="-172" font-family="Helvetica,sans-Serif" font-size="10.00">include/Enums.h</text>
</a>
</g>
</g>
<!-- Node2 -->
<g id="node2" class="node">
<title>Node2</title>
<g id="a_node2"><a xlink:href="CarState_8h.html" target="_top" xlink:title="Definition of the CarState structure representing the state of the car.">
<polygon fill="white" stroke="#666666" points="191,-129 85,-129 85,-110 191,-110 191,-129"/>
<text text-anchor="middle" x="138" y="-117" font-family="Helvetica,sans-Serif" font-size="10.00">include/CarState.h</text>
</a>
</g>
</g>
<!-- Node1&#45;&gt;Node2 -->
<g id="edge1" class="edge">
<title>Node1&#45;&gt;Node2</title>
<path fill="none" stroke="#63b8ff" d="M461.18,-165.34C387.41,-155.1 262.03,-137.71 191.07,-127.86"/>
<polygon fill="#63b8ff" stroke="#63b8ff" points="460.85,-168.83 471.23,-166.73 461.81,-161.89 460.85,-168.83"/>
</g>
<!-- Node5 -->
<g id="node5" class="node">
<title>Node5</title>
<g id="a_node5"><a xlink:href="main_8cpp.html" target="_top" xlink:title=" ">
<polygon fill="white" stroke="#666666" points="289.5,-19 210.5,-19 210.5,0 289.5,0 289.5,-19"/>
<text text-anchor="middle" x="250" y="-7" font-family="Helvetica,sans-Serif" font-size="10.00">src/main.cpp</text>
</a>
</g>
</g>
<!-- Node1&#45;&gt;Node5 -->
<g id="edge23" class="edge">
<title>Node1&#45;&gt;Node5</title>
<path fill="none" stroke="#63b8ff" d="M469.26,-162.39C442.48,-155.22 409.73,-144.34 383,-129 354.84,-112.84 283.38,-43.45 258.61,-19.04"/>
<polygon fill="#63b8ff" stroke="#63b8ff" points="468.64,-165.84 479.2,-164.95 470.39,-159.07 468.64,-165.84"/>
</g>
<!-- Node6 -->
<g id="node6" class="node">
<title>Node6</title>
<g id="a_node6"><a xlink:href="Debug_8hpp.html" target="_top" xlink:title="Debugging macros and functions for serial and CAN output.">
<polygon fill="white" stroke="#666666" points="285.5,-74 166.5,-74 166.5,-55 285.5,-55 285.5,-74"/>
<text text-anchor="middle" x="226" y="-62" font-family="Helvetica,sans-Serif" font-size="10.00">lib/Debug/Debug.hpp</text>
</a>
</g>
</g>
<!-- Node1&#45;&gt;Node6 -->
<g id="edge6" class="edge">
<title>Node1&#45;&gt;Node6</title>
<path fill="none" stroke="#63b8ff" d="M461.33,-169.74C415.45,-164.93 351.11,-153.96 300,-129 271.71,-115.18 245.46,-87.92 233.23,-74.05"/>
<polygon fill="#63b8ff" stroke="#63b8ff" points="461.11,-173.24 471.41,-170.73 461.8,-166.27 461.11,-173.24"/>
</g>
<!-- Node8 -->
<g id="node8" class="node">
<title>Node8</title>
<g id="a_node8"><a xlink:href="Debug__can_8hpp.html" target="_top" xlink:title="Declaration of the Debug_CAN namespace for CAN debugging functions.">
<polygon fill="white" stroke="#666666" points="753.5,-129 612.5,-129 612.5,-110 753.5,-110 753.5,-129"/>
<text text-anchor="middle" x="683" y="-117" font-family="Helvetica,sans-Serif" font-size="10.00">lib/Debug/Debug_can.hpp</text>
</a>
</g>
</g>
<!-- Node1&#45;&gt;Node8 -->
<g id="edge10" class="edge">
<title>Node1&#45;&gt;Node8</title>
<path fill="none" stroke="#63b8ff" d="M555.99,-161.8C586.41,-151.91 629.28,-137.97 656.61,-129.08"/>
<polygon fill="#63b8ff" stroke="#63b8ff" points="554.62,-158.56 546.19,-164.98 556.78,-165.22 554.62,-158.56"/>
</g>
<!-- Node10 -->
<g id="node10" class="node">
<title>Node10</title>
<g id="a_node10"><a xlink:href="Debug__serial_8cpp.html" target="_top" xlink:title="Implementation of the Debug_Serial namespace for serial debugging functions.">
<polygon fill="white" stroke="#666666" points="973,-74 823,-74 823,-55 973,-55 973,-74"/>
<text text-anchor="middle" x="898" y="-62" font-family="Helvetica,sans-Serif" font-size="10.00">lib/Debug/Debug_serial.cpp</text>
</a>
</g>
</g>
<!-- Node1&#45;&gt;Node10 -->
<g id="edge12" class="edge">
<title>Node1&#45;&gt;Node10</title>
<path fill="none" stroke="#63b8ff" d="M578.56,-166.98C628.22,-160.46 700.9,-148.53 762,-129 785.7,-121.42 849.74,-89.81 880.73,-74.24"/>
<polygon fill="#63b8ff" stroke="#63b8ff" points="578.11,-163.51 568.64,-168.26 579,-170.46 578.11,-163.51"/>
</g>
<!-- Node11 -->
<g id="node11" class="node">
<title>Node11</title>
<g id="a_node11"><a xlink:href="Debug__serial_8hpp.html" target="_top" xlink:title="Declaration of the Debug_Serial namespace for serial debugging functions.">
<polygon fill="white" stroke="#666666" points="970.5,-129 819.5,-129 819.5,-110 970.5,-110 970.5,-129"/>
<text text-anchor="middle" x="895" y="-117" font-family="Helvetica,sans-Serif" font-size="10.00">lib/Debug/Debug_serial.hpp</text>
</a>
</g>
</g>
<!-- Node1&#45;&gt;Node11 -->
<g id="edge13" class="edge">
<title>Node1&#45;&gt;Node11</title>
<path fill="none" stroke="#63b8ff" d="M578.58,-165.22C648.32,-155.36 764.17,-138.99 834.67,-129.03"/>
<polygon fill="#63b8ff" stroke="#63b8ff" points="578.05,-161.76 568.64,-166.63 579.03,-168.69 578.05,-161.76"/>
</g>
<!-- Node12 -->
<g id="node12" class="node">
<title>Node12</title>
<g id="a_node12"><a xlink:href="Scheduler_8hpp.html" target="_top" xlink:title="Declaration of the Scheduler class template, for scheduling tasks on multiple MCP2515 instances.">
<polygon fill="white" stroke="#666666" points="543.5,-129 392.5,-129 392.5,-110 543.5,-110 543.5,-129"/>
<text text-anchor="middle" x="468" y="-117" font-family="Helvetica,sans-Serif" font-size="10.00">lib/Scheduler/Scheduler.hpp</text>
</a>
</g>
</g>
<!-- Node1&#45;&gt;Node12 -->
<g id="edge15" class="edge">
<title>Node1&#45;&gt;Node12</title>
<path fill="none" stroke="#63b8ff" d="M504.32,-157.52C495.16,-148.18 483.95,-136.75 476.43,-129.09"/>
<polygon fill="#63b8ff" stroke="#63b8ff" points="501.91,-160.06 511.41,-164.75 506.91,-155.16 501.91,-160.06"/>
</g>
<!-- Node14 -->
<g id="node14" class="node">
<title>Node14</title>
<g id="a_node14"><a xlink:href="Scheduler_8tpp.html" target="_top" xlink:title="Implementation of the Scheduler class template.">
<polygon fill="white" stroke="#666666" points="646.5,-74 497.5,-74 497.5,-55 646.5,-55 646.5,-74"/>
<text text-anchor="middle" x="572" y="-62" font-family="Helvetica,sans-Serif" font-size="10.00">lib/Scheduler/Scheduler.tpp</text>
</a>
</g>
</g>
<!-- Node1&#45;&gt;Node14 -->
<g id="edge22" class="edge">
<title>Node1&#45;&gt;Node14</title>
<path fill="none" stroke="#63b8ff" d="M533.8,-156.99C540.02,-148.94 547.06,-138.87 552,-129 561.32,-110.4 567.42,-86.56 570.22,-74.05"/>
<polygon fill="#63b8ff" stroke="#63b8ff" points="531.04,-154.85 527.52,-164.84 536.5,-159.22 531.04,-154.85"/>
</g>
<!-- Node3 -->
<g id="node3" class="node">
<title>Node3</title>
<g id="a_node3"><a xlink:href="Pedal_8hpp.html" target="_top" xlink:title=" ">
<polygon fill="white" stroke="#666666" points="110,-74 0,-74 0,-55 110,-55 110,-74"/>
<text text-anchor="middle" x="55" y="-62" font-family="Helvetica,sans-Serif" font-size="10.00">lib/Pedal/Pedal.hpp</text>
</a>
</g>
</g>
<!-- Node2&#45;&gt;Node3 -->
<g id="edge2" class="edge">
<title>Node2&#45;&gt;Node3</title>
<path fill="none" stroke="#63b8ff" d="M115.96,-104.42C100.89,-94.81 81.41,-82.37 68.58,-74.17"/>
<polygon fill="#63b8ff" stroke="#63b8ff" points="114.35,-107.55 124.66,-109.98 118.12,-101.65 114.35,-107.55"/>
</g>
<!-- Node2&#45;&gt;Node5 -->
<g id="edge5" class="edge">
<title>Node2&#45;&gt;Node5</title>
<path fill="none" stroke="#63b8ff" d="M139.62,-99.38C141.68,-85.64 146.36,-67.43 157,-55 172.36,-37.05 196.6,-25.78 216.49,-19.07"/>
<polygon fill="#63b8ff" stroke="#63b8ff" points="136.11,-99.3 138.43,-109.64 143.06,-100.11 136.11,-99.3"/>
</g>
<!-- Node4 -->
<g id="node4" class="node">
<title>Node4</title>
<g id="a_node4"><a xlink:href="Pedal_8cpp.html" target="_top" xlink:title="Implementation of the Pedal class for handling throttle pedal inputs.">
<polygon fill="white" stroke="#666666" points="163.5,-19 54.5,-19 54.5,0 163.5,0 163.5,-19"/>
<text text-anchor="middle" x="109" y="-7" font-family="Helvetica,sans-Serif" font-size="10.00">lib/Pedal/Pedal.cpp</text>
</a>
</g>
</g>
<!-- Node3&#45;&gt;Node4 -->
<g id="edge3" class="edge">
<title>Node3&#45;&gt;Node4</title>
<path fill="none" stroke="#63b8ff" d="M71.28,-47.52C80.8,-38.18 92.44,-26.75 100.25,-19.09"/>
<polygon fill="#63b8ff" stroke="#63b8ff" points="68.6,-45.25 63.92,-54.75 73.51,-50.24 68.6,-45.25"/>
</g>
<!-- Node3&#45;&gt;Node5 -->
<g id="edge4" class="edge">
<title>Node3&#45;&gt;Node5</title>
<path fill="none" stroke="#63b8ff" d="M96.17,-52.31C132.66,-42.39 185.17,-28.12 218.42,-19.08"/>
<polygon fill="#63b8ff" stroke="#63b8ff" points="95.06,-48.98 86.33,-54.98 96.9,-55.74 95.06,-48.98"/>
</g>
<!-- Node6&#45;&gt;Node4 -->
<g id="edge8" class="edge">
<title>Node6&#45;&gt;Node4</title>
<path fill="none" stroke="#63b8ff" d="M197.89,-50.77C176.31,-40.99 147.09,-27.75 128.14,-19.17"/>
<polygon fill="#63b8ff" stroke="#63b8ff" points="196.65,-54.05 207.2,-54.98 199.54,-47.67 196.65,-54.05"/>
</g>
<!-- Node6&#45;&gt;Node5 -->
<g id="edge9" class="edge">
<title>Node6&#45;&gt;Node5</title>
<path fill="none" stroke="#63b8ff" d="M234.14,-45.53C238.18,-36.6 242.88,-26.22 246.11,-19.09"/>
<polygon fill="#63b8ff" stroke="#63b8ff" points="230.9,-44.19 229.96,-54.75 237.28,-47.08 230.9,-44.19"/>
</g>
<!-- Node7 -->
<g id="node7" class="node">
<title>Node7</title>
<g id="a_node7"><a xlink:href="BMS_8cpp.html" target="_top" xlink:title="Implementation of the BMS class for managing the Accumulator (Kclear BMS) via CAN bus.">
<polygon fill="white" stroke="#666666" points="454,-19 356,-19 356,0 454,0 454,-19"/>
<text text-anchor="middle" x="405" y="-7" font-family="Helvetica,sans-Serif" font-size="10.00">lib/BMS/BMS.cpp</text>
</a>
</g>
</g>
<!-- Node6&#45;&gt;Node7 -->
<g id="edge7" class="edge">
<title>Node6&#45;&gt;Node7</title>
<path fill="none" stroke="#63b8ff" d="M264.65,-52.06C298.11,-42.15 345.75,-28.04 376.02,-19.08"/>
<polygon fill="#63b8ff" stroke="#63b8ff" points="263.35,-48.79 254.76,-54.98 265.34,-55.5 263.35,-48.79"/>
</g>
<!-- Node9 -->
<g id="node9" class="node">
<title>Node9</title>
<g id="a_node9"><a xlink:href="Debug__can_8cpp.html" target="_top" xlink:title="Implementation of the Debug_CAN namespace for CAN debugging functions.">
<polygon fill="white" stroke="#666666" points="805,-74 665,-74 665,-55 805,-55 805,-74"/>
<text text-anchor="middle" x="735" y="-62" font-family="Helvetica,sans-Serif" font-size="10.00">lib/Debug/Debug_can.cpp</text>
</a>
</g>
</g>
<!-- Node8&#45;&gt;Node9 -->
<g id="edge11" class="edge">
<title>Node8&#45;&gt;Node9</title>
<path fill="none" stroke="#63b8ff" d="M698.68,-102.52C707.84,-93.18 719.05,-81.75 726.57,-74.09"/>
<polygon fill="#63b8ff" stroke="#63b8ff" points="696.09,-100.16 691.59,-109.75 701.09,-105.06 696.09,-100.16"/>
</g>
<!-- Node11&#45;&gt;Node10 -->
<g id="edge14" class="edge">
<title>Node11&#45;&gt;Node10</title>
<path fill="none" stroke="#63b8ff" d="M896.07,-99.66C896.56,-90.93 897.12,-80.99 897.51,-74.09"/>
<polygon fill="#63b8ff" stroke="#63b8ff" points="892.57,-99.57 895.5,-109.75 899.56,-99.96 892.57,-99.57"/>
</g>
<!-- Node12&#45;&gt;Node5 -->
<g id="edge21" class="edge">
<title>Node12&#45;&gt;Node5</title>
<path fill="none" stroke="#63b8ff" d="M439.32,-105.83C419.91,-97.13 393.76,-85.18 371,-74 332.89,-55.27 288.91,-31.69 265.91,-19.2"/>
<polygon fill="#63b8ff" stroke="#63b8ff" points="437.97,-109.06 448.53,-109.94 440.83,-102.66 437.97,-109.06"/>
</g>
<!-- Node13 -->
<g id="node13" class="node">
<title>Node13</title>
<g id="a_node13"><a xlink:href="BMS_8hpp.html" target="_top" xlink:title="Declaration of the BMS class for managing the Accumulator (Kclear BMS) via CAN bus.">
<polygon fill="white" stroke="#666666" points="479.5,-74 380.5,-74 380.5,-55 479.5,-55 479.5,-74"/>
<text text-anchor="middle" x="430" y="-62" font-family="Helvetica,sans-Serif" font-size="10.00">lib/BMS/BMS.hpp</text>
</a>
</g>
</g>
<!-- Node12&#45;&gt;Node13 -->
<g id="edge16" class="edge">
<title>Node12&#45;&gt;Node13</title>
<path fill="none" stroke="#63b8ff" d="M455.73,-101.39C449.19,-92.27 441.43,-81.45 436.16,-74.09"/>
<polygon fill="#63b8ff" stroke="#63b8ff" points="453.05,-103.66 461.73,-109.75 458.74,-99.58 453.05,-103.66"/>
</g>
<!-- Node12&#45;&gt;Node14 -->
<g id="edge19" class="edge">
<title>Node12&#45;&gt;Node14</title>
<path fill="none" stroke="#63b8ff" d="M488.59,-104.97C506.33,-95.28 531.64,-82.52 549.84,-74.17"/>
<polygon fill="#63b8ff" stroke="#63b8ff" points="486.62,-102.05 479.59,-109.98 490.03,-108.17 486.62,-102.05"/>
</g>
<!-- Node13&#45;&gt;Node5 -->
<g id="edge18" class="edge">
<title>Node13&#45;&gt;Node5</title>
<path fill="none" stroke="#63b8ff" d="M391.13,-52.06C357.49,-42.15 309.58,-28.04 279.15,-19.08"/>
<polygon fill="#63b8ff" stroke="#63b8ff" points="390.5,-55.52 401.08,-54.98 392.48,-48.8 390.5,-55.52"/>
</g>
<!-- Node13&#45;&gt;Node7 -->
<g id="edge17" class="edge">
<title>Node13&#45;&gt;Node7</title>
<path fill="none" stroke="#63b8ff" d="M421.52,-45.53C417.31,-36.6 412.41,-26.22 409.05,-19.09"/>
<polygon fill="#63b8ff" stroke="#63b8ff" points="418.44,-47.2 425.87,-54.75 424.77,-44.21 418.44,-47.2"/>
</g>
<!-- Node14&#45;&gt;Node12 -->
<g id="edge20" class="edge">
<title>Node14&#45;&gt;Node12</title>
<path fill="none" stroke="#63b8ff" d="M551.08,-79.22C533.24,-88.94 507.93,-101.69 489.82,-109.98"/>
<polygon fill="#63b8ff" stroke="#63b8ff" points="553.1,-82.1 560.14,-74.17 549.7,-75.98 553.1,-82.1"/>
</g>
</g>
</svg>
