<?xml version="1.0" encoding="UTF-8" standalone="no"?>
<!DOCTYPE svg PUBLIC "-//W3C//DTD SVG 1.1//EN"
 "http://www.w3.org/Graphics/SVG/1.1/DTD/svg11.dtd">
<!-- Generated by graphviz version 2.43.0 (0)
 -->
<!-- Title: include/Enums.h Pages: 1 -->
<svg width="651pt" height="192pt"
 viewBox="0.00 0.00 651.00 192.00" xmlns="http://www.w3.org/2000/svg" xmlns:xlink="http://www.w3.org/1999/xlink">
<g id="graph0" class="graph" transform="scale(1 1) rotate(0) translate(4 188)">
<title>include/Enums.h</title>
<!-- Node1 -->
<g id="node1" class="node">
<title>Node1</title>
<g id="a_node1"><a xlink:title=" ">
<polygon fill="#999999" stroke="#666666" points="384,-184 287,-184 287,-165 384,-165 384,-184"/>
<text text-anchor="middle" x="335.5" y="-172" font-family="Helvetica,sans-Serif" font-size="10.00">include/Enums.h</text>
</a>
</g>
</g>
<!-- Node2 -->
<g id="node2" class="node">
<title>Node2</title>
<g id="a_node2"><a xlink:href="car__state_8h.html" target="_top" xlink:title=" ">
<polygon fill="white" stroke="#666666" points="261,-129 152,-129 152,-110 261,-110 261,-129"/>
<text text-anchor="middle" x="206.5" y="-117" font-family="Helvetica,sans-Serif" font-size="10.00">include/car_state.h</text>
</a>
</g>
</g>
<!-- Node1&#45;&gt;Node2 -->
<g id="edge1" class="edge">
<title>Node1&#45;&gt;Node2</title>
<path fill="none" stroke="#63b8ff" d="M305.46,-161.16C281.58,-151.35 248.78,-137.87 227.6,-129.17"/>
<polygon fill="#63b8ff" stroke="#63b8ff" points="304.19,-164.42 314.77,-164.98 306.85,-157.95 304.19,-164.42"/>
</g>
<!-- Node5 -->
<g id="node5" class="node">
<title>Node5</title>
<g id="a_node5"><a xlink:href="main_8cpp.html" target="_top" xlink:title=" ">
<polygon fill="white" stroke="#666666" points="252,-19 173,-19 173,0 252,0 252,-19"/>
<text text-anchor="middle" x="212.5" y="-7" font-family="Helvetica,sans-Serif" font-size="10.00">src/main.cpp</text>
</a>
</g>
</g>
<!-- Node1&#45;&gt;Node5 -->
<g id="edge14" class="edge">
<title>Node1&#45;&gt;Node5</title>
<path fill="none" stroke="#63b8ff" d="M323.28,-156.73C306.41,-133.68 274.98,-90.95 247.5,-55 237.95,-42.51 226.67,-28.25 219.55,-19.31"/>
<polygon fill="#63b8ff" stroke="#63b8ff" points="320.45,-158.8 329.18,-164.81 326.11,-154.68 320.45,-158.8"/>
</g>
<!-- Node6 -->
<g id="node6" class="node">
<title>Node6</title>
<g id="a_node6"><a xlink:href="Debug_8h.html" target="_top" xlink:title=" ">
<polygon fill="white" stroke="#666666" points="107,-74 0,-74 0,-55 107,-55 107,-74"/>
<text text-anchor="middle" x="53.5" y="-62" font-family="Helvetica,sans-Serif" font-size="10.00">lib/Debug/Debug.h</text>
</a>
</g>
</g>
<!-- Node1&#45;&gt;Node6 -->
<g id="edge6" class="edge">
<title>Node1&#45;&gt;Node6</title>
<path fill="none" stroke="#63b8ff" d="M276.67,-166.08C237.41,-159.66 185.33,-148.29 142.5,-129 110.66,-114.66 78.61,-88.13 63.1,-74.34"/>
<polygon fill="#63b8ff" stroke="#63b8ff" points="276.19,-169.55 286.61,-167.64 277.28,-162.63 276.19,-169.55"/>
</g>
<!-- Node7 -->
<g id="node7" class="node">
<title>Node7</title>
<g id="a_node7"><a xlink:href="Debug__can_8h.html" target="_top" xlink:title=" ">
<polygon fill="white" stroke="#666666" points="447,-129 318,-129 318,-110 447,-110 447,-129"/>
<text text-anchor="middle" x="382.5" y="-117" font-family="Helvetica,sans-Serif" font-size="10.00">lib/Debug/Debug_can.h</text>
</a>
</g>
</g>
<!-- Node1&#45;&gt;Node7 -->
<g id="edge9" class="edge">
<title>Node1&#45;&gt;Node7</title>
<path fill="none" stroke="#63b8ff" d="M349.92,-157.24C358.16,-147.95 368.15,-136.68 374.88,-129.09"/>
<polygon fill="#63b8ff" stroke="#63b8ff" points="347.28,-154.94 343.26,-164.75 352.51,-159.59 347.28,-154.94"/>
</g>
<!-- Node9 -->
<g id="node9" class="node">
<title>Node9</title>
<g id="a_node9"><a xlink:href="Debug__serial_8cpp.html" target="_top" xlink:title=" ">
<polygon fill="white" stroke="#666666" points="637.5,-74 487.5,-74 487.5,-55 637.5,-55 637.5,-74"/>
<text text-anchor="middle" x="562.5" y="-62" font-family="Helvetica,sans-Serif" font-size="10.00">lib/Debug/Debug_serial.cpp</text>
</a>
</g>
</g>
<!-- Node1&#45;&gt;Node9 -->
<g id="edge11" class="edge">
<title>Node1&#45;&gt;Node9</title>
<path fill="none" stroke="#63b8ff" d="M372.25,-161.8C396.37,-153.65 428.36,-141.96 455.5,-129 490.98,-112.06 530.09,-87.11 549.74,-74.1"/>
<polygon fill="#63b8ff" stroke="#63b8ff" points="371.15,-158.48 362.76,-164.96 373.36,-165.12 371.15,-158.48"/>
</g>
<!-- Node10 -->
<g id="node10" class="node">
<title>Node10</title>
<g id="a_node10"><a xlink:href="Debug__serial_8h.html" target="_top" xlink:title=" ">
<polygon fill="white" stroke="#666666" points="643,-129 504,-129 504,-110 643,-110 643,-129"/>
<text text-anchor="middle" x="573.5" y="-117" font-family="Helvetica,sans-Serif" font-size="10.00">lib/Debug/Debug_serial.h</text>
</a>
</g>
</g>
<!-- Node1&#45;&gt;Node10 -->
<g id="edge12" class="edge">
<title>Node1&#45;&gt;Node10</title>
<path fill="none" stroke="#63b8ff" d="M383.76,-162.75C428.36,-152.82 493.76,-138.26 534.96,-129.08"/>
<polygon fill="#63b8ff" stroke="#63b8ff" points="382.74,-159.39 373.74,-164.98 384.26,-166.23 382.74,-159.39"/>
</g>
<!-- Node3 -->
<g id="node3" class="node">
<title>Node3</title>
<g id="a_node3"><a xlink:href="Pedal_8h.html" target="_top" xlink:title=" ">
<polygon fill="white" stroke="#666666" points="223.5,-74 125.5,-74 125.5,-55 223.5,-55 223.5,-74"/>
<text text-anchor="middle" x="174.5" y="-62" font-family="Helvetica,sans-Serif" font-size="10.00">lib/Pedal/Pedal.h</text>
</a>
</g>
</g>
<!-- Node2&#45;&gt;Node3 -->
<g id="edge2" class="edge">
<title>Node2&#45;&gt;Node3</title>
<path fill="none" stroke="#63b8ff" d="M196,-101.1C190.53,-92.04 184.08,-81.37 179.69,-74.09"/>
<polygon fill="#63b8ff" stroke="#63b8ff" points="193.05,-103 201.22,-109.75 199.04,-99.38 193.05,-103"/>
</g>
<!-- Node2&#45;&gt;Node5 -->
<g id="edge5" class="edge">
<title>Node2&#45;&gt;Node5</title>
<path fill="none" stroke="#63b8ff" d="M219.22,-101.61C224.43,-93.67 229.84,-83.81 232.5,-74 237.88,-54.14 226.11,-31.2 218.44,-19.06"/>
<polygon fill="#63b8ff" stroke="#63b8ff" points="216.27,-99.73 213.39,-109.93 222,-103.75 216.27,-99.73"/>
</g>
<!-- Node4 -->
<g id="node4" class="node">
<title>Node4</title>
<g id="a_node4"><a xlink:href="Pedal_8cpp.html" target="_top" xlink:title=" ">
<polygon fill="white" stroke="#666666" points="151,-19 42,-19 42,0 151,0 151,-19"/>
<text text-anchor="middle" x="96.5" y="-7" font-family="Helvetica,sans-Serif" font-size="10.00">lib/Pedal/Pedal.cpp</text>
</a>
</g>
</g>
<!-- Node3&#45;&gt;Node4 -->
<g id="edge3" class="edge">
<title>Node3&#45;&gt;Node4</title>
<path fill="none" stroke="#63b8ff" d="M153.38,-49.15C139.29,-39.57 121.21,-27.29 109.26,-19.17"/>
<polygon fill="#63b8ff" stroke="#63b8ff" points="151.73,-52.26 161.97,-54.98 155.66,-46.47 151.73,-52.26"/>
</g>
<!-- Node3&#45;&gt;Node5 -->
<g id="edge4" class="edge">
<title>Node3&#45;&gt;Node5</title>
<path fill="none" stroke="#63b8ff" d="M186.77,-46.39C193.31,-37.27 201.07,-26.45 206.34,-19.09"/>
<polygon fill="#63b8ff" stroke="#63b8ff" points="183.76,-44.58 180.77,-54.75 189.45,-48.66 183.76,-44.58"/>
</g>
<!-- Node6&#45;&gt;Node4 -->
<g id="edge7" class="edge">
<title>Node6&#45;&gt;Node4</title>
<path fill="none" stroke="#63b8ff" d="M66.92,-46.96C74.41,-37.72 83.44,-26.6 89.53,-19.09"/>
<polygon fill="#63b8ff" stroke="#63b8ff" points="64.18,-44.78 60.6,-54.75 69.62,-49.19 64.18,-44.78"/>
</g>
<!-- Node6&#45;&gt;Node5 -->
<g id="edge8" class="edge">
<title>Node6&#45;&gt;Node5</title>
<path fill="none" stroke="#63b8ff" d="M88.6,-51.8C118.28,-41.91 160.1,-27.97 186.75,-19.08"/>
<polygon fill="#63b8ff" stroke="#63b8ff" points="87.43,-48.5 79.05,-54.98 89.64,-55.14 87.43,-48.5"/>
</g>
<!-- Node8 -->
<g id="node8" class="node">
<title>Node8</title>
<g id="a_node8"><a xlink:href="Debug__can_8cpp.html" target="_top" xlink:title=" ">
<polygon fill="white" stroke="#666666" points="457.5,-74 317.5,-74 317.5,-55 457.5,-55 457.5,-74"/>
<text text-anchor="middle" x="387.5" y="-62" font-family="Helvetica,sans-Serif" font-size="10.00">lib/Debug/Debug_can.cpp</text>
</a>
</g>
</g>
<!-- Node7&#45;&gt;Node8 -->
<g id="edge10" class="edge">
<title>Node7&#45;&gt;Node8</title>
<path fill="none" stroke="#63b8ff" d="M384.28,-99.66C385.1,-90.93 386.04,-80.99 386.69,-74.09"/>
<polygon fill="#63b8ff" stroke="#63b8ff" points="380.78,-99.46 383.33,-109.75 387.75,-100.12 380.78,-99.46"/>
</g>
<!-- Node10&#45;&gt;Node9 -->
<g id="edge13" class="edge">
<title>Node10&#45;&gt;Node9</title>
<path fill="none" stroke="#63b8ff" d="M569.65,-99.95C567.82,-91.15 565.73,-81.06 564.28,-74.09"/>
<polygon fill="#63b8ff" stroke="#63b8ff" points="566.22,-100.67 571.68,-109.75 573.08,-99.25 566.22,-100.67"/>
</g>
</g>
</svg>
