<?xml version="1.0" encoding="UTF-8" standalone="no"?>
<!DOCTYPE svg PUBLIC "-//W3C//DTD SVG 1.1//EN"
 "http://www.w3.org/Graphics/SVG/1.1/DTD/svg11.dtd">
<!-- Generated by graphviz version 2.43.0 (0)
 -->
<!-- Title: Graphical Class Hierarchy Pages: 1 -->
<svg width="296pt" height="146pt"
 viewBox="0.00 0.00 296.00 145.50" xmlns="http://www.w3.org/2000/svg" xmlns:xlink="http://www.w3.org/1999/xlink">
<g id="graph0" class="graph" transform="scale(1 1) rotate(0) translate(4 141.5)">
<title>Graphical Class Hierarchy</title>
<!-- Node0 -->
<g id="node1" class="node">
<title>Node0</title>
<g id="a_node1"><a xlink:href="classFilter.html" target="_top" xlink:title="Abstract Base Class for signal filters. Defines the interface for adding samples and retrieving filte...">
<polygon fill="white" stroke="#666666" points="103,-89.5 0,-89.5 0,-59.5 103,-59.5 103,-89.5"/>
<text text-anchor="start" x="8" y="-77.5" font-family="Helvetica,sans-Serif" font-size="10.00">Filter&lt; TypeInput,</text>
<text text-anchor="middle" x="51.5" y="-66.5" font-family="Helvetica,sans-Serif" font-size="10.00"> TypeMid &gt;</text>
</a>
</g>
</g>
<!-- Node1 -->
<g id="node2" class="node">
<title>Node1</title>
<g id="a_node2"><a xlink:href="classExponentialFilter.html" target="_top" xlink:title=" ">
<polygon fill="white" stroke="#666666" points="271.5,-137.5 155.5,-137.5 155.5,-107.5 271.5,-107.5 271.5,-137.5"/>
<text text-anchor="start" x="163.5" y="-125.5" font-family="Helvetica,sans-Serif" font-size="10.00">ExponentialFilter&lt;</text>
<text text-anchor="middle" x="213.5" y="-114.5" font-family="Helvetica,sans-Serif" font-size="10.00"> uint16_t, uint16_t &gt;</text>
</a>
</g>
</g>
<!-- Node0&#45;&gt;Node1 -->
<g id="edge1" class="edge">
<title>Node0&#45;&gt;Node1</title>
<path fill="none" stroke="#63b8ff" d="M112.72,-92.57C129.13,-97.49 146.72,-102.77 162.49,-107.5"/>
<polygon fill="#63b8ff" stroke="#63b8ff" points="113.27,-89.08 102.69,-89.56 111.26,-95.78 113.27,-89.08"/>
</g>
<!-- Node2 -->
<g id="node3" class="node">
<title>Node2</title>
<g id="a_node3"><a xlink:href="classAverageFilter.html" target="_top" xlink:title="Filter with simple moving average algorithm.">
<polygon fill="white" stroke="#666666" points="285,-89.5 142,-89.5 142,-59.5 285,-59.5 285,-89.5"/>
<text text-anchor="start" x="150" y="-77.5" font-family="Helvetica,sans-Serif" font-size="10.00">AverageFilter&lt; TypeInput,</text>
<text text-anchor="middle" x="213.5" y="-66.5" font-family="Helvetica,sans-Serif" font-size="10.00"> TypeMid, SIZE &gt;</text>
</a>
</g>
</g>
<!-- Node0&#45;&gt;Node2 -->
<g id="edge2" class="edge">
<title>Node0&#45;&gt;Node2</title>
<path fill="none" stroke="#63b8ff" d="M113.4,-74.5C122.66,-74.5 132.29,-74.5 141.74,-74.5"/>
<polygon fill="#63b8ff" stroke="#63b8ff" points="113.13,-71 103.12,-74.5 113.12,-78 113.13,-71"/>
</g>
<!-- Node3 -->
<g id="node4" class="node">
<title>Node3</title>
<g id="a_node4"><a xlink:href="classExponentialFilter.html" target="_top" xlink:title="Filter with exponential moving average algorithm.">
<polygon fill="white" stroke="#666666" points="288,-41 139,-41 139,0 288,0 288,-41"/>
<text text-anchor="start" x="147" y="-29" font-family="Helvetica,sans-Serif" font-size="10.00">ExponentialFilter&lt;</text>
<text text-anchor="start" x="147" y="-18" font-family="Helvetica,sans-Serif" font-size="10.00"> TypeInput, TypeMid,</text>
<text text-anchor="middle" x="213.5" y="-7" font-family="Helvetica,sans-Serif" font-size="10.00"> OLD_RATIO, NEW_RATIO &gt;</text>
</a>
</g>
</g>
<!-- Node0&#45;&gt;Node3 -->
<g id="edge3" class="edge">
<title>Node0&#45;&gt;Node3</title>
<path fill="none" stroke="#63b8ff" d="M106.84,-56.16C121.28,-51.29 136.97,-45.99 151.73,-41.01"/>
<polygon fill="#63b8ff" stroke="#63b8ff" points="105.42,-52.94 97.07,-59.46 107.66,-59.58 105.42,-52.94"/>
</g>
</g>
</svg>
