<?xml version="1.0" encoding="UTF-8" standalone="no"?>
<!DOCTYPE svg PUBLIC "-//W3C//DTD SVG 1.1//EN"
 "http://www.w3.org/Graphics/SVG/1.1/DTD/svg11.dtd">
<!-- Generated by graphviz version 2.43.0 (0)
 -->
<!-- Title: vehicle_control_unit/include/Interp.hpp Pages: 1 -->
<svg width="256pt" height="236pt"
 viewBox="0.00 0.00 256.00 236.00" xmlns="http://www.w3.org/2000/svg" xmlns:xlink="http://www.w3.org/1999/xlink">
<g id="graph0" class="graph" transform="scale(1 1) rotate(0) translate(4 232)">
<title>vehicle_control_unit/include/Interp.hpp</title>
<!-- Node1 -->
<g id="node1" class="node">
<title>Node1</title>
<g id="a_node1"><a xlink:title="Declaration and definition of the LinearInterp class template for linear interpolation.">
<polygon fill="#999999" stroke="#666666" points="162,-228 47,-228 47,-198 162,-198 162,-228"/>
<text text-anchor="start" x="55" y="-216" font-family="Helvetica,sans-Serif" font-size="10.00">vehicle_control_unit</text>
<text text-anchor="middle" x="104.5" y="-205" font-family="Helvetica,sans-Serif" font-size="10.00">/include/Interp.hpp</text>
</a>
</g>
</g>
<!-- Node2 -->
<g id="node2" class="node">
<title>Node2</title>
<g id="a_node2"><a xlink:href="Curves_8hpp.html" target="_top" xlink:title="Definition of throttle and brake mapping tables.">
<polygon fill="white" stroke="#666666" points="162,-162 47,-162 47,-132 162,-132 162,-162"/>
<text text-anchor="start" x="55" y="-150" font-family="Helvetica,sans-Serif" font-size="10.00">vehicle_control_unit</text>
<text text-anchor="middle" x="104.5" y="-139" font-family="Helvetica,sans-Serif" font-size="10.00">/include/Curves.hpp</text>
</a>
</g>
</g>
<!-- Node1&#45;&gt;Node2 -->
<g id="edge1" class="edge">
<title>Node1&#45;&gt;Node2</title>
<path fill="none" stroke="#63b8ff" d="M104.5,-187.54C104.5,-178.96 104.5,-169.61 104.5,-162.16"/>
<polygon fill="#63b8ff" stroke="#63b8ff" points="101,-187.8 104.5,-197.8 108,-187.8 101,-187.8"/>
</g>
<!-- Node3 -->
<g id="node3" class="node">
<title>Node3</title>
<g id="a_node3"><a xlink:href="Pedal_8cpp.html" target="_top" xlink:title="Implementation of the Pedal class for handling throttle pedal inputs.">
<polygon fill="white" stroke="#666666" points="115,-30 0,-30 0,0 115,0 115,-30"/>
<text text-anchor="start" x="8" y="-18" font-family="Helvetica,sans-Serif" font-size="10.00">vehicle_control_unit</text>
<text text-anchor="middle" x="57.5" y="-7" font-family="Helvetica,sans-Serif" font-size="10.00">/lib/Pedal/Pedal.cpp</text>
</a>
</g>
</g>
<!-- Node1&#45;&gt;Node3 -->
<g id="edge7" class="edge">
<title>Node1&#45;&gt;Node3</title>
<path fill="none" stroke="#63b8ff" d="M65.89,-192.32C54.64,-184.52 43.72,-174.41 37.5,-162 15.37,-117.86 37.97,-57.29 50.44,-30.16"/>
<polygon fill="#63b8ff" stroke="#63b8ff" points="64.17,-195.38 74.47,-197.84 67.95,-189.49 64.17,-195.38"/>
</g>
<!-- Node4 -->
<g id="node4" class="node">
<title>Node4</title>
<g id="a_node4"><a xlink:href="Pedal_8hpp.html" target="_top" xlink:title="Declaration of the Pedal class for handling throttle and brake pedal inputs.">
<polygon fill="white" stroke="#666666" points="248,-96 133,-96 133,-66 248,-66 248,-96"/>
<text text-anchor="start" x="141" y="-84" font-family="Helvetica,sans-Serif" font-size="10.00">vehicle_control_unit</text>
<text text-anchor="middle" x="190.5" y="-73" font-family="Helvetica,sans-Serif" font-size="10.00">/lib/Pedal/Pedal.hpp</text>
</a>
</g>
</g>
<!-- Node1&#45;&gt;Node4 -->
<g id="edge8" class="edge">
<title>Node1&#45;&gt;Node4</title>
<path fill="none" stroke="#63b8ff" d="M140.35,-192.15C151.85,-184.17 163.62,-173.98 171.5,-162 184.83,-141.72 188.83,-113.1 190.02,-96.15"/>
<polygon fill="#63b8ff" stroke="#63b8ff" points="138.14,-189.42 131.69,-197.82 141.97,-195.28 138.14,-189.42"/>
</g>
<!-- Node2&#45;&gt;Node3 -->
<g id="edge2" class="edge">
<title>Node2&#45;&gt;Node3</title>
<path fill="none" stroke="#63b8ff" d="M95.96,-122.39C86.23,-95.46 70.63,-52.31 62.61,-30.14"/>
<polygon fill="#63b8ff" stroke="#63b8ff" points="92.69,-123.63 99.38,-131.84 99.27,-121.25 92.69,-123.63"/>
</g>
<!-- Node2&#45;&gt;Node4 -->
<g id="edge3" class="edge">
<title>Node2&#45;&gt;Node4</title>
<path fill="none" stroke="#63b8ff" d="M131.71,-125.75C144.64,-116.13 159.79,-104.86 171.47,-96.16"/>
<polygon fill="#63b8ff" stroke="#63b8ff" points="129.52,-123.02 123.59,-131.8 133.7,-128.63 129.52,-123.02"/>
</g>
<!-- Node5 -->
<g id="node5" class="node">
<title>Node5</title>
<g id="a_node5"><a xlink:href="main_8cpp.html" target="_top" xlink:title="Main VCU program entry point.">
<polygon fill="white" stroke="#666666" points="248,-30 133,-30 133,0 248,0 248,-30"/>
<text text-anchor="start" x="141" y="-18" font-family="Helvetica,sans-Serif" font-size="10.00">vehicle_control_unit</text>
<text text-anchor="middle" x="190.5" y="-7" font-family="Helvetica,sans-Serif" font-size="10.00">/src/main.cpp</text>
</a>
</g>
</g>
<!-- Node2&#45;&gt;Node5 -->
<g id="edge6" class="edge">
<title>Node2&#45;&gt;Node5</title>
<path fill="none" stroke="#63b8ff" d="M106.32,-121.71C108.55,-104.91 113.5,-82.66 124.5,-66 134.4,-51.01 150.37,-38.73 164.12,-30.1"/>
<polygon fill="#63b8ff" stroke="#63b8ff" points="102.82,-121.54 105.21,-131.86 109.78,-122.29 102.82,-121.54"/>
</g>
<!-- Node4&#45;&gt;Node3 -->
<g id="edge4" class="edge">
<title>Node4&#45;&gt;Node3</title>
<path fill="none" stroke="#63b8ff" d="M152.08,-61.51C131.22,-51.47 105.83,-39.26 86.62,-30.01"/>
<polygon fill="#63b8ff" stroke="#63b8ff" points="150.78,-64.77 161.31,-65.95 153.82,-58.46 150.78,-64.77"/>
</g>
<!-- Node4&#45;&gt;Node5 -->
<g id="edge5" class="edge">
<title>Node4&#45;&gt;Node5</title>
<path fill="none" stroke="#63b8ff" d="M190.5,-55.54C190.5,-46.96 190.5,-37.61 190.5,-30.16"/>
<polygon fill="#63b8ff" stroke="#63b8ff" points="187,-55.8 190.5,-65.8 194,-55.8 187,-55.8"/>
</g>
</g>
</svg>
