<?xml version="1.0" encoding="UTF-8" standalone="no"?>
<!DOCTYPE svg PUBLIC "-//W3C//DTD SVG 1.1//EN"
 "http://www.w3.org/Graphics/SVG/1.1/DTD/svg11.dtd">
<!-- Generated by graphviz version 2.43.0 (0)
 -->
<!-- Title: include/Interp.hpp Pages: 1 -->
<svg width="230pt" height="192pt"
 viewBox="0.00 0.00 229.50 192.00" xmlns="http://www.w3.org/2000/svg" xmlns:xlink="http://www.w3.org/1999/xlink">
<g id="graph0" class="graph" transform="scale(1 1) rotate(0) translate(4 188)">
<title>include/Interp.hpp</title>
<!-- Node1 -->
<g id="node1" class="node">
<title>Node1</title>
<g id="a_node1"><a xlink:title="Declaration and definition of the LinearInterp class template for linear interpolation.">
<polygon fill="#999999" stroke="#666666" points="176.5,-184 72.5,-184 72.5,-165 176.5,-165 176.5,-184"/>
<text text-anchor="middle" x="124.5" y="-172" font-family="Helvetica,sans-Serif" font-size="10.00">include/Interp.hpp</text>
</a>
</g>
</g>
<!-- Node2 -->
<g id="node2" class="node">
<title>Node2</title>
<g id="a_node2"><a xlink:href="Curves_8hpp.html" target="_top" xlink:title="Definition of throttle and brake mapping tables.">
<polygon fill="white" stroke="#666666" points="221.5,-129 111.5,-129 111.5,-110 221.5,-110 221.5,-129"/>
<text text-anchor="middle" x="166.5" y="-117" font-family="Helvetica,sans-Serif" font-size="10.00">include/Curves.hpp</text>
</a>
</g>
</g>
<!-- Node1&#45;&gt;Node2 -->
<g id="edge1" class="edge">
<title>Node1&#45;&gt;Node2</title>
<path fill="none" stroke="#63b8ff" d="M137.83,-156.67C145.11,-147.5 153.8,-136.52 159.69,-129.09"/>
<polygon fill="#63b8ff" stroke="#63b8ff" points="134.9,-154.74 131.44,-164.75 140.39,-159.08 134.9,-154.74"/>
</g>
<!-- Node3 -->
<g id="node3" class="node">
<title>Node3</title>
<g id="a_node3"><a xlink:href="Pedal_8hpp.html" target="_top" xlink:title=" ">
<polygon fill="white" stroke="#666666" points="138.5,-74 28.5,-74 28.5,-55 138.5,-55 138.5,-74"/>
<text text-anchor="middle" x="83.5" y="-62" font-family="Helvetica,sans-Serif" font-size="10.00">lib/Pedal/Pedal.hpp</text>
</a>
</g>
</g>
<!-- Node1&#45;&gt;Node3 -->
<g id="edge6" class="edge">
<title>Node1&#45;&gt;Node3</title>
<path fill="none" stroke="#63b8ff" d="M114.86,-155.73C110.73,-147.71 106.05,-138.02 102.5,-129 95,-109.94 88.74,-86.69 85.63,-74.28"/>
<polygon fill="#63b8ff" stroke="#63b8ff" points="111.9,-157.63 119.67,-164.83 118.09,-154.36 111.9,-157.63"/>
</g>
<!-- Node2&#45;&gt;Node3 -->
<g id="edge2" class="edge">
<title>Node2&#45;&gt;Node3</title>
<path fill="none" stroke="#63b8ff" d="M144.46,-104.42C129.39,-94.81 109.91,-82.37 97.08,-74.17"/>
<polygon fill="#63b8ff" stroke="#63b8ff" points="142.85,-107.55 153.16,-109.98 146.62,-101.65 142.85,-107.55"/>
</g>
<!-- Node5 -->
<g id="node5" class="node">
<title>Node5</title>
<g id="a_node5"><a xlink:href="main_8cpp.html" target="_top" xlink:title=" ">
<polygon fill="white" stroke="#666666" points="206,-19 127,-19 127,0 206,0 206,-19"/>
<text text-anchor="middle" x="166.5" y="-7" font-family="Helvetica,sans-Serif" font-size="10.00">src/main.cpp</text>
</a>
</g>
</g>
<!-- Node2&#45;&gt;Node5 -->
<g id="edge5" class="edge">
<title>Node2&#45;&gt;Node5</title>
<path fill="none" stroke="#63b8ff" d="M166.5,-99.48C166.5,-75.84 166.5,-36.5 166.5,-19.16"/>
<polygon fill="#63b8ff" stroke="#63b8ff" points="163,-99.66 166.5,-109.66 170,-99.66 163,-99.66"/>
</g>
<!-- Node4 -->
<g id="node4" class="node">
<title>Node4</title>
<g id="a_node4"><a xlink:href="Pedal_8cpp.html" target="_top" xlink:title="Implementation of the Pedal class for handling throttle pedal inputs.">
<polygon fill="white" stroke="#666666" points="109,-19 0,-19 0,0 109,0 109,-19"/>
<text text-anchor="middle" x="54.5" y="-7" font-family="Helvetica,sans-Serif" font-size="10.00">lib/Pedal/Pedal.cpp</text>
</a>
</g>
</g>
<!-- Node3&#45;&gt;Node4 -->
<g id="edge3" class="edge">
<title>Node3&#45;&gt;Node4</title>
<path fill="none" stroke="#63b8ff" d="M73.82,-45.82C68.9,-36.82 63.14,-26.29 59.2,-19.09"/>
<polygon fill="#63b8ff" stroke="#63b8ff" points="70.84,-47.66 78.71,-54.75 76.98,-44.3 70.84,-47.66"/>
</g>
<!-- Node3&#45;&gt;Node5 -->
<g id="edge4" class="edge">
<title>Node3&#45;&gt;Node5</title>
<path fill="none" stroke="#63b8ff" d="M105.54,-49.42C120.61,-39.81 140.09,-27.37 152.92,-19.17"/>
<polygon fill="#63b8ff" stroke="#63b8ff" points="103.38,-46.65 96.84,-54.98 107.15,-52.55 103.38,-46.65"/>
</g>
</g>
</svg>
