<?xml version="1.0" encoding="UTF-8" standalone="no"?>
<!DOCTYPE svg PUBLIC "-//W3C//DTD SVG 1.1//EN"
 "http://www.w3.org/Graphics/SVG/1.1/DTD/svg11.dtd">
<!-- Generated by graphviz version 2.43.0 (0)
 -->
<!-- Title: ee_sw_vcu_2025/include/Interp.hpp Pages: 1 -->
<svg width="256pt" height="236pt"
 viewBox="0.00 0.00 256.00 236.00" xmlns="http://www.w3.org/2000/svg" xmlns:xlink="http://www.w3.org/1999/xlink">
<g id="graph0" class="graph" transform="scale(1 1) rotate(0) translate(4 232)">
<title>ee_sw_vcu_2025/include/Interp.hpp</title>
<!-- Node1 -->
<g id="node1" class="node">
<title>Node1</title>
<g id="a_node1"><a xlink:title="Declaration and definition of the LinearInterp class template for linear interpolation.">
<polygon fill="#999999" stroke="#666666" points="173.5,-228 36.5,-228 36.5,-198 173.5,-198 173.5,-228"/>
<text text-anchor="start" x="44.5" y="-216" font-family="Helvetica,sans-Serif" font-size="10.00">ee_sw_vcu_2025/include</text>
<text text-anchor="middle" x="105" y="-205" font-family="Helvetica,sans-Serif" font-size="10.00">/Interp.hpp</text>
</a>
</g>
</g>
<!-- Node2 -->
<g id="node2" class="node">
<title>Node2</title>
<g id="a_node2"><a xlink:href="Curves_8hpp.html" target="_top" xlink:title="Definition of throttle and brake mapping tables.">
<polygon fill="white" stroke="#666666" points="173.5,-162 36.5,-162 36.5,-132 173.5,-132 173.5,-162"/>
<text text-anchor="start" x="44.5" y="-150" font-family="Helvetica,sans-Serif" font-size="10.00">ee_sw_vcu_2025/include</text>
<text text-anchor="middle" x="105" y="-139" font-family="Helvetica,sans-Serif" font-size="10.00">/Curves.hpp</text>
</a>
</g>
</g>
<!-- Node1&#45;&gt;Node2 -->
<g id="edge1" class="edge">
<title>Node1&#45;&gt;Node2</title>
<path fill="none" stroke="#63b8ff" d="M105,-187.54C105,-178.96 105,-169.61 105,-162.16"/>
<polygon fill="#63b8ff" stroke="#63b8ff" points="101.5,-187.8 105,-197.8 108.5,-187.8 101.5,-187.8"/>
</g>
<!-- Node3 -->
<g id="node3" class="node">
<title>Node3</title>
<g id="a_node3"><a xlink:href="Pedal_8cpp.html" target="_top" xlink:title="Implementation of the Pedal class for handling throttle pedal inputs.">
<polygon fill="white" stroke="#666666" points="114,-30 0,-30 0,0 114,0 114,-30"/>
<text text-anchor="start" x="8" y="-18" font-family="Helvetica,sans-Serif" font-size="10.00">ee_sw_vcu_2025/lib</text>
<text text-anchor="middle" x="57" y="-7" font-family="Helvetica,sans-Serif" font-size="10.00">/Pedal/Pedal.cpp</text>
</a>
</g>
</g>
<!-- Node1&#45;&gt;Node3 -->
<g id="edge7" class="edge">
<title>Node1&#45;&gt;Node3</title>
<path fill="none" stroke="#63b8ff" d="M59.31,-193.07C46.55,-185.41 34.21,-175.19 27,-162 3.04,-118.18 32.26,-57.45 48.09,-30.21"/>
<polygon fill="#63b8ff" stroke="#63b8ff" points="57.71,-196.19 68.16,-197.98 61.11,-190.07 57.71,-196.19"/>
</g>
<!-- Node4 -->
<g id="node4" class="node">
<title>Node4</title>
<g id="a_node4"><a xlink:href="Pedal_8hpp.html" target="_top" xlink:title="Declaration of the Pedal class for handling throttle and brake pedal inputs.">
<polygon fill="white" stroke="#666666" points="247,-96 133,-96 133,-66 247,-66 247,-96"/>
<text text-anchor="start" x="141" y="-84" font-family="Helvetica,sans-Serif" font-size="10.00">ee_sw_vcu_2025/lib</text>
<text text-anchor="middle" x="190" y="-73" font-family="Helvetica,sans-Serif" font-size="10.00">/Pedal/Pedal.hpp</text>
</a>
</g>
</g>
<!-- Node1&#45;&gt;Node4 -->
<g id="edge8" class="edge">
<title>Node1&#45;&gt;Node4</title>
<path fill="none" stroke="#63b8ff" d="M149.67,-192.88C162.51,-185.17 175.15,-174.97 183,-162 195.27,-141.72 194.33,-113.1 192.31,-96.15"/>
<polygon fill="#63b8ff" stroke="#63b8ff" points="147.83,-189.89 140.8,-197.82 151.24,-196.01 147.83,-189.89"/>
</g>
<!-- Node2&#45;&gt;Node3 -->
<g id="edge2" class="edge">
<title>Node2&#45;&gt;Node3</title>
<path fill="none" stroke="#63b8ff" d="M96.28,-122.39C86.34,-95.46 70.4,-52.31 62.22,-30.14"/>
<polygon fill="#63b8ff" stroke="#63b8ff" points="93.02,-123.67 99.77,-131.84 99.59,-121.25 93.02,-123.67"/>
</g>
<!-- Node2&#45;&gt;Node4 -->
<g id="edge3" class="edge">
<title>Node2&#45;&gt;Node4</title>
<path fill="none" stroke="#63b8ff" d="M131.89,-125.75C144.67,-116.13 159.64,-104.86 171.19,-96.16"/>
<polygon fill="#63b8ff" stroke="#63b8ff" points="129.75,-122.99 123.86,-131.8 133.96,-128.58 129.75,-122.99"/>
</g>
<!-- Node5 -->
<g id="node5" class="node">
<title>Node5</title>
<g id="a_node5"><a xlink:href="main_8cpp.html" target="_top" xlink:title="Main VCU program entry point.">
<polygon fill="white" stroke="#666666" points="248,-30 132,-30 132,0 248,0 248,-30"/>
<text text-anchor="start" x="140" y="-18" font-family="Helvetica,sans-Serif" font-size="10.00">ee_sw_vcu_2025/src</text>
<text text-anchor="middle" x="190" y="-7" font-family="Helvetica,sans-Serif" font-size="10.00">/main.cpp</text>
</a>
</g>
</g>
<!-- Node2&#45;&gt;Node5 -->
<g id="edge6" class="edge">
<title>Node2&#45;&gt;Node5</title>
<path fill="none" stroke="#63b8ff" d="M106.47,-121.72C108.46,-104.92 113.13,-82.68 124,-66 133.81,-50.95 149.78,-38.67 163.55,-30.05"/>
<polygon fill="#63b8ff" stroke="#63b8ff" points="102.97,-121.58 105.5,-131.86 109.93,-122.24 102.97,-121.58"/>
</g>
<!-- Node4&#45;&gt;Node3 -->
<g id="edge4" class="edge">
<title>Node4&#45;&gt;Node3</title>
<path fill="none" stroke="#63b8ff" d="M151.58,-61.51C130.72,-51.47 105.33,-39.26 86.12,-30.01"/>
<polygon fill="#63b8ff" stroke="#63b8ff" points="150.28,-64.77 160.81,-65.95 153.32,-58.46 150.28,-64.77"/>
</g>
<!-- Node4&#45;&gt;Node5 -->
<g id="edge5" class="edge">
<title>Node4&#45;&gt;Node5</title>
<path fill="none" stroke="#63b8ff" d="M190,-55.54C190,-46.96 190,-37.61 190,-30.16"/>
<polygon fill="#63b8ff" stroke="#63b8ff" points="186.5,-55.8 190,-65.8 193.5,-55.8 186.5,-55.8"/>
</g>
</g>
</svg>
