<?xml version="1.0" encoding="UTF-8" standalone="no"?>
<!DOCTYPE svg PUBLIC "-//W3C//DTD SVG 1.1//EN"
 "http://www.w3.org/Graphics/SVG/1.1/DTD/svg11.dtd">
<!-- Generated by graphviz version 2.43.0 (0)
 -->
<!-- Title: include/Interp.hpp Pages: 1 -->
<svg width="239pt" height="192pt"
 viewBox="0.00 0.00 238.50 192.00" xmlns="http://www.w3.org/2000/svg" xmlns:xlink="http://www.w3.org/1999/xlink">
<g id="graph0" class="graph" transform="scale(1 1) rotate(0) translate(4 188)">
<title>include/Interp.hpp</title>
<!-- Node1 -->
<g id="node1" class="node">
<title>Node1</title>
<g id="a_node1"><a xlink:title="Declaration and definition of the LinearInterp class template for linear interpolation.">
<polygon fill="#999999" stroke="#666666" points="144.5,-184 40.5,-184 40.5,-165 144.5,-165 144.5,-184"/>
<text text-anchor="middle" x="92.5" y="-172" font-family="Helvetica,sans-Serif" font-size="10.00">include/Interp.hpp</text>
</a>
</g>
</g>
<!-- Node2 -->
<g id="node2" class="node">
<title>Node2</title>
<g id="a_node2"><a xlink:href="Curves_8hpp.html" target="_top" xlink:title="Definition of throttle and brake mapping tables.">
<polygon fill="white" stroke="#666666" points="147.5,-129 37.5,-129 37.5,-110 147.5,-110 147.5,-129"/>
<text text-anchor="middle" x="92.5" y="-117" font-family="Helvetica,sans-Serif" font-size="10.00">include/Curves.hpp</text>
</a>
</g>
</g>
<!-- Node1&#45;&gt;Node2 -->
<g id="edge1" class="edge">
<title>Node1&#45;&gt;Node2</title>
<path fill="none" stroke="#63b8ff" d="M92.5,-154.66C92.5,-145.93 92.5,-135.99 92.5,-129.09"/>
<polygon fill="#63b8ff" stroke="#63b8ff" points="89,-154.75 92.5,-164.75 96,-154.75 89,-154.75"/>
</g>
<!-- Node3 -->
<g id="node3" class="node">
<title>Node3</title>
<g id="a_node3"><a xlink:href="Pedal_8cpp.html" target="_top" xlink:title="Implementation of the Pedal class for handling throttle pedal inputs.">
<polygon fill="white" stroke="#666666" points="109,-19 0,-19 0,0 109,0 109,-19"/>
<text text-anchor="middle" x="54.5" y="-7" font-family="Helvetica,sans-Serif" font-size="10.00">lib/Pedal/Pedal.cpp</text>
</a>
</g>
</g>
<!-- Node1&#45;&gt;Node3 -->
<g id="edge7" class="edge">
<title>Node1&#45;&gt;Node3</title>
<path fill="none" stroke="#63b8ff" d="M61.69,-160.13C48.99,-152.9 35.61,-142.61 28.5,-129 8.79,-91.29 36.37,-39.31 48.89,-19.06"/>
<polygon fill="#63b8ff" stroke="#63b8ff" points="60.23,-163.32 70.71,-164.87 63.48,-157.12 60.23,-163.32"/>
</g>
<!-- Node4 -->
<g id="node4" class="node">
<title>Node4</title>
<g id="a_node4"><a xlink:href="Pedal_8hpp.html" target="_top" xlink:title=" ">
<polygon fill="white" stroke="#666666" points="230.5,-74 120.5,-74 120.5,-55 230.5,-55 230.5,-74"/>
<text text-anchor="middle" x="175.5" y="-62" font-family="Helvetica,sans-Serif" font-size="10.00">lib/Pedal/Pedal.hpp</text>
</a>
</g>
</g>
<!-- Node1&#45;&gt;Node4 -->
<g id="edge8" class="edge">
<title>Node1&#45;&gt;Node4</title>
<path fill="none" stroke="#63b8ff" d="M119.98,-159.98C132.73,-152.45 147.11,-141.96 156.5,-129 168.79,-112.04 173.21,-87.1 174.74,-74.1"/>
<polygon fill="#63b8ff" stroke="#63b8ff" points="118.12,-157.01 111.08,-164.93 121.52,-163.13 118.12,-157.01"/>
</g>
<!-- Node2&#45;&gt;Node3 -->
<g id="edge2" class="edge">
<title>Node2&#45;&gt;Node3</title>
<path fill="none" stroke="#63b8ff" d="M86.03,-100.12C77.74,-76.56 63.7,-36.66 57.55,-19.16"/>
<polygon fill="#63b8ff" stroke="#63b8ff" points="82.77,-101.39 89.39,-109.66 89.37,-99.07 82.77,-101.39"/>
</g>
<!-- Node2&#45;&gt;Node4 -->
<g id="edge3" class="edge">
<title>Node2&#45;&gt;Node4</title>
<path fill="none" stroke="#63b8ff" d="M114.54,-104.42C129.61,-94.81 149.09,-82.37 161.92,-74.17"/>
<polygon fill="#63b8ff" stroke="#63b8ff" points="112.38,-101.65 105.84,-109.98 116.15,-107.55 112.38,-101.65"/>
</g>
<!-- Node5 -->
<g id="node5" class="node">
<title>Node5</title>
<g id="a_node5"><a xlink:href="main_8cpp.html" target="_top" xlink:title=" ">
<polygon fill="white" stroke="#666666" points="210,-19 131,-19 131,0 210,0 210,-19"/>
<text text-anchor="middle" x="170.5" y="-7" font-family="Helvetica,sans-Serif" font-size="10.00">src/main.cpp</text>
</a>
</g>
</g>
<!-- Node2&#45;&gt;Node5 -->
<g id="edge6" class="edge">
<title>Node2&#45;&gt;Node5</title>
<path fill="none" stroke="#63b8ff" d="M94.89,-99.97C97.33,-86.53 102.16,-68.43 111.5,-55 122.41,-39.31 140.61,-26.81 153.91,-19.1"/>
<polygon fill="#63b8ff" stroke="#63b8ff" points="91.41,-99.54 93.35,-109.96 98.33,-100.61 91.41,-99.54"/>
</g>
<!-- Node4&#45;&gt;Node3 -->
<g id="edge4" class="edge">
<title>Node4&#45;&gt;Node3</title>
<path fill="none" stroke="#63b8ff" d="M146.73,-50.9C124.38,-41.11 93.98,-27.79 74.29,-19.17"/>
<polygon fill="#63b8ff" stroke="#63b8ff" points="145.5,-54.18 156.06,-54.98 148.3,-47.77 145.5,-54.18"/>
</g>
<!-- Node4&#45;&gt;Node5 -->
<g id="edge5" class="edge">
<title>Node4&#45;&gt;Node5</title>
<path fill="none" stroke="#63b8ff" d="M173.72,-44.66C172.9,-35.93 171.96,-25.99 171.31,-19.09"/>
<polygon fill="#63b8ff" stroke="#63b8ff" points="170.25,-45.12 174.67,-54.75 177.22,-44.46 170.25,-45.12"/>
</g>
</g>
</svg>
