<?xml version="1.0" encoding="UTF-8" standalone="no"?>
<!DOCTYPE svg PUBLIC "-//W3C//DTD SVG 1.1//EN"
 "http://www.w3.org/Graphics/SVG/1.1/DTD/svg11.dtd">
<!-- Generated by graphviz version 2.43.0 (0)
 -->
<!-- Title: scheduler_bms Pages: 1 -->
<svg width="546pt" height="101pt"
 viewBox="0.00 0.00 546.00 101.00" xmlns="http://www.w3.org/2000/svg" xmlns:xlink="http://www.w3.org/1999/xlink">
<g id="graph0" class="graph" transform="scale(1 1) rotate(0) translate(4 97)">
<title>scheduler_bms</title>
<!-- Node1 -->
<g id="node1" class="node">
<title>Node1</title>
<g id="a_node1"><a xlink:title=" ">
<polygon fill="#999999" stroke="#666666" points="90,-37 0,-37 0,-18 90,-18 90,-37"/>
<text text-anchor="middle" x="45" y="-25" font-family="Helvetica,sans-Serif" font-size="10.00">scheduler_bms</text>
</a>
</g>
</g>
<!-- Node2 -->
<g id="node2" class="node">
<title>Node2</title>
<g id="a_node2"><a xlink:href="classBMS.html#a2b5ec1ea35cac26d5defeb652f721975" target="_top" xlink:title="Attempt to start HV. First check BMS is in standby(3) state, then send the HV start command....">
<polygon fill="white" stroke="#666666" points="216,-37 126,-37 126,-18 216,-18 216,-37"/>
<text text-anchor="middle" x="171" y="-25" font-family="Helvetica,sans-Serif" font-size="10.00">BMS::check_hv</text>
</a>
</g>
</g>
<!-- Node1&#45;&gt;Node2 -->
<g id="edge1" class="edge">
<title>Node1&#45;&gt;Node2</title>
<path fill="none" stroke="#63b8ff" d="M90.07,-27.5C98.28,-27.5 106.96,-27.5 115.44,-27.5"/>
<polygon fill="#63b8ff" stroke="#63b8ff" points="115.66,-31 125.66,-27.5 115.66,-24 115.66,-31"/>
</g>
<!-- Node3 -->
<g id="node3" class="node">
<title>Node3</title>
<g id="a_node3"><a xlink:href="Debug_8h.html#a5811a65cdb8fc3c5255f57301cbb8481" target="_top" xlink:title="Sends BMS debug info via CAN or serial (if enabled).">
<polygon fill="white" stroke="#666666" points="359,-56 252,-56 252,-37 359,-37 359,-56"/>
<text text-anchor="middle" x="305.5" y="-44" font-family="Helvetica,sans-Serif" font-size="10.00">DBG_BMS_STATUS</text>
</a>
</g>
</g>
<!-- Node2&#45;&gt;Node3 -->
<g id="edge2" class="edge">
<title>Node2&#45;&gt;Node3</title>
<path fill="none" stroke="#63b8ff" d="M216.12,-33.83C224.35,-35.01 233.08,-36.26 241.74,-37.5"/>
<polygon fill="#63b8ff" stroke="#63b8ff" points="241.44,-40.99 251.84,-38.95 242.43,-34.06 241.44,-40.99"/>
</g>
<!-- Node6 -->
<g id="node6" class="node">
<title>Node6</title>
<g id="a_node6"><a xlink:href="Debug_8h.html#a8e8d6e3de15309922f25c12f4d7cf727" target="_top" xlink:title="Prints a line to the serial console for general debug.">
<polygon fill="white" stroke="#666666" points="356.5,-19 254.5,-19 254.5,0 356.5,0 356.5,-19"/>
<text text-anchor="middle" x="305.5" y="-7" font-family="Helvetica,sans-Serif" font-size="10.00">DBGLN_GENERAL</text>
</a>
</g>
</g>
<!-- Node2&#45;&gt;Node6 -->
<g id="edge5" class="edge">
<title>Node2&#45;&gt;Node6</title>
<path fill="none" stroke="#63b8ff" d="M216.12,-21.51C225.08,-20.29 234.64,-18.99 244.05,-17.71"/>
<polygon fill="#63b8ff" stroke="#63b8ff" points="244.72,-21.15 254.16,-16.34 243.78,-14.22 244.72,-21.15"/>
</g>
<!-- Node4 -->
<g id="node4" class="node">
<title>Node4</title>
<g id="a_node4"><a xlink:href="namespaceDebug__CAN.html#ab78e4ce29a20ab1dae2db225def6b747" target="_top" xlink:title="Sends a debug BMS status message over CAN. This function prepares a CAN frame with the current BMS st...">
<polygon fill="white" stroke="#666666" points="535,-93 398,-93 398,-74 535,-74 535,-93"/>
<text text-anchor="middle" x="466.5" y="-81" font-family="Helvetica,sans-Serif" font-size="10.00">Debug_CAN::status_bms</text>
</a>
</g>
</g>
<!-- Node3&#45;&gt;Node4 -->
<g id="edge3" class="edge">
<title>Node3&#45;&gt;Node4</title>
<path fill="none" stroke="#63b8ff" d="M347.45,-56.03C367.86,-60.78 392.75,-66.57 414.4,-71.61"/>
<polygon fill="#63b8ff" stroke="#63b8ff" points="413.88,-75.08 424.42,-73.94 415.47,-68.26 413.88,-75.08"/>
</g>
<!-- Node5 -->
<g id="node5" class="node">
<title>Node5</title>
<g id="a_node5"><a xlink:href="namespaceDebug__Serial.html#a6c4d64b8a917b7e18071210c43c1a98f" target="_top" xlink:title="Prints the current BMS status to the serial console. This function formats and sends the current BMS ...">
<polygon fill="white" stroke="#666666" points="538,-56 395,-56 395,-37 538,-37 538,-56"/>
<text text-anchor="middle" x="466.5" y="-44" font-family="Helvetica,sans-Serif" font-size="10.00">Debug_Serial::status_bms</text>
</a>
</g>
</g>
<!-- Node3&#45;&gt;Node5 -->
<g id="edge4" class="edge">
<title>Node3&#45;&gt;Node5</title>
<path fill="none" stroke="#63b8ff" d="M359,-46.5C367.26,-46.5 375.96,-46.5 384.68,-46.5"/>
<polygon fill="#63b8ff" stroke="#63b8ff" points="384.9,-50 394.9,-46.5 384.9,-43 384.9,-50"/>
</g>
<!-- Node7 -->
<g id="node7" class="node">
<title>Node7</title>
<g id="a_node7"><a xlink:href="namespaceDebug__Serial.html#a756fa9286151426012a6f8e178a6c550" target="_top" xlink:title="Prints a line to the serial console. This function sends a string message followed by a newline to th...">
<polygon fill="white" stroke="#666666" points="526,-19 407,-19 407,0 526,0 526,-19"/>
<text text-anchor="middle" x="466.5" y="-7" font-family="Helvetica,sans-Serif" font-size="10.00">Debug_Serial::println</text>
</a>
</g>
</g>
<!-- Node6&#45;&gt;Node7 -->
<g id="edge6" class="edge">
<title>Node6&#45;&gt;Node7</title>
<path fill="none" stroke="#63b8ff" d="M356.81,-9.5C369.5,-9.5 383.34,-9.5 396.76,-9.5"/>
<polygon fill="#63b8ff" stroke="#63b8ff" points="396.92,-13 406.92,-9.5 396.92,-6 396.92,-13"/>
</g>
</g>
</svg>
