<?xml version="1.0" encoding="UTF-8" standalone="no"?>
<!DOCTYPE svg PUBLIC "-//W3C//DTD SVG 1.1//EN"
 "http://www.w3.org/Graphics/SVG/1.1/DTD/svg11.dtd">
<!-- Generated by graphviz version 2.43.0 (0)
 -->
<!-- Title: schedulerTelemetry Pages: 1 -->
<!--zoomable 134 -->
<svg id="main" version="1.1" xmlns="http://www.w3.org/2000/svg" xmlns:xlink="http://www.w3.org/1999/xlink" xml:space="preserve" onload="init(evt)">
<style type="text/css"><![CDATA[
.edge:hover path { stroke: red; }
.edge:hover polygon { stroke: red; fill: red; }
]]></style>
<script type="text/javascript"><![CDATA[
var edges = document.getElementsByTagName('g');
if (edges && edges.length) {
  for (var i=0;i<edges.length;i++) {
    if (edges[i].id.substr(0,4)=='edge') {
      edges[i].setAttribute('class','edge');
    }
  }
}
]]></script>
        <defs>
                <circle id="rim" cx="0" cy="0" r="7"/>
                <circle id="rim2" cx="0" cy="0" r="3.5"/>
                <g id="zoomPlus">
                        <use xlink:href="#rim" fill="#404040">
                                <set attributeName="fill" to="#808080" begin="zoomplus.mouseover" end="zoomplus.mouseout"/>
                        </use>
                        <path d="M-4,0h8M0,-4v8" fill="none" stroke="white" stroke-width="1.5" pointer-events="none"/>
                </g>
                <g id="zoomMin">
                        <use xlink:href="#rim" fill="#404040">
                                <set attributeName="fill" to="#808080" begin="zoomminus.mouseover" end="zoomminus.mouseout"/>
                        </use>
                        <path d="M-4,0h8" fill="none" stroke="white" stroke-width="1.5" pointer-events="none"/>
                </g>
                <g id="dirArrow">
                        <path fill="none" stroke="white" stroke-width="1.5" d="M0,-3.0v7 M-2.5,-0.5L0,-3.0L2.5,-0.5"/>
                </g>
               <g id="resetDef">
                       <use xlink:href="#rim2" fill="#404040">
                               <set attributeName="fill" to="#808080" begin="reset.mouseover" end="reset.mouseout"/>
                       </use>
               </g>
        </defs>

<script type="text/javascript">
var viewWidth = 650;
var viewHeight = 134;
var sectionId = 'dynsection-7';
</script>
<script xlink:href="svgpan.js"/>
<svg id="graph" class="graph">
<g id="viewport">
<title>schedulerTelemetry</title>
<!-- Node1 -->
<g id="node1" class="node">
<title>Node1</title>
<g id="a_node1"><a xlink:title=" ">
<polygon fill="#999999" stroke="#666666" points="113,-72.5 0,-72.5 0,-53.5 113,-53.5 113,-72.5"/>
<text text-anchor="middle" x="56.5" y="-60.5" font-family="Helvetica,sans-Serif" font-size="10.00">schedulerTelemetry</text>
</a>
</g>
</g>
<!-- Node2 -->
<g id="node2" class="node">
<title>Node2</title>
<g id="a_node2"><a xlink:href="classTelemetry.html#a892ba1df53bea0797e63b8e7a0030d91" target="_top" xlink:title="Sends telemetry data based on the scheduling logic.">
<polygon fill="white" stroke="#666666" points="292,-72.5 149,-72.5 149,-53.5 292,-53.5 292,-72.5"/>
<text text-anchor="middle" x="220.5" y="-60.5" font-family="Helvetica,sans-Serif" font-size="10.00">Telemetry::sendTelemetry</text>
</a>
</g>
</g>
<!-- Node1&#45;&gt;Node2 -->
<g id="edge1" class="edge">
<title>Node1&#45;&gt;Node2</title>
<path fill="none" stroke="#63b8ff" d="M113.25,-63C121.47,-63 130.08,-63 138.69,-63"/>
<polygon fill="#63b8ff" stroke="#63b8ff" points="138.77,-66.5 148.77,-63 138.77,-59.5 138.77,-66.5"/>
</g>
<!-- Node3 -->
<g id="node3" class="node">
<title>Node3</title>
<g id="a_node3"><a xlink:href="classTelemetry.html#aeed89696476accb74fb8807b92fbdcd8" target="_top" xlink:title="Internal helper to get and send the ADC telemetry frame.">
<polygon fill="white" stroke="#666666" points="471,-114.5 335,-114.5 335,-95.5 471,-95.5 471,-114.5"/>
<text text-anchor="middle" x="403" y="-102.5" font-family="Helvetica,sans-Serif" font-size="10.00">Telemetry::schedulerAdc</text>
</a>
</g>
</g>
<!-- Node2&#45;&gt;Node3 -->
<g id="edge2" class="edge">
<title>Node2&#45;&gt;Node3</title>
<path fill="none" stroke="#63b8ff" d="M262.46,-72.53C288.67,-78.63 322.9,-86.59 350.89,-93.11"/>
<polygon fill="#63b8ff" stroke="#63b8ff" points="350.36,-96.58 360.89,-95.43 351.95,-89.76 350.36,-96.58"/>
</g>
<!-- Node5 -->
<g id="node5" class="node">
<title>Node5</title>
<g id="a_node5"><a xlink:href="classTelemetry.html#a50074891c9ce48296fe72f159befd488" target="_top" xlink:title="Internal helper to get and send the digital telemetry frame.">
<polygon fill="white" stroke="#666666" points="478,-72.5 328,-72.5 328,-53.5 478,-53.5 478,-72.5"/>
<text text-anchor="middle" x="403" y="-60.5" font-family="Helvetica,sans-Serif" font-size="10.00">Telemetry::schedulerDigital</text>
</a>
</g>
</g>
<!-- Node2&#45;&gt;Node5 -->
<g id="edge4" class="edge">
<title>Node2&#45;&gt;Node5</title>
<path fill="none" stroke="#63b8ff" d="M292.06,-63C300.52,-63 309.22,-63 317.84,-63"/>
<polygon fill="#63b8ff" stroke="#63b8ff" points="317.91,-66.5 327.91,-63 317.91,-59.5 317.91,-66.5"/>
</g>
<!-- Node7 -->
<g id="node7" class="node">
<title>Node7</title>
<g id="a_node7"><a xlink:href="classTelemetry.html#a22bea2cd68922773581b1d460bea6709" target="_top" xlink:title="Internal helper to get and send the state telemetry frame.">
<polygon fill="white" stroke="#666666" points="477.5,-30.5 328.5,-30.5 328.5,-11.5 477.5,-11.5 477.5,-30.5"/>
<text text-anchor="middle" x="403" y="-18.5" font-family="Helvetica,sans-Serif" font-size="10.00">Telemetry::schedulerStates</text>
</a>
</g>
</g>
<!-- Node2&#45;&gt;Node7 -->
<g id="edge6" class="edge">
<title>Node2&#45;&gt;Node7</title>
<path fill="none" stroke="#63b8ff" d="M262.46,-53.47C288.67,-47.37 322.9,-39.41 350.89,-32.89"/>
<polygon fill="#63b8ff" stroke="#63b8ff" points="351.95,-36.24 360.89,-30.57 350.36,-29.42 351.95,-36.24"/>
</g>
<!-- Node4 -->
<g id="node4" class="node">
<title>Node4</title>
<g id="a_node4"><a xlink:href="structTelemetryFrameAdc.html#a4e7f8219ce7209b97691c2ba4df11c23" target="_top" xlink:title="Converts the TelemetryFrameAdc to a CAN frame.">
<polygon fill="white" stroke="#666666" points="638,-126 518,-126 518,-96 638,-96 638,-126"/>
<text text-anchor="start" x="526" y="-114" font-family="Helvetica,sans-Serif" font-size="10.00">TelemetryFrameAdc::</text>
<text text-anchor="middle" x="578" y="-103" font-family="Helvetica,sans-Serif" font-size="10.00">toCanFrame</text>
</a>
</g>
</g>
<!-- Node3&#45;&gt;Node4 -->
<g id="edge3" class="edge">
<title>Node3&#45;&gt;Node4</title>
<path fill="none" stroke="#63b8ff" d="M471.38,-107.34C483.27,-107.75 495.66,-108.18 507.61,-108.59"/>
<polygon fill="#63b8ff" stroke="#63b8ff" points="507.84,-112.1 517.96,-108.95 508.09,-105.11 507.84,-112.1"/>
</g>
<!-- Node6 -->
<g id="node6" class="node">
<title>Node6</title>
<g id="a_node6"><a xlink:href="structTelemetryFrameDigital.html#a854a063396c822b4d02f3897276bd611" target="_top" xlink:title="Converts the TelemetryFrameDigital to a CAN frame.">
<polygon fill="white" stroke="#666666" points="642,-78 514,-78 514,-48 642,-48 642,-78"/>
<text text-anchor="start" x="522" y="-66" font-family="Helvetica,sans-Serif" font-size="10.00">TelemetryFrameDigital</text>
<text text-anchor="middle" x="578" y="-55" font-family="Helvetica,sans-Serif" font-size="10.00">::toCanFrame</text>
</a>
</g>
</g>
<!-- Node5&#45;&gt;Node6 -->
<g id="edge5" class="edge">
<title>Node5&#45;&gt;Node6</title>
<path fill="none" stroke="#63b8ff" d="M478.12,-63C486.6,-63 495.23,-63 503.7,-63"/>
<polygon fill="#63b8ff" stroke="#63b8ff" points="503.92,-66.5 513.92,-63 503.92,-59.5 503.92,-66.5"/>
</g>
<!-- Node8 -->
<g id="node8" class="node">
<title>Node8</title>
<g id="a_node8"><a xlink:href="structTelemetryFrameState.html#a3c77ae091bd1912d700dbb58b2f1c68e" target="_top" xlink:title="Converts the TelemetryFrameState to a CAN frame.">
<polygon fill="white" stroke="#666666" points="639,-30 517,-30 517,0 639,0 639,-30"/>
<text text-anchor="start" x="525" y="-18" font-family="Helvetica,sans-Serif" font-size="10.00">TelemetryFrameState</text>
<text text-anchor="middle" x="578" y="-7" font-family="Helvetica,sans-Serif" font-size="10.00">::toCanFrame</text>
</a>
</g>
</g>
<!-- Node7&#45;&gt;Node8 -->
<g id="edge7" class="edge">
<title>Node7&#45;&gt;Node8</title>
<path fill="none" stroke="#63b8ff" d="M477.62,-18.45C487.21,-18.11 497.02,-17.77 506.55,-17.44"/>
<polygon fill="#63b8ff" stroke="#63b8ff" points="506.9,-20.93 516.77,-17.09 506.66,-13.94 506.9,-20.93"/>
</g>
</g>
</svg>
        <g id="navigator" transform="translate(0 0)" fill="#404254">
                <rect fill="#f2f5e9" fill-opacity="0.5" stroke="#606060" stroke-width=".5" x="0" y="0" width="60" height="60"/>
                <use id="zoomplus" xlink:href="#zoomPlus" x="17" y="9" onmousedown="handleZoom(evt,'in')"/>
                <use id="zoomminus" xlink:href="#zoomMin" x="42" y="9" onmousedown="handleZoom(evt,'out')"/>
                <use id="reset" xlink:href="#resetDef" x="30" y="36" onmousedown="handleReset()"/>
                <g id="arrowUp" xlink:href="#dirArrow" transform="translate(30 24)" onmousedown="handlePan(0,-1)">
                  <use xlink:href="#rim" fill="#404040">
                        <set attributeName="fill" to="#808080" begin="arrowUp.mouseover" end="arrowUp.mouseout"/>
                  </use>
                  <path fill="none" stroke="white" stroke-width="1.5" d="M0,-3.0v7 M-2.5,-0.5L0,-3.0L2.5,-0.5"/>
                </g>
                <g id="arrowRight" xlink:href="#dirArrow" transform="rotate(90) translate(36 -43)" onmousedown="handlePan(1,0)">
                  <use xlink:href="#rim" fill="#404040">
                        <set attributeName="fill" to="#808080" begin="arrowRight.mouseover" end="arrowRight.mouseout"/>
                  </use>
                  <path fill="none" stroke="white" stroke-width="1.5" d="M0,-3.0v7 M-2.5,-0.5L0,-3.0L2.5,-0.5"/>
                </g>
                <g id="arrowDown" xlink:href="#dirArrow" transform="rotate(180) translate(-30 -48)" onmousedown="handlePan(0,1)">
                  <use xlink:href="#rim" fill="#404040">
                        <set attributeName="fill" to="#808080" begin="arrowDown.mouseover" end="arrowDown.mouseout"/>
                  </use>
                  <path fill="none" stroke="white" stroke-width="1.5" d="M0,-3.0v7 M-2.5,-0.5L0,-3.0L2.5,-0.5"/>
                </g>
                <g id="arrowLeft" xlink:href="#dirArrow" transform="rotate(270) translate(-36 17)" onmousedown="handlePan(-1,0)">
                  <use xlink:href="#rim" fill="#404040">
                        <set attributeName="fill" to="#808080" begin="arrowLeft.mouseover" end="arrowLeft.mouseout"/>
                  </use>
                  <path fill="none" stroke="white" stroke-width="1.5" d="M0,-3.0v7 M-2.5,-0.5L0,-3.0L2.5,-0.5"/>
                </g>
        </g>
        <svg viewBox="0 0 15 15" width="100%" height="30px" preserveAspectRatio="xMaxYMin meet">
         <g id="arrow_out" transform="scale(0.3 0.3)">
          <a xlink:href="main_8cpp_a18a2a13352158a1c448c163c58e2b486_cgraph_org.svg" target="_base">
           <rect id="button" ry="5" rx="5" y="6" x="6" height="38" width="38"
                fill="#f2f5e9" fill-opacity="0.5" stroke="#606060" stroke-width="1.0"/>
           <path id="arrow"
             d="M 11.500037,31.436501 C 11.940474,20.09759 22.043105,11.32322 32.158766,21.979434 L 37.068811,17.246167 C 37.068811,17.246167 37.088388,32 37.088388,32 L 22.160133,31.978069 C 22.160133,31.978069 26.997745,27.140456 26.997745,27.140456 C 18.528582,18.264221 13.291696,25.230495 11.500037,31.436501 z"
             style="fill:#404040;"/>
          </a>
         </g>
        </svg>
</svg>
