<?xml version="1.0" encoding="UTF-8" standalone="no"?>
<!DOCTYPE svg PUBLIC "-//W3C//DTD SVG 1.1//EN"
 "http://www.w3.org/Graphics/SVG/1.1/DTD/svg11.dtd">
<!-- Generated by graphviz version 2.43.0 (0)
 -->
<!-- Title: src/main.cpp Pages: 1 -->
<svg width="643pt" height="302pt"
 viewBox="0.00 0.00 643.00 302.00" xmlns="http://www.w3.org/2000/svg" xmlns:xlink="http://www.w3.org/1999/xlink">
<g id="graph0" class="graph" transform="scale(1 1) rotate(0) translate(4 298)">
<title>src/main.cpp</title>
<!-- Node1 -->
<g id="node1" class="node">
<title>Node1</title>
<g id="a_node1"><a xlink:title=" ">
<polygon fill="#999999" stroke="#666666" points="366,-294 287,-294 287,-275 366,-275 366,-294"/>
<text text-anchor="middle" x="326.5" y="-282" font-family="Helvetica,sans-Serif" font-size="10.00">src/main.cpp</text>
</a>
</g>
</g>
<!-- Node2 -->
<g id="node2" class="node">
<title>Node2</title>
<g id="a_node2"><a xlink:title=" ">
<polygon fill="#e0e0e0" stroke="#999999" points="63,-239 0,-239 0,-220 63,-220 63,-239"/>
<text text-anchor="middle" x="31.5" y="-227" font-family="Helvetica,sans-Serif" font-size="10.00">Arduino.h</text>
</a>
</g>
</g>
<!-- Node1&#45;&gt;Node2 -->
<g id="edge1" class="edge">
<title>Node1&#45;&gt;Node2</title>
<path fill="none" stroke="#63b8ff" d="M286.83,-276.94C238.75,-268.91 155,-254.63 73.22,-239.09"/>
<polygon fill="#63b8ff" stroke="#63b8ff" points="73.74,-235.62 63.26,-237.19 72.43,-242.5 73.74,-235.62"/>
</g>
<!-- Node3 -->
<g id="node3" class="node">
<title>Node3</title>
<g id="a_node3"><a xlink:title=" ">
<polygon fill="#e0e0e0" stroke="#999999" points="157.5,-239 81.5,-239 81.5,-220 157.5,-220 157.5,-239"/>
<text text-anchor="middle" x="119.5" y="-227" font-family="Helvetica,sans-Serif" font-size="10.00">BoardConf.h</text>
</a>
</g>
</g>
<!-- Node1&#45;&gt;Node3 -->
<g id="edge2" class="edge">
<title>Node1&#45;&gt;Node3</title>
<path fill="none" stroke="#63b8ff" d="M293.24,-274.98C257.89,-265.93 201.83,-251.58 162.99,-241.64"/>
<polygon fill="#63b8ff" stroke="#63b8ff" points="163.57,-238.17 153.02,-239.08 161.84,-244.95 163.57,-238.17"/>
</g>
<!-- Node4 -->
<g id="node4" class="node">
<title>Node4</title>
<g id="a_node4"><a xlink:href="Pedal_8hpp.html" target="_top" xlink:title=" ">
<polygon fill="white" stroke="#666666" points="279,-184 214,-184 214,-165 279,-165 279,-184"/>
<text text-anchor="middle" x="246.5" y="-172" font-family="Helvetica,sans-Serif" font-size="10.00">Pedal.hpp</text>
</a>
</g>
</g>
<!-- Node1&#45;&gt;Node4 -->
<g id="edge3" class="edge">
<title>Node1&#45;&gt;Node4</title>
<path fill="none" stroke="#63b8ff" d="M320.17,-274.97C313.53,-266.01 302.78,-251.52 293.5,-239 281.81,-223.21 268.48,-205.21 259.02,-192.42"/>
<polygon fill="#63b8ff" stroke="#63b8ff" points="261.64,-190.09 252.88,-184.13 256.02,-194.25 261.64,-190.09"/>
</g>
<!-- Node7 -->
<g id="node7" class="node">
<title>Node7</title>
<g id="a_node7"><a xlink:href="CarState_8hpp.html" target="_top" xlink:title="Definition of the CarState structure representing the state of the car.">
<polygon fill="white" stroke="#666666" points="317.5,-129 237.5,-129 237.5,-110 317.5,-110 317.5,-129"/>
<text text-anchor="middle" x="277.5" y="-117" font-family="Helvetica,sans-Serif" font-size="10.00">CarState.hpp</text>
</a>
</g>
</g>
<!-- Node1&#45;&gt;Node7 -->
<g id="edge29" class="edge">
<title>Node1&#45;&gt;Node7</title>
<path fill="none" stroke="#63b8ff" d="M323.87,-274.74C316.19,-249.2 293.71,-174.43 283.13,-139.23"/>
<polygon fill="#63b8ff" stroke="#63b8ff" points="286.38,-137.88 280.15,-129.31 279.67,-139.89 286.38,-137.88"/>
</g>
<!-- Node8 -->
<g id="node8" class="node">
<title>Node8</title>
<g id="a_node8"><a xlink:href="Enums_8h.html" target="_top" xlink:title="Enumeration definitions for the VCU.">
<polygon fill="white" stroke="#666666" points="418,-74 359,-74 359,-55 418,-55 418,-74"/>
<text text-anchor="middle" x="388.5" y="-62" font-family="Helvetica,sans-Serif" font-size="10.00">Enums.h</text>
</a>
</g>
</g>
<!-- Node1&#45;&gt;Node8 -->
<g id="edge28" class="edge">
<title>Node1&#45;&gt;Node8</title>
<path fill="none" stroke="#63b8ff" d="M328.93,-274.95C338.05,-242.88 370.38,-129.2 383.21,-84.12"/>
<polygon fill="#63b8ff" stroke="#63b8ff" points="386.65,-84.8 386.02,-74.22 379.92,-82.88 386.65,-84.8"/>
</g>
<!-- Node11 -->
<g id="node11" class="node">
<title>Node11</title>
<g id="a_node11"><a xlink:href="Curves_8hpp.html" target="_top" xlink:title="Definition of throttle and brake mapping tables.">
<polygon fill="white" stroke="#666666" points="100,-129 29,-129 29,-110 100,-110 100,-129"/>
<text text-anchor="middle" x="64.5" y="-117" font-family="Helvetica,sans-Serif" font-size="10.00">Curves.hpp</text>
</a>
</g>
</g>
<!-- Node1&#45;&gt;Node11 -->
<g id="edge31" class="edge">
<title>Node1&#45;&gt;Node11</title>
<path fill="none" stroke="#63b8ff" d="M312.78,-274.97C270.17,-248.46 139.8,-167.35 87.03,-134.52"/>
<polygon fill="#63b8ff" stroke="#63b8ff" points="88.74,-131.46 78.4,-129.15 85.04,-137.4 88.74,-131.46"/>
</g>
<!-- Node12 -->
<g id="node12" class="node">
<title>Node12</title>
<g id="a_node12"><a xlink:title=" ">
<polygon fill="#e0e0e0" stroke="#999999" points="635,-74 564,-74 564,-55 635,-55 635,-74"/>
<text text-anchor="middle" x="599.5" y="-62" font-family="Helvetica,sans-Serif" font-size="10.00">mcp2515.h</text>
</a>
</g>
</g>
<!-- Node1&#45;&gt;Node12 -->
<g id="edge32" class="edge">
<title>Node1&#45;&gt;Node12</title>
<path fill="none" stroke="#63b8ff" d="M366.06,-280.29C426.09,-274.76 536.59,-261.76 568.5,-239 611.64,-208.22 607.47,-181.52 614.5,-129 615.62,-120.63 615.87,-118.33 614.5,-110 613.03,-101.05 610.01,-91.47 607.06,-83.51"/>
<polygon fill="#63b8ff" stroke="#63b8ff" points="610.29,-82.16 603.36,-74.15 603.78,-84.74 610.29,-82.16"/>
</g>
<!-- Node13 -->
<g id="node13" class="node">
<title>Node13</title>
<g id="a_node13"><a xlink:href="BMS_8hpp.html" target="_top" xlink:title="Declaration of the BMS class for managing the Accumulator (Kclear BMS) via CAN bus.">
<polygon fill="white" stroke="#666666" points="559,-239 500,-239 500,-220 559,-220 559,-239"/>
<text text-anchor="middle" x="529.5" y="-227" font-family="Helvetica,sans-Serif" font-size="10.00">BMS.hpp</text>
</a>
</g>
</g>
<!-- Node1&#45;&gt;Node13 -->
<g id="edge19" class="edge">
<title>Node1&#45;&gt;Node13</title>
<path fill="none" stroke="#63b8ff" d="M359.12,-274.98C394.82,-265.66 452.04,-250.72 490.19,-240.76"/>
<polygon fill="#63b8ff" stroke="#63b8ff" points="491.14,-244.13 499.94,-238.22 489.38,-237.36 491.14,-244.13"/>
</g>
<!-- Node14 -->
<g id="node14" class="node">
<title>Node14</title>
<g id="a_node14"><a xlink:href="Scheduler_8hpp.html" target="_top" xlink:title="Declaration of the Scheduler class template, for scheduling tasks on multiple MCP2515 instances.">
<polygon fill="white" stroke="#666666" points="572,-184 487,-184 487,-165 572,-165 572,-184"/>
<text text-anchor="middle" x="529.5" y="-172" font-family="Helvetica,sans-Serif" font-size="10.00">Scheduler.hpp</text>
</a>
</g>
</g>
<!-- Node1&#45;&gt;Node14 -->
<g id="edge30" class="edge">
<title>Node1&#45;&gt;Node14</title>
<path fill="none" stroke="#63b8ff" d="M342.77,-274.84C378.12,-256.04 462.15,-211.33 504.37,-188.87"/>
<polygon fill="#63b8ff" stroke="#63b8ff" points="506.25,-191.83 513.44,-184.05 502.96,-185.65 506.25,-191.83"/>
</g>
<!-- Node16 -->
<g id="node16" class="node">
<title>Node16</title>
<g id="a_node16"><a xlink:href="Debug_8hpp.html" target="_top" xlink:title="Debugging macros and functions for serial and CAN output.">
<polygon fill="white" stroke="#666666" points="443,-184 374,-184 374,-165 443,-165 443,-184"/>
<text text-anchor="middle" x="408.5" y="-172" font-family="Helvetica,sans-Serif" font-size="10.00">Debug.hpp</text>
</a>
</g>
</g>
<!-- Node1&#45;&gt;Node16 -->
<g id="edge33" class="edge">
<title>Node1&#45;&gt;Node16</title>
<path fill="none" stroke="#63b8ff" d="M333.21,-274.66C346.85,-256.69 378.02,-215.64 395.68,-192.38"/>
<polygon fill="#63b8ff" stroke="#63b8ff" points="398.67,-194.24 401.93,-184.16 393.09,-190.01 398.67,-194.24"/>
</g>
<!-- Node5 -->
<g id="node5" class="node">
<title>Node5</title>
<g id="a_node5"><a xlink:title=" ">
<polygon fill="#e0e0e0" stroke="#999999" points="225,-19 172,-19 172,0 225,0 225,-19"/>
<text text-anchor="middle" x="198.5" y="-7" font-family="Helvetica,sans-Serif" font-size="10.00">stdint.h</text>
</a>
</g>
</g>
<!-- Node4&#45;&gt;Node5 -->
<g id="edge4" class="edge">
<title>Node4&#45;&gt;Node5</title>
<path fill="none" stroke="#63b8ff" d="M238.95,-164.97C225.09,-148.69 196.06,-111.44 185.5,-74 181.25,-58.94 185.45,-41.5 190.18,-28.72"/>
<polygon fill="#63b8ff" stroke="#63b8ff" points="193.52,-29.8 194.1,-19.22 187.05,-27.13 193.52,-29.8"/>
</g>
<!-- Node6 -->
<g id="node6" class="node">
<title>Node6</title>
<g id="a_node6"><a xlink:href="Queue_8hpp.html" target="_top" xlink:title=" ">
<polygon fill="white" stroke="#666666" points="264,-74 195,-74 195,-55 264,-55 264,-74"/>
<text text-anchor="middle" x="229.5" y="-62" font-family="Helvetica,sans-Serif" font-size="10.00">Queue.hpp</text>
</a>
</g>
</g>
<!-- Node4&#45;&gt;Node6 -->
<g id="edge5" class="edge">
<title>Node4&#45;&gt;Node6</title>
<path fill="none" stroke="#63b8ff" d="M241.88,-164.94C237.44,-156.2 231.05,-142.09 228.5,-129 225.63,-114.25 226.1,-97.21 227.17,-84.5"/>
<polygon fill="#63b8ff" stroke="#63b8ff" points="230.68,-84.54 228.23,-74.23 223.72,-83.81 230.68,-84.54"/>
</g>
<!-- Node4&#45;&gt;Node7 -->
<g id="edge7" class="edge">
<title>Node4&#45;&gt;Node7</title>
<path fill="none" stroke="#63b8ff" d="M251.62,-164.75C255.86,-157.49 262.03,-146.95 267.28,-137.98"/>
<polygon fill="#63b8ff" stroke="#63b8ff" points="270.45,-139.49 272.48,-129.09 264.41,-135.95 270.45,-139.49"/>
</g>
<!-- Node10 -->
<g id="node10" class="node">
<title>Node10</title>
<g id="a_node10"><a xlink:href="Interp_8hpp.html" target="_top" xlink:title="Declaration and definition of the LinearInterp class template for linear interpolation.">
<polygon fill="white" stroke="#666666" points="138.5,-74 72.5,-74 72.5,-55 138.5,-55 138.5,-74"/>
<text text-anchor="middle" x="105.5" y="-62" font-family="Helvetica,sans-Serif" font-size="10.00">Interp.hpp</text>
</a>
</g>
</g>
<!-- Node4&#45;&gt;Node10 -->
<g id="edge13" class="edge">
<title>Node4&#45;&gt;Node10</title>
<path fill="none" stroke="#63b8ff" d="M219.8,-164.88C199.82,-157.52 172.59,-145.51 152.5,-129 136.98,-116.25 123.84,-97.3 115.43,-83.43"/>
<polygon fill="#63b8ff" stroke="#63b8ff" points="118.22,-81.27 110.18,-74.38 112.17,-84.78 118.22,-81.27"/>
</g>
<!-- Node4&#45;&gt;Node11 -->
<g id="edge15" class="edge">
<title>Node4&#45;&gt;Node11</title>
<path fill="none" stroke="#63b8ff" d="M217.26,-164.98C186.44,-156.01 137.72,-141.82 103.61,-131.89"/>
<polygon fill="#63b8ff" stroke="#63b8ff" points="104.55,-128.52 93.97,-129.08 102.59,-135.24 104.55,-128.52"/>
</g>
<!-- Node4&#45;&gt;Node12 -->
<g id="edge18" class="edge">
<title>Node4&#45;&gt;Node12</title>
<path fill="none" stroke="#63b8ff" d="M274.49,-164.94C337.44,-145.68 490.21,-98.94 561.58,-77.1"/>
<polygon fill="#63b8ff" stroke="#63b8ff" points="562.96,-80.34 571.5,-74.07 560.92,-73.64 562.96,-80.34"/>
</g>
<!-- Node6&#45;&gt;Node5 -->
<g id="edge6" class="edge">
<title>Node6&#45;&gt;Node5</title>
<path fill="none" stroke="#63b8ff" d="M224.38,-54.75C220.14,-47.49 213.97,-36.95 208.72,-27.98"/>
<polygon fill="#63b8ff" stroke="#63b8ff" points="211.59,-25.95 203.52,-19.09 205.55,-29.49 211.59,-25.95"/>
</g>
<!-- Node7&#45;&gt;Node5 -->
<g id="edge12" class="edge">
<title>Node7&#45;&gt;Node5</title>
<path fill="none" stroke="#63b8ff" d="M279.32,-109.95C281.59,-97.01 283.99,-72.15 273.5,-55 264.62,-40.49 249.08,-30.14 234.44,-23.1"/>
<polygon fill="#63b8ff" stroke="#63b8ff" points="235.6,-19.78 225.03,-18.94 232.76,-26.18 235.6,-19.78"/>
</g>
<!-- Node7&#45;&gt;Node8 -->
<g id="edge8" class="edge">
<title>Node7&#45;&gt;Node8</title>
<path fill="none" stroke="#63b8ff" d="M295.33,-109.98C313.11,-101.5 340.65,-88.35 361.18,-78.54"/>
<polygon fill="#63b8ff" stroke="#63b8ff" points="362.83,-81.64 370.34,-74.17 359.81,-75.32 362.83,-81.64"/>
</g>
<!-- Node9 -->
<g id="node9" class="node">
<title>Node9</title>
<g id="a_node9"><a xlink:title=" ">
<polygon fill="#e0e0e0" stroke="#999999" points="381,-19 338,-19 338,0 381,0 381,-19"/>
<text text-anchor="middle" x="359.5" y="-7" font-family="Helvetica,sans-Serif" font-size="10.00">can.h</text>
</a>
</g>
</g>
<!-- Node7&#45;&gt;Node9 -->
<g id="edge11" class="edge">
<title>Node7&#45;&gt;Node9</title>
<path fill="none" stroke="#63b8ff" d="M284.21,-109.66C297.85,-91.69 329.02,-50.64 346.68,-27.38"/>
<polygon fill="#63b8ff" stroke="#63b8ff" points="349.67,-29.24 352.93,-19.16 344.09,-25.01 349.67,-29.24"/>
</g>
<!-- Node8&#45;&gt;Node5 -->
<g id="edge9" class="edge">
<title>Node8&#45;&gt;Node5</title>
<path fill="none" stroke="#63b8ff" d="M358.81,-55.22C325.33,-45.88 270.86,-30.68 234.85,-20.64"/>
<polygon fill="#63b8ff" stroke="#63b8ff" points="235.79,-17.27 225.22,-17.95 233.91,-24.01 235.79,-17.27"/>
</g>
<!-- Node8&#45;&gt;Node9 -->
<g id="edge10" class="edge">
<title>Node8&#45;&gt;Node9</title>
<path fill="none" stroke="#63b8ff" d="M383.71,-54.75C379.74,-47.49 373.97,-36.95 369.07,-27.98"/>
<polygon fill="#63b8ff" stroke="#63b8ff" points="372.07,-26.18 364.2,-19.09 365.93,-29.54 372.07,-26.18"/>
</g>
<!-- Node10&#45;&gt;Node5 -->
<g id="edge14" class="edge">
<title>Node10&#45;&gt;Node5</title>
<path fill="none" stroke="#63b8ff" d="M120.44,-54.98C135,-46.69 157.37,-33.94 174.43,-24.22"/>
<polygon fill="#63b8ff" stroke="#63b8ff" points="176.33,-27.16 183.29,-19.17 172.86,-21.08 176.33,-27.16"/>
</g>
<!-- Node11&#45;&gt;Node5 -->
<g id="edge17" class="edge">
<title>Node11&#45;&gt;Node5</title>
<path fill="none" stroke="#63b8ff" d="M61.35,-109.73C57.21,-96.49 51.74,-71.26 63.5,-55 85.72,-24.28 129.89,-14.41 161.66,-11.42"/>
<polygon fill="#63b8ff" stroke="#63b8ff" points="162.2,-14.89 171.91,-10.65 161.68,-7.91 162.2,-14.89"/>
</g>
<!-- Node11&#45;&gt;Node10 -->
<g id="edge16" class="edge">
<title>Node11&#45;&gt;Node10</title>
<path fill="none" stroke="#63b8ff" d="M71.27,-109.75C77.06,-102.26 85.56,-91.28 92.64,-82.13"/>
<polygon fill="#63b8ff" stroke="#63b8ff" points="95.51,-84.14 98.86,-74.09 89.97,-79.86 95.51,-84.14"/>
</g>
<!-- Node13&#45;&gt;Node12 -->
<g id="edge27" class="edge">
<title>Node13&#45;&gt;Node12</title>
<path fill="none" stroke="#63b8ff" d="M543.36,-219.91C555.11,-211.95 571.58,-199.09 581.5,-184 601.53,-153.52 602.57,-109.24 601.23,-84.34"/>
<polygon fill="#63b8ff" stroke="#63b8ff" points="604.71,-83.81 600.49,-74.09 597.72,-84.32 604.71,-83.81"/>
</g>
<!-- Node13&#45;&gt;Node14 -->
<g id="edge20" class="edge">
<title>Node13&#45;&gt;Node14</title>
<path fill="none" stroke="#63b8ff" d="M529.5,-219.75C529.5,-212.8 529.5,-202.85 529.5,-194.13"/>
<polygon fill="#63b8ff" stroke="#63b8ff" points="533,-194.09 529.5,-184.09 526,-194.09 533,-194.09"/>
</g>
<!-- Node14&#45;&gt;Node8 -->
<g id="edge21" class="edge">
<title>Node14&#45;&gt;Node8</title>
<path fill="none" stroke="#63b8ff" d="M517.96,-164.66C493.78,-146.14 437.56,-103.08 407.79,-80.28"/>
<polygon fill="#63b8ff" stroke="#63b8ff" points="409.87,-77.46 399.8,-74.16 405.61,-83.02 409.87,-77.46"/>
</g>
<!-- Node14&#45;&gt;Node12 -->
<g id="edge22" class="edge">
<title>Node14&#45;&gt;Node12</title>
<path fill="none" stroke="#63b8ff" d="M543.12,-164.87C554.66,-156.89 570.83,-144.02 580.5,-129 589.26,-115.39 594.13,-97.58 596.74,-84.28"/>
<polygon fill="#63b8ff" stroke="#63b8ff" points="600.2,-84.81 598.44,-74.36 593.3,-83.63 600.2,-84.81"/>
</g>
<!-- Node15 -->
<g id="node15" class="node">
<title>Node15</title>
<g id="a_node15"><a xlink:href="Scheduler_8tpp.html" target="_top" xlink:title="Implementation of the Scheduler class template.">
<polygon fill="white" stroke="#666666" points="571,-129 488,-129 488,-110 571,-110 571,-129"/>
<text text-anchor="middle" x="529.5" y="-117" font-family="Helvetica,sans-Serif" font-size="10.00">Scheduler.tpp</text>
</a>
</g>
</g>
<!-- Node14&#45;&gt;Node15 -->
<g id="edge23" class="edge">
<title>Node14&#45;&gt;Node15</title>
<path fill="none" stroke="#63b8ff" d="M524.33,-164.75C522.84,-157.8 522.4,-147.85 523.02,-139.13"/>
<polygon fill="#63b8ff" stroke="#63b8ff" points="526.51,-139.47 524.37,-129.09 519.57,-138.53 526.51,-139.47"/>
</g>
<!-- Node15&#45;&gt;Node8 -->
<g id="edge24" class="edge">
<title>Node15&#45;&gt;Node8</title>
<path fill="none" stroke="#63b8ff" d="M506.85,-109.98C483.65,-101.27 447.38,-87.63 421.1,-77.75"/>
<polygon fill="#63b8ff" stroke="#63b8ff" points="422.16,-74.41 411.57,-74.17 419.7,-80.97 422.16,-74.41"/>
</g>
<!-- Node15&#45;&gt;Node12 -->
<g id="edge25" class="edge">
<title>Node15&#45;&gt;Node12</title>
<path fill="none" stroke="#63b8ff" d="M540.75,-109.98C551.3,-102 567.3,-89.88 579.94,-80.31"/>
<polygon fill="#63b8ff" stroke="#63b8ff" points="582.19,-83 588.05,-74.17 577.96,-77.42 582.19,-83"/>
</g>
<!-- Node15&#45;&gt;Node14 -->
<g id="edge26" class="edge">
<title>Node15&#45;&gt;Node14</title>
<path fill="none" stroke="#63b8ff" d="M534.63,-129.09C536.14,-135.99 536.59,-145.93 535.99,-154.66"/>
<polygon fill="#63b8ff" stroke="#63b8ff" points="532.5,-154.38 534.67,-164.75 539.44,-155.29 532.5,-154.38"/>
</g>
<!-- Node16&#45;&gt;Node8 -->
<g id="edge34" class="edge">
<title>Node16&#45;&gt;Node8</title>
<path fill="none" stroke="#63b8ff" d="M406.86,-164.66C403.62,-147.17 396.33,-107.8 391.98,-84.27"/>
<polygon fill="#63b8ff" stroke="#63b8ff" points="395.37,-83.35 390.1,-74.16 388.48,-84.63 395.37,-83.35"/>
</g>
</g>
</svg>
