<?xml version="1.0" encoding="UTF-8" standalone="no"?>
<!DOCTYPE svg PUBLIC "-//W3C//DTD SVG 1.1//EN"
 "http://www.w3.org/Graphics/SVG/1.1/DTD/svg11.dtd">
<!-- Generated by graphviz version 2.43.0 (0)
 -->
<!-- Title: setup Pages: 1 -->
<svg width="925pt" height="285pt"
 viewBox="0.00 0.00 925.00 284.73" xmlns="http://www.w3.org/2000/svg" xmlns:xlink="http://www.w3.org/1999/xlink">
<g id="graph0" class="graph" transform="scale(1 1) rotate(0) translate(4 280.73)">
<title>setup</title>
<!-- Node1 -->
<g id="node1" class="node">
<title>Node1</title>
<g id="a_node1"><a xlink:title="Setup function for initializing the VCU system. Initializes MCP2515s, IO pins, as well as own modules...">
<polygon fill="#999999" stroke="#666666" points="44,-182.5 0,-182.5 0,-163.5 44,-163.5 44,-182.5"/>
<text text-anchor="middle" x="22" y="-170.5" font-family="Helvetica,sans-Serif" font-size="10.00">setup</text>
</a>
</g>
</g>
<!-- Node2 -->
<g id="node2" class="node">
<title>Node2</title>
<g id="a_node2"><a xlink:href="Debug_8hpp.html#a8e8d6e3de15309922f25c12f4d7cf727" target="_top" xlink:title="Prints a line to the serial console for general debug.">
<polygon fill="white" stroke="#666666" points="367.5,-276.5 265.5,-276.5 265.5,-257.5 367.5,-257.5 367.5,-276.5"/>
<text text-anchor="middle" x="316.5" y="-264.5" font-family="Helvetica,sans-Serif" font-size="10.00">DBGLN_GENERAL</text>
</a>
</g>
</g>
<!-- Node1&#45;&gt;Node2 -->
<g id="edge1" class="edge">
<title>Node1&#45;&gt;Node2</title>
<path fill="none" stroke="#63b8ff" d="M27.1,-182.67C34.74,-199.35 52.88,-233.16 80,-248 133.86,-277.47 205.25,-278.98 255.26,-275.14"/>
<polygon fill="#63b8ff" stroke="#63b8ff" points="255.61,-278.62 265.27,-274.28 255.01,-271.65 255.61,-278.62"/>
</g>
<!-- Node4 -->
<g id="node4" class="node">
<title>Node4</title>
<g id="a_node4"><a xlink:href="namespaceDebug__Serial.html#ad136936636c7b7140cb1e14c55eb5f31" target="_top" xlink:title="Initializes the Debug_Serial interface. It should be called before using any other Debug_Serial funct...">
<polygon fill="white" stroke="#666666" points="209,-238.5 80,-238.5 80,-219.5 209,-219.5 209,-238.5"/>
<text text-anchor="middle" x="144.5" y="-226.5" font-family="Helvetica,sans-Serif" font-size="10.00">Debug_Serial::initialize</text>
</a>
</g>
</g>
<!-- Node1&#45;&gt;Node4 -->
<g id="edge3" class="edge">
<title>Node1&#45;&gt;Node4</title>
<path fill="none" stroke="#63b8ff" d="M35.01,-182.64C46.12,-191.14 63.37,-203.33 80,-211 84.09,-212.89 88.42,-214.62 92.82,-216.2"/>
<polygon fill="#63b8ff" stroke="#63b8ff" points="91.92,-219.58 102.51,-219.41 94.12,-212.94 91.92,-219.58"/>
</g>
<!-- Node5 -->
<g id="node5" class="node">
<title>Node5</title>
<g id="a_node5"><a xlink:href="namespaceDebug__CAN.html#a5c8b33000e36a19ccb285e45f666e64e" target="_top" xlink:title="Initializes the Debug_CAN interface. It should be called before using any other Debug_CAN functions.">
<polygon fill="white" stroke="#666666" points="205.5,-201.5 83.5,-201.5 83.5,-182.5 205.5,-182.5 205.5,-201.5"/>
<text text-anchor="middle" x="144.5" y="-189.5" font-family="Helvetica,sans-Serif" font-size="10.00">Debug_CAN::initialize</text>
</a>
</g>
</g>
<!-- Node1&#45;&gt;Node5 -->
<g id="edge4" class="edge">
<title>Node1&#45;&gt;Node5</title>
<path fill="none" stroke="#63b8ff" d="M44.27,-176.35C52.61,-177.67 62.71,-179.26 73.22,-180.92"/>
<polygon fill="#63b8ff" stroke="#63b8ff" points="72.96,-184.42 83.39,-182.52 74.05,-177.51 72.96,-184.42"/>
</g>
<!-- Node6 -->
<g id="node6" class="node">
<title>Node6</title>
<g id="a_node6"><a xlink:href="main_8cpp.html#a95581c94a7dc4a68f61fa24f06cc90d1" target="_top" xlink:title=" ">
<polygon fill="white" stroke="#666666" points="184.5,-164.5 104.5,-164.5 104.5,-145.5 184.5,-145.5 184.5,-164.5"/>
<text text-anchor="middle" x="144.5" y="-152.5" font-family="Helvetica,sans-Serif" font-size="10.00">mcp2515_DL</text>
</a>
</g>
</g>
<!-- Node1&#45;&gt;Node6 -->
<g id="edge5" class="edge">
<title>Node1&#45;&gt;Node6</title>
<path fill="none" stroke="#63b8ff" d="M44.27,-169.82C58.16,-167.75 76.9,-164.95 94.35,-162.34"/>
<polygon fill="#63b8ff" stroke="#63b8ff" points="95.06,-165.77 104.44,-160.84 94.03,-158.85 95.06,-165.77"/>
</g>
<!-- Node7 -->
<g id="node7" class="node">
<title>Node7</title>
<g id="a_node7"><a xlink:href="main_8cpp.html#a1174b6795782479542559289cd623faf" target="_top" xlink:title=" ">
<polygon fill="white" stroke="#666666" points="192.5,-127.5 96.5,-127.5 96.5,-108.5 192.5,-108.5 192.5,-127.5"/>
<text text-anchor="middle" x="144.5" y="-115.5" font-family="Helvetica,sans-Serif" font-size="10.00">scheduler_pedal</text>
</a>
</g>
</g>
<!-- Node1&#45;&gt;Node7 -->
<g id="edge6" class="edge">
<title>Node1&#45;&gt;Node7</title>
<path fill="none" stroke="#63b8ff" d="M36.01,-163.33C47.2,-155.38 64.02,-144.27 80,-137 84.98,-134.74 90.29,-132.66 95.65,-130.78"/>
<polygon fill="#63b8ff" stroke="#63b8ff" points="96.87,-134.06 105.27,-127.6 94.68,-127.41 96.87,-134.06"/>
</g>
<!-- Node14 -->
<g id="node14" class="node">
<title>Node14</title>
<g id="a_node14"><a xlink:href="main_8cpp.html#a18a2a13352158a1c448c163c58e2b486" target="_top" xlink:title=" ">
<polygon fill="white" stroke="#666666" points="201,-87.5 88,-87.5 88,-68.5 201,-68.5 201,-87.5"/>
<text text-anchor="middle" x="144.5" y="-75.5" font-family="Helvetica,sans-Serif" font-size="10.00">schedulerTelemetry</text>
</a>
</g>
</g>
<!-- Node1&#45;&gt;Node14 -->
<g id="edge15" class="edge">
<title>Node1&#45;&gt;Node14</title>
<path fill="none" stroke="#63b8ff" d="M28.28,-163.01C37.02,-147.39 55.93,-117.21 80,-100 84.57,-96.73 89.66,-93.92 94.92,-91.5"/>
<polygon fill="#63b8ff" stroke="#63b8ff" points="96.58,-94.6 104.5,-87.56 93.92,-88.13 96.58,-94.6"/>
</g>
<!-- Node3 -->
<g id="node3" class="node">
<title>Node3</title>
<g id="a_node3"><a xlink:href="namespaceDebug__Serial.html#a756fa9286151426012a6f8e178a6c550" target="_top" xlink:title="Prints a string AND a newline to the serial console.">
<polygon fill="white" stroke="#666666" points="755,-276.5 636,-276.5 636,-257.5 755,-257.5 755,-276.5"/>
<text text-anchor="middle" x="695.5" y="-264.5" font-family="Helvetica,sans-Serif" font-size="10.00">Debug_Serial::println</text>
</a>
</g>
</g>
<!-- Node2&#45;&gt;Node3 -->
<g id="edge2" class="edge">
<title>Node2&#45;&gt;Node3</title>
<path fill="none" stroke="#63b8ff" d="M367.56,-267C433.85,-267 551.03,-267 625.63,-267"/>
<polygon fill="#63b8ff" stroke="#63b8ff" points="625.86,-270.5 635.86,-267 625.86,-263.5 625.86,-270.5"/>
</g>
<!-- Node8 -->
<g id="node8" class="node">
<title>Node8</title>
<g id="a_node8"><a xlink:href="classPedal.html#a1027941444ce0b3f32ab8991e05c2015" target="_top" xlink:title="Sends the appropriate CAN frame based on pedal and car state.">
<polygon fill="white" stroke="#666666" points="368.5,-201.5 264.5,-201.5 264.5,-182.5 368.5,-182.5 368.5,-201.5"/>
<text text-anchor="middle" x="316.5" y="-189.5" font-family="Helvetica,sans-Serif" font-size="10.00">Pedal::sendFrame</text>
</a>
</g>
</g>
<!-- Node7&#45;&gt;Node8 -->
<g id="edge7" class="edge">
<title>Node7&#45;&gt;Node8</title>
<path fill="none" stroke="#63b8ff" d="M181.5,-127.5C190.59,-130.25 200.25,-133.47 209,-137 237.91,-148.67 269.46,-165.52 290.66,-177.49"/>
<polygon fill="#63b8ff" stroke="#63b8ff" points="288.93,-180.53 299.35,-182.45 292.4,-174.45 288.93,-180.53"/>
</g>
<!-- Node9 -->
<g id="node9" class="node">
<title>Node9</title>
<g id="a_node9"><a xlink:href="Debug_8hpp.html#a9a564faad1bd32a5894d3706e38f1067" target="_top" xlink:title="Prints a line to the serial console for throttle debug.">
<polygon fill="white" stroke="#666666" points="557.5,-238.5 450.5,-238.5 450.5,-219.5 557.5,-219.5 557.5,-238.5"/>
<text text-anchor="middle" x="504" y="-226.5" font-family="Helvetica,sans-Serif" font-size="10.00">DBGLN_THROTTLE</text>
</a>
</g>
</g>
<!-- Node8&#45;&gt;Node9 -->
<g id="edge8" class="edge">
<title>Node8&#45;&gt;Node9</title>
<path fill="none" stroke="#63b8ff" d="M365.27,-201.53C389.63,-206.39 419.44,-212.33 445.1,-217.45"/>
<polygon fill="#63b8ff" stroke="#63b8ff" points="444.58,-220.92 455.07,-219.44 445.95,-214.05 444.58,-220.92"/>
</g>
<!-- Node10 -->
<g id="node10" class="node">
<title>Node10</title>
<g id="a_node10"><a xlink:href="classPedal.html#a79e52120f8539d9e847fd0498cc47754" target="_top" xlink:title="Maps the pedal ADC to a torque value, handling deadzones and faults.">
<polygon fill="white" stroke="#666666" points="584,-201.5 424,-201.5 424,-182.5 584,-182.5 584,-201.5"/>
<text text-anchor="middle" x="504" y="-189.5" font-family="Helvetica,sans-Serif" font-size="10.00">Pedal::throttleTorqueMapping</text>
</a>
</g>
</g>
<!-- Node8&#45;&gt;Node10 -->
<g id="edge10" class="edge">
<title>Node8&#45;&gt;Node10</title>
<path fill="none" stroke="#63b8ff" d="M368.68,-192C382.67,-192 398.24,-192 413.69,-192"/>
<polygon fill="#63b8ff" stroke="#63b8ff" points="413.81,-195.5 423.81,-192 413.81,-188.5 413.81,-195.5"/>
</g>
<!-- Node9&#45;&gt;Node3 -->
<g id="edge9" class="edge">
<title>Node9&#45;&gt;Node3</title>
<path fill="none" stroke="#63b8ff" d="M552.82,-238.59C578.39,-243.72 610.06,-250.07 636.97,-255.46"/>
<polygon fill="#63b8ff" stroke="#63b8ff" points="636.53,-258.95 647.03,-257.48 637.91,-252.08 636.53,-258.95"/>
</g>
<!-- Node11 -->
<g id="node11" class="node">
<title>Node11</title>
<g id="a_node11"><a xlink:href="classPedal.html#a1dab9adf93f55a5d4477a840a794c0a1" target="_top" xlink:title="Maps the brake ADC to a torque value.">
<polygon fill="white" stroke="#666666" points="771,-239.5 620,-239.5 620,-220.5 771,-220.5 771,-239.5"/>
<text text-anchor="middle" x="695.5" y="-227.5" font-family="Helvetica,sans-Serif" font-size="10.00">Pedal::brakeTorqueMapping</text>
</a>
</g>
</g>
<!-- Node10&#45;&gt;Node11 -->
<g id="edge11" class="edge">
<title>Node10&#45;&gt;Node11</title>
<path fill="none" stroke="#63b8ff" d="M552.82,-201.59C578.39,-206.72 610.06,-213.07 636.97,-218.46"/>
<polygon fill="#63b8ff" stroke="#63b8ff" points="636.53,-221.95 647.03,-220.48 637.91,-215.08 636.53,-221.95"/>
</g>
<!-- Node12 -->
<g id="node12" class="node">
<title>Node12</title>
<g id="a_node12"><a xlink:href="classLinearInterp.html#a3c1654f4a47bb4db5386e38a8bdd6bc1" target="_top" xlink:title="Performs linear interpolation for the given input value, using the table.">
<polygon fill="white" stroke="#666666" points="917,-220.5 807,-220.5 807,-201.5 917,-201.5 917,-220.5"/>
<text text-anchor="middle" x="862" y="-208.5" font-family="Helvetica,sans-Serif" font-size="10.00">LinearInterp::interp</text>
</a>
</g>
</g>
<!-- Node10&#45;&gt;Node12 -->
<g id="edge13" class="edge">
<title>Node10&#45;&gt;Node12</title>
<path fill="none" stroke="#63b8ff" d="M584.01,-196.22C648.01,-199.63 737.04,-204.38 796.72,-207.57"/>
<polygon fill="#63b8ff" stroke="#63b8ff" points="796.6,-211.07 806.78,-208.11 796.98,-204.08 796.6,-211.07"/>
</g>
<!-- Node13 -->
<g id="node13" class="node">
<title>Node13</title>
<g id="a_node13"><a xlink:href="classLinearInterp.html#ade361a63c34c53564a1bd9e8ae5b6c4b" target="_top" xlink:title="Returns the starting input value of the interpolation table.">
<polygon fill="white" stroke="#666666" points="747.5,-163.5 643.5,-163.5 643.5,-144.5 747.5,-144.5 747.5,-163.5"/>
<text text-anchor="middle" x="695.5" y="-151.5" font-family="Helvetica,sans-Serif" font-size="10.00">LinearInterp::start</text>
</a>
</g>
</g>
<!-- Node10&#45;&gt;Node13 -->
<g id="edge14" class="edge">
<title>Node10&#45;&gt;Node13</title>
<path fill="none" stroke="#63b8ff" d="M552.82,-182.41C578.39,-177.28 610.06,-170.93 636.97,-165.54"/>
<polygon fill="#63b8ff" stroke="#63b8ff" points="637.91,-168.92 647.03,-163.52 636.53,-162.05 637.91,-168.92"/>
</g>
<!-- Node11&#45;&gt;Node12 -->
<g id="edge12" class="edge">
<title>Node11&#45;&gt;Node12</title>
<path fill="none" stroke="#63b8ff" d="M771.05,-221.39C779.63,-220.4 788.33,-219.39 796.76,-218.42"/>
<polygon fill="#63b8ff" stroke="#63b8ff" points="797.35,-221.88 806.88,-217.25 796.54,-214.92 797.35,-221.88"/>
</g>
<!-- Node15 -->
<g id="node15" class="node">
<title>Node15</title>
<g id="a_node15"><a xlink:href="classTelemetry.html#a892ba1df53bea0797e63b8e7a0030d91" target="_top" xlink:title="Sends telemetry data based on the scheduling logic.">
<polygon fill="white" stroke="#666666" points="388,-77.5 245,-77.5 245,-58.5 388,-58.5 388,-77.5"/>
<text text-anchor="middle" x="316.5" y="-65.5" font-family="Helvetica,sans-Serif" font-size="10.00">Telemetry::sendTelemetry</text>
</a>
</g>
</g>
<!-- Node14&#45;&gt;Node15 -->
<g id="edge16" class="edge">
<title>Node14&#45;&gt;Node15</title>
<path fill="none" stroke="#63b8ff" d="M201.16,-74.73C211.84,-74.1 223.22,-73.43 234.51,-72.76"/>
<polygon fill="#63b8ff" stroke="#63b8ff" points="235.04,-76.24 244.82,-72.16 234.63,-69.25 235.04,-76.24"/>
</g>
<!-- Node16 -->
<g id="node16" class="node">
<title>Node16</title>
<g id="a_node16"><a xlink:href="classTelemetry.html#aeed89696476accb74fb8807b92fbdcd8" target="_top" xlink:title="Internal helper to get and send the ADC telemetry frame.">
<polygon fill="white" stroke="#666666" points="572,-117.5 436,-117.5 436,-98.5 572,-98.5 572,-117.5"/>
<text text-anchor="middle" x="504" y="-105.5" font-family="Helvetica,sans-Serif" font-size="10.00">Telemetry::schedulerAdc</text>
</a>
</g>
</g>
<!-- Node15&#45;&gt;Node16 -->
<g id="edge17" class="edge">
<title>Node15&#45;&gt;Node16</title>
<path fill="none" stroke="#63b8ff" d="M361.93,-77.58C388.09,-83.22 421.36,-90.4 449.02,-96.36"/>
<polygon fill="#63b8ff" stroke="#63b8ff" points="448.42,-99.81 458.93,-98.5 449.89,-92.97 448.42,-99.81"/>
</g>
<!-- Node18 -->
<g id="node18" class="node">
<title>Node18</title>
<g id="a_node18"><a xlink:href="classTelemetry.html#a50074891c9ce48296fe72f159befd488" target="_top" xlink:title="Internal helper to get and send the digital telemetry frame.">
<polygon fill="white" stroke="#666666" points="579,-75.5 429,-75.5 429,-56.5 579,-56.5 579,-75.5"/>
<text text-anchor="middle" x="504" y="-63.5" font-family="Helvetica,sans-Serif" font-size="10.00">Telemetry::schedulerDigital</text>
</a>
</g>
</g>
<!-- Node15&#45;&gt;Node18 -->
<g id="edge19" class="edge">
<title>Node15&#45;&gt;Node18</title>
<path fill="none" stroke="#63b8ff" d="M388.16,-67.24C398.14,-67.13 408.49,-67.02 418.69,-66.91"/>
<polygon fill="#63b8ff" stroke="#63b8ff" points="418.88,-70.41 428.84,-66.8 418.8,-63.41 418.88,-70.41"/>
</g>
<!-- Node20 -->
<g id="node20" class="node">
<title>Node20</title>
<g id="a_node20"><a xlink:href="classTelemetry.html#a22bea2cd68922773581b1d460bea6709" target="_top" xlink:title="Internal helper to get and send the state telemetry frame.">
<polygon fill="white" stroke="#666666" points="578.5,-27.5 429.5,-27.5 429.5,-8.5 578.5,-8.5 578.5,-27.5"/>
<text text-anchor="middle" x="504" y="-15.5" font-family="Helvetica,sans-Serif" font-size="10.00">Telemetry::schedulerStates</text>
</a>
</g>
</g>
<!-- Node15&#45;&gt;Node20 -->
<g id="edge21" class="edge">
<title>Node15&#45;&gt;Node20</title>
<path fill="none" stroke="#63b8ff" d="M352.83,-58.48C382.65,-50.44 425.52,-38.88 457.83,-30.18"/>
<polygon fill="#63b8ff" stroke="#63b8ff" points="458.74,-33.55 467.49,-27.57 456.92,-26.8 458.74,-33.55"/>
</g>
<!-- Node17 -->
<g id="node17" class="node">
<title>Node17</title>
<g id="a_node17"><a xlink:href="structTelemetryFrameAdc.html#a4e7f8219ce7209b97691c2ba4df11c23" target="_top" xlink:title="Converts the TelemetryFrameAdc to a CAN frame.">
<polygon fill="white" stroke="#666666" points="755.5,-126 635.5,-126 635.5,-96 755.5,-96 755.5,-126"/>
<text text-anchor="start" x="643.5" y="-114" font-family="Helvetica,sans-Serif" font-size="10.00">TelemetryFrameAdc::</text>
<text text-anchor="middle" x="695.5" y="-103" font-family="Helvetica,sans-Serif" font-size="10.00">toCanFrame</text>
</a>
</g>
</g>
<!-- Node16&#45;&gt;Node17 -->
<g id="edge18" class="edge">
<title>Node16&#45;&gt;Node17</title>
<path fill="none" stroke="#63b8ff" d="M572.08,-109.06C589.34,-109.34 607.95,-109.63 625.33,-109.9"/>
<polygon fill="#63b8ff" stroke="#63b8ff" points="625.34,-113.41 635.39,-110.06 625.45,-106.41 625.34,-113.41"/>
</g>
<!-- Node19 -->
<g id="node19" class="node">
<title>Node19</title>
<g id="a_node19"><a xlink:href="structTelemetryFrameDigital.html#a854a063396c822b4d02f3897276bd611" target="_top" xlink:title="Converts the TelemetryFrameDigital to a CAN frame.">
<polygon fill="white" stroke="#666666" points="759.5,-78 631.5,-78 631.5,-48 759.5,-48 759.5,-78"/>
<text text-anchor="start" x="639.5" y="-66" font-family="Helvetica,sans-Serif" font-size="10.00">TelemetryFrameDigital</text>
<text text-anchor="middle" x="695.5" y="-55" font-family="Helvetica,sans-Serif" font-size="10.00">::toCanFrame</text>
</a>
</g>
</g>
<!-- Node18&#45;&gt;Node19 -->
<g id="edge20" class="edge">
<title>Node18&#45;&gt;Node19</title>
<path fill="none" stroke="#63b8ff" d="M579.08,-64.83C592.81,-64.61 607.15,-64.38 620.87,-64.17"/>
<polygon fill="#63b8ff" stroke="#63b8ff" points="621.28,-67.66 631.22,-64 621.16,-60.66 621.28,-67.66"/>
</g>
<!-- Node21 -->
<g id="node21" class="node">
<title>Node21</title>
<g id="a_node21"><a xlink:href="structTelemetryFrameState.html#a3c77ae091bd1912d700dbb58b2f1c68e" target="_top" xlink:title="Converts the TelemetryFrameState to a CAN frame.">
<polygon fill="white" stroke="#666666" points="756.5,-30 634.5,-30 634.5,0 756.5,0 756.5,-30"/>
<text text-anchor="start" x="642.5" y="-18" font-family="Helvetica,sans-Serif" font-size="10.00">TelemetryFrameState</text>
<text text-anchor="middle" x="695.5" y="-7" font-family="Helvetica,sans-Serif" font-size="10.00">::toCanFrame</text>
</a>
</g>
</g>
<!-- Node20&#45;&gt;Node21 -->
<g id="edge22" class="edge">
<title>Node20&#45;&gt;Node21</title>
<path fill="none" stroke="#63b8ff" d="M578.54,-16.84C593.58,-16.6 609.38,-16.35 624.31,-16.11"/>
<polygon fill="#63b8ff" stroke="#63b8ff" points="624.54,-19.61 634.48,-15.95 624.43,-12.61 624.54,-19.61"/>
</g>
</g>
</svg>
