<?xml version="1.0" encoding="UTF-8" standalone="no"?>
<!DOCTYPE svg PUBLIC "-//W3C//DTD SVG 1.1//EN"
 "http://www.w3.org/Graphics/SVG/1.1/DTD/svg11.dtd">
<!-- Generated by graphviz version 2.43.0 (0)
 -->
<!-- Title: scheduler_pedal Pages: 1 -->
<svg width="773pt" height="140pt"
 viewBox="0.00 0.00 773.00 140.00" xmlns="http://www.w3.org/2000/svg" xmlns:xlink="http://www.w3.org/1999/xlink">
<g id="graph0" class="graph" transform="scale(1 1) rotate(0) translate(4 136)">
<title>scheduler_pedal</title>
<!-- Node1 -->
<g id="node1" class="node">
<title>Node1</title>
<g id="a_node1"><a xlink:title=" ">
<polygon fill="#999999" stroke="#666666" points="96,-94 0,-94 0,-75 96,-75 96,-94"/>
<text text-anchor="middle" x="48" y="-82" font-family="Helvetica,sans-Serif" font-size="10.00">scheduler_pedal</text>
</a>
</g>
</g>
<!-- Node2 -->
<g id="node2" class="node">
<title>Node2</title>
<g id="a_node2"><a xlink:href="classPedal.html#a1027941444ce0b3f32ab8991e05c2015" target="_top" xlink:title="Sends the appropriate CAN frame based on pedal and car state.">
<polygon fill="white" stroke="#666666" points="236,-94 132,-94 132,-75 236,-75 236,-94"/>
<text text-anchor="middle" x="184" y="-82" font-family="Helvetica,sans-Serif" font-size="10.00">Pedal::sendFrame</text>
</a>
</g>
</g>
<!-- Node1&#45;&gt;Node2 -->
<g id="edge1" class="edge">
<title>Node1&#45;&gt;Node2</title>
<path fill="none" stroke="#63b8ff" d="M96.24,-84.5C104.39,-84.5 112.96,-84.5 121.41,-84.5"/>
<polygon fill="#63b8ff" stroke="#63b8ff" points="121.63,-88 131.63,-84.5 121.63,-81 121.63,-88"/>
</g>
<!-- Node3 -->
<g id="node3" class="node">
<title>Node3</title>
<g id="a_node3"><a xlink:href="Debug_8hpp.html#a9a564faad1bd32a5894d3706e38f1067" target="_top" xlink:title="Prints a line to the serial console for throttle debug.">
<polygon fill="white" stroke="#666666" points="405.5,-122 298.5,-122 298.5,-103 405.5,-103 405.5,-122"/>
<text text-anchor="middle" x="352" y="-110" font-family="Helvetica,sans-Serif" font-size="10.00">DBGLN_THROTTLE</text>
</a>
</g>
</g>
<!-- Node2&#45;&gt;Node3 -->
<g id="edge2" class="edge">
<title>Node2&#45;&gt;Node3</title>
<path fill="none" stroke="#63b8ff" d="M236.16,-93.13C252.64,-95.91 271.1,-99.02 288.32,-101.93"/>
<polygon fill="#63b8ff" stroke="#63b8ff" points="287.85,-105.4 298.29,-103.61 289.01,-98.49 287.85,-105.4"/>
</g>
<!-- Node5 -->
<g id="node5" class="node">
<title>Node5</title>
<g id="a_node5"><a xlink:href="classPedal.html#a79e52120f8539d9e847fd0498cc47754" target="_top" xlink:title="Maps the pedal ADC to a torque value, handling deadzones and faults.">
<polygon fill="white" stroke="#666666" points="432,-76 272,-76 272,-57 432,-57 432,-76"/>
<text text-anchor="middle" x="352" y="-64" font-family="Helvetica,sans-Serif" font-size="10.00">Pedal::throttleTorqueMapping</text>
</a>
</g>
</g>
<!-- Node2&#45;&gt;Node5 -->
<g id="edge4" class="edge">
<title>Node2&#45;&gt;Node5</title>
<path fill="none" stroke="#63b8ff" d="M236.16,-78.95C244.4,-78.06 253.13,-77.11 261.95,-76.16"/>
<polygon fill="#63b8ff" stroke="#63b8ff" points="262.36,-79.63 271.92,-75.07 261.61,-72.67 262.36,-79.63"/>
</g>
<!-- Node4 -->
<g id="node4" class="node">
<title>Node4</title>
<g id="a_node4"><a xlink:href="namespaceDebug__Serial.html#a756fa9286151426012a6f8e178a6c550" target="_top" xlink:title="Prints a string AND a newline to the serial console.">
<polygon fill="white" stroke="#666666" points="603,-132 484,-132 484,-113 603,-113 603,-132"/>
<text text-anchor="middle" x="543.5" y="-120" font-family="Helvetica,sans-Serif" font-size="10.00">Debug_Serial::println</text>
</a>
</g>
</g>
<!-- Node3&#45;&gt;Node4 -->
<g id="edge3" class="edge">
<title>Node3&#45;&gt;Node4</title>
<path fill="none" stroke="#63b8ff" d="M405.53,-115.27C426.62,-116.39 451.22,-117.68 473.7,-118.87"/>
<polygon fill="#63b8ff" stroke="#63b8ff" points="473.69,-122.37 483.86,-119.41 474.06,-115.38 473.69,-122.37"/>
</g>
<!-- Node6 -->
<g id="node6" class="node">
<title>Node6</title>
<g id="a_node6"><a xlink:href="classPedal.html#a1dab9adf93f55a5d4477a840a794c0a1" target="_top" xlink:title="Maps the brake ADC to a torque value.">
<polygon fill="white" stroke="#666666" points="619,-95 468,-95 468,-76 619,-76 619,-95"/>
<text text-anchor="middle" x="543.5" y="-83" font-family="Helvetica,sans-Serif" font-size="10.00">Pedal::brakeTorqueMapping</text>
</a>
</g>
</g>
<!-- Node5&#45;&gt;Node6 -->
<g id="edge5" class="edge">
<title>Node5&#45;&gt;Node6</title>
<path fill="none" stroke="#63b8ff" d="M432.27,-74.45C440.63,-75.29 449.16,-76.14 457.59,-76.99"/>
<polygon fill="#63b8ff" stroke="#63b8ff" points="457.49,-80.49 467.79,-78.01 458.19,-73.53 457.49,-80.49"/>
</g>
<!-- Node7 -->
<g id="node7" class="node">
<title>Node7</title>
<g id="a_node7"><a xlink:href="classLinearInterp.html#a3c1654f4a47bb4db5386e38a8bdd6bc1" target="_top" xlink:title=" ">
<polygon fill="white" stroke="#666666" points="765,-76 655,-76 655,-57 765,-57 765,-76"/>
<text text-anchor="middle" x="710" y="-64" font-family="Helvetica,sans-Serif" font-size="10.00">LinearInterp::interp</text>
</a>
</g>
</g>
<!-- Node5&#45;&gt;Node7 -->
<g id="edge7" class="edge">
<title>Node5&#45;&gt;Node7</title>
<path fill="none" stroke="#63b8ff" d="M432.01,-66.5C496.01,-66.5 585.04,-66.5 644.72,-66.5"/>
<polygon fill="#63b8ff" stroke="#63b8ff" points="644.78,-70 654.78,-66.5 644.78,-63 644.78,-70"/>
</g>
<!-- Node8 -->
<g id="node8" class="node">
<title>Node8</title>
<g id="a_node8"><a xlink:href="classLinearInterp.html#ade361a63c34c53564a1bd9e8ae5b6c4b" target="_top" xlink:title=" ">
<polygon fill="white" stroke="#666666" points="595.5,-19 491.5,-19 491.5,0 595.5,0 595.5,-19"/>
<text text-anchor="middle" x="543.5" y="-7" font-family="Helvetica,sans-Serif" font-size="10.00">LinearInterp::start</text>
</a>
</g>
</g>
<!-- Node5&#45;&gt;Node8 -->
<g id="edge8" class="edge">
<title>Node5&#45;&gt;Node8</title>
<path fill="none" stroke="#63b8ff" d="M384.72,-56.96C416.56,-47.38 465.77,-32.58 500.76,-22.05"/>
<polygon fill="#63b8ff" stroke="#63b8ff" points="502.11,-25.3 510.68,-19.07 500.09,-18.6 502.11,-25.3"/>
</g>
<!-- Node6&#45;&gt;Node7 -->
<g id="edge6" class="edge">
<title>Node6&#45;&gt;Node7</title>
<path fill="none" stroke="#63b8ff" d="M619.05,-76.89C627.63,-75.9 636.33,-74.89 644.76,-73.92"/>
<polygon fill="#63b8ff" stroke="#63b8ff" points="645.35,-77.38 654.88,-72.75 644.54,-70.42 645.35,-77.38"/>
</g>
</g>
</svg>
