<?xml version="1.0" encoding="UTF-8" standalone="no"?>
<!DOCTYPE svg PUBLIC "-//W3C//DTD SVG 1.1//EN"
 "http://www.w3.org/Graphics/SVG/1.1/DTD/svg11.dtd">
<!-- Generated by graphviz version 2.43.0 (0)
 -->
<!-- Title: loop Pages: 1 -->
<svg width="680pt" height="226pt"
 viewBox="0.00 0.00 680.00 225.50" xmlns="http://www.w3.org/2000/svg" xmlns:xlink="http://www.w3.org/1999/xlink">
<g id="graph0" class="graph" transform="scale(1 1) rotate(0) translate(4 221.5)">
<title>loop</title>
<!-- Node1 -->
<g id="node1" class="node">
<title>Node1</title>
<g id="a_node1"><a xlink:title="Main loop function for the VCU system. Handles car state transitions, pipes dataflow between modules.">
<polygon fill="#999999" stroke="#666666" points="38,-160.5 0,-160.5 0,-141.5 38,-141.5 38,-160.5"/>
<text text-anchor="middle" x="19" y="-148.5" font-family="Helvetica,sans-Serif" font-size="10.00">loop</text>
</a>
</g>
</g>
<!-- Node2 -->
<g id="node2" class="node">
<title>Node2</title>
<g id="a_node2"><a xlink:href="Debug_8hpp.html#a9a564faad1bd32a5894d3706e38f1067" target="_top" xlink:title="Prints a line to the serial console for throttle debug.">
<polygon fill="white" stroke="#666666" points="317.5,-217.5 210.5,-217.5 210.5,-198.5 317.5,-198.5 317.5,-217.5"/>
<text text-anchor="middle" x="264" y="-205.5" font-family="Helvetica,sans-Serif" font-size="10.00">DBGLN_THROTTLE</text>
</a>
</g>
</g>
<!-- Node1&#45;&gt;Node2 -->
<g id="edge1" class="edge">
<title>Node1&#45;&gt;Node2</title>
<path fill="none" stroke="#63b8ff" d="M30.22,-160.66C40.44,-169.68 57.03,-182.68 74,-189 114.25,-204 162.47,-208.65 200.13,-209.61"/>
<polygon fill="#63b8ff" stroke="#63b8ff" points="200.4,-213.11 210.46,-209.78 200.52,-206.11 200.4,-213.11"/>
</g>
<!-- Node4 -->
<g id="node4" class="node">
<title>Node4</title>
<g id="a_node4"><a xlink:href="main_8cpp.html#a22decc8e5af13f6021fb6ad2aaa765be" target="_top" xlink:title=" ">
<polygon fill="white" stroke="#666666" points="141,-179.5 97,-179.5 97,-160.5 141,-160.5 141,-179.5"/>
<text text-anchor="middle" x="119" y="-167.5" font-family="Helvetica,sans-Serif" font-size="10.00">pedal</text>
</a>
</g>
</g>
<!-- Node1&#45;&gt;Node4 -->
<g id="edge3" class="edge">
<title>Node1&#45;&gt;Node4</title>
<path fill="none" stroke="#63b8ff" d="M38.43,-154.57C52.08,-157.22 70.99,-160.89 86.95,-163.98"/>
<polygon fill="#63b8ff" stroke="#63b8ff" points="86.44,-167.45 96.93,-165.91 87.78,-160.58 86.44,-167.45"/>
</g>
<!-- Node5 -->
<g id="node5" class="node">
<title>Node5</title>
<g id="a_node5"><a xlink:href="main_8cpp.html#a55b57abe9bcb30f6af0fb927f7d576a4" target="_top" xlink:title=" ">
<polygon fill="white" stroke="#666666" points="164,-142.5 74,-142.5 74,-123.5 164,-123.5 164,-142.5"/>
<text text-anchor="middle" x="119" y="-130.5" font-family="Helvetica,sans-Serif" font-size="10.00">scheduler_bms</text>
</a>
</g>
</g>
<!-- Node1&#45;&gt;Node5 -->
<g id="edge4" class="edge">
<title>Node1&#45;&gt;Node5</title>
<path fill="none" stroke="#63b8ff" d="M38.43,-147.61C45.76,-146.27 54.61,-144.64 63.71,-142.97"/>
<polygon fill="#63b8ff" stroke="#63b8ff" points="64.41,-146.4 73.61,-141.15 63.14,-139.52 64.41,-146.4"/>
</g>
<!-- Node11 -->
<g id="node11" class="node">
<title>Node11</title>
<g id="a_node11"><a xlink:href="classPedal.html#a0ec014fb5ce414deded33ae3db05e231" target="_top" xlink:title="Updates pedal sensor readings, applies filtering, and checks for faults.">
<polygon fill="white" stroke="#666666" points="160.5,-99.5 77.5,-99.5 77.5,-80.5 160.5,-80.5 160.5,-99.5"/>
<text text-anchor="middle" x="119" y="-87.5" font-family="Helvetica,sans-Serif" font-size="10.00">Pedal::update</text>
</a>
</g>
</g>
<!-- Node1&#45;&gt;Node11 -->
<g id="edge11" class="edge">
<title>Node1&#45;&gt;Node11</title>
<path fill="none" stroke="#63b8ff" d="M34.03,-141.25C44.83,-133.84 60.19,-123.51 74,-115 79.6,-111.55 85.68,-107.98 91.49,-104.66"/>
<polygon fill="#63b8ff" stroke="#63b8ff" points="93.29,-107.66 100.28,-99.69 89.85,-101.57 93.29,-107.66"/>
</g>
<!-- Node3 -->
<g id="node3" class="node">
<title>Node3</title>
<g id="a_node3"><a xlink:href="namespaceDebug__Serial.html#a756fa9286151426012a6f8e178a6c550" target="_top" xlink:title="Prints a string AND a newline to the serial console.">
<polygon fill="white" stroke="#666666" points="660,-217.5 541,-217.5 541,-198.5 660,-198.5 660,-217.5"/>
<text text-anchor="middle" x="600.5" y="-205.5" font-family="Helvetica,sans-Serif" font-size="10.00">Debug_Serial::println</text>
</a>
</g>
</g>
<!-- Node2&#45;&gt;Node3 -->
<g id="edge2" class="edge">
<title>Node2&#45;&gt;Node3</title>
<path fill="none" stroke="#63b8ff" d="M317.63,-208C375.15,-208 467.5,-208 530.71,-208"/>
<polygon fill="#63b8ff" stroke="#63b8ff" points="530.99,-211.5 540.99,-208 530.99,-204.5 530.99,-211.5"/>
</g>
<!-- Node6 -->
<g id="node6" class="node">
<title>Node6</title>
<g id="a_node6"><a xlink:href="classBMS.html#a7de82f50c43e50529739213e98b9b634" target="_top" xlink:title="Attempts to start HV. First check BMS is in standby(3) state, then send the HV start command....">
<polygon fill="white" stroke="#666666" points="307,-162.5 221,-162.5 221,-143.5 307,-143.5 307,-162.5"/>
<text text-anchor="middle" x="264" y="-150.5" font-family="Helvetica,sans-Serif" font-size="10.00">BMS::checkHv</text>
</a>
</g>
</g>
<!-- Node5&#45;&gt;Node6 -->
<g id="edge5" class="edge">
<title>Node5&#45;&gt;Node6</title>
<path fill="none" stroke="#63b8ff" d="M164.07,-139.16C178.74,-141.22 195.22,-143.52 210.47,-145.65"/>
<polygon fill="#63b8ff" stroke="#63b8ff" points="210.4,-149.18 220.79,-147.1 211.37,-142.24 210.4,-149.18"/>
</g>
<!-- Node7 -->
<g id="node7" class="node">
<title>Node7</title>
<g id="a_node7"><a xlink:href="Debug_8hpp.html#a460f71d79003b7e0c37275d93f7d5c53" target="_top" xlink:title="Sends BMS debug info via CAN or serial (if enabled).">
<polygon fill="white" stroke="#666666" points="482,-142.5 375,-142.5 375,-123.5 482,-123.5 482,-142.5"/>
<text text-anchor="middle" x="428.5" y="-130.5" font-family="Helvetica,sans-Serif" font-size="10.00">DBG_BMS_STATUS</text>
</a>
</g>
</g>
<!-- Node6&#45;&gt;Node7 -->
<g id="edge6" class="edge">
<title>Node6&#45;&gt;Node7</title>
<path fill="none" stroke="#63b8ff" d="M307.27,-147.8C324.89,-145.63 345.71,-143.07 365.03,-140.69"/>
<polygon fill="#63b8ff" stroke="#63b8ff" points="365.48,-144.16 374.98,-139.46 364.62,-137.21 365.48,-144.16"/>
</g>
<!-- Node10 -->
<g id="node10" class="node">
<title>Node10</title>
<g id="a_node10"><a xlink:href="Debug_8hpp.html#a8e8d6e3de15309922f25c12f4d7cf727" target="_top" xlink:title="Prints a line to the serial console for general debug.">
<polygon fill="white" stroke="#666666" points="479.5,-179.5 377.5,-179.5 377.5,-160.5 479.5,-160.5 479.5,-179.5"/>
<text text-anchor="middle" x="428.5" y="-167.5" font-family="Helvetica,sans-Serif" font-size="10.00">DBGLN_GENERAL</text>
</a>
</g>
</g>
<!-- Node6&#45;&gt;Node10 -->
<g id="edge9" class="edge">
<title>Node6&#45;&gt;Node10</title>
<path fill="none" stroke="#63b8ff" d="M307.27,-157.42C325.53,-159.33 347.23,-161.6 367.13,-163.68"/>
<polygon fill="#63b8ff" stroke="#63b8ff" points="367.04,-167.19 377.35,-164.75 367.77,-160.23 367.04,-167.19"/>
</g>
<!-- Node8 -->
<g id="node8" class="node">
<title>Node8</title>
<g id="a_node8"><a xlink:href="namespaceDebug__CAN.html#a0514cc9d56b82f8a3b586aee6f4c97b0" target="_top" xlink:title="Sends a debug BMS status message over CAN.">
<polygon fill="white" stroke="#666666" points="669,-164.5 532,-164.5 532,-145.5 669,-145.5 669,-164.5"/>
<text text-anchor="middle" x="600.5" y="-152.5" font-family="Helvetica,sans-Serif" font-size="10.00">Debug_CAN::status_bms</text>
</a>
</g>
</g>
<!-- Node7&#45;&gt;Node8 -->
<g id="edge7" class="edge">
<title>Node7&#45;&gt;Node8</title>
<path fill="none" stroke="#63b8ff" d="M482.36,-139.84C494.86,-141.46 508.46,-143.22 521.81,-144.95"/>
<polygon fill="#63b8ff" stroke="#63b8ff" points="521.58,-148.45 531.95,-146.26 522.48,-141.5 521.58,-148.45"/>
</g>
<!-- Node9 -->
<g id="node9" class="node">
<title>Node9</title>
<g id="a_node9"><a xlink:href="namespaceDebug__Serial.html#a1a39bd8c1cd5d475881b10a3a5deeb03" target="_top" xlink:title="Prints the current BMS status to the serial console. This function formats and sends the current BMS ...">
<polygon fill="white" stroke="#666666" points="672,-127.5 529,-127.5 529,-108.5 672,-108.5 672,-127.5"/>
<text text-anchor="middle" x="600.5" y="-115.5" font-family="Helvetica,sans-Serif" font-size="10.00">Debug_Serial::status_bms</text>
</a>
</g>
</g>
<!-- Node7&#45;&gt;Node9 -->
<g id="edge8" class="edge">
<title>Node7&#45;&gt;Node9</title>
<path fill="none" stroke="#63b8ff" d="M482.36,-128.34C493.86,-127.32 506.27,-126.23 518.58,-125.14"/>
<polygon fill="#63b8ff" stroke="#63b8ff" points="519.21,-128.6 528.86,-124.23 518.6,-121.63 519.21,-128.6"/>
</g>
<!-- Node10&#45;&gt;Node3 -->
<g id="edge10" class="edge">
<title>Node10&#45;&gt;Node3</title>
<path fill="none" stroke="#63b8ff" d="M472.4,-179.59C495.03,-184.65 523,-190.9 546.93,-196.25"/>
<polygon fill="#63b8ff" stroke="#63b8ff" points="546.39,-199.71 556.91,-198.48 547.91,-192.88 546.39,-199.71"/>
</g>
<!-- Node12 -->
<g id="node12" class="node">
<title>Node12</title>
<g id="a_node12"><a xlink:href="classExponentialFilter.html#a4128176cf6dbe847a521df4dba8d962d" target="_top" xlink:title="Adds a new sample to the ExponentialFilter. Updates the filtered value using the exponential moving a...">
<polygon fill="white" stroke="#666666" points="316.5,-125 211.5,-125 211.5,-95 316.5,-95 316.5,-125"/>
<text text-anchor="start" x="219.5" y="-113" font-family="Helvetica,sans-Serif" font-size="10.00">ExponentialFilter::</text>
<text text-anchor="middle" x="264" y="-102" font-family="Helvetica,sans-Serif" font-size="10.00">addSample</text>
</a>
</g>
</g>
<!-- Node11&#45;&gt;Node12 -->
<g id="edge12" class="edge">
<title>Node11&#45;&gt;Node12</title>
<path fill="none" stroke="#63b8ff" d="M160.6,-95.68C173.29,-97.45 187.59,-99.45 201.38,-101.38"/>
<polygon fill="#63b8ff" stroke="#63b8ff" points="200.93,-104.85 211.31,-102.77 201.89,-97.92 200.93,-104.85"/>
</g>
<!-- Node13 -->
<g id="node13" class="node">
<title>Node13</title>
<g id="a_node13"><a xlink:href="classPedal.html#a4025bb96ea422dbba6d3b604a1066bc7" target="_top" xlink:title="Checks for a fault between two pedal sensor readings.">
<polygon fill="white" stroke="#666666" points="328,-76.5 200,-76.5 200,-57.5 328,-57.5 328,-76.5"/>
<text text-anchor="middle" x="264" y="-64.5" font-family="Helvetica,sans-Serif" font-size="10.00">Pedal::checkPedalFault</text>
</a>
</g>
</g>
<!-- Node11&#45;&gt;Node13 -->
<g id="edge13" class="edge">
<title>Node11&#45;&gt;Node13</title>
<path fill="none" stroke="#63b8ff" d="M160.6,-83.47C171.01,-81.8 182.5,-79.95 193.91,-78.11"/>
<polygon fill="#63b8ff" stroke="#63b8ff" points="194.57,-81.55 203.88,-76.51 193.46,-74.64 194.57,-81.55"/>
</g>
<!-- Node14 -->
<g id="node14" class="node">
<title>Node14</title>
<g id="a_node14"><a xlink:href="Debug_8hpp.html#a83973b3fea610da634610d01cd98e2d8" target="_top" xlink:title="Sends throttle fault debug info via CAN or serial (if enabled). Overloads for fault status with or wi...">
<polygon fill="white" stroke="#666666" points="493,-57.5 364,-57.5 364,-38.5 493,-38.5 493,-57.5"/>
<text text-anchor="middle" x="428.5" y="-45.5" font-family="Helvetica,sans-Serif" font-size="10.00">DBG_THROTTLE_FAULT</text>
</a>
</g>
</g>
<!-- Node11&#45;&gt;Node14 -->
<g id="edge17" class="edge">
<title>Node11&#45;&gt;Node14</title>
<path fill="none" stroke="#63b8ff" d="M133.34,-80.39C148.59,-70.04 174.72,-54.23 200,-48 250.27,-35.61 308.71,-35.91 353.77,-39.15"/>
<polygon fill="#63b8ff" stroke="#63b8ff" points="353.51,-42.64 363.75,-39.93 354.06,-35.66 353.51,-42.64"/>
</g>
<!-- Node13&#45;&gt;Node14 -->
<g id="edge14" class="edge">
<title>Node13&#45;&gt;Node14</title>
<path fill="none" stroke="#63b8ff" d="M328.29,-59.6C336.68,-58.62 345.34,-57.61 353.89,-56.61"/>
<polygon fill="#63b8ff" stroke="#63b8ff" points="354.32,-60.08 363.85,-55.44 353.51,-53.13 354.32,-60.08"/>
</g>
<!-- Node15 -->
<g id="node15" class="node">
<title>Node15</title>
<g id="a_node15"><a xlink:href="namespaceDebug__CAN.html#aded6aa4b3ac940a9ea0941569e157522" target="_top" xlink:title="Sends a debug throttle fault message over CAN with a float value.">
<polygon fill="white" stroke="#666666" points="658.5,-78 542.5,-78 542.5,-48 658.5,-48 658.5,-78"/>
<text text-anchor="start" x="550.5" y="-66" font-family="Helvetica,sans-Serif" font-size="10.00">Debug_CAN::throttle</text>
<text text-anchor="middle" x="600.5" y="-55" font-family="Helvetica,sans-Serif" font-size="10.00">_fault</text>
</a>
</g>
</g>
<!-- Node14&#45;&gt;Node15 -->
<g id="edge15" class="edge">
<title>Node14&#45;&gt;Node15</title>
<path fill="none" stroke="#63b8ff" d="M493.29,-53.63C506,-54.75 519.39,-55.93 532.21,-57.06"/>
<polygon fill="#63b8ff" stroke="#63b8ff" points="532.08,-60.57 542.35,-57.96 532.7,-53.59 532.08,-60.57"/>
</g>
<!-- Node16 -->
<g id="node16" class="node">
<title>Node16</title>
<g id="a_node16"><a xlink:href="namespaceDebug__Serial.html#a190255790b41055a6f76fb66879f99d2" target="_top" xlink:title="Prints a throttle fault message to the serial console. This function formats and sends the throttle f...">
<polygon fill="white" stroke="#666666" points="662,-30 539,-30 539,0 662,0 662,-30"/>
<text text-anchor="start" x="547" y="-18" font-family="Helvetica,sans-Serif" font-size="10.00">Debug_Serial::throttle</text>
<text text-anchor="middle" x="600.5" y="-7" font-family="Helvetica,sans-Serif" font-size="10.00">_fault</text>
</a>
</g>
</g>
<!-- Node14&#45;&gt;Node16 -->
<g id="edge16" class="edge">
<title>Node14&#45;&gt;Node16</title>
<path fill="none" stroke="#63b8ff" d="M478.67,-38.46C494.41,-35.4 512.15,-31.96 529.1,-28.67"/>
<polygon fill="#63b8ff" stroke="#63b8ff" points="529.82,-32.09 538.97,-26.75 528.48,-25.22 529.82,-32.09"/>
</g>
</g>
</svg>
