<?xml version="1.0" encoding="UTF-8" standalone="no"?>
<!DOCTYPE svg PUBLIC "-//W3C//DTD SVG 1.1//EN"
 "http://www.w3.org/Graphics/SVG/1.1/DTD/svg11.dtd">
<!-- Generated by graphviz version 2.43.0 (0)
 -->
<!-- Title: setup Pages: 1 -->
<!--zoomable 398 -->
<svg id="main" version="1.1" xmlns="http://www.w3.org/2000/svg" xmlns:xlink="http://www.w3.org/1999/xlink" xml:space="preserve" onload="init(evt)">
<style type="text/css"><![CDATA[
.edge:hover path { stroke: red; }
.edge:hover polygon { stroke: red; fill: red; }
]]></style>
<script type="text/javascript"><![CDATA[
var edges = document.getElementsByTagName('g');
if (edges && edges.length) {
  for (var i=0;i<edges.length;i++) {
    if (edges[i].id.substr(0,4)=='edge') {
      edges[i].setAttribute('class','edge');
    }
  }
}
]]></script>
        <defs>
                <circle id="rim" cx="0" cy="0" r="7"/>
                <circle id="rim2" cx="0" cy="0" r="3.5"/>
                <g id="zoomPlus">
                        <use xlink:href="#rim" fill="#404040">
                                <set attributeName="fill" to="#808080" begin="zoomplus.mouseover" end="zoomplus.mouseout"/>
                        </use>
                        <path d="M-4,0h8M0,-4v8" fill="none" stroke="white" stroke-width="1.5" pointer-events="none"/>
                </g>
                <g id="zoomMin">
                        <use xlink:href="#rim" fill="#404040">
                                <set attributeName="fill" to="#808080" begin="zoomminus.mouseover" end="zoomminus.mouseout"/>
                        </use>
                        <path d="M-4,0h8" fill="none" stroke="white" stroke-width="1.5" pointer-events="none"/>
                </g>
                <g id="dirArrow">
                        <path fill="none" stroke="white" stroke-width="1.5" d="M0,-3.0v7 M-2.5,-0.5L0,-3.0L2.5,-0.5"/>
                </g>
               <g id="resetDef">
                       <use xlink:href="#rim2" fill="#404040">
                               <set attributeName="fill" to="#808080" begin="reset.mouseover" end="reset.mouseout"/>
                       </use>
               </g>
        </defs>

<script type="text/javascript">
var viewWidth = 1076;
var viewHeight = 398;
var sectionId = 'dynsection-5';
</script>
<script xlink:href="svgpan.js"/>
<svg id="graph" class="graph">
<g id="viewport">
<title>setup</title>
<!-- Node1 -->
<g id="node1" class="node">
<title>Node1</title>
<g id="a_node1"><a xlink:title="Setup function for initializing the VCU system. Initializes MCP2515s, IO pins, as well as own modules...">
<polygon fill="#999999" stroke="#666666" points="44,-239.5 0,-239.5 0,-220.5 44,-220.5 44,-239.5"/>
<text text-anchor="middle" x="22" y="-227.5" font-family="Helvetica,sans-Serif" font-size="10.00">setup</text>
</a>
</g>
</g>
<!-- Node2 -->
<g id="node2" class="node">
<title>Node2</title>
<g id="a_node2"><a xlink:href="Debug_8h.html#a306ca7fb070dd487be4ea4ec3de74b85" target="_top" xlink:title="Sends car status debug info via CAN or serial (if enabled).">
<polygon fill="white" stroke="#666666" points="197.5,-353.5 91.5,-353.5 91.5,-334.5 197.5,-334.5 197.5,-353.5"/>
<text text-anchor="middle" x="144.5" y="-341.5" font-family="Helvetica,sans-Serif" font-size="10.00">DBG_STATUS_CAR</text>
</a>
</g>
</g>
<!-- Node1&#45;&gt;Node2 -->
<g id="edge1" class="edge">
<title>Node1&#45;&gt;Node2</title>
<path fill="none" stroke="#63b8ff" d="M26.63,-239.57C33.98,-257.75 52.33,-297.45 80,-320 84.98,-324.06 90.71,-327.47 96.65,-330.34"/>
<polygon fill="#63b8ff" stroke="#63b8ff" points="95.52,-333.66 106.09,-334.4 98.29,-327.23 95.52,-333.66"/>
</g>
<!-- Node5 -->
<g id="node5" class="node">
<title>Node5</title>
<g id="a_node5"><a xlink:href="Debug_8h.html#a8e8d6e3de15309922f25c12f4d7cf727" target="_top" xlink:title="Prints a line to the serial console for general debug.">
<polygon fill="white" stroke="#666666" points="364.5,-315.5 262.5,-315.5 262.5,-296.5 364.5,-296.5 364.5,-315.5"/>
<text text-anchor="middle" x="313.5" y="-303.5" font-family="Helvetica,sans-Serif" font-size="10.00">DBGLN_GENERAL</text>
</a>
</g>
</g>
<!-- Node1&#45;&gt;Node5 -->
<g id="edge4" class="edge">
<title>Node1&#45;&gt;Node5</title>
<path fill="none" stroke="#63b8ff" d="M33.47,-239.61C44.28,-248.96 62.06,-262.78 80,-270 135.6,-292.38 203.84,-300.94 251.97,-304.16"/>
<polygon fill="#63b8ff" stroke="#63b8ff" points="252.04,-307.67 262.23,-304.78 252.46,-300.68 252.04,-307.67"/>
</g>
<!-- Node7 -->
<g id="node7" class="node">
<title>Node7</title>
<g id="a_node7"><a xlink:href="Debug_8h.html#adeb16efc082a41c9b137c2fa9d8162c0" target="_top" xlink:title="Prints a line to the serial console for status debug.">
<polygon fill="white" stroke="#666666" points="360,-277.5 267,-277.5 267,-258.5 360,-258.5 360,-277.5"/>
<text text-anchor="middle" x="313.5" y="-265.5" font-family="Helvetica,sans-Serif" font-size="10.00">DBGLN_STATUS</text>
</a>
</g>
</g>
<!-- Node1&#45;&gt;Node7 -->
<g id="edge6" class="edge">
<title>Node1&#45;&gt;Node7</title>
<path fill="none" stroke="#63b8ff" d="M44.05,-238.36C54.67,-242.23 67.84,-246.51 80,-249 139.52,-261.17 209.11,-265.6 256.53,-267.18"/>
<polygon fill="#63b8ff" stroke="#63b8ff" points="256.5,-270.68 266.6,-267.49 256.71,-263.69 256.5,-270.68"/>
</g>
<!-- Node8 -->
<g id="node8" class="node">
<title>Node8</title>
<g id="a_node8"><a xlink:href="namespaceDebug__Serial.html#ad136936636c7b7140cb1e14c55eb5f31" target="_top" xlink:title="Initializes the Debug_Serial interface. This function sets up the serial communication for debugging ...">
<polygon fill="white" stroke="#666666" points="209,-239.5 80,-239.5 80,-220.5 209,-220.5 209,-239.5"/>
<text text-anchor="middle" x="144.5" y="-227.5" font-family="Helvetica,sans-Serif" font-size="10.00">Debug_Serial::initialize</text>
</a>
</g>
</g>
<!-- Node1&#45;&gt;Node8 -->
<g id="edge8" class="edge">
<title>Node1&#45;&gt;Node8</title>
<path fill="none" stroke="#63b8ff" d="M44.27,-230C51.66,-230 60.42,-230 69.64,-230"/>
<polygon fill="#63b8ff" stroke="#63b8ff" points="69.77,-233.5 79.77,-230 69.77,-226.5 69.77,-233.5"/>
</g>
<!-- Node9 -->
<g id="node9" class="node">
<title>Node9</title>
<g id="a_node9"><a xlink:href="namespaceDebug__CAN.html#a5c8b33000e36a19ccb285e45f666e64e" target="_top" xlink:title="Initializes the Debug_CAN interface with the given MCP2515 CAN controller.">
<polygon fill="white" stroke="#666666" points="205.5,-202.5 83.5,-202.5 83.5,-183.5 205.5,-183.5 205.5,-202.5"/>
<text text-anchor="middle" x="144.5" y="-190.5" font-family="Helvetica,sans-Serif" font-size="10.00">Debug_CAN::initialize</text>
</a>
</g>
</g>
<!-- Node1&#45;&gt;Node9 -->
<g id="edge9" class="edge">
<title>Node1&#45;&gt;Node9</title>
<path fill="none" stroke="#63b8ff" d="M44.09,-223.26C54.83,-219.84 68.1,-215.66 80,-212 86.96,-209.86 94.35,-207.62 101.55,-205.46"/>
<polygon fill="#63b8ff" stroke="#63b8ff" points="102.59,-208.8 111.17,-202.57 100.58,-202.09 102.59,-208.8"/>
</g>
<!-- Node10 -->
<g id="node10" class="node">
<title>Node10</title>
<g id="a_node10"><a xlink:href="main_8cpp.html#a95581c94a7dc4a68f61fa24f06cc90d1" target="_top" xlink:title=" ">
<polygon fill="white" stroke="#666666" points="184.5,-165.5 104.5,-165.5 104.5,-146.5 184.5,-146.5 184.5,-165.5"/>
<text text-anchor="middle" x="144.5" y="-153.5" font-family="Helvetica,sans-Serif" font-size="10.00">mcp2515_DL</text>
</a>
</g>
</g>
<!-- Node1&#45;&gt;Node10 -->
<g id="edge10" class="edge">
<title>Node1&#45;&gt;Node10</title>
<path fill="none" stroke="#63b8ff" d="M30.44,-220.4C40.44,-208.15 59.34,-187.08 80,-175 84.54,-172.35 89.48,-170.03 94.54,-168.03"/>
<polygon fill="#63b8ff" stroke="#63b8ff" points="96.09,-171.19 104.33,-164.53 93.74,-164.6 96.09,-171.19"/>
</g>
<!-- Node11 -->
<g id="node11" class="node">
<title>Node11</title>
<g id="a_node11"><a xlink:href="main_8cpp.html#a2668d80d0711f29d4507c48eb984f684" target="_top" xlink:title=" ">
<polygon fill="white" stroke="#666666" points="192.5,-128.5 96.5,-128.5 96.5,-109.5 192.5,-109.5 192.5,-128.5"/>
<text text-anchor="middle" x="144.5" y="-116.5" font-family="Helvetica,sans-Serif" font-size="10.00">scheduler_pedal</text>
</a>
</g>
</g>
<!-- Node1&#45;&gt;Node11 -->
<g id="edge11" class="edge">
<title>Node1&#45;&gt;Node11</title>
<path fill="none" stroke="#63b8ff" d="M26.15,-220.47C32.9,-201.59 50.57,-159.31 80,-137 82.31,-135.25 84.79,-133.67 87.37,-132.24"/>
<polygon fill="#63b8ff" stroke="#63b8ff" points="88.93,-135.37 96.5,-127.95 85.96,-129.04 88.93,-135.37"/>
</g>
<!-- Node3 -->
<g id="node3" class="node">
<title>Node3</title>
<g id="a_node3"><a xlink:href="namespaceDebug__CAN.html#a33ac5d84927aea929dc26f0820dd58c8" target="_top" xlink:title="Sends a debug car status message over CAN. This function prepares a CAN frame with the current car st...">
<polygon fill="white" stroke="#666666" points="379,-389.5 248,-389.5 248,-370.5 379,-370.5 379,-389.5"/>
<text text-anchor="middle" x="313.5" y="-377.5" font-family="Helvetica,sans-Serif" font-size="10.00">Debug_CAN::status_car</text>
</a>
</g>
</g>
<!-- Node2&#45;&gt;Node3 -->
<g id="edge2" class="edge">
<title>Node2&#45;&gt;Node3</title>
<path fill="none" stroke="#63b8ff" d="M189.81,-353.55C210.85,-358.09 236.17,-363.55 258.33,-368.32"/>
<polygon fill="#63b8ff" stroke="#63b8ff" points="257.76,-371.78 268.27,-370.47 259.23,-364.94 257.76,-371.78"/>
</g>
<!-- Node4 -->
<g id="node4" class="node">
<title>Node4</title>
<g id="a_node4"><a xlink:href="namespaceDebug__Serial.html#a0f4070c8db2109f53b11b93580bb9472" target="_top" xlink:title="Prints the current car status to the serial console. This function formats and sends the current car ...">
<polygon fill="white" stroke="#666666" points="382,-352.5 245,-352.5 245,-333.5 382,-333.5 382,-352.5"/>
<text text-anchor="middle" x="313.5" y="-340.5" font-family="Helvetica,sans-Serif" font-size="10.00">Debug_Serial::status_car</text>
</a>
</g>
</g>
<!-- Node2&#45;&gt;Node4 -->
<g id="edge3" class="edge">
<title>Node2&#45;&gt;Node4</title>
<path fill="none" stroke="#63b8ff" d="M197.88,-343.69C209.66,-343.62 222.39,-343.54 234.95,-343.46"/>
<polygon fill="#63b8ff" stroke="#63b8ff" points="234.98,-346.96 244.96,-343.4 234.94,-339.96 234.98,-346.96"/>
</g>
<!-- Node6 -->
<g id="node6" class="node">
<title>Node6</title>
<g id="a_node6"><a xlink:href="namespaceDebug__Serial.html#a756fa9286151426012a6f8e178a6c550" target="_top" xlink:title="Prints a line to the serial console. This function sends a string message followed by a newline to th...">
<polygon fill="white" stroke="#666666" points="719.5,-277.5 600.5,-277.5 600.5,-258.5 719.5,-258.5 719.5,-277.5"/>
<text text-anchor="middle" x="660" y="-265.5" font-family="Helvetica,sans-Serif" font-size="10.00">Debug_Serial::println</text>
</a>
</g>
</g>
<!-- Node5&#45;&gt;Node6 -->
<g id="edge5" class="edge">
<title>Node5&#45;&gt;Node6</title>
<path fill="none" stroke="#63b8ff" d="M364.59,-301.37C412.68,-296.82 487.37,-289.49 552,-282 564.41,-280.56 577.61,-278.92 590.35,-277.29"/>
<polygon fill="#63b8ff" stroke="#63b8ff" points="590.98,-280.73 600.45,-275.98 590.08,-273.79 590.98,-280.73"/>
</g>
<!-- Node7&#45;&gt;Node6 -->
<g id="edge7" class="edge">
<title>Node7&#45;&gt;Node6</title>
<path fill="none" stroke="#63b8ff" d="M360.25,-268C419.09,-268 521.83,-268 590.14,-268"/>
<polygon fill="#63b8ff" stroke="#63b8ff" points="590.37,-271.5 600.37,-268 590.37,-264.5 590.37,-271.5"/>
</g>
<!-- Node12 -->
<g id="node12" class="node">
<title>Node12</title>
<g id="a_node12"><a xlink:href="classPedal.html#a2457466d32f6d9f58f8b8ab6c34cd495" target="_top" xlink:title="Updates the CAN frame with the most recent pedal value.">
<polygon fill="white" stroke="#666666" points="380.5,-142 246.5,-142 246.5,-112 380.5,-112 380.5,-142"/>
<text text-anchor="start" x="254.5" y="-130" font-family="Helvetica,sans-Serif" font-size="10.00">Pedal::pedal_can_frame</text>
<text text-anchor="middle" x="313.5" y="-119" font-family="Helvetica,sans-Serif" font-size="10.00">_update</text>
</a>
</g>
</g>
<!-- Node11&#45;&gt;Node12 -->
<g id="edge12" class="edge">
<title>Node11&#45;&gt;Node12</title>
<path fill="none" stroke="#63b8ff" d="M192.91,-121.27C206.38,-121.92 221.41,-122.64 236.14,-123.34"/>
<polygon fill="#63b8ff" stroke="#63b8ff" points="236.12,-126.84 246.27,-123.83 236.45,-119.85 236.12,-126.84"/>
</g>
<!-- Node13 -->
<g id="node13" class="node">
<title>Node13</title>
<g id="a_node13"><a xlink:href="Debug_8h.html#a25f28d9aa7440ebc55a76a2b2ce878ea" target="_top" xlink:title="Sends throttle output debug info via CAN or serial (if enabled).">
<polygon fill="white" stroke="#666666" points="545.5,-179.5 424.5,-179.5 424.5,-160.5 545.5,-160.5 545.5,-179.5"/>
<text text-anchor="middle" x="485" y="-167.5" font-family="Helvetica,sans-Serif" font-size="10.00">DBG_THROTTLE_OUT</text>
</a>
</g>
</g>
<!-- Node12&#45;&gt;Node13 -->
<g id="edge13" class="edge">
<title>Node12&#45;&gt;Node13</title>
<path fill="none" stroke="#63b8ff" d="M373.78,-142.04C394.35,-147.26 417.12,-153.03 436.61,-157.98"/>
<polygon fill="#63b8ff" stroke="#63b8ff" points="435.91,-161.41 446.46,-160.48 437.63,-154.63 435.91,-161.41"/>
</g>
<!-- Node16 -->
<g id="node16" class="node">
<title>Node16</title>
<g id="a_node16"><a xlink:href="Debug_8h.html#a9a564faad1bd32a5894d3706e38f1067" target="_top" xlink:title="Prints a line to the serial console for throttle debug.">
<polygon fill="white" stroke="#666666" points="538.5,-231.5 431.5,-231.5 431.5,-212.5 538.5,-212.5 538.5,-231.5"/>
<text text-anchor="middle" x="485" y="-219.5" font-family="Helvetica,sans-Serif" font-size="10.00">DBGLN_THROTTLE</text>
</a>
</g>
</g>
<!-- Node12&#45;&gt;Node16 -->
<g id="edge16" class="edge">
<title>Node12&#45;&gt;Node16</title>
<path fill="none" stroke="#63b8ff" d="M338.46,-142.06C359.24,-154.95 390.27,-173.79 418,-189 429.85,-195.5 443.13,-202.24 454.66,-207.93"/>
<polygon fill="#63b8ff" stroke="#63b8ff" points="453.35,-211.18 463.87,-212.43 456.42,-204.89 453.35,-211.18"/>
</g>
<!-- Node17 -->
<g id="node17" class="node">
<title>Node17</title>
<g id="a_node17"><a xlink:href="classPedal.html#a4ff4c5cf21550badfbb93b239b6bdee5" target="_top" xlink:title="Updates the CAN frame with the current pedal values.">
<polygon fill="white" stroke="#666666" points="552,-142 418,-142 418,-112 552,-112 552,-142"/>
<text text-anchor="start" x="426" y="-130" font-family="Helvetica,sans-Serif" font-size="10.00">Pedal::pedal_can_frame</text>
<text text-anchor="middle" x="485" y="-119" font-family="Helvetica,sans-Serif" font-size="10.00">_stop_motor</text>
</a>
</g>
</g>
<!-- Node12&#45;&gt;Node17 -->
<g id="edge18" class="edge">
<title>Node12&#45;&gt;Node17</title>
<path fill="none" stroke="#63b8ff" d="M380.52,-127C389.43,-127 398.64,-127 407.71,-127"/>
<polygon fill="#63b8ff" stroke="#63b8ff" points="407.88,-130.5 417.88,-127 407.88,-123.5 407.88,-130.5"/>
</g>
<!-- Node18 -->
<g id="node18" class="node">
<title>Node18</title>
<g id="a_node18"><a xlink:href="classPedal.html#a04ce7e5e20d8405f10f281d6c784e1ef" target="_top" xlink:title="Maps the pedal ADC to a torque value, handling deadzones and faults.">
<polygon fill="white" stroke="#666666" points="546,-94 424,-94 424,-64 546,-64 546,-94"/>
<text text-anchor="start" x="432" y="-82" font-family="Helvetica,sans-Serif" font-size="10.00">Pedal::throttle_torque</text>
<text text-anchor="middle" x="485" y="-71" font-family="Helvetica,sans-Serif" font-size="10.00">_mapping</text>
</a>
</g>
</g>
<!-- Node12&#45;&gt;Node18 -->
<g id="edge19" class="edge">
<title>Node12&#45;&gt;Node18</title>
<path fill="none" stroke="#63b8ff" d="M367.67,-111.94C384.7,-107.12 403.73,-101.73 421.38,-96.73"/>
<polygon fill="#63b8ff" stroke="#63b8ff" points="422.35,-100.09 431.02,-94 420.45,-93.36 422.35,-100.09"/>
</g>
<!-- Node14 -->
<g id="node14" class="node">
<title>Node14</title>
<g id="a_node14"><a xlink:href="namespaceDebug__CAN.html#ace21ce4da40cf6ae391410d839c59cb3" target="_top" xlink:title="Sends a debug throttle output message over CAN. This function prepares a CAN frame with the throttle ...">
<polygon fill="white" stroke="#666666" points="728.5,-205.5 591.5,-205.5 591.5,-186.5 728.5,-186.5 728.5,-205.5"/>
<text text-anchor="middle" x="660" y="-193.5" font-family="Helvetica,sans-Serif" font-size="10.00">Debug_CAN::throttle_out</text>
</a>
</g>
</g>
<!-- Node13&#45;&gt;Node14 -->
<g id="edge14" class="edge">
<title>Node13&#45;&gt;Node14</title>
<path fill="none" stroke="#63b8ff" d="M545.54,-178.95C558.39,-180.88 572.12,-182.94 585.44,-184.94"/>
<polygon fill="#63b8ff" stroke="#63b8ff" points="585.11,-188.43 595.52,-186.46 586.15,-181.51 585.11,-188.43"/>
</g>
<!-- Node15 -->
<g id="node15" class="node">
<title>Node15</title>
<g id="a_node15"><a xlink:href="namespaceDebug__Serial.html#a75dcfc17e13215b801dd9dafa6f7c515" target="_top" xlink:title="Prints a throttle output message to the serial console. This function formats and sends the throttle ...">
<polygon fill="white" stroke="#666666" points="732,-168.5 588,-168.5 588,-149.5 732,-149.5 732,-168.5"/>
<text text-anchor="middle" x="660" y="-156.5" font-family="Helvetica,sans-Serif" font-size="10.00">Debug_Serial::throttle_out</text>
</a>
</g>
</g>
<!-- Node13&#45;&gt;Node15 -->
<g id="edge15" class="edge">
<title>Node13&#45;&gt;Node15</title>
<path fill="none" stroke="#63b8ff" d="M545.54,-166.21C555.83,-165.56 566.69,-164.87 577.45,-164.19"/>
<polygon fill="#63b8ff" stroke="#63b8ff" points="577.96,-167.66 587.72,-163.53 577.51,-160.67 577.96,-167.66"/>
</g>
<!-- Node16&#45;&gt;Node6 -->
<g id="edge17" class="edge">
<title>Node16&#45;&gt;Node6</title>
<path fill="none" stroke="#63b8ff" d="M521.85,-231.53C548.41,-238.59 584.8,-248.27 613.43,-255.88"/>
<polygon fill="#63b8ff" stroke="#63b8ff" points="612.64,-259.29 623.2,-258.48 614.44,-252.53 612.64,-259.29"/>
</g>
<!-- Node19 -->
<g id="node19" class="node">
<title>Node19</title>
<g id="a_node19"><a xlink:href="classPedal.html#a00f33fcd9507c62193f2ffc3570b7fba" target="_top" xlink:title="Maps the brake ADC to a torque value.">
<polygon fill="white" stroke="#666666" points="716.5,-121 603.5,-121 603.5,-91 716.5,-91 716.5,-121"/>
<text text-anchor="start" x="611.5" y="-109" font-family="Helvetica,sans-Serif" font-size="10.00">Pedal::brake_torque</text>
<text text-anchor="middle" x="660" y="-98" font-family="Helvetica,sans-Serif" font-size="10.00">_mapping</text>
</a>
</g>
</g>
<!-- Node18&#45;&gt;Node19 -->
<g id="edge20" class="edge">
<title>Node18&#45;&gt;Node19</title>
<path fill="none" stroke="#63b8ff" d="M546.02,-88.37C561.31,-90.75 577.82,-93.33 593.38,-95.76"/>
<polygon fill="#63b8ff" stroke="#63b8ff" points="593.02,-99.24 603.44,-97.33 594.1,-92.33 593.02,-99.24"/>
</g>
<!-- Node23 -->
<g id="node23" class="node">
<title>Node23</title>
<g id="a_node23"><a xlink:href="Debug_8h.html#a27a4d84e5afbe5f46066606c2cfcd97d" target="_top" xlink:title="Sends throttle fault debug info via CAN or serial (if enabled). Overloads for fault status with or wi...">
<polygon fill="white" stroke="#666666" points="897,-72.5 768,-72.5 768,-53.5 897,-53.5 897,-72.5"/>
<text text-anchor="middle" x="832.5" y="-60.5" font-family="Helvetica,sans-Serif" font-size="10.00">DBG_THROTTLE_FAULT</text>
</a>
</g>
</g>
<!-- Node18&#45;&gt;Node23 -->
<g id="edge27" class="edge">
<title>Node18&#45;&gt;Node23</title>
<path fill="none" stroke="#63b8ff" d="M546.18,-76.21C604.97,-73.49 694.56,-69.34 757.64,-66.42"/>
<polygon fill="#63b8ff" stroke="#63b8ff" points="758.09,-69.9 767.92,-65.94 757.76,-62.91 758.09,-69.9"/>
</g>
<!-- Node20 -->
<g id="node20" class="node">
<title>Node20</title>
<g id="a_node20"><a xlink:href="Debug_8h.html#ae4f010051fc0b65e53e4305c62bae986" target="_top" xlink:title="Sends brake fault debug info via CAN or serial (if enabled). Overloads for fault status with or witho...">
<polygon fill="white" stroke="#666666" points="888,-120.5 777,-120.5 777,-101.5 888,-101.5 888,-120.5"/>
<text text-anchor="middle" x="832.5" y="-108.5" font-family="Helvetica,sans-Serif" font-size="10.00">DBG_BRAKE_FAULT</text>
</a>
</g>
</g>
<!-- Node19&#45;&gt;Node20 -->
<g id="edge21" class="edge">
<title>Node19&#45;&gt;Node20</title>
<path fill="none" stroke="#63b8ff" d="M716.83,-107.64C732.83,-108.11 750.41,-108.62 766.9,-109.11"/>
<polygon fill="#63b8ff" stroke="#63b8ff" points="766.9,-112.61 777,-109.4 767.11,-105.61 766.9,-112.61"/>
</g>
<!-- Node19&#45;&gt;Node23 -->
<g id="edge24" class="edge">
<title>Node19&#45;&gt;Node23</title>
<path fill="none" stroke="#63b8ff" d="M716.83,-91.92C738.44,-86.47 762.94,-80.29 783.72,-75.05"/>
<polygon fill="#63b8ff" stroke="#63b8ff" points="784.76,-78.4 793.6,-72.56 783.05,-71.61 784.76,-78.4"/>
</g>
<!-- Node21 -->
<g id="node21" class="node">
<title>Node21</title>
<g id="a_node21"><a xlink:href="namespaceDebug__CAN.html#a972189e7412acf4e4b2d36c7693a3f70" target="_top" xlink:title="Sends a debug brake fault message over CAN. This function prepares a CAN frame with the brake fault s...">
<polygon fill="white" stroke="#666666" points="1068,-163.5 933,-163.5 933,-144.5 1068,-144.5 1068,-163.5"/>
<text text-anchor="middle" x="1000.5" y="-151.5" font-family="Helvetica,sans-Serif" font-size="10.00">Debug_CAN::brake_fault</text>
</a>
</g>
</g>
<!-- Node20&#45;&gt;Node21 -->
<g id="edge22" class="edge">
<title>Node20&#45;&gt;Node21</title>
<path fill="none" stroke="#63b8ff" d="M870.34,-120.54C894.73,-126.86 926.93,-135.2 953.07,-141.97"/>
<polygon fill="#63b8ff" stroke="#63b8ff" points="952.2,-145.36 962.76,-144.48 953.96,-138.59 952.2,-145.36"/>
</g>
<!-- Node22 -->
<g id="node22" class="node">
<title>Node22</title>
<g id="a_node22"><a xlink:href="namespaceDebug__Serial.html#a9d828bdca10efbda9f4e147a372cbc71" target="_top" xlink:title="Prints a brake fault message to the serial console. This function formats and sends the brake fault s...">
<polygon fill="white" stroke="#666666" points="1057.5,-126 943.5,-126 943.5,-96 1057.5,-96 1057.5,-126"/>
<text text-anchor="start" x="951.5" y="-114" font-family="Helvetica,sans-Serif" font-size="10.00">Debug_Serial::brake</text>
<text text-anchor="middle" x="1000.5" y="-103" font-family="Helvetica,sans-Serif" font-size="10.00">_fault</text>
</a>
</g>
</g>
<!-- Node20&#45;&gt;Node22 -->
<g id="edge23" class="edge">
<title>Node20&#45;&gt;Node22</title>
<path fill="none" stroke="#63b8ff" d="M888.31,-111C902.66,-111 918.29,-111 933.17,-111"/>
<polygon fill="#63b8ff" stroke="#63b8ff" points="933.32,-114.5 943.32,-111 933.32,-107.5 933.32,-114.5"/>
</g>
<!-- Node24 -->
<g id="node24" class="node">
<title>Node24</title>
<g id="a_node24"><a xlink:href="namespaceDebug__CAN.html#a8e6443068f8aa21ba673ad7bc132e739" target="_top" xlink:title="Sends a debug throttle fault message over CAN. This function prepares a CAN frame with the throttle f...">
<polygon fill="white" stroke="#666666" points="1058.5,-78 942.5,-78 942.5,-48 1058.5,-48 1058.5,-78"/>
<text text-anchor="start" x="950.5" y="-66" font-family="Helvetica,sans-Serif" font-size="10.00">Debug_CAN::throttle</text>
<text text-anchor="middle" x="1000.5" y="-55" font-family="Helvetica,sans-Serif" font-size="10.00">_fault</text>
</a>
</g>
</g>
<!-- Node23&#45;&gt;Node24 -->
<g id="edge25" class="edge">
<title>Node23&#45;&gt;Node24</title>
<path fill="none" stroke="#63b8ff" d="M897.21,-63C908.73,-63 920.78,-63 932.4,-63"/>
<polygon fill="#63b8ff" stroke="#63b8ff" points="932.48,-66.5 942.48,-63 932.48,-59.5 932.48,-66.5"/>
</g>
<!-- Node25 -->
<g id="node25" class="node">
<title>Node25</title>
<g id="a_node25"><a xlink:href="namespaceDebug__Serial.html#aa73ff8f930647f4c70741b4e50ef6a5d" target="_top" xlink:title="Prints a throttle fault message to the serial console. This function formats and sends the throttle f...">
<polygon fill="white" stroke="#666666" points="1062,-30 939,-30 939,0 1062,0 1062,-30"/>
<text text-anchor="start" x="947" y="-18" font-family="Helvetica,sans-Serif" font-size="10.00">Debug_Serial::throttle</text>
<text text-anchor="middle" x="1000.5" y="-7" font-family="Helvetica,sans-Serif" font-size="10.00">_fault</text>
</a>
</g>
</g>
<!-- Node23&#45;&gt;Node25 -->
<g id="edge26" class="edge">
<title>Node23&#45;&gt;Node25</title>
<path fill="none" stroke="#63b8ff" d="M866.69,-53.4C886.98,-47.53 913.58,-39.85 937.63,-32.89"/>
<polygon fill="#63b8ff" stroke="#63b8ff" points="938.77,-36.2 947.41,-30.06 936.83,-29.48 938.77,-36.2"/>
</g>
</g>
</svg>
        <g id="navigator" transform="translate(0 0)" fill="#404254">
                <rect fill="#f2f5e9" fill-opacity="0.5" stroke="#606060" stroke-width=".5" x="0" y="0" width="60" height="60"/>
                <use id="zoomplus" xlink:href="#zoomPlus" x="17" y="9" onmousedown="handleZoom(evt,'in')"/>
                <use id="zoomminus" xlink:href="#zoomMin" x="42" y="9" onmousedown="handleZoom(evt,'out')"/>
                <use id="reset" xlink:href="#resetDef" x="30" y="36" onmousedown="handleReset()"/>
                <g id="arrowUp" xlink:href="#dirArrow" transform="translate(30 24)" onmousedown="handlePan(0,-1)">
                  <use xlink:href="#rim" fill="#404040">
                        <set attributeName="fill" to="#808080" begin="arrowUp.mouseover" end="arrowUp.mouseout"/>
                  </use>
                  <path fill="none" stroke="white" stroke-width="1.5" d="M0,-3.0v7 M-2.5,-0.5L0,-3.0L2.5,-0.5"/>
                </g>
                <g id="arrowRight" xlink:href="#dirArrow" transform="rotate(90) translate(36 -43)" onmousedown="handlePan(1,0)">
                  <use xlink:href="#rim" fill="#404040">
                        <set attributeName="fill" to="#808080" begin="arrowRight.mouseover" end="arrowRight.mouseout"/>
                  </use>
                  <path fill="none" stroke="white" stroke-width="1.5" d="M0,-3.0v7 M-2.5,-0.5L0,-3.0L2.5,-0.5"/>
                </g>
                <g id="arrowDown" xlink:href="#dirArrow" transform="rotate(180) translate(-30 -48)" onmousedown="handlePan(0,1)">
                  <use xlink:href="#rim" fill="#404040">
                        <set attributeName="fill" to="#808080" begin="arrowDown.mouseover" end="arrowDown.mouseout"/>
                  </use>
                  <path fill="none" stroke="white" stroke-width="1.5" d="M0,-3.0v7 M-2.5,-0.5L0,-3.0L2.5,-0.5"/>
                </g>
                <g id="arrowLeft" xlink:href="#dirArrow" transform="rotate(270) translate(-36 17)" onmousedown="handlePan(-1,0)">
                  <use xlink:href="#rim" fill="#404040">
                        <set attributeName="fill" to="#808080" begin="arrowLeft.mouseover" end="arrowLeft.mouseout"/>
                  </use>
                  <path fill="none" stroke="white" stroke-width="1.5" d="M0,-3.0v7 M-2.5,-0.5L0,-3.0L2.5,-0.5"/>
                </g>
        </g>
        <svg viewBox="0 0 15 15" width="100%" height="30px" preserveAspectRatio="xMaxYMin meet">
         <g id="arrow_out" transform="scale(0.3 0.3)">
          <a xlink:href="main_8cpp_a4fc01d736fe50cf5b977f755b675f11d_cgraph_org.svg" target="_base">
           <rect id="button" ry="5" rx="5" y="6" x="6" height="38" width="38"
                fill="#f2f5e9" fill-opacity="0.5" stroke="#606060" stroke-width="1.0"/>
           <path id="arrow"
             d="M 11.500037,31.436501 C 11.940474,20.09759 22.043105,11.32322 32.158766,21.979434 L 37.068811,17.246167 C 37.068811,17.246167 37.088388,32 37.088388,32 L 22.160133,31.978069 C 22.160133,31.978069 26.997745,27.140456 26.997745,27.140456 C 18.528582,18.264221 13.291696,25.230495 11.500037,31.436501 z"
             style="fill:#404040;"/>
          </a>
         </g>
        </svg>
</svg>
