<?xml version="1.0" encoding="UTF-8" standalone="no"?>
<!DOCTYPE svg PUBLIC "-//W3C//DTD SVG 1.1//EN"
 "http://www.w3.org/Graphics/SVG/1.1/DTD/svg11.dtd">
<!-- Generated by graphviz version 2.43.0 (0)
 -->
<!-- Title: scheduler_pedal Pages: 1 -->
<!--zoomable 138 -->
<svg id="main" version="1.1" xmlns="http://www.w3.org/2000/svg" xmlns:xlink="http://www.w3.org/1999/xlink" xml:space="preserve" onload="init(evt)">
<style type="text/css"><![CDATA[
.edge:hover path { stroke: red; }
.edge:hover polygon { stroke: red; fill: red; }
]]></style>
<script type="text/javascript"><![CDATA[
var edges = document.getElementsByTagName('g');
if (edges && edges.length) {
  for (var i=0;i<edges.length;i++) {
    if (edges[i].id.substr(0,4)=='edge') {
      edges[i].setAttribute('class','edge');
    }
  }
}
]]></script>
        <defs>
                <circle id="rim" cx="0" cy="0" r="7"/>
                <circle id="rim2" cx="0" cy="0" r="3.5"/>
                <g id="zoomPlus">
                        <use xlink:href="#rim" fill="#404040">
                                <set attributeName="fill" to="#808080" begin="zoomplus.mouseover" end="zoomplus.mouseout"/>
                        </use>
                        <path d="M-4,0h8M0,-4v8" fill="none" stroke="white" stroke-width="1.5" pointer-events="none"/>
                </g>
                <g id="zoomMin">
                        <use xlink:href="#rim" fill="#404040">
                                <set attributeName="fill" to="#808080" begin="zoomminus.mouseover" end="zoomminus.mouseout"/>
                        </use>
                        <path d="M-4,0h8" fill="none" stroke="white" stroke-width="1.5" pointer-events="none"/>
                </g>
                <g id="dirArrow">
                        <path fill="none" stroke="white" stroke-width="1.5" d="M0,-3.0v7 M-2.5,-0.5L0,-3.0L2.5,-0.5"/>
                </g>
               <g id="resetDef">
                       <use xlink:href="#rim2" fill="#404040">
                               <set attributeName="fill" to="#808080" begin="reset.mouseover" end="reset.mouseout"/>
                       </use>
               </g>
        </defs>

<script type="text/javascript">
var viewWidth = 614;
var viewHeight = 138;
var sectionId = 'dynsection-5';
</script>
<script xlink:href="svgpan.js"/>
<svg id="graph" class="graph">
<g id="viewport">
<title>scheduler_pedal</title>
<!-- Node1 -->
<g id="node1" class="node">
<title>Node1</title>
<g id="a_node1"><a xlink:title=" ">
<polygon fill="#999999" stroke="#666666" points="96,-56 0,-56 0,-37 96,-37 96,-56"/>
<text text-anchor="middle" x="48" y="-44" font-family="Helvetica,sans-Serif" font-size="10.00">scheduler_pedal</text>
</a>
</g>
</g>
<!-- Node2 -->
<g id="node2" class="node">
<title>Node2</title>
<g id="a_node2"><a xlink:href="classPedal.html#affd04caf8f42a15c8942567b44e1186e" target="_top" xlink:title="Updates the CAN frame with the most recent pedal value.">
<polygon fill="white" stroke="#666666" points="230,-56 132,-56 132,-37 230,-37 230,-56"/>
<text text-anchor="middle" x="181" y="-44" font-family="Helvetica,sans-Serif" font-size="10.00">Pedal::canFrame</text>
</a>
</g>
</g>
<!-- Node1&#45;&gt;Node2 -->
<g id="edge1" class="edge">
<title>Node1&#45;&gt;Node2</title>
<path fill="none" stroke="#63b8ff" d="M96.29,-46.5C104.53,-46.5 113.18,-46.5 121.66,-46.5"/>
<polygon fill="#63b8ff" stroke="#63b8ff" points="121.89,-50 131.89,-46.5 121.89,-43 121.89,-50"/>
</g>
<!-- Node3 -->
<g id="node3" class="node">
<title>Node3</title>
<g id="a_node3"><a xlink:href="Debug_8hpp.html#a25f28d9aa7440ebc55a76a2b2ce878ea" target="_top" xlink:title="Sends throttle output debug info via CAN or serial (if enabled).">
<polygon fill="white" stroke="#666666" points="406.5,-93 285.5,-93 285.5,-74 406.5,-74 406.5,-93"/>
<text text-anchor="middle" x="346" y="-81" font-family="Helvetica,sans-Serif" font-size="10.00">DBG_THROTTLE_OUT</text>
</a>
</g>
</g>
<!-- Node2&#45;&gt;Node3 -->
<g id="edge2" class="edge">
<title>Node2&#45;&gt;Node3</title>
<path fill="none" stroke="#63b8ff" d="M223.98,-56.03C245,-60.8 270.65,-66.62 292.92,-71.68"/>
<polygon fill="#63b8ff" stroke="#63b8ff" points="292.36,-75.14 302.88,-73.94 293.91,-68.31 292.36,-75.14"/>
</g>
<!-- Node6 -->
<g id="node6" class="node">
<title>Node6</title>
<g id="a_node6"><a xlink:href="Debug_8hpp.html#a9a564faad1bd32a5894d3706e38f1067" target="_top" xlink:title="Prints a line to the serial console for throttle debug.">
<polygon fill="white" stroke="#666666" points="399.5,-56 292.5,-56 292.5,-37 399.5,-37 399.5,-56"/>
<text text-anchor="middle" x="346" y="-44" font-family="Helvetica,sans-Serif" font-size="10.00">DBGLN_THROTTLE</text>
</a>
</g>
</g>
<!-- Node2&#45;&gt;Node6 -->
<g id="edge5" class="edge">
<title>Node2&#45;&gt;Node6</title>
<path fill="none" stroke="#63b8ff" d="M230.02,-46.5C246.43,-46.5 265.03,-46.5 282.41,-46.5"/>
<polygon fill="#63b8ff" stroke="#63b8ff" points="282.48,-50 292.48,-46.5 282.48,-43 282.48,-50"/>
</g>
<!-- Node8 -->
<g id="node8" class="node">
<title>Node8</title>
<g id="a_node8"><a xlink:href="classPedal.html#abef0e8d31dc31884f9944a149c6b8e5a" target="_top" xlink:title="Maps the pedal ADC to a torque value, handling deadzones and faults.">
<polygon fill="white" stroke="#666666" points="426,-19 266,-19 266,0 426,0 426,-19"/>
<text text-anchor="middle" x="346" y="-7" font-family="Helvetica,sans-Serif" font-size="10.00">Pedal::throttleTorqueMapping</text>
</a>
</g>
</g>
<!-- Node2&#45;&gt;Node8 -->
<g id="edge7" class="edge">
<title>Node2&#45;&gt;Node8</title>
<path fill="none" stroke="#63b8ff" d="M223.98,-36.97C245,-32.2 270.65,-26.38 292.92,-21.32"/>
<polygon fill="#63b8ff" stroke="#63b8ff" points="293.91,-24.69 302.88,-19.06 292.36,-17.86 293.91,-24.69"/>
</g>
<!-- Node4 -->
<g id="node4" class="node">
<title>Node4</title>
<g id="a_node4"><a xlink:href="namespaceDebug__CAN.html#ace21ce4da40cf6ae391410d839c59cb3" target="_top" xlink:title="Sends a debug throttle output message over CAN.">
<polygon fill="white" stroke="#666666" points="602.5,-130 465.5,-130 465.5,-111 602.5,-111 602.5,-130"/>
<text text-anchor="middle" x="534" y="-118" font-family="Helvetica,sans-Serif" font-size="10.00">Debug_CAN::throttle_out</text>
</a>
</g>
</g>
<!-- Node3&#45;&gt;Node4 -->
<g id="edge3" class="edge">
<title>Node3&#45;&gt;Node4</title>
<path fill="none" stroke="#63b8ff" d="M394.9,-93.03C419.32,-97.89 449.22,-103.83 474.94,-108.95"/>
<polygon fill="#63b8ff" stroke="#63b8ff" points="474.45,-112.42 484.94,-110.94 475.81,-105.56 474.45,-112.42"/>
</g>
<!-- Node5 -->
<g id="node5" class="node">
<title>Node5</title>
<g id="a_node5"><a xlink:href="namespaceDebug__Serial.html#a75dcfc17e13215b801dd9dafa6f7c515" target="_top" xlink:title="Prints a throttle output message to the serial console. This function formats and sends the throttle ...">
<polygon fill="white" stroke="#666666" points="606,-93 462,-93 462,-74 606,-74 606,-93"/>
<text text-anchor="middle" x="534" y="-81" font-family="Helvetica,sans-Serif" font-size="10.00">Debug_Serial::throttle_out</text>
</a>
</g>
</g>
<!-- Node3&#45;&gt;Node5 -->
<g id="edge4" class="edge">
<title>Node3&#45;&gt;Node5</title>
<path fill="none" stroke="#63b8ff" d="M406.62,-83.5C420.86,-83.5 436.31,-83.5 451.36,-83.5"/>
<polygon fill="#63b8ff" stroke="#63b8ff" points="451.69,-87 461.69,-83.5 451.69,-80 451.69,-87"/>
</g>
<!-- Node7 -->
<g id="node7" class="node">
<title>Node7</title>
<g id="a_node7"><a xlink:href="namespaceDebug__Serial.html#a756fa9286151426012a6f8e178a6c550" target="_top" xlink:title="Prints a string AND a newline to the serial console.">
<polygon fill="white" stroke="#666666" points="593.5,-56 474.5,-56 474.5,-37 593.5,-37 593.5,-56"/>
<text text-anchor="middle" x="534" y="-44" font-family="Helvetica,sans-Serif" font-size="10.00">Debug_Serial::println</text>
</a>
</g>
</g>
<!-- Node6&#45;&gt;Node7 -->
<g id="edge6" class="edge">
<title>Node6&#45;&gt;Node7</title>
<path fill="none" stroke="#63b8ff" d="M399.8,-46.5C419.74,-46.5 442.73,-46.5 463.93,-46.5"/>
<polygon fill="#63b8ff" stroke="#63b8ff" points="464.18,-50 474.18,-46.5 464.18,-43 464.18,-50"/>
</g>
</g>
</svg>
        <g id="navigator" transform="translate(0 0)" fill="#404254">
                <rect fill="#f2f5e9" fill-opacity="0.5" stroke="#606060" stroke-width=".5" x="0" y="0" width="60" height="60"/>
                <use id="zoomplus" xlink:href="#zoomPlus" x="17" y="9" onmousedown="handleZoom(evt,'in')"/>
                <use id="zoomminus" xlink:href="#zoomMin" x="42" y="9" onmousedown="handleZoom(evt,'out')"/>
                <use id="reset" xlink:href="#resetDef" x="30" y="36" onmousedown="handleReset()"/>
                <g id="arrowUp" xlink:href="#dirArrow" transform="translate(30 24)" onmousedown="handlePan(0,-1)">
                  <use xlink:href="#rim" fill="#404040">
                        <set attributeName="fill" to="#808080" begin="arrowUp.mouseover" end="arrowUp.mouseout"/>
                  </use>
                  <path fill="none" stroke="white" stroke-width="1.5" d="M0,-3.0v7 M-2.5,-0.5L0,-3.0L2.5,-0.5"/>
                </g>
                <g id="arrowRight" xlink:href="#dirArrow" transform="rotate(90) translate(36 -43)" onmousedown="handlePan(1,0)">
                  <use xlink:href="#rim" fill="#404040">
                        <set attributeName="fill" to="#808080" begin="arrowRight.mouseover" end="arrowRight.mouseout"/>
                  </use>
                  <path fill="none" stroke="white" stroke-width="1.5" d="M0,-3.0v7 M-2.5,-0.5L0,-3.0L2.5,-0.5"/>
                </g>
                <g id="arrowDown" xlink:href="#dirArrow" transform="rotate(180) translate(-30 -48)" onmousedown="handlePan(0,1)">
                  <use xlink:href="#rim" fill="#404040">
                        <set attributeName="fill" to="#808080" begin="arrowDown.mouseover" end="arrowDown.mouseout"/>
                  </use>
                  <path fill="none" stroke="white" stroke-width="1.5" d="M0,-3.0v7 M-2.5,-0.5L0,-3.0L2.5,-0.5"/>
                </g>
                <g id="arrowLeft" xlink:href="#dirArrow" transform="rotate(270) translate(-36 17)" onmousedown="handlePan(-1,0)">
                  <use xlink:href="#rim" fill="#404040">
                        <set attributeName="fill" to="#808080" begin="arrowLeft.mouseover" end="arrowLeft.mouseout"/>
                  </use>
                  <path fill="none" stroke="white" stroke-width="1.5" d="M0,-3.0v7 M-2.5,-0.5L0,-3.0L2.5,-0.5"/>
                </g>
        </g>
        <svg viewBox="0 0 15 15" width="100%" height="30px" preserveAspectRatio="xMaxYMin meet">
         <g id="arrow_out" transform="scale(0.3 0.3)">
          <a xlink:href="main_8cpp_a2668d80d0711f29d4507c48eb984f684_cgraph_org.svg" target="_base">
           <rect id="button" ry="5" rx="5" y="6" x="6" height="38" width="38"
                fill="#f2f5e9" fill-opacity="0.5" stroke="#606060" stroke-width="1.0"/>
           <path id="arrow"
             d="M 11.500037,31.436501 C 11.940474,20.09759 22.043105,11.32322 32.158766,21.979434 L 37.068811,17.246167 C 37.068811,17.246167 37.088388,32 37.088388,32 L 22.160133,31.978069 C 22.160133,31.978069 26.997745,27.140456 26.997745,27.140456 C 18.528582,18.264221 13.291696,25.230495 11.500037,31.436501 z"
             style="fill:#404040;"/>
          </a>
         </g>
        </svg>
</svg>
