<?xml version="1.0" encoding="UTF-8" standalone="no"?>
<!DOCTYPE svg PUBLIC "-//W3C//DTD SVG 1.1//EN"
 "http://www.w3.org/Graphics/SVG/1.1/DTD/svg11.dtd">
<!-- Generated by graphviz version 2.43.0 (0)
 -->
<!-- Title: vehicle_control_unit/src/main.cpp Pages: 1 -->
<!--zoomable 313 -->
<svg id="main" version="1.1" xmlns="http://www.w3.org/2000/svg" xmlns:xlink="http://www.w3.org/1999/xlink" xml:space="preserve" onload="init(evt)">
<style type="text/css"><![CDATA[
.edge:hover path { stroke: red; }
.edge:hover polygon { stroke: red; fill: red; }
]]></style>
<script type="text/javascript"><![CDATA[
var edges = document.getElementsByTagName('g');
if (edges && edges.length) {
  for (var i=0;i<edges.length;i++) {
    if (edges[i].id.substr(0,4)=='edge') {
      edges[i].setAttribute('class','edge');
    }
  }
}
]]></script>
        <defs>
                <circle id="rim" cx="0" cy="0" r="7"/>
                <circle id="rim2" cx="0" cy="0" r="3.5"/>
                <g id="zoomPlus">
                        <use xlink:href="#rim" fill="#404040">
                                <set attributeName="fill" to="#808080" begin="zoomplus.mouseover" end="zoomplus.mouseout"/>
                        </use>
                        <path d="M-4,0h8M0,-4v8" fill="none" stroke="white" stroke-width="1.5" pointer-events="none"/>
                </g>
                <g id="zoomMin">
                        <use xlink:href="#rim" fill="#404040">
                                <set attributeName="fill" to="#808080" begin="zoomminus.mouseover" end="zoomminus.mouseout"/>
                        </use>
                        <path d="M-4,0h8" fill="none" stroke="white" stroke-width="1.5" pointer-events="none"/>
                </g>
                <g id="dirArrow">
                        <path fill="none" stroke="white" stroke-width="1.5" d="M0,-3.0v7 M-2.5,-0.5L0,-3.0L2.5,-0.5"/>
                </g>
               <g id="resetDef">
                       <use xlink:href="#rim2" fill="#404040">
                               <set attributeName="fill" to="#808080" begin="reset.mouseover" end="reset.mouseout"/>
                       </use>
               </g>
        </defs>

<script type="text/javascript">
var viewWidth = 1165;
var viewHeight = 313;
var sectionId = 'dynsection-0';
</script>
<script xlink:href="svgpan.js"/>
<svg id="graph" class="graph">
<g id="viewport">
<title>vehicle_control_unit/src/main.cpp</title>
<!-- Node1 -->
<g id="node1" class="node">
<title>Node1</title>
<g id="a_node1"><a xlink:title="Main VCU program entry point.">
<polygon fill="#999999" stroke="#666666" points="659.99,-305 544.99,-305 544.99,-275 659.99,-275 659.99,-305"/>
<text text-anchor="start" x="552.99" y="-293" font-family="Helvetica,sans-Serif" font-size="10.00">vehicle_control_unit</text>
<text text-anchor="middle" x="602.49" y="-282" font-family="Helvetica,sans-Serif" font-size="10.00">/src/main.cpp</text>
</a>
</g>
</g>
<!-- Node2 -->
<g id="node2" class="node">
<title>Node2</title>
<g id="a_node2"><a xlink:title=" ">
<polygon fill="#e0e0e0" stroke="#999999" points="395.99,-74 332.99,-74 332.99,-55 395.99,-55 395.99,-74"/>
<text text-anchor="middle" x="364.49" y="-62" font-family="Helvetica,sans-Serif" font-size="10.00">Arduino.h</text>
</a>
</g>
</g>
<!-- Node1&#45;&gt;Node2 -->
<g id="edge1" class="edge">
<title>Node1&#45;&gt;Node2</title>
<path fill="none" stroke="#63b8ff" d="M546.25,-274.97C518.93,-266.78 486.3,-254.89 459.49,-239 428.09,-220.39 421.11,-212.65 398.49,-184 381.24,-162.14 376.21,-155.75 368.49,-129 364.31,-114.54 363.45,-97.48 363.56,-84.68"/>
<polygon fill="#63b8ff" stroke="#63b8ff" points="367.06,-84.43 363.86,-74.33 360.07,-84.23 367.06,-84.43"/>
</g>
<!-- Node3 -->
<g id="node3" class="node">
<title>Node3</title>
<g id="a_node3"><a xlink:title=" ">
<polygon fill="#e0e0e0" stroke="#999999" points="1157.49,-239 1081.49,-239 1081.49,-220 1157.49,-220 1157.49,-239"/>
<text text-anchor="middle" x="1119.49" y="-227" font-family="Helvetica,sans-Serif" font-size="10.00">BoardConf.h</text>
</a>
</g>
</g>
<!-- Node1&#45;&gt;Node3 -->
<g id="edge2" class="edge">
<title>Node1&#45;&gt;Node3</title>
<path fill="none" stroke="#63b8ff" d="M660.24,-283.82C748.28,-275.69 921.25,-258.8 1067.49,-239 1068.76,-238.83 1070.06,-238.65 1071.36,-238.46"/>
<polygon fill="#63b8ff" stroke="#63b8ff" points="1072.09,-241.89 1081.47,-236.96 1071.06,-234.97 1072.09,-241.89"/>
</g>
<!-- Node4 -->
<g id="node4" class="node">
<title>Node4</title>
<g id="a_node4"><a xlink:href="Pedal_8hpp.html" target="_top" xlink:title="Declaration of the Pedal class for handling throttle and brake pedal inputs.">
<polygon fill="white" stroke="#666666" points="290.99,-184 225.99,-184 225.99,-165 290.99,-165 290.99,-184"/>
<text text-anchor="middle" x="258.49" y="-172" font-family="Helvetica,sans-Serif" font-size="10.00">Pedal.hpp</text>
</a>
</g>
</g>
<!-- Node1&#45;&gt;Node4 -->
<g id="edge3" class="edge">
<title>Node1&#45;&gt;Node4</title>
<path fill="none" stroke="#63b8ff" d="M544.78,-284.42C470.03,-277.63 344.66,-263.02 305.49,-239 287.82,-228.16 274.63,-207.99 266.79,-193.28"/>
<polygon fill="#63b8ff" stroke="#63b8ff" points="269.83,-191.54 262.23,-184.15 263.57,-194.66 269.83,-191.54"/>
</g>
<!-- Node6 -->
<g id="node6" class="node">
<title>Node6</title>
<g id="a_node6"><a xlink:href="CarState_8hpp.html" target="_top" xlink:title="Definition of the CarState structure representing the state of the car.">
<polygon fill="white" stroke="#666666" points="661.49,-129 581.49,-129 581.49,-110 661.49,-110 661.49,-129"/>
<text text-anchor="middle" x="621.49" y="-117" font-family="Helvetica,sans-Serif" font-size="10.00">CarState.hpp</text>
</a>
</g>
</g>
<!-- Node1&#45;&gt;Node6 -->
<g id="edge32" class="edge">
<title>Node1&#45;&gt;Node6</title>
<path fill="none" stroke="#63b8ff" d="M604.08,-274.92C607.49,-244.65 615.53,-173.35 619.37,-139.27"/>
<polygon fill="#63b8ff" stroke="#63b8ff" points="622.86,-139.58 620.5,-129.25 615.9,-138.8 622.86,-139.58"/>
</g>
<!-- Node7 -->
<g id="node7" class="node">
<title>Node7</title>
<g id="a_node7"><a xlink:href="Enums_8hpp.html" target="_top" xlink:title="Enumeration definitions for the VCU.">
<polygon fill="white" stroke="#666666" points="592.99,-74 521.99,-74 521.99,-55 592.99,-55 592.99,-74"/>
<text text-anchor="middle" x="557.49" y="-62" font-family="Helvetica,sans-Serif" font-size="10.00">Enums.hpp</text>
</a>
</g>
</g>
<!-- Node1&#45;&gt;Node7 -->
<g id="edge31" class="edge">
<title>Node1&#45;&gt;Node7</title>
<path fill="none" stroke="#63b8ff" d="M563.73,-274.84C510.24,-252.94 415.92,-205.22 376.49,-129 348.95,-75.76 449.6,-66 511.8,-64.89"/>
<polygon fill="#63b8ff" stroke="#63b8ff" points="511.84,-68.39 521.8,-64.78 511.77,-61.39 511.84,-68.39"/>
</g>
<!-- Node10 -->
<g id="node10" class="node">
<title>Node10</title>
<g id="a_node10"><a xlink:href="Curves_8hpp.html" target="_top" xlink:title="Definition of throttle and brake mapping tables.">
<polygon fill="white" stroke="#666666" points="76.99,-129 5.99,-129 5.99,-110 76.99,-110 76.99,-129"/>
<text text-anchor="middle" x="41.49" y="-117" font-family="Helvetica,sans-Serif" font-size="10.00">Curves.hpp</text>
</a>
</g>
</g>
<!-- Node1&#45;&gt;Node10 -->
<g id="edge34" class="edge">
<title>Node1&#45;&gt;Node10</title>
<path fill="none" stroke="#63b8ff" d="M544.75,-285.31C479.55,-279.93 370.88,-267.3 281.49,-239 197.03,-212.26 105.26,-159.63 63.91,-134.5"/>
<polygon fill="#63b8ff" stroke="#63b8ff" points="65.55,-131.39 55.19,-129.15 61.89,-137.36 65.55,-131.39"/>
</g>
<!-- Node13 -->
<g id="node13" class="node">
<title>Node13</title>
<g id="a_node13"><a xlink:title=" ">
<polygon fill="#e0e0e0" stroke="#999999" points="942.99,-74 871.99,-74 871.99,-55 942.99,-55 942.99,-74"/>
<text text-anchor="middle" x="907.49" y="-62" font-family="Helvetica,sans-Serif" font-size="10.00">mcp2515.h</text>
</a>
</g>
</g>
<!-- Node1&#45;&gt;Node13 -->
<g id="edge46" class="edge">
<title>Node1&#45;&gt;Node13</title>
<path fill="none" stroke="#63b8ff" d="M660.07,-282C712.28,-274.64 790.87,-261.01 856.49,-239 909.44,-221.24 931.77,-225.2 969.49,-184 992.57,-158.78 1008.05,-139.33 990.49,-110 981.52,-95.01 965.58,-84.78 950.05,-77.95"/>
<polygon fill="#63b8ff" stroke="#63b8ff" points="951.09,-74.6 940.51,-74.13 948.49,-81.1 951.09,-74.6"/>
</g>
<!-- Node14 -->
<g id="node14" class="node">
<title>Node14</title>
<g id="a_node14"><a xlink:href="BMS_8hpp.html" target="_top" xlink:title="Declaration of the BMS class for managing the Accumulator (Kclear BMS) via CAN bus.">
<polygon fill="white" stroke="#666666" points="819.99,-239 760.99,-239 760.99,-220 819.99,-220 819.99,-239"/>
<text text-anchor="middle" x="790.49" y="-227" font-family="Helvetica,sans-Serif" font-size="10.00">BMS.hpp</text>
</a>
</g>
</g>
<!-- Node1&#45;&gt;Node14 -->
<g id="edge21" class="edge">
<title>Node1&#45;&gt;Node14</title>
<path fill="none" stroke="#63b8ff" d="M647.52,-274.99C679.82,-264.94 722.83,-251.55 753.22,-242.1"/>
<polygon fill="#63b8ff" stroke="#63b8ff" points="754.49,-245.37 763,-239.05 752.41,-238.68 754.49,-245.37"/>
</g>
<!-- Node15 -->
<g id="node15" class="node">
<title>Node15</title>
<g id="a_node15"><a xlink:href="Scheduler_8hpp.html" target="_top" xlink:title="Declaration of the Scheduler class template, for scheduling tasks on multiple MCP2515 instances.">
<polygon fill="white" stroke="#666666" points="936.99,-184 851.99,-184 851.99,-165 936.99,-165 936.99,-184"/>
<text text-anchor="middle" x="894.49" y="-172" font-family="Helvetica,sans-Serif" font-size="10.00">Scheduler.hpp</text>
</a>
</g>
</g>
<!-- Node1&#45;&gt;Node15 -->
<g id="edge33" class="edge">
<title>Node1&#45;&gt;Node15</title>
<path fill="none" stroke="#63b8ff" d="M660.1,-285.13C707.91,-279.91 776.41,-267.67 829.49,-239 850.87,-227.45 870.05,-206.81 881.94,-192.2"/>
<polygon fill="#63b8ff" stroke="#63b8ff" points="884.94,-194.05 888.36,-184.02 879.43,-189.73 884.94,-194.05"/>
</g>
<!-- Node17 -->
<g id="node17" class="node">
<title>Node17</title>
<g id="a_node17"><a xlink:href="Telemetry_8hpp.html" target="_top" xlink:title="Declaration of the Telemetry class for sending telemetry data over CAN bus.">
<polygon fill="white" stroke="#666666" points="753.99,-184 668.99,-184 668.99,-165 753.99,-165 753.99,-184"/>
<text text-anchor="middle" x="711.49" y="-172" font-family="Helvetica,sans-Serif" font-size="10.00">Telemetry.hpp</text>
</a>
</g>
</g>
<!-- Node1&#45;&gt;Node17 -->
<g id="edge35" class="edge">
<title>Node1&#45;&gt;Node17</title>
<path fill="none" stroke="#63b8ff" d="M616.29,-274.63C636.7,-253.37 674.8,-213.71 696.09,-191.54"/>
<polygon fill="#63b8ff" stroke="#63b8ff" points="698.7,-193.87 703.11,-184.23 693.66,-189.02 698.7,-193.87"/>
</g>
<!-- Node18 -->
<g id="node18" class="node">
<title>Node18</title>
<g id="a_node18"><a xlink:href="Debug_8hpp.html" target="_top" xlink:title="Debugging macros and functions for serial and CAN output.">
<polygon fill="white" stroke="#666666" points="561.99,-184 492.99,-184 492.99,-165 561.99,-165 561.99,-184"/>
<text text-anchor="middle" x="527.49" y="-172" font-family="Helvetica,sans-Serif" font-size="10.00">Debug.hpp</text>
</a>
</g>
</g>
<!-- Node1&#45;&gt;Node18 -->
<g id="edge38" class="edge">
<title>Node1&#45;&gt;Node18</title>
<path fill="none" stroke="#63b8ff" d="M592.99,-274.63C579.19,-253.75 553.65,-215.09 538.87,-192.72"/>
<polygon fill="#63b8ff" stroke="#63b8ff" points="541.69,-190.64 533.26,-184.23 535.85,-194.5 541.69,-190.64"/>
</g>
<!-- Node5 -->
<g id="node5" class="node">
<title>Node5</title>
<g id="a_node5"><a xlink:title=" ">
<polygon fill="#e0e0e0" stroke="#999999" points="220.99,-19 167.99,-19 167.99,0 220.99,0 220.99,-19"/>
<text text-anchor="middle" x="194.49" y="-7" font-family="Helvetica,sans-Serif" font-size="10.00">stdint.h</text>
</a>
</g>
</g>
<!-- Node4&#45;&gt;Node5 -->
<g id="edge4" class="edge">
<title>Node4&#45;&gt;Node5</title>
<path fill="none" stroke="#63b8ff" d="M261.59,-164.79C268.34,-144.21 282.27,-91.58 262.49,-55 254.91,-40.98 240.78,-30.67 227.36,-23.53"/>
<polygon fill="#63b8ff" stroke="#63b8ff" points="228.79,-20.33 218.27,-19.08 225.72,-26.62 228.79,-20.33"/>
</g>
<!-- Node4&#45;&gt;Node6 -->
<g id="edge5" class="edge">
<title>Node4&#45;&gt;Node6</title>
<path fill="none" stroke="#63b8ff" d="M291.44,-168.9C347.95,-160.98 467,-144.14 567.49,-129 568.76,-128.81 570.04,-128.61 571.33,-128.42"/>
<polygon fill="#63b8ff" stroke="#63b8ff" points="572.04,-131.85 581.39,-126.87 570.98,-124.93 572.04,-131.85"/>
</g>
<!-- Node9 -->
<g id="node9" class="node">
<title>Node9</title>
<g id="a_node9"><a xlink:href="Interp_8hpp.html" target="_top" xlink:title="Declaration and definition of the LinearInterp class template for linear interpolation.">
<polygon fill="white" stroke="#666666" points="79.49,-74 13.49,-74 13.49,-55 79.49,-55 79.49,-74"/>
<text text-anchor="middle" x="46.49" y="-62" font-family="Helvetica,sans-Serif" font-size="10.00">Interp.hpp</text>
</a>
</g>
</g>
<!-- Node4&#45;&gt;Node9 -->
<g id="edge11" class="edge">
<title>Node4&#45;&gt;Node9</title>
<path fill="none" stroke="#63b8ff" d="M225.73,-166.17C197.73,-159.09 156.94,-146.81 124.49,-129 100.72,-115.96 77.1,-95.38 62.18,-81.2"/>
<polygon fill="#63b8ff" stroke="#63b8ff" points="64.46,-78.53 54.84,-74.07 59.58,-83.55 64.46,-78.53"/>
</g>
<!-- Node4&#45;&gt;Node10 -->
<g id="edge13" class="edge">
<title>Node4&#45;&gt;Node10</title>
<path fill="none" stroke="#63b8ff" d="M225.53,-165.45C188.4,-156.38 127.83,-141.59 86.4,-131.47"/>
<polygon fill="#63b8ff" stroke="#63b8ff" points="87.1,-128.04 76.56,-129.07 85.44,-134.84 87.1,-128.04"/>
</g>
<!-- Node11 -->
<g id="node11" class="node">
<title>Node11</title>
<g id="a_node11"><a xlink:href="SignalProcessing_8hpp.html" target="_top" xlink:title="Declaration of signal processing functions.">
<polygon fill="white" stroke="#666666" points="253.49,-129 133.49,-129 133.49,-110 253.49,-110 253.49,-129"/>
<text text-anchor="middle" x="193.49" y="-117" font-family="Helvetica,sans-Serif" font-size="10.00">SignalProcessing.hpp</text>
</a>
</g>
</g>
<!-- Node4&#45;&gt;Node11 -->
<g id="edge16" class="edge">
<title>Node4&#45;&gt;Node11</title>
<path fill="none" stroke="#63b8ff" d="M248.05,-164.98C238.34,-157.07 223.67,-145.11 211.99,-135.58"/>
<polygon fill="#63b8ff" stroke="#63b8ff" points="214.08,-132.78 204.12,-129.17 209.66,-138.2 214.08,-132.78"/>
</g>
<!-- Node4&#45;&gt;Node13 -->
<g id="edge20" class="edge">
<title>Node4&#45;&gt;Node13</title>
<path fill="none" stroke="#63b8ff" d="M291.34,-168C337.37,-160.15 423.59,-144.91 496.49,-129 530.51,-121.57 538.29,-116.52 572.49,-110 674.85,-90.47 796.43,-76.62 861.29,-69.97"/>
<polygon fill="#63b8ff" stroke="#63b8ff" points="861.98,-73.42 871.58,-68.93 861.28,-66.45 861.98,-73.42"/>
</g>
<!-- Node6&#45;&gt;Node5 -->
<g id="edge10" class="edge">
<title>Node6&#45;&gt;Node5</title>
<path fill="none" stroke="#63b8ff" d="M594.74,-109.9C554.1,-97.01 474.28,-72.34 405.49,-55 344.79,-39.7 273.36,-25.4 231.12,-17.32"/>
<polygon fill="#63b8ff" stroke="#63b8ff" points="231.77,-13.88 221.29,-15.46 230.46,-20.76 231.77,-13.88"/>
</g>
<!-- Node6&#45;&gt;Node7 -->
<g id="edge6" class="edge">
<title>Node6&#45;&gt;Node7</title>
<path fill="none" stroke="#63b8ff" d="M611.21,-109.98C601.65,-102.07 587.21,-90.11 575.71,-80.58"/>
<polygon fill="#63b8ff" stroke="#63b8ff" points="577.89,-77.85 567.96,-74.17 573.43,-83.24 577.89,-77.85"/>
</g>
<!-- Node8 -->
<g id="node8" class="node">
<title>Node8</title>
<g id="a_node8"><a xlink:title=" ">
<polygon fill="#e0e0e0" stroke="#999999" points="610.99,-19 567.99,-19 567.99,0 610.99,0 610.99,-19"/>
<text text-anchor="middle" x="589.49" y="-7" font-family="Helvetica,sans-Serif" font-size="10.00">can.h</text>
</a>
</g>
</g>
<!-- Node6&#45;&gt;Node8 -->
<g id="edge9" class="edge">
<title>Node6&#45;&gt;Node8</title>
<path fill="none" stroke="#63b8ff" d="M618.87,-109.66C613.66,-92.09 601.92,-52.45 594.96,-28.95"/>
<polygon fill="#63b8ff" stroke="#63b8ff" points="598.25,-27.75 592.05,-19.16 591.54,-29.74 598.25,-27.75"/>
</g>
<!-- Node7&#45;&gt;Node5 -->
<g id="edge7" class="edge">
<title>Node7&#45;&gt;Node5</title>
<path fill="none" stroke="#63b8ff" d="M521.69,-58.27C452.62,-48.19 301.6,-26.14 231.54,-15.91"/>
<polygon fill="#63b8ff" stroke="#63b8ff" points="231.82,-12.41 221.42,-14.43 230.81,-19.34 231.82,-12.41"/>
</g>
<!-- Node7&#45;&gt;Node8 -->
<g id="edge8" class="edge">
<title>Node7&#45;&gt;Node8</title>
<path fill="none" stroke="#63b8ff" d="M562.77,-54.75C567.2,-47.42 573.65,-36.73 579.11,-27.7"/>
<polygon fill="#63b8ff" stroke="#63b8ff" points="582.13,-29.46 584.3,-19.09 576.14,-25.84 582.13,-29.46"/>
</g>
<!-- Node9&#45;&gt;Node5 -->
<g id="edge12" class="edge">
<title>Node9&#45;&gt;Node5</title>
<path fill="none" stroke="#63b8ff" d="M70.27,-54.98C94.72,-46.23 133.02,-32.51 160.63,-22.62"/>
<polygon fill="#63b8ff" stroke="#63b8ff" points="162.04,-25.84 170.28,-19.17 159.68,-19.25 162.04,-25.84"/>
</g>
<!-- Node10&#45;&gt;Node5 -->
<g id="edge15" class="edge">
<title>Node10&#45;&gt;Node5</title>
<path fill="none" stroke="#63b8ff" d="M29.87,-109.79C14.31,-97.08 -9.78,-73 4.49,-55 23.26,-31.33 108.06,-19.04 157.8,-13.77"/>
<polygon fill="#63b8ff" stroke="#63b8ff" points="158.26,-17.24 167.85,-12.75 157.55,-10.28 158.26,-17.24"/>
</g>
<!-- Node10&#45;&gt;Node9 -->
<g id="edge14" class="edge">
<title>Node10&#45;&gt;Node9</title>
<path fill="none" stroke="#63b8ff" d="M42.32,-109.75C42.97,-102.8 43.91,-92.85 44.73,-84.13"/>
<polygon fill="#63b8ff" stroke="#63b8ff" points="48.22,-84.37 45.68,-74.09 41.26,-83.72 48.22,-84.37"/>
</g>
<!-- Node11&#45;&gt;Node5 -->
<g id="edge17" class="edge">
<title>Node11&#45;&gt;Node5</title>
<path fill="none" stroke="#63b8ff" d="M171.5,-109.93C147.33,-99.1 113.53,-78.97 126.49,-55 134.07,-40.98 148.19,-30.67 161.62,-23.53"/>
<polygon fill="#63b8ff" stroke="#63b8ff" points="163.26,-26.62 170.71,-19.08 160.19,-20.33 163.26,-26.62"/>
</g>
<!-- Node12 -->
<g id="node12" class="node">
<title>Node12</title>
<g id="a_node12"><a xlink:href="SignalProcessing_8tpp.html" target="_top" xlink:title="Definition of Signal Processing functions.">
<polygon fill="white" stroke="#666666" points="253.49,-74 135.49,-74 135.49,-55 253.49,-55 253.49,-74"/>
<text text-anchor="middle" x="194.49" y="-62" font-family="Helvetica,sans-Serif" font-size="10.00">SignalProcessing.tpp</text>
</a>
</g>
</g>
<!-- Node11&#45;&gt;Node12 -->
<g id="edge18" class="edge">
<title>Node11&#45;&gt;Node12</title>
<path fill="none" stroke="#63b8ff" d="M188.49,-109.75C187.13,-102.8 186.88,-92.85 187.66,-84.13"/>
<polygon fill="#63b8ff" stroke="#63b8ff" points="191.14,-84.5 189.2,-74.09 184.22,-83.44 191.14,-84.5"/>
</g>
<!-- Node12&#45;&gt;Node11 -->
<g id="edge19" class="edge">
<title>Node12&#45;&gt;Node11</title>
<path fill="none" stroke="#63b8ff" d="M199.46,-74.09C200.84,-80.99 201.1,-90.93 200.34,-99.66"/>
<polygon fill="#63b8ff" stroke="#63b8ff" points="196.85,-99.34 198.82,-109.75 203.77,-100.38 196.85,-99.34"/>
</g>
<!-- Node14&#45;&gt;Node6 -->
<g id="edge29" class="edge">
<title>Node14&#45;&gt;Node6</title>
<path fill="none" stroke="#63b8ff" d="M760.86,-224.28C732.54,-218.98 689.92,-207.55 660.49,-184 645.53,-172.03 634.83,-152.67 628.47,-138.46"/>
<polygon fill="#63b8ff" stroke="#63b8ff" points="631.69,-137.09 624.6,-129.21 625.23,-139.79 631.69,-137.09"/>
</g>
<!-- Node14&#45;&gt;Node13 -->
<g id="edge30" class="edge">
<title>Node14&#45;&gt;Node13</title>
<path fill="none" stroke="#63b8ff" d="M820.25,-227.1C854.35,-224.02 910.18,-214.34 946.49,-184 973.35,-161.55 989.93,-140.91 973.49,-110 966.18,-96.25 952.52,-85.99 939.52,-78.8"/>
<polygon fill="#63b8ff" stroke="#63b8ff" points="940.77,-75.51 930.27,-74.11 937.6,-81.75 940.77,-75.51"/>
</g>
<!-- Node14&#45;&gt;Node15 -->
<g id="edge22" class="edge">
<title>Node14&#45;&gt;Node15</title>
<path fill="none" stroke="#63b8ff" d="M807.2,-219.98C823.7,-211.57 849.19,-198.59 868.37,-188.81"/>
<polygon fill="#63b8ff" stroke="#63b8ff" points="870.16,-191.83 877.48,-184.17 866.98,-185.59 870.16,-191.83"/>
</g>
<!-- Node15&#45;&gt;Node7 -->
<g id="edge23" class="edge">
<title>Node15&#45;&gt;Node7</title>
<path fill="none" stroke="#63b8ff" d="M851.94,-166.2C813.71,-158.96 756.38,-146.44 708.49,-129 690.75,-122.54 687.74,-117.69 670.49,-110 643.99,-98.18 613.32,-86.21 590.62,-77.66"/>
<polygon fill="#63b8ff" stroke="#63b8ff" points="591.71,-74.33 581.11,-74.11 589.25,-80.89 591.71,-74.33"/>
</g>
<!-- Node15&#45;&gt;Node13 -->
<g id="edge24" class="edge">
<title>Node15&#45;&gt;Node13</title>
<path fill="none" stroke="#63b8ff" d="M916.28,-164.87C931.13,-157.69 949.65,-145.91 958.49,-129 968.19,-110.43 949.58,-92.09 932.18,-79.92"/>
<polygon fill="#63b8ff" stroke="#63b8ff" points="933.63,-76.69 923.34,-74.16 929.81,-82.56 933.63,-76.69"/>
</g>
<!-- Node16 -->
<g id="node16" class="node">
<title>Node16</title>
<g id="a_node16"><a xlink:href="Scheduler_8tpp.html" target="_top" xlink:title="Implementation of the Scheduler class template.">
<polygon fill="white" stroke="#666666" points="948.99,-129 865.99,-129 865.99,-110 948.99,-110 948.99,-129"/>
<text text-anchor="middle" x="907.49" y="-117" font-family="Helvetica,sans-Serif" font-size="10.00">Scheduler.tpp</text>
</a>
</g>
</g>
<!-- Node15&#45;&gt;Node16 -->
<g id="edge25" class="edge">
<title>Node15&#45;&gt;Node16</title>
<path fill="none" stroke="#63b8ff" d="M891.47,-164.75C891.69,-157.65 893.78,-147.4 896.62,-138.56"/>
<polygon fill="#63b8ff" stroke="#63b8ff" points="899.94,-139.68 900.25,-129.09 893.41,-137.18 899.94,-139.68"/>
</g>
<!-- Node16&#45;&gt;Node7 -->
<g id="edge26" class="edge">
<title>Node16&#45;&gt;Node7</title>
<path fill="none" stroke="#63b8ff" d="M865.97,-112.21C800,-102.22 671.74,-82.8 603.22,-72.43"/>
<polygon fill="#63b8ff" stroke="#63b8ff" points="603.57,-68.94 593.16,-70.9 602.52,-75.86 603.57,-68.94"/>
</g>
<!-- Node16&#45;&gt;Node13 -->
<g id="edge27" class="edge">
<title>Node16&#45;&gt;Node13</title>
<path fill="none" stroke="#63b8ff" d="M907.49,-109.75C907.49,-102.8 907.49,-92.85 907.49,-84.13"/>
<polygon fill="#63b8ff" stroke="#63b8ff" points="910.99,-84.09 907.49,-74.09 903.99,-84.09 910.99,-84.09"/>
</g>
<!-- Node16&#45;&gt;Node15 -->
<g id="edge28" class="edge">
<title>Node16&#45;&gt;Node15</title>
<path fill="none" stroke="#63b8ff" d="M910.51,-129.09C910.33,-136.14 908.26,-146.37 905.42,-155.24"/>
<polygon fill="#63b8ff" stroke="#63b8ff" points="902.09,-154.16 901.8,-164.75 908.63,-156.65 902.09,-154.16"/>
</g>
<!-- Node17&#45;&gt;Node6 -->
<g id="edge36" class="edge">
<title>Node17&#45;&gt;Node6</title>
<path fill="none" stroke="#63b8ff" d="M697.03,-164.98C683.07,-156.77 661.7,-144.18 645.24,-134.49"/>
<polygon fill="#63b8ff" stroke="#63b8ff" points="646.61,-131.23 636.21,-129.17 643.05,-137.26 646.61,-131.23"/>
</g>
<!-- Node17&#45;&gt;Node13 -->
<g id="edge37" class="edge">
<title>Node17&#45;&gt;Node13</title>
<path fill="none" stroke="#63b8ff" d="M736.45,-164.94C758.62,-156.92 791.58,-143.94 818.49,-129 844.21,-114.72 871.41,-94.45 888.87,-80.69"/>
<polygon fill="#63b8ff" stroke="#63b8ff" points="891.42,-83.12 897.05,-74.15 887.05,-77.66 891.42,-83.12"/>
</g>
<!-- Node18&#45;&gt;Node7 -->
<g id="edge39" class="edge">
<title>Node18&#45;&gt;Node7</title>
<path fill="none" stroke="#63b8ff" d="M529.94,-164.66C534.83,-147.09 545.84,-107.45 552.36,-83.95"/>
<polygon fill="#63b8ff" stroke="#63b8ff" points="555.78,-84.73 555.08,-74.16 549.04,-82.86 555.78,-84.73"/>
</g>
<!-- Node19 -->
<g id="node19" class="node">
<title>Node19</title>
<g id="a_node19"><a xlink:href="Debug__serial_8hpp.html" target="_top" xlink:title="Declaration of the Debug_Serial namespace for serial debugging functions.">
<polygon fill="white" stroke="#666666" points="486.99,-129 385.99,-129 385.99,-110 486.99,-110 486.99,-129"/>
<text text-anchor="middle" x="436.49" y="-117" font-family="Helvetica,sans-Serif" font-size="10.00">Debug_serial.hpp</text>
</a>
</g>
</g>
<!-- Node18&#45;&gt;Node19 -->
<g id="edge40" class="edge">
<title>Node18&#45;&gt;Node19</title>
<path fill="none" stroke="#63b8ff" d="M512.87,-164.98C498.63,-156.69 476.74,-143.94 460.04,-134.22"/>
<polygon fill="#63b8ff" stroke="#63b8ff" points="461.78,-131.18 451.38,-129.17 458.26,-137.23 461.78,-131.18"/>
</g>
<!-- Node20 -->
<g id="node20" class="node">
<title>Node20</title>
<g id="a_node20"><a xlink:href="Debug__can_8hpp.html" target="_top" xlink:title="Declaration of the Debug_CAN namespace for CAN debugging functions.">
<polygon fill="white" stroke="#666666" points="809.49,-129 717.49,-129 717.49,-110 809.49,-110 809.49,-129"/>
<text text-anchor="middle" x="763.49" y="-117" font-family="Helvetica,sans-Serif" font-size="10.00">Debug_can.hpp</text>
</a>
</g>
</g>
<!-- Node18&#45;&gt;Node20 -->
<g id="edge43" class="edge">
<title>Node18&#45;&gt;Node20</title>
<path fill="none" stroke="#63b8ff" d="M562.06,-165.74C602.53,-156.65 669.8,-141.54 715.36,-131.31"/>
<polygon fill="#63b8ff" stroke="#63b8ff" points="716.31,-134.68 725.3,-129.08 714.78,-127.85 716.31,-134.68"/>
</g>
<!-- Node19&#45;&gt;Node2 -->
<g id="edge41" class="edge">
<title>Node19&#45;&gt;Node2</title>
<path fill="none" stroke="#63b8ff" d="M424.92,-109.98C414.07,-102 397.61,-89.88 384.61,-80.31"/>
<polygon fill="#63b8ff" stroke="#63b8ff" points="386.4,-77.28 376.27,-74.17 382.25,-82.92 386.4,-77.28"/>
</g>
<!-- Node19&#45;&gt;Node7 -->
<g id="edge42" class="edge">
<title>Node19&#45;&gt;Node7</title>
<path fill="none" stroke="#63b8ff" d="M455.93,-109.98C475.48,-101.42 505.87,-88.11 528.31,-78.28"/>
<polygon fill="#63b8ff" stroke="#63b8ff" points="529.94,-81.39 537.69,-74.17 527.13,-74.98 529.94,-81.39"/>
</g>
<!-- Node20&#45;&gt;Node7 -->
<g id="edge45" class="edge">
<title>Node20&#45;&gt;Node7</title>
<path fill="none" stroke="#63b8ff" d="M730.39,-109.98C695.21,-100.93 639.42,-86.58 600.77,-76.64"/>
<polygon fill="#63b8ff" stroke="#63b8ff" points="601.4,-73.18 590.85,-74.08 599.66,-79.96 601.4,-73.18"/>
</g>
<!-- Node20&#45;&gt;Node13 -->
<g id="edge44" class="edge">
<title>Node20&#45;&gt;Node13</title>
<path fill="none" stroke="#63b8ff" d="M786.63,-109.98C810.31,-101.27 847.36,-87.63 874.2,-77.75"/>
<polygon fill="#63b8ff" stroke="#63b8ff" points="875.76,-80.91 883.93,-74.17 873.34,-74.34 875.76,-80.91"/>
</g>
</g>
</svg>
        <g id="navigator" transform="translate(0 0)" fill="#404254">
                <rect fill="#f2f5e9" fill-opacity="0.5" stroke="#606060" stroke-width=".5" x="0" y="0" width="60" height="60"/>
                <use id="zoomplus" xlink:href="#zoomPlus" x="17" y="9" onmousedown="handleZoom(evt,'in')"/>
                <use id="zoomminus" xlink:href="#zoomMin" x="42" y="9" onmousedown="handleZoom(evt,'out')"/>
                <use id="reset" xlink:href="#resetDef" x="30" y="36" onmousedown="handleReset()"/>
                <g id="arrowUp" xlink:href="#dirArrow" transform="translate(30 24)" onmousedown="handlePan(0,-1)">
                  <use xlink:href="#rim" fill="#404040">
                        <set attributeName="fill" to="#808080" begin="arrowUp.mouseover" end="arrowUp.mouseout"/>
                  </use>
                  <path fill="none" stroke="white" stroke-width="1.5" d="M0,-3.0v7 M-2.5,-0.5L0,-3.0L2.5,-0.5"/>
                </g>
                <g id="arrowRight" xlink:href="#dirArrow" transform="rotate(90) translate(36 -43)" onmousedown="handlePan(1,0)">
                  <use xlink:href="#rim" fill="#404040">
                        <set attributeName="fill" to="#808080" begin="arrowRight.mouseover" end="arrowRight.mouseout"/>
                  </use>
                  <path fill="none" stroke="white" stroke-width="1.5" d="M0,-3.0v7 M-2.5,-0.5L0,-3.0L2.5,-0.5"/>
                </g>
                <g id="arrowDown" xlink:href="#dirArrow" transform="rotate(180) translate(-30 -48)" onmousedown="handlePan(0,1)">
                  <use xlink:href="#rim" fill="#404040">
                        <set attributeName="fill" to="#808080" begin="arrowDown.mouseover" end="arrowDown.mouseout"/>
                  </use>
                  <path fill="none" stroke="white" stroke-width="1.5" d="M0,-3.0v7 M-2.5,-0.5L0,-3.0L2.5,-0.5"/>
                </g>
                <g id="arrowLeft" xlink:href="#dirArrow" transform="rotate(270) translate(-36 17)" onmousedown="handlePan(-1,0)">
                  <use xlink:href="#rim" fill="#404040">
                        <set attributeName="fill" to="#808080" begin="arrowLeft.mouseover" end="arrowLeft.mouseout"/>
                  </use>
                  <path fill="none" stroke="white" stroke-width="1.5" d="M0,-3.0v7 M-2.5,-0.5L0,-3.0L2.5,-0.5"/>
                </g>
        </g>
        <svg viewBox="0 0 15 15" width="100%" height="30px" preserveAspectRatio="xMaxYMin meet">
         <g id="arrow_out" transform="scale(0.3 0.3)">
          <a xlink:href="main_8cpp__incl_org.svg" target="_base">
           <rect id="button" ry="5" rx="5" y="6" x="6" height="38" width="38"
                fill="#f2f5e9" fill-opacity="0.5" stroke="#606060" stroke-width="1.0"/>
           <path id="arrow"
             d="M 11.500037,31.436501 C 11.940474,20.09759 22.043105,11.32322 32.158766,21.979434 L 37.068811,17.246167 C 37.068811,17.246167 37.088388,32 37.088388,32 L 22.160133,31.978069 C 22.160133,31.978069 26.997745,27.140456 26.997745,27.140456 C 18.528582,18.264221 13.291696,25.230495 11.500037,31.436501 z"
             style="fill:#404040;"/>
          </a>
         </g>
        </svg>
</svg>
