<?xml version="1.0" encoding="UTF-8" standalone="no"?>
<!DOCTYPE svg PUBLIC "-//W3C//DTD SVG 1.1//EN"
 "http://www.w3.org/Graphics/SVG/1.1/DTD/svg11.dtd">
<!-- Generated by graphviz version 2.43.0 (0)
 -->
<!-- Title: setup Pages: 1 -->
<!--zoomable 353 -->
<svg id="main" version="1.1" xmlns="http://www.w3.org/2000/svg" xmlns:xlink="http://www.w3.org/1999/xlink" xml:space="preserve" onload="init(evt)">
<style type="text/css"><![CDATA[
.edge:hover path { stroke: red; }
.edge:hover polygon { stroke: red; fill: red; }
]]></style>
<script type="text/javascript"><![CDATA[
var edges = document.getElementsByTagName('g');
if (edges && edges.length) {
  for (var i=0;i<edges.length;i++) {
    if (edges[i].id.substr(0,4)=='edge') {
      edges[i].setAttribute('class','edge');
    }
  }
}
]]></script>
        <defs>
                <circle id="rim" cx="0" cy="0" r="7"/>
                <circle id="rim2" cx="0" cy="0" r="3.5"/>
                <g id="zoomPlus">
                        <use xlink:href="#rim" fill="#404040">
                                <set attributeName="fill" to="#808080" begin="zoomplus.mouseover" end="zoomplus.mouseout"/>
                        </use>
                        <path d="M-4,0h8M0,-4v8" fill="none" stroke="white" stroke-width="1.5" pointer-events="none"/>
                </g>
                <g id="zoomMin">
                        <use xlink:href="#rim" fill="#404040">
                                <set attributeName="fill" to="#808080" begin="zoomminus.mouseover" end="zoomminus.mouseout"/>
                        </use>
                        <path d="M-4,0h8" fill="none" stroke="white" stroke-width="1.5" pointer-events="none"/>
                </g>
                <g id="dirArrow">
                        <path fill="none" stroke="white" stroke-width="1.5" d="M0,-3.0v7 M-2.5,-0.5L0,-3.0L2.5,-0.5"/>
                </g>
               <g id="resetDef">
                       <use xlink:href="#rim2" fill="#404040">
                               <set attributeName="fill" to="#808080" begin="reset.mouseover" end="reset.mouseout"/>
                       </use>
               </g>
        </defs>

<script type="text/javascript">
var viewWidth = 729;
var viewHeight = 353;
var sectionId = 'dynsection-14';
</script>
<script xlink:href="svgpan.js"/>
<svg id="graph" class="graph">
<g id="viewport">
<title>setup</title>
<!-- Node1 -->
<g id="node1" class="node">
<title>Node1</title>
<g id="a_node1"><a xlink:title="Setup function for initializing the VCU system. Initializes MCP2515s, IO pins, as well as own modules...">
<polygon fill="#999999" stroke="#666666" points="44,-181.5 0,-181.5 0,-162.5 44,-162.5 44,-181.5"/>
<text text-anchor="middle" x="22" y="-169.5" font-family="Helvetica,sans-Serif" font-size="10.00">setup</text>
</a>
</g>
</g>
<!-- Node2 -->
<g id="node2" class="node">
<title>Node2</title>
<g id="a_node2"><a xlink:href="Debug_8hpp.html#a8e8d6e3de15309922f25c12f4d7cf727" target="_top" xlink:title="Prints a line to the serial console for general debug.">
<polygon fill="white" stroke="#666666" points="369,-326.5 267,-326.5 267,-307.5 369,-307.5 369,-326.5"/>
<text text-anchor="middle" x="318" y="-314.5" font-family="Helvetica,sans-Serif" font-size="10.00">DBGLN_GENERAL</text>
</a>
</g>
</g>
<!-- Node1&#45;&gt;Node2 -->
<g id="edge1" class="edge">
<title>Node1&#45;&gt;Node2</title>
<path fill="none" stroke="#63b8ff" d="M24.82,-181.76C29.52,-204.02 44.29,-258.55 80,-284 131.38,-320.62 205.21,-325.4 256.77,-323.24"/>
<polygon fill="#63b8ff" stroke="#63b8ff" points="256.97,-326.73 266.77,-322.72 256.6,-319.74 256.97,-326.73"/>
</g>
<!-- Node4 -->
<g id="node4" class="node">
<title>Node4</title>
<g id="a_node4"><a xlink:href="namespaceDebug__Serial.html#ad136936636c7b7140cb1e14c55eb5f31" target="_top" xlink:title="Initializes the Debug_Serial interface. It should be called before using any other Debug_Serial funct...">
<polygon fill="white" stroke="#666666" points="215,-274.5 86,-274.5 86,-255.5 215,-255.5 215,-274.5"/>
<text text-anchor="middle" x="150.5" y="-262.5" font-family="Helvetica,sans-Serif" font-size="10.00">Debug_Serial::initialize</text>
</a>
</g>
</g>
<!-- Node1&#45;&gt;Node4 -->
<g id="edge3" class="edge">
<title>Node1&#45;&gt;Node4</title>
<path fill="none" stroke="#63b8ff" d="M27.64,-181.72C35.86,-197.85 54.54,-230.06 80,-247 82.43,-248.62 85,-250.09 87.66,-251.43"/>
<polygon fill="#63b8ff" stroke="#63b8ff" points="86.43,-254.71 97,-255.5 89.23,-248.3 86.43,-254.71"/>
</g>
<!-- Node5 -->
<g id="node5" class="node">
<title>Node5</title>
<g id="a_node5"><a xlink:href="namespaceDebug__CAN.html#a5c8b33000e36a19ccb285e45f666e64e" target="_top" xlink:title="Initializes the Debug_CAN interface. It should be called before using any other Debug_CAN functions.">
<polygon fill="white" stroke="#666666" points="211.5,-237.5 89.5,-237.5 89.5,-218.5 211.5,-218.5 211.5,-237.5"/>
<text text-anchor="middle" x="150.5" y="-225.5" font-family="Helvetica,sans-Serif" font-size="10.00">Debug_CAN::initialize</text>
</a>
</g>
</g>
<!-- Node1&#45;&gt;Node5 -->
<g id="edge4" class="edge">
<title>Node1&#45;&gt;Node5</title>
<path fill="none" stroke="#63b8ff" d="M34.97,-181.73C46.05,-190.29 63.28,-202.52 80,-210 84.39,-211.96 89.04,-213.75 93.76,-215.35"/>
<polygon fill="#63b8ff" stroke="#63b8ff" points="92.93,-218.76 103.52,-218.42 95.02,-212.08 92.93,-218.76"/>
</g>
<!-- Node6 -->
<g id="node6" class="node">
<title>Node6</title>
<g id="a_node6"><a xlink:href="main_8cpp.html#a95581c94a7dc4a68f61fa24f06cc90d1" target="_top" xlink:title=" ">
<polygon fill="white" stroke="#666666" points="190.5,-200.5 110.5,-200.5 110.5,-181.5 190.5,-181.5 190.5,-200.5"/>
<text text-anchor="middle" x="150.5" y="-188.5" font-family="Helvetica,sans-Serif" font-size="10.00">mcp2515_DL</text>
</a>
</g>
</g>
<!-- Node1&#45;&gt;Node6 -->
<g id="edge5" class="edge">
<title>Node1&#45;&gt;Node6</title>
<path fill="none" stroke="#63b8ff" d="M44.17,-175.18C59.51,-177.48 80.88,-180.69 100.36,-183.62"/>
<polygon fill="#63b8ff" stroke="#63b8ff" points="99.93,-187.09 110.34,-185.12 100.97,-180.17 99.93,-187.09"/>
</g>
<!-- Node7 -->
<g id="node7" class="node">
<title>Node7</title>
<g id="a_node7"><a xlink:href="main_8cpp.html#a1174b6795782479542559289cd623faf" target="_top" xlink:title=" ">
<polygon fill="white" stroke="#666666" points="198.5,-163.5 102.5,-163.5 102.5,-144.5 198.5,-144.5 198.5,-163.5"/>
<text text-anchor="middle" x="150.5" y="-151.5" font-family="Helvetica,sans-Serif" font-size="10.00">scheduler_pedal</text>
</a>
</g>
</g>
<!-- Node1&#45;&gt;Node7 -->
<g id="edge6" class="edge">
<title>Node1&#45;&gt;Node7</title>
<path fill="none" stroke="#63b8ff" d="M44.17,-168.99C57.4,-167.1 75.13,-164.58 92.26,-162.15"/>
<polygon fill="#63b8ff" stroke="#63b8ff" points="92.83,-165.6 102.24,-160.73 91.84,-158.67 92.83,-165.6"/>
</g>
<!-- Node18 -->
<g id="node18" class="node">
<title>Node18</title>
<g id="a_node18"><a xlink:href="main_8cpp.html#a6ce4f6f8e1e47dc50c24b0240f7390c4" target="_top" xlink:title=" ">
<polygon fill="white" stroke="#666666" points="217.5,-124.5 83.5,-124.5 83.5,-105.5 217.5,-105.5 217.5,-124.5"/>
<text text-anchor="middle" x="150.5" y="-112.5" font-family="Helvetica,sans-Serif" font-size="10.00">schedulerTelemetryBms</text>
</a>
</g>
</g>
<!-- Node1&#45;&gt;Node18 -->
<g id="edge19" class="edge">
<title>Node1&#45;&gt;Node18</title>
<path fill="none" stroke="#63b8ff" d="M36.01,-162.35C47.21,-154.4 64.03,-143.29 80,-136 86.78,-132.9 94.13,-130.12 101.44,-127.66"/>
<polygon fill="#63b8ff" stroke="#63b8ff" points="102.84,-130.89 111.31,-124.53 100.71,-124.22 102.84,-130.89"/>
</g>
<!-- Node21 -->
<g id="node21" class="node">
<title>Node21</title>
<g id="a_node21"><a xlink:href="main_8cpp.html#af749f68ca5ebf490db3de9a27bf7bfc6" target="_top" xlink:title=" ">
<polygon fill="white" stroke="#666666" points="221,-87.5 80,-87.5 80,-68.5 221,-68.5 221,-87.5"/>
<text text-anchor="middle" x="150.5" y="-75.5" font-family="Helvetica,sans-Serif" font-size="10.00">schedulerTelemetryMotor</text>
</a>
</g>
</g>
<!-- Node1&#45;&gt;Node21 -->
<g id="edge22" class="edge">
<title>Node1&#45;&gt;Node21</title>
<path fill="none" stroke="#63b8ff" d="M27.67,-162.32C35.92,-146.24 54.65,-114.11 80,-97 82.94,-95.01 86.08,-93.24 89.34,-91.64"/>
<polygon fill="#63b8ff" stroke="#63b8ff" points="90.96,-94.76 98.79,-87.63 88.22,-88.32 90.96,-94.76"/>
</g>
<!-- Node24 -->
<g id="node24" class="node">
<title>Node24</title>
<g id="a_node24"><a xlink:href="main_8cpp.html#a2e1609fa80a6555982d945314147b005" target="_top" xlink:title=" ">
<polygon fill="white" stroke="#666666" points="220.5,-50.5 80.5,-50.5 80.5,-31.5 220.5,-31.5 220.5,-50.5"/>
<text text-anchor="middle" x="150.5" y="-38.5" font-family="Helvetica,sans-Serif" font-size="10.00">schedulerTelemetryPedal</text>
</a>
</g>
</g>
<!-- Node1&#45;&gt;Node24 -->
<g id="edge25" class="edge">
<title>Node1&#45;&gt;Node24</title>
<path fill="none" stroke="#63b8ff" d="M25.13,-162.22C30.41,-140.41 46.16,-87.55 80,-60 82.08,-58.31 84.3,-56.76 86.62,-55.36"/>
<polygon fill="#63b8ff" stroke="#63b8ff" points="88.66,-58.24 95.99,-50.59 85.49,-52.01 88.66,-58.24"/>
</g>
<!-- Node3 -->
<g id="node3" class="node">
<title>Node3</title>
<g id="a_node3"><a xlink:href="namespaceDebug__Serial.html#a756fa9286151426012a6f8e178a6c550" target="_top" xlink:title="Prints a string AND a newline to the serial console.">
<polygon fill="white" stroke="#666666" points="721,-344.5 602,-344.5 602,-325.5 721,-325.5 721,-344.5"/>
<text text-anchor="middle" x="661.5" y="-332.5" font-family="Helvetica,sans-Serif" font-size="10.00">Debug_Serial::println</text>
</a>
</g>
</g>
<!-- Node2&#45;&gt;Node3 -->
<g id="edge2" class="edge">
<title>Node2&#45;&gt;Node3</title>
<path fill="none" stroke="#63b8ff" d="M360.82,-326.58C377.57,-329.96 397.1,-333.34 415,-335 474.43,-340.52 542.3,-340 591.6,-338.4"/>
<polygon fill="#63b8ff" stroke="#63b8ff" points="591.96,-341.89 601.83,-338.04 591.71,-334.89 591.96,-341.89"/>
</g>
<!-- Node8 -->
<g id="node8" class="node">
<title>Node8</title>
<g id="a_node8"><a xlink:href="main_8cpp.html#a22decc8e5af13f6021fb6ad2aaa765be" target="_top" xlink:title=" ">
<polygon fill="white" stroke="#666666" points="683.5,-201.5 639.5,-201.5 639.5,-182.5 683.5,-182.5 683.5,-201.5"/>
<text text-anchor="middle" x="661.5" y="-189.5" font-family="Helvetica,sans-Serif" font-size="10.00">pedal</text>
</a>
</g>
</g>
<!-- Node7&#45;&gt;Node8 -->
<g id="edge7" class="edge">
<title>Node7&#45;&gt;Node8</title>
<path fill="none" stroke="#63b8ff" d="M197.01,-163.54C215.54,-167.08 237.21,-170.76 257,-173 395.25,-188.64 561.55,-191.45 629.39,-191.92"/>
<polygon fill="#63b8ff" stroke="#63b8ff" points="629.4,-195.42 639.42,-191.98 629.44,-188.42 629.4,-195.42"/>
</g>
<!-- Node9 -->
<g id="node9" class="node">
<title>Node9</title>
<g id="a_node9"><a xlink:href="classPedal.html#aa66167fb494c00db7b8a0b8140e85973" target="_top" xlink:title="Reads motor data from the CAN bus and updates the CarState.">
<polygon fill="white" stroke="#666666" points="368,-163.5 268,-163.5 268,-144.5 368,-144.5 368,-163.5"/>
<text text-anchor="middle" x="318" y="-151.5" font-family="Helvetica,sans-Serif" font-size="10.00">Pedal::readMotor</text>
</a>
</g>
</g>
<!-- Node7&#45;&gt;Node9 -->
<g id="edge8" class="edge">
<title>Node7&#45;&gt;Node9</title>
<path fill="none" stroke="#63b8ff" d="M198.93,-154C217.22,-154 238.36,-154 257.65,-154"/>
<polygon fill="#63b8ff" stroke="#63b8ff" points="257.84,-157.5 267.84,-154 257.84,-150.5 257.84,-157.5"/>
</g>
<!-- Node12 -->
<g id="node12" class="node">
<title>Node12</title>
<g id="a_node12"><a xlink:href="classPedal.html#a1027941444ce0b3f32ab8991e05c2015" target="_top" xlink:title="Sends the appropriate CAN frame to the motor based on pedal and car state.">
<polygon fill="white" stroke="#666666" points="370,-270.5 266,-270.5 266,-251.5 370,-251.5 370,-270.5"/>
<text text-anchor="middle" x="318" y="-258.5" font-family="Helvetica,sans-Serif" font-size="10.00">Pedal::sendFrame</text>
</a>
</g>
</g>
<!-- Node7&#45;&gt;Node12 -->
<g id="edge11" class="edge">
<title>Node7&#45;&gt;Node12</title>
<path fill="none" stroke="#63b8ff" d="M198.31,-163.5C206.14,-166.01 213.99,-169.13 221,-173 221.07,-173.04 271.04,-218.86 298.85,-244.36"/>
<polygon fill="#63b8ff" stroke="#63b8ff" points="296.63,-247.07 306.37,-251.25 301.36,-241.91 296.63,-247.07"/>
</g>
<!-- Node10 -->
<g id="node10" class="node">
<title>Node10</title>
<g id="a_node10"><a xlink:href="Debug_8hpp.html#a9d3888b021fa82a4c78185a961fdad84" target="_top" xlink:title="Prints a throttle debug message to the serial console.">
<polygon fill="white" stroke="#666666" points="538,-163.5 443,-163.5 443,-144.5 538,-144.5 538,-163.5"/>
<text text-anchor="middle" x="490.5" y="-151.5" font-family="Helvetica,sans-Serif" font-size="10.00">DBG_THROTTLE</text>
</a>
</g>
</g>
<!-- Node9&#45;&gt;Node10 -->
<g id="edge9" class="edge">
<title>Node9&#45;&gt;Node10</title>
<path fill="none" stroke="#63b8ff" d="M368.32,-154C388.52,-154 412.01,-154 432.91,-154"/>
<polygon fill="#63b8ff" stroke="#63b8ff" points="432.93,-157.5 442.93,-154 432.93,-150.5 432.93,-157.5"/>
</g>
<!-- Node11 -->
<g id="node11" class="node">
<title>Node11</title>
<g id="a_node11"><a xlink:href="namespaceDebug__Serial.html#aecd80296d8a3c5d2f9c51d623e11ff9f" target="_top" xlink:title="Prints a string to the serial console.">
<polygon fill="white" stroke="#666666" points="716.5,-163.5 606.5,-163.5 606.5,-144.5 716.5,-144.5 716.5,-163.5"/>
<text text-anchor="middle" x="661.5" y="-151.5" font-family="Helvetica,sans-Serif" font-size="10.00">Debug_Serial::print</text>
</a>
</g>
</g>
<!-- Node10&#45;&gt;Node11 -->
<g id="edge10" class="edge">
<title>Node10&#45;&gt;Node11</title>
<path fill="none" stroke="#63b8ff" d="M538.13,-154C556.02,-154 576.76,-154 596.03,-154"/>
<polygon fill="#63b8ff" stroke="#63b8ff" points="596.25,-157.5 606.25,-154 596.25,-150.5 596.25,-157.5"/>
</g>
<!-- Node13 -->
<g id="node13" class="node">
<title>Node13</title>
<g id="a_node13"><a xlink:href="Debug_8hpp.html#a9a564faad1bd32a5894d3706e38f1067" target="_top" xlink:title="Prints a line to the serial console for throttle debug.">
<polygon fill="white" stroke="#666666" points="544,-325.5 437,-325.5 437,-306.5 544,-306.5 544,-325.5"/>
<text text-anchor="middle" x="490.5" y="-313.5" font-family="Helvetica,sans-Serif" font-size="10.00">DBGLN_THROTTLE</text>
</a>
</g>
</g>
<!-- Node12&#45;&gt;Node13 -->
<g id="edge12" class="edge">
<title>Node12&#45;&gt;Node13</title>
<path fill="none" stroke="#63b8ff" d="M342.42,-270.6C361.71,-278.31 389.87,-289.11 415,-297 422.7,-299.42 430.91,-301.75 438.97,-303.91"/>
<polygon fill="#63b8ff" stroke="#63b8ff" points="438.12,-307.3 448.68,-306.44 439.88,-300.53 438.12,-307.3"/>
</g>
<!-- Node14 -->
<g id="node14" class="node">
<title>Node14</title>
<g id="a_node14"><a xlink:href="classExponentialFilter.html#a598576f308881ed4adeb618e0bf1f75a" target="_top" xlink:title="Retrieves the filtered value from the ExponentialFilter.">
<polygon fill="white" stroke="#666666" points="543,-288 438,-288 438,-258 543,-258 543,-288"/>
<text text-anchor="start" x="446" y="-276" font-family="Helvetica,sans-Serif" font-size="10.00">ExponentialFilter::</text>
<text text-anchor="middle" x="490.5" y="-265" font-family="Helvetica,sans-Serif" font-size="10.00">getFiltered</text>
</a>
</g>
</g>
<!-- Node12&#45;&gt;Node14 -->
<g id="edge14" class="edge">
<title>Node12&#45;&gt;Node14</title>
<path fill="none" stroke="#63b8ff" d="M370.16,-264.6C388.28,-265.88 408.87,-267.33 427.78,-268.66"/>
<polygon fill="#63b8ff" stroke="#63b8ff" points="427.57,-272.15 437.79,-269.36 428.06,-265.17 427.57,-272.15"/>
</g>
<!-- Node15 -->
<g id="node15" class="node">
<title>Node15</title>
<g id="a_node15"><a xlink:href="classPedal.html#ae82e0ae8a1a0c6918d43fb27bf8d9d0d" target="_top" xlink:title="Maps the pedal ADC to a torque value. If no braking requested, maps throttle normally....">
<polygon fill="white" stroke="#666666" points="566,-239.5 415,-239.5 415,-220.5 566,-220.5 566,-239.5"/>
<text text-anchor="middle" x="490.5" y="-227.5" font-family="Helvetica,sans-Serif" font-size="10.00">Pedal::pedalTorqueMapping</text>
</a>
</g>
</g>
<!-- Node12&#45;&gt;Node15 -->
<g id="edge15" class="edge">
<title>Node12&#45;&gt;Node15</title>
<path fill="none" stroke="#63b8ff" d="M370.16,-251.7C388.12,-248.43 408.49,-244.73 427.26,-241.32"/>
<polygon fill="#63b8ff" stroke="#63b8ff" points="427.99,-244.74 437.2,-239.51 426.74,-237.85 427.99,-244.74"/>
</g>
<!-- Node13&#45;&gt;Node3 -->
<g id="edge13" class="edge">
<title>Node13&#45;&gt;Node3</title>
<path fill="none" stroke="#63b8ff" d="M544.05,-321.91C559.07,-323.6 575.67,-325.46 591.52,-327.24"/>
<polygon fill="#63b8ff" stroke="#63b8ff" points="591.47,-330.76 601.8,-328.4 592.26,-323.81 591.47,-330.76"/>
</g>
<!-- Node15&#45;&gt;Node8 -->
<g id="edge17" class="edge">
<title>Node15&#45;&gt;Node8</title>
<path fill="none" stroke="#63b8ff" d="M534.15,-220.41C563.84,-213.73 602.76,-204.98 629.52,-198.97"/>
<polygon fill="#63b8ff" stroke="#63b8ff" points="630.49,-202.33 639.48,-196.73 628.96,-195.51 630.49,-202.33"/>
</g>
<!-- Node16 -->
<g id="node16" class="node">
<title>Node16</title>
<g id="a_node16"><a xlink:href="classLinearInterp.html#a3c1654f4a47bb4db5386e38a8bdd6bc1" target="_top" xlink:title="Performs linear interpolation for the given input value, using the table.">
<polygon fill="white" stroke="#666666" points="716.5,-239.5 606.5,-239.5 606.5,-220.5 716.5,-220.5 716.5,-239.5"/>
<text text-anchor="middle" x="661.5" y="-227.5" font-family="Helvetica,sans-Serif" font-size="10.00">LinearInterp::interp</text>
</a>
</g>
</g>
<!-- Node15&#45;&gt;Node16 -->
<g id="edge16" class="edge">
<title>Node15&#45;&gt;Node16</title>
<path fill="none" stroke="#63b8ff" d="M566.12,-230C576.16,-230 586.39,-230 596.23,-230"/>
<polygon fill="#63b8ff" stroke="#63b8ff" points="596.32,-233.5 606.32,-230 596.32,-226.5 596.32,-233.5"/>
</g>
<!-- Node17 -->
<g id="node17" class="node">
<title>Node17</title>
<g id="a_node17"><a xlink:href="classLinearInterp.html#ade361a63c34c53564a1bd9e8ae5b6c4b" target="_top" xlink:title="Returns the starting input value of the interpolation table.">
<polygon fill="white" stroke="#666666" points="713.5,-276.5 609.5,-276.5 609.5,-257.5 713.5,-257.5 713.5,-276.5"/>
<text text-anchor="middle" x="661.5" y="-264.5" font-family="Helvetica,sans-Serif" font-size="10.00">LinearInterp::start</text>
</a>
</g>
</g>
<!-- Node15&#45;&gt;Node17 -->
<g id="edge18" class="edge">
<title>Node15&#45;&gt;Node17</title>
<path fill="none" stroke="#63b8ff" d="M535.02,-239.53C556.92,-244.32 583.65,-250.18 606.81,-255.25"/>
<polygon fill="#63b8ff" stroke="#63b8ff" points="606.32,-258.72 616.83,-257.44 607.81,-251.88 606.32,-258.72"/>
</g>
<!-- Node19 -->
<g id="node19" class="node">
<title>Node19</title>
<g id="a_node19"><a xlink:href="classTelemetry.html#a9b8b2cf254f25b0133b5f3bafd1b80e1" target="_top" xlink:title="Internal helper to get and send the BMS telemetry frame.">
<polygon fill="white" stroke="#666666" points="376,-121.5 260,-121.5 260,-102.5 376,-102.5 376,-121.5"/>
<text text-anchor="middle" x="318" y="-109.5" font-family="Helvetica,sans-Serif" font-size="10.00">Telemetry::sendBms</text>
</a>
</g>
</g>
<!-- Node18&#45;&gt;Node19 -->
<g id="edge20" class="edge">
<title>Node18&#45;&gt;Node19</title>
<path fill="none" stroke="#63b8ff" d="M217.86,-113.8C228.42,-113.61 239.36,-113.41 249.94,-113.22"/>
<polygon fill="#63b8ff" stroke="#63b8ff" points="250.01,-116.71 259.95,-113.03 249.89,-109.72 250.01,-116.71"/>
</g>
<!-- Node20 -->
<g id="node20" class="node">
<title>Node20</title>
<g id="a_node20"><a xlink:href="structTelemetryFrameBms.html#a6b03b160b930c3a40a06e99f6e6cb175" target="_top" xlink:title="Converts the TelemetryFrameBms to a CAN frame.">
<polygon fill="white" stroke="#666666" points="552.5,-126 428.5,-126 428.5,-96 552.5,-96 552.5,-126"/>
<text text-anchor="start" x="436.5" y="-114" font-family="Helvetica,sans-Serif" font-size="10.00">TelemetryFrameBms::</text>
<text text-anchor="middle" x="490.5" y="-103" font-family="Helvetica,sans-Serif" font-size="10.00">toCanFrame</text>
</a>
</g>
</g>
<!-- Node19&#45;&gt;Node20 -->
<g id="edge21" class="edge">
<title>Node19&#45;&gt;Node20</title>
<path fill="none" stroke="#63b8ff" d="M376.25,-111.66C389.72,-111.59 404.23,-111.5 418.23,-111.42"/>
<polygon fill="#63b8ff" stroke="#63b8ff" points="418.33,-114.92 428.31,-111.36 418.29,-107.92 418.33,-114.92"/>
</g>
<!-- Node22 -->
<g id="node22" class="node">
<title>Node22</title>
<g id="a_node22"><a xlink:href="classTelemetry.html#a24571b8d560d99079a460857669231a1" target="_top" xlink:title="Internal helper to get and send the motor telemetry frame.">
<polygon fill="white" stroke="#666666" points="379,-79.5 257,-79.5 257,-60.5 379,-60.5 379,-79.5"/>
<text text-anchor="middle" x="318" y="-67.5" font-family="Helvetica,sans-Serif" font-size="10.00">Telemetry::sendMotor</text>
</a>
</g>
</g>
<!-- Node21&#45;&gt;Node22 -->
<g id="edge23" class="edge">
<title>Node21&#45;&gt;Node22</title>
<path fill="none" stroke="#63b8ff" d="M221.21,-74.63C229.62,-74.22 238.22,-73.81 246.65,-73.4"/>
<polygon fill="#63b8ff" stroke="#63b8ff" points="246.99,-76.89 256.81,-72.91 246.66,-69.9 246.99,-76.89"/>
</g>
<!-- Node23 -->
<g id="node23" class="node">
<title>Node23</title>
<g id="a_node23"><a xlink:href="structTelemetryFrameMotor.html#a34bcb5a8f27caa3a1098c35c051236aa" target="_top" xlink:title="Converts the TelemetryFrameMotor to a CAN frame.">
<polygon fill="white" stroke="#666666" points="553,-78 428,-78 428,-48 553,-48 553,-78"/>
<text text-anchor="start" x="436" y="-66" font-family="Helvetica,sans-Serif" font-size="10.00">TelemetryFrameMotor</text>
<text text-anchor="middle" x="490.5" y="-55" font-family="Helvetica,sans-Serif" font-size="10.00">::toCanFrame</text>
</a>
</g>
</g>
<!-- Node22&#45;&gt;Node23 -->
<g id="edge24" class="edge">
<title>Node22&#45;&gt;Node23</title>
<path fill="none" stroke="#63b8ff" d="M379.11,-67.53C391.59,-67.02 404.87,-66.47 417.72,-65.95"/>
<polygon fill="#63b8ff" stroke="#63b8ff" points="418.07,-69.44 427.91,-65.53 417.78,-62.44 418.07,-69.44"/>
</g>
<!-- Node25 -->
<g id="node25" class="node">
<title>Node25</title>
<g id="a_node25"><a xlink:href="classTelemetry.html#a8fea6e56820f19a233237434f32aa511" target="_top" xlink:title="Internal helper to get and send the Pedal telemetry frame.">
<polygon fill="white" stroke="#666666" points="378.5,-31.5 257.5,-31.5 257.5,-12.5 378.5,-12.5 378.5,-31.5"/>
<text text-anchor="middle" x="318" y="-19.5" font-family="Helvetica,sans-Serif" font-size="10.00">Telemetry::sendPedal</text>
</a>
</g>
</g>
<!-- Node24&#45;&gt;Node25 -->
<g id="edge26" class="edge">
<title>Node24&#45;&gt;Node25</title>
<path fill="none" stroke="#63b8ff" d="M220.73,-33.05C229.45,-32.05 238.38,-31.03 247.11,-30.02"/>
<polygon fill="#63b8ff" stroke="#63b8ff" points="247.71,-33.48 257.25,-28.86 246.91,-26.52 247.71,-33.48"/>
</g>
<!-- Node26 -->
<g id="node26" class="node">
<title>Node26</title>
<g id="a_node26"><a xlink:href="structTelemetryFramePedal.html#af36459761c019b01b84e3844f8c38f49" target="_top" xlink:title="Converts the TelemetryFramePedal to a CAN frame.">
<polygon fill="white" stroke="#666666" points="552,-30 429,-30 429,0 552,0 552,-30"/>
<text text-anchor="start" x="437" y="-18" font-family="Helvetica,sans-Serif" font-size="10.00">TelemetryFramePedal</text>
<text text-anchor="middle" x="490.5" y="-7" font-family="Helvetica,sans-Serif" font-size="10.00">::toCanFrame</text>
</a>
</g>
</g>
<!-- Node25&#45;&gt;Node26 -->
<g id="edge27" class="edge">
<title>Node25&#45;&gt;Node26</title>
<path fill="none" stroke="#63b8ff" d="M378.63,-19.55C391.57,-19.02 405.36,-18.45 418.68,-17.91"/>
<polygon fill="#63b8ff" stroke="#63b8ff" points="418.9,-21.4 428.75,-17.49 418.61,-14.41 418.9,-21.4"/>
</g>
</g>
</svg>
        <g id="navigator" transform="translate(0 0)" fill="#404254">
                <rect fill="#f2f5e9" fill-opacity="0.5" stroke="#606060" stroke-width=".5" x="0" y="0" width="60" height="60"/>
                <use id="zoomplus" xlink:href="#zoomPlus" x="17" y="9" onmousedown="handleZoom(evt,'in')"/>
                <use id="zoomminus" xlink:href="#zoomMin" x="42" y="9" onmousedown="handleZoom(evt,'out')"/>
                <use id="reset" xlink:href="#resetDef" x="30" y="36" onmousedown="handleReset()"/>
                <g id="arrowUp" xlink:href="#dirArrow" transform="translate(30 24)" onmousedown="handlePan(0,-1)">
                  <use xlink:href="#rim" fill="#404040">
                        <set attributeName="fill" to="#808080" begin="arrowUp.mouseover" end="arrowUp.mouseout"/>
                  </use>
                  <path fill="none" stroke="white" stroke-width="1.5" d="M0,-3.0v7 M-2.5,-0.5L0,-3.0L2.5,-0.5"/>
                </g>
                <g id="arrowRight" xlink:href="#dirArrow" transform="rotate(90) translate(36 -43)" onmousedown="handlePan(1,0)">
                  <use xlink:href="#rim" fill="#404040">
                        <set attributeName="fill" to="#808080" begin="arrowRight.mouseover" end="arrowRight.mouseout"/>
                  </use>
                  <path fill="none" stroke="white" stroke-width="1.5" d="M0,-3.0v7 M-2.5,-0.5L0,-3.0L2.5,-0.5"/>
                </g>
                <g id="arrowDown" xlink:href="#dirArrow" transform="rotate(180) translate(-30 -48)" onmousedown="handlePan(0,1)">
                  <use xlink:href="#rim" fill="#404040">
                        <set attributeName="fill" to="#808080" begin="arrowDown.mouseover" end="arrowDown.mouseout"/>
                  </use>
                  <path fill="none" stroke="white" stroke-width="1.5" d="M0,-3.0v7 M-2.5,-0.5L0,-3.0L2.5,-0.5"/>
                </g>
                <g id="arrowLeft" xlink:href="#dirArrow" transform="rotate(270) translate(-36 17)" onmousedown="handlePan(-1,0)">
                  <use xlink:href="#rim" fill="#404040">
                        <set attributeName="fill" to="#808080" begin="arrowLeft.mouseover" end="arrowLeft.mouseout"/>
                  </use>
                  <path fill="none" stroke="white" stroke-width="1.5" d="M0,-3.0v7 M-2.5,-0.5L0,-3.0L2.5,-0.5"/>
                </g>
        </g>
        <svg viewBox="0 0 15 15" width="100%" height="30px" preserveAspectRatio="xMaxYMin meet">
         <g id="arrow_out" transform="scale(0.3 0.3)">
          <a xlink:href="main_8cpp_a4fc01d736fe50cf5b977f755b675f11d_cgraph_org.svg" target="_base">
           <rect id="button" ry="5" rx="5" y="6" x="6" height="38" width="38"
                fill="#f2f5e9" fill-opacity="0.5" stroke="#606060" stroke-width="1.0"/>
           <path id="arrow"
             d="M 11.500037,31.436501 C 11.940474,20.09759 22.043105,11.32322 32.158766,21.979434 L 37.068811,17.246167 C 37.068811,17.246167 37.088388,32 37.088388,32 L 22.160133,31.978069 C 22.160133,31.978069 26.997745,27.140456 26.997745,27.140456 C 18.528582,18.264221 13.291696,25.230495 11.500037,31.436501 z"
             style="fill:#404040;"/>
          </a>
         </g>
        </svg>
</svg>
