<?xml version="1.0" encoding="UTF-8" standalone="no"?>
<!DOCTYPE svg PUBLIC "-//W3C//DTD SVG 1.1//EN"
 "http://www.w3.org/Graphics/SVG/1.1/DTD/svg11.dtd">
<!-- Generated by graphviz version 2.43.0 (0)
 -->
<!-- Title: setup Pages: 1 -->
<!--zoomable 332 -->
<svg id="main" version="1.1" xmlns="http://www.w3.org/2000/svg" xmlns:xlink="http://www.w3.org/1999/xlink" xml:space="preserve" onload="init(evt)">
<style type="text/css"><![CDATA[
.edge:hover path { stroke: red; }
.edge:hover polygon { stroke: red; fill: red; }
]]></style>
<script type="text/javascript"><![CDATA[
var edges = document.getElementsByTagName('g');
if (edges && edges.length) {
  for (var i=0;i<edges.length;i++) {
    if (edges[i].id.substr(0,4)=='edge') {
      edges[i].setAttribute('class','edge');
    }
  }
}
]]></script>
        <defs>
                <circle id="rim" cx="0" cy="0" r="7"/>
                <circle id="rim2" cx="0" cy="0" r="3.5"/>
                <g id="zoomPlus">
                        <use xlink:href="#rim" fill="#404040">
                                <set attributeName="fill" to="#808080" begin="zoomplus.mouseover" end="zoomplus.mouseout"/>
                        </use>
                        <path d="M-4,0h8M0,-4v8" fill="none" stroke="white" stroke-width="1.5" pointer-events="none"/>
                </g>
                <g id="zoomMin">
                        <use xlink:href="#rim" fill="#404040">
                                <set attributeName="fill" to="#808080" begin="zoomminus.mouseover" end="zoomminus.mouseout"/>
                        </use>
                        <path d="M-4,0h8" fill="none" stroke="white" stroke-width="1.5" pointer-events="none"/>
                </g>
                <g id="dirArrow">
                        <path fill="none" stroke="white" stroke-width="1.5" d="M0,-3.0v7 M-2.5,-0.5L0,-3.0L2.5,-0.5"/>
                </g>
               <g id="resetDef">
                       <use xlink:href="#rim2" fill="#404040">
                               <set attributeName="fill" to="#808080" begin="reset.mouseover" end="reset.mouseout"/>
                       </use>
               </g>
        </defs>

<script type="text/javascript">
var viewWidth = 744;
var viewHeight = 332;
var sectionId = 'dynsection-10';
</script>
<script xlink:href="svgpan.js"/>
<svg id="graph" class="graph">
<g id="viewport">
<title>setup</title>
<!-- Node1 -->
<g id="node1" class="node">
<title>Node1</title>
<g id="a_node1"><a xlink:title="Setup function for initializing the VCU system. Initializes MCP2515s, IO pins, as well as own modules...">
<polygon fill="#999999" stroke="#666666" points="44,-229.5 0,-229.5 0,-210.5 44,-210.5 44,-229.5"/>
<text text-anchor="middle" x="22" y="-217.5" font-family="Helvetica,sans-Serif" font-size="10.00">setup</text>
</a>
</g>
</g>
<!-- Node2 -->
<g id="node2" class="node">
<title>Node2</title>
<g id="a_node2"><a xlink:href="Debug_8hpp.html#a8e8d6e3de15309922f25c12f4d7cf727" target="_top" xlink:title="Prints a line to the serial console for general debug.">
<polygon fill="white" stroke="#666666" points="367.5,-323.5 265.5,-323.5 265.5,-304.5 367.5,-304.5 367.5,-323.5"/>
<text text-anchor="middle" x="316.5" y="-311.5" font-family="Helvetica,sans-Serif" font-size="10.00">DBGLN_GENERAL</text>
</a>
</g>
</g>
<!-- Node1&#45;&gt;Node2 -->
<g id="edge1" class="edge">
<title>Node1&#45;&gt;Node2</title>
<path fill="none" stroke="#63b8ff" d="M27.1,-229.67C34.74,-246.35 52.88,-280.16 80,-295 133.86,-324.47 205.25,-325.98 255.26,-322.14"/>
<polygon fill="#63b8ff" stroke="#63b8ff" points="255.61,-325.62 265.27,-321.28 255.01,-318.65 255.61,-325.62"/>
</g>
<!-- Node4 -->
<g id="node4" class="node">
<title>Node4</title>
<g id="a_node4"><a xlink:href="namespaceDebug__Serial.html#ad136936636c7b7140cb1e14c55eb5f31" target="_top" xlink:title="Initializes the Debug_Serial interface. It should be called before using any other Debug_Serial funct...">
<polygon fill="white" stroke="#666666" points="209,-285.5 80,-285.5 80,-266.5 209,-266.5 209,-285.5"/>
<text text-anchor="middle" x="144.5" y="-273.5" font-family="Helvetica,sans-Serif" font-size="10.00">Debug_Serial::initialize</text>
</a>
</g>
</g>
<!-- Node1&#45;&gt;Node4 -->
<g id="edge3" class="edge">
<title>Node1&#45;&gt;Node4</title>
<path fill="none" stroke="#63b8ff" d="M35.01,-229.64C46.12,-238.14 63.37,-250.33 80,-258 84.09,-259.89 88.42,-261.62 92.82,-263.2"/>
<polygon fill="#63b8ff" stroke="#63b8ff" points="91.92,-266.58 102.51,-266.41 94.12,-259.94 91.92,-266.58"/>
</g>
<!-- Node5 -->
<g id="node5" class="node">
<title>Node5</title>
<g id="a_node5"><a xlink:href="namespaceDebug__CAN.html#a5c8b33000e36a19ccb285e45f666e64e" target="_top" xlink:title="Initializes the Debug_CAN interface. It should be called before using any other Debug_CAN functions.">
<polygon fill="white" stroke="#666666" points="205.5,-248.5 83.5,-248.5 83.5,-229.5 205.5,-229.5 205.5,-248.5"/>
<text text-anchor="middle" x="144.5" y="-236.5" font-family="Helvetica,sans-Serif" font-size="10.00">Debug_CAN::initialize</text>
</a>
</g>
</g>
<!-- Node1&#45;&gt;Node5 -->
<g id="edge4" class="edge">
<title>Node1&#45;&gt;Node5</title>
<path fill="none" stroke="#63b8ff" d="M44.27,-223.35C52.61,-224.67 62.71,-226.26 73.22,-227.92"/>
<polygon fill="#63b8ff" stroke="#63b8ff" points="72.96,-231.42 83.39,-229.52 74.05,-224.51 72.96,-231.42"/>
</g>
<!-- Node6 -->
<g id="node6" class="node">
<title>Node6</title>
<g id="a_node6"><a xlink:href="main_8cpp.html#a95581c94a7dc4a68f61fa24f06cc90d1" target="_top" xlink:title=" ">
<polygon fill="white" stroke="#666666" points="184.5,-211.5 104.5,-211.5 104.5,-192.5 184.5,-192.5 184.5,-211.5"/>
<text text-anchor="middle" x="144.5" y="-199.5" font-family="Helvetica,sans-Serif" font-size="10.00">mcp2515_DL</text>
</a>
</g>
</g>
<!-- Node1&#45;&gt;Node6 -->
<g id="edge5" class="edge">
<title>Node1&#45;&gt;Node6</title>
<path fill="none" stroke="#63b8ff" d="M44.27,-216.82C58.16,-214.75 76.9,-211.95 94.35,-209.34"/>
<polygon fill="#63b8ff" stroke="#63b8ff" points="95.06,-212.77 104.44,-207.84 94.03,-205.85 95.06,-212.77"/>
</g>
<!-- Node7 -->
<g id="node7" class="node">
<title>Node7</title>
<g id="a_node7"><a xlink:href="main_8cpp.html#a1174b6795782479542559289cd623faf" target="_top" xlink:title=" ">
<polygon fill="white" stroke="#666666" points="192.5,-174.5 96.5,-174.5 96.5,-155.5 192.5,-155.5 192.5,-174.5"/>
<text text-anchor="middle" x="144.5" y="-162.5" font-family="Helvetica,sans-Serif" font-size="10.00">scheduler_pedal</text>
</a>
</g>
</g>
<!-- Node1&#45;&gt;Node7 -->
<g id="edge6" class="edge">
<title>Node1&#45;&gt;Node7</title>
<path fill="none" stroke="#63b8ff" d="M36.01,-210.33C47.2,-202.38 64.02,-191.27 80,-184 84.98,-181.74 90.29,-179.66 95.65,-177.78"/>
<polygon fill="#63b8ff" stroke="#63b8ff" points="96.87,-181.06 105.27,-174.6 94.68,-174.41 96.87,-181.06"/>
</g>
<!-- Node16 -->
<g id="node16" class="node">
<title>Node16</title>
<g id="a_node16"><a xlink:href="main_8cpp.html#a18a2a13352158a1c448c163c58e2b486" target="_top" xlink:title=" ">
<polygon fill="white" stroke="#666666" points="201,-129.5 88,-129.5 88,-110.5 201,-110.5 201,-129.5"/>
<text text-anchor="middle" x="144.5" y="-117.5" font-family="Helvetica,sans-Serif" font-size="10.00">schedulerTelemetry</text>
</a>
</g>
</g>
<!-- Node1&#45;&gt;Node16 -->
<g id="edge17" class="edge">
<title>Node1&#45;&gt;Node16</title>
<path fill="none" stroke="#63b8ff" d="M28.42,-210.2C37.36,-194.85 56.54,-165.02 80,-147 86.9,-141.7 94.99,-137.24 103.04,-133.56"/>
<polygon fill="#63b8ff" stroke="#63b8ff" points="104.56,-136.72 112.41,-129.6 101.83,-130.27 104.56,-136.72"/>
</g>
<!-- Node3 -->
<g id="node3" class="node">
<title>Node3</title>
<g id="a_node3"><a xlink:href="namespaceDebug__Serial.html#a756fa9286151426012a6f8e178a6c550" target="_top" xlink:title="Prints a string AND a newline to the serial console.">
<polygon fill="white" stroke="#666666" points="733,-298.5 614,-298.5 614,-279.5 733,-279.5 733,-298.5"/>
<text text-anchor="middle" x="673.5" y="-286.5" font-family="Helvetica,sans-Serif" font-size="10.00">Debug_Serial::println</text>
</a>
</g>
</g>
<!-- Node2&#45;&gt;Node3 -->
<g id="edge2" class="edge">
<title>Node2&#45;&gt;Node3</title>
<path fill="none" stroke="#63b8ff" d="M367.61,-310.47C429.24,-306.13 534.17,-298.74 603.42,-293.87"/>
<polygon fill="#63b8ff" stroke="#63b8ff" points="604.06,-297.33 613.79,-293.13 603.57,-290.35 604.06,-297.33"/>
</g>
<!-- Node8 -->
<g id="node8" class="node">
<title>Node8</title>
<g id="a_node8"><a xlink:href="main_8cpp.html#a22decc8e5af13f6021fb6ad2aaa765be" target="_top" xlink:title=" ">
<polygon fill="white" stroke="#666666" points="695.5,-163.5 651.5,-163.5 651.5,-144.5 695.5,-144.5 695.5,-163.5"/>
<text text-anchor="middle" x="673.5" y="-151.5" font-family="Helvetica,sans-Serif" font-size="10.00">pedal</text>
</a>
</g>
</g>
<!-- Node7&#45;&gt;Node8 -->
<g id="edge7" class="edge">
<title>Node7&#45;&gt;Node8</title>
<path fill="none" stroke="#63b8ff" d="M192.73,-164.01C298.59,-161.8 552.52,-156.5 641.26,-154.65"/>
<polygon fill="#63b8ff" stroke="#63b8ff" points="641.55,-158.15 651.47,-154.44 641.4,-151.15 641.55,-158.15"/>
</g>
<!-- Node9 -->
<g id="node9" class="node">
<title>Node9</title>
<g id="a_node9"><a xlink:href="classPedal.html#aa66167fb494c00db7b8a0b8140e85973" target="_top" xlink:title="Reads motor data from the CAN bus and updates the CarState.">
<polygon fill="white" stroke="#666666" points="366.5,-237.5 266.5,-237.5 266.5,-218.5 366.5,-218.5 366.5,-237.5"/>
<text text-anchor="middle" x="316.5" y="-225.5" font-family="Helvetica,sans-Serif" font-size="10.00">Pedal::readMotor</text>
</a>
</g>
</g>
<!-- Node7&#45;&gt;Node9 -->
<g id="edge8" class="edge">
<title>Node7&#45;&gt;Node9</title>
<path fill="none" stroke="#63b8ff" d="M184.9,-174.55C193.07,-177.14 201.47,-180.28 209,-184 226.7,-192.73 227.12,-201.63 245,-210 249.28,-212 253.81,-213.8 258.44,-215.42"/>
<polygon fill="#63b8ff" stroke="#63b8ff" points="257.41,-218.77 268,-218.49 259.54,-212.1 257.41,-218.77"/>
</g>
<!-- Node10 -->
<g id="node10" class="node">
<title>Node10</title>
<g id="a_node10"><a xlink:href="classPedal.html#a1027941444ce0b3f32ab8991e05c2015" target="_top" xlink:title="Sends the appropriate CAN frame to the motor based on pedal and car state.">
<polygon fill="white" stroke="#666666" points="368.5,-200.5 264.5,-200.5 264.5,-181.5 368.5,-181.5 368.5,-200.5"/>
<text text-anchor="middle" x="316.5" y="-188.5" font-family="Helvetica,sans-Serif" font-size="10.00">Pedal::sendFrame</text>
</a>
</g>
</g>
<!-- Node7&#45;&gt;Node10 -->
<g id="edge9" class="edge">
<title>Node7&#45;&gt;Node10</title>
<path fill="none" stroke="#63b8ff" d="M192.85,-172.24C211.85,-175.15 233.99,-178.53 254.18,-181.62"/>
<polygon fill="#63b8ff" stroke="#63b8ff" points="253.82,-185.11 264.23,-183.16 254.88,-178.19 253.82,-185.11"/>
</g>
<!-- Node11 -->
<g id="node11" class="node">
<title>Node11</title>
<g id="a_node11"><a xlink:href="Debug_8hpp.html#a9a564faad1bd32a5894d3706e38f1067" target="_top" xlink:title="Prints a line to the serial console for throttle debug.">
<polygon fill="white" stroke="#666666" points="553,-237.5 446,-237.5 446,-218.5 553,-218.5 553,-237.5"/>
<text text-anchor="middle" x="499.5" y="-225.5" font-family="Helvetica,sans-Serif" font-size="10.00">DBGLN_THROTTLE</text>
</a>
</g>
</g>
<!-- Node10&#45;&gt;Node11 -->
<g id="edge10" class="edge">
<title>Node10&#45;&gt;Node11</title>
<path fill="none" stroke="#63b8ff" d="M364.11,-200.53C387.77,-205.36 416.71,-211.28 441.67,-216.38"/>
<polygon fill="#63b8ff" stroke="#63b8ff" points="441.23,-219.87 451.73,-218.44 442.64,-213.01 441.23,-219.87"/>
</g>
<!-- Node12 -->
<g id="node12" class="node">
<title>Node12</title>
<g id="a_node12"><a xlink:href="classExponentialFilter.html#a598576f308881ed4adeb618e0bf1f75a" target="_top" xlink:title="Retrieves the filtered value from the ExponentialFilter.">
<polygon fill="white" stroke="#666666" points="552,-286 447,-286 447,-256 552,-256 552,-286"/>
<text text-anchor="start" x="455" y="-274" font-family="Helvetica,sans-Serif" font-size="10.00">ExponentialFilter::</text>
<text text-anchor="middle" x="499.5" y="-263" font-family="Helvetica,sans-Serif" font-size="10.00">getFiltered</text>
</a>
</g>
</g>
<!-- Node10&#45;&gt;Node12 -->
<g id="edge12" class="edge">
<title>Node10&#45;&gt;Node12</title>
<path fill="none" stroke="#63b8ff" d="M366.67,-200.58C374.09,-203.06 381.44,-206.15 388,-210 407.78,-221.62 404.5,-234.9 424,-247 428.29,-249.66 432.91,-252.06 437.66,-254.21"/>
<polygon fill="#63b8ff" stroke="#63b8ff" points="436.36,-257.46 446.93,-258.05 439.03,-250.99 436.36,-257.46"/>
</g>
<!-- Node13 -->
<g id="node13" class="node">
<title>Node13</title>
<g id="a_node13"><a xlink:href="classPedal.html#ae82e0ae8a1a0c6918d43fb27bf8d9d0d" target="_top" xlink:title="Maps the pedal ADC to a torque value. If no braking requested, maps throttle normally....">
<polygon fill="white" stroke="#666666" points="575,-200.5 424,-200.5 424,-181.5 575,-181.5 575,-200.5"/>
<text text-anchor="middle" x="499.5" y="-188.5" font-family="Helvetica,sans-Serif" font-size="10.00">Pedal::pedalTorqueMapping</text>
</a>
</g>
</g>
<!-- Node10&#45;&gt;Node13 -->
<g id="edge13" class="edge">
<title>Node10&#45;&gt;Node13</title>
<path fill="none" stroke="#63b8ff" d="M368.88,-191C382.86,-191 398.37,-191 413.67,-191"/>
<polygon fill="#63b8ff" stroke="#63b8ff" points="413.68,-194.5 423.68,-191 413.68,-187.5 413.68,-194.5"/>
</g>
<!-- Node11&#45;&gt;Node3 -->
<g id="edge11" class="edge">
<title>Node11&#45;&gt;Node3</title>
<path fill="none" stroke="#63b8ff" d="M542.61,-237.51C553.27,-240.25 564.64,-243.47 575,-247 598.58,-255.03 624.44,-266.29 643.6,-275.13"/>
<polygon fill="#63b8ff" stroke="#63b8ff" points="642.15,-278.32 652.69,-279.37 645.11,-271.97 642.15,-278.32"/>
</g>
<!-- Node13&#45;&gt;Node8 -->
<g id="edge15" class="edge">
<title>Node13&#45;&gt;Node8</title>
<path fill="none" stroke="#63b8ff" d="M544.79,-181.47C575.02,-174.97 614.32,-166.52 641.29,-160.71"/>
<polygon fill="#63b8ff" stroke="#63b8ff" points="642.29,-164.08 651.33,-158.55 640.82,-157.23 642.29,-164.08"/>
</g>
<!-- Node14 -->
<g id="node14" class="node">
<title>Node14</title>
<g id="a_node14"><a xlink:href="classLinearInterp.html#a3c1654f4a47bb4db5386e38a8bdd6bc1" target="_top" xlink:title="Performs linear interpolation for the given input value, using the table.">
<polygon fill="white" stroke="#666666" points="728.5,-200.5 618.5,-200.5 618.5,-181.5 728.5,-181.5 728.5,-200.5"/>
<text text-anchor="middle" x="673.5" y="-188.5" font-family="Helvetica,sans-Serif" font-size="10.00">LinearInterp::interp</text>
</a>
</g>
</g>
<!-- Node13&#45;&gt;Node14 -->
<g id="edge14" class="edge">
<title>Node13&#45;&gt;Node14</title>
<path fill="none" stroke="#63b8ff" d="M575.19,-191C586.18,-191 597.43,-191 608.19,-191"/>
<polygon fill="#63b8ff" stroke="#63b8ff" points="608.33,-194.5 618.33,-191 608.33,-187.5 608.33,-194.5"/>
</g>
<!-- Node15 -->
<g id="node15" class="node">
<title>Node15</title>
<g id="a_node15"><a xlink:href="classLinearInterp.html#ade361a63c34c53564a1bd9e8ae5b6c4b" target="_top" xlink:title="Returns the starting input value of the interpolation table.">
<polygon fill="white" stroke="#666666" points="725.5,-237.5 621.5,-237.5 621.5,-218.5 725.5,-218.5 725.5,-237.5"/>
<text text-anchor="middle" x="673.5" y="-225.5" font-family="Helvetica,sans-Serif" font-size="10.00">LinearInterp::start</text>
</a>
</g>
</g>
<!-- Node13&#45;&gt;Node15 -->
<g id="edge16" class="edge">
<title>Node13&#45;&gt;Node15</title>
<path fill="none" stroke="#63b8ff" d="M544.79,-200.53C567.18,-205.34 594.53,-211.23 618.18,-216.31"/>
<polygon fill="#63b8ff" stroke="#63b8ff" points="617.54,-219.76 628.06,-218.44 619.02,-212.91 617.54,-219.76"/>
</g>
<!-- Node17 -->
<g id="node17" class="node">
<title>Node17</title>
<g id="a_node17"><a xlink:href="classTelemetry.html#a892ba1df53bea0797e63b8e7a0030d91" target="_top" xlink:title="Sends telemetry data based on the scheduling logic.">
<polygon fill="white" stroke="#666666" points="388,-95.5 245,-95.5 245,-76.5 388,-76.5 388,-95.5"/>
<text text-anchor="middle" x="316.5" y="-83.5" font-family="Helvetica,sans-Serif" font-size="10.00">Telemetry::sendTelemetry</text>
</a>
</g>
</g>
<!-- Node16&#45;&gt;Node17 -->
<g id="edge18" class="edge">
<title>Node16&#45;&gt;Node17</title>
<path fill="none" stroke="#63b8ff" d="M193.31,-110.44C213.31,-106.44 236.73,-101.75 257.69,-97.56"/>
<polygon fill="#63b8ff" stroke="#63b8ff" points="258.64,-100.94 267.76,-95.55 257.27,-94.08 258.64,-100.94"/>
</g>
<!-- Node18 -->
<g id="node18" class="node">
<title>Node18</title>
<g id="a_node18"><a xlink:href="classTelemetry.html#a25e2add208dc38e8a1f4e453db89d7f6" target="_top" xlink:title="Internal helper to get and send the BMS telemetry frame.">
<polygon fill="white" stroke="#666666" points="569.5,-33.5 429.5,-33.5 429.5,-14.5 569.5,-14.5 569.5,-33.5"/>
<text text-anchor="middle" x="499.5" y="-21.5" font-family="Helvetica,sans-Serif" font-size="10.00">Telemetry::schedulerBms</text>
</a>
</g>
</g>
<!-- Node17&#45;&gt;Node18 -->
<g id="edge19" class="edge">
<title>Node17&#45;&gt;Node18</title>
<path fill="none" stroke="#63b8ff" d="M342.33,-76.49C363.84,-68.36 395.83,-56.5 424,-47 434.4,-43.49 445.69,-39.9 456.25,-36.63"/>
<polygon fill="#63b8ff" stroke="#63b8ff" points="457.58,-39.88 466.11,-33.6 455.53,-33.19 457.58,-39.88"/>
</g>
<!-- Node20 -->
<g id="node20" class="node">
<title>Node20</title>
<g id="a_node20"><a xlink:href="classTelemetry.html#a92acf8de276b3b8ded45d44b97ddd13c" target="_top" xlink:title="Internal helper to get and send the motor telemetry frame.">
<polygon fill="white" stroke="#666666" points="572.5,-115.5 426.5,-115.5 426.5,-96.5 572.5,-96.5 572.5,-115.5"/>
<text text-anchor="middle" x="499.5" y="-103.5" font-family="Helvetica,sans-Serif" font-size="10.00">Telemetry::schedulerMotor</text>
</a>
</g>
</g>
<!-- Node17&#45;&gt;Node20 -->
<g id="edge21" class="edge">
<title>Node17&#45;&gt;Node20</title>
<path fill="none" stroke="#63b8ff" d="M388.26,-93.82C397.43,-94.83 406.89,-95.88 416.23,-96.91"/>
<polygon fill="#63b8ff" stroke="#63b8ff" points="415.98,-100.4 426.3,-98.02 416.75,-93.45 415.98,-100.4"/>
</g>
<!-- Node22 -->
<g id="node22" class="node">
<title>Node22</title>
<g id="a_node22"><a xlink:href="classTelemetry.html#ae0589db13eb47fa620f8fc8d9fd0f8be" target="_top" xlink:title="Internal helper to get and send the Pedal telemetry frame.">
<polygon fill="white" stroke="#666666" points="572,-75.5 427,-75.5 427,-56.5 572,-56.5 572,-75.5"/>
<text text-anchor="middle" x="499.5" y="-63.5" font-family="Helvetica,sans-Serif" font-size="10.00">Telemetry::schedulerPedal</text>
</a>
</g>
</g>
<!-- Node17&#45;&gt;Node22 -->
<g id="edge23" class="edge">
<title>Node17&#45;&gt;Node22</title>
<path fill="none" stroke="#63b8ff" d="M388.26,-78.18C397.58,-77.15 407.19,-76.09 416.68,-75.04"/>
<polygon fill="#63b8ff" stroke="#63b8ff" points="417.34,-78.49 426.9,-73.91 416.58,-71.53 417.34,-78.49"/>
</g>
<!-- Node19 -->
<g id="node19" class="node">
<title>Node19</title>
<g id="a_node19"><a xlink:href="structTelemetryFrameBms.html#a6b03b160b930c3a40a06e99f6e6cb175" target="_top" xlink:title="Converts the TelemetryFrameBms to a CAN frame.">
<polygon fill="white" stroke="#666666" points="735.5,-30 611.5,-30 611.5,0 735.5,0 735.5,-30"/>
<text text-anchor="start" x="619.5" y="-18" font-family="Helvetica,sans-Serif" font-size="10.00">TelemetryFrameBms::</text>
<text text-anchor="middle" x="673.5" y="-7" font-family="Helvetica,sans-Serif" font-size="10.00">toCanFrame</text>
</a>
</g>
</g>
<!-- Node18&#45;&gt;Node19 -->
<g id="edge20" class="edge">
<title>Node18&#45;&gt;Node19</title>
<path fill="none" stroke="#63b8ff" d="M569.96,-20.37C580.24,-19.83 590.85,-19.27 601.17,-18.73"/>
<polygon fill="#63b8ff" stroke="#63b8ff" points="601.56,-22.22 611.36,-18.2 601.19,-15.23 601.56,-22.22"/>
</g>
<!-- Node21 -->
<g id="node21" class="node">
<title>Node21</title>
<g id="a_node21"><a xlink:href="structTelemetryFrameMotor.html#a34bcb5a8f27caa3a1098c35c051236aa" target="_top" xlink:title="Converts the TelemetryFrameMotor to a CAN frame.">
<polygon fill="white" stroke="#666666" points="736,-126 611,-126 611,-96 736,-96 736,-126"/>
<text text-anchor="start" x="619" y="-114" font-family="Helvetica,sans-Serif" font-size="10.00">TelemetryFrameMotor</text>
<text text-anchor="middle" x="673.5" y="-103" font-family="Helvetica,sans-Serif" font-size="10.00">::toCanFrame</text>
</a>
</g>
</g>
<!-- Node20&#45;&gt;Node21 -->
<g id="edge22" class="edge">
<title>Node20&#45;&gt;Node21</title>
<path fill="none" stroke="#63b8ff" d="M572.94,-108.11C582.08,-108.37 591.43,-108.64 600.56,-108.91"/>
<polygon fill="#63b8ff" stroke="#63b8ff" points="600.66,-112.41 610.76,-109.21 600.86,-105.42 600.66,-112.41"/>
</g>
<!-- Node23 -->
<g id="node23" class="node">
<title>Node23</title>
<g id="a_node23"><a xlink:href="structTelemetryFramePedal.html#af36459761c019b01b84e3844f8c38f49" target="_top" xlink:title="Converts the TelemetryFramePedal to a CAN frame.">
<polygon fill="white" stroke="#666666" points="735,-78 612,-78 612,-48 735,-48 735,-78"/>
<text text-anchor="start" x="620" y="-66" font-family="Helvetica,sans-Serif" font-size="10.00">TelemetryFramePedal</text>
<text text-anchor="middle" x="673.5" y="-55" font-family="Helvetica,sans-Serif" font-size="10.00">::toCanFrame</text>
</a>
</g>
</g>
<!-- Node22&#45;&gt;Node23 -->
<g id="edge24" class="edge">
<title>Node22&#45;&gt;Node23</title>
<path fill="none" stroke="#63b8ff" d="M572.45,-64.75C582.05,-64.58 591.89,-64.41 601.47,-64.24"/>
<polygon fill="#63b8ff" stroke="#63b8ff" points="601.81,-67.73 611.75,-64.06 601.69,-60.73 601.81,-67.73"/>
</g>
</g>
</svg>
        <g id="navigator" transform="translate(0 0)" fill="#404254">
                <rect fill="#f2f5e9" fill-opacity="0.5" stroke="#606060" stroke-width=".5" x="0" y="0" width="60" height="60"/>
                <use id="zoomplus" xlink:href="#zoomPlus" x="17" y="9" onmousedown="handleZoom(evt,'in')"/>
                <use id="zoomminus" xlink:href="#zoomMin" x="42" y="9" onmousedown="handleZoom(evt,'out')"/>
                <use id="reset" xlink:href="#resetDef" x="30" y="36" onmousedown="handleReset()"/>
                <g id="arrowUp" xlink:href="#dirArrow" transform="translate(30 24)" onmousedown="handlePan(0,-1)">
                  <use xlink:href="#rim" fill="#404040">
                        <set attributeName="fill" to="#808080" begin="arrowUp.mouseover" end="arrowUp.mouseout"/>
                  </use>
                  <path fill="none" stroke="white" stroke-width="1.5" d="M0,-3.0v7 M-2.5,-0.5L0,-3.0L2.5,-0.5"/>
                </g>
                <g id="arrowRight" xlink:href="#dirArrow" transform="rotate(90) translate(36 -43)" onmousedown="handlePan(1,0)">
                  <use xlink:href="#rim" fill="#404040">
                        <set attributeName="fill" to="#808080" begin="arrowRight.mouseover" end="arrowRight.mouseout"/>
                  </use>
                  <path fill="none" stroke="white" stroke-width="1.5" d="M0,-3.0v7 M-2.5,-0.5L0,-3.0L2.5,-0.5"/>
                </g>
                <g id="arrowDown" xlink:href="#dirArrow" transform="rotate(180) translate(-30 -48)" onmousedown="handlePan(0,1)">
                  <use xlink:href="#rim" fill="#404040">
                        <set attributeName="fill" to="#808080" begin="arrowDown.mouseover" end="arrowDown.mouseout"/>
                  </use>
                  <path fill="none" stroke="white" stroke-width="1.5" d="M0,-3.0v7 M-2.5,-0.5L0,-3.0L2.5,-0.5"/>
                </g>
                <g id="arrowLeft" xlink:href="#dirArrow" transform="rotate(270) translate(-36 17)" onmousedown="handlePan(-1,0)">
                  <use xlink:href="#rim" fill="#404040">
                        <set attributeName="fill" to="#808080" begin="arrowLeft.mouseover" end="arrowLeft.mouseout"/>
                  </use>
                  <path fill="none" stroke="white" stroke-width="1.5" d="M0,-3.0v7 M-2.5,-0.5L0,-3.0L2.5,-0.5"/>
                </g>
        </g>
        <svg viewBox="0 0 15 15" width="100%" height="30px" preserveAspectRatio="xMaxYMin meet">
         <g id="arrow_out" transform="scale(0.3 0.3)">
          <a xlink:href="main_8cpp_a4fc01d736fe50cf5b977f755b675f11d_cgraph_org.svg" target="_base">
           <rect id="button" ry="5" rx="5" y="6" x="6" height="38" width="38"
                fill="#f2f5e9" fill-opacity="0.5" stroke="#606060" stroke-width="1.0"/>
           <path id="arrow"
             d="M 11.500037,31.436501 C 11.940474,20.09759 22.043105,11.32322 32.158766,21.979434 L 37.068811,17.246167 C 37.068811,17.246167 37.088388,32 37.088388,32 L 22.160133,31.978069 C 22.160133,31.978069 26.997745,27.140456 26.997745,27.140456 C 18.528582,18.264221 13.291696,25.230495 11.500037,31.436501 z"
             style="fill:#404040;"/>
          </a>
         </g>
        </svg>
</svg>
