<?xml version="1.0" encoding="UTF-8" standalone="no"?>
<!DOCTYPE svg PUBLIC "-//W3C//DTD SVG 1.1//EN"
 "http://www.w3.org/Graphics/SVG/1.1/DTD/svg11.dtd">
<!-- Generated by graphviz version 2.43.0 (0)
 -->
<!-- Title: ee_sw_vcu_2025/src/main.cpp Pages: 1 -->
<svg width="768pt" height="313pt"
 viewBox="0.00 0.00 768.38 313.00" xmlns="http://www.w3.org/2000/svg" xmlns:xlink="http://www.w3.org/1999/xlink">
<g id="graph0" class="graph" transform="scale(1 1) rotate(0) translate(4 309)">
<title>ee_sw_vcu_2025/src/main.cpp</title>
<!-- Node1 -->
<g id="node1" class="node">
<title>Node1</title>
<g id="a_node1"><a xlink:title="Main VCU program entry point.">
<polygon fill="#999999" stroke="#666666" points="453,-305 337,-305 337,-275 453,-275 453,-305"/>
<text text-anchor="start" x="345" y="-293" font-family="Helvetica,sans-Serif" font-size="10.00">ee_sw_vcu_2025/src</text>
<text text-anchor="middle" x="395" y="-282" font-family="Helvetica,sans-Serif" font-size="10.00">/main.cpp</text>
</a>
</g>
</g>
<!-- Node2 -->
<g id="node2" class="node">
<title>Node2</title>
<g id="a_node2"><a xlink:title=" ">
<polygon fill="#e0e0e0" stroke="#999999" points="133.5,-239 70.5,-239 70.5,-220 133.5,-220 133.5,-239"/>
<text text-anchor="middle" x="102" y="-227" font-family="Helvetica,sans-Serif" font-size="10.00">Arduino.h</text>
</a>
</g>
</g>
<!-- Node1&#45;&gt;Node2 -->
<g id="edge1" class="edge">
<title>Node1&#45;&gt;Node2</title>
<path fill="none" stroke="#63b8ff" d="M336.92,-277.62C288.12,-268.03 216.25,-253.83 143.98,-239.18"/>
<polygon fill="#63b8ff" stroke="#63b8ff" points="144.27,-235.67 133.78,-237.12 142.88,-242.53 144.27,-235.67"/>
</g>
<!-- Node3 -->
<g id="node3" class="node">
<title>Node3</title>
<g id="a_node3"><a xlink:title=" ">
<polygon fill="#e0e0e0" stroke="#999999" points="228,-239 152,-239 152,-220 228,-220 228,-239"/>
<text text-anchor="middle" x="190" y="-227" font-family="Helvetica,sans-Serif" font-size="10.00">BoardConf.h</text>
</a>
</g>
</g>
<!-- Node1&#45;&gt;Node3 -->
<g id="edge2" class="edge">
<title>Node1&#45;&gt;Node3</title>
<path fill="none" stroke="#63b8ff" d="M345.9,-274.99C310.37,-264.85 262.96,-251.32 229.78,-241.85"/>
<polygon fill="#63b8ff" stroke="#63b8ff" points="230.55,-238.43 219.97,-239.05 228.63,-245.16 230.55,-238.43"/>
</g>
<!-- Node4 -->
<g id="node4" class="node">
<title>Node4</title>
<g id="a_node4"><a xlink:href="Pedal_8hpp.html" target="_top" xlink:title="Declaration of the Pedal class for handling throttle and brake pedal inputs.">
<polygon fill="white" stroke="#666666" points="265.5,-184 200.5,-184 200.5,-165 265.5,-165 265.5,-184"/>
<text text-anchor="middle" x="233" y="-172" font-family="Helvetica,sans-Serif" font-size="10.00">Pedal.hpp</text>
</a>
</g>
</g>
<!-- Node1&#45;&gt;Node4 -->
<g id="edge3" class="edge">
<title>Node1&#45;&gt;Node4</title>
<path fill="none" stroke="#63b8ff" d="M348.02,-274.91C325.89,-266.76 300.02,-254.92 280,-239 264.11,-226.36 250.88,-207.1 242.54,-193.11"/>
<polygon fill="#63b8ff" stroke="#63b8ff" points="245.36,-190.98 237.37,-184.02 239.28,-194.44 245.36,-190.98"/>
</g>
<!-- Node6 -->
<g id="node6" class="node">
<title>Node6</title>
<g id="a_node6"><a xlink:href="CarState_8hpp.html" target="_top" xlink:title="Definition of the CarState structure representing the state of the car.">
<polygon fill="white" stroke="#666666" points="496,-129 416,-129 416,-110 496,-110 496,-129"/>
<text text-anchor="middle" x="456" y="-117" font-family="Helvetica,sans-Serif" font-size="10.00">CarState.hpp</text>
</a>
</g>
</g>
<!-- Node1&#45;&gt;Node6 -->
<g id="edge32" class="edge">
<title>Node1&#45;&gt;Node6</title>
<path fill="none" stroke="#63b8ff" d="M401.6,-274.97C410.8,-255.05 427.63,-217.29 439,-184 444.08,-169.13 448.61,-151.89 451.72,-139.13"/>
<polygon fill="#63b8ff" stroke="#63b8ff" points="455.16,-139.78 454.06,-129.24 448.35,-138.16 455.16,-139.78"/>
</g>
<!-- Node7 -->
<g id="node7" class="node">
<title>Node7</title>
<g id="a_node7"><a xlink:href="Enums_8hpp.html" target="_top" xlink:title="Enumeration definitions for the VCU.">
<polygon fill="white" stroke="#666666" points="443.5,-74 372.5,-74 372.5,-55 443.5,-55 443.5,-74"/>
<text text-anchor="middle" x="408" y="-62" font-family="Helvetica,sans-Serif" font-size="10.00">Enums.hpp</text>
</a>
</g>
</g>
<!-- Node1&#45;&gt;Node7 -->
<g id="edge31" class="edge">
<title>Node1&#45;&gt;Node7</title>
<path fill="none" stroke="#63b8ff" d="M384.19,-274.72C368.24,-251.87 341.37,-205.56 352,-165 360.29,-133.36 381.16,-101.17 394.95,-82.29"/>
<polygon fill="#63b8ff" stroke="#63b8ff" points="397.85,-84.24 401.06,-74.14 392.26,-80.04 397.85,-84.24"/>
</g>
<!-- Node10 -->
<g id="node10" class="node">
<title>Node10</title>
<g id="a_node10"><a xlink:href="Curves_8hpp.html" target="_top" xlink:title="Definition of throttle and brake mapping tables.">
<polygon fill="white" stroke="#666666" points="321.5,-129 250.5,-129 250.5,-110 321.5,-110 321.5,-129"/>
<text text-anchor="middle" x="286" y="-117" font-family="Helvetica,sans-Serif" font-size="10.00">Curves.hpp</text>
</a>
</g>
</g>
<!-- Node1&#45;&gt;Node10 -->
<g id="edge34" class="edge">
<title>Node1&#45;&gt;Node10</title>
<path fill="none" stroke="#63b8ff" d="M362.82,-274.96C347.17,-266.61 329.35,-254.59 318,-239 296.02,-208.81 289.14,-164.42 286.98,-139.42"/>
<polygon fill="#63b8ff" stroke="#63b8ff" points="290.45,-138.87 286.27,-129.14 283.47,-139.35 290.45,-138.87"/>
</g>
<!-- Node13 -->
<g id="node13" class="node">
<title>Node13</title>
<g id="a_node13"><a xlink:title=" ">
<polygon fill="#e0e0e0" stroke="#999999" points="740.5,-74 669.5,-74 669.5,-55 740.5,-55 740.5,-74"/>
<text text-anchor="middle" x="705" y="-62" font-family="Helvetica,sans-Serif" font-size="10.00">mcp2515.h</text>
</a>
</g>
</g>
<!-- Node1&#45;&gt;Node13 -->
<g id="edge38" class="edge">
<title>Node1&#45;&gt;Node13</title>
<path fill="none" stroke="#63b8ff" d="M453.21,-281.95C503.68,-274.72 578.13,-261.3 640,-239 688.82,-221.41 712.79,-226.2 743,-184 762.28,-157.06 765.1,-140.43 752,-110 746.85,-98.03 736.71,-87.76 727.17,-80.12"/>
<polygon fill="#63b8ff" stroke="#63b8ff" points="729.19,-77.26 719.07,-74.11 725.01,-82.88 729.19,-77.26"/>
</g>
<!-- Node14 -->
<g id="node14" class="node">
<title>Node14</title>
<g id="a_node14"><a xlink:href="BMS_8hpp.html" target="_top" xlink:title="Declaration of the BMS class for managing the Accumulator (Kclear BMS) via CAN bus.">
<polygon fill="white" stroke="#666666" points="605.5,-239 546.5,-239 546.5,-220 605.5,-220 605.5,-239"/>
<text text-anchor="middle" x="576" y="-227" font-family="Helvetica,sans-Serif" font-size="10.00">BMS.hpp</text>
</a>
</g>
</g>
<!-- Node1&#45;&gt;Node14 -->
<g id="edge21" class="edge">
<title>Node1&#45;&gt;Node14</title>
<path fill="none" stroke="#63b8ff" d="M438.35,-274.99C469.32,-264.98 510.5,-251.67 539.73,-242.22"/>
<polygon fill="#63b8ff" stroke="#63b8ff" points="541.1,-245.46 549.53,-239.05 538.94,-238.8 541.1,-245.46"/>
</g>
<!-- Node15 -->
<g id="node15" class="node">
<title>Node15</title>
<g id="a_node15"><a xlink:href="Scheduler_8hpp.html" target="_top" xlink:title="Declaration of the Scheduler class template, for scheduling tasks on multiple MCP2515 instances.">
<polygon fill="white" stroke="#666666" points="712.5,-184 627.5,-184 627.5,-165 712.5,-165 712.5,-184"/>
<text text-anchor="middle" x="670" y="-172" font-family="Helvetica,sans-Serif" font-size="10.00">Scheduler.hpp</text>
</a>
</g>
</g>
<!-- Node1&#45;&gt;Node15 -->
<g id="edge33" class="edge">
<title>Node1&#45;&gt;Node15</title>
<path fill="none" stroke="#63b8ff" d="M453.36,-285.68C499.97,-280.79 565.45,-268.72 615,-239 634.08,-227.55 649.96,-207.2 659.67,-192.61"/>
<polygon fill="#63b8ff" stroke="#63b8ff" points="662.72,-194.33 665.13,-184.02 656.81,-190.58 662.72,-194.33"/>
</g>
<!-- Node17 -->
<g id="node17" class="node">
<title>Node17</title>
<g id="a_node17"><a xlink:href="Telemetry_8hpp.html" target="_top" xlink:title="Declaration of the Telemetry class for sending telemetry data over CAN bus.">
<polygon fill="white" stroke="#666666" points="609.5,-184 524.5,-184 524.5,-165 609.5,-165 609.5,-184"/>
<text text-anchor="middle" x="567" y="-172" font-family="Helvetica,sans-Serif" font-size="10.00">Telemetry.hpp</text>
</a>
</g>
</g>
<!-- Node1&#45;&gt;Node17 -->
<g id="edge35" class="edge">
<title>Node1&#45;&gt;Node17</title>
<path fill="none" stroke="#63b8ff" d="M416.96,-274.85C432.39,-264.88 453.5,-251.19 472,-239 497.46,-222.23 526.58,-202.71 545.8,-189.79"/>
<polygon fill="#63b8ff" stroke="#63b8ff" points="547.79,-192.67 554.13,-184.18 543.88,-186.86 547.79,-192.67"/>
</g>
<!-- Node18 -->
<g id="node18" class="node">
<title>Node18</title>
<g id="a_node18"><a xlink:href="Debug_8hpp.html" target="_top" xlink:title="Debugging macros and functions for serial and CAN output.">
<polygon fill="white" stroke="#666666" points="429.5,-184 360.5,-184 360.5,-165 429.5,-165 429.5,-184"/>
<text text-anchor="middle" x="395" y="-172" font-family="Helvetica,sans-Serif" font-size="10.00">Debug.hpp</text>
</a>
</g>
</g>
<!-- Node1&#45;&gt;Node18 -->
<g id="edge39" class="edge">
<title>Node1&#45;&gt;Node18</title>
<path fill="none" stroke="#63b8ff" d="M395,-274.63C395,-254.21 395,-216.81 395,-194.24"/>
<polygon fill="#63b8ff" stroke="#63b8ff" points="398.5,-194.23 395,-184.23 391.5,-194.23 398.5,-194.23"/>
</g>
<!-- Node5 -->
<g id="node5" class="node">
<title>Node5</title>
<g id="a_node5"><a xlink:title=" ">
<polygon fill="#e0e0e0" stroke="#999999" points="302.5,-19 249.5,-19 249.5,0 302.5,0 302.5,-19"/>
<text text-anchor="middle" x="276" y="-7" font-family="Helvetica,sans-Serif" font-size="10.00">stdint.h</text>
</a>
</g>
</g>
<!-- Node4&#45;&gt;Node5 -->
<g id="edge4" class="edge">
<title>Node4&#45;&gt;Node5</title>
<path fill="none" stroke="#63b8ff" d="M226.76,-164.9C212.82,-144.55 182.01,-92.38 203,-55 211.11,-40.56 226.01,-30.26 240.25,-23.22"/>
<polygon fill="#63b8ff" stroke="#63b8ff" points="241.77,-26.38 249.43,-19.06 238.88,-20 241.77,-26.38"/>
</g>
<!-- Node4&#45;&gt;Node6 -->
<g id="edge5" class="edge">
<title>Node4&#45;&gt;Node6</title>
<path fill="none" stroke="#63b8ff" d="M265.9,-165.68C304.04,-156.62 367.13,-141.62 410.08,-131.41"/>
<polygon fill="#63b8ff" stroke="#63b8ff" points="411.08,-134.77 420,-129.06 409.46,-127.96 411.08,-134.77"/>
</g>
<!-- Node9 -->
<g id="node9" class="node">
<title>Node9</title>
<g id="a_node9"><a xlink:href="Interp_8hpp.html" target="_top" xlink:title="Declaration and definition of the LinearInterp class template for linear interpolation.">
<polygon fill="white" stroke="#666666" points="278,-74 212,-74 212,-55 278,-55 278,-74"/>
<text text-anchor="middle" x="245" y="-62" font-family="Helvetica,sans-Serif" font-size="10.00">Interp.hpp</text>
</a>
</g>
</g>
<!-- Node4&#45;&gt;Node9 -->
<g id="edge11" class="edge">
<title>Node4&#45;&gt;Node9</title>
<path fill="none" stroke="#63b8ff" d="M233.98,-164.66C235.93,-147.17 240.3,-107.8 242.91,-84.27"/>
<polygon fill="#63b8ff" stroke="#63b8ff" points="246.41,-84.48 244.04,-74.16 239.45,-83.71 246.41,-84.48"/>
</g>
<!-- Node4&#45;&gt;Node10 -->
<g id="edge13" class="edge">
<title>Node4&#45;&gt;Node10</title>
<path fill="none" stroke="#63b8ff" d="M241.75,-164.75C249.47,-157.03 260.9,-145.6 270.22,-136.28"/>
<polygon fill="#63b8ff" stroke="#63b8ff" points="272.81,-138.64 277.41,-129.09 267.86,-133.69 272.81,-138.64"/>
</g>
<!-- Node11 -->
<g id="node11" class="node">
<title>Node11</title>
<g id="a_node11"><a xlink:href="SignalProcessing_8hpp.html" target="_top" xlink:title="Declaration of signal processing functions.">
<polygon fill="white" stroke="#666666" points="138,-129 18,-129 18,-110 138,-110 138,-129"/>
<text text-anchor="middle" x="78" y="-117" font-family="Helvetica,sans-Serif" font-size="10.00">SignalProcessing.hpp</text>
</a>
</g>
</g>
<!-- Node4&#45;&gt;Node11 -->
<g id="edge16" class="edge">
<title>Node4&#45;&gt;Node11</title>
<path fill="none" stroke="#63b8ff" d="M208.1,-164.98C182.3,-156.16 141.78,-142.31 112.82,-132.41"/>
<polygon fill="#63b8ff" stroke="#63b8ff" points="113.69,-129.01 103.1,-129.08 111.43,-135.63 113.69,-129.01"/>
</g>
<!-- Node4&#45;&gt;Node13 -->
<g id="edge20" class="edge">
<title>Node4&#45;&gt;Node13</title>
<path fill="none" stroke="#63b8ff" d="M265.54,-169.73C316.88,-163.43 419.6,-149.43 505,-129 564.97,-114.65 633.07,-91.52 672.34,-77.49"/>
<polygon fill="#63b8ff" stroke="#63b8ff" points="673.68,-80.72 681.91,-74.04 671.31,-74.14 673.68,-80.72"/>
</g>
<!-- Node6&#45;&gt;Node5 -->
<g id="edge10" class="edge">
<title>Node6&#45;&gt;Node5</title>
<path fill="none" stroke="#63b8ff" d="M435.73,-109.92C416.73,-101.6 387.77,-88.18 364,-74 339.06,-59.13 312.25,-39.14 294.87,-25.6"/>
<polygon fill="#63b8ff" stroke="#63b8ff" points="296.71,-22.6 286.69,-19.16 292.38,-28.1 296.71,-22.6"/>
</g>
<!-- Node6&#45;&gt;Node7 -->
<g id="edge6" class="edge">
<title>Node6&#45;&gt;Node7</title>
<path fill="none" stroke="#63b8ff" d="M448.07,-109.75C441.15,-102.11 430.93,-90.82 422.55,-81.56"/>
<polygon fill="#63b8ff" stroke="#63b8ff" points="425.09,-79.15 415.78,-74.09 419.9,-83.85 425.09,-79.15"/>
</g>
<!-- Node8 -->
<g id="node8" class="node">
<title>Node8</title>
<g id="a_node8"><a xlink:title=" ">
<polygon fill="#e0e0e0" stroke="#999999" points="461.5,-19 418.5,-19 418.5,0 461.5,0 461.5,-19"/>
<text text-anchor="middle" x="440" y="-7" font-family="Helvetica,sans-Serif" font-size="10.00">can.h</text>
</a>
</g>
</g>
<!-- Node6&#45;&gt;Node8 -->
<g id="edge9" class="edge">
<title>Node6&#45;&gt;Node8</title>
<path fill="none" stroke="#63b8ff" d="M456.24,-109.8C456.43,-97.51 456.24,-74.38 453,-55 451.54,-46.27 448.93,-36.82 446.44,-28.89"/>
<polygon fill="#63b8ff" stroke="#63b8ff" points="449.7,-27.6 443.22,-19.22 443.06,-29.82 449.7,-27.6"/>
</g>
<!-- Node7&#45;&gt;Node5 -->
<g id="edge7" class="edge">
<title>Node7&#45;&gt;Node5</title>
<path fill="none" stroke="#63b8ff" d="M386.79,-54.98C365.27,-46.34 331.72,-32.87 307.17,-23.02"/>
<polygon fill="#63b8ff" stroke="#63b8ff" points="308.18,-19.65 297.59,-19.17 305.57,-26.14 308.18,-19.65"/>
</g>
<!-- Node7&#45;&gt;Node8 -->
<g id="edge8" class="edge">
<title>Node7&#45;&gt;Node8</title>
<path fill="none" stroke="#63b8ff" d="M413.28,-54.75C417.71,-47.42 424.16,-36.73 429.62,-27.7"/>
<polygon fill="#63b8ff" stroke="#63b8ff" points="432.64,-29.46 434.81,-19.09 426.65,-25.84 432.64,-29.46"/>
</g>
<!-- Node9&#45;&gt;Node5 -->
<g id="edge12" class="edge">
<title>Node9&#45;&gt;Node5</title>
<path fill="none" stroke="#63b8ff" d="M250.12,-54.75C254.36,-47.49 260.53,-36.95 265.78,-27.98"/>
<polygon fill="#63b8ff" stroke="#63b8ff" points="268.95,-29.49 270.98,-19.09 262.91,-25.95 268.95,-29.49"/>
</g>
<!-- Node10&#45;&gt;Node5 -->
<g id="edge15" class="edge">
<title>Node10&#45;&gt;Node5</title>
<path fill="none" stroke="#63b8ff" d="M286.88,-109.83C287.96,-97.57 289.37,-74.48 287,-55 285.94,-46.31 283.76,-36.87 281.62,-28.93"/>
<polygon fill="#63b8ff" stroke="#63b8ff" points="284.96,-27.89 278.83,-19.25 278.23,-29.83 284.96,-27.89"/>
</g>
<!-- Node10&#45;&gt;Node9 -->
<g id="edge14" class="edge">
<title>Node10&#45;&gt;Node9</title>
<path fill="none" stroke="#63b8ff" d="M279.23,-109.75C273.44,-102.26 264.94,-91.28 257.86,-82.13"/>
<polygon fill="#63b8ff" stroke="#63b8ff" points="260.53,-79.86 251.64,-74.09 254.99,-84.14 260.53,-79.86"/>
</g>
<!-- Node11&#45;&gt;Node5 -->
<g id="edge17" class="edge">
<title>Node11&#45;&gt;Node5</title>
<path fill="none" stroke="#63b8ff" d="M88.85,-109.9C105.59,-96.9 139.02,-71.96 170,-55 193.28,-42.26 220.96,-30.75 242.2,-22.63"/>
<polygon fill="#63b8ff" stroke="#63b8ff" points="243.64,-25.83 251.77,-19.04 241.18,-19.28 243.64,-25.83"/>
</g>
<!-- Node12 -->
<g id="node12" class="node">
<title>Node12</title>
<g id="a_node12"><a xlink:href="SignalProcessing_8tpp.html" target="_top" xlink:title="Definition of Signal Processing functions.">
<polygon fill="white" stroke="#666666" points="118,-74 0,-74 0,-55 118,-55 118,-74"/>
<text text-anchor="middle" x="59" y="-62" font-family="Helvetica,sans-Serif" font-size="10.00">SignalProcessing.tpp</text>
</a>
</g>
</g>
<!-- Node11&#45;&gt;Node12 -->
<g id="edge18" class="edge">
<title>Node11&#45;&gt;Node12</title>
<path fill="none" stroke="#63b8ff" d="M69.7,-109.75C65.71,-102.8 61.71,-92.85 59.2,-84.13"/>
<polygon fill="#63b8ff" stroke="#63b8ff" points="62.55,-83.08 56.95,-74.09 55.72,-84.61 62.55,-83.08"/>
</g>
<!-- Node12&#45;&gt;Node11 -->
<g id="edge19" class="edge">
<title>Node12&#45;&gt;Node11</title>
<path fill="none" stroke="#63b8ff" d="M67.21,-74.09C71.24,-81.06 75.3,-91.15 77.82,-99.95"/>
<polygon fill="#63b8ff" stroke="#63b8ff" points="74.42,-100.76 80.03,-109.75 81.25,-99.22 74.42,-100.76"/>
</g>
<!-- Node14&#45;&gt;Node6 -->
<g id="edge29" class="edge">
<title>Node14&#45;&gt;Node6</title>
<path fill="none" stroke="#63b8ff" d="M563.09,-219.91C550.59,-211.37 531.32,-197.6 516,-184 499.25,-169.13 481.86,-150.29 470.14,-137.01"/>
<polygon fill="#63b8ff" stroke="#63b8ff" points="472.53,-134.42 463.33,-129.17 467.25,-139.02 472.53,-134.42"/>
</g>
<!-- Node14&#45;&gt;Node13 -->
<g id="edge30" class="edge">
<title>Node14&#45;&gt;Node13</title>
<path fill="none" stroke="#63b8ff" d="M605.59,-227.71C638.62,-225.2 691.45,-216.01 722,-184 745.11,-159.79 746.03,-141.94 736,-110 732.77,-99.71 726.22,-89.72 719.97,-81.82"/>
<polygon fill="#63b8ff" stroke="#63b8ff" points="722.61,-79.52 713.48,-74.15 717.27,-84.04 722.61,-79.52"/>
</g>
<!-- Node14&#45;&gt;Node15 -->
<g id="edge22" class="edge">
<title>Node14&#45;&gt;Node15</title>
<path fill="none" stroke="#63b8ff" d="M591.1,-219.98C605.82,-211.69 628.42,-198.94 645.67,-189.22"/>
<polygon fill="#63b8ff" stroke="#63b8ff" points="647.63,-192.13 654.62,-184.17 644.19,-186.03 647.63,-192.13"/>
</g>
<!-- Node15&#45;&gt;Node7 -->
<g id="edge23" class="edge">
<title>Node15&#45;&gt;Node7</title>
<path fill="none" stroke="#63b8ff" d="M649,-164.84C602.71,-145.76 491.72,-100.01 438.06,-77.89"/>
<polygon fill="#63b8ff" stroke="#63b8ff" points="439.31,-74.62 428.73,-74.05 436.65,-81.09 439.31,-74.62"/>
</g>
<!-- Node15&#45;&gt;Node13 -->
<g id="edge24" class="edge">
<title>Node15&#45;&gt;Node13</title>
<path fill="none" stroke="#63b8ff" d="M685.73,-164.88C697.88,-157.23 713.8,-144.83 721,-129 727.75,-114.15 721.91,-96.01 715.47,-82.92"/>
<polygon fill="#63b8ff" stroke="#63b8ff" points="718.49,-81.15 710.63,-74.04 712.35,-84.5 718.49,-81.15"/>
</g>
<!-- Node16 -->
<g id="node16" class="node">
<title>Node16</title>
<g id="a_node16"><a xlink:href="Scheduler_8tpp.html" target="_top" xlink:title="Implementation of the Scheduler class template.">
<polygon fill="white" stroke="#666666" points="711.5,-129 628.5,-129 628.5,-110 711.5,-110 711.5,-129"/>
<text text-anchor="middle" x="670" y="-117" font-family="Helvetica,sans-Serif" font-size="10.00">Scheduler.tpp</text>
</a>
</g>
</g>
<!-- Node15&#45;&gt;Node16 -->
<g id="edge25" class="edge">
<title>Node15&#45;&gt;Node16</title>
<path fill="none" stroke="#63b8ff" d="M664.83,-164.75C663.34,-157.8 662.9,-147.85 663.52,-139.13"/>
<polygon fill="#63b8ff" stroke="#63b8ff" points="667.01,-139.47 664.87,-129.09 660.07,-138.53 667.01,-139.47"/>
</g>
<!-- Node16&#45;&gt;Node7 -->
<g id="edge26" class="edge">
<title>Node16&#45;&gt;Node7</title>
<path fill="none" stroke="#63b8ff" d="M628.49,-110.1C580.93,-100.48 503.25,-84.77 453.92,-74.79"/>
<polygon fill="#63b8ff" stroke="#63b8ff" points="454.34,-71.3 443.85,-72.75 452.95,-78.16 454.34,-71.3"/>
</g>
<!-- Node16&#45;&gt;Node13 -->
<g id="edge27" class="edge">
<title>Node16&#45;&gt;Node13</title>
<path fill="none" stroke="#63b8ff" d="M675.78,-109.75C680.62,-102.42 687.68,-91.73 693.64,-82.7"/>
<polygon fill="#63b8ff" stroke="#63b8ff" points="696.74,-84.36 699.33,-74.09 690.9,-80.5 696.74,-84.36"/>
</g>
<!-- Node16&#45;&gt;Node15 -->
<g id="edge28" class="edge">
<title>Node16&#45;&gt;Node15</title>
<path fill="none" stroke="#63b8ff" d="M675.13,-129.09C676.64,-135.99 677.09,-145.93 676.49,-154.66"/>
<polygon fill="#63b8ff" stroke="#63b8ff" points="673,-154.38 675.17,-164.75 679.94,-155.29 673,-154.38"/>
</g>
<!-- Node17&#45;&gt;Node6 -->
<g id="edge36" class="edge">
<title>Node17&#45;&gt;Node6</title>
<path fill="none" stroke="#63b8ff" d="M549.17,-164.98C531.39,-156.5 503.85,-143.35 483.32,-133.54"/>
<polygon fill="#63b8ff" stroke="#63b8ff" points="484.69,-130.32 474.16,-129.17 481.67,-136.64 484.69,-130.32"/>
</g>
<!-- Node17&#45;&gt;Node13 -->
<g id="edge37" class="edge">
<title>Node17&#45;&gt;Node13</title>
<path fill="none" stroke="#63b8ff" d="M572.63,-164.76C581.45,-151.58 599.66,-126.41 620,-110 636.26,-96.89 656.98,-85.94 673.9,-78.19"/>
<polygon fill="#63b8ff" stroke="#63b8ff" points="675.63,-81.25 683.35,-74 672.79,-74.85 675.63,-81.25"/>
</g>
<!-- Node18&#45;&gt;Node7 -->
<g id="edge40" class="edge">
<title>Node18&#45;&gt;Node7</title>
<path fill="none" stroke="#63b8ff" d="M396.06,-164.66C398.17,-147.17 402.91,-107.8 405.74,-84.27"/>
<polygon fill="#63b8ff" stroke="#63b8ff" points="409.24,-84.51 406.96,-74.16 402.29,-83.67 409.24,-84.51"/>
</g>
</g>
</svg>
