<?xml version="1.0" encoding="UTF-8" standalone="no"?>
<!DOCTYPE svg PUBLIC "-//W3C//DTD SVG 1.1//EN"
 "http://www.w3.org/Graphics/SVG/1.1/DTD/svg11.dtd">
<!-- Generated by graphviz version 2.43.0 (0)
 -->
<!-- Title: src/main.cpp Pages: 1 -->
<svg width="379pt" height="137pt"
 viewBox="0.00 0.00 379.00 137.00" xmlns="http://www.w3.org/2000/svg" xmlns:xlink="http://www.w3.org/1999/xlink">
<g id="graph0" class="graph" transform="scale(1 1) rotate(0) translate(4 133)">
<title>src/main.cpp</title>
<!-- Node1 -->
<g id="node1" class="node">
<title>Node1</title>
<g id="a_node1"><a xlink:title=" ">
<polygon fill="#999999" stroke="#666666" points="255,-129 176,-129 176,-110 255,-110 255,-129"/>
<text text-anchor="middle" x="215.5" y="-117" font-family="Helvetica,sans-Serif" font-size="10.00">src/main.cpp</text>
</a>
</g>
</g>
<!-- Node2 -->
<g id="node2" class="node">
<title>Node2</title>
<g id="a_node2"><a xlink:title=" ">
<polygon fill="#e0e0e0" stroke="#999999" points="63,-74 0,-74 0,-55 63,-55 63,-74"/>
<text text-anchor="middle" x="31.5" y="-62" font-family="Helvetica,sans-Serif" font-size="10.00">Arduino.h</text>
</a>
</g>
</g>
<!-- Node1&#45;&gt;Node2 -->
<g id="edge1" class="edge">
<title>Node1&#45;&gt;Node2</title>
<path fill="none" stroke="#63b8ff" d="M185.94,-109.98C154.78,-101.01 105.53,-86.82 71.04,-76.89"/>
<polygon fill="#63b8ff" stroke="#63b8ff" points="71.87,-73.49 61.29,-74.08 69.93,-80.21 71.87,-73.49"/>
</g>
<!-- Node3 -->
<g id="node3" class="node">
<title>Node3</title>
<g id="a_node3"><a xlink:title=" ">
<polygon fill="#e0e0e0" stroke="#999999" points="143.5,-74 81.5,-74 81.5,-55 143.5,-55 143.5,-74"/>
<text text-anchor="middle" x="112.5" y="-62" font-family="Helvetica,sans-Serif" font-size="10.00">pinMap.h</text>
</a>
</g>
</g>
<!-- Node1&#45;&gt;Node3 -->
<g id="edge2" class="edge">
<title>Node1&#45;&gt;Node3</title>
<path fill="none" stroke="#63b8ff" d="M198.95,-109.98C182.61,-101.57 157.37,-88.59 138.37,-78.81"/>
<polygon fill="#63b8ff" stroke="#63b8ff" points="139.84,-75.63 129.35,-74.17 136.64,-81.86 139.84,-75.63"/>
</g>
<!-- Node4 -->
<g id="node4" class="node">
<title>Node4</title>
<g id="a_node4"><a xlink:href="Pedal_8h.html" target="_top" xlink:title=" ">
<polygon fill="white" stroke="#666666" points="215,-74 162,-74 162,-55 215,-55 215,-74"/>
<text text-anchor="middle" x="188.5" y="-62" font-family="Helvetica,sans-Serif" font-size="10.00">Pedal.h</text>
</a>
</g>
</g>
<!-- Node1&#45;&gt;Node4 -->
<g id="edge3" class="edge">
<title>Node1&#45;&gt;Node4</title>
<path fill="none" stroke="#63b8ff" d="M211.04,-109.75C207.38,-102.57 202.09,-92.18 197.55,-83.27"/>
<polygon fill="#63b8ff" stroke="#63b8ff" points="200.53,-81.41 192.88,-74.09 194.3,-84.59 200.53,-81.41"/>
</g>
<!-- Node6 -->
<g id="node6" class="node">
<title>Node6</title>
<g id="a_node6"><a xlink:title=" ">
<polygon fill="#e0e0e0" stroke="#999999" points="279,-19 208,-19 208,0 279,0 279,-19"/>
<text text-anchor="middle" x="243.5" y="-7" font-family="Helvetica,sans-Serif" font-size="10.00">mcp2515.h</text>
</a>
</g>
</g>
<!-- Node1&#45;&gt;Node6 -->
<g id="edge6" class="edge">
<title>Node1&#45;&gt;Node6</title>
<path fill="none" stroke="#63b8ff" d="M217.79,-109.66C222.35,-92.09 232.62,-52.45 238.72,-28.95"/>
<polygon fill="#63b8ff" stroke="#63b8ff" points="242.13,-29.72 241.26,-19.16 235.36,-27.96 242.13,-29.72"/>
</g>
<!-- Node7 -->
<g id="node7" class="node">
<title>Node7</title>
<g id="a_node7"><a xlink:href="Debug_8h.html" target="_top" xlink:title=" ">
<polygon fill="white" stroke="#666666" points="329,-74 272,-74 272,-55 329,-55 329,-74"/>
<text text-anchor="middle" x="300.5" y="-62" font-family="Helvetica,sans-Serif" font-size="10.00">Debug.h</text>
</a>
</g>
</g>
<!-- Node1&#45;&gt;Node7 -->
<g id="edge7" class="edge">
<title>Node1&#45;&gt;Node7</title>
<path fill="none" stroke="#63b8ff" d="M229.16,-109.98C242.34,-101.77 262.53,-89.18 278.07,-79.49"/>
<polygon fill="#63b8ff" stroke="#63b8ff" points="279.96,-82.43 286.59,-74.17 276.26,-76.49 279.96,-82.43"/>
</g>
<!-- Node8 -->
<g id="node8" class="node">
<title>Node8</title>
<g id="a_node8"><a xlink:title=" ">
<polygon fill="#e0e0e0" stroke="#999999" points="371,-19 312,-19 312,0 371,0 371,-19"/>
<text text-anchor="middle" x="341.5" y="-7" font-family="Helvetica,sans-Serif" font-size="10.00">Enums.h</text>
</a>
</g>
</g>
<!-- Node1&#45;&gt;Node8 -->
<g id="edge9" class="edge">
<title>Node1&#45;&gt;Node8</title>
<path fill="none" stroke="#63b8ff" d="M255.27,-115.37C283.36,-110.88 319.29,-100.04 338.5,-74 347.81,-61.37 347.71,-43.18 345.77,-29.5"/>
<polygon fill="#63b8ff" stroke="#63b8ff" points="349.14,-28.49 343.88,-19.3 342.26,-29.77 349.14,-28.49"/>
</g>
<!-- Node5 -->
<g id="node5" class="node">
<title>Node5</title>
<g id="a_node5"><a xlink:href="Queue_8h.html" target="_top" xlink:title=" ">
<polygon fill="white" stroke="#666666" points="190,-19 133,-19 133,0 190,0 190,-19"/>
<text text-anchor="middle" x="161.5" y="-7" font-family="Helvetica,sans-Serif" font-size="10.00">Queue.h</text>
</a>
</g>
</g>
<!-- Node4&#45;&gt;Node5 -->
<g id="edge4" class="edge">
<title>Node4&#45;&gt;Node5</title>
<path fill="none" stroke="#63b8ff" d="M184.04,-54.75C180.38,-47.57 175.09,-37.18 170.55,-28.27"/>
<polygon fill="#63b8ff" stroke="#63b8ff" points="173.53,-26.41 165.88,-19.09 167.3,-29.59 173.53,-26.41"/>
</g>
<!-- Node4&#45;&gt;Node6 -->
<g id="edge5" class="edge">
<title>Node4&#45;&gt;Node6</title>
<path fill="none" stroke="#63b8ff" d="M197.58,-54.75C205.59,-47.03 217.46,-35.6 227.12,-26.28"/>
<polygon fill="#63b8ff" stroke="#63b8ff" points="229.81,-28.55 234.59,-19.09 224.96,-23.51 229.81,-28.55"/>
</g>
<!-- Node7&#45;&gt;Node8 -->
<g id="edge8" class="edge">
<title>Node7&#45;&gt;Node8</title>
<path fill="none" stroke="#63b8ff" d="M307.27,-54.75C313.06,-47.26 321.56,-36.28 328.64,-27.13"/>
<polygon fill="#63b8ff" stroke="#63b8ff" points="331.51,-29.14 334.86,-19.09 325.97,-24.86 331.51,-29.14"/>
</g>
</g>
</svg>
