<?xml version="1.0" encoding="UTF-8" standalone="no"?>
<!DOCTYPE svg PUBLIC "-//W3C//DTD SVG 1.1//EN"
 "http://www.w3.org/Graphics/SVG/1.1/DTD/svg11.dtd">
<!-- Generated by graphviz version 2.43.0 (0)
 -->
<!-- Title: src/main.cpp Pages: 1 -->
<!--zoomable 247 -->
<svg id="main" version="1.1" xmlns="http://www.w3.org/2000/svg" xmlns:xlink="http://www.w3.org/1999/xlink" xml:space="preserve" onload="init(evt)">
<style type="text/css"><![CDATA[
.edge:hover path { stroke: red; }
.edge:hover polygon { stroke: red; fill: red; }
]]></style>
<script type="text/javascript"><![CDATA[
var edges = document.getElementsByTagName('g');
if (edges && edges.length) {
  for (var i=0;i<edges.length;i++) {
    if (edges[i].id.substr(0,4)=='edge') {
      edges[i].setAttribute('class','edge');
    }
  }
}
]]></script>
        <defs>
                <circle id="rim" cx="0" cy="0" r="7"/>
                <circle id="rim2" cx="0" cy="0" r="3.5"/>
                <g id="zoomPlus">
                        <use xlink:href="#rim" fill="#404040">
                                <set attributeName="fill" to="#808080" begin="zoomplus.mouseover" end="zoomplus.mouseout"/>
                        </use>
                        <path d="M-4,0h8M0,-4v8" fill="none" stroke="white" stroke-width="1.5" pointer-events="none"/>
                </g>
                <g id="zoomMin">
                        <use xlink:href="#rim" fill="#404040">
                                <set attributeName="fill" to="#808080" begin="zoomminus.mouseover" end="zoomminus.mouseout"/>
                        </use>
                        <path d="M-4,0h8" fill="none" stroke="white" stroke-width="1.5" pointer-events="none"/>
                </g>
                <g id="dirArrow">
                        <path fill="none" stroke="white" stroke-width="1.5" d="M0,-3.0v7 M-2.5,-0.5L0,-3.0L2.5,-0.5"/>
                </g>
               <g id="resetDef">
                       <use xlink:href="#rim2" fill="#404040">
                               <set attributeName="fill" to="#808080" begin="reset.mouseover" end="reset.mouseout"/>
                       </use>
               </g>
        </defs>

<script type="text/javascript">
var viewWidth = 688;
var viewHeight = 247;
var sectionId = 'dynsection-0';
</script>
<script xlink:href="svgpan.js"/>
<svg id="graph" class="graph">
<g id="viewport">
<title>src/main.cpp</title>
<!-- Node1 -->
<g id="node1" class="node">
<title>Node1</title>
<g id="a_node1"><a xlink:title=" ">
<polygon fill="#999999" stroke="#666666" points="408,-239 329,-239 329,-220 408,-220 408,-239"/>
<text text-anchor="middle" x="368.5" y="-227" font-family="Helvetica,sans-Serif" font-size="10.00">src/main.cpp</text>
</a>
</g>
</g>
<!-- Node2 -->
<g id="node2" class="node">
<title>Node2</title>
<g id="a_node2"><a xlink:title=" ">
<polygon fill="#e0e0e0" stroke="#999999" points="80,-184 17,-184 17,-165 80,-165 80,-184"/>
<text text-anchor="middle" x="48.5" y="-172" font-family="Helvetica,sans-Serif" font-size="10.00">Arduino.h</text>
</a>
</g>
</g>
<!-- Node1&#45;&gt;Node2 -->
<g id="edge1" class="edge">
<title>Node1&#45;&gt;Node2</title>
<path fill="none" stroke="#63b8ff" d="M328.67,-222.74C276.35,-215.04 181.39,-200.62 90.21,-184.05"/>
<polygon fill="#63b8ff" stroke="#63b8ff" points="90.72,-180.59 80.26,-182.23 89.46,-187.48 90.72,-180.59"/>
</g>
<!-- Node3 -->
<g id="node3" class="node">
<title>Node3</title>
<g id="a_node3"><a xlink:title=" ">
<polygon fill="#e0e0e0" stroke="#999999" points="174.5,-184 98.5,-184 98.5,-165 174.5,-165 174.5,-184"/>
<text text-anchor="middle" x="136.5" y="-172" font-family="Helvetica,sans-Serif" font-size="10.00">BoardConf.h</text>
</a>
</g>
</g>
<!-- Node1&#45;&gt;Node3 -->
<g id="edge2" class="edge">
<title>Node1&#45;&gt;Node3</title>
<path fill="none" stroke="#63b8ff" d="M331.23,-219.98C291.18,-210.84 227.43,-196.27 183.86,-186.32"/>
<polygon fill="#63b8ff" stroke="#63b8ff" points="184.6,-182.9 174.07,-184.08 183.04,-189.72 184.6,-182.9"/>
</g>
<!-- Node4 -->
<g id="node4" class="node">
<title>Node4</title>
<g id="a_node4"><a xlink:href="Pedal_8hpp.html" target="_top" xlink:title=" ">
<polygon fill="white" stroke="#666666" points="296,-184 231,-184 231,-165 296,-165 296,-184"/>
<text text-anchor="middle" x="263.5" y="-172" font-family="Helvetica,sans-Serif" font-size="10.00">Pedal.hpp</text>
</a>
</g>
</g>
<!-- Node1&#45;&gt;Node4 -->
<g id="edge3" class="edge">
<title>Node1&#45;&gt;Node4</title>
<path fill="none" stroke="#63b8ff" d="M351.63,-219.98C334.89,-211.54 309,-198.47 289.61,-188.68"/>
<polygon fill="#63b8ff" stroke="#63b8ff" points="291.18,-185.55 280.68,-184.17 288.03,-191.8 291.18,-185.55"/>
</g>
<!-- Node8 -->
<g id="node8" class="node">
<title>Node8</title>
<g id="a_node8"><a xlink:href="CarState_8h.html" target="_top" xlink:title="Definition of the CarState structure representing the state of the car.">
<polygon fill="white" stroke="#666666" points="359.5,-129 291.5,-129 291.5,-110 359.5,-110 359.5,-129"/>
<text text-anchor="middle" x="325.5" y="-117" font-family="Helvetica,sans-Serif" font-size="10.00">CarState.h</text>
</a>
</g>
</g>
<!-- Node1&#45;&gt;Node8 -->
<g id="edge27" class="edge">
<title>Node1&#45;&gt;Node8</title>
<path fill="none" stroke="#63b8ff" d="M364.98,-219.66C357.95,-202.01 342.06,-162.09 332.72,-138.64"/>
<polygon fill="#63b8ff" stroke="#63b8ff" points="335.9,-137.15 328.95,-129.16 329.39,-139.74 335.9,-137.15"/>
</g>
<!-- Node9 -->
<g id="node9" class="node">
<title>Node9</title>
<g id="a_node9"><a xlink:href="Enums_8h.html" target="_top" xlink:title="Enumeration definitions for the VCU.">
<polygon fill="white" stroke="#666666" points="477,-19 418,-19 418,0 477,0 477,-19"/>
<text text-anchor="middle" x="447.5" y="-7" font-family="Helvetica,sans-Serif" font-size="10.00">Enums.h</text>
</a>
</g>
</g>
<!-- Node1&#45;&gt;Node9 -->
<g id="edge26" class="edge">
<title>Node1&#45;&gt;Node9</title>
<path fill="none" stroke="#63b8ff" d="M372.41,-219.69C376.34,-210.74 382.51,-196.48 387.5,-184 406.86,-135.55 411.9,-123.46 428.5,-74 433.54,-58.98 438.65,-41.75 442.3,-29.03"/>
<polygon fill="#63b8ff" stroke="#63b8ff" points="445.74,-29.76 445.1,-19.18 439,-27.85 445.74,-29.76"/>
</g>
<!-- Node11 -->
<g id="node11" class="node">
<title>Node11</title>
<g id="a_node11"><a xlink:href="Curves_8hpp.html" target="_top" xlink:title="Definition of throttle and brake mapping tables.">
<polygon fill="white" stroke="#666666" points="71,-129 0,-129 0,-110 71,-110 71,-129"/>
<text text-anchor="middle" x="35.5" y="-117" font-family="Helvetica,sans-Serif" font-size="10.00">Curves.hpp</text>
</a>
</g>
</g>
<!-- Node1&#45;&gt;Node11 -->
<g id="edge29" class="edge">
<title>Node1&#45;&gt;Node11</title>
<path fill="none" stroke="#63b8ff" d="M335.23,-219.97C305.3,-211.92 260.35,-198.88 222.5,-184 204.56,-176.95 201.46,-172.02 183.5,-165 149.15,-151.57 109.02,-139.73 79.22,-131.65"/>
<polygon fill="#63b8ff" stroke="#63b8ff" points="80.09,-128.26 69.53,-129.05 78.28,-135.02 80.09,-128.26"/>
</g>
<!-- Node12 -->
<g id="node12" class="node">
<title>Node12</title>
<g id="a_node12"><a xlink:href="BMS_8hpp.html" target="_top" xlink:title="Declaration of the BMS class for managing the Accumulator (Kclear BMS) via CAN bus.">
<polygon fill="white" stroke="#666666" points="585,-184 526,-184 526,-165 585,-165 585,-184"/>
<text text-anchor="middle" x="555.5" y="-172" font-family="Helvetica,sans-Serif" font-size="10.00">BMS.hpp</text>
</a>
</g>
</g>
<!-- Node1&#45;&gt;Node12 -->
<g id="edge17" class="edge">
<title>Node1&#45;&gt;Node12</title>
<path fill="none" stroke="#63b8ff" d="M398.54,-219.98C430.4,-210.96 480.86,-196.65 515.93,-186.71"/>
<polygon fill="#63b8ff" stroke="#63b8ff" points="517.17,-190 525.84,-183.91 515.26,-183.27 517.17,-190"/>
</g>
<!-- Node13 -->
<g id="node13" class="node">
<title>Node13</title>
<g id="a_node13"><a xlink:href="Scheduler_8hpp.html" target="_top" xlink:title="Declaration of the Scheduler class template, for scheduling tasks on multiple MCP2515 instances.">
<polygon fill="white" stroke="#666666" points="598,-129 513,-129 513,-110 598,-110 598,-129"/>
<text text-anchor="middle" x="555.5" y="-117" font-family="Helvetica,sans-Serif" font-size="10.00">Scheduler.hpp</text>
</a>
</g>
</g>
<!-- Node1&#45;&gt;Node13 -->
<g id="edge28" class="edge">
<title>Node1&#45;&gt;Node13</title>
<path fill="none" stroke="#63b8ff" d="M388.53,-219.95C407.66,-211.54 437.12,-197.97 461.5,-184 488.08,-168.77 517.06,-148.61 535.72,-135.13"/>
<polygon fill="#63b8ff" stroke="#63b8ff" points="537.97,-137.81 543.99,-129.09 533.85,-132.16 537.97,-137.81"/>
</g>
<!-- Node14 -->
<g id="node14" class="node">
<title>Node14</title>
<g id="a_node14"><a xlink:title=" ">
<polygon fill="#e0e0e0" stroke="#999999" points="680,-19 609,-19 609,0 680,0 680,-19"/>
<text text-anchor="middle" x="644.5" y="-7" font-family="Helvetica,sans-Serif" font-size="10.00">mcp2515.h</text>
</a>
</g>
</g>
<!-- Node1&#45;&gt;Node14 -->
<g id="edge30" class="edge">
<title>Node1&#45;&gt;Node14</title>
<path fill="none" stroke="#63b8ff" d="M408.21,-224.64C464.81,-218.48 565.11,-204.94 594.5,-184 638.85,-152.39 638.2,-127.48 648.5,-74 651.38,-59.07 650,-41.83 648.12,-29.09"/>
<polygon fill="#63b8ff" stroke="#63b8ff" points="651.56,-28.48 646.42,-19.22 644.66,-29.66 651.56,-28.48"/>
</g>
<!-- Node16 -->
<g id="node16" class="node">
<title>Node16</title>
<g id="a_node16"><a xlink:href="Debug_8hpp.html" target="_top" xlink:title="Debugging macros and functions for serial and CAN output.">
<polygon fill="white" stroke="#666666" points="419,-74 350,-74 350,-55 419,-55 419,-74"/>
<text text-anchor="middle" x="384.5" y="-62" font-family="Helvetica,sans-Serif" font-size="10.00">Debug.hpp</text>
</a>
</g>
</g>
<!-- Node1&#45;&gt;Node16 -->
<g id="edge31" class="edge">
<title>Node1&#45;&gt;Node16</title>
<path fill="none" stroke="#63b8ff" d="M369.36,-219.74C371.86,-194.31 379.14,-120.08 382.62,-84.69"/>
<polygon fill="#63b8ff" stroke="#63b8ff" points="386.14,-84.6 383.64,-74.31 379.18,-83.92 386.14,-84.6"/>
</g>
<!-- Node5 -->
<g id="node5" class="node">
<title>Node5</title>
<g id="a_node5"><a xlink:title=" ">
<polygon fill="#e0e0e0" stroke="#999999" points="164,-19 111,-19 111,0 164,0 164,-19"/>
<text text-anchor="middle" x="137.5" y="-7" font-family="Helvetica,sans-Serif" font-size="10.00">stdint.h</text>
</a>
</g>
</g>
<!-- Node4&#45;&gt;Node5 -->
<g id="edge4" class="edge">
<title>Node4&#45;&gt;Node5</title>
<path fill="none" stroke="#63b8ff" d="M230.64,-168.33C206.66,-162.79 175.35,-151.52 157.5,-129 134.57,-100.08 133.78,-54.54 135.48,-29.16"/>
<polygon fill="#63b8ff" stroke="#63b8ff" points="138.98,-29.32 136.37,-19.05 132.01,-28.71 138.98,-29.32"/>
</g>
<!-- Node6 -->
<g id="node6" class="node">
<title>Node6</title>
<g id="a_node6"><a xlink:title=" ">
<polygon fill="#e0e0e0" stroke="#999999" points="255,-74 212,-74 212,-55 255,-55 255,-74"/>
<text text-anchor="middle" x="233.5" y="-62" font-family="Helvetica,sans-Serif" font-size="10.00">can.h</text>
</a>
</g>
</g>
<!-- Node4&#45;&gt;Node6 -->
<g id="edge5" class="edge">
<title>Node4&#45;&gt;Node6</title>
<path fill="none" stroke="#63b8ff" d="M261.04,-164.66C256.16,-147.09 245.15,-107.45 238.63,-83.95"/>
<polygon fill="#63b8ff" stroke="#63b8ff" points="241.95,-82.86 235.91,-74.16 235.21,-84.73 241.95,-82.86"/>
</g>
<!-- Node7 -->
<g id="node7" class="node">
<title>Node7</title>
<g id="a_node7"><a xlink:href="Queue_8hpp.html" target="_top" xlink:title=" ">
<polygon fill="white" stroke="#666666" points="235,-129 166,-129 166,-110 235,-110 235,-129"/>
<text text-anchor="middle" x="200.5" y="-117" font-family="Helvetica,sans-Serif" font-size="10.00">Queue.hpp</text>
</a>
</g>
</g>
<!-- Node4&#45;&gt;Node7 -->
<g id="edge6" class="edge">
<title>Node4&#45;&gt;Node7</title>
<path fill="none" stroke="#63b8ff" d="M253.38,-164.98C244.06,-157.15 230.03,-145.34 218.76,-135.86"/>
<polygon fill="#63b8ff" stroke="#63b8ff" points="220.71,-132.93 210.81,-129.17 216.21,-138.29 220.71,-132.93"/>
</g>
<!-- Node4&#45;&gt;Node8 -->
<g id="edge8" class="edge">
<title>Node4&#45;&gt;Node8</title>
<path fill="none" stroke="#63b8ff" d="M273.46,-164.98C282.63,-157.15 296.44,-145.34 307.53,-135.86"/>
<polygon fill="#63b8ff" stroke="#63b8ff" points="310.03,-138.33 315.36,-129.17 305.48,-133.01 310.03,-138.33"/>
</g>
<!-- Node10 -->
<g id="node10" class="node">
<title>Node10</title>
<g id="a_node10"><a xlink:href="Interp_8hpp.html" target="_top" xlink:title="Declaration and definition of the LinearInterp class template for linear interpolation.">
<polygon fill="white" stroke="#666666" points="109.5,-74 43.5,-74 43.5,-55 109.5,-55 109.5,-74"/>
<text text-anchor="middle" x="76.5" y="-62" font-family="Helvetica,sans-Serif" font-size="10.00">Interp.hpp</text>
</a>
</g>
</g>
<!-- Node4&#45;&gt;Node10 -->
<g id="edge12" class="edge">
<title>Node4&#45;&gt;Node10</title>
<path fill="none" stroke="#63b8ff" d="M230.78,-165.6C195.12,-156.55 140.82,-141.39 123.5,-129 106.82,-117.07 93.59,-97.42 85.47,-83.13"/>
<polygon fill="#63b8ff" stroke="#63b8ff" points="88.52,-81.4 80.69,-74.26 82.36,-84.72 88.52,-81.4"/>
</g>
<!-- Node4&#45;&gt;Node11 -->
<g id="edge14" class="edge">
<title>Node4&#45;&gt;Node11</title>
<path fill="none" stroke="#63b8ff" d="M230.83,-165.91C191.54,-156.77 125.34,-141.38 81.04,-131.09"/>
<polygon fill="#63b8ff" stroke="#63b8ff" points="81.64,-127.63 71.11,-128.78 80.06,-134.45 81.64,-127.63"/>
</g>
<!-- Node7&#45;&gt;Node5 -->
<g id="edge7" class="edge">
<title>Node7&#45;&gt;Node5</title>
<path fill="none" stroke="#63b8ff" d="M195.34,-109.66C184.96,-91.85 161.34,-51.37 147.71,-28.01"/>
<polygon fill="#63b8ff" stroke="#63b8ff" points="150.61,-26.03 142.55,-19.16 144.57,-29.56 150.61,-26.03"/>
</g>
<!-- Node8&#45;&gt;Node5 -->
<g id="edge11" class="edge">
<title>Node8&#45;&gt;Node5</title>
<path fill="none" stroke="#63b8ff" d="M319.35,-109.87C309.32,-96.36 288.16,-70.21 264.5,-55 236.74,-37.16 200.95,-25.46 174.44,-18.55"/>
<polygon fill="#63b8ff" stroke="#63b8ff" points="174.97,-15.08 164.42,-16.05 173.27,-21.87 174.97,-15.08"/>
</g>
<!-- Node8&#45;&gt;Node6 -->
<g id="edge10" class="edge">
<title>Node8&#45;&gt;Node6</title>
<path fill="none" stroke="#63b8ff" d="M310.72,-109.98C296.32,-101.69 274.19,-88.94 257.31,-79.22"/>
<polygon fill="#63b8ff" stroke="#63b8ff" points="258.96,-76.13 248.55,-74.17 255.47,-82.19 258.96,-76.13"/>
</g>
<!-- Node8&#45;&gt;Node9 -->
<g id="edge9" class="edge">
<title>Node8&#45;&gt;Node9</title>
<path fill="none" stroke="#63b8ff" d="M325.36,-109.58C325.62,-96.17 328.01,-70.69 341.5,-55 358.31,-35.44 385.16,-24.29 407.62,-18.04"/>
<polygon fill="#63b8ff" stroke="#63b8ff" points="408.76,-21.37 417.59,-15.5 407.03,-14.58 408.76,-21.37"/>
</g>
<!-- Node10&#45;&gt;Node5 -->
<g id="edge13" class="edge">
<title>Node10&#45;&gt;Node5</title>
<path fill="none" stroke="#63b8ff" d="M86.3,-54.98C95.32,-47.15 108.91,-35.34 119.82,-25.86"/>
<polygon fill="#63b8ff" stroke="#63b8ff" points="122.27,-28.37 127.52,-19.17 117.68,-23.09 122.27,-28.37"/>
</g>
<!-- Node11&#45;&gt;Node5 -->
<g id="edge16" class="edge">
<title>Node11&#45;&gt;Node5</title>
<path fill="none" stroke="#63b8ff" d="M32.53,-109.85C28.63,-96.79 23.48,-71.77 34.5,-55 49.13,-32.74 77.53,-21.56 100.8,-15.98"/>
<polygon fill="#63b8ff" stroke="#63b8ff" points="101.69,-19.37 110.74,-13.85 100.23,-12.52 101.69,-19.37"/>
</g>
<!-- Node11&#45;&gt;Node10 -->
<g id="edge15" class="edge">
<title>Node11&#45;&gt;Node10</title>
<path fill="none" stroke="#63b8ff" d="M42.27,-109.75C48.06,-102.26 56.56,-91.28 63.64,-82.13"/>
<polygon fill="#63b8ff" stroke="#63b8ff" points="66.51,-84.14 69.86,-74.09 60.97,-79.86 66.51,-84.14"/>
</g>
<!-- Node12&#45;&gt;Node13 -->
<g id="edge18" class="edge">
<title>Node12&#45;&gt;Node13</title>
<path fill="none" stroke="#63b8ff" d="M555.5,-164.75C555.5,-157.8 555.5,-147.85 555.5,-139.13"/>
<polygon fill="#63b8ff" stroke="#63b8ff" points="559,-139.09 555.5,-129.09 552,-139.09 559,-139.09"/>
</g>
<!-- Node12&#45;&gt;Node14 -->
<g id="edge25" class="edge">
<title>Node12&#45;&gt;Node14</title>
<path fill="none" stroke="#63b8ff" d="M569.24,-164.83C580.91,-156.82 597.33,-143.93 607.5,-129 628.65,-97.93 638.16,-54.21 642.07,-29.48"/>
<polygon fill="#63b8ff" stroke="#63b8ff" points="645.57,-29.69 643.53,-19.29 638.64,-28.69 645.57,-29.69"/>
</g>
<!-- Node13&#45;&gt;Node9 -->
<g id="edge19" class="edge">
<title>Node13&#45;&gt;Node9</title>
<path fill="none" stroke="#63b8ff" d="M545.26,-109.93C534.96,-101.18 518.73,-87.06 505.5,-74 489.99,-58.68 473.3,-40.18 461.83,-27.11"/>
<polygon fill="#63b8ff" stroke="#63b8ff" points="464.31,-24.63 455.1,-19.39 459.03,-29.23 464.31,-24.63"/>
</g>
<!-- Node13&#45;&gt;Node14 -->
<g id="edge20" class="edge">
<title>Node13&#45;&gt;Node14</title>
<path fill="none" stroke="#63b8ff" d="M567.38,-109.87C578.38,-101.51 594.74,-88.06 606.5,-74 618.32,-59.86 628.82,-41.63 635.78,-28.33"/>
<polygon fill="#63b8ff" stroke="#63b8ff" points="638.97,-29.78 640.36,-19.28 632.72,-26.62 638.97,-29.78"/>
</g>
<!-- Node15 -->
<g id="node15" class="node">
<title>Node15</title>
<g id="a_node15"><a xlink:href="Scheduler_8tpp.html" target="_top" xlink:title="Implementation of the Scheduler class template.">
<polygon fill="white" stroke="#666666" points="597,-74 514,-74 514,-55 597,-55 597,-74"/>
<text text-anchor="middle" x="555.5" y="-62" font-family="Helvetica,sans-Serif" font-size="10.00">Scheduler.tpp</text>
</a>
</g>
</g>
<!-- Node13&#45;&gt;Node15 -->
<g id="edge21" class="edge">
<title>Node13&#45;&gt;Node15</title>
<path fill="none" stroke="#63b8ff" d="M550.33,-109.75C548.84,-102.8 548.4,-92.85 549.02,-84.13"/>
<polygon fill="#63b8ff" stroke="#63b8ff" points="552.51,-84.47 550.37,-74.09 545.57,-83.53 552.51,-84.47"/>
</g>
<!-- Node15&#45;&gt;Node9 -->
<g id="edge22" class="edge">
<title>Node15&#45;&gt;Node9</title>
<path fill="none" stroke="#63b8ff" d="M538.15,-54.98C520.93,-46.54 494.3,-33.47 474.35,-23.68"/>
<polygon fill="#63b8ff" stroke="#63b8ff" points="475.69,-20.43 465.17,-19.17 472.6,-26.72 475.69,-20.43"/>
</g>
<!-- Node15&#45;&gt;Node13 -->
<g id="edge24" class="edge">
<title>Node15&#45;&gt;Node13</title>
<path fill="none" stroke="#63b8ff" d="M560.63,-74.09C562.14,-80.99 562.59,-90.93 561.99,-99.66"/>
<polygon fill="#63b8ff" stroke="#63b8ff" points="558.5,-99.38 560.67,-109.75 565.44,-100.29 558.5,-99.38"/>
</g>
<!-- Node15&#45;&gt;Node14 -->
<g id="edge23" class="edge">
<title>Node15&#45;&gt;Node14</title>
<path fill="none" stroke="#63b8ff" d="M569.8,-54.98C583.6,-46.77 604.74,-34.18 621.01,-24.49"/>
<polygon fill="#63b8ff" stroke="#63b8ff" points="623.14,-27.29 629.94,-19.17 619.56,-21.28 623.14,-27.29"/>
</g>
<!-- Node16&#45;&gt;Node9 -->
<g id="edge32" class="edge">
<title>Node16&#45;&gt;Node9</title>
<path fill="none" stroke="#63b8ff" d="M394.62,-54.98C403.94,-47.15 417.97,-35.34 429.24,-25.86"/>
<polygon fill="#63b8ff" stroke="#63b8ff" points="431.79,-28.29 437.19,-19.17 427.29,-22.93 431.79,-28.29"/>
</g>
</g>
</svg>
        <g id="navigator" transform="translate(0 0)" fill="#404254">
                <rect fill="#f2f5e9" fill-opacity="0.5" stroke="#606060" stroke-width=".5" x="0" y="0" width="60" height="60"/>
                <use id="zoomplus" xlink:href="#zoomPlus" x="17" y="9" onmousedown="handleZoom(evt,'in')"/>
                <use id="zoomminus" xlink:href="#zoomMin" x="42" y="9" onmousedown="handleZoom(evt,'out')"/>
                <use id="reset" xlink:href="#resetDef" x="30" y="36" onmousedown="handleReset()"/>
                <g id="arrowUp" xlink:href="#dirArrow" transform="translate(30 24)" onmousedown="handlePan(0,-1)">
                  <use xlink:href="#rim" fill="#404040">
                        <set attributeName="fill" to="#808080" begin="arrowUp.mouseover" end="arrowUp.mouseout"/>
                  </use>
                  <path fill="none" stroke="white" stroke-width="1.5" d="M0,-3.0v7 M-2.5,-0.5L0,-3.0L2.5,-0.5"/>
                </g>
                <g id="arrowRight" xlink:href="#dirArrow" transform="rotate(90) translate(36 -43)" onmousedown="handlePan(1,0)">
                  <use xlink:href="#rim" fill="#404040">
                        <set attributeName="fill" to="#808080" begin="arrowRight.mouseover" end="arrowRight.mouseout"/>
                  </use>
                  <path fill="none" stroke="white" stroke-width="1.5" d="M0,-3.0v7 M-2.5,-0.5L0,-3.0L2.5,-0.5"/>
                </g>
                <g id="arrowDown" xlink:href="#dirArrow" transform="rotate(180) translate(-30 -48)" onmousedown="handlePan(0,1)">
                  <use xlink:href="#rim" fill="#404040">
                        <set attributeName="fill" to="#808080" begin="arrowDown.mouseover" end="arrowDown.mouseout"/>
                  </use>
                  <path fill="none" stroke="white" stroke-width="1.5" d="M0,-3.0v7 M-2.5,-0.5L0,-3.0L2.5,-0.5"/>
                </g>
                <g id="arrowLeft" xlink:href="#dirArrow" transform="rotate(270) translate(-36 17)" onmousedown="handlePan(-1,0)">
                  <use xlink:href="#rim" fill="#404040">
                        <set attributeName="fill" to="#808080" begin="arrowLeft.mouseover" end="arrowLeft.mouseout"/>
                  </use>
                  <path fill="none" stroke="white" stroke-width="1.5" d="M0,-3.0v7 M-2.5,-0.5L0,-3.0L2.5,-0.5"/>
                </g>
        </g>
        <svg viewBox="0 0 15 15" width="100%" height="30px" preserveAspectRatio="xMaxYMin meet">
         <g id="arrow_out" transform="scale(0.3 0.3)">
          <a xlink:href="main_8cpp__incl_org.svg" target="_base">
           <rect id="button" ry="5" rx="5" y="6" x="6" height="38" width="38"
                fill="#f2f5e9" fill-opacity="0.5" stroke="#606060" stroke-width="1.0"/>
           <path id="arrow"
             d="M 11.500037,31.436501 C 11.940474,20.09759 22.043105,11.32322 32.158766,21.979434 L 37.068811,17.246167 C 37.068811,17.246167 37.088388,32 37.088388,32 L 22.160133,31.978069 C 22.160133,31.978069 26.997745,27.140456 26.997745,27.140456 C 18.528582,18.264221 13.291696,25.230495 11.500037,31.436501 z"
             style="fill:#404040;"/>
          </a>
         </g>
        </svg>
</svg>
