<?xml version="1.0" encoding="UTF-8" standalone="no"?>
<!DOCTYPE svg PUBLIC "-//W3C//DTD SVG 1.1//EN"
 "http://www.w3.org/Graphics/SVG/1.1/DTD/svg11.dtd">
<!-- Generated by graphviz version 2.43.0 (0)
 -->
<!-- Title: src/main.cpp Pages: 1 -->
<!--zoomable 247 -->
<svg id="main" version="1.1" xmlns="http://www.w3.org/2000/svg" xmlns:xlink="http://www.w3.org/1999/xlink" xml:space="preserve" onload="init(evt)">
<style type="text/css"><![CDATA[
.edge:hover path { stroke: red; }
.edge:hover polygon { stroke: red; fill: red; }
]]></style>
<script type="text/javascript"><![CDATA[
var edges = document.getElementsByTagName('g');
if (edges && edges.length) {
  for (var i=0;i<edges.length;i++) {
    if (edges[i].id.substr(0,4)=='edge') {
      edges[i].setAttribute('class','edge');
    }
  }
}
]]></script>
        <defs>
                <circle id="rim" cx="0" cy="0" r="7"/>
                <circle id="rim2" cx="0" cy="0" r="3.5"/>
                <g id="zoomPlus">
                        <use xlink:href="#rim" fill="#404040">
                                <set attributeName="fill" to="#808080" begin="zoomplus.mouseover" end="zoomplus.mouseout"/>
                        </use>
                        <path d="M-4,0h8M0,-4v8" fill="none" stroke="white" stroke-width="1.5" pointer-events="none"/>
                </g>
                <g id="zoomMin">
                        <use xlink:href="#rim" fill="#404040">
                                <set attributeName="fill" to="#808080" begin="zoomminus.mouseover" end="zoomminus.mouseout"/>
                        </use>
                        <path d="M-4,0h8" fill="none" stroke="white" stroke-width="1.5" pointer-events="none"/>
                </g>
                <g id="dirArrow">
                        <path fill="none" stroke="white" stroke-width="1.5" d="M0,-3.0v7 M-2.5,-0.5L0,-3.0L2.5,-0.5"/>
                </g>
               <g id="resetDef">
                       <use xlink:href="#rim2" fill="#404040">
                               <set attributeName="fill" to="#808080" begin="reset.mouseover" end="reset.mouseout"/>
                       </use>
               </g>
        </defs>

<script type="text/javascript">
var viewWidth = 758;
var viewHeight = 247;
var sectionId = 'dynsection-0';
</script>
<script xlink:href="svgpan.js"/>
<svg id="graph" class="graph">
<g id="viewport">
<title>src/main.cpp</title>
<!-- Node1 -->
<g id="node1" class="node">
<title>Node1</title>
<g id="a_node1"><a xlink:title=" ">
<polygon fill="#999999" stroke="#666666" points="432,-239 353,-239 353,-220 432,-220 432,-239"/>
<text text-anchor="middle" x="392.5" y="-227" font-family="Helvetica,sans-Serif" font-size="10.00">src/main.cpp</text>
</a>
</g>
</g>
<!-- Node2 -->
<g id="node2" class="node">
<title>Node2</title>
<g id="a_node2"><a xlink:title=" ">
<polygon fill="#e0e0e0" stroke="#999999" points="63,-129 0,-129 0,-110 63,-110 63,-129"/>
<text text-anchor="middle" x="31.5" y="-117" font-family="Helvetica,sans-Serif" font-size="10.00">Arduino.h</text>
</a>
</g>
</g>
<!-- Node1&#45;&gt;Node2 -->
<g id="edge1" class="edge">
<title>Node1&#45;&gt;Node2</title>
<path fill="none" stroke="#63b8ff" d="M352.61,-224.55C304.77,-219.02 222.64,-206.96 155.5,-184 118.12,-171.22 77.97,-148.9 53.79,-134.42"/>
<polygon fill="#63b8ff" stroke="#63b8ff" points="55.42,-131.31 45.05,-129.1 51.78,-137.29 55.42,-131.31"/>
</g>
<!-- Node3 -->
<g id="node3" class="node">
<title>Node3</title>
<g id="a_node3"><a xlink:href="boardConf_8h.html" target="_top" xlink:title=" ">
<polygon fill="white" stroke="#666666" points="750,-184 675,-184 675,-165 750,-165 750,-184"/>
<text text-anchor="middle" x="712.5" y="-172" font-family="Helvetica,sans-Serif" font-size="10.00">boardConf.h</text>
</a>
</g>
</g>
<!-- Node1&#45;&gt;Node3 -->
<g id="edge2" class="edge">
<title>Node1&#45;&gt;Node3</title>
<path fill="none" stroke="#63b8ff" d="M432.06,-221.95C490.83,-212.21 601.05,-193.96 664.4,-183.47"/>
<polygon fill="#63b8ff" stroke="#63b8ff" points="665.23,-186.88 674.52,-181.79 664.09,-179.97 665.23,-186.88"/>
</g>
<!-- Node4 -->
<g id="node4" class="node">
<title>Node4</title>
<g id="a_node4"><a xlink:href="Pedal_8hpp.html" target="_top" xlink:title=" ">
<polygon fill="white" stroke="#666666" points="230,-184 165,-184 165,-165 230,-165 230,-184"/>
<text text-anchor="middle" x="197.5" y="-172" font-family="Helvetica,sans-Serif" font-size="10.00">Pedal.hpp</text>
</a>
</g>
</g>
<!-- Node1&#45;&gt;Node4 -->
<g id="edge3" class="edge">
<title>Node1&#45;&gt;Node4</title>
<path fill="none" stroke="#63b8ff" d="M361.17,-219.98C328.01,-210.97 275.5,-196.7 238.94,-186.76"/>
<polygon fill="#63b8ff" stroke="#63b8ff" points="239.64,-183.33 229.08,-184.08 237.81,-190.08 239.64,-183.33"/>
</g>
<!-- Node8 -->
<g id="node8" class="node">
<title>Node8</title>
<g id="a_node8"><a xlink:href="car__state_8h.html" target="_top" xlink:title="Definition of the CarState structure representing the state of the car.">
<polygon fill="white" stroke="#666666" points="316,-129 245,-129 245,-110 316,-110 316,-129"/>
<text text-anchor="middle" x="280.5" y="-117" font-family="Helvetica,sans-Serif" font-size="10.00">car_state.h</text>
</a>
</g>
</g>
<!-- Node1&#45;&gt;Node8 -->
<g id="edge23" class="edge">
<title>Node1&#45;&gt;Node8</title>
<path fill="none" stroke="#63b8ff" d="M380.16,-219.94C368.22,-211.41 349.88,-197.66 335.5,-184 320.04,-169.31 304.29,-150.68 293.63,-137.4"/>
<polygon fill="#63b8ff" stroke="#63b8ff" points="296.08,-134.86 287.13,-129.19 290.59,-139.2 296.08,-134.86"/>
</g>
<!-- Node9 -->
<g id="node9" class="node">
<title>Node9</title>
<g id="a_node9"><a xlink:href="Enums_8h.html" target="_top" xlink:title=" ">
<polygon fill="white" stroke="#666666" points="422,-19 363,-19 363,0 422,0 422,-19"/>
<text text-anchor="middle" x="392.5" y="-7" font-family="Helvetica,sans-Serif" font-size="10.00">Enums.h</text>
</a>
</g>
</g>
<!-- Node1&#45;&gt;Node9 -->
<g id="edge22" class="edge">
<title>Node1&#45;&gt;Node9</title>
<path fill="none" stroke="#63b8ff" d="M392.5,-219.95C392.5,-187.95 392.5,-74.68 392.5,-29.4"/>
<polygon fill="#63b8ff" stroke="#63b8ff" points="396,-29.22 392.5,-19.22 389,-29.22 396,-29.22"/>
</g>
<!-- Node10 -->
<g id="node10" class="node">
<title>Node10</title>
<g id="a_node10"><a xlink:href="BMS_8hpp.html" target="_top" xlink:title="Declaration of the BMS class for managing the Accumulator (Kclear BMS) via CAN bus.">
<polygon fill="white" stroke="#666666" points="530,-184 471,-184 471,-165 530,-165 530,-184"/>
<text text-anchor="middle" x="500.5" y="-172" font-family="Helvetica,sans-Serif" font-size="10.00">BMS.hpp</text>
</a>
</g>
</g>
<!-- Node1&#45;&gt;Node10 -->
<g id="edge13" class="edge">
<title>Node1&#45;&gt;Node10</title>
<path fill="none" stroke="#63b8ff" d="M409.85,-219.98C427.07,-211.54 453.7,-198.47 473.65,-188.68"/>
<polygon fill="#63b8ff" stroke="#63b8ff" points="475.4,-191.72 482.83,-184.17 472.31,-185.43 475.4,-191.72"/>
</g>
<!-- Node11 -->
<g id="node11" class="node">
<title>Node11</title>
<g id="a_node11"><a xlink:href="Scheduler_8hpp.html" target="_top" xlink:title="Declaration of the Scheduler class template, for scheduling tasks on multiple MCP2515 instances.">
<polygon fill="white" stroke="#666666" points="543,-129 458,-129 458,-110 543,-110 543,-129"/>
<text text-anchor="middle" x="500.5" y="-117" font-family="Helvetica,sans-Serif" font-size="10.00">Scheduler.hpp</text>
</a>
</g>
</g>
<!-- Node1&#45;&gt;Node11 -->
<g id="edge24" class="edge">
<title>Node1&#45;&gt;Node11</title>
<path fill="none" stroke="#63b8ff" d="M401.34,-219.66C419.54,-201.46 461.45,-159.55 484.53,-136.47"/>
<polygon fill="#63b8ff" stroke="#63b8ff" points="487.25,-138.7 491.84,-129.16 482.3,-133.75 487.25,-138.7"/>
</g>
<!-- Node12 -->
<g id="node12" class="node">
<title>Node12</title>
<g id="a_node12"><a xlink:title=" ">
<polygon fill="#e0e0e0" stroke="#999999" points="625,-19 554,-19 554,0 625,0 625,-19"/>
<text text-anchor="middle" x="589.5" y="-7" font-family="Helvetica,sans-Serif" font-size="10.00">mcp2515.h</text>
</a>
</g>
</g>
<!-- Node1&#45;&gt;Node12 -->
<g id="edge25" class="edge">
<title>Node1&#45;&gt;Node12</title>
<path fill="none" stroke="#63b8ff" d="M432.06,-224.54C463.95,-219.6 508.44,-208.56 539.5,-184 582.23,-150.23 583.2,-127.48 593.5,-74 596.38,-59.07 595,-41.83 593.12,-29.09"/>
<polygon fill="#63b8ff" stroke="#63b8ff" points="596.56,-28.48 591.42,-19.22 589.66,-29.66 596.56,-28.48"/>
</g>
<!-- Node14 -->
<g id="node14" class="node">
<title>Node14</title>
<g id="a_node14"><a xlink:href="Debug_8hpp.html" target="_top" xlink:title=" ">
<polygon fill="white" stroke="#666666" points="364,-74 295,-74 295,-55 364,-55 364,-74"/>
<text text-anchor="middle" x="329.5" y="-62" font-family="Helvetica,sans-Serif" font-size="10.00">Debug.hpp</text>
</a>
</g>
</g>
<!-- Node1&#45;&gt;Node14 -->
<g id="edge26" class="edge">
<title>Node1&#45;&gt;Node14</title>
<path fill="none" stroke="#63b8ff" d="M389.11,-219.74C379.2,-194.09 350.09,-118.78 336.56,-83.78"/>
<polygon fill="#63b8ff" stroke="#63b8ff" points="339.77,-82.37 332.9,-74.31 333.24,-84.9 339.77,-82.37"/>
</g>
<!-- Node4&#45;&gt;Node2 -->
<g id="edge12" class="edge">
<title>Node4&#45;&gt;Node2</title>
<path fill="none" stroke="#63b8ff" d="M170.83,-164.98C142.96,-156.09 99.05,-142.07 67.98,-132.15"/>
<polygon fill="#63b8ff" stroke="#63b8ff" points="68.97,-128.79 58.38,-129.08 66.84,-135.46 68.97,-128.79"/>
</g>
<!-- Node5 -->
<g id="node5" class="node">
<title>Node5</title>
<g id="a_node5"><a xlink:title=" ">
<polygon fill="#e0e0e0" stroke="#999999" points="177,-74 124,-74 124,-55 177,-55 177,-74"/>
<text text-anchor="middle" x="150.5" y="-62" font-family="Helvetica,sans-Serif" font-size="10.00">stdint.h</text>
</a>
</g>
</g>
<!-- Node4&#45;&gt;Node5 -->
<g id="edge4" class="edge">
<title>Node4&#45;&gt;Node5</title>
<path fill="none" stroke="#63b8ff" d="M193.65,-164.66C185.97,-147.01 168.6,-107.09 158.39,-83.64"/>
<polygon fill="#63b8ff" stroke="#63b8ff" points="161.47,-81.93 154.27,-74.16 155.05,-84.72 161.47,-81.93"/>
</g>
<!-- Node6 -->
<g id="node6" class="node">
<title>Node6</title>
<g id="a_node6"><a xlink:href="Queue_8hpp.html" target="_top" xlink:title=" ">
<polygon fill="white" stroke="#666666" points="150,-129 81,-129 81,-110 150,-110 150,-129"/>
<text text-anchor="middle" x="115.5" y="-117" font-family="Helvetica,sans-Serif" font-size="10.00">Queue.hpp</text>
</a>
</g>
</g>
<!-- Node4&#45;&gt;Node6 -->
<g id="edge5" class="edge">
<title>Node4&#45;&gt;Node6</title>
<path fill="none" stroke="#63b8ff" d="M184.33,-164.98C171.73,-156.84 152.5,-144.41 137.56,-134.76"/>
<polygon fill="#63b8ff" stroke="#63b8ff" points="139.21,-131.66 128.91,-129.17 135.41,-137.54 139.21,-131.66"/>
</g>
<!-- Node7 -->
<g id="node7" class="node">
<title>Node7</title>
<g id="a_node7"><a xlink:title=" ">
<polygon fill="#e0e0e0" stroke="#999999" points="238,-74 195,-74 195,-55 238,-55 238,-74"/>
<text text-anchor="middle" x="216.5" y="-62" font-family="Helvetica,sans-Serif" font-size="10.00">can.h</text>
</a>
</g>
</g>
<!-- Node4&#45;&gt;Node7 -->
<g id="edge7" class="edge">
<title>Node4&#45;&gt;Node7</title>
<path fill="none" stroke="#63b8ff" d="M199.05,-164.66C202.13,-147.17 209.06,-107.8 213.2,-84.27"/>
<polygon fill="#63b8ff" stroke="#63b8ff" points="216.69,-84.61 214.98,-74.16 209.8,-83.4 216.69,-84.61"/>
</g>
<!-- Node4&#45;&gt;Node8 -->
<g id="edge8" class="edge">
<title>Node4&#45;&gt;Node8</title>
<path fill="none" stroke="#63b8ff" d="M210.84,-164.98C223.59,-156.84 243.05,-144.41 258.17,-134.76"/>
<polygon fill="#63b8ff" stroke="#63b8ff" points="260.38,-137.5 266.92,-129.17 256.61,-131.6 260.38,-137.5"/>
</g>
<!-- Node6&#45;&gt;Node5 -->
<g id="edge6" class="edge">
<title>Node6&#45;&gt;Node5</title>
<path fill="none" stroke="#63b8ff" d="M121.28,-109.75C126.12,-102.42 133.18,-91.73 139.14,-82.7"/>
<polygon fill="#63b8ff" stroke="#63b8ff" points="142.24,-84.36 144.83,-74.09 136.4,-80.5 142.24,-84.36"/>
</g>
<!-- Node8&#45;&gt;Node5 -->
<g id="edge11" class="edge">
<title>Node8&#45;&gt;Node5</title>
<path fill="none" stroke="#63b8ff" d="M259.61,-109.98C238.42,-101.34 205.37,-87.87 181.2,-78.02"/>
<polygon fill="#63b8ff" stroke="#63b8ff" points="182.35,-74.7 171.77,-74.17 179.71,-81.19 182.35,-74.7"/>
</g>
<!-- Node8&#45;&gt;Node7 -->
<g id="edge10" class="edge">
<title>Node8&#45;&gt;Node7</title>
<path fill="none" stroke="#63b8ff" d="M270.22,-109.98C260.66,-102.07 246.22,-90.11 234.72,-80.58"/>
<polygon fill="#63b8ff" stroke="#63b8ff" points="236.9,-77.85 226.97,-74.17 232.44,-83.24 236.9,-77.85"/>
</g>
<!-- Node8&#45;&gt;Node9 -->
<g id="edge9" class="edge">
<title>Node8&#45;&gt;Node9</title>
<path fill="none" stroke="#63b8ff" d="M278.55,-109.73C276.14,-96.51 273.68,-71.29 285.5,-55 301.14,-33.44 329.23,-22.28 352.7,-16.52"/>
<polygon fill="#63b8ff" stroke="#63b8ff" points="353.75,-19.88 362.76,-14.31 352.24,-13.04 353.75,-19.88"/>
</g>
<!-- Node10&#45;&gt;Node11 -->
<g id="edge14" class="edge">
<title>Node10&#45;&gt;Node11</title>
<path fill="none" stroke="#63b8ff" d="M500.5,-164.75C500.5,-157.8 500.5,-147.85 500.5,-139.13"/>
<polygon fill="#63b8ff" stroke="#63b8ff" points="504,-139.09 500.5,-129.09 497,-139.09 504,-139.09"/>
</g>
<!-- Node10&#45;&gt;Node12 -->
<g id="edge21" class="edge">
<title>Node10&#45;&gt;Node12</title>
<path fill="none" stroke="#63b8ff" d="M514.24,-164.83C525.91,-156.82 542.33,-143.93 552.5,-129 573.65,-97.93 583.16,-54.21 587.07,-29.48"/>
<polygon fill="#63b8ff" stroke="#63b8ff" points="590.57,-29.69 588.53,-19.29 583.64,-28.69 590.57,-29.69"/>
</g>
<!-- Node11&#45;&gt;Node9 -->
<g id="edge15" class="edge">
<title>Node11&#45;&gt;Node9</title>
<path fill="none" stroke="#63b8ff" d="M490.26,-109.93C479.96,-101.18 463.73,-87.06 450.5,-74 434.99,-58.68 418.3,-40.18 406.83,-27.11"/>
<polygon fill="#63b8ff" stroke="#63b8ff" points="409.31,-24.63 400.1,-19.39 404.03,-29.23 409.31,-24.63"/>
</g>
<!-- Node11&#45;&gt;Node12 -->
<g id="edge16" class="edge">
<title>Node11&#45;&gt;Node12</title>
<path fill="none" stroke="#63b8ff" d="M512.38,-109.87C523.38,-101.51 539.74,-88.06 551.5,-74 563.32,-59.86 573.82,-41.63 580.78,-28.33"/>
<polygon fill="#63b8ff" stroke="#63b8ff" points="583.97,-29.78 585.36,-19.28 577.72,-26.62 583.97,-29.78"/>
</g>
<!-- Node13 -->
<g id="node13" class="node">
<title>Node13</title>
<g id="a_node13"><a xlink:href="Scheduler_8tpp.html" target="_top" xlink:title="Implementation of the Scheduler class template.">
<polygon fill="white" stroke="#666666" points="542,-74 459,-74 459,-55 542,-55 542,-74"/>
<text text-anchor="middle" x="500.5" y="-62" font-family="Helvetica,sans-Serif" font-size="10.00">Scheduler.tpp</text>
</a>
</g>
</g>
<!-- Node11&#45;&gt;Node13 -->
<g id="edge17" class="edge">
<title>Node11&#45;&gt;Node13</title>
<path fill="none" stroke="#63b8ff" d="M495.33,-109.75C493.84,-102.8 493.4,-92.85 494.02,-84.13"/>
<polygon fill="#63b8ff" stroke="#63b8ff" points="497.51,-84.47 495.37,-74.09 490.57,-83.53 497.51,-84.47"/>
</g>
<!-- Node13&#45;&gt;Node9 -->
<g id="edge18" class="edge">
<title>Node13&#45;&gt;Node9</title>
<path fill="none" stroke="#63b8ff" d="M483.15,-54.98C465.93,-46.54 439.3,-33.47 419.35,-23.68"/>
<polygon fill="#63b8ff" stroke="#63b8ff" points="420.69,-20.43 410.17,-19.17 417.6,-26.72 420.69,-20.43"/>
</g>
<!-- Node13&#45;&gt;Node11 -->
<g id="edge20" class="edge">
<title>Node13&#45;&gt;Node11</title>
<path fill="none" stroke="#63b8ff" d="M505.63,-74.09C507.14,-80.99 507.59,-90.93 506.99,-99.66"/>
<polygon fill="#63b8ff" stroke="#63b8ff" points="503.5,-99.38 505.67,-109.75 510.44,-100.29 503.5,-99.38"/>
</g>
<!-- Node13&#45;&gt;Node12 -->
<g id="edge19" class="edge">
<title>Node13&#45;&gt;Node12</title>
<path fill="none" stroke="#63b8ff" d="M514.8,-54.98C528.6,-46.77 549.74,-34.18 566.01,-24.49"/>
<polygon fill="#63b8ff" stroke="#63b8ff" points="568.14,-27.29 574.94,-19.17 564.56,-21.28 568.14,-27.29"/>
</g>
<!-- Node14&#45;&gt;Node9 -->
<g id="edge27" class="edge">
<title>Node14&#45;&gt;Node9</title>
<path fill="none" stroke="#63b8ff" d="M339.62,-54.98C348.94,-47.15 362.97,-35.34 374.24,-25.86"/>
<polygon fill="#63b8ff" stroke="#63b8ff" points="376.79,-28.29 382.19,-19.17 372.29,-22.93 376.79,-28.29"/>
</g>
</g>
</svg>
        <g id="navigator" transform="translate(0 0)" fill="#404254">
                <rect fill="#f2f5e9" fill-opacity="0.5" stroke="#606060" stroke-width=".5" x="0" y="0" width="60" height="60"/>
                <use id="zoomplus" xlink:href="#zoomPlus" x="17" y="9" onmousedown="handleZoom(evt,'in')"/>
                <use id="zoomminus" xlink:href="#zoomMin" x="42" y="9" onmousedown="handleZoom(evt,'out')"/>
                <use id="reset" xlink:href="#resetDef" x="30" y="36" onmousedown="handleReset()"/>
                <g id="arrowUp" xlink:href="#dirArrow" transform="translate(30 24)" onmousedown="handlePan(0,-1)">
                  <use xlink:href="#rim" fill="#404040">
                        <set attributeName="fill" to="#808080" begin="arrowUp.mouseover" end="arrowUp.mouseout"/>
                  </use>
                  <path fill="none" stroke="white" stroke-width="1.5" d="M0,-3.0v7 M-2.5,-0.5L0,-3.0L2.5,-0.5"/>
                </g>
                <g id="arrowRight" xlink:href="#dirArrow" transform="rotate(90) translate(36 -43)" onmousedown="handlePan(1,0)">
                  <use xlink:href="#rim" fill="#404040">
                        <set attributeName="fill" to="#808080" begin="arrowRight.mouseover" end="arrowRight.mouseout"/>
                  </use>
                  <path fill="none" stroke="white" stroke-width="1.5" d="M0,-3.0v7 M-2.5,-0.5L0,-3.0L2.5,-0.5"/>
                </g>
                <g id="arrowDown" xlink:href="#dirArrow" transform="rotate(180) translate(-30 -48)" onmousedown="handlePan(0,1)">
                  <use xlink:href="#rim" fill="#404040">
                        <set attributeName="fill" to="#808080" begin="arrowDown.mouseover" end="arrowDown.mouseout"/>
                  </use>
                  <path fill="none" stroke="white" stroke-width="1.5" d="M0,-3.0v7 M-2.5,-0.5L0,-3.0L2.5,-0.5"/>
                </g>
                <g id="arrowLeft" xlink:href="#dirArrow" transform="rotate(270) translate(-36 17)" onmousedown="handlePan(-1,0)">
                  <use xlink:href="#rim" fill="#404040">
                        <set attributeName="fill" to="#808080" begin="arrowLeft.mouseover" end="arrowLeft.mouseout"/>
                  </use>
                  <path fill="none" stroke="white" stroke-width="1.5" d="M0,-3.0v7 M-2.5,-0.5L0,-3.0L2.5,-0.5"/>
                </g>
        </g>
        <svg viewBox="0 0 15 15" width="100%" height="30px" preserveAspectRatio="xMaxYMin meet">
         <g id="arrow_out" transform="scale(0.3 0.3)">
          <a xlink:href="main_8cpp__incl_org.svg" target="_base">
           <rect id="button" ry="5" rx="5" y="6" x="6" height="38" width="38"
                fill="#f2f5e9" fill-opacity="0.5" stroke="#606060" stroke-width="1.0"/>
           <path id="arrow"
             d="M 11.500037,31.436501 C 11.940474,20.09759 22.043105,11.32322 32.158766,21.979434 L 37.068811,17.246167 C 37.068811,17.246167 37.088388,32 37.088388,32 L 22.160133,31.978069 C 22.160133,31.978069 26.997745,27.140456 26.997745,27.140456 C 18.528582,18.264221 13.291696,25.230495 11.500037,31.436501 z"
             style="fill:#404040;"/>
          </a>
         </g>
        </svg>
</svg>
