<?xml version="1.0" encoding="UTF-8" standalone="no"?>
<!DOCTYPE svg PUBLIC "-//W3C//DTD SVG 1.1//EN"
 "http://www.w3.org/Graphics/SVG/1.1/DTD/svg11.dtd">
<!-- Generated by graphviz version 2.43.0 (0)
 -->
<!-- Title: setup Pages: 1 -->
<svg width="217pt" height="101pt"
 viewBox="0.00 0.00 217.00 101.00" xmlns="http://www.w3.org/2000/svg" xmlns:xlink="http://www.w3.org/1999/xlink">
<g id="graph0" class="graph" transform="scale(1 1) rotate(0) translate(4 97)">
<title>setup</title>
<!-- Node1 -->
<g id="node1" class="node">
<title>Node1</title>
<g id="a_node1"><a xlink:title=" ">
<polygon fill="#999999" stroke="#666666" points="44,-56 0,-56 0,-37 44,-37 44,-56"/>
<text text-anchor="middle" x="22" y="-44" font-family="Helvetica,sans-Serif" font-size="10.00">setup</text>
</a>
</g>
</g>
<!-- Node2 -->
<g id="node2" class="node">
<title>Node2</title>
<g id="a_node2"><a xlink:href="namespaceDebug__Serial.html#ad136936636c7b7140cb1e14c55eb5f31" target="_top" xlink:title=" ">
<polygon fill="white" stroke="#666666" points="209,-93 80,-93 80,-74 209,-74 209,-93"/>
<text text-anchor="middle" x="144.5" y="-81" font-family="Helvetica,sans-Serif" font-size="10.00">Debug_Serial::initialize</text>
</a>
</g>
</g>
<!-- Node1&#45;&gt;Node2 -->
<g id="edge1" class="edge">
<title>Node1&#45;&gt;Node2</title>
<path fill="none" stroke="#63b8ff" d="M44.04,-53.77C54.77,-57.41 68.04,-61.81 80,-65.5 86.11,-67.38 92.57,-69.3 98.94,-71.15"/>
<polygon fill="#63b8ff" stroke="#63b8ff" points="98.23,-74.58 108.81,-73.98 100.16,-67.86 98.23,-74.58"/>
</g>
<!-- Node3 -->
<g id="node3" class="node">
<title>Node3</title>
<g id="a_node3"><a xlink:href="namespaceDebug__CAN.html#a5c8b33000e36a19ccb285e45f666e64e" target="_top" xlink:title=" ">
<polygon fill="white" stroke="#666666" points="205.5,-56 83.5,-56 83.5,-37 205.5,-37 205.5,-56"/>
<text text-anchor="middle" x="144.5" y="-44" font-family="Helvetica,sans-Serif" font-size="10.00">Debug_CAN::initialize</text>
</a>
</g>
</g>
<!-- Node1&#45;&gt;Node3 -->
<g id="edge2" class="edge">
<title>Node1&#45;&gt;Node3</title>
<path fill="none" stroke="#63b8ff" d="M44.27,-46.5C52.61,-46.5 62.71,-46.5 73.22,-46.5"/>
<polygon fill="#63b8ff" stroke="#63b8ff" points="73.39,-50 83.39,-46.5 73.39,-43 73.39,-50"/>
</g>
<!-- Node4 -->
<g id="node4" class="node">
<title>Node4</title>
<g id="a_node4"><a xlink:href="main_8cpp.html#a9215d3772fc8e03a4ccd56fe9c7b5fc5" target="_top" xlink:title=" ">
<polygon fill="white" stroke="#666666" points="192.5,-19 96.5,-19 96.5,0 192.5,0 192.5,-19"/>
<text text-anchor="middle" x="144.5" y="-7" font-family="Helvetica,sans-Serif" font-size="10.00">mcp2515_motor</text>
</a>
</g>
</g>
<!-- Node1&#45;&gt;Node4 -->
<g id="edge3" class="edge">
<title>Node1&#45;&gt;Node4</title>
<path fill="none" stroke="#63b8ff" d="M44.09,-39.76C54.83,-36.34 68.1,-32.16 80,-28.5 86.96,-26.36 94.35,-24.12 101.55,-21.96"/>
<polygon fill="#63b8ff" stroke="#63b8ff" points="102.59,-25.3 111.17,-19.07 100.58,-18.59 102.59,-25.3"/>
</g>
</g>
</svg>
