<?xml version="1.0" encoding="UTF-8" standalone="no"?>
<!DOCTYPE svg PUBLIC "-//W3C//DTD SVG 1.1//EN"
 "http://www.w3.org/Graphics/SVG/1.1/DTD/svg11.dtd">
<!-- Generated by graphviz version 2.43.0 (0)
 -->
<!-- Title: setup Pages: 1 -->
<svg width="1064pt" height="352pt"
 viewBox="0.00 0.00 1064.00 351.50" xmlns="http://www.w3.org/2000/svg" xmlns:xlink="http://www.w3.org/1999/xlink">
<g id="graph0" class="graph" transform="scale(1 1) rotate(0) translate(4 347.5)">
<title>setup</title>
<!-- Node1 -->
<g id="node1" class="node">
<title>Node1</title>
<g id="a_node1"><a xlink:title="Setup function for initializing the VCU system. Initializes MCP2515s, IO pins, as well as own modules...">
<polygon fill="#999999" stroke="#666666" points="44,-213.5 0,-213.5 0,-194.5 44,-194.5 44,-213.5"/>
<text text-anchor="middle" x="22" y="-201.5" font-family="Helvetica,sans-Serif" font-size="10.00">setup</text>
</a>
</g>
</g>
<!-- Node2 -->
<g id="node2" class="node">
<title>Node2</title>
<g id="a_node2"><a xlink:href="Debug_8hpp.html#a306ca7fb070dd487be4ea4ec3de74b85" target="_top" xlink:title="Sends car status debug info via CAN or serial (if enabled).">
<polygon fill="white" stroke="#666666" points="197.5,-308.5 91.5,-308.5 91.5,-289.5 197.5,-289.5 197.5,-308.5"/>
<text text-anchor="middle" x="144.5" y="-296.5" font-family="Helvetica,sans-Serif" font-size="10.00">DBG_STATUS_CAR</text>
</a>
</g>
</g>
<!-- Node1&#45;&gt;Node2 -->
<g id="edge1" class="edge">
<title>Node1&#45;&gt;Node2</title>
<path fill="none" stroke="#63b8ff" d="M28.4,-213.64C37.31,-228.71 56.46,-257.92 80,-275 85.64,-279.09 92.06,-282.58 98.6,-285.51"/>
<polygon fill="#63b8ff" stroke="#63b8ff" points="97.61,-288.89 108.2,-289.43 100.26,-282.41 97.61,-288.89"/>
</g>
<!-- Node5 -->
<g id="node5" class="node">
<title>Node5</title>
<g id="a_node5"><a xlink:href="Debug_8hpp.html#a8e8d6e3de15309922f25c12f4d7cf727" target="_top" xlink:title="Prints a line to the serial console for general debug.">
<polygon fill="white" stroke="#666666" points="364.5,-267.5 262.5,-267.5 262.5,-248.5 364.5,-248.5 364.5,-267.5"/>
<text text-anchor="middle" x="313.5" y="-255.5" font-family="Helvetica,sans-Serif" font-size="10.00">DBGLN_GENERAL</text>
</a>
</g>
</g>
<!-- Node1&#45;&gt;Node5 -->
<g id="edge4" class="edge">
<title>Node1&#45;&gt;Node5</title>
<path fill="none" stroke="#63b8ff" d="M33.84,-213.78C44.67,-222.89 62.21,-235.94 80,-242 136.02,-261.08 203.92,-263.58 251.84,-262.22"/>
<polygon fill="#63b8ff" stroke="#63b8ff" points="252.19,-265.71 262.06,-261.86 251.94,-258.72 252.19,-265.71"/>
</g>
<!-- Node7 -->
<g id="node7" class="node">
<title>Node7</title>
<g id="a_node7"><a xlink:href="namespaceDebug__Serial.html#ad136936636c7b7140cb1e14c55eb5f31" target="_top" xlink:title="Initializes the Debug_Serial interface. It should be called before using any other Debug_Serial funct...">
<polygon fill="white" stroke="#666666" points="209,-232.5 80,-232.5 80,-213.5 209,-213.5 209,-232.5"/>
<text text-anchor="middle" x="144.5" y="-220.5" font-family="Helvetica,sans-Serif" font-size="10.00">Debug_Serial::initialize</text>
</a>
</g>
</g>
<!-- Node1&#45;&gt;Node7 -->
<g id="edge6" class="edge">
<title>Node1&#45;&gt;Node7</title>
<path fill="none" stroke="#63b8ff" d="M44.27,-207.35C52.56,-208.66 62.58,-210.24 73.03,-211.89"/>
<polygon fill="#63b8ff" stroke="#63b8ff" points="72.7,-215.38 83.13,-213.48 73.79,-208.47 72.7,-215.38"/>
</g>
<!-- Node8 -->
<g id="node8" class="node">
<title>Node8</title>
<g id="a_node8"><a xlink:href="namespaceDebug__CAN.html#a5c8b33000e36a19ccb285e45f666e64e" target="_top" xlink:title="Initializes the Debug_CAN interface. It should be called before using any other Debug_CAN functions.">
<polygon fill="white" stroke="#666666" points="205.5,-195.5 83.5,-195.5 83.5,-176.5 205.5,-176.5 205.5,-195.5"/>
<text text-anchor="middle" x="144.5" y="-183.5" font-family="Helvetica,sans-Serif" font-size="10.00">Debug_CAN::initialize</text>
</a>
</g>
</g>
<!-- Node1&#45;&gt;Node8 -->
<g id="edge7" class="edge">
<title>Node1&#45;&gt;Node8</title>
<path fill="none" stroke="#63b8ff" d="M44.27,-200.82C52.61,-199.58 62.71,-198.07 73.22,-196.5"/>
<polygon fill="#63b8ff" stroke="#63b8ff" points="74.01,-199.92 83.39,-194.98 72.98,-193 74.01,-199.92"/>
</g>
<!-- Node9 -->
<g id="node9" class="node">
<title>Node9</title>
<g id="a_node9"><a xlink:href="main_8cpp.html#a95581c94a7dc4a68f61fa24f06cc90d1" target="_top" xlink:title=" ">
<polygon fill="white" stroke="#666666" points="184.5,-158.5 104.5,-158.5 104.5,-139.5 184.5,-139.5 184.5,-158.5"/>
<text text-anchor="middle" x="144.5" y="-146.5" font-family="Helvetica,sans-Serif" font-size="10.00">mcp2515_DL</text>
</a>
</g>
</g>
<!-- Node1&#45;&gt;Node9 -->
<g id="edge8" class="edge">
<title>Node1&#45;&gt;Node9</title>
<path fill="none" stroke="#63b8ff" d="M36.01,-194.33C47.2,-186.38 64.02,-175.27 80,-168 84.98,-165.74 90.29,-163.66 95.65,-161.78"/>
<polygon fill="#63b8ff" stroke="#63b8ff" points="96.87,-165.06 105.27,-158.6 94.68,-158.41 96.87,-165.06"/>
</g>
<!-- Node10 -->
<g id="node10" class="node">
<title>Node10</title>
<g id="a_node10"><a xlink:href="main_8cpp.html#a2668d80d0711f29d4507c48eb984f684" target="_top" xlink:title=" ">
<polygon fill="white" stroke="#666666" points="192.5,-121.5 96.5,-121.5 96.5,-102.5 192.5,-102.5 192.5,-121.5"/>
<text text-anchor="middle" x="144.5" y="-109.5" font-family="Helvetica,sans-Serif" font-size="10.00">scheduler_pedal</text>
</a>
</g>
</g>
<!-- Node1&#45;&gt;Node10 -->
<g id="edge9" class="edge">
<title>Node1&#45;&gt;Node10</title>
<path fill="none" stroke="#63b8ff" d="M27.72,-194.48C36.05,-178.65 54.89,-147.01 80,-130 82.28,-128.46 84.69,-127.04 87.18,-125.75"/>
<polygon fill="#63b8ff" stroke="#63b8ff" points="88.82,-128.86 96.52,-121.58 85.97,-122.46 88.82,-128.86"/>
</g>
<!-- Node3 -->
<g id="node3" class="node">
<title>Node3</title>
<g id="a_node3"><a xlink:href="namespaceDebug__CAN.html#a33ac5d84927aea929dc26f0820dd58c8" target="_top" xlink:title="Sends a debug car status message over CAN.">
<polygon fill="white" stroke="#666666" points="379,-343.5 248,-343.5 248,-324.5 379,-324.5 379,-343.5"/>
<text text-anchor="middle" x="313.5" y="-331.5" font-family="Helvetica,sans-Serif" font-size="10.00">Debug_CAN::status_car</text>
</a>
</g>
</g>
<!-- Node2&#45;&gt;Node3 -->
<g id="edge2" class="edge">
<title>Node2&#45;&gt;Node3</title>
<path fill="none" stroke="#63b8ff" d="M191.13,-308.56C211.48,-312.83 235.62,-317.89 257,-322.37"/>
<polygon fill="#63b8ff" stroke="#63b8ff" points="256.42,-325.82 266.92,-324.45 257.85,-318.97 256.42,-325.82"/>
</g>
<!-- Node4 -->
<g id="node4" class="node">
<title>Node4</title>
<g id="a_node4"><a xlink:href="namespaceDebug__Serial.html#a0f4070c8db2109f53b11b93580bb9472" target="_top" xlink:title="Prints the current car status to the serial console. This function formats and sends the current car ...">
<polygon fill="white" stroke="#666666" points="382,-306.5 245,-306.5 245,-287.5 382,-287.5 382,-306.5"/>
<text text-anchor="middle" x="313.5" y="-294.5" font-family="Helvetica,sans-Serif" font-size="10.00">Debug_Serial::status_car</text>
</a>
</g>
</g>
<!-- Node2&#45;&gt;Node4 -->
<g id="edge3" class="edge">
<title>Node2&#45;&gt;Node4</title>
<path fill="none" stroke="#63b8ff" d="M197.88,-298.37C209.66,-298.23 222.39,-298.08 234.95,-297.93"/>
<polygon fill="#63b8ff" stroke="#63b8ff" points="235,-301.43 244.96,-297.81 234.92,-294.43 235,-301.43"/>
</g>
<!-- Node6 -->
<g id="node6" class="node">
<title>Node6</title>
<g id="a_node6"><a xlink:href="namespaceDebug__Serial.html#a756fa9286151426012a6f8e178a6c550" target="_top" xlink:title="Prints a string AND a newline to the serial console.">
<polygon fill="white" stroke="#666666" points="719.5,-248.5 600.5,-248.5 600.5,-229.5 719.5,-229.5 719.5,-248.5"/>
<text text-anchor="middle" x="660" y="-236.5" font-family="Helvetica,sans-Serif" font-size="10.00">Debug_Serial::println</text>
</a>
</g>
</g>
<!-- Node5&#45;&gt;Node6 -->
<g id="edge5" class="edge">
<title>Node5&#45;&gt;Node6</title>
<path fill="none" stroke="#63b8ff" d="M364.59,-255.24C424.15,-251.95 523.83,-246.45 590.49,-242.78"/>
<polygon fill="#63b8ff" stroke="#63b8ff" points="590.69,-246.27 600.48,-242.23 590.31,-239.28 590.69,-246.27"/>
</g>
<!-- Node11 -->
<g id="node11" class="node">
<title>Node11</title>
<g id="a_node11"><a xlink:href="classPedal.html#a2457466d32f6d9f58f8b8ab6c34cd495" target="_top" xlink:title="Updates the CAN frame with the most recent pedal value.">
<polygon fill="white" stroke="#666666" points="380.5,-142 246.5,-142 246.5,-112 380.5,-112 380.5,-142"/>
<text text-anchor="start" x="254.5" y="-130" font-family="Helvetica,sans-Serif" font-size="10.00">Pedal::pedal_can_frame</text>
<text text-anchor="middle" x="313.5" y="-119" font-family="Helvetica,sans-Serif" font-size="10.00">_update</text>
</a>
</g>
</g>
<!-- Node10&#45;&gt;Node11 -->
<g id="edge10" class="edge">
<title>Node10&#45;&gt;Node11</title>
<path fill="none" stroke="#63b8ff" d="M192.91,-116.26C206.38,-117.47 221.41,-118.82 236.14,-120.14"/>
<polygon fill="#63b8ff" stroke="#63b8ff" points="236,-123.64 246.27,-121.05 236.63,-116.67 236,-123.64"/>
</g>
<!-- Node12 -->
<g id="node12" class="node">
<title>Node12</title>
<g id="a_node12"><a xlink:href="Debug_8hpp.html#a25f28d9aa7440ebc55a76a2b2ce878ea" target="_top" xlink:title="Sends throttle output debug info via CAN or serial (if enabled).">
<polygon fill="white" stroke="#666666" points="545.5,-179.5 424.5,-179.5 424.5,-160.5 545.5,-160.5 545.5,-179.5"/>
<text text-anchor="middle" x="485" y="-167.5" font-family="Helvetica,sans-Serif" font-size="10.00">DBG_THROTTLE_OUT</text>
</a>
</g>
</g>
<!-- Node11&#45;&gt;Node12 -->
<g id="edge11" class="edge">
<title>Node11&#45;&gt;Node12</title>
<path fill="none" stroke="#63b8ff" d="M373.78,-142.04C394.35,-147.26 417.12,-153.03 436.61,-157.98"/>
<polygon fill="#63b8ff" stroke="#63b8ff" points="435.91,-161.41 446.46,-160.48 437.63,-154.63 435.91,-161.41"/>
</g>
<!-- Node15 -->
<g id="node15" class="node">
<title>Node15</title>
<g id="a_node15"><a xlink:href="Debug_8hpp.html#a9a564faad1bd32a5894d3706e38f1067" target="_top" xlink:title="Prints a line to the serial console for throttle debug.">
<polygon fill="white" stroke="#666666" points="538.5,-224.5 431.5,-224.5 431.5,-205.5 538.5,-205.5 538.5,-224.5"/>
<text text-anchor="middle" x="485" y="-212.5" font-family="Helvetica,sans-Serif" font-size="10.00">DBGLN_THROTTLE</text>
</a>
</g>
</g>
<!-- Node11&#45;&gt;Node15 -->
<g id="edge14" class="edge">
<title>Node11&#45;&gt;Node15</title>
<path fill="none" stroke="#63b8ff" d="M337.32,-142.16C357.89,-155.46 389.25,-174.84 418,-189 427.36,-193.61 437.76,-198.02 447.48,-201.85"/>
<polygon fill="#63b8ff" stroke="#63b8ff" points="446.32,-205.16 456.91,-205.48 448.84,-198.62 446.32,-205.16"/>
</g>
<!-- Node16 -->
<g id="node16" class="node">
<title>Node16</title>
<g id="a_node16"><a xlink:href="classPedal.html#a4ff4c5cf21550badfbb93b239b6bdee5" target="_top" xlink:title="Updates the CAN frame with the current pedal values.">
<polygon fill="white" stroke="#666666" points="552,-142 418,-142 418,-112 552,-112 552,-142"/>
<text text-anchor="start" x="426" y="-130" font-family="Helvetica,sans-Serif" font-size="10.00">Pedal::pedal_can_frame</text>
<text text-anchor="middle" x="485" y="-119" font-family="Helvetica,sans-Serif" font-size="10.00">_stop_motor</text>
</a>
</g>
</g>
<!-- Node11&#45;&gt;Node16 -->
<g id="edge16" class="edge">
<title>Node11&#45;&gt;Node16</title>
<path fill="none" stroke="#63b8ff" d="M380.52,-127C389.43,-127 398.64,-127 407.71,-127"/>
<polygon fill="#63b8ff" stroke="#63b8ff" points="407.88,-130.5 417.88,-127 407.88,-123.5 407.88,-130.5"/>
</g>
<!-- Node17 -->
<g id="node17" class="node">
<title>Node17</title>
<g id="a_node17"><a xlink:href="classPedal.html#a04ce7e5e20d8405f10f281d6c784e1ef" target="_top" xlink:title="Maps the pedal ADC to a torque value, handling deadzones and faults.">
<polygon fill="white" stroke="#666666" points="546,-94 424,-94 424,-64 546,-64 546,-94"/>
<text text-anchor="start" x="432" y="-82" font-family="Helvetica,sans-Serif" font-size="10.00">Pedal::throttle_torque</text>
<text text-anchor="middle" x="485" y="-71" font-family="Helvetica,sans-Serif" font-size="10.00">_mapping</text>
</a>
</g>
</g>
<!-- Node11&#45;&gt;Node17 -->
<g id="edge17" class="edge">
<title>Node11&#45;&gt;Node17</title>
<path fill="none" stroke="#63b8ff" d="M367.67,-111.94C384.7,-107.12 403.73,-101.73 421.38,-96.73"/>
<polygon fill="#63b8ff" stroke="#63b8ff" points="422.35,-100.09 431.02,-94 420.45,-93.36 422.35,-100.09"/>
</g>
<!-- Node13 -->
<g id="node13" class="node">
<title>Node13</title>
<g id="a_node13"><a xlink:href="namespaceDebug__CAN.html#ace21ce4da40cf6ae391410d839c59cb3" target="_top" xlink:title="Sends a debug throttle output message over CAN.">
<polygon fill="white" stroke="#666666" points="728.5,-205.5 591.5,-205.5 591.5,-186.5 728.5,-186.5 728.5,-205.5"/>
<text text-anchor="middle" x="660" y="-193.5" font-family="Helvetica,sans-Serif" font-size="10.00">Debug_CAN::throttle_out</text>
</a>
</g>
</g>
<!-- Node12&#45;&gt;Node13 -->
<g id="edge12" class="edge">
<title>Node12&#45;&gt;Node13</title>
<path fill="none" stroke="#63b8ff" d="M545.54,-178.95C558.39,-180.88 572.12,-182.94 585.44,-184.94"/>
<polygon fill="#63b8ff" stroke="#63b8ff" points="585.11,-188.43 595.52,-186.46 586.15,-181.51 585.11,-188.43"/>
</g>
<!-- Node14 -->
<g id="node14" class="node">
<title>Node14</title>
<g id="a_node14"><a xlink:href="namespaceDebug__Serial.html#a75dcfc17e13215b801dd9dafa6f7c515" target="_top" xlink:title="Prints a throttle output message to the serial console. This function formats and sends the throttle ...">
<polygon fill="white" stroke="#666666" points="732,-168.5 588,-168.5 588,-149.5 732,-149.5 732,-168.5"/>
<text text-anchor="middle" x="660" y="-156.5" font-family="Helvetica,sans-Serif" font-size="10.00">Debug_Serial::throttle_out</text>
</a>
</g>
</g>
<!-- Node12&#45;&gt;Node14 -->
<g id="edge13" class="edge">
<title>Node12&#45;&gt;Node14</title>
<path fill="none" stroke="#63b8ff" d="M545.54,-166.21C555.83,-165.56 566.69,-164.87 577.45,-164.19"/>
<polygon fill="#63b8ff" stroke="#63b8ff" points="577.96,-167.66 587.72,-163.53 577.51,-160.67 577.96,-167.66"/>
</g>
<!-- Node15&#45;&gt;Node6 -->
<g id="edge15" class="edge">
<title>Node15&#45;&gt;Node6</title>
<path fill="none" stroke="#63b8ff" d="M538.85,-222.33C555.13,-224.59 573.29,-227.11 590.47,-229.49"/>
<polygon fill="#63b8ff" stroke="#63b8ff" points="590.06,-232.97 600.45,-230.88 591.02,-226.04 590.06,-232.97"/>
</g>
<!-- Node18 -->
<g id="node18" class="node">
<title>Node18</title>
<g id="a_node18"><a xlink:href="classPedal.html#a00f33fcd9507c62193f2ffc3570b7fba" target="_top" xlink:title="Maps the brake ADC to a torque value.">
<polygon fill="white" stroke="#666666" points="716.5,-121 603.5,-121 603.5,-91 716.5,-91 716.5,-121"/>
<text text-anchor="start" x="611.5" y="-109" font-family="Helvetica,sans-Serif" font-size="10.00">Pedal::brake_torque</text>
<text text-anchor="middle" x="660" y="-98" font-family="Helvetica,sans-Serif" font-size="10.00">_mapping</text>
</a>
</g>
</g>
<!-- Node17&#45;&gt;Node18 -->
<g id="edge18" class="edge">
<title>Node17&#45;&gt;Node18</title>
<path fill="none" stroke="#63b8ff" d="M546.02,-88.37C561.31,-90.75 577.82,-93.33 593.38,-95.76"/>
<polygon fill="#63b8ff" stroke="#63b8ff" points="593.02,-99.24 603.44,-97.33 594.1,-92.33 593.02,-99.24"/>
</g>
<!-- Node21 -->
<g id="node21" class="node">
<title>Node21</title>
<g id="a_node21"><a xlink:href="Debug_8hpp.html#a27a4d84e5afbe5f46066606c2cfcd97d" target="_top" xlink:title="Sends throttle fault debug info via CAN or serial (if enabled). Overloads for fault status with or wi...">
<polygon fill="white" stroke="#666666" points="897,-72.5 768,-72.5 768,-53.5 897,-53.5 897,-72.5"/>
<text text-anchor="middle" x="832.5" y="-60.5" font-family="Helvetica,sans-Serif" font-size="10.00">DBG_THROTTLE_FAULT</text>
</a>
</g>
</g>
<!-- Node17&#45;&gt;Node21 -->
<g id="edge24" class="edge">
<title>Node17&#45;&gt;Node21</title>
<path fill="none" stroke="#63b8ff" d="M546.18,-76.21C604.97,-73.49 694.56,-69.34 757.64,-66.42"/>
<polygon fill="#63b8ff" stroke="#63b8ff" points="758.09,-69.9 767.92,-65.94 757.76,-62.91 758.09,-69.9"/>
</g>
<!-- Node19 -->
<g id="node19" class="node">
<title>Node19</title>
<g id="a_node19"><a xlink:href="Debug_8hpp.html#ae4f010051fc0b65e53e4305c62bae986" target="_top" xlink:title="Sends brake fault debug info via CAN or serial (if enabled). Overloads for fault status with or witho...">
<polygon fill="white" stroke="#666666" points="888,-117.5 777,-117.5 777,-98.5 888,-98.5 888,-117.5"/>
<text text-anchor="middle" x="832.5" y="-105.5" font-family="Helvetica,sans-Serif" font-size="10.00">DBG_BRAKE_FAULT</text>
</a>
</g>
</g>
<!-- Node18&#45;&gt;Node19 -->
<g id="edge19" class="edge">
<title>Node18&#45;&gt;Node19</title>
<path fill="none" stroke="#63b8ff" d="M716.83,-106.65C732.83,-106.84 750.41,-107.05 766.9,-107.24"/>
<polygon fill="#63b8ff" stroke="#63b8ff" points="766.96,-110.74 777,-107.36 767.04,-103.74 766.96,-110.74"/>
</g>
<!-- Node18&#45;&gt;Node21 -->
<g id="edge21" class="edge">
<title>Node18&#45;&gt;Node21</title>
<path fill="none" stroke="#63b8ff" d="M716.83,-91.92C738.44,-86.47 762.94,-80.29 783.72,-75.05"/>
<polygon fill="#63b8ff" stroke="#63b8ff" points="784.76,-78.4 793.6,-72.56 783.05,-71.61 784.76,-78.4"/>
</g>
<!-- Node20 -->
<g id="node20" class="node">
<title>Node20</title>
<g id="a_node20"><a xlink:href="namespaceDebug__Serial.html#a9d828bdca10efbda9f4e147a372cbc71" target="_top" xlink:title="Prints a brake fault message to the serial console. This function formats and sends the brake fault s...">
<polygon fill="white" stroke="#666666" points="1051.5,-126 937.5,-126 937.5,-96 1051.5,-96 1051.5,-126"/>
<text text-anchor="start" x="945.5" y="-114" font-family="Helvetica,sans-Serif" font-size="10.00">Debug_Serial::brake</text>
<text text-anchor="middle" x="994.5" y="-103" font-family="Helvetica,sans-Serif" font-size="10.00">_fault</text>
</a>
</g>
</g>
<!-- Node19&#45;&gt;Node20 -->
<g id="edge20" class="edge">
<title>Node19&#45;&gt;Node20</title>
<path fill="none" stroke="#63b8ff" d="M888.12,-109.02C900.69,-109.26 914.19,-109.51 927.2,-109.76"/>
<polygon fill="#63b8ff" stroke="#63b8ff" points="927.43,-113.26 937.5,-109.95 927.57,-106.26 927.43,-113.26"/>
</g>
<!-- Node22 -->
<g id="node22" class="node">
<title>Node22</title>
<g id="a_node22"><a xlink:href="namespaceDebug__CAN.html#a8e6443068f8aa21ba673ad7bc132e739" target="_top" xlink:title="Sends a debug throttle fault message over CAN with a float value.">
<polygon fill="white" stroke="#666666" points="1052.5,-78 936.5,-78 936.5,-48 1052.5,-48 1052.5,-78"/>
<text text-anchor="start" x="944.5" y="-66" font-family="Helvetica,sans-Serif" font-size="10.00">Debug_CAN::throttle</text>
<text text-anchor="middle" x="994.5" y="-55" font-family="Helvetica,sans-Serif" font-size="10.00">_fault</text>
</a>
</g>
</g>
<!-- Node21&#45;&gt;Node22 -->
<g id="edge22" class="edge">
<title>Node21&#45;&gt;Node22</title>
<path fill="none" stroke="#63b8ff" d="M897.2,-63C906.73,-63 916.59,-63 926.2,-63"/>
<polygon fill="#63b8ff" stroke="#63b8ff" points="926.5,-66.5 936.5,-63 926.5,-59.5 926.5,-66.5"/>
</g>
<!-- Node23 -->
<g id="node23" class="node">
<title>Node23</title>
<g id="a_node23"><a xlink:href="namespaceDebug__Serial.html#aa73ff8f930647f4c70741b4e50ef6a5d" target="_top" xlink:title="Prints a throttle fault message to the serial console. This function formats and sends the throttle f...">
<polygon fill="white" stroke="#666666" points="1056,-30 933,-30 933,0 1056,0 1056,-30"/>
<text text-anchor="start" x="941" y="-18" font-family="Helvetica,sans-Serif" font-size="10.00">Debug_Serial::throttle</text>
<text text-anchor="middle" x="994.5" y="-7" font-family="Helvetica,sans-Serif" font-size="10.00">_fault</text>
</a>
</g>
</g>
<!-- Node21&#45;&gt;Node23 -->
<g id="edge23" class="edge">
<title>Node21&#45;&gt;Node23</title>
<path fill="none" stroke="#63b8ff" d="M865.49,-53.4C884.96,-47.56 910.45,-39.91 933.56,-32.98"/>
<polygon fill="#63b8ff" stroke="#63b8ff" points="934.72,-36.29 943.29,-30.06 932.71,-29.58 934.72,-36.29"/>
</g>
</g>
</svg>
