<?xml version="1.0" encoding="UTF-8" standalone="no"?>
<!DOCTYPE svg PUBLIC "-//W3C//DTD SVG 1.1//EN"
 "http://www.w3.org/Graphics/SVG/1.1/DTD/svg11.dtd">
<!-- Generated by graphviz version 2.43.0 (0)
 -->
<!-- Title: setup Pages: 1 -->
<!--zoomable 239 -->
<svg id="main" version="1.1" xmlns="http://www.w3.org/2000/svg" xmlns:xlink="http://www.w3.org/1999/xlink" xml:space="preserve" onload="init(evt)">
<style type="text/css"><![CDATA[
.edge:hover path { stroke: red; }
.edge:hover polygon { stroke: red; fill: red; }
]]></style>
<script type="text/javascript"><![CDATA[
var edges = document.getElementsByTagName('g');
if (edges && edges.length) {
  for (var i=0;i<edges.length;i++) {
    if (edges[i].id.substr(0,4)=='edge') {
      edges[i].setAttribute('class','edge');
    }
  }
}
]]></script>
        <defs>
                <circle id="rim" cx="0" cy="0" r="7"/>
                <circle id="rim2" cx="0" cy="0" r="3.5"/>
                <g id="zoomPlus">
                        <use xlink:href="#rim" fill="#404040">
                                <set attributeName="fill" to="#808080" begin="zoomplus.mouseover" end="zoomplus.mouseout"/>
                        </use>
                        <path d="M-4,0h8M0,-4v8" fill="none" stroke="white" stroke-width="1.5" pointer-events="none"/>
                </g>
                <g id="zoomMin">
                        <use xlink:href="#rim" fill="#404040">
                                <set attributeName="fill" to="#808080" begin="zoomminus.mouseover" end="zoomminus.mouseout"/>
                        </use>
                        <path d="M-4,0h8" fill="none" stroke="white" stroke-width="1.5" pointer-events="none"/>
                </g>
                <g id="dirArrow">
                        <path fill="none" stroke="white" stroke-width="1.5" d="M0,-3.0v7 M-2.5,-0.5L0,-3.0L2.5,-0.5"/>
                </g>
               <g id="resetDef">
                       <use xlink:href="#rim2" fill="#404040">
                               <set attributeName="fill" to="#808080" begin="reset.mouseover" end="reset.mouseout"/>
                       </use>
               </g>
        </defs>

<script type="text/javascript">
var viewWidth = 766;
var viewHeight = 239;
var sectionId = 'dynsection-7';
</script>
<script xlink:href="svgpan.js"/>
<svg id="graph" class="graph">
<g id="viewport">
<title>setup</title>
<!-- Node1 -->
<g id="node1" class="node">
<title>Node1</title>
<g id="a_node1"><a xlink:title="Setup function for initializing the VCU system. Initializes MCP2515s, IO pins, as well as own modules...">
<polygon fill="#999999" stroke="#666666" points="44,-118 0,-118 0,-99 44,-99 44,-118"/>
<text text-anchor="middle" x="22" y="-106" font-family="Helvetica,sans-Serif" font-size="10.00">setup</text>
</a>
</g>
</g>
<!-- Node2 -->
<g id="node2" class="node">
<title>Node2</title>
<g id="a_node2"><a xlink:href="Debug_8hpp.html#a306ca7fb070dd487be4ea4ec3de74b85" target="_top" xlink:title="Sends car status debug info via CAN or serial (if enabled).">
<polygon fill="white" stroke="#666666" points="197.5,-213 91.5,-213 91.5,-194 197.5,-194 197.5,-213"/>
<text text-anchor="middle" x="144.5" y="-201" font-family="Helvetica,sans-Serif" font-size="10.00">DBG_STATUS_CAR</text>
</a>
</g>
</g>
<!-- Node1&#45;&gt;Node2 -->
<g id="edge1" class="edge">
<title>Node1&#45;&gt;Node2</title>
<path fill="none" stroke="#63b8ff" d="M28.4,-118.14C37.31,-133.21 56.46,-162.42 80,-179.5 85.64,-183.59 92.06,-187.08 98.6,-190.01"/>
<polygon fill="#63b8ff" stroke="#63b8ff" points="97.61,-193.39 108.2,-193.93 100.26,-186.91 97.61,-193.39"/>
</g>
<!-- Node5 -->
<g id="node5" class="node">
<title>Node5</title>
<g id="a_node5"><a xlink:href="Debug_8hpp.html#a8e8d6e3de15309922f25c12f4d7cf727" target="_top" xlink:title="Prints a line to the serial console for general debug.">
<polygon fill="white" stroke="#666666" points="364.5,-155 262.5,-155 262.5,-136 364.5,-136 364.5,-155"/>
<text text-anchor="middle" x="313.5" y="-143" font-family="Helvetica,sans-Serif" font-size="10.00">DBGLN_GENERAL</text>
</a>
</g>
</g>
<!-- Node1&#45;&gt;Node5 -->
<g id="edge4" class="edge">
<title>Node1&#45;&gt;Node5</title>
<path fill="none" stroke="#63b8ff" d="M33.35,-118.2C44.07,-127.52 61.79,-140.99 80,-146.5 136.51,-163.61 204.34,-160.84 252.11,-155.32"/>
<polygon fill="#63b8ff" stroke="#63b8ff" points="252.8,-158.77 262.29,-154.07 251.94,-151.82 252.8,-158.77"/>
</g>
<!-- Node7 -->
<g id="node7" class="node">
<title>Node7</title>
<g id="a_node7"><a xlink:href="namespaceDebug__Serial.html#ad136936636c7b7140cb1e14c55eb5f31" target="_top" xlink:title="Initializes the Debug_Serial interface. It should be called before using any other Debug_Serial funct...">
<polygon fill="white" stroke="#666666" points="209,-137 80,-137 80,-118 209,-118 209,-137"/>
<text text-anchor="middle" x="144.5" y="-125" font-family="Helvetica,sans-Serif" font-size="10.00">Debug_Serial::initialize</text>
</a>
</g>
</g>
<!-- Node1&#45;&gt;Node7 -->
<g id="edge6" class="edge">
<title>Node1&#45;&gt;Node7</title>
<path fill="none" stroke="#63b8ff" d="M44.27,-111.85C52.56,-113.16 62.58,-114.74 73.03,-116.39"/>
<polygon fill="#63b8ff" stroke="#63b8ff" points="72.7,-119.88 83.13,-117.98 73.79,-112.97 72.7,-119.88"/>
</g>
<!-- Node8 -->
<g id="node8" class="node">
<title>Node8</title>
<g id="a_node8"><a xlink:href="namespaceDebug__CAN.html#a5c8b33000e36a19ccb285e45f666e64e" target="_top" xlink:title="Initializes the Debug_CAN interface. It should be called before using any other Debug_CAN functions.">
<polygon fill="white" stroke="#666666" points="205.5,-100 83.5,-100 83.5,-81 205.5,-81 205.5,-100"/>
<text text-anchor="middle" x="144.5" y="-88" font-family="Helvetica,sans-Serif" font-size="10.00">Debug_CAN::initialize</text>
</a>
</g>
</g>
<!-- Node1&#45;&gt;Node8 -->
<g id="edge7" class="edge">
<title>Node1&#45;&gt;Node8</title>
<path fill="none" stroke="#63b8ff" d="M44.27,-105.32C52.61,-104.08 62.71,-102.57 73.22,-101"/>
<polygon fill="#63b8ff" stroke="#63b8ff" points="74.01,-104.42 83.39,-99.48 72.98,-97.5 74.01,-104.42"/>
</g>
<!-- Node9 -->
<g id="node9" class="node">
<title>Node9</title>
<g id="a_node9"><a xlink:href="main_8cpp.html#a95581c94a7dc4a68f61fa24f06cc90d1" target="_top" xlink:title=" ">
<polygon fill="white" stroke="#666666" points="184.5,-63 104.5,-63 104.5,-44 184.5,-44 184.5,-63"/>
<text text-anchor="middle" x="144.5" y="-51" font-family="Helvetica,sans-Serif" font-size="10.00">mcp2515_DL</text>
</a>
</g>
</g>
<!-- Node1&#45;&gt;Node9 -->
<g id="edge8" class="edge">
<title>Node1&#45;&gt;Node9</title>
<path fill="none" stroke="#63b8ff" d="M36.01,-98.83C47.2,-90.88 64.02,-79.77 80,-72.5 84.98,-70.24 90.29,-68.16 95.65,-66.28"/>
<polygon fill="#63b8ff" stroke="#63b8ff" points="96.87,-69.56 105.27,-63.1 94.68,-62.91 96.87,-69.56"/>
</g>
<!-- Node10 -->
<g id="node10" class="node">
<title>Node10</title>
<g id="a_node10"><a xlink:href="main_8cpp.html#a2668d80d0711f29d4507c48eb984f684" target="_top" xlink:title=" ">
<polygon fill="white" stroke="#666666" points="192.5,-26 96.5,-26 96.5,-7 192.5,-7 192.5,-26"/>
<text text-anchor="middle" x="144.5" y="-14" font-family="Helvetica,sans-Serif" font-size="10.00">scheduler_pedal</text>
</a>
</g>
</g>
<!-- Node1&#45;&gt;Node10 -->
<g id="edge9" class="edge">
<title>Node1&#45;&gt;Node10</title>
<path fill="none" stroke="#63b8ff" d="M27.92,-98.89C36.4,-83.26 55.3,-52.37 80,-35.5 82.94,-33.49 86.1,-31.69 89.37,-30.08"/>
<polygon fill="#63b8ff" stroke="#63b8ff" points="91.05,-33.17 98.86,-26.01 88.29,-26.74 91.05,-33.17"/>
</g>
<!-- Node3 -->
<g id="node3" class="node">
<title>Node3</title>
<g id="a_node3"><a xlink:href="namespaceDebug__CAN.html#a33ac5d84927aea929dc26f0820dd58c8" target="_top" xlink:title="Sends a debug car status message over CAN.">
<polygon fill="white" stroke="#666666" points="379,-231 248,-231 248,-212 379,-212 379,-231"/>
<text text-anchor="middle" x="313.5" y="-219" font-family="Helvetica,sans-Serif" font-size="10.00">Debug_CAN::status_car</text>
</a>
</g>
</g>
<!-- Node2&#45;&gt;Node3 -->
<g id="edge2" class="edge">
<title>Node2&#45;&gt;Node3</title>
<path fill="none" stroke="#63b8ff" d="M197.88,-209.15C210.54,-210.51 224.3,-211.99 237.76,-213.44"/>
<polygon fill="#63b8ff" stroke="#63b8ff" points="237.65,-216.95 247.97,-214.54 238.4,-209.99 237.65,-216.95"/>
</g>
<!-- Node4 -->
<g id="node4" class="node">
<title>Node4</title>
<g id="a_node4"><a xlink:href="namespaceDebug__Serial.html#a0f4070c8db2109f53b11b93580bb9472" target="_top" xlink:title="Prints the current car status to the serial console. This function formats and sends the current car ...">
<polygon fill="white" stroke="#666666" points="382,-194 245,-194 245,-175 382,-175 382,-194"/>
<text text-anchor="middle" x="313.5" y="-182" font-family="Helvetica,sans-Serif" font-size="10.00">Debug_Serial::status_car</text>
</a>
</g>
</g>
<!-- Node2&#45;&gt;Node4 -->
<g id="edge3" class="edge">
<title>Node2&#45;&gt;Node4</title>
<path fill="none" stroke="#63b8ff" d="M197.88,-197.54C209.66,-196.2 222.39,-194.75 234.95,-193.32"/>
<polygon fill="#63b8ff" stroke="#63b8ff" points="235.42,-196.79 244.96,-192.18 234.63,-189.84 235.42,-196.79"/>
</g>
<!-- Node6 -->
<g id="node6" class="node">
<title>Node6</title>
<g id="a_node6"><a xlink:href="namespaceDebug__Serial.html#a756fa9286151426012a6f8e178a6c550" target="_top" xlink:title="Prints a string AND a newline to the serial console.">
<polygon fill="white" stroke="#666666" points="745.5,-118 626.5,-118 626.5,-99 745.5,-99 745.5,-118"/>
<text text-anchor="middle" x="686" y="-106" font-family="Helvetica,sans-Serif" font-size="10.00">Debug_Serial::println</text>
</a>
</g>
</g>
<!-- Node5&#45;&gt;Node6 -->
<g id="edge5" class="edge">
<title>Node5&#45;&gt;Node6</title>
<path fill="none" stroke="#63b8ff" d="M364.85,-140.47C429.86,-133.98 543.26,-122.65 616.19,-115.37"/>
<polygon fill="#63b8ff" stroke="#63b8ff" points="616.59,-118.85 626.2,-114.37 615.9,-111.88 616.59,-118.85"/>
</g>
<!-- Node11 -->
<g id="node11" class="node">
<title>Node11</title>
<g id="a_node11"><a xlink:href="classPedal.html#affd04caf8f42a15c8942567b44e1186e" target="_top" xlink:title="Updates the CAN frame with the most recent pedal value.">
<polygon fill="white" stroke="#666666" points="362.5,-37 264.5,-37 264.5,-18 362.5,-18 362.5,-37"/>
<text text-anchor="middle" x="313.5" y="-25" font-family="Helvetica,sans-Serif" font-size="10.00">Pedal::canFrame</text>
</a>
</g>
</g>
<!-- Node10&#45;&gt;Node11 -->
<g id="edge10" class="edge">
<title>Node10&#45;&gt;Node11</title>
<path fill="none" stroke="#63b8ff" d="M192.91,-19.62C211.96,-20.88 234.11,-22.34 254.14,-23.66"/>
<polygon fill="#63b8ff" stroke="#63b8ff" points="254.18,-27.17 264.39,-24.33 254.64,-20.18 254.18,-27.17"/>
</g>
<!-- Node12 -->
<g id="node12" class="node">
<title>Node12</title>
<g id="a_node12"><a xlink:href="Debug_8hpp.html#a25f28d9aa7440ebc55a76a2b2ce878ea" target="_top" xlink:title="Sends throttle output debug info via CAN or serial (if enabled).">
<polygon fill="white" stroke="#666666" points="558.5,-56 437.5,-56 437.5,-37 558.5,-37 558.5,-56"/>
<text text-anchor="middle" x="498" y="-44" font-family="Helvetica,sans-Serif" font-size="10.00">DBG_THROTTLE_OUT</text>
</a>
</g>
</g>
<!-- Node11&#45;&gt;Node12 -->
<g id="edge11" class="edge">
<title>Node11&#45;&gt;Node12</title>
<path fill="none" stroke="#63b8ff" d="M362.93,-32.54C382.62,-34.59 405.75,-37 427.2,-39.23"/>
<polygon fill="#63b8ff" stroke="#63b8ff" points="426.94,-42.73 437.25,-40.28 427.67,-35.76 426.94,-42.73"/>
</g>
<!-- Node15 -->
<g id="node15" class="node">
<title>Node15</title>
<g id="a_node15"><a xlink:href="Debug_8hpp.html#a9a564faad1bd32a5894d3706e38f1067" target="_top" xlink:title="Prints a line to the serial console for throttle debug.">
<polygon fill="white" stroke="#666666" points="551.5,-102 444.5,-102 444.5,-83 551.5,-83 551.5,-102"/>
<text text-anchor="middle" x="498" y="-90" font-family="Helvetica,sans-Serif" font-size="10.00">DBGLN_THROTTLE</text>
</a>
</g>
</g>
<!-- Node11&#45;&gt;Node15 -->
<g id="edge14" class="edge">
<title>Node11&#45;&gt;Node15</title>
<path fill="none" stroke="#63b8ff" d="M339.96,-37.03C360.88,-44.81 391.3,-56.04 418,-65.5 431.28,-70.21 445.87,-75.23 458.85,-79.66"/>
<polygon fill="#63b8ff" stroke="#63b8ff" points="457.83,-83 468.42,-82.91 460.08,-76.38 457.83,-83"/>
</g>
<!-- Node16 -->
<g id="node16" class="node">
<title>Node16</title>
<g id="a_node16"><a xlink:href="classPedal.html#abef0e8d31dc31884f9944a149c6b8e5a" target="_top" xlink:title="Maps the pedal ADC to a torque value, handling deadzones and faults.">
<polygon fill="white" stroke="#666666" points="578,-19 418,-19 418,0 578,0 578,-19"/>
<text text-anchor="middle" x="498" y="-7" font-family="Helvetica,sans-Serif" font-size="10.00">Pedal::throttleTorqueMapping</text>
</a>
</g>
</g>
<!-- Node11&#45;&gt;Node16 -->
<g id="edge16" class="edge">
<title>Node11&#45;&gt;Node16</title>
<path fill="none" stroke="#63b8ff" d="M362.93,-22.72C376.79,-21.36 392.35,-19.82 407.84,-18.29"/>
<polygon fill="#63b8ff" stroke="#63b8ff" points="408.37,-21.76 417.98,-17.29 407.69,-14.79 408.37,-21.76"/>
</g>
<!-- Node13 -->
<g id="node13" class="node">
<title>Node13</title>
<g id="a_node13"><a xlink:href="namespaceDebug__CAN.html#ace21ce4da40cf6ae391410d839c59cb3" target="_top" xlink:title="Sends a debug throttle output message over CAN.">
<polygon fill="white" stroke="#666666" points="754.5,-77 617.5,-77 617.5,-58 754.5,-58 754.5,-77"/>
<text text-anchor="middle" x="686" y="-65" font-family="Helvetica,sans-Serif" font-size="10.00">Debug_CAN::throttle_out</text>
</a>
</g>
</g>
<!-- Node12&#45;&gt;Node13 -->
<g id="edge12" class="edge">
<title>Node12&#45;&gt;Node13</title>
<path fill="none" stroke="#63b8ff" d="M558.62,-53.23C574.11,-54.98 591.02,-56.89 607.29,-58.73"/>
<polygon fill="#63b8ff" stroke="#63b8ff" points="606.99,-62.21 617.32,-59.86 607.77,-55.26 606.99,-62.21"/>
</g>
<!-- Node14 -->
<g id="node14" class="node">
<title>Node14</title>
<g id="a_node14"><a xlink:href="namespaceDebug__Serial.html#a75dcfc17e13215b801dd9dafa6f7c515" target="_top" xlink:title="Prints a throttle output message to the serial console. This function formats and sends the throttle ...">
<polygon fill="white" stroke="#666666" points="758,-40 614,-40 614,-21 758,-21 758,-40"/>
<text text-anchor="middle" x="686" y="-28" font-family="Helvetica,sans-Serif" font-size="10.00">Debug_Serial::throttle_out</text>
</a>
</g>
</g>
<!-- Node12&#45;&gt;Node14 -->
<g id="edge13" class="edge">
<title>Node12&#45;&gt;Node14</title>
<path fill="none" stroke="#63b8ff" d="M558.62,-41.37C572.86,-40.15 588.31,-38.82 603.36,-37.52"/>
<polygon fill="#63b8ff" stroke="#63b8ff" points="604.03,-40.98 613.69,-36.63 603.43,-34 604.03,-40.98"/>
</g>
<!-- Node15&#45;&gt;Node6 -->
<g id="edge15" class="edge">
<title>Node15&#45;&gt;Node6</title>
<path fill="none" stroke="#63b8ff" d="M551.8,-97.04C571.74,-98.76 594.73,-100.73 615.93,-102.56"/>
<polygon fill="#63b8ff" stroke="#63b8ff" points="615.92,-106.07 626.18,-103.44 616.52,-99.1 615.92,-106.07"/>
</g>
</g>
</svg>
        <g id="navigator" transform="translate(0 0)" fill="#404254">
                <rect fill="#f2f5e9" fill-opacity="0.5" stroke="#606060" stroke-width=".5" x="0" y="0" width="60" height="60"/>
                <use id="zoomplus" xlink:href="#zoomPlus" x="17" y="9" onmousedown="handleZoom(evt,'in')"/>
                <use id="zoomminus" xlink:href="#zoomMin" x="42" y="9" onmousedown="handleZoom(evt,'out')"/>
                <use id="reset" xlink:href="#resetDef" x="30" y="36" onmousedown="handleReset()"/>
                <g id="arrowUp" xlink:href="#dirArrow" transform="translate(30 24)" onmousedown="handlePan(0,-1)">
                  <use xlink:href="#rim" fill="#404040">
                        <set attributeName="fill" to="#808080" begin="arrowUp.mouseover" end="arrowUp.mouseout"/>
                  </use>
                  <path fill="none" stroke="white" stroke-width="1.5" d="M0,-3.0v7 M-2.5,-0.5L0,-3.0L2.5,-0.5"/>
                </g>
                <g id="arrowRight" xlink:href="#dirArrow" transform="rotate(90) translate(36 -43)" onmousedown="handlePan(1,0)">
                  <use xlink:href="#rim" fill="#404040">
                        <set attributeName="fill" to="#808080" begin="arrowRight.mouseover" end="arrowRight.mouseout"/>
                  </use>
                  <path fill="none" stroke="white" stroke-width="1.5" d="M0,-3.0v7 M-2.5,-0.5L0,-3.0L2.5,-0.5"/>
                </g>
                <g id="arrowDown" xlink:href="#dirArrow" transform="rotate(180) translate(-30 -48)" onmousedown="handlePan(0,1)">
                  <use xlink:href="#rim" fill="#404040">
                        <set attributeName="fill" to="#808080" begin="arrowDown.mouseover" end="arrowDown.mouseout"/>
                  </use>
                  <path fill="none" stroke="white" stroke-width="1.5" d="M0,-3.0v7 M-2.5,-0.5L0,-3.0L2.5,-0.5"/>
                </g>
                <g id="arrowLeft" xlink:href="#dirArrow" transform="rotate(270) translate(-36 17)" onmousedown="handlePan(-1,0)">
                  <use xlink:href="#rim" fill="#404040">
                        <set attributeName="fill" to="#808080" begin="arrowLeft.mouseover" end="arrowLeft.mouseout"/>
                  </use>
                  <path fill="none" stroke="white" stroke-width="1.5" d="M0,-3.0v7 M-2.5,-0.5L0,-3.0L2.5,-0.5"/>
                </g>
        </g>
        <svg viewBox="0 0 15 15" width="100%" height="30px" preserveAspectRatio="xMaxYMin meet">
         <g id="arrow_out" transform="scale(0.3 0.3)">
          <a xlink:href="main_8cpp_a4fc01d736fe50cf5b977f755b675f11d_cgraph_org.svg" target="_base">
           <rect id="button" ry="5" rx="5" y="6" x="6" height="38" width="38"
                fill="#f2f5e9" fill-opacity="0.5" stroke="#606060" stroke-width="1.0"/>
           <path id="arrow"
             d="M 11.500037,31.436501 C 11.940474,20.09759 22.043105,11.32322 32.158766,21.979434 L 37.068811,17.246167 C 37.068811,17.246167 37.088388,32 37.088388,32 L 22.160133,31.978069 C 22.160133,31.978069 26.997745,27.140456 26.997745,27.140456 C 18.528582,18.264221 13.291696,25.230495 11.500037,31.436501 z"
             style="fill:#404040;"/>
          </a>
         </g>
        </svg>
</svg>
