<?xml version="1.0" encoding="UTF-8" standalone="no"?>
<!DOCTYPE svg PUBLIC "-//W3C//DTD SVG 1.1//EN"
 "http://www.w3.org/Graphics/SVG/1.1/DTD/svg11.dtd">
<!-- Generated by graphviz version 2.43.0 (0)
 -->
<!-- Title: src/main.cpp Pages: 1 -->
<!--zoomable 192 -->
<svg id="main" version="1.1" xmlns="http://www.w3.org/2000/svg" xmlns:xlink="http://www.w3.org/1999/xlink" xml:space="preserve" onload="init(evt)">
<style type="text/css"><![CDATA[
.edge:hover path { stroke: red; }
.edge:hover polygon { stroke: red; fill: red; }
]]></style>
<script type="text/javascript"><![CDATA[
var edges = document.getElementsByTagName('g');
if (edges && edges.length) {
  for (var i=0;i<edges.length;i++) {
    if (edges[i].id.substr(0,4)=='edge') {
      edges[i].setAttribute('class','edge');
    }
  }
}
]]></script>
        <defs>
                <circle id="rim" cx="0" cy="0" r="7"/>
                <circle id="rim2" cx="0" cy="0" r="3.5"/>
                <g id="zoomPlus">
                        <use xlink:href="#rim" fill="#404040">
                                <set attributeName="fill" to="#808080" begin="zoomplus.mouseover" end="zoomplus.mouseout"/>
                        </use>
                        <path d="M-4,0h8M0,-4v8" fill="none" stroke="white" stroke-width="1.5" pointer-events="none"/>
                </g>
                <g id="zoomMin">
                        <use xlink:href="#rim" fill="#404040">
                                <set attributeName="fill" to="#808080" begin="zoomminus.mouseover" end="zoomminus.mouseout"/>
                        </use>
                        <path d="M-4,0h8" fill="none" stroke="white" stroke-width="1.5" pointer-events="none"/>
                </g>
                <g id="dirArrow">
                        <path fill="none" stroke="white" stroke-width="1.5" d="M0,-3.0v7 M-2.5,-0.5L0,-3.0L2.5,-0.5"/>
                </g>
               <g id="resetDef">
                       <use xlink:href="#rim2" fill="#404040">
                               <set attributeName="fill" to="#808080" begin="reset.mouseover" end="reset.mouseout"/>
                       </use>
               </g>
        </defs>

<script type="text/javascript">
var viewWidth = 655;
var viewHeight = 192;
var sectionId = 'dynsection-0';
</script>
<script xlink:href="svgpan.js"/>
<svg id="graph" class="graph">
<g id="viewport">
<title>src/main.cpp</title>
<!-- Node1 -->
<g id="node1" class="node">
<title>Node1</title>
<g id="a_node1"><a xlink:title=" ">
<polygon fill="#999999" stroke="#666666" points="376,-184 297,-184 297,-165 376,-165 376,-184"/>
<text text-anchor="middle" x="336.5" y="-172" font-family="Helvetica,sans-Serif" font-size="10.00">src/main.cpp</text>
</a>
</g>
</g>
<!-- Node2 -->
<g id="node2" class="node">
<title>Node2</title>
<g id="a_node2"><a xlink:title=" ">
<polygon fill="#e0e0e0" stroke="#999999" points="63,-74 0,-74 0,-55 63,-55 63,-74"/>
<text text-anchor="middle" x="31.5" y="-62" font-family="Helvetica,sans-Serif" font-size="10.00">Arduino.h</text>
</a>
</g>
</g>
<!-- Node1&#45;&gt;Node2 -->
<g id="edge1" class="edge">
<title>Node1&#45;&gt;Node2</title>
<path fill="none" stroke="#63b8ff" d="M296.63,-173.23C246.84,-171.35 160.34,-162.93 95.5,-129 74.14,-117.82 55.31,-97.11 43.71,-82.38"/>
<polygon fill="#63b8ff" stroke="#63b8ff" points="46.28,-79.98 37.45,-74.12 40.7,-84.21 46.28,-79.98"/>
</g>
<!-- Node3 -->
<g id="node3" class="node">
<title>Node3</title>
<g id="a_node3"><a xlink:href="boardConf_8h.html" target="_top" xlink:title=" ">
<polygon fill="white" stroke="#666666" points="180,-129 105,-129 105,-110 180,-110 180,-129"/>
<text text-anchor="middle" x="142.5" y="-117" font-family="Helvetica,sans-Serif" font-size="10.00">boardConf.h</text>
</a>
</g>
</g>
<!-- Node1&#45;&gt;Node3 -->
<g id="edge2" class="edge">
<title>Node1&#45;&gt;Node3</title>
<path fill="none" stroke="#63b8ff" d="M305.33,-164.98C272.34,-155.97 220.1,-141.7 183.73,-131.76"/>
<polygon fill="#63b8ff" stroke="#63b8ff" points="184.48,-128.34 173.91,-129.08 182.64,-135.09 184.48,-128.34"/>
</g>
<!-- Node4 -->
<g id="node4" class="node">
<title>Node4</title>
<g id="a_node4"><a xlink:href="Pedal_8h.html" target="_top" xlink:title=" ">
<polygon fill="white" stroke="#666666" points="251,-129 198,-129 198,-110 251,-110 251,-129"/>
<text text-anchor="middle" x="224.5" y="-117" font-family="Helvetica,sans-Serif" font-size="10.00">Pedal.h</text>
</a>
</g>
</g>
<!-- Node1&#45;&gt;Node4 -->
<g id="edge3" class="edge">
<title>Node1&#45;&gt;Node4</title>
<path fill="none" stroke="#63b8ff" d="M318.51,-164.98C300.57,-156.5 272.78,-143.35 252.07,-133.54"/>
<polygon fill="#63b8ff" stroke="#63b8ff" points="253.36,-130.28 242.82,-129.17 250.36,-136.61 253.36,-130.28"/>
</g>
<!-- Node8 -->
<g id="node8" class="node">
<title>Node8</title>
<g id="a_node8"><a xlink:href="car__state_8h.html" target="_top" xlink:title=" ">
<polygon fill="white" stroke="#666666" points="327,-74 256,-74 256,-55 327,-55 327,-74"/>
<text text-anchor="middle" x="291.5" y="-62" font-family="Helvetica,sans-Serif" font-size="10.00">car_state.h</text>
</a>
</g>
</g>
<!-- Node1&#45;&gt;Node8 -->
<g id="edge18" class="edge">
<title>Node1&#45;&gt;Node8</title>
<path fill="none" stroke="#63b8ff" d="M326.17,-164.77C317.2,-156.55 304.71,-143.36 298.5,-129 292.37,-114.83 290.84,-97.29 290.71,-84.24"/>
<polygon fill="#63b8ff" stroke="#63b8ff" points="294.22,-84.18 290.89,-74.12 287.22,-84.06 294.22,-84.18"/>
</g>
<!-- Node9 -->
<g id="node9" class="node">
<title>Node9</title>
<g id="a_node9"><a xlink:href="Enums_8h.html" target="_top" xlink:title=" ">
<polygon fill="white" stroke="#666666" points="385,-19 326,-19 326,0 385,0 385,-19"/>
<text text-anchor="middle" x="355.5" y="-7" font-family="Helvetica,sans-Serif" font-size="10.00">Enums.h</text>
</a>
</g>
</g>
<!-- Node1&#45;&gt;Node9 -->
<g id="edge17" class="edge">
<title>Node1&#45;&gt;Node9</title>
<path fill="none" stroke="#63b8ff" d="M346.94,-164.87C355.92,-156.7 368.24,-143.55 373.5,-129 385.83,-94.89 373.02,-52.29 363.6,-28.58"/>
<polygon fill="#63b8ff" stroke="#63b8ff" points="366.71,-26.97 359.6,-19.11 360.26,-29.69 366.71,-26.97"/>
</g>
<!-- Node10 -->
<g id="node10" class="node">
<title>Node10</title>
<g id="a_node10"><a xlink:href="BMS_8h.html" target="_top" xlink:title=" ">
<polygon fill="white" stroke="#666666" points="469,-129 422,-129 422,-110 469,-110 469,-129"/>
<text text-anchor="middle" x="445.5" y="-117" font-family="Helvetica,sans-Serif" font-size="10.00">BMS.h</text>
</a>
</g>
</g>
<!-- Node1&#45;&gt;Node10 -->
<g id="edge12" class="edge">
<title>Node1&#45;&gt;Node10</title>
<path fill="none" stroke="#63b8ff" d="M354.01,-164.98C371.47,-156.5 398.51,-143.35 418.67,-133.54"/>
<polygon fill="#63b8ff" stroke="#63b8ff" points="420.21,-136.69 427.67,-129.17 417.14,-130.4 420.21,-136.69"/>
</g>
<!-- Node11 -->
<g id="node11" class="node">
<title>Node11</title>
<g id="a_node11"><a xlink:title=" ">
<polygon fill="#e0e0e0" stroke="#999999" points="552,-19 481,-19 481,0 552,0 552,-19"/>
<text text-anchor="middle" x="516.5" y="-7" font-family="Helvetica,sans-Serif" font-size="10.00">mcp2515.h</text>
</a>
</g>
</g>
<!-- Node1&#45;&gt;Node11 -->
<g id="edge14" class="edge">
<title>Node1&#45;&gt;Node11</title>
<path fill="none" stroke="#63b8ff" d="M376.18,-170.68C407.57,-166.4 450.47,-155.7 477.5,-129 505.02,-101.82 513.12,-54.9 515.51,-29"/>
<polygon fill="#63b8ff" stroke="#63b8ff" points="519,-29.25 516.23,-19.02 512.02,-28.74 519,-29.25"/>
</g>
<!-- Node12 -->
<g id="node12" class="node">
<title>Node12</title>
<g id="a_node12"><a xlink:href="Debug_8h.html" target="_top" xlink:title=" ">
<polygon fill="white" stroke="#666666" points="365,-129 308,-129 308,-110 365,-110 365,-129"/>
<text text-anchor="middle" x="336.5" y="-117" font-family="Helvetica,sans-Serif" font-size="10.00">Debug.h</text>
</a>
</g>
</g>
<!-- Node1&#45;&gt;Node12 -->
<g id="edge15" class="edge">
<title>Node1&#45;&gt;Node12</title>
<path fill="none" stroke="#63b8ff" d="M336.5,-164.75C336.5,-157.8 336.5,-147.85 336.5,-139.13"/>
<polygon fill="#63b8ff" stroke="#63b8ff" points="340,-139.09 336.5,-129.09 333,-139.09 340,-139.09"/>
</g>
<!-- Node13 -->
<g id="node13" class="node">
<title>Node13</title>
<g id="a_node13"><a xlink:href="Scheduler_8hpp.html" target="_top" xlink:title="Declaration of the Scheduler class template, for scheduling tasks on multiple MCP2515 instances.">
<polygon fill="white" stroke="#666666" points="629,-129 544,-129 544,-110 629,-110 629,-129"/>
<text text-anchor="middle" x="586.5" y="-117" font-family="Helvetica,sans-Serif" font-size="10.00">Scheduler.hpp</text>
</a>
</g>
</g>
<!-- Node1&#45;&gt;Node13 -->
<g id="edge19" class="edge">
<title>Node1&#45;&gt;Node13</title>
<path fill="none" stroke="#63b8ff" d="M376.11,-165.1C419.47,-155.91 489.08,-141.15 536.24,-131.15"/>
<polygon fill="#63b8ff" stroke="#63b8ff" points="537.19,-134.53 546.24,-129.03 535.74,-127.68 537.19,-134.53"/>
</g>
<!-- Node4&#45;&gt;Node2 -->
<g id="edge11" class="edge">
<title>Node4&#45;&gt;Node2</title>
<path fill="none" stroke="#63b8ff" d="M197.66,-111.13C165.15,-102.2 110.03,-87.07 72.26,-76.69"/>
<polygon fill="#63b8ff" stroke="#63b8ff" points="73.15,-73.31 62.58,-74.03 71.29,-80.06 73.15,-73.31"/>
</g>
<!-- Node5 -->
<g id="node5" class="node">
<title>Node5</title>
<g id="a_node5"><a xlink:title=" ">
<polygon fill="#e0e0e0" stroke="#999999" points="254,-19 201,-19 201,0 254,0 254,-19"/>
<text text-anchor="middle" x="227.5" y="-7" font-family="Helvetica,sans-Serif" font-size="10.00">stdint.h</text>
</a>
</g>
</g>
<!-- Node4&#45;&gt;Node5 -->
<g id="edge4" class="edge">
<title>Node4&#45;&gt;Node5</title>
<path fill="none" stroke="#63b8ff" d="M224.75,-109.66C225.23,-92.17 226.32,-52.8 226.98,-29.27"/>
<polygon fill="#63b8ff" stroke="#63b8ff" points="230.48,-29.25 227.26,-19.16 223.48,-29.06 230.48,-29.25"/>
</g>
<!-- Node6 -->
<g id="node6" class="node">
<title>Node6</title>
<g id="a_node6"><a xlink:href="Queue_8h.html" target="_top" xlink:title=" ">
<polygon fill="white" stroke="#666666" points="199,-74 142,-74 142,-55 199,-55 199,-74"/>
<text text-anchor="middle" x="170.5" y="-62" font-family="Helvetica,sans-Serif" font-size="10.00">Queue.h</text>
</a>
</g>
</g>
<!-- Node4&#45;&gt;Node6 -->
<g id="edge5" class="edge">
<title>Node4&#45;&gt;Node6</title>
<path fill="none" stroke="#63b8ff" d="M215.58,-109.75C207.72,-102.03 196.07,-90.6 186.58,-81.28"/>
<polygon fill="#63b8ff" stroke="#63b8ff" points="188.84,-78.6 179.25,-74.09 183.94,-83.59 188.84,-78.6"/>
</g>
<!-- Node7 -->
<g id="node7" class="node">
<title>Node7</title>
<g id="a_node7"><a xlink:title=" ">
<polygon fill="#e0e0e0" stroke="#999999" points="124,-74 81,-74 81,-55 124,-55 124,-74"/>
<text text-anchor="middle" x="102.5" y="-62" font-family="Helvetica,sans-Serif" font-size="10.00">can.h</text>
</a>
</g>
</g>
<!-- Node4&#45;&gt;Node7 -->
<g id="edge7" class="edge">
<title>Node4&#45;&gt;Node7</title>
<path fill="none" stroke="#63b8ff" d="M204.9,-109.98C185.18,-101.42 154.55,-88.11 131.92,-78.28"/>
<polygon fill="#63b8ff" stroke="#63b8ff" points="133.02,-74.94 122.46,-74.17 130.24,-81.37 133.02,-74.94"/>
</g>
<!-- Node4&#45;&gt;Node8 -->
<g id="edge8" class="edge">
<title>Node4&#45;&gt;Node8</title>
<path fill="none" stroke="#63b8ff" d="M235.26,-109.98C245.27,-102.07 260.39,-90.11 272.43,-80.58"/>
<polygon fill="#63b8ff" stroke="#63b8ff" points="274.87,-83.12 280.54,-74.17 270.53,-77.63 274.87,-83.12"/>
</g>
<!-- Node6&#45;&gt;Node5 -->
<g id="edge6" class="edge">
<title>Node6&#45;&gt;Node5</title>
<path fill="none" stroke="#63b8ff" d="M179.66,-54.98C188,-47.23 200.53,-35.58 210.68,-26.14"/>
<polygon fill="#63b8ff" stroke="#63b8ff" points="213.24,-28.54 218.18,-19.17 208.47,-23.42 213.24,-28.54"/>
</g>
<!-- Node8&#45;&gt;Node5 -->
<g id="edge10" class="edge">
<title>Node8&#45;&gt;Node5</title>
<path fill="none" stroke="#63b8ff" d="M281.22,-54.98C271.66,-47.07 257.22,-35.11 245.72,-25.58"/>
<polygon fill="#63b8ff" stroke="#63b8ff" points="247.9,-22.85 237.97,-19.17 243.44,-28.24 247.9,-22.85"/>
</g>
<!-- Node8&#45;&gt;Node9 -->
<g id="edge9" class="edge">
<title>Node8&#45;&gt;Node9</title>
<path fill="none" stroke="#63b8ff" d="M301.78,-54.98C311.34,-47.07 325.78,-35.11 337.28,-25.58"/>
<polygon fill="#63b8ff" stroke="#63b8ff" points="339.56,-28.24 345.03,-19.17 335.1,-22.85 339.56,-28.24"/>
</g>
<!-- Node10&#45;&gt;Node11 -->
<g id="edge13" class="edge">
<title>Node10&#45;&gt;Node11</title>
<path fill="none" stroke="#63b8ff" d="M450.4,-109.7C457.39,-97.29 470.8,-74.02 483.5,-55 489.78,-45.6 497.24,-35.46 503.48,-27.23"/>
<polygon fill="#63b8ff" stroke="#63b8ff" points="506.35,-29.24 509.66,-19.18 500.8,-24.98 506.35,-29.24"/>
</g>
<!-- Node12&#45;&gt;Node9 -->
<g id="edge16" class="edge">
<title>Node12&#45;&gt;Node9</title>
<path fill="none" stroke="#63b8ff" d="M338.05,-109.66C341.13,-92.17 348.06,-52.8 352.2,-29.27"/>
<polygon fill="#63b8ff" stroke="#63b8ff" points="355.69,-29.61 353.98,-19.16 348.8,-28.4 355.69,-29.61"/>
</g>
<!-- Node13&#45;&gt;Node11 -->
<g id="edge20" class="edge">
<title>Node13&#45;&gt;Node11</title>
<path fill="none" stroke="#63b8ff" d="M579.9,-109.79C573.27,-100.93 562.86,-86.72 554.5,-74 544.49,-58.77 533.91,-40.92 526.46,-28.03"/>
<polygon fill="#63b8ff" stroke="#63b8ff" points="529.45,-26.21 521.44,-19.27 523.37,-29.69 529.45,-26.21"/>
</g>
<!-- Node14 -->
<g id="node14" class="node">
<title>Node14</title>
<g id="a_node14"><a xlink:href="Scheduler_8tpp.html" target="_top" xlink:title="Implementation of the Scheduler class template.">
<polygon fill="white" stroke="#666666" points="647,-74 564,-74 564,-55 647,-55 647,-74"/>
<text text-anchor="middle" x="605.5" y="-62" font-family="Helvetica,sans-Serif" font-size="10.00">Scheduler.tpp</text>
</a>
</g>
</g>
<!-- Node13&#45;&gt;Node14 -->
<g id="edge21" class="edge">
<title>Node13&#45;&gt;Node14</title>
<path fill="none" stroke="#63b8ff" d="M584.47,-109.75C585.5,-102.57 588.81,-92.18 592.72,-83.27"/>
<polygon fill="#63b8ff" stroke="#63b8ff" points="595.96,-84.6 597.29,-74.09 589.7,-81.48 595.96,-84.6"/>
</g>
<!-- Node14&#45;&gt;Node11 -->
<g id="edge22" class="edge">
<title>Node14&#45;&gt;Node11</title>
<path fill="none" stroke="#63b8ff" d="M591.2,-54.98C577.4,-46.77 556.26,-34.18 539.99,-24.49"/>
<polygon fill="#63b8ff" stroke="#63b8ff" points="541.44,-21.28 531.06,-19.17 537.86,-27.29 541.44,-21.28"/>
</g>
<!-- Node14&#45;&gt;Node13 -->
<g id="edge23" class="edge">
<title>Node14&#45;&gt;Node13</title>
<path fill="none" stroke="#63b8ff" d="M607.55,-74.09C606.56,-81.22 603.27,-91.6 599.37,-100.53"/>
<polygon fill="#63b8ff" stroke="#63b8ff" points="596.11,-99.23 594.8,-109.75 602.38,-102.34 596.11,-99.23"/>
</g>
</g>
</svg>
        <g id="navigator" transform="translate(0 0)" fill="#404254">
                <rect fill="#f2f5e9" fill-opacity="0.5" stroke="#606060" stroke-width=".5" x="0" y="0" width="60" height="60"/>
                <use id="zoomplus" xlink:href="#zoomPlus" x="17" y="9" onmousedown="handleZoom(evt,'in')"/>
                <use id="zoomminus" xlink:href="#zoomMin" x="42" y="9" onmousedown="handleZoom(evt,'out')"/>
                <use id="reset" xlink:href="#resetDef" x="30" y="36" onmousedown="handleReset()"/>
                <g id="arrowUp" xlink:href="#dirArrow" transform="translate(30 24)" onmousedown="handlePan(0,-1)">
                  <use xlink:href="#rim" fill="#404040">
                        <set attributeName="fill" to="#808080" begin="arrowUp.mouseover" end="arrowUp.mouseout"/>
                  </use>
                  <path fill="none" stroke="white" stroke-width="1.5" d="M0,-3.0v7 M-2.5,-0.5L0,-3.0L2.5,-0.5"/>
                </g>
                <g id="arrowRight" xlink:href="#dirArrow" transform="rotate(90) translate(36 -43)" onmousedown="handlePan(1,0)">
                  <use xlink:href="#rim" fill="#404040">
                        <set attributeName="fill" to="#808080" begin="arrowRight.mouseover" end="arrowRight.mouseout"/>
                  </use>
                  <path fill="none" stroke="white" stroke-width="1.5" d="M0,-3.0v7 M-2.5,-0.5L0,-3.0L2.5,-0.5"/>
                </g>
                <g id="arrowDown" xlink:href="#dirArrow" transform="rotate(180) translate(-30 -48)" onmousedown="handlePan(0,1)">
                  <use xlink:href="#rim" fill="#404040">
                        <set attributeName="fill" to="#808080" begin="arrowDown.mouseover" end="arrowDown.mouseout"/>
                  </use>
                  <path fill="none" stroke="white" stroke-width="1.5" d="M0,-3.0v7 M-2.5,-0.5L0,-3.0L2.5,-0.5"/>
                </g>
                <g id="arrowLeft" xlink:href="#dirArrow" transform="rotate(270) translate(-36 17)" onmousedown="handlePan(-1,0)">
                  <use xlink:href="#rim" fill="#404040">
                        <set attributeName="fill" to="#808080" begin="arrowLeft.mouseover" end="arrowLeft.mouseout"/>
                  </use>
                  <path fill="none" stroke="white" stroke-width="1.5" d="M0,-3.0v7 M-2.5,-0.5L0,-3.0L2.5,-0.5"/>
                </g>
        </g>
        <svg viewBox="0 0 15 15" width="100%" height="30px" preserveAspectRatio="xMaxYMin meet">
         <g id="arrow_out" transform="scale(0.3 0.3)">
          <a xlink:href="main_8cpp__incl_org.svg" target="_base">
           <rect id="button" ry="5" rx="5" y="6" x="6" height="38" width="38"
                fill="#f2f5e9" fill-opacity="0.5" stroke="#606060" stroke-width="1.0"/>
           <path id="arrow"
             d="M 11.500037,31.436501 C 11.940474,20.09759 22.043105,11.32322 32.158766,21.979434 L 37.068811,17.246167 C 37.068811,17.246167 37.088388,32 37.088388,32 L 22.160133,31.978069 C 22.160133,31.978069 26.997745,27.140456 26.997745,27.140456 C 18.528582,18.264221 13.291696,25.230495 11.500037,31.436501 z"
             style="fill:#404040;"/>
          </a>
         </g>
        </svg>
</svg>
