<?xml version="1.0" encoding="UTF-8" standalone="no"?>
<!DOCTYPE svg PUBLIC "-//W3C//DTD SVG 1.1//EN"
 "http://www.w3.org/Graphics/SVG/1.1/DTD/svg11.dtd">
<!-- Generated by graphviz version 2.43.0 (0)
 -->
<!-- Title: loop Pages: 1 -->
<svg width="386pt" height="151pt"
 viewBox="0.00 0.00 386.00 151.00" xmlns="http://www.w3.org/2000/svg" xmlns:xlink="http://www.w3.org/1999/xlink">
<g id="graph0" class="graph" transform="scale(1 1) rotate(0) translate(4 147)">
<title>loop</title>
<!-- Node1 -->
<g id="node1" class="node">
<title>Node1</title>
<g id="a_node1"><a xlink:title=" ">
<polygon fill="#999999" stroke="#666666" points="38,-83 0,-83 0,-64 38,-64 38,-83"/>
<text text-anchor="middle" x="19" y="-71" font-family="Helvetica,sans-Serif" font-size="10.00">loop</text>
</a>
</g>
</g>
<!-- Node2 -->
<g id="node2" class="node">
<title>Node2</title>
<g id="a_node2"><a xlink:href="main_8cpp.html#a9215d3772fc8e03a4ccd56fe9c7b5fc5" target="_top" xlink:title=" ">
<polygon fill="white" stroke="#666666" points="189,-143 93,-143 93,-124 189,-124 189,-143"/>
<text text-anchor="middle" x="141" y="-131" font-family="Helvetica,sans-Serif" font-size="10.00">mcp2515_motor</text>
</a>
</g>
</g>
<!-- Node1&#45;&gt;Node2 -->
<g id="edge1" class="edge">
<title>Node1&#45;&gt;Node2</title>
<path fill="none" stroke="#63b8ff" d="M32.78,-83.3C43.4,-91.12 59.12,-101.97 74,-109.5 82.06,-113.58 90.99,-117.31 99.6,-120.55"/>
<polygon fill="#63b8ff" stroke="#63b8ff" points="98.54,-123.88 109.13,-123.99 100.91,-117.3 98.54,-123.88"/>
</g>
<!-- Node3 -->
<g id="node3" class="node">
<title>Node3</title>
<g id="a_node3"><a xlink:href="classPedal.html#a4ff4c5cf21550badfbb93b239b6bdee5" target="_top" xlink:title=" ">
<polygon fill="white" stroke="#666666" points="378,-88.5 244,-88.5 244,-58.5 378,-58.5 378,-88.5"/>
<text text-anchor="start" x="252" y="-76.5" font-family="Helvetica,sans-Serif" font-size="10.00">Pedal::pedal_can_frame</text>
<text text-anchor="middle" x="311" y="-65.5" font-family="Helvetica,sans-Serif" font-size="10.00">_stop_motor</text>
</a>
</g>
</g>
<!-- Node1&#45;&gt;Node3 -->
<g id="edge2" class="edge">
<title>Node1&#45;&gt;Node3</title>
<path fill="none" stroke="#63b8ff" d="M38.48,-74.78C48.91,-75.44 62.17,-76.17 74,-76.5 127.31,-77.98 187.42,-77.18 233.63,-76.03"/>
<polygon fill="#63b8ff" stroke="#63b8ff" points="233.96,-79.53 243.87,-75.77 233.78,-72.53 233.96,-79.53"/>
</g>
<!-- Node4 -->
<g id="node4" class="node">
<title>Node4</title>
<g id="a_node4"><a xlink:href="classPedal.html#a7ba3e35aa516afdfc47606619d16e3a2" target="_top" xlink:title=" ">
<polygon fill="white" stroke="#666666" points="208,-67.5 74,-67.5 74,-37.5 208,-37.5 208,-67.5"/>
<text text-anchor="start" x="82" y="-55.5" font-family="Helvetica,sans-Serif" font-size="10.00">Pedal::pedal_can_frame</text>
<text text-anchor="middle" x="141" y="-44.5" font-family="Helvetica,sans-Serif" font-size="10.00">_update</text>
</a>
</g>
</g>
<!-- Node1&#45;&gt;Node4 -->
<g id="edge3" class="edge">
<title>Node1&#45;&gt;Node4</title>
<path fill="none" stroke="#63b8ff" d="M38.23,-70.31C45.48,-69.04 54.34,-67.49 63.79,-65.84"/>
<polygon fill="#63b8ff" stroke="#63b8ff" points="64.55,-69.26 73.8,-64.09 63.34,-62.36 64.55,-69.26"/>
</g>
<!-- Node5 -->
<g id="node5" class="node">
<title>Node5</title>
<g id="a_node5"><a xlink:href="classPedal.html#ab1c72e4ea23bb08ea320a84a6db8902b" target="_top" xlink:title=" ">
<polygon fill="white" stroke="#666666" points="199,-19 83,-19 83,0 199,0 199,-19"/>
<text text-anchor="middle" x="141" y="-7" font-family="Helvetica,sans-Serif" font-size="10.00">Pedal::pedal_update</text>
</a>
</g>
</g>
<!-- Node1&#45;&gt;Node5 -->
<g id="edge5" class="edge">
<title>Node1&#45;&gt;Node5</title>
<path fill="none" stroke="#63b8ff" d="M29.06,-63.87C39.13,-53.71 56.32,-37.88 74,-28.5 78.25,-26.24 82.81,-24.23 87.46,-22.43"/>
<polygon fill="#63b8ff" stroke="#63b8ff" points="88.81,-25.67 97.09,-19.05 86.49,-19.06 88.81,-25.67"/>
</g>
<!-- Node4&#45;&gt;Node3 -->
<g id="edge4" class="edge">
<title>Node4&#45;&gt;Node3</title>
<path fill="none" stroke="#63b8ff" d="M208.4,-60.8C216.68,-61.83 225.2,-62.9 233.62,-63.95"/>
<polygon fill="#63b8ff" stroke="#63b8ff" points="233.45,-67.46 243.81,-65.23 234.32,-60.51 233.45,-67.46"/>
</g>
<!-- Node6 -->
<g id="node6" class="node">
<title>Node6</title>
<g id="a_node6"><a xlink:href="classRingBuffer.html#ad30671837bc9ec407735ecedaeabf36c" target="_top" xlink:title=" ">
<polygon fill="white" stroke="#666666" points="359.5,-19 262.5,-19 262.5,0 359.5,0 359.5,-19"/>
<text text-anchor="middle" x="311" y="-7" font-family="Helvetica,sans-Serif" font-size="10.00">RingBuffer::push</text>
</a>
</g>
</g>
<!-- Node5&#45;&gt;Node6 -->
<g id="edge6" class="edge">
<title>Node5&#45;&gt;Node6</title>
<path fill="none" stroke="#63b8ff" d="M199.35,-9.5C216.35,-9.5 234.98,-9.5 252.02,-9.5"/>
<polygon fill="#63b8ff" stroke="#63b8ff" points="252.4,-13 262.4,-9.5 252.4,-6 252.4,-13"/>
</g>
</g>
</svg>
