<?xml version="1.0" encoding="UTF-8" standalone="no"?>
<!DOCTYPE svg PUBLIC "-//W3C//DTD SVG 1.1//EN"
 "http://www.w3.org/Graphics/SVG/1.1/DTD/svg11.dtd">
<!-- Generated by graphviz version 2.43.0 (0)
 -->
<!-- Title: loop Pages: 1 -->
<!--zoomable 347 -->
<svg id="main" version="1.1" xmlns="http://www.w3.org/2000/svg" xmlns:xlink="http://www.w3.org/1999/xlink" xml:space="preserve" onload="init(evt)">
<style type="text/css"><![CDATA[
.edge:hover path { stroke: red; }
.edge:hover polygon { stroke: red; fill: red; }
]]></style>
<script type="text/javascript"><![CDATA[
var edges = document.getElementsByTagName('g');
if (edges && edges.length) {
  for (var i=0;i<edges.length;i++) {
    if (edges[i].id.substr(0,4)=='edge') {
      edges[i].setAttribute('class','edge');
    }
  }
}
]]></script>
        <defs>
                <circle id="rim" cx="0" cy="0" r="7"/>
                <circle id="rim2" cx="0" cy="0" r="3.5"/>
                <g id="zoomPlus">
                        <use xlink:href="#rim" fill="#404040">
                                <set attributeName="fill" to="#808080" begin="zoomplus.mouseover" end="zoomplus.mouseout"/>
                        </use>
                        <path d="M-4,0h8M0,-4v8" fill="none" stroke="white" stroke-width="1.5" pointer-events="none"/>
                </g>
                <g id="zoomMin">
                        <use xlink:href="#rim" fill="#404040">
                                <set attributeName="fill" to="#808080" begin="zoomminus.mouseover" end="zoomminus.mouseout"/>
                        </use>
                        <path d="M-4,0h8" fill="none" stroke="white" stroke-width="1.5" pointer-events="none"/>
                </g>
                <g id="dirArrow">
                        <path fill="none" stroke="white" stroke-width="1.5" d="M0,-3.0v7 M-2.5,-0.5L0,-3.0L2.5,-0.5"/>
                </g>
               <g id="resetDef">
                       <use xlink:href="#rim2" fill="#404040">
                               <set attributeName="fill" to="#808080" begin="reset.mouseover" end="reset.mouseout"/>
                       </use>
               </g>
        </defs>

<script type="text/javascript">
var viewWidth = 705;
var viewHeight = 347;
var sectionId = 'dynsection-1';
</script>
<script xlink:href="svgpan.js"/>
<svg id="graph" class="graph">
<g id="viewport">
<title>loop</title>
<!-- Node1 -->
<g id="node1" class="node">
<title>Node1</title>
<g id="a_node1"><a xlink:title="Main loop function for the VCU system. Handles car state transitions, pipes dataflow between modules.">
<polygon fill="#999999" stroke="#666666" points="38,-226 0,-226 0,-207 38,-207 38,-226"/>
<text text-anchor="middle" x="19" y="-214" font-family="Helvetica,sans-Serif" font-size="10.00">loop</text>
</a>
</g>
</g>
<!-- Node2 -->
<g id="node2" class="node">
<title>Node2</title>
<g id="a_node2"><a xlink:href="Debug_8hpp.html#a306ca7fb070dd487be4ea4ec3de74b85" target="_top" xlink:title="Sends car status debug info via CAN or serial (if enabled).">
<polygon fill="white" stroke="#666666" points="180,-302 74,-302 74,-283 180,-283 180,-302"/>
<text text-anchor="middle" x="127" y="-290" font-family="Helvetica,sans-Serif" font-size="10.00">DBG_STATUS_CAR</text>
</a>
</g>
</g>
<!-- Node1&#45;&gt;Node2 -->
<g id="edge1" class="edge">
<title>Node1&#45;&gt;Node2</title>
<path fill="none" stroke="#63b8ff" d="M28.36,-226.34C38.33,-237.62 55.95,-256.16 74,-268.5 79.44,-272.22 85.55,-275.62 91.62,-278.62"/>
<polygon fill="#63b8ff" stroke="#63b8ff" points="90.47,-281.95 101.01,-282.99 93.42,-275.6 90.47,-281.95"/>
</g>
<!-- Node5 -->
<g id="node5" class="node">
<title>Node5</title>
<g id="a_node5"><a xlink:href="Debug_8hpp.html#a9a564faad1bd32a5894d3706e38f1067" target="_top" xlink:title="Prints a line to the serial console for throttle debug.">
<polygon fill="white" stroke="#666666" points="507,-264 400,-264 400,-245 507,-245 507,-264"/>
<text text-anchor="middle" x="453.5" y="-252" font-family="Helvetica,sans-Serif" font-size="10.00">DBGLN_THROTTLE</text>
</a>
</g>
</g>
<!-- Node1&#45;&gt;Node5 -->
<g id="edge4" class="edge">
<title>Node1&#45;&gt;Node5</title>
<path fill="none" stroke="#63b8ff" d="M38.13,-224.35C48.44,-228.44 61.71,-233.08 74,-235.5 183.44,-257.03 313.92,-258.38 389.58,-256.83"/>
<polygon fill="#63b8ff" stroke="#63b8ff" points="389.96,-260.32 399.88,-256.59 389.8,-253.32 389.96,-260.32"/>
</g>
<!-- Node7 -->
<g id="node7" class="node">
<title>Node7</title>
<g id="a_node7"><a xlink:href="classBMS.html#aef0fbca3e0f970d2bbdaec28486b7d59" target="_top" xlink:title="Returns true if HV has been started.">
<polygon fill="white" stroke="#666666" points="170.5,-226 83.5,-226 83.5,-207 170.5,-207 170.5,-226"/>
<text text-anchor="middle" x="127" y="-214" font-family="Helvetica,sans-Serif" font-size="10.00">BMS::hvReady</text>
</a>
</g>
</g>
<!-- Node1&#45;&gt;Node7 -->
<g id="edge6" class="edge">
<title>Node1&#45;&gt;Node7</title>
<path fill="none" stroke="#63b8ff" d="M38.46,-216.5C48.1,-216.5 60.44,-216.5 72.79,-216.5"/>
<polygon fill="#63b8ff" stroke="#63b8ff" points="73.11,-220 83.11,-216.5 73.11,-213 73.11,-220"/>
</g>
<!-- Node8 -->
<g id="node8" class="node">
<title>Node8</title>
<g id="a_node8"><a xlink:href="main_8cpp.html#a55b57abe9bcb30f6af0fb927f7d576a4" target="_top" xlink:title=" ">
<polygon fill="white" stroke="#666666" points="172,-189 82,-189 82,-170 172,-170 172,-189"/>
<text text-anchor="middle" x="127" y="-177" font-family="Helvetica,sans-Serif" font-size="10.00">scheduler_bms</text>
</a>
</g>
</g>
<!-- Node1&#45;&gt;Node8 -->
<g id="edge7" class="edge">
<title>Node1&#45;&gt;Node8</title>
<path fill="none" stroke="#63b8ff" d="M38.46,-210.06C52.35,-205.21 71.83,-198.41 88.89,-192.45"/>
<polygon fill="#63b8ff" stroke="#63b8ff" points="90.31,-195.66 98.6,-189.06 88,-189.06 90.31,-195.66"/>
</g>
<!-- Node14 -->
<g id="node14" class="node">
<title>Node14</title>
<g id="a_node14"><a xlink:href="classPedal.html#a0ec014fb5ce414deded33ae3db05e231" target="_top" xlink:title="Updates pedal sensor readings, applies filtering, and checks for faults.">
<polygon fill="white" stroke="#666666" points="168.5,-116 85.5,-116 85.5,-97 168.5,-97 168.5,-116"/>
<text text-anchor="middle" x="127" y="-104" font-family="Helvetica,sans-Serif" font-size="10.00">Pedal::update</text>
</a>
</g>
</g>
<!-- Node1&#45;&gt;Node14 -->
<g id="edge14" class="edge">
<title>Node1&#45;&gt;Node14</title>
<path fill="none" stroke="#63b8ff" d="M29.41,-206.74C47.45,-188.02 87.1,-146.87 109.59,-123.53"/>
<polygon fill="#63b8ff" stroke="#63b8ff" points="112.35,-125.71 116.77,-116.08 107.31,-120.85 112.35,-125.71"/>
</g>
<!-- Node3 -->
<g id="node3" class="node">
<title>Node3</title>
<g id="a_node3"><a xlink:href="namespaceDebug__CAN.html#a33ac5d84927aea929dc26f0820dd58c8" target="_top" xlink:title="Sends a debug car status message over CAN.">
<polygon fill="white" stroke="#666666" points="350,-339 219,-339 219,-320 350,-320 350,-339"/>
<text text-anchor="middle" x="284.5" y="-327" font-family="Helvetica,sans-Serif" font-size="10.00">Debug_CAN::status_car</text>
</a>
</g>
</g>
<!-- Node2&#45;&gt;Node3 -->
<g id="edge2" class="edge">
<title>Node2&#45;&gt;Node3</title>
<path fill="none" stroke="#63b8ff" d="M168.05,-302.03C188.01,-306.78 212.35,-312.57 233.53,-317.61"/>
<polygon fill="#63b8ff" stroke="#63b8ff" points="232.78,-321.03 243.32,-319.94 234.4,-314.22 232.78,-321.03"/>
</g>
<!-- Node4 -->
<g id="node4" class="node">
<title>Node4</title>
<g id="a_node4"><a xlink:href="namespaceDebug__Serial.html#a0f4070c8db2109f53b11b93580bb9472" target="_top" xlink:title="Prints the current car status to the serial console. This function formats and sends the current car ...">
<polygon fill="white" stroke="#666666" points="353,-302 216,-302 216,-283 353,-283 353,-302"/>
<text text-anchor="middle" x="284.5" y="-290" font-family="Helvetica,sans-Serif" font-size="10.00">Debug_Serial::status_car</text>
</a>
</g>
</g>
<!-- Node2&#45;&gt;Node4 -->
<g id="edge3" class="edge">
<title>Node2&#45;&gt;Node4</title>
<path fill="none" stroke="#63b8ff" d="M180.21,-292.5C188.46,-292.5 197.13,-292.5 205.81,-292.5"/>
<polygon fill="#63b8ff" stroke="#63b8ff" points="205.96,-296 215.96,-292.5 205.96,-289 205.96,-296"/>
</g>
<!-- Node6 -->
<g id="node6" class="node">
<title>Node6</title>
<g id="a_node6"><a xlink:href="namespaceDebug__Serial.html#a756fa9286151426012a6f8e178a6c550" target="_top" xlink:title="Prints a string AND a newline to the serial console.">
<polygon fill="white" stroke="#666666" points="685,-264 566,-264 566,-245 685,-245 685,-264"/>
<text text-anchor="middle" x="625.5" y="-252" font-family="Helvetica,sans-Serif" font-size="10.00">Debug_Serial::println</text>
</a>
</g>
</g>
<!-- Node5&#45;&gt;Node6 -->
<g id="edge5" class="edge">
<title>Node5&#45;&gt;Node6</title>
<path fill="none" stroke="#63b8ff" d="M507.36,-254.5C522.55,-254.5 539.35,-254.5 555.36,-254.5"/>
<polygon fill="#63b8ff" stroke="#63b8ff" points="555.75,-258 565.75,-254.5 555.75,-251 555.75,-258"/>
</g>
<!-- Node9 -->
<g id="node9" class="node">
<title>Node9</title>
<g id="a_node9"><a xlink:href="classBMS.html#a7de82f50c43e50529739213e98b9b634" target="_top" xlink:title="Attempts to start HV. First check BMS is in standby(3) state, then send the HV start command....">
<polygon fill="white" stroke="#666666" points="327.5,-190 241.5,-190 241.5,-171 327.5,-171 327.5,-190"/>
<text text-anchor="middle" x="284.5" y="-178" font-family="Helvetica,sans-Serif" font-size="10.00">BMS::checkHv</text>
</a>
</g>
</g>
<!-- Node8&#45;&gt;Node9 -->
<g id="edge8" class="edge">
<title>Node8&#45;&gt;Node9</title>
<path fill="none" stroke="#63b8ff" d="M172.14,-179.78C190.56,-179.9 212.1,-180.04 231.3,-180.16"/>
<polygon fill="#63b8ff" stroke="#63b8ff" points="231.37,-183.66 241.39,-180.23 231.41,-176.66 231.37,-183.66"/>
</g>
<!-- Node10 -->
<g id="node10" class="node">
<title>Node10</title>
<g id="a_node10"><a xlink:href="Debug_8hpp.html#a5811a65cdb8fc3c5255f57301cbb8481" target="_top" xlink:title="Sends BMS debug info via CAN or serial (if enabled).">
<polygon fill="white" stroke="#666666" points="507,-190 400,-190 400,-171 507,-171 507,-190"/>
<text text-anchor="middle" x="453.5" y="-178" font-family="Helvetica,sans-Serif" font-size="10.00">DBG_BMS_STATUS</text>
</a>
</g>
</g>
<!-- Node9&#45;&gt;Node10 -->
<g id="edge9" class="edge">
<title>Node9&#45;&gt;Node10</title>
<path fill="none" stroke="#63b8ff" d="M327.64,-180.5C346.49,-180.5 369.1,-180.5 389.87,-180.5"/>
<polygon fill="#63b8ff" stroke="#63b8ff" points="389.9,-184 399.9,-180.5 389.9,-177 389.9,-184"/>
</g>
<!-- Node13 -->
<g id="node13" class="node">
<title>Node13</title>
<g id="a_node13"><a xlink:href="Debug_8hpp.html#a8e8d6e3de15309922f25c12f4d7cf727" target="_top" xlink:title="Prints a line to the serial console for general debug.">
<polygon fill="white" stroke="#666666" points="504.5,-227 402.5,-227 402.5,-208 504.5,-208 504.5,-227"/>
<text text-anchor="middle" x="453.5" y="-215" font-family="Helvetica,sans-Serif" font-size="10.00">DBGLN_GENERAL</text>
</a>
</g>
</g>
<!-- Node9&#45;&gt;Node13 -->
<g id="edge12" class="edge">
<title>Node9&#45;&gt;Node13</title>
<path fill="none" stroke="#63b8ff" d="M327.64,-189.84C349.44,-194.67 376.27,-200.61 399.47,-205.75"/>
<polygon fill="#63b8ff" stroke="#63b8ff" points="398.98,-209.23 409.5,-207.97 400.49,-202.39 398.98,-209.23"/>
</g>
<!-- Node11 -->
<g id="node11" class="node">
<title>Node11</title>
<g id="a_node11"><a xlink:href="namespaceDebug__CAN.html#ab78e4ce29a20ab1dae2db225def6b747" target="_top" xlink:title="Sends a debug BMS status message over CAN.">
<polygon fill="white" stroke="#666666" points="694,-227 557,-227 557,-208 694,-208 694,-227"/>
<text text-anchor="middle" x="625.5" y="-215" font-family="Helvetica,sans-Serif" font-size="10.00">Debug_CAN::status_bms</text>
</a>
</g>
</g>
<!-- Node10&#45;&gt;Node11 -->
<g id="edge10" class="edge">
<title>Node10&#45;&gt;Node11</title>
<path fill="none" stroke="#63b8ff" d="M498.28,-190.03C520.3,-194.82 547.2,-200.68 570.5,-205.75"/>
<polygon fill="#63b8ff" stroke="#63b8ff" points="570.06,-209.23 580.57,-207.94 571.55,-202.39 570.06,-209.23"/>
</g>
<!-- Node12 -->
<g id="node12" class="node">
<title>Node12</title>
<g id="a_node12"><a xlink:href="namespaceDebug__Serial.html#a6c4d64b8a917b7e18071210c43c1a98f" target="_top" xlink:title="Prints the current BMS status to the serial console. This function formats and sends the current BMS ...">
<polygon fill="white" stroke="#666666" points="697,-190 554,-190 554,-171 697,-171 697,-190"/>
<text text-anchor="middle" x="625.5" y="-178" font-family="Helvetica,sans-Serif" font-size="10.00">Debug_Serial::status_bms</text>
</a>
</g>
</g>
<!-- Node10&#45;&gt;Node12 -->
<g id="edge11" class="edge">
<title>Node10&#45;&gt;Node12</title>
<path fill="none" stroke="#63b8ff" d="M507.36,-180.5C518.86,-180.5 531.27,-180.5 543.58,-180.5"/>
<polygon fill="#63b8ff" stroke="#63b8ff" points="543.86,-184 553.86,-180.5 543.86,-177 543.86,-184"/>
</g>
<!-- Node13&#45;&gt;Node6 -->
<g id="edge13" class="edge">
<title>Node13&#45;&gt;Node6</title>
<path fill="none" stroke="#63b8ff" d="M498.28,-227.03C520.3,-231.82 547.2,-237.68 570.5,-242.75"/>
<polygon fill="#63b8ff" stroke="#63b8ff" points="570.06,-246.23 580.57,-244.94 571.55,-239.39 570.06,-246.23"/>
</g>
<!-- Node15 -->
<g id="node15" class="node">
<title>Node15</title>
<g id="a_node15"><a xlink:href="classPedal.html#a4025bb96ea422dbba6d3b604a1066bc7" target="_top" xlink:title="Checks for a fault between two pedal sensor readings.">
<polygon fill="white" stroke="#666666" points="348.5,-97 220.5,-97 220.5,-78 348.5,-78 348.5,-97"/>
<text text-anchor="middle" x="284.5" y="-85" font-family="Helvetica,sans-Serif" font-size="10.00">Pedal::checkPedalFault</text>
</a>
</g>
</g>
<!-- Node14&#45;&gt;Node15 -->
<g id="edge15" class="edge">
<title>Node14&#45;&gt;Node15</title>
<path fill="none" stroke="#63b8ff" d="M168.86,-101.51C181.53,-99.96 195.9,-98.2 210.08,-96.47"/>
<polygon fill="#63b8ff" stroke="#63b8ff" points="210.85,-99.9 220.35,-95.22 210,-92.96 210.85,-99.9"/>
</g>
<!-- Node16 -->
<g id="node16" class="node">
<title>Node16</title>
<g id="a_node16"><a xlink:href="Debug_8hpp.html#a27a4d84e5afbe5f46066606c2cfcd97d" target="_top" xlink:title="Sends throttle fault debug info via CAN or serial (if enabled). Overloads for fault status with or wi...">
<polygon fill="white" stroke="#666666" points="518,-116 389,-116 389,-97 518,-97 518,-116"/>
<text text-anchor="middle" x="453.5" y="-104" font-family="Helvetica,sans-Serif" font-size="10.00">DBG_THROTTLE_FAULT</text>
</a>
</g>
</g>
<!-- Node14&#45;&gt;Node16 -->
<g id="edge22" class="edge">
<title>Node14&#45;&gt;Node16</title>
<path fill="none" stroke="#63b8ff" d="M168.77,-106.5C221.28,-106.5 313.52,-106.5 378.55,-106.5"/>
<polygon fill="#63b8ff" stroke="#63b8ff" points="378.74,-110 388.74,-106.5 378.74,-103 378.74,-110"/>
</g>
<!-- Node22 -->
<g id="node22" class="node">
<title>Node22</title>
<g id="a_node22"><a xlink:href="classRingBuffer.html#ad30671837bc9ec407735ecedaeabf36c" target="_top" xlink:title="Pushes a new value into the ring buffer. This will overwrite the oldest value if the buffer is full.">
<polygon fill="white" stroke="#666666" points="333,-60 236,-60 236,-41 333,-41 333,-60"/>
<text text-anchor="middle" x="284.5" y="-48" font-family="Helvetica,sans-Serif" font-size="10.00">RingBuffer::push</text>
</a>
</g>
</g>
<!-- Node14&#45;&gt;Node22 -->
<g id="edge23" class="edge">
<title>Node14&#45;&gt;Node22</title>
<path fill="none" stroke="#63b8ff" d="M148.7,-96.94C166.35,-88.99 192.53,-77.7 216,-69.5 222.56,-67.21 229.56,-64.99 236.46,-62.93"/>
<polygon fill="#63b8ff" stroke="#63b8ff" points="237.83,-66.18 246.46,-60.04 235.88,-59.46 237.83,-66.18"/>
</g>
<!-- Node15&#45;&gt;Node16 -->
<g id="edge16" class="edge">
<title>Node15&#45;&gt;Node16</title>
<path fill="none" stroke="#63b8ff" d="M348.64,-94.68C358.54,-95.81 368.86,-96.98 378.97,-98.13"/>
<polygon fill="#63b8ff" stroke="#63b8ff" points="378.67,-101.62 389,-99.28 379.46,-94.67 378.67,-101.62"/>
</g>
<!-- Node19 -->
<g id="node19" class="node">
<title>Node19</title>
<g id="a_node19"><a xlink:href="Debug_8hpp.html#afa1e089b7149386f290d4ebb4d373bf6" target="_top" xlink:title="Sends throttle pedal input debug info via CAN or serial (if enabled).">
<polygon fill="white" stroke="#666666" points="508.5,-56 398.5,-56 398.5,-37 508.5,-37 508.5,-56"/>
<text text-anchor="middle" x="453.5" y="-44" font-family="Helvetica,sans-Serif" font-size="10.00">DBG_THROTTLE_IN</text>
</a>
</g>
</g>
<!-- Node15&#45;&gt;Node19 -->
<g id="edge19" class="edge">
<title>Node15&#45;&gt;Node19</title>
<path fill="none" stroke="#63b8ff" d="M324.23,-77.99C347.97,-72.16 378.55,-64.66 403.9,-58.43"/>
<polygon fill="#63b8ff" stroke="#63b8ff" points="404.81,-61.81 413.69,-56.03 403.14,-55.01 404.81,-61.81"/>
</g>
<!-- Node17 -->
<g id="node17" class="node">
<title>Node17</title>
<g id="a_node17"><a xlink:href="namespaceDebug__CAN.html#a8e6443068f8aa21ba673ad7bc132e739" target="_top" xlink:title="Sends a debug throttle fault message over CAN with a float value.">
<polygon fill="white" stroke="#666666" points="683.5,-152.5 567.5,-152.5 567.5,-122.5 683.5,-122.5 683.5,-152.5"/>
<text text-anchor="start" x="575.5" y="-140.5" font-family="Helvetica,sans-Serif" font-size="10.00">Debug_CAN::throttle</text>
<text text-anchor="middle" x="625.5" y="-129.5" font-family="Helvetica,sans-Serif" font-size="10.00">_fault</text>
</a>
</g>
</g>
<!-- Node16&#45;&gt;Node17 -->
<g id="edge17" class="edge">
<title>Node16&#45;&gt;Node17</title>
<path fill="none" stroke="#63b8ff" d="M506.89,-116.05C522.73,-118.94 540.34,-122.15 557.02,-125.19"/>
<polygon fill="#63b8ff" stroke="#63b8ff" points="556.79,-128.71 567.25,-127.06 558.04,-121.82 556.79,-128.71"/>
</g>
<!-- Node18 -->
<g id="node18" class="node">
<title>Node18</title>
<g id="a_node18"><a xlink:href="namespaceDebug__Serial.html#aa73ff8f930647f4c70741b4e50ef6a5d" target="_top" xlink:title="Prints a throttle fault message to the serial console. This function formats and sends the throttle f...">
<polygon fill="white" stroke="#666666" points="687,-104.5 564,-104.5 564,-74.5 687,-74.5 687,-104.5"/>
<text text-anchor="start" x="572" y="-92.5" font-family="Helvetica,sans-Serif" font-size="10.00">Debug_Serial::throttle</text>
<text text-anchor="middle" x="625.5" y="-81.5" font-family="Helvetica,sans-Serif" font-size="10.00">_fault</text>
</a>
</g>
</g>
<!-- Node16&#45;&gt;Node18 -->
<g id="edge18" class="edge">
<title>Node16&#45;&gt;Node18</title>
<path fill="none" stroke="#63b8ff" d="M518.29,-100.12C529.8,-98.97 541.87,-97.76 553.57,-96.59"/>
<polygon fill="#63b8ff" stroke="#63b8ff" points="554.13,-100.05 563.74,-95.58 553.44,-93.09 554.13,-100.05"/>
</g>
<!-- Node20 -->
<g id="node20" class="node">
<title>Node20</title>
<g id="a_node20"><a xlink:href="namespaceDebug__CAN.html#a5c26a2303b6fa92439c0a693728d760e" target="_top" xlink:title="Sends a debug throttle input message over CAN.">
<polygon fill="white" stroke="#666666" points="691,-56 560,-56 560,-37 691,-37 691,-56"/>
<text text-anchor="middle" x="625.5" y="-44" font-family="Helvetica,sans-Serif" font-size="10.00">Debug_CAN::throttle_in</text>
</a>
</g>
</g>
<!-- Node19&#45;&gt;Node20 -->
<g id="edge20" class="edge">
<title>Node19&#45;&gt;Node20</title>
<path fill="none" stroke="#63b8ff" d="M508.76,-46.5C521.69,-46.5 535.72,-46.5 549.4,-46.5"/>
<polygon fill="#63b8ff" stroke="#63b8ff" points="549.77,-50 559.77,-46.5 549.77,-43 549.77,-50"/>
</g>
<!-- Node21 -->
<g id="node21" class="node">
<title>Node21</title>
<g id="a_node21"><a xlink:href="namespaceDebug__Serial.html#a9e68fe4f00e7b1bf1a9c2addc2222a9b" target="_top" xlink:title="Prints a throttle input message to the serial console. This function formats and sends the throttle i...">
<polygon fill="white" stroke="#666666" points="694,-19 557,-19 557,0 694,0 694,-19"/>
<text text-anchor="middle" x="625.5" y="-7" font-family="Helvetica,sans-Serif" font-size="10.00">Debug_Serial::throttle_in</text>
</a>
</g>
</g>
<!-- Node19&#45;&gt;Node21 -->
<g id="edge21" class="edge">
<title>Node19&#45;&gt;Node21</title>
<path fill="none" stroke="#63b8ff" d="M498.28,-36.97C520.3,-32.18 547.2,-26.32 570.5,-21.25"/>
<polygon fill="#63b8ff" stroke="#63b8ff" points="571.55,-24.61 580.57,-19.06 570.06,-17.77 571.55,-24.61"/>
</g>
</g>
</svg>
        <g id="navigator" transform="translate(0 0)" fill="#404254">
                <rect fill="#f2f5e9" fill-opacity="0.5" stroke="#606060" stroke-width=".5" x="0" y="0" width="60" height="60"/>
                <use id="zoomplus" xlink:href="#zoomPlus" x="17" y="9" onmousedown="handleZoom(evt,'in')"/>
                <use id="zoomminus" xlink:href="#zoomMin" x="42" y="9" onmousedown="handleZoom(evt,'out')"/>
                <use id="reset" xlink:href="#resetDef" x="30" y="36" onmousedown="handleReset()"/>
                <g id="arrowUp" xlink:href="#dirArrow" transform="translate(30 24)" onmousedown="handlePan(0,-1)">
                  <use xlink:href="#rim" fill="#404040">
                        <set attributeName="fill" to="#808080" begin="arrowUp.mouseover" end="arrowUp.mouseout"/>
                  </use>
                  <path fill="none" stroke="white" stroke-width="1.5" d="M0,-3.0v7 M-2.5,-0.5L0,-3.0L2.5,-0.5"/>
                </g>
                <g id="arrowRight" xlink:href="#dirArrow" transform="rotate(90) translate(36 -43)" onmousedown="handlePan(1,0)">
                  <use xlink:href="#rim" fill="#404040">
                        <set attributeName="fill" to="#808080" begin="arrowRight.mouseover" end="arrowRight.mouseout"/>
                  </use>
                  <path fill="none" stroke="white" stroke-width="1.5" d="M0,-3.0v7 M-2.5,-0.5L0,-3.0L2.5,-0.5"/>
                </g>
                <g id="arrowDown" xlink:href="#dirArrow" transform="rotate(180) translate(-30 -48)" onmousedown="handlePan(0,1)">
                  <use xlink:href="#rim" fill="#404040">
                        <set attributeName="fill" to="#808080" begin="arrowDown.mouseover" end="arrowDown.mouseout"/>
                  </use>
                  <path fill="none" stroke="white" stroke-width="1.5" d="M0,-3.0v7 M-2.5,-0.5L0,-3.0L2.5,-0.5"/>
                </g>
                <g id="arrowLeft" xlink:href="#dirArrow" transform="rotate(270) translate(-36 17)" onmousedown="handlePan(-1,0)">
                  <use xlink:href="#rim" fill="#404040">
                        <set attributeName="fill" to="#808080" begin="arrowLeft.mouseover" end="arrowLeft.mouseout"/>
                  </use>
                  <path fill="none" stroke="white" stroke-width="1.5" d="M0,-3.0v7 M-2.5,-0.5L0,-3.0L2.5,-0.5"/>
                </g>
        </g>
        <svg viewBox="0 0 15 15" width="100%" height="30px" preserveAspectRatio="xMaxYMin meet">
         <g id="arrow_out" transform="scale(0.3 0.3)">
          <a xlink:href="main_8cpp_afe461d27b9c48d5921c00d521181f12f_cgraph_org.svg" target="_base">
           <rect id="button" ry="5" rx="5" y="6" x="6" height="38" width="38"
                fill="#f2f5e9" fill-opacity="0.5" stroke="#606060" stroke-width="1.0"/>
           <path id="arrow"
             d="M 11.500037,31.436501 C 11.940474,20.09759 22.043105,11.32322 32.158766,21.979434 L 37.068811,17.246167 C 37.068811,17.246167 37.088388,32 37.088388,32 L 22.160133,31.978069 C 22.160133,31.978069 26.997745,27.140456 26.997745,27.140456 C 18.528582,18.264221 13.291696,25.230495 11.500037,31.436501 z"
             style="fill:#404040;"/>
          </a>
         </g>
        </svg>
</svg>
