<?xml version="1.0" encoding="UTF-8" standalone="no"?>
<!DOCTYPE svg PUBLIC "-//W3C//DTD SVG 1.1//EN"
 "http://www.w3.org/Graphics/SVG/1.1/DTD/svg11.dtd">
<!-- Generated by graphviz version 2.43.0 (0)
 -->
<!-- Title: schedulerTelemetryMotor Pages: 1 -->
<svg width="468pt" height="38pt"
 viewBox="0.00 0.00 468.00 38.00" xmlns="http://www.w3.org/2000/svg" xmlns:xlink="http://www.w3.org/1999/xlink">
<g id="graph0" class="graph" transform="scale(1 1) rotate(0) translate(4 34)">
<title>schedulerTelemetryMotor</title>
<!-- Node1 -->
<g id="node1" class="node">
<title>Node1</title>
<g id="a_node1"><a xlink:title=" ">
<polygon fill="#999999" stroke="#666666" points="141,-24.5 0,-24.5 0,-5.5 141,-5.5 141,-24.5"/>
<text text-anchor="middle" x="70.5" y="-12.5" font-family="Helvetica,sans-Serif" font-size="10.00">schedulerTelemetryMotor</text>
</a>
</g>
</g>
<!-- Node2 -->
<g id="node2" class="node">
<title>Node2</title>
<g id="a_node2"><a xlink:href="classTelemetry.html#a24571b8d560d99079a460857669231a1" target="_top" xlink:title="Internal helper to get and send the motor telemetry frame.">
<polygon fill="white" stroke="#666666" points="299,-24.5 177,-24.5 177,-5.5 299,-5.5 299,-24.5"/>
<text text-anchor="middle" x="238" y="-12.5" font-family="Helvetica,sans-Serif" font-size="10.00">Telemetry::sendMotor</text>
</a>
</g>
</g>
<!-- Node1&#45;&gt;Node2 -->
<g id="edge1" class="edge">
<title>Node1&#45;&gt;Node2</title>
<path fill="none" stroke="#63b8ff" d="M141.21,-15C149.62,-15 158.22,-15 166.65,-15"/>
<polygon fill="#63b8ff" stroke="#63b8ff" points="166.81,-18.5 176.81,-15 166.81,-11.5 166.81,-18.5"/>
</g>
<!-- Node3 -->
<g id="node3" class="node">
<title>Node3</title>
<g id="a_node3"><a xlink:href="structTelemetryFrameMotor.html#a34bcb5a8f27caa3a1098c35c051236aa" target="_top" xlink:title="Converts the TelemetryFrameMotor to a CAN frame.">
<polygon fill="white" stroke="#666666" points="460,-30 335,-30 335,0 460,0 460,-30"/>
<text text-anchor="start" x="343" y="-18" font-family="Helvetica,sans-Serif" font-size="10.00">TelemetryFrameMotor</text>
<text text-anchor="middle" x="397.5" y="-7" font-family="Helvetica,sans-Serif" font-size="10.00">::toCanFrame</text>
</a>
</g>
</g>
<!-- Node2&#45;&gt;Node3 -->
<g id="edge2" class="edge">
<title>Node2&#45;&gt;Node3</title>
<path fill="none" stroke="#63b8ff" d="M299.44,-15C307.71,-15 316.26,-15 324.7,-15"/>
<polygon fill="#63b8ff" stroke="#63b8ff" points="324.92,-18.5 334.92,-15 324.92,-11.5 324.92,-18.5"/>
</g>
</g>
</svg>
