<?xml version="1.0" encoding="UTF-8" standalone="no"?>
<!DOCTYPE svg PUBLIC "-//W3C//DTD SVG 1.1//EN"
 "http://www.w3.org/Graphics/SVG/1.1/DTD/svg11.dtd">
<!-- Generated by graphviz version 2.43.0 (0)
 -->
<!-- Title: scheduler_pedal Pages: 1 -->
<svg width="586pt" height="151pt"
 viewBox="0.00 0.00 586.00 150.50" xmlns="http://www.w3.org/2000/svg" xmlns:xlink="http://www.w3.org/1999/xlink">
<g id="graph0" class="graph" transform="scale(1 1) rotate(0) translate(4 146.5)">
<title>scheduler_pedal</title>
<!-- Node1 -->
<g id="node1" class="node">
<title>Node1</title>
<g id="a_node1"><a xlink:title=" ">
<polygon fill="#999999" stroke="#666666" points="96,-104.5 0,-104.5 0,-85.5 96,-85.5 96,-104.5"/>
<text text-anchor="middle" x="48" y="-92.5" font-family="Helvetica,sans-Serif" font-size="10.00">scheduler_pedal</text>
</a>
</g>
</g>
<!-- Node2 -->
<g id="node2" class="node">
<title>Node2</title>
<g id="a_node2"><a xlink:href="main_8cpp.html#a22decc8e5af13f6021fb6ad2aaa765be" target="_top" xlink:title=" ">
<polygon fill="white" stroke="#666666" points="540.5,-142.5 496.5,-142.5 496.5,-123.5 540.5,-123.5 540.5,-142.5"/>
<text text-anchor="middle" x="518.5" y="-130.5" font-family="Helvetica,sans-Serif" font-size="10.00">pedal</text>
</a>
</g>
</g>
<!-- Node1&#45;&gt;Node2 -->
<g id="edge1" class="edge">
<title>Node1&#45;&gt;Node2</title>
<path fill="none" stroke="#63b8ff" d="M84.29,-104.52C98.94,-108.09 116.18,-111.82 132,-114 262.79,-132.05 420.61,-133.57 486.38,-133.31"/>
<polygon fill="#63b8ff" stroke="#63b8ff" points="486.51,-136.81 496.49,-133.26 486.47,-129.81 486.51,-136.81"/>
</g>
<!-- Node3 -->
<g id="node3" class="node">
<title>Node3</title>
<g id="a_node3"><a xlink:href="classPedal.html#aa66167fb494c00db7b8a0b8140e85973" target="_top" xlink:title="Reads motor data from the CAN bus and updates the CarState.">
<polygon fill="white" stroke="#666666" points="234,-104.5 134,-104.5 134,-85.5 234,-85.5 234,-104.5"/>
<text text-anchor="middle" x="184" y="-92.5" font-family="Helvetica,sans-Serif" font-size="10.00">Pedal::readMotor</text>
</a>
</g>
</g>
<!-- Node1&#45;&gt;Node3 -->
<g id="edge2" class="edge">
<title>Node1&#45;&gt;Node3</title>
<path fill="none" stroke="#63b8ff" d="M96.24,-95C105.11,-95 114.49,-95 123.67,-95"/>
<polygon fill="#63b8ff" stroke="#63b8ff" points="123.92,-98.5 133.92,-95 123.92,-91.5 123.92,-98.5"/>
</g>
<!-- Node4 -->
<g id="node4" class="node">
<title>Node4</title>
<g id="a_node4"><a xlink:href="classPedal.html#a1027941444ce0b3f32ab8991e05c2015" target="_top" xlink:title="Sends the appropriate CAN frame to the motor based on pedal and car state.">
<polygon fill="white" stroke="#666666" points="236,-67.5 132,-67.5 132,-48.5 236,-48.5 236,-67.5"/>
<text text-anchor="middle" x="184" y="-55.5" font-family="Helvetica,sans-Serif" font-size="10.00">Pedal::sendFrame</text>
</a>
</g>
</g>
<!-- Node1&#45;&gt;Node4 -->
<g id="edge3" class="edge">
<title>Node1&#45;&gt;Node4</title>
<path fill="none" stroke="#63b8ff" d="M83.51,-85.47C100.26,-80.85 120.58,-75.23 138.48,-70.29"/>
<polygon fill="#63b8ff" stroke="#63b8ff" points="139.44,-73.66 148.14,-67.62 137.57,-66.91 139.44,-73.66"/>
</g>
<!-- Node5 -->
<g id="node5" class="node">
<title>Node5</title>
<g id="a_node5"><a xlink:href="Debug_8hpp.html#a9a564faad1bd32a5894d3706e38f1067" target="_top" xlink:title="Prints a line to the serial console for throttle debug.">
<polygon fill="white" stroke="#666666" points="401,-67.5 294,-67.5 294,-48.5 401,-48.5 401,-67.5"/>
<text text-anchor="middle" x="347.5" y="-55.5" font-family="Helvetica,sans-Serif" font-size="10.00">DBGLN_THROTTLE</text>
</a>
</g>
</g>
<!-- Node4&#45;&gt;Node5 -->
<g id="edge4" class="edge">
<title>Node4&#45;&gt;Node5</title>
<path fill="none" stroke="#63b8ff" d="M236.1,-58C251.18,-58 267.87,-58 283.61,-58"/>
<polygon fill="#63b8ff" stroke="#63b8ff" points="283.79,-61.5 293.79,-58 283.79,-54.5 283.79,-61.5"/>
</g>
<!-- Node7 -->
<g id="node7" class="node">
<title>Node7</title>
<g id="a_node7"><a xlink:href="classExponentialFilter.html#a598576f308881ed4adeb618e0bf1f75a" target="_top" xlink:title="Retrieves the filtered value from the ExponentialFilter.">
<polygon fill="white" stroke="#666666" points="400,-30 295,-30 295,0 400,0 400,-30"/>
<text text-anchor="start" x="303" y="-18" font-family="Helvetica,sans-Serif" font-size="10.00">ExponentialFilter::</text>
<text text-anchor="middle" x="347.5" y="-7" font-family="Helvetica,sans-Serif" font-size="10.00">getFiltered</text>
</a>
</g>
</g>
<!-- Node4&#45;&gt;Node7 -->
<g id="edge6" class="edge">
<title>Node4&#45;&gt;Node7</title>
<path fill="none" stroke="#63b8ff" d="M220.84,-48.46C239.7,-43.44 263.35,-37.14 285.03,-31.37"/>
<polygon fill="#63b8ff" stroke="#63b8ff" points="286.06,-34.71 294.82,-28.76 284.26,-27.95 286.06,-34.71"/>
</g>
<!-- Node8 -->
<g id="node8" class="node">
<title>Node8</title>
<g id="a_node8"><a xlink:href="classPedal.html#ae82e0ae8a1a0c6918d43fb27bf8d9d0d" target="_top" xlink:title="Maps the pedal ADC to a torque value. If no braking requested, maps throttle normally....">
<polygon fill="white" stroke="#666666" points="423,-104.5 272,-104.5 272,-85.5 423,-85.5 423,-104.5"/>
<text text-anchor="middle" x="347.5" y="-92.5" font-family="Helvetica,sans-Serif" font-size="10.00">Pedal::pedalTorqueMapping</text>
</a>
</g>
</g>
<!-- Node4&#45;&gt;Node8 -->
<g id="edge7" class="edge">
<title>Node4&#45;&gt;Node8</title>
<path fill="none" stroke="#63b8ff" d="M226.59,-67.53C247.42,-72.3 272.84,-78.12 294.9,-83.18"/>
<polygon fill="#63b8ff" stroke="#63b8ff" points="294.24,-86.62 304.77,-85.44 295.8,-79.79 294.24,-86.62"/>
</g>
<!-- Node6 -->
<g id="node6" class="node">
<title>Node6</title>
<g id="a_node6"><a xlink:href="namespaceDebug__Serial.html#a756fa9286151426012a6f8e178a6c550" target="_top" xlink:title="Prints a string AND a newline to the serial console.">
<polygon fill="white" stroke="#666666" points="578,-31.5 459,-31.5 459,-12.5 578,-12.5 578,-31.5"/>
<text text-anchor="middle" x="518.5" y="-19.5" font-family="Helvetica,sans-Serif" font-size="10.00">Debug_Serial::println</text>
</a>
</g>
</g>
<!-- Node5&#45;&gt;Node6 -->
<g id="edge5" class="edge">
<title>Node5&#45;&gt;Node6</title>
<path fill="none" stroke="#63b8ff" d="M393.35,-48.45C414.63,-43.91 440.26,-38.45 462.69,-33.68"/>
<polygon fill="#63b8ff" stroke="#63b8ff" points="463.69,-37.04 472.74,-31.53 462.23,-30.2 463.69,-37.04"/>
</g>
<!-- Node8&#45;&gt;Node2 -->
<g id="edge9" class="edge">
<title>Node8&#45;&gt;Node2</title>
<path fill="none" stroke="#63b8ff" d="M391.15,-104.59C420.84,-111.27 459.76,-120.02 486.52,-126.03"/>
<polygon fill="#63b8ff" stroke="#63b8ff" points="485.96,-129.49 496.48,-128.27 487.49,-122.67 485.96,-129.49"/>
</g>
<!-- Node9 -->
<g id="node9" class="node">
<title>Node9</title>
<g id="a_node9"><a xlink:href="classLinearInterp.html#a3c1654f4a47bb4db5386e38a8bdd6bc1" target="_top" xlink:title="Performs linear interpolation for the given input value, using the table.">
<polygon fill="white" stroke="#666666" points="573.5,-105.5 463.5,-105.5 463.5,-86.5 573.5,-86.5 573.5,-105.5"/>
<text text-anchor="middle" x="518.5" y="-93.5" font-family="Helvetica,sans-Serif" font-size="10.00">LinearInterp::interp</text>
</a>
</g>
</g>
<!-- Node8&#45;&gt;Node9 -->
<g id="edge8" class="edge">
<title>Node8&#45;&gt;Node9</title>
<path fill="none" stroke="#63b8ff" d="M423.12,-95.44C433.16,-95.5 443.39,-95.56 453.23,-95.62"/>
<polygon fill="#63b8ff" stroke="#63b8ff" points="453.3,-99.12 463.32,-95.68 453.34,-92.12 453.3,-99.12"/>
</g>
<!-- Node10 -->
<g id="node10" class="node">
<title>Node10</title>
<g id="a_node10"><a xlink:href="classLinearInterp.html#ade361a63c34c53564a1bd9e8ae5b6c4b" target="_top" xlink:title="Returns the starting input value of the interpolation table.">
<polygon fill="white" stroke="#666666" points="570.5,-68.5 466.5,-68.5 466.5,-49.5 570.5,-49.5 570.5,-68.5"/>
<text text-anchor="middle" x="518.5" y="-56.5" font-family="Helvetica,sans-Serif" font-size="10.00">LinearInterp::start</text>
</a>
</g>
</g>
<!-- Node8&#45;&gt;Node10 -->
<g id="edge10" class="edge">
<title>Node8&#45;&gt;Node10</title>
<path fill="none" stroke="#63b8ff" d="M393.35,-85.45C414.63,-80.91 440.26,-75.45 462.69,-70.68"/>
<polygon fill="#63b8ff" stroke="#63b8ff" points="463.69,-74.04 472.74,-68.53 462.23,-67.2 463.69,-74.04"/>
</g>
</g>
</svg>
