<?xml version="1.0" encoding="UTF-8" standalone="no"?>
<!DOCTYPE svg PUBLIC "-//W3C//DTD SVG 1.1//EN"
 "http://www.w3.org/Graphics/SVG/1.1/DTD/svg11.dtd">
<!-- Generated by graphviz version 2.43.0 (0)
 -->
<!-- Title: src/main.cpp Pages: 1 -->
<svg width="698pt" height="247pt"
 viewBox="0.00 0.00 698.00 247.00" xmlns="http://www.w3.org/2000/svg" xmlns:xlink="http://www.w3.org/1999/xlink">
<g id="graph0" class="graph" transform="scale(1 1) rotate(0) translate(4 243)">
<title>src/main.cpp</title>
<!-- Node1 -->
<g id="node1" class="node">
<title>Node1</title>
<g id="a_node1"><a xlink:title=" ">
<polygon fill="#999999" stroke="#666666" points="383,-239 304,-239 304,-220 383,-220 383,-239"/>
<text text-anchor="middle" x="343.5" y="-227" font-family="Helvetica,sans-Serif" font-size="10.00">src/main.cpp</text>
</a>
</g>
</g>
<!-- Node2 -->
<g id="node2" class="node">
<title>Node2</title>
<g id="a_node2"><a xlink:title=" ">
<polygon fill="#e0e0e0" stroke="#999999" points="80,-184 17,-184 17,-165 80,-165 80,-184"/>
<text text-anchor="middle" x="48.5" y="-172" font-family="Helvetica,sans-Serif" font-size="10.00">Arduino.h</text>
</a>
</g>
</g>
<!-- Node1&#45;&gt;Node2 -->
<g id="edge1" class="edge">
<title>Node1&#45;&gt;Node2</title>
<path fill="none" stroke="#63b8ff" d="M303.83,-221.94C255.75,-213.91 172,-199.63 90.22,-184.09"/>
<polygon fill="#63b8ff" stroke="#63b8ff" points="90.74,-180.62 80.26,-182.19 89.43,-187.5 90.74,-180.62"/>
</g>
<!-- Node3 -->
<g id="node3" class="node">
<title>Node3</title>
<g id="a_node3"><a xlink:title=" ">
<polygon fill="#e0e0e0" stroke="#999999" points="174.5,-184 98.5,-184 98.5,-165 174.5,-165 174.5,-184"/>
<text text-anchor="middle" x="136.5" y="-172" font-family="Helvetica,sans-Serif" font-size="10.00">BoardConf.h</text>
</a>
</g>
</g>
<!-- Node1&#45;&gt;Node3 -->
<g id="edge2" class="edge">
<title>Node1&#45;&gt;Node3</title>
<path fill="none" stroke="#63b8ff" d="M310.24,-219.98C274.89,-210.93 218.83,-196.58 179.99,-186.64"/>
<polygon fill="#63b8ff" stroke="#63b8ff" points="180.57,-183.17 170.02,-184.08 178.84,-189.95 180.57,-183.17"/>
</g>
<!-- Node4 -->
<g id="node4" class="node">
<title>Node4</title>
<g id="a_node4"><a xlink:href="Pedal_8hpp.html" target="_top" xlink:title=" ">
<polygon fill="white" stroke="#666666" points="296,-184 231,-184 231,-165 296,-165 296,-184"/>
<text text-anchor="middle" x="263.5" y="-172" font-family="Helvetica,sans-Serif" font-size="10.00">Pedal.hpp</text>
</a>
</g>
</g>
<!-- Node1&#45;&gt;Node4 -->
<g id="edge3" class="edge">
<title>Node1&#45;&gt;Node4</title>
<path fill="none" stroke="#63b8ff" d="M330.65,-219.98C318.36,-211.84 299.59,-199.41 285.02,-189.76"/>
<polygon fill="#63b8ff" stroke="#63b8ff" points="286.86,-186.78 276.59,-184.17 282.99,-192.61 286.86,-186.78"/>
</g>
<!-- Node7 -->
<g id="node7" class="node">
<title>Node7</title>
<g id="a_node7"><a xlink:href="CarState_8h.html" target="_top" xlink:title="Definition of the CarState structure representing the state of the car.">
<polygon fill="white" stroke="#666666" points="321.5,-129 253.5,-129 253.5,-110 321.5,-110 321.5,-129"/>
<text text-anchor="middle" x="287.5" y="-117" font-family="Helvetica,sans-Serif" font-size="10.00">CarState.h</text>
</a>
</g>
</g>
<!-- Node1&#45;&gt;Node7 -->
<g id="edge27" class="edge">
<title>Node1&#45;&gt;Node7</title>
<path fill="none" stroke="#63b8ff" d="M338.92,-219.66C329.72,-201.93 308.88,-161.73 296.74,-138.32"/>
<polygon fill="#63b8ff" stroke="#63b8ff" points="299.7,-136.42 291.99,-129.16 293.49,-139.65 299.7,-136.42"/>
</g>
<!-- Node8 -->
<g id="node8" class="node">
<title>Node8</title>
<g id="a_node8"><a xlink:href="Enums_8h.html" target="_top" xlink:title="Enumeration definitions for the VCU.">
<polygon fill="white" stroke="#666666" points="468,-19 409,-19 409,0 468,0 468,-19"/>
<text text-anchor="middle" x="438.5" y="-7" font-family="Helvetica,sans-Serif" font-size="10.00">Enums.h</text>
</a>
</g>
</g>
<!-- Node1&#45;&gt;Node8 -->
<g id="edge26" class="edge">
<title>Node1&#45;&gt;Node8</title>
<path fill="none" stroke="#63b8ff" d="M348.42,-219.71C353.37,-210.78 361.16,-196.53 367.5,-184 391.9,-135.74 400.14,-124.49 419.5,-74 425.17,-59.21 430.24,-41.96 433.71,-29.18"/>
<polygon fill="#63b8ff" stroke="#63b8ff" points="437.16,-29.83 436.33,-19.27 430.39,-28.04 437.16,-29.83"/>
</g>
<!-- Node11 -->
<g id="node11" class="node">
<title>Node11</title>
<g id="a_node11"><a xlink:href="Curves_8hpp.html" target="_top" xlink:title="Definition of throttle and brake mapping tables.">
<polygon fill="white" stroke="#666666" points="71,-129 0,-129 0,-110 71,-110 71,-129"/>
<text text-anchor="middle" x="35.5" y="-117" font-family="Helvetica,sans-Serif" font-size="10.00">Curves.hpp</text>
</a>
</g>
</g>
<!-- Node1&#45;&gt;Node11 -->
<g id="edge29" class="edge">
<title>Node1&#45;&gt;Node11</title>
<path fill="none" stroke="#63b8ff" d="M317.71,-219.86C293.01,-211.39 254.83,-197.78 222.5,-184 204.76,-176.44 201.46,-172.02 183.5,-165 149.15,-151.57 109.02,-139.73 79.22,-131.65"/>
<polygon fill="#63b8ff" stroke="#63b8ff" points="80.09,-128.26 69.53,-129.05 78.28,-135.02 80.09,-128.26"/>
</g>
<!-- Node12 -->
<g id="node12" class="node">
<title>Node12</title>
<g id="a_node12"><a xlink:title=" ">
<polygon fill="#e0e0e0" stroke="#999999" points="690,-19 619,-19 619,0 690,0 690,-19"/>
<text text-anchor="middle" x="654.5" y="-7" font-family="Helvetica,sans-Serif" font-size="10.00">mcp2515.h</text>
</a>
</g>
</g>
<!-- Node1&#45;&gt;Node12 -->
<g id="edge30" class="edge">
<title>Node1&#45;&gt;Node12</title>
<path fill="none" stroke="#63b8ff" d="M383.15,-226.41C450.89,-222.15 585.31,-210.55 623.5,-184 667.01,-153.75 662.47,-126.52 669.5,-74 670.62,-65.63 670.87,-63.33 669.5,-55 668.03,-46.05 665.01,-36.47 662.06,-28.51"/>
<polygon fill="#63b8ff" stroke="#63b8ff" points="665.29,-27.16 658.36,-19.15 658.78,-29.74 665.29,-27.16"/>
</g>
<!-- Node13 -->
<g id="node13" class="node">
<title>Node13</title>
<g id="a_node13"><a xlink:href="BMS_8hpp.html" target="_top" xlink:title="Declaration of the BMS class for managing the Accumulator (Kclear BMS) via CAN bus.">
<polygon fill="white" stroke="#666666" points="614,-184 555,-184 555,-165 614,-165 614,-184"/>
<text text-anchor="middle" x="584.5" y="-172" font-family="Helvetica,sans-Serif" font-size="10.00">BMS.hpp</text>
</a>
</g>
</g>
<!-- Node1&#45;&gt;Node13 -->
<g id="edge17" class="edge">
<title>Node1&#45;&gt;Node13</title>
<path fill="none" stroke="#63b8ff" d="M382.22,-219.98C426.91,-210.16 500,-194.08 545.01,-184.18"/>
<polygon fill="#63b8ff" stroke="#63b8ff" points="545.98,-187.56 554.99,-181.99 544.47,-180.72 545.98,-187.56"/>
</g>
<!-- Node14 -->
<g id="node14" class="node">
<title>Node14</title>
<g id="a_node14"><a xlink:href="Scheduler_8hpp.html" target="_top" xlink:title="Declaration of the Scheduler class template, for scheduling tasks on multiple MCP2515 instances.">
<polygon fill="white" stroke="#666666" points="627,-129 542,-129 542,-110 627,-110 627,-129"/>
<text text-anchor="middle" x="584.5" y="-117" font-family="Helvetica,sans-Serif" font-size="10.00">Scheduler.hpp</text>
</a>
</g>
</g>
<!-- Node1&#45;&gt;Node14 -->
<g id="edge28" class="edge">
<title>Node1&#45;&gt;Node14</title>
<path fill="none" stroke="#63b8ff" d="M365.8,-219.86C387.94,-211.16 422.8,-197.19 452.5,-184 489.76,-167.45 532.12,-146.73 558.58,-133.55"/>
<polygon fill="#63b8ff" stroke="#63b8ff" points="560.19,-136.65 567.57,-129.05 557.06,-130.39 560.19,-136.65"/>
</g>
<!-- Node16 -->
<g id="node16" class="node">
<title>Node16</title>
<g id="a_node16"><a xlink:href="Debug_8hpp.html" target="_top" xlink:title="Debugging macros and functions for serial and CAN output.">
<polygon fill="white" stroke="#666666" points="410,-74 341,-74 341,-55 410,-55 410,-74"/>
<text text-anchor="middle" x="375.5" y="-62" font-family="Helvetica,sans-Serif" font-size="10.00">Debug.hpp</text>
</a>
</g>
</g>
<!-- Node1&#45;&gt;Node16 -->
<g id="edge31" class="edge">
<title>Node1&#45;&gt;Node16</title>
<path fill="none" stroke="#63b8ff" d="M345.22,-219.74C350.23,-194.2 364.91,-119.43 371.82,-84.23"/>
<polygon fill="#63b8ff" stroke="#63b8ff" points="375.28,-84.79 373.77,-74.31 368.41,-83.45 375.28,-84.79"/>
</g>
<!-- Node5 -->
<g id="node5" class="node">
<title>Node5</title>
<g id="a_node5"><a xlink:title=" ">
<polygon fill="#e0e0e0" stroke="#999999" points="164,-19 111,-19 111,0 164,0 164,-19"/>
<text text-anchor="middle" x="137.5" y="-7" font-family="Helvetica,sans-Serif" font-size="10.00">stdint.h</text>
</a>
</g>
</g>
<!-- Node4&#45;&gt;Node5 -->
<g id="edge4" class="edge">
<title>Node4&#45;&gt;Node5</title>
<path fill="none" stroke="#63b8ff" d="M230.64,-168.33C206.66,-162.79 175.35,-151.52 157.5,-129 134.57,-100.08 133.78,-54.54 135.48,-29.16"/>
<polygon fill="#63b8ff" stroke="#63b8ff" points="138.98,-29.32 136.37,-19.05 132.01,-28.71 138.98,-29.32"/>
</g>
<!-- Node6 -->
<g id="node6" class="node">
<title>Node6</title>
<g id="a_node6"><a xlink:href="Queue_8hpp.html" target="_top" xlink:title=" ">
<polygon fill="white" stroke="#666666" points="235,-129 166,-129 166,-110 235,-110 235,-129"/>
<text text-anchor="middle" x="200.5" y="-117" font-family="Helvetica,sans-Serif" font-size="10.00">Queue.hpp</text>
</a>
</g>
</g>
<!-- Node4&#45;&gt;Node6 -->
<g id="edge5" class="edge">
<title>Node4&#45;&gt;Node6</title>
<path fill="none" stroke="#63b8ff" d="M253.38,-164.98C244.06,-157.15 230.03,-145.34 218.76,-135.86"/>
<polygon fill="#63b8ff" stroke="#63b8ff" points="220.71,-132.93 210.81,-129.17 216.21,-138.29 220.71,-132.93"/>
</g>
<!-- Node4&#45;&gt;Node7 -->
<g id="edge7" class="edge">
<title>Node4&#45;&gt;Node7</title>
<path fill="none" stroke="#63b8ff" d="M267.46,-164.75C270.71,-157.57 275.42,-147.18 279.45,-138.27"/>
<polygon fill="#63b8ff" stroke="#63b8ff" points="282.67,-139.64 283.61,-129.09 276.3,-136.75 282.67,-139.64"/>
</g>
<!-- Node10 -->
<g id="node10" class="node">
<title>Node10</title>
<g id="a_node10"><a xlink:href="Interp_8hpp.html" target="_top" xlink:title="Declaration and definition of the LinearInterp class template for linear interpolation.">
<polygon fill="white" stroke="#666666" points="109.5,-74 43.5,-74 43.5,-55 109.5,-55 109.5,-74"/>
<text text-anchor="middle" x="76.5" y="-62" font-family="Helvetica,sans-Serif" font-size="10.00">Interp.hpp</text>
</a>
</g>
</g>
<!-- Node4&#45;&gt;Node10 -->
<g id="edge11" class="edge">
<title>Node4&#45;&gt;Node10</title>
<path fill="none" stroke="#63b8ff" d="M230.78,-165.6C195.12,-156.55 140.82,-141.39 123.5,-129 106.82,-117.07 93.59,-97.42 85.47,-83.13"/>
<polygon fill="#63b8ff" stroke="#63b8ff" points="88.52,-81.4 80.69,-74.26 82.36,-84.72 88.52,-81.4"/>
</g>
<!-- Node4&#45;&gt;Node11 -->
<g id="edge13" class="edge">
<title>Node4&#45;&gt;Node11</title>
<path fill="none" stroke="#63b8ff" d="M230.83,-165.91C191.54,-156.77 125.34,-141.38 81.04,-131.09"/>
<polygon fill="#63b8ff" stroke="#63b8ff" points="81.64,-127.63 71.11,-128.78 80.06,-134.45 81.64,-127.63"/>
</g>
<!-- Node4&#45;&gt;Node12 -->
<g id="edge16" class="edge">
<title>Node4&#45;&gt;Node12</title>
<path fill="none" stroke="#63b8ff" d="M282.07,-164.94C325.75,-144.91 438.55,-93.73 534.5,-55 563.29,-43.38 596.41,-31.18 620.55,-22.51"/>
<polygon fill="#63b8ff" stroke="#63b8ff" points="621.75,-25.79 629.98,-19.13 619.39,-19.2 621.75,-25.79"/>
</g>
<!-- Node6&#45;&gt;Node5 -->
<g id="edge6" class="edge">
<title>Node6&#45;&gt;Node5</title>
<path fill="none" stroke="#63b8ff" d="M195.34,-109.66C184.96,-91.85 161.34,-51.37 147.71,-28.01"/>
<polygon fill="#63b8ff" stroke="#63b8ff" points="150.61,-26.03 142.55,-19.16 144.57,-29.56 150.61,-26.03"/>
</g>
<!-- Node7&#45;&gt;Node5 -->
<g id="edge10" class="edge">
<title>Node7&#45;&gt;Node5</title>
<path fill="none" stroke="#63b8ff" d="M275.48,-109.84C249.81,-91.36 189.39,-47.86 157.7,-25.05"/>
<polygon fill="#63b8ff" stroke="#63b8ff" points="159.74,-22.2 149.58,-19.2 155.65,-27.88 159.74,-22.2"/>
</g>
<!-- Node7&#45;&gt;Node8 -->
<g id="edge8" class="edge">
<title>Node7&#45;&gt;Node8</title>
<path fill="none" stroke="#63b8ff" d="M281.1,-109.76C272.3,-96.58 258.89,-71.41 271.5,-55 286.9,-34.96 354.37,-22.02 398.7,-15.52"/>
<polygon fill="#63b8ff" stroke="#63b8ff" points="399.46,-18.94 408.88,-14.08 398.48,-12.01 399.46,-18.94"/>
</g>
<!-- Node9 -->
<g id="node9" class="node">
<title>Node9</title>
<g id="a_node9"><a xlink:title=" ">
<polygon fill="#e0e0e0" stroke="#999999" points="323,-74 280,-74 280,-55 323,-55 323,-74"/>
<text text-anchor="middle" x="301.5" y="-62" font-family="Helvetica,sans-Serif" font-size="10.00">can.h</text>
</a>
</g>
</g>
<!-- Node7&#45;&gt;Node9 -->
<g id="edge9" class="edge">
<title>Node7&#45;&gt;Node9</title>
<path fill="none" stroke="#63b8ff" d="M289.81,-109.75C291.67,-102.72 294.34,-92.62 296.65,-83.84"/>
<polygon fill="#63b8ff" stroke="#63b8ff" points="300.06,-84.65 299.23,-74.09 293.29,-82.86 300.06,-84.65"/>
</g>
<!-- Node10&#45;&gt;Node5 -->
<g id="edge12" class="edge">
<title>Node10&#45;&gt;Node5</title>
<path fill="none" stroke="#63b8ff" d="M86.3,-54.98C95.32,-47.15 108.91,-35.34 119.82,-25.86"/>
<polygon fill="#63b8ff" stroke="#63b8ff" points="122.27,-28.37 127.52,-19.17 117.68,-23.09 122.27,-28.37"/>
</g>
<!-- Node11&#45;&gt;Node5 -->
<g id="edge15" class="edge">
<title>Node11&#45;&gt;Node5</title>
<path fill="none" stroke="#63b8ff" d="M32.53,-109.85C28.63,-96.79 23.48,-71.77 34.5,-55 49.13,-32.74 77.53,-21.56 100.8,-15.98"/>
<polygon fill="#63b8ff" stroke="#63b8ff" points="101.69,-19.37 110.74,-13.85 100.23,-12.52 101.69,-19.37"/>
</g>
<!-- Node11&#45;&gt;Node10 -->
<g id="edge14" class="edge">
<title>Node11&#45;&gt;Node10</title>
<path fill="none" stroke="#63b8ff" d="M42.27,-109.75C48.06,-102.26 56.56,-91.28 63.64,-82.13"/>
<polygon fill="#63b8ff" stroke="#63b8ff" points="66.51,-84.14 69.86,-74.09 60.97,-79.86 66.51,-84.14"/>
</g>
<!-- Node13&#45;&gt;Node12 -->
<g id="edge25" class="edge">
<title>Node13&#45;&gt;Node12</title>
<path fill="none" stroke="#63b8ff" d="M598.36,-164.91C610.11,-156.95 626.58,-144.09 636.5,-129 656.53,-98.52 657.57,-54.24 656.23,-29.34"/>
<polygon fill="#63b8ff" stroke="#63b8ff" points="659.71,-28.81 655.49,-19.09 652.72,-29.32 659.71,-28.81"/>
</g>
<!-- Node13&#45;&gt;Node14 -->
<g id="edge18" class="edge">
<title>Node13&#45;&gt;Node14</title>
<path fill="none" stroke="#63b8ff" d="M584.5,-164.75C584.5,-157.8 584.5,-147.85 584.5,-139.13"/>
<polygon fill="#63b8ff" stroke="#63b8ff" points="588,-139.09 584.5,-129.09 581,-139.09 588,-139.09"/>
</g>
<!-- Node14&#45;&gt;Node8 -->
<g id="edge19" class="edge">
<title>Node14&#45;&gt;Node8</title>
<path fill="none" stroke="#63b8ff" d="M572.8,-109.84C547.92,-91.44 489.51,-48.23 458.56,-25.34"/>
<polygon fill="#63b8ff" stroke="#63b8ff" points="460.38,-22.33 450.26,-19.2 456.21,-27.96 460.38,-22.33"/>
</g>
<!-- Node14&#45;&gt;Node12 -->
<g id="edge20" class="edge">
<title>Node14&#45;&gt;Node12</title>
<path fill="none" stroke="#63b8ff" d="M598.12,-109.87C609.66,-101.89 625.83,-89.02 635.5,-74 644.26,-60.39 649.13,-42.58 651.74,-29.28"/>
<polygon fill="#63b8ff" stroke="#63b8ff" points="655.2,-29.81 653.44,-19.36 648.3,-28.63 655.2,-29.81"/>
</g>
<!-- Node15 -->
<g id="node15" class="node">
<title>Node15</title>
<g id="a_node15"><a xlink:href="Scheduler_8tpp.html" target="_top" xlink:title="Implementation of the Scheduler class template.">
<polygon fill="white" stroke="#666666" points="626,-74 543,-74 543,-55 626,-55 626,-74"/>
<text text-anchor="middle" x="584.5" y="-62" font-family="Helvetica,sans-Serif" font-size="10.00">Scheduler.tpp</text>
</a>
</g>
</g>
<!-- Node14&#45;&gt;Node15 -->
<g id="edge21" class="edge">
<title>Node14&#45;&gt;Node15</title>
<path fill="none" stroke="#63b8ff" d="M579.33,-109.75C577.84,-102.8 577.4,-92.85 578.02,-84.13"/>
<polygon fill="#63b8ff" stroke="#63b8ff" points="581.51,-84.47 579.37,-74.09 574.57,-83.53 581.51,-84.47"/>
</g>
<!-- Node15&#45;&gt;Node8 -->
<g id="edge22" class="edge">
<title>Node15&#45;&gt;Node8</title>
<path fill="none" stroke="#63b8ff" d="M561.04,-54.98C536.92,-46.23 499.13,-32.51 471.9,-22.62"/>
<polygon fill="#63b8ff" stroke="#63b8ff" points="472.98,-19.29 462.38,-19.17 470.59,-25.87 472.98,-19.29"/>
</g>
<!-- Node15&#45;&gt;Node12 -->
<g id="edge23" class="edge">
<title>Node15&#45;&gt;Node12</title>
<path fill="none" stroke="#63b8ff" d="M595.75,-54.98C606.3,-47 622.3,-34.88 634.94,-25.31"/>
<polygon fill="#63b8ff" stroke="#63b8ff" points="637.19,-28 643.05,-19.17 632.96,-22.42 637.19,-28"/>
</g>
<!-- Node15&#45;&gt;Node14 -->
<g id="edge24" class="edge">
<title>Node15&#45;&gt;Node14</title>
<path fill="none" stroke="#63b8ff" d="M589.63,-74.09C591.14,-80.99 591.59,-90.93 590.99,-99.66"/>
<polygon fill="#63b8ff" stroke="#63b8ff" points="587.5,-99.38 589.67,-109.75 594.44,-100.29 587.5,-99.38"/>
</g>
<!-- Node16&#45;&gt;Node8 -->
<g id="edge32" class="edge">
<title>Node16&#45;&gt;Node8</title>
<path fill="none" stroke="#63b8ff" d="M385.62,-54.98C394.94,-47.15 408.97,-35.34 420.24,-25.86"/>
<polygon fill="#63b8ff" stroke="#63b8ff" points="422.79,-28.29 428.19,-19.17 418.29,-22.93 422.79,-28.29"/>
</g>
</g>
</svg>
