<?xml version="1.0" encoding="UTF-8" standalone="no"?>
<!DOCTYPE svg PUBLIC "-//W3C//DTD SVG 1.1//EN"
 "http://www.w3.org/Graphics/SVG/1.1/DTD/svg11.dtd">
<!-- Generated by graphviz version 2.43.0 (0)
 -->
<!-- Title: setup Pages: 1 -->
<svg width="708pt" height="171pt"
 viewBox="0.00 0.00 708.00 171.00" xmlns="http://www.w3.org/2000/svg" xmlns:xlink="http://www.w3.org/1999/xlink">
<g id="graph0" class="graph" transform="scale(1 1) rotate(0) translate(4 167)">
<title>setup</title>
<!-- Node1 -->
<g id="node1" class="node">
<title>Node1</title>
<g id="a_node1"><a xlink:title="Setup function for initializing the VCU system. Initializes MCP2515s, IO pins, as well as own modules...">
<polygon fill="#999999" stroke="#666666" points="44,-93 0,-93 0,-74 44,-74 44,-93"/>
<text text-anchor="middle" x="22" y="-81" font-family="Helvetica,sans-Serif" font-size="10.00">setup</text>
</a>
</g>
</g>
<!-- Node2 -->
<g id="node2" class="node">
<title>Node2</title>
<g id="a_node2"><a xlink:href="Debug_8hpp.html#a8e8d6e3de15309922f25c12f4d7cf727" target="_top" xlink:title="Prints a line to the serial console for general debug.">
<polygon fill="white" stroke="#666666" points="348,-163 246,-163 246,-144 348,-144 348,-163"/>
<text text-anchor="middle" x="297" y="-151" font-family="Helvetica,sans-Serif" font-size="10.00">DBGLN_GENERAL</text>
</a>
</g>
</g>
<!-- Node1&#45;&gt;Node2 -->
<g id="edge1" class="edge">
<title>Node1&#45;&gt;Node2</title>
<path fill="none" stroke="#63b8ff" d="M29.37,-93.12C38.71,-106.28 57.46,-129.42 80,-139.5 129.01,-161.42 190.59,-163.24 235.45,-160.56"/>
<polygon fill="#63b8ff" stroke="#63b8ff" points="235.88,-164.04 245.61,-159.86 235.4,-157.05 235.88,-164.04"/>
</g>
<!-- Node4 -->
<g id="node4" class="node">
<title>Node4</title>
<g id="a_node4"><a xlink:href="namespaceDebug__Serial.html#ad136936636c7b7140cb1e14c55eb5f31" target="_top" xlink:title="Initializes the Debug_Serial interface. It should be called before using any other Debug_Serial funct...">
<polygon fill="white" stroke="#666666" points="209,-130 80,-130 80,-111 209,-111 209,-130"/>
<text text-anchor="middle" x="144.5" y="-118" font-family="Helvetica,sans-Serif" font-size="10.00">Debug_Serial::initialize</text>
</a>
</g>
</g>
<!-- Node1&#45;&gt;Node4 -->
<g id="edge3" class="edge">
<title>Node1&#45;&gt;Node4</title>
<path fill="none" stroke="#63b8ff" d="M44.04,-90.77C54.77,-94.41 68.04,-98.81 80,-102.5 86.11,-104.38 92.57,-106.3 98.94,-108.15"/>
<polygon fill="#63b8ff" stroke="#63b8ff" points="98.23,-111.58 108.81,-110.98 100.16,-104.86 98.23,-111.58"/>
</g>
<!-- Node5 -->
<g id="node5" class="node">
<title>Node5</title>
<g id="a_node5"><a xlink:href="namespaceDebug__CAN.html#a5c8b33000e36a19ccb285e45f666e64e" target="_top" xlink:title="Initializes the Debug_CAN interface. It should be called before using any other Debug_CAN functions.">
<polygon fill="white" stroke="#666666" points="205.5,-93 83.5,-93 83.5,-74 205.5,-74 205.5,-93"/>
<text text-anchor="middle" x="144.5" y="-81" font-family="Helvetica,sans-Serif" font-size="10.00">Debug_CAN::initialize</text>
</a>
</g>
</g>
<!-- Node1&#45;&gt;Node5 -->
<g id="edge4" class="edge">
<title>Node1&#45;&gt;Node5</title>
<path fill="none" stroke="#63b8ff" d="M44.27,-83.5C52.61,-83.5 62.71,-83.5 73.22,-83.5"/>
<polygon fill="#63b8ff" stroke="#63b8ff" points="73.39,-87 83.39,-83.5 73.39,-80 73.39,-87"/>
</g>
<!-- Node6 -->
<g id="node6" class="node">
<title>Node6</title>
<g id="a_node6"><a xlink:href="main_8cpp.html#a95581c94a7dc4a68f61fa24f06cc90d1" target="_top" xlink:title=" ">
<polygon fill="white" stroke="#666666" points="184.5,-56 104.5,-56 104.5,-37 184.5,-37 184.5,-56"/>
<text text-anchor="middle" x="144.5" y="-44" font-family="Helvetica,sans-Serif" font-size="10.00">mcp2515_DL</text>
</a>
</g>
</g>
<!-- Node1&#45;&gt;Node6 -->
<g id="edge5" class="edge">
<title>Node1&#45;&gt;Node6</title>
<path fill="none" stroke="#63b8ff" d="M44.09,-76.76C54.83,-73.34 68.1,-69.16 80,-65.5 86.96,-63.36 94.35,-61.12 101.55,-58.96"/>
<polygon fill="#63b8ff" stroke="#63b8ff" points="102.59,-62.3 111.17,-56.07 100.58,-55.59 102.59,-62.3"/>
</g>
<!-- Node7 -->
<g id="node7" class="node">
<title>Node7</title>
<g id="a_node7"><a xlink:href="main_8cpp.html#a1174b6795782479542559289cd623faf" target="_top" xlink:title=" ">
<polygon fill="white" stroke="#666666" points="192.5,-19 96.5,-19 96.5,0 192.5,0 192.5,-19"/>
<text text-anchor="middle" x="144.5" y="-7" font-family="Helvetica,sans-Serif" font-size="10.00">scheduler_pedal</text>
</a>
</g>
</g>
<!-- Node1&#45;&gt;Node7 -->
<g id="edge6" class="edge">
<title>Node1&#45;&gt;Node7</title>
<path fill="none" stroke="#63b8ff" d="M30.37,-73.68C40.3,-61.14 59.13,-39.63 80,-27.5 83.01,-25.75 86.21,-24.16 89.5,-22.72"/>
<polygon fill="#63b8ff" stroke="#63b8ff" points="90.9,-25.93 98.95,-19.04 88.36,-19.41 90.9,-25.93"/>
</g>
<!-- Node3 -->
<g id="node3" class="node">
<title>Node3</title>
<g id="a_node3"><a xlink:href="namespaceDebug__Serial.html#a756fa9286151426012a6f8e178a6c550" target="_top" xlink:title="Prints a string AND a newline to the serial console.">
<polygon fill="white" stroke="#666666" points="700,-134 581,-134 581,-115 700,-115 700,-134"/>
<text text-anchor="middle" x="640.5" y="-122" font-family="Helvetica,sans-Serif" font-size="10.00">Debug_Serial::println</text>
</a>
</g>
</g>
<!-- Node2&#45;&gt;Node3 -->
<g id="edge2" class="edge">
<title>Node2&#45;&gt;Node3</title>
<path fill="none" stroke="#63b8ff" d="M348.02,-149.25C406.76,-144.26 504.51,-135.96 570.45,-130.36"/>
<polygon fill="#63b8ff" stroke="#63b8ff" points="571.08,-133.82 580.74,-129.49 570.48,-126.85 571.08,-133.82"/>
</g>
<!-- Node8 -->
<g id="node8" class="node">
<title>Node8</title>
<g id="a_node8"><a xlink:href="classPedal.html#a1027941444ce0b3f32ab8991e05c2015" target="_top" xlink:title="Sends the appropriate CAN frame based on pedal and car state.">
<polygon fill="white" stroke="#666666" points="349,-56 245,-56 245,-37 349,-37 349,-56"/>
<text text-anchor="middle" x="297" y="-44" font-family="Helvetica,sans-Serif" font-size="10.00">Pedal::sendFrame</text>
</a>
</g>
</g>
<!-- Node7&#45;&gt;Node8 -->
<g id="edge7" class="edge">
<title>Node7&#45;&gt;Node8</title>
<path fill="none" stroke="#63b8ff" d="M184.26,-19.03C203.49,-23.76 226.93,-29.52 247.36,-34.54"/>
<polygon fill="#63b8ff" stroke="#63b8ff" points="246.57,-37.95 257.11,-36.94 248.24,-31.15 246.57,-37.95"/>
</g>
<!-- Node9 -->
<g id="node9" class="node">
<title>Node9</title>
<g id="a_node9"><a xlink:href="Debug_8hpp.html#a9a564faad1bd32a5894d3706e38f1067" target="_top" xlink:title="Prints a line to the serial console for throttle debug.">
<polygon fill="white" stroke="#666666" points="518.5,-111 411.5,-111 411.5,-92 518.5,-92 518.5,-111"/>
<text text-anchor="middle" x="465" y="-99" font-family="Helvetica,sans-Serif" font-size="10.00">DBGLN_THROTTLE</text>
</a>
</g>
</g>
<!-- Node8&#45;&gt;Node9 -->
<g id="edge8" class="edge">
<title>Node8&#45;&gt;Node9</title>
<path fill="none" stroke="#63b8ff" d="M326.91,-56.08C354.21,-65.12 395.31,-78.74 425.4,-88.71"/>
<polygon fill="#63b8ff" stroke="#63b8ff" points="424.54,-92.11 435.14,-91.94 426.75,-85.47 424.54,-92.11"/>
</g>
<!-- Node10 -->
<g id="node10" class="node">
<title>Node10</title>
<g id="a_node10"><a xlink:href="classPedal.html#abef0e8d31dc31884f9944a149c6b8e5a" target="_top" xlink:title="Maps the pedal ADC to a torque value, handling deadzones and faults.">
<polygon fill="white" stroke="#666666" points="545,-56 385,-56 385,-37 545,-37 545,-56"/>
<text text-anchor="middle" x="465" y="-44" font-family="Helvetica,sans-Serif" font-size="10.00">Pedal::throttleTorqueMapping</text>
</a>
</g>
</g>
<!-- Node8&#45;&gt;Node10 -->
<g id="edge10" class="edge">
<title>Node8&#45;&gt;Node10</title>
<path fill="none" stroke="#63b8ff" d="M349.16,-46.5C357.31,-46.5 365.94,-46.5 374.66,-46.5"/>
<polygon fill="#63b8ff" stroke="#63b8ff" points="374.92,-50 384.92,-46.5 374.92,-43 374.92,-50"/>
</g>
<!-- Node9&#45;&gt;Node3 -->
<g id="edge9" class="edge">
<title>Node9&#45;&gt;Node3</title>
<path fill="none" stroke="#63b8ff" d="M518.53,-108.46C534.95,-110.64 553.33,-113.08 570.7,-115.38"/>
<polygon fill="#63b8ff" stroke="#63b8ff" points="570.41,-118.87 580.78,-116.72 571.33,-111.93 570.41,-118.87"/>
</g>
</g>
</svg>
