<?xml version="1.0" encoding="UTF-8" standalone="no"?>
<!DOCTYPE svg PUBLIC "-//W3C//DTD SVG 1.1//EN"
 "http://www.w3.org/Graphics/SVG/1.1/DTD/svg11.dtd">
<!-- Generated by graphviz version 2.43.0 (0)
 -->
<!-- Title: pedal Pages: 1 -->
<svg width="591pt" height="85pt"
 viewBox="0.00 0.00 591.00 85.49" xmlns="http://www.w3.org/2000/svg" xmlns:xlink="http://www.w3.org/1999/xlink">
<g id="graph0" class="graph" transform="scale(1 1) rotate(0) translate(4 81.49)">
<title>pedal</title>
<!-- Node1 -->
<g id="node1" class="node">
<title>Node1</title>
<g id="a_node1"><a xlink:title=" ">
<polygon fill="#999999" stroke="#666666" points="583,-40.49 539,-40.49 539,-21.49 583,-21.49 583,-40.49"/>
<text text-anchor="middle" x="561" y="-28.49" font-family="Helvetica,sans-Serif" font-size="10.00">pedal</text>
</a>
</g>
</g>
<!-- Node2 -->
<g id="node2" class="node">
<title>Node2</title>
<g id="a_node2"><a xlink:href="main_8cpp.html#afe461d27b9c48d5921c00d521181f12f" target="_top" xlink:title="Main loop function for the VCU system. Handles car state transitions, pipes dataflow between modules.">
<polygon fill="white" stroke="#666666" points="446.5,-77.49 408.5,-77.49 408.5,-58.49 446.5,-58.49 446.5,-77.49"/>
<text text-anchor="middle" x="427.5" y="-65.49" font-family="Helvetica,sans-Serif" font-size="10.00">loop</text>
</a>
</g>
</g>
<!-- Node1&#45;&gt;Node2 -->
<g id="edge1" class="edge">
<title>Node1&#45;&gt;Node2</title>
<path fill="none" stroke="#63b8ff" d="M529.24,-41.77C520.78,-44.59 511.58,-47.53 503,-49.99 483.94,-55.46 461.83,-60.66 446.68,-64.05"/>
<polygon fill="#63b8ff" stroke="#63b8ff" points="530.4,-45.08 538.75,-38.55 528.16,-38.45 530.4,-45.08"/>
</g>
<!-- Node3 -->
<g id="node3" class="node">
<title>Node3</title>
<g id="a_node3"><a xlink:href="classPedal.html#ae82e0ae8a1a0c6918d43fb27bf8d9d0d" target="_top" xlink:title="Maps the pedal ADC to a torque value. If no braking requested, maps throttle normally....">
<polygon fill="white" stroke="#666666" points="503,-40.49 352,-40.49 352,-21.49 503,-21.49 503,-40.49"/>
<text text-anchor="middle" x="427.5" y="-28.49" font-family="Helvetica,sans-Serif" font-size="10.00">Pedal::pedalTorqueMapping</text>
</a>
</g>
</g>
<!-- Node1&#45;&gt;Node3 -->
<g id="edge2" class="edge">
<title>Node1&#45;&gt;Node3</title>
<path fill="none" stroke="#63b8ff" d="M528.78,-30.99C520.91,-30.99 512.12,-30.99 503.1,-30.99"/>
<polygon fill="#63b8ff" stroke="#63b8ff" points="528.87,-34.49 538.87,-30.99 528.87,-27.49 528.87,-34.49"/>
</g>
<!-- Node5 -->
<g id="node5" class="node">
<title>Node5</title>
<g id="a_node5"><a xlink:href="main_8cpp.html#a1174b6795782479542559289cd623faf" target="_top" xlink:title=" ">
<polygon fill="white" stroke="#666666" points="176,-21.49 80,-21.49 80,-2.49 176,-2.49 176,-21.49"/>
<text text-anchor="middle" x="128" y="-9.49" font-family="Helvetica,sans-Serif" font-size="10.00">scheduler_pedal</text>
</a>
</g>
</g>
<!-- Node1&#45;&gt;Node5 -->
<g id="edge6" class="edge">
<title>Node1&#45;&gt;Node5</title>
<path fill="none" stroke="#63b8ff" d="M529.06,-18.68C520.74,-15.92 511.64,-13.39 503,-11.99 386.67,6.89 247.3,-1 176.03,-7.2"/>
<polygon fill="#63b8ff" stroke="#63b8ff" points="528.16,-22.07 538.76,-22.1 530.49,-15.47 528.16,-22.07"/>
</g>
<!-- Node4 -->
<g id="node4" class="node">
<title>Node4</title>
<g id="a_node4"><a xlink:href="classPedal.html#a1027941444ce0b3f32ab8991e05c2015" target="_top" xlink:title="Sends the appropriate CAN frame to the motor based on pedal and car state.">
<polygon fill="white" stroke="#666666" points="316,-40.49 212,-40.49 212,-21.49 316,-21.49 316,-40.49"/>
<text text-anchor="middle" x="264" y="-28.49" font-family="Helvetica,sans-Serif" font-size="10.00">Pedal::sendFrame</text>
</a>
</g>
</g>
<!-- Node3&#45;&gt;Node4 -->
<g id="edge3" class="edge">
<title>Node3&#45;&gt;Node4</title>
<path fill="none" stroke="#63b8ff" d="M341.69,-30.99C333.01,-30.99 324.39,-30.99 316.23,-30.99"/>
<polygon fill="#63b8ff" stroke="#63b8ff" points="341.9,-34.49 351.9,-30.99 341.9,-27.49 341.9,-34.49"/>
</g>
<!-- Node4&#45;&gt;Node5 -->
<g id="edge4" class="edge">
<title>Node4&#45;&gt;Node5</title>
<path fill="none" stroke="#63b8ff" d="M201.97,-22.34C193.38,-21.12 184.66,-19.88 176.37,-18.71"/>
<polygon fill="#63b8ff" stroke="#63b8ff" points="201.57,-25.82 211.96,-23.75 202.55,-18.89 201.57,-25.82"/>
</g>
<!-- Node6 -->
<g id="node6" class="node">
<title>Node6</title>
<g id="a_node6"><a xlink:href="main_8cpp.html#a4fc01d736fe50cf5b977f755b675f11d" target="_top" xlink:title="Setup function for initializing the VCU system. Initializes MCP2515s, IO pins, as well as own modules...">
<polygon fill="white" stroke="#666666" points="44,-21.49 0,-21.49 0,-2.49 44,-2.49 44,-21.49"/>
<text text-anchor="middle" x="22" y="-9.49" font-family="Helvetica,sans-Serif" font-size="10.00">setup</text>
</a>
</g>
</g>
<!-- Node5&#45;&gt;Node6 -->
<g id="edge5" class="edge">
<title>Node5&#45;&gt;Node6</title>
<path fill="none" stroke="#63b8ff" d="M69.62,-11.99C60.56,-11.99 51.73,-11.99 44.23,-11.99"/>
<polygon fill="#63b8ff" stroke="#63b8ff" points="69.87,-15.49 79.87,-11.99 69.87,-8.49 69.87,-15.49"/>
</g>
</g>
</svg>
