<?xml version="1.0" encoding="UTF-8" standalone="no"?>
<!DOCTYPE svg PUBLIC "-//W3C//DTD SVG 1.1//EN"
 "http://www.w3.org/Graphics/SVG/1.1/DTD/svg11.dtd">
<!-- Generated by graphviz version 2.43.0 (0)
 -->
<!-- Title: scheduler_bms Pages: 1 -->
<svg width="542pt" height="101pt"
 viewBox="0.00 0.00 542.00 101.00" xmlns="http://www.w3.org/2000/svg" xmlns:xlink="http://www.w3.org/1999/xlink">
<g id="graph0" class="graph" transform="scale(1 1) rotate(0) translate(4 97)">
<title>scheduler_bms</title>
<!-- Node1 -->
<g id="node1" class="node">
<title>Node1</title>
<g id="a_node1"><a xlink:title=" ">
<polygon fill="#999999" stroke="#666666" points="90,-37 0,-37 0,-18 90,-18 90,-37"/>
<text text-anchor="middle" x="45" y="-25" font-family="Helvetica,sans-Serif" font-size="10.00">scheduler_bms</text>
</a>
</g>
</g>
<!-- Node2 -->
<g id="node2" class="node">
<title>Node2</title>
<g id="a_node2"><a xlink:href="classBMS.html#a7de82f50c43e50529739213e98b9b634" target="_top" xlink:title="Attempts to start HV. First check BMS is in standby(3) state, then send the HV start command....">
<polygon fill="white" stroke="#666666" points="212,-37 126,-37 126,-18 212,-18 212,-37"/>
<text text-anchor="middle" x="169" y="-25" font-family="Helvetica,sans-Serif" font-size="10.00">BMS::checkHv</text>
</a>
</g>
</g>
<!-- Node1&#45;&gt;Node2 -->
<g id="edge1" class="edge">
<title>Node1&#45;&gt;Node2</title>
<path fill="none" stroke="#63b8ff" d="M90.04,-27.5C98.29,-27.5 106.99,-27.5 115.47,-27.5"/>
<polygon fill="#63b8ff" stroke="#63b8ff" points="115.65,-31 125.65,-27.5 115.65,-24 115.65,-31"/>
</g>
<!-- Node3 -->
<g id="node3" class="node">
<title>Node3</title>
<g id="a_node3"><a xlink:href="Debug_8hpp.html#a460f71d79003b7e0c37275d93f7d5c53" target="_top" xlink:title="Sends BMS debug info via CAN or serial (if enabled).">
<polygon fill="white" stroke="#666666" points="355,-56 248,-56 248,-37 355,-37 355,-56"/>
<text text-anchor="middle" x="301.5" y="-44" font-family="Helvetica,sans-Serif" font-size="10.00">DBG_BMS_STATUS</text>
</a>
</g>
</g>
<!-- Node2&#45;&gt;Node3 -->
<g id="edge2" class="edge">
<title>Node2&#45;&gt;Node3</title>
<path fill="none" stroke="#63b8ff" d="M212.01,-33.62C220.15,-34.8 228.84,-36.07 237.49,-37.33"/>
<polygon fill="#63b8ff" stroke="#63b8ff" points="237.17,-40.82 247.57,-38.79 238.18,-33.89 237.17,-40.82"/>
</g>
<!-- Node6 -->
<g id="node6" class="node">
<title>Node6</title>
<g id="a_node6"><a xlink:href="Debug_8hpp.html#a8e8d6e3de15309922f25c12f4d7cf727" target="_top" xlink:title="Prints a line to the serial console for general debug.">
<polygon fill="white" stroke="#666666" points="352.5,-19 250.5,-19 250.5,0 352.5,0 352.5,-19"/>
<text text-anchor="middle" x="301.5" y="-7" font-family="Helvetica,sans-Serif" font-size="10.00">DBGLN_GENERAL</text>
</a>
</g>
</g>
<!-- Node2&#45;&gt;Node6 -->
<g id="edge5" class="edge">
<title>Node2&#45;&gt;Node6</title>
<path fill="none" stroke="#63b8ff" d="M212.01,-21.71C221.08,-20.45 230.84,-19.11 240.44,-17.78"/>
<polygon fill="#63b8ff" stroke="#63b8ff" points="240.94,-21.25 250.37,-16.42 239.98,-14.31 240.94,-21.25"/>
</g>
<!-- Node4 -->
<g id="node4" class="node">
<title>Node4</title>
<g id="a_node4"><a xlink:href="namespaceDebug__CAN.html#a0514cc9d56b82f8a3b586aee6f4c97b0" target="_top" xlink:title="Sends a debug BMS status message over CAN.">
<polygon fill="white" stroke="#666666" points="531,-93 394,-93 394,-74 531,-74 531,-93"/>
<text text-anchor="middle" x="462.5" y="-81" font-family="Helvetica,sans-Serif" font-size="10.00">Debug_CAN::status_bms</text>
</a>
</g>
</g>
<!-- Node3&#45;&gt;Node4 -->
<g id="edge3" class="edge">
<title>Node3&#45;&gt;Node4</title>
<path fill="none" stroke="#63b8ff" d="M343.45,-56.03C363.86,-60.78 388.75,-66.57 410.4,-71.61"/>
<polygon fill="#63b8ff" stroke="#63b8ff" points="409.88,-75.08 420.42,-73.94 411.47,-68.26 409.88,-75.08"/>
</g>
<!-- Node5 -->
<g id="node5" class="node">
<title>Node5</title>
<g id="a_node5"><a xlink:href="namespaceDebug__Serial.html#a1a39bd8c1cd5d475881b10a3a5deeb03" target="_top" xlink:title="Prints the current BMS status to the serial console. This function formats and sends the current BMS ...">
<polygon fill="white" stroke="#666666" points="534,-56 391,-56 391,-37 534,-37 534,-56"/>
<text text-anchor="middle" x="462.5" y="-44" font-family="Helvetica,sans-Serif" font-size="10.00">Debug_Serial::status_bms</text>
</a>
</g>
</g>
<!-- Node3&#45;&gt;Node5 -->
<g id="edge4" class="edge">
<title>Node3&#45;&gt;Node5</title>
<path fill="none" stroke="#63b8ff" d="M355,-46.5C363.26,-46.5 371.96,-46.5 380.68,-46.5"/>
<polygon fill="#63b8ff" stroke="#63b8ff" points="380.9,-50 390.9,-46.5 380.9,-43 380.9,-50"/>
</g>
<!-- Node7 -->
<g id="node7" class="node">
<title>Node7</title>
<g id="a_node7"><a xlink:href="namespaceDebug__Serial.html#a756fa9286151426012a6f8e178a6c550" target="_top" xlink:title="Prints a string AND a newline to the serial console.">
<polygon fill="white" stroke="#666666" points="522,-19 403,-19 403,0 522,0 522,-19"/>
<text text-anchor="middle" x="462.5" y="-7" font-family="Helvetica,sans-Serif" font-size="10.00">Debug_Serial::println</text>
</a>
</g>
</g>
<!-- Node6&#45;&gt;Node7 -->
<g id="edge6" class="edge">
<title>Node6&#45;&gt;Node7</title>
<path fill="none" stroke="#63b8ff" d="M352.81,-9.5C365.5,-9.5 379.34,-9.5 392.76,-9.5"/>
<polygon fill="#63b8ff" stroke="#63b8ff" points="392.92,-13 402.92,-9.5 392.92,-6 392.92,-13"/>
</g>
</g>
</svg>
