<?xml version="1.0" encoding="UTF-8" standalone="no"?>
<!DOCTYPE svg PUBLIC "-//W3C//DTD SVG 1.1//EN"
 "http://www.w3.org/Graphics/SVG/1.1/DTD/svg11.dtd">
<!-- Generated by graphviz version 2.43.0 (0)
 -->
<!-- Title: loop Pages: 1 -->
<svg width="733pt" height="336pt"
 viewBox="0.00 0.00 733.00 336.00" xmlns="http://www.w3.org/2000/svg" xmlns:xlink="http://www.w3.org/1999/xlink">
<g id="graph0" class="graph" transform="scale(1 1) rotate(0) translate(4 332)">
<title>loop</title>
<!-- Node1 -->
<g id="node1" class="node">
<title>Node1</title>
<g id="a_node1"><a xlink:title="Main loop function for the VCU system. Handles car state transitions, pipes dataflow between modules.">
<polygon fill="#999999" stroke="#666666" points="38,-175 0,-175 0,-156 38,-156 38,-175"/>
<text text-anchor="middle" x="19" y="-163" font-family="Helvetica,sans-Serif" font-size="10.00">loop</text>
</a>
</g>
</g>
<!-- Node2 -->
<g id="node2" class="node">
<title>Node2</title>
<g id="a_node2"><a xlink:href="Debug_8h.html#a306ca7fb070dd487be4ea4ec3de74b85" target="_top" xlink:title="Sends car status debug info via CAN or serial (if enabled).">
<polygon fill="white" stroke="#666666" points="194,-291 88,-291 88,-272 194,-272 194,-291"/>
<text text-anchor="middle" x="141" y="-279" font-family="Helvetica,sans-Serif" font-size="10.00">DBG_STATUS_CAR</text>
</a>
</g>
</g>
<!-- Node1&#45;&gt;Node2 -->
<g id="edge1" class="edge">
<title>Node1&#45;&gt;Node2</title>
<path fill="none" stroke="#63b8ff" d="M24.85,-175.15C33.17,-190.98 51.46,-222.76 74,-243.5 84.21,-252.9 97.14,-260.97 108.85,-267.24"/>
<polygon fill="#63b8ff" stroke="#63b8ff" points="107.4,-270.43 117.89,-271.86 110.58,-264.19 107.4,-270.43"/>
</g>
<!-- Node5 -->
<g id="node5" class="node">
<title>Node5</title>
<g id="a_node5"><a xlink:href="Debug_8h.html#a9a564faad1bd32a5894d3706e38f1067" target="_top" xlink:title="Prints a line to the serial console for throttle debug.">
<polygon fill="white" stroke="#666666" points="535,-111 428,-111 428,-92 535,-92 535,-111"/>
<text text-anchor="middle" x="481.5" y="-99" font-family="Helvetica,sans-Serif" font-size="10.00">DBGLN_THROTTLE</text>
</a>
</g>
</g>
<!-- Node1&#45;&gt;Node5 -->
<g id="edge4" class="edge">
<title>Node1&#45;&gt;Node5</title>
<path fill="none" stroke="#63b8ff" d="M27.98,-155.84C37.61,-144.99 54.89,-127.93 74,-120.5 188.77,-75.89 335.69,-83.22 417.78,-92.44"/>
<polygon fill="#63b8ff" stroke="#63b8ff" points="417.61,-95.94 427.95,-93.63 418.43,-88.99 417.61,-95.94"/>
</g>
<!-- Node7 -->
<g id="node7" class="node">
<title>Node7</title>
<g id="a_node7"><a xlink:href="classBMS.html#ac4529cdd9f90af5b41eff61d15595852" target="_top" xlink:title=" ">
<polygon fill="white" stroke="#666666" points="185.5,-197 96.5,-197 96.5,-178 185.5,-178 185.5,-197"/>
<text text-anchor="middle" x="141" y="-185" font-family="Helvetica,sans-Serif" font-size="10.00">BMS::hv_ready</text>
</a>
</g>
</g>
<!-- Node1&#45;&gt;Node7 -->
<g id="edge6" class="edge">
<title>Node1&#45;&gt;Node7</title>
<path fill="none" stroke="#63b8ff" d="M38.23,-168.84C51.11,-171.2 69.08,-174.5 86.35,-177.66"/>
<polygon fill="#63b8ff" stroke="#63b8ff" points="85.93,-181.14 96.39,-179.51 87.19,-174.26 85.93,-181.14"/>
</g>
<!-- Node8 -->
<g id="node8" class="node">
<title>Node8</title>
<g id="a_node8"><a xlink:href="classPedal.html#a4ff4c5cf21550badfbb93b239b6bdee5" target="_top" xlink:title="Updates the CAN frame with the current pedal values.">
<polygon fill="white" stroke="#666666" points="208,-159.5 74,-159.5 74,-129.5 208,-129.5 208,-159.5"/>
<text text-anchor="start" x="82" y="-147.5" font-family="Helvetica,sans-Serif" font-size="10.00">Pedal::pedal_can_frame</text>
<text text-anchor="middle" x="141" y="-136.5" font-family="Helvetica,sans-Serif" font-size="10.00">_stop_motor</text>
</a>
</g>
</g>
<!-- Node1&#45;&gt;Node8 -->
<g id="edge7" class="edge">
<title>Node1&#45;&gt;Node8</title>
<path fill="none" stroke="#63b8ff" d="M38.23,-162.31C45.48,-161.04 54.34,-159.49 63.79,-157.84"/>
<polygon fill="#63b8ff" stroke="#63b8ff" points="64.55,-161.26 73.8,-156.09 63.34,-154.36 64.55,-161.26"/>
</g>
<!-- Node9 -->
<g id="node9" class="node">
<title>Node9</title>
<g id="a_node9"><a xlink:href="classPedal.html#aef9f2037f590fd4b41f3c50a7c2b3568" target="_top" xlink:title="Updates pedal sensor readings, applies filtering, and checks for faults.">
<polygon fill="white" stroke="#666666" points="199,-234 83,-234 83,-215 199,-215 199,-234"/>
<text text-anchor="middle" x="141" y="-222" font-family="Helvetica,sans-Serif" font-size="10.00">Pedal::pedal_update</text>
</a>
</g>
</g>
<!-- Node1&#45;&gt;Node9 -->
<g id="edge8" class="edge">
<title>Node1&#45;&gt;Node9</title>
<path fill="none" stroke="#63b8ff" d="M30.35,-175.31C40.66,-184.59 57.32,-198.28 74,-206.5 77.84,-208.39 81.9,-210.1 86.05,-211.65"/>
<polygon fill="#63b8ff" stroke="#63b8ff" points="85.22,-215.07 95.82,-214.98 87.48,-208.45 85.22,-215.07"/>
</g>
<!-- Node18 -->
<g id="node18" class="node">
<title>Node18</title>
<g id="a_node18"><a xlink:href="main_8cpp.html#a1ea17ca2552291c88af3e9ec6804264b" target="_top" xlink:title=" ">
<polygon fill="white" stroke="#666666" points="186,-73 96,-73 96,-54 186,-54 186,-73"/>
<text text-anchor="middle" x="141" y="-61" font-family="Helvetica,sans-Serif" font-size="10.00">scheduler_bms</text>
</a>
</g>
</g>
<!-- Node1&#45;&gt;Node18 -->
<g id="edge18" class="edge">
<title>Node1&#45;&gt;Node18</title>
<path fill="none" stroke="#63b8ff" d="M24.22,-155.92C31.85,-139.61 49.48,-106.41 74,-87.5 79.38,-83.35 85.55,-79.87 91.91,-76.96"/>
<polygon fill="#63b8ff" stroke="#63b8ff" points="93.38,-80.14 101.29,-73.1 90.71,-73.67 93.38,-80.14"/>
</g>
<!-- Node3 -->
<g id="node3" class="node">
<title>Node3</title>
<g id="a_node3"><a xlink:href="namespaceDebug__CAN.html#a33ac5d84927aea929dc26f0820dd58c8" target="_top" xlink:title="Sends a debug car status message over CAN. This function prepares a CAN frame with the current car st...">
<polygon fill="white" stroke="#666666" points="378,-291 247,-291 247,-272 378,-272 378,-291"/>
<text text-anchor="middle" x="312.5" y="-279" font-family="Helvetica,sans-Serif" font-size="10.00">Debug_CAN::status_car</text>
</a>
</g>
</g>
<!-- Node2&#45;&gt;Node3 -->
<g id="edge2" class="edge">
<title>Node2&#45;&gt;Node3</title>
<path fill="none" stroke="#63b8ff" d="M194.24,-281.5C207.62,-281.5 222.28,-281.5 236.57,-281.5"/>
<polygon fill="#63b8ff" stroke="#63b8ff" points="236.88,-285 246.88,-281.5 236.88,-278 236.88,-285"/>
</g>
<!-- Node4 -->
<g id="node4" class="node">
<title>Node4</title>
<g id="a_node4"><a xlink:href="namespaceDebug__Serial.html#a0f4070c8db2109f53b11b93580bb9472" target="_top" xlink:title="Prints the current car status to the serial console. This function formats and sends the current car ...">
<polygon fill="white" stroke="#666666" points="381,-328 244,-328 244,-309 381,-309 381,-328"/>
<text text-anchor="middle" x="312.5" y="-316" font-family="Helvetica,sans-Serif" font-size="10.00">Debug_Serial::status_car</text>
</a>
</g>
</g>
<!-- Node2&#45;&gt;Node4 -->
<g id="edge3" class="edge">
<title>Node2&#45;&gt;Node4</title>
<path fill="none" stroke="#63b8ff" d="M185.65,-291.03C207.61,-295.82 234.43,-301.68 257.65,-306.75"/>
<polygon fill="#63b8ff" stroke="#63b8ff" points="257.19,-310.23 267.7,-308.94 258.68,-303.39 257.19,-310.23"/>
</g>
<!-- Node6 -->
<g id="node6" class="node">
<title>Node6</title>
<g id="a_node6"><a xlink:href="namespaceDebug__Serial.html#a756fa9286151426012a6f8e178a6c550" target="_top" xlink:title="Prints a line to the serial console. This function sends a string message followed by a newline to th...">
<polygon fill="white" stroke="#666666" points="713,-111 594,-111 594,-92 713,-92 713,-111"/>
<text text-anchor="middle" x="653.5" y="-99" font-family="Helvetica,sans-Serif" font-size="10.00">Debug_Serial::println</text>
</a>
</g>
</g>
<!-- Node5&#45;&gt;Node6 -->
<g id="edge5" class="edge">
<title>Node5&#45;&gt;Node6</title>
<path fill="none" stroke="#63b8ff" d="M535.36,-101.5C550.55,-101.5 567.35,-101.5 583.36,-101.5"/>
<polygon fill="#63b8ff" stroke="#63b8ff" points="583.75,-105 593.75,-101.5 583.75,-98 583.75,-105"/>
</g>
<!-- Node10 -->
<g id="node10" class="node">
<title>Node10</title>
<g id="a_node10"><a xlink:href="classPedal.html#abdd53f9de825d4925aa7707ddaaa1fa9" target="_top" xlink:title="Checks for a fault between two pedal sensor readings.">
<polygon fill="white" stroke="#666666" points="367.5,-177.5 257.5,-177.5 257.5,-147.5 367.5,-147.5 367.5,-177.5"/>
<text text-anchor="start" x="265.5" y="-165.5" font-family="Helvetica,sans-Serif" font-size="10.00">Pedal::check_pedal</text>
<text text-anchor="middle" x="312.5" y="-154.5" font-family="Helvetica,sans-Serif" font-size="10.00">_fault</text>
</a>
</g>
</g>
<!-- Node9&#45;&gt;Node10 -->
<g id="edge9" class="edge">
<title>Node9&#45;&gt;Node10</title>
<path fill="none" stroke="#63b8ff" d="M182.6,-214.94C191.1,-212.51 199.94,-209.68 208,-206.5 224.83,-199.86 227.48,-194.88 244,-187.5 248.73,-185.39 253.69,-183.3 258.7,-181.3"/>
<polygon fill="#63b8ff" stroke="#63b8ff" points="260.27,-184.44 268.31,-177.54 257.72,-177.92 260.27,-184.44"/>
</g>
<!-- Node11 -->
<g id="node11" class="node">
<title>Node11</title>
<g id="a_node11"><a xlink:href="Debug_8h.html#a27a4d84e5afbe5f46066606c2cfcd97d" target="_top" xlink:title="Sends throttle fault debug info via CAN or serial (if enabled). Overloads for fault status with or wi...">
<polygon fill="white" stroke="#666666" points="546,-246 417,-246 417,-227 546,-227 546,-246"/>
<text text-anchor="middle" x="481.5" y="-234" font-family="Helvetica,sans-Serif" font-size="10.00">DBG_THROTTLE_FAULT</text>
</a>
</g>
</g>
<!-- Node9&#45;&gt;Node11 -->
<g id="edge16" class="edge">
<title>Node9&#45;&gt;Node11</title>
<path fill="none" stroke="#63b8ff" d="M199.04,-226.52C256.15,-228.55 344.3,-231.67 406.71,-233.88"/>
<polygon fill="#63b8ff" stroke="#63b8ff" points="406.76,-237.39 416.88,-234.24 407.01,-230.39 406.76,-237.39"/>
</g>
<!-- Node17 -->
<g id="node17" class="node">
<title>Node17</title>
<g id="a_node17"><a xlink:href="classRingBuffer.html#ad30671837bc9ec407735ecedaeabf36c" target="_top" xlink:title="Pushes a new value into the ring buffer. This will overwrite the oldest value if the buffer is full.">
<polygon fill="white" stroke="#666666" points="361,-215 264,-215 264,-196 361,-196 361,-215"/>
<text text-anchor="middle" x="312.5" y="-203" font-family="Helvetica,sans-Serif" font-size="10.00">RingBuffer::push</text>
</a>
</g>
</g>
<!-- Node9&#45;&gt;Node17 -->
<g id="edge17" class="edge">
<title>Node9&#45;&gt;Node17</title>
<path fill="none" stroke="#63b8ff" d="M199.38,-218.07C216.89,-216.11 236.13,-213.95 253.67,-211.98"/>
<polygon fill="#63b8ff" stroke="#63b8ff" points="254.22,-215.44 263.76,-210.85 253.44,-208.49 254.22,-215.44"/>
</g>
<!-- Node10&#45;&gt;Node11 -->
<g id="edge10" class="edge">
<title>Node10&#45;&gt;Node11</title>
<path fill="none" stroke="#63b8ff" d="M356.25,-177.58C364.52,-180.71 373.08,-184.09 381,-187.5 405.93,-198.22 433.57,-211.99 453.38,-222.2"/>
<polygon fill="#63b8ff" stroke="#63b8ff" points="451.94,-225.4 462.42,-226.9 455.16,-219.18 451.94,-225.4"/>
</g>
<!-- Node14 -->
<g id="node14" class="node">
<title>Node14</title>
<g id="a_node14"><a xlink:href="Debug_8h.html#afa1e089b7149386f290d4ebb4d373bf6" target="_top" xlink:title="Sends throttle pedal input debug info via CAN or serial (if enabled).">
<polygon fill="white" stroke="#666666" points="536.5,-172 426.5,-172 426.5,-153 536.5,-153 536.5,-172"/>
<text text-anchor="middle" x="481.5" y="-160" font-family="Helvetica,sans-Serif" font-size="10.00">DBG_THROTTLE_IN</text>
</a>
</g>
</g>
<!-- Node10&#45;&gt;Node14 -->
<g id="edge13" class="edge">
<title>Node10&#45;&gt;Node14</title>
<path fill="none" stroke="#63b8ff" d="M367.72,-162.5C383.11,-162.5 400.02,-162.5 415.96,-162.5"/>
<polygon fill="#63b8ff" stroke="#63b8ff" points="416.27,-166 426.27,-162.5 416.27,-159 416.27,-166"/>
</g>
<!-- Node12 -->
<g id="node12" class="node">
<title>Node12</title>
<g id="a_node12"><a xlink:href="namespaceDebug__CAN.html#a8e6443068f8aa21ba673ad7bc132e739" target="_top" xlink:title="Sends a debug throttle fault message over CAN. This function prepares a CAN frame with the throttle f...">
<polygon fill="white" stroke="#666666" points="711.5,-245.5 595.5,-245.5 595.5,-215.5 711.5,-215.5 711.5,-245.5"/>
<text text-anchor="start" x="603.5" y="-233.5" font-family="Helvetica,sans-Serif" font-size="10.00">Debug_CAN::throttle</text>
<text text-anchor="middle" x="653.5" y="-222.5" font-family="Helvetica,sans-Serif" font-size="10.00">_fault</text>
</a>
</g>
</g>
<!-- Node11&#45;&gt;Node12 -->
<g id="edge11" class="edge">
<title>Node11&#45;&gt;Node12</title>
<path fill="none" stroke="#63b8ff" d="M546.29,-234.25C559,-233.8 572.39,-233.33 585.21,-232.87"/>
<polygon fill="#63b8ff" stroke="#63b8ff" points="585.48,-236.37 595.35,-232.52 585.24,-229.37 585.48,-236.37"/>
</g>
<!-- Node13 -->
<g id="node13" class="node">
<title>Node13</title>
<g id="a_node13"><a xlink:href="namespaceDebug__Serial.html#aa73ff8f930647f4c70741b4e50ef6a5d" target="_top" xlink:title="Prints a throttle fault message to the serial console. This function formats and sends the throttle f...">
<polygon fill="white" stroke="#666666" points="715,-293.5 592,-293.5 592,-263.5 715,-263.5 715,-293.5"/>
<text text-anchor="start" x="600" y="-281.5" font-family="Helvetica,sans-Serif" font-size="10.00">Debug_Serial::throttle</text>
<text text-anchor="middle" x="653.5" y="-270.5" font-family="Helvetica,sans-Serif" font-size="10.00">_fault</text>
</a>
</g>
</g>
<!-- Node11&#45;&gt;Node13 -->
<g id="edge12" class="edge">
<title>Node11&#45;&gt;Node13</title>
<path fill="none" stroke="#63b8ff" d="M521.08,-246.03C539.09,-250.48 561.11,-255.92 581.95,-261.07"/>
<polygon fill="#63b8ff" stroke="#63b8ff" points="581.19,-264.49 591.74,-263.49 582.87,-257.69 581.19,-264.49"/>
</g>
<!-- Node15 -->
<g id="node15" class="node">
<title>Node15</title>
<g id="a_node15"><a xlink:href="namespaceDebug__CAN.html#a5c26a2303b6fa92439c0a693728d760e" target="_top" xlink:title="Sends a debug throttle input message over CAN. This function prepares a CAN frame with the throttle i...">
<polygon fill="white" stroke="#666666" points="719,-160 588,-160 588,-141 719,-141 719,-160"/>
<text text-anchor="middle" x="653.5" y="-148" font-family="Helvetica,sans-Serif" font-size="10.00">Debug_CAN::throttle_in</text>
</a>
</g>
</g>
<!-- Node14&#45;&gt;Node15 -->
<g id="edge14" class="edge">
<title>Node14&#45;&gt;Node15</title>
<path fill="none" stroke="#63b8ff" d="M536.76,-158.67C549.69,-157.76 563.72,-156.77 577.4,-155.8"/>
<polygon fill="#63b8ff" stroke="#63b8ff" points="578.04,-159.26 587.77,-155.07 577.55,-152.28 578.04,-159.26"/>
</g>
<!-- Node16 -->
<g id="node16" class="node">
<title>Node16</title>
<g id="a_node16"><a xlink:href="namespaceDebug__Serial.html#a9e68fe4f00e7b1bf1a9c2addc2222a9b" target="_top" xlink:title="Prints a throttle input message to the serial console. This function formats and sends the throttle i...">
<polygon fill="white" stroke="#666666" points="722,-197 585,-197 585,-178 722,-178 722,-197"/>
<text text-anchor="middle" x="653.5" y="-185" font-family="Helvetica,sans-Serif" font-size="10.00">Debug_Serial::throttle_in</text>
</a>
</g>
</g>
<!-- Node14&#45;&gt;Node16 -->
<g id="edge15" class="edge">
<title>Node14&#45;&gt;Node16</title>
<path fill="none" stroke="#63b8ff" d="M536.76,-170.48C549.81,-172.4 563.99,-174.48 577.8,-176.51"/>
<polygon fill="#63b8ff" stroke="#63b8ff" points="577.37,-179.99 587.77,-177.98 578.38,-173.06 577.37,-179.99"/>
</g>
<!-- Node19 -->
<g id="node19" class="node">
<title>Node19</title>
<g id="a_node19"><a xlink:href="classBMS.html#a2b5ec1ea35cac26d5defeb652f721975" target="_top" xlink:title="Attempt to start HV. First check BMS is in standby(3) state, then send the HV start command....">
<polygon fill="white" stroke="#666666" points="357.5,-73 267.5,-73 267.5,-54 357.5,-54 357.5,-73"/>
<text text-anchor="middle" x="312.5" y="-61" font-family="Helvetica,sans-Serif" font-size="10.00">BMS::check_hv</text>
</a>
</g>
</g>
<!-- Node18&#45;&gt;Node19 -->
<g id="edge19" class="edge">
<title>Node18&#45;&gt;Node19</title>
<path fill="none" stroke="#63b8ff" d="M186.09,-63.5C207.78,-63.5 234.13,-63.5 257.07,-63.5"/>
<polygon fill="#63b8ff" stroke="#63b8ff" points="257.34,-67 267.33,-63.5 257.33,-60 257.34,-67"/>
</g>
<!-- Node20 -->
<g id="node20" class="node">
<title>Node20</title>
<g id="a_node20"><a xlink:href="Debug_8h.html#a5811a65cdb8fc3c5255f57301cbb8481" target="_top" xlink:title="Sends BMS debug info via CAN or serial (if enabled).">
<polygon fill="white" stroke="#666666" points="535,-37 428,-37 428,-18 535,-18 535,-37"/>
<text text-anchor="middle" x="481.5" y="-25" font-family="Helvetica,sans-Serif" font-size="10.00">DBG_BMS_STATUS</text>
</a>
</g>
</g>
<!-- Node19&#45;&gt;Node20 -->
<g id="edge20" class="edge">
<title>Node19&#45;&gt;Node20</title>
<path fill="none" stroke="#63b8ff" d="M357.81,-53.95C378.85,-49.41 404.17,-43.95 426.33,-39.18"/>
<polygon fill="#63b8ff" stroke="#63b8ff" points="427.23,-42.56 436.27,-37.03 425.76,-35.72 427.23,-42.56"/>
</g>
<!-- Node23 -->
<g id="node23" class="node">
<title>Node23</title>
<g id="a_node23"><a xlink:href="Debug_8h.html#a8e8d6e3de15309922f25c12f4d7cf727" target="_top" xlink:title="Prints a line to the serial console for general debug.">
<polygon fill="white" stroke="#666666" points="532.5,-74 430.5,-74 430.5,-55 532.5,-55 532.5,-74"/>
<text text-anchor="middle" x="481.5" y="-62" font-family="Helvetica,sans-Serif" font-size="10.00">DBGLN_GENERAL</text>
</a>
</g>
</g>
<!-- Node19&#45;&gt;Node23 -->
<g id="edge23" class="edge">
<title>Node19&#45;&gt;Node23</title>
<path fill="none" stroke="#63b8ff" d="M357.81,-63.77C376.91,-63.88 399.54,-64.02 420.13,-64.14"/>
<polygon fill="#63b8ff" stroke="#63b8ff" points="420.35,-67.64 430.37,-64.2 420.39,-60.64 420.35,-67.64"/>
</g>
<!-- Node21 -->
<g id="node21" class="node">
<title>Node21</title>
<g id="a_node21"><a xlink:href="namespaceDebug__CAN.html#ab78e4ce29a20ab1dae2db225def6b747" target="_top" xlink:title="Sends a debug BMS status message over CAN. This function prepares a CAN frame with the current BMS st...">
<polygon fill="white" stroke="#666666" points="722,-19 585,-19 585,0 722,0 722,-19"/>
<text text-anchor="middle" x="653.5" y="-7" font-family="Helvetica,sans-Serif" font-size="10.00">Debug_CAN::status_bms</text>
</a>
</g>
</g>
<!-- Node20&#45;&gt;Node21 -->
<g id="edge21" class="edge">
<title>Node20&#45;&gt;Node21</title>
<path fill="none" stroke="#63b8ff" d="M535.36,-21.9C547.86,-20.58 561.46,-19.14 574.81,-17.73"/>
<polygon fill="#63b8ff" stroke="#63b8ff" points="575.37,-21.19 584.95,-16.65 574.63,-14.23 575.37,-21.19"/>
</g>
<!-- Node22 -->
<g id="node22" class="node">
<title>Node22</title>
<g id="a_node22"><a xlink:href="namespaceDebug__Serial.html#a6c4d64b8a917b7e18071210c43c1a98f" target="_top" xlink:title="Prints the current BMS status to the serial console. This function formats and sends the current BMS ...">
<polygon fill="white" stroke="#666666" points="725,-56 582,-56 582,-37 725,-37 725,-56"/>
<text text-anchor="middle" x="653.5" y="-44" font-family="Helvetica,sans-Serif" font-size="10.00">Debug_Serial::status_bms</text>
</a>
</g>
</g>
<!-- Node20&#45;&gt;Node22 -->
<g id="edge22" class="edge">
<title>Node20&#45;&gt;Node22</title>
<path fill="none" stroke="#63b8ff" d="M535.36,-33.41C546.86,-34.69 559.27,-36.08 571.58,-37.46"/>
<polygon fill="#63b8ff" stroke="#63b8ff" points="571.54,-40.97 581.86,-38.61 572.31,-34.02 571.54,-40.97"/>
</g>
<!-- Node23&#45;&gt;Node6 -->
<g id="edge24" class="edge">
<title>Node23&#45;&gt;Node6</title>
<path fill="none" stroke="#63b8ff" d="M526.28,-74.03C548.3,-78.82 575.2,-84.68 598.5,-89.75"/>
<polygon fill="#63b8ff" stroke="#63b8ff" points="598.06,-93.23 608.57,-91.94 599.55,-86.39 598.06,-93.23"/>
</g>
</g>
</svg>
