<?xml version="1.0" encoding="UTF-8" standalone="no"?>
<!DOCTYPE svg PUBLIC "-//W3C//DTD SVG 1.1//EN"
 "http://www.w3.org/Graphics/SVG/1.1/DTD/svg11.dtd">
<!-- Generated by graphviz version 2.43.0 (0)
 -->
<!-- Title: scheduler_pedal Pages: 1 -->
<svg width="948pt" height="267pt"
 viewBox="0.00 0.00 948.00 266.50" xmlns="http://www.w3.org/2000/svg" xmlns:xlink="http://www.w3.org/1999/xlink">
<g id="graph0" class="graph" transform="scale(1 1) rotate(0) translate(4 262.5)">
<title>scheduler_pedal</title>
<!-- Node1 -->
<g id="node1" class="node">
<title>Node1</title>
<g id="a_node1"><a xlink:title=" ">
<polygon fill="#999999" stroke="#666666" points="96,-162.5 0,-162.5 0,-143.5 96,-143.5 96,-162.5"/>
<text text-anchor="middle" x="48" y="-150.5" font-family="Helvetica,sans-Serif" font-size="10.00">scheduler_pedal</text>
</a>
</g>
</g>
<!-- Node2 -->
<g id="node2" class="node">
<title>Node2</title>
<g id="a_node2"><a xlink:href="classPedal.html#a2457466d32f6d9f58f8b8ab6c34cd495" target="_top" xlink:title="Updates the CAN frame with the most recent pedal value.">
<polygon fill="white" stroke="#666666" points="266,-168 132,-168 132,-138 266,-138 266,-168"/>
<text text-anchor="start" x="140" y="-156" font-family="Helvetica,sans-Serif" font-size="10.00">Pedal::pedal_can_frame</text>
<text text-anchor="middle" x="199" y="-145" font-family="Helvetica,sans-Serif" font-size="10.00">_update</text>
</a>
</g>
</g>
<!-- Node1&#45;&gt;Node2 -->
<g id="edge1" class="edge">
<title>Node1&#45;&gt;Node2</title>
<path fill="none" stroke="#63b8ff" d="M96.14,-153C104.29,-153 112.95,-153 121.64,-153"/>
<polygon fill="#63b8ff" stroke="#63b8ff" points="121.83,-156.5 131.83,-153 121.83,-149.5 121.83,-156.5"/>
</g>
<!-- Node3 -->
<g id="node3" class="node">
<title>Node3</title>
<g id="a_node3"><a xlink:href="Debug_8hpp.html#a25f28d9aa7440ebc55a76a2b2ce878ea" target="_top" xlink:title="Sends throttle output debug info via CAN or serial (if enabled).">
<polygon fill="white" stroke="#666666" points="429.5,-221.5 308.5,-221.5 308.5,-202.5 429.5,-202.5 429.5,-221.5"/>
<text text-anchor="middle" x="369" y="-209.5" font-family="Helvetica,sans-Serif" font-size="10.00">DBG_THROTTLE_OUT</text>
</a>
</g>
</g>
<!-- Node2&#45;&gt;Node3 -->
<g id="edge2" class="edge">
<title>Node2&#45;&gt;Node3</title>
<path fill="none" stroke="#63b8ff" d="M234.56,-168.05C254.14,-176.29 279.21,-186.34 302,-194 307.91,-195.99 314.17,-197.92 320.39,-199.73"/>
<polygon fill="#63b8ff" stroke="#63b8ff" points="319.5,-203.11 330.08,-202.47 321.41,-196.38 319.5,-203.11"/>
</g>
<!-- Node6 -->
<g id="node6" class="node">
<title>Node6</title>
<g id="a_node6"><a xlink:href="Debug_8hpp.html#a9a564faad1bd32a5894d3706e38f1067" target="_top" xlink:title="Prints a line to the serial console for throttle debug.">
<polygon fill="white" stroke="#666666" points="422.5,-184.5 315.5,-184.5 315.5,-165.5 422.5,-165.5 422.5,-184.5"/>
<text text-anchor="middle" x="369" y="-172.5" font-family="Helvetica,sans-Serif" font-size="10.00">DBGLN_THROTTLE</text>
</a>
</g>
</g>
<!-- Node2&#45;&gt;Node6 -->
<g id="edge5" class="edge">
<title>Node2&#45;&gt;Node6</title>
<path fill="none" stroke="#63b8ff" d="M266.4,-161.69C279.21,-163.37 292.59,-165.12 305.28,-166.79"/>
<polygon fill="#63b8ff" stroke="#63b8ff" points="304.91,-170.27 315.28,-168.1 305.82,-163.33 304.91,-170.27"/>
</g>
<!-- Node8 -->
<g id="node8" class="node">
<title>Node8</title>
<g id="a_node8"><a xlink:href="classPedal.html#a4ff4c5cf21550badfbb93b239b6bdee5" target="_top" xlink:title="Updates the CAN frame with the current pedal values.">
<polygon fill="white" stroke="#666666" points="436,-147 302,-147 302,-117 436,-117 436,-147"/>
<text text-anchor="start" x="310" y="-135" font-family="Helvetica,sans-Serif" font-size="10.00">Pedal::pedal_can_frame</text>
<text text-anchor="middle" x="369" y="-124" font-family="Helvetica,sans-Serif" font-size="10.00">_stop_motor</text>
</a>
</g>
</g>
<!-- Node2&#45;&gt;Node8 -->
<g id="edge7" class="edge">
<title>Node2&#45;&gt;Node8</title>
<path fill="none" stroke="#63b8ff" d="M266.4,-144.7C274.68,-143.67 283.2,-142.6 291.62,-141.55"/>
<polygon fill="#63b8ff" stroke="#63b8ff" points="292.32,-144.99 301.81,-140.27 291.45,-138.04 292.32,-144.99"/>
</g>
<!-- Node9 -->
<g id="node9" class="node">
<title>Node9</title>
<g id="a_node9"><a xlink:href="classPedal.html#a04ce7e5e20d8405f10f281d6c784e1ef" target="_top" xlink:title="Maps the pedal ADC to a torque value, handling deadzones and faults.">
<polygon fill="white" stroke="#666666" points="430,-99 308,-99 308,-69 430,-69 430,-99"/>
<text text-anchor="start" x="316" y="-87" font-family="Helvetica,sans-Serif" font-size="10.00">Pedal::throttle_torque</text>
<text text-anchor="middle" x="369" y="-76" font-family="Helvetica,sans-Serif" font-size="10.00">_mapping</text>
</a>
</g>
</g>
<!-- Node2&#45;&gt;Node9 -->
<g id="edge8" class="edge">
<title>Node2&#45;&gt;Node9</title>
<path fill="none" stroke="#63b8ff" d="M232.84,-137.85C252.71,-128.84 278.65,-117.38 302,-108 306.43,-106.22 311.06,-104.42 315.71,-102.65"/>
<polygon fill="#63b8ff" stroke="#63b8ff" points="317.1,-105.87 325.24,-99.08 314.64,-99.31 317.1,-105.87"/>
</g>
<!-- Node4 -->
<g id="node4" class="node">
<title>Node4</title>
<g id="a_node4"><a xlink:href="namespaceDebug__CAN.html#ace21ce4da40cf6ae391410d839c59cb3" target="_top" xlink:title="Sends a debug throttle output message over CAN.">
<polygon fill="white" stroke="#666666" points="612.5,-258.5 475.5,-258.5 475.5,-239.5 612.5,-239.5 612.5,-258.5"/>
<text text-anchor="middle" x="544" y="-246.5" font-family="Helvetica,sans-Serif" font-size="10.00">Debug_CAN::throttle_out</text>
</a>
</g>
</g>
<!-- Node3&#45;&gt;Node4 -->
<g id="edge3" class="edge">
<title>Node3&#45;&gt;Node4</title>
<path fill="none" stroke="#63b8ff" d="M414.55,-221.53C437.07,-226.34 464.58,-232.23 488.36,-237.31"/>
<polygon fill="#63b8ff" stroke="#63b8ff" points="487.79,-240.77 498.3,-239.44 489.25,-233.93 487.79,-240.77"/>
</g>
<!-- Node5 -->
<g id="node5" class="node">
<title>Node5</title>
<g id="a_node5"><a xlink:href="namespaceDebug__Serial.html#a75dcfc17e13215b801dd9dafa6f7c515" target="_top" xlink:title="Prints a throttle output message to the serial console. This function formats and sends the throttle ...">
<polygon fill="white" stroke="#666666" points="616,-221.5 472,-221.5 472,-202.5 616,-202.5 616,-221.5"/>
<text text-anchor="middle" x="544" y="-209.5" font-family="Helvetica,sans-Serif" font-size="10.00">Debug_Serial::throttle_out</text>
</a>
</g>
</g>
<!-- Node3&#45;&gt;Node5 -->
<g id="edge4" class="edge">
<title>Node3&#45;&gt;Node5</title>
<path fill="none" stroke="#63b8ff" d="M429.54,-212C439.83,-212 450.69,-212 461.45,-212"/>
<polygon fill="#63b8ff" stroke="#63b8ff" points="461.72,-215.5 471.72,-212 461.72,-208.5 461.72,-215.5"/>
</g>
<!-- Node7 -->
<g id="node7" class="node">
<title>Node7</title>
<g id="a_node7"><a xlink:href="namespaceDebug__Serial.html#a756fa9286151426012a6f8e178a6c550" target="_top" xlink:title="Prints a string AND a newline to the serial console.">
<polygon fill="white" stroke="#666666" points="603.5,-184.5 484.5,-184.5 484.5,-165.5 603.5,-165.5 603.5,-184.5"/>
<text text-anchor="middle" x="544" y="-172.5" font-family="Helvetica,sans-Serif" font-size="10.00">Debug_Serial::println</text>
</a>
</g>
</g>
<!-- Node6&#45;&gt;Node7 -->
<g id="edge6" class="edge">
<title>Node6&#45;&gt;Node7</title>
<path fill="none" stroke="#63b8ff" d="M422.85,-175C438.97,-175 456.95,-175 473.99,-175"/>
<polygon fill="#63b8ff" stroke="#63b8ff" points="474.45,-178.5 484.45,-175 474.45,-171.5 474.45,-178.5"/>
</g>
<!-- Node10 -->
<g id="node10" class="node">
<title>Node10</title>
<g id="a_node10"><a xlink:href="classPedal.html#a00f33fcd9507c62193f2ffc3570b7fba" target="_top" xlink:title="Maps the brake ADC to a torque value.">
<polygon fill="white" stroke="#666666" points="600.5,-121 487.5,-121 487.5,-91 600.5,-91 600.5,-121"/>
<text text-anchor="start" x="495.5" y="-109" font-family="Helvetica,sans-Serif" font-size="10.00">Pedal::brake_torque</text>
<text text-anchor="middle" x="544" y="-98" font-family="Helvetica,sans-Serif" font-size="10.00">_mapping</text>
</a>
</g>
</g>
<!-- Node9&#45;&gt;Node10 -->
<g id="edge9" class="edge">
<title>Node9&#45;&gt;Node10</title>
<path fill="none" stroke="#63b8ff" d="M430.02,-91.63C445.31,-93.58 461.82,-95.68 477.38,-97.66"/>
<polygon fill="#63b8ff" stroke="#63b8ff" points="477.08,-101.14 487.44,-98.93 477.96,-94.2 477.08,-101.14"/>
</g>
<!-- Node13 -->
<g id="node13" class="node">
<title>Node13</title>
<g id="a_node13"><a xlink:href="Debug_8hpp.html#a27a4d84e5afbe5f46066606c2cfcd97d" target="_top" xlink:title="Sends throttle fault debug info via CAN or serial (if enabled). Overloads for fault status with or wi...">
<polygon fill="white" stroke="#666666" points="781,-72.5 652,-72.5 652,-53.5 781,-53.5 781,-72.5"/>
<text text-anchor="middle" x="716.5" y="-60.5" font-family="Helvetica,sans-Serif" font-size="10.00">DBG_THROTTLE_FAULT</text>
</a>
</g>
</g>
<!-- Node9&#45;&gt;Node13 -->
<g id="edge15" class="edge">
<title>Node9&#45;&gt;Node13</title>
<path fill="none" stroke="#63b8ff" d="M430.18,-80.34C488.97,-76.77 578.56,-71.32 641.64,-67.49"/>
<polygon fill="#63b8ff" stroke="#63b8ff" points="642.15,-70.97 651.92,-66.86 641.72,-63.98 642.15,-70.97"/>
</g>
<!-- Node11 -->
<g id="node11" class="node">
<title>Node11</title>
<g id="a_node11"><a xlink:href="Debug_8hpp.html#ae4f010051fc0b65e53e4305c62bae986" target="_top" xlink:title="Sends brake fault debug info via CAN or serial (if enabled). Overloads for fault status with or witho...">
<polygon fill="white" stroke="#666666" points="772,-117.5 661,-117.5 661,-98.5 772,-98.5 772,-117.5"/>
<text text-anchor="middle" x="716.5" y="-105.5" font-family="Helvetica,sans-Serif" font-size="10.00">DBG_BRAKE_FAULT</text>
</a>
</g>
</g>
<!-- Node10&#45;&gt;Node11 -->
<g id="edge10" class="edge">
<title>Node10&#45;&gt;Node11</title>
<path fill="none" stroke="#63b8ff" d="M600.83,-106.65C616.83,-106.84 634.41,-107.05 650.9,-107.24"/>
<polygon fill="#63b8ff" stroke="#63b8ff" points="650.96,-110.74 661,-107.36 651.04,-103.74 650.96,-110.74"/>
</g>
<!-- Node10&#45;&gt;Node13 -->
<g id="edge12" class="edge">
<title>Node10&#45;&gt;Node13</title>
<path fill="none" stroke="#63b8ff" d="M600.83,-91.92C622.44,-86.47 646.94,-80.29 667.72,-75.05"/>
<polygon fill="#63b8ff" stroke="#63b8ff" points="668.76,-78.4 677.6,-72.56 667.05,-71.61 668.76,-78.4"/>
</g>
<!-- Node12 -->
<g id="node12" class="node">
<title>Node12</title>
<g id="a_node12"><a xlink:href="namespaceDebug__Serial.html#a9d828bdca10efbda9f4e147a372cbc71" target="_top" xlink:title="Prints a brake fault message to the serial console. This function formats and sends the brake fault s...">
<polygon fill="white" stroke="#666666" points="935.5,-126 821.5,-126 821.5,-96 935.5,-96 935.5,-126"/>
<text text-anchor="start" x="829.5" y="-114" font-family="Helvetica,sans-Serif" font-size="10.00">Debug_Serial::brake</text>
<text text-anchor="middle" x="878.5" y="-103" font-family="Helvetica,sans-Serif" font-size="10.00">_fault</text>
</a>
</g>
</g>
<!-- Node11&#45;&gt;Node12 -->
<g id="edge11" class="edge">
<title>Node11&#45;&gt;Node12</title>
<path fill="none" stroke="#63b8ff" d="M772.12,-109.02C784.69,-109.26 798.19,-109.51 811.2,-109.76"/>
<polygon fill="#63b8ff" stroke="#63b8ff" points="811.43,-113.26 821.5,-109.95 811.57,-106.26 811.43,-113.26"/>
</g>
<!-- Node14 -->
<g id="node14" class="node">
<title>Node14</title>
<g id="a_node14"><a xlink:href="namespaceDebug__CAN.html#a8e6443068f8aa21ba673ad7bc132e739" target="_top" xlink:title="Sends a debug throttle fault message over CAN with a float value.">
<polygon fill="white" stroke="#666666" points="936.5,-78 820.5,-78 820.5,-48 936.5,-48 936.5,-78"/>
<text text-anchor="start" x="828.5" y="-66" font-family="Helvetica,sans-Serif" font-size="10.00">Debug_CAN::throttle</text>
<text text-anchor="middle" x="878.5" y="-55" font-family="Helvetica,sans-Serif" font-size="10.00">_fault</text>
</a>
</g>
</g>
<!-- Node13&#45;&gt;Node14 -->
<g id="edge13" class="edge">
<title>Node13&#45;&gt;Node14</title>
<path fill="none" stroke="#63b8ff" d="M781.2,-63C790.73,-63 800.59,-63 810.2,-63"/>
<polygon fill="#63b8ff" stroke="#63b8ff" points="810.5,-66.5 820.5,-63 810.5,-59.5 810.5,-66.5"/>
</g>
<!-- Node15 -->
<g id="node15" class="node">
<title>Node15</title>
<g id="a_node15"><a xlink:href="namespaceDebug__Serial.html#aa73ff8f930647f4c70741b4e50ef6a5d" target="_top" xlink:title="Prints a throttle fault message to the serial console. This function formats and sends the throttle f...">
<polygon fill="white" stroke="#666666" points="940,-30 817,-30 817,0 940,0 940,-30"/>
<text text-anchor="start" x="825" y="-18" font-family="Helvetica,sans-Serif" font-size="10.00">Debug_Serial::throttle</text>
<text text-anchor="middle" x="878.5" y="-7" font-family="Helvetica,sans-Serif" font-size="10.00">_fault</text>
</a>
</g>
</g>
<!-- Node13&#45;&gt;Node15 -->
<g id="edge14" class="edge">
<title>Node13&#45;&gt;Node15</title>
<path fill="none" stroke="#63b8ff" d="M749.49,-53.4C768.96,-47.56 794.45,-39.91 817.56,-32.98"/>
<polygon fill="#63b8ff" stroke="#63b8ff" points="818.72,-36.29 827.29,-30.06 816.71,-29.58 818.72,-36.29"/>
</g>
</g>
</svg>
