<?xml version="1.0" encoding="UTF-8" standalone="no"?>
<!DOCTYPE svg PUBLIC "-//W3C//DTD SVG 1.1//EN"
 "http://www.w3.org/Graphics/SVG/1.1/DTD/svg11.dtd">
<!-- Generated by graphviz version 2.43.0 (0)
 -->
<!-- Title: src/main.cpp Pages: 1 -->
<svg width="774pt" height="302pt"
 viewBox="0.00 0.00 773.88 302.00" xmlns="http://www.w3.org/2000/svg" xmlns:xlink="http://www.w3.org/1999/xlink">
<g id="graph0" class="graph" transform="scale(1 1) rotate(0) translate(4 298)">
<title>src/main.cpp</title>
<!-- Node1 -->
<g id="node1" class="node">
<title>Node1</title>
<g id="a_node1"><a xlink:title="Main VCU program entry point.">
<polygon fill="#999999" stroke="#666666" points="440,-294 361,-294 361,-275 440,-275 440,-294"/>
<text text-anchor="middle" x="400.5" y="-282" font-family="Helvetica,sans-Serif" font-size="10.00">src/main.cpp</text>
</a>
</g>
</g>
<!-- Node2 -->
<g id="node2" class="node">
<title>Node2</title>
<g id="a_node2"><a xlink:title=" ">
<polygon fill="#e0e0e0" stroke="#999999" points="139,-239 76,-239 76,-220 139,-220 139,-239"/>
<text text-anchor="middle" x="107.5" y="-227" font-family="Helvetica,sans-Serif" font-size="10.00">Arduino.h</text>
</a>
</g>
</g>
<!-- Node1&#45;&gt;Node2 -->
<g id="edge1" class="edge">
<title>Node1&#45;&gt;Node2</title>
<path fill="none" stroke="#63b8ff" d="M360.72,-276.85C312.94,-268.78 230.12,-254.53 149.13,-239.07"/>
<polygon fill="#63b8ff" stroke="#63b8ff" points="149.75,-235.63 139.27,-237.18 148.43,-242.5 149.75,-235.63"/>
</g>
<!-- Node3 -->
<g id="node3" class="node">
<title>Node3</title>
<g id="a_node3"><a xlink:title=" ">
<polygon fill="#e0e0e0" stroke="#999999" points="233.5,-239 157.5,-239 157.5,-220 233.5,-220 233.5,-239"/>
<text text-anchor="middle" x="195.5" y="-227" font-family="Helvetica,sans-Serif" font-size="10.00">BoardConf.h</text>
</a>
</g>
</g>
<!-- Node1&#45;&gt;Node3 -->
<g id="edge2" class="edge">
<title>Node1&#45;&gt;Node3</title>
<path fill="none" stroke="#63b8ff" d="M367.56,-274.98C332.55,-265.93 277.03,-251.58 238.57,-241.64"/>
<polygon fill="#63b8ff" stroke="#63b8ff" points="239.25,-238.2 228.69,-239.08 237.5,-244.97 239.25,-238.2"/>
</g>
<!-- Node4 -->
<g id="node4" class="node">
<title>Node4</title>
<g id="a_node4"><a xlink:href="Pedal_8hpp.html" target="_top" xlink:title="Declaration of the Pedal class for handling throttle and brake pedal inputs.">
<polygon fill="white" stroke="#666666" points="271,-184 206,-184 206,-165 271,-165 271,-184"/>
<text text-anchor="middle" x="238.5" y="-172" font-family="Helvetica,sans-Serif" font-size="10.00">Pedal.hpp</text>
</a>
</g>
</g>
<!-- Node1&#45;&gt;Node4 -->
<g id="edge3" class="edge">
<title>Node1&#45;&gt;Node4</title>
<path fill="none" stroke="#63b8ff" d="M363.65,-274.97C339.66,-268.11 308.65,-256.65 285.5,-239 269.19,-226.57 255.9,-207 247.67,-192.87"/>
<polygon fill="#63b8ff" stroke="#63b8ff" points="250.72,-191.15 242.8,-184.11 244.6,-194.55 250.72,-191.15"/>
</g>
<!-- Node6 -->
<g id="node6" class="node">
<title>Node6</title>
<g id="a_node6"><a xlink:href="CarState_8hpp.html" target="_top" xlink:title="Definition of the CarState structure representing the state of the car.">
<polygon fill="white" stroke="#666666" points="501.5,-129 421.5,-129 421.5,-110 501.5,-110 501.5,-129"/>
<text text-anchor="middle" x="461.5" y="-117" font-family="Helvetica,sans-Serif" font-size="10.00">CarState.hpp</text>
</a>
</g>
</g>
<!-- Node1&#45;&gt;Node6 -->
<g id="edge32" class="edge">
<title>Node1&#45;&gt;Node6</title>
<path fill="none" stroke="#63b8ff" d="M404.85,-274.9C413.33,-257.88 432.32,-218.56 444.5,-184 449.72,-169.18 454.25,-151.94 457.31,-139.16"/>
<polygon fill="#63b8ff" stroke="#63b8ff" points="460.76,-139.79 459.61,-129.26 453.94,-138.21 460.76,-139.79"/>
</g>
<!-- Node7 -->
<g id="node7" class="node">
<title>Node7</title>
<g id="a_node7"><a xlink:href="Enums_8hpp.html" target="_top" xlink:title=" ">
<polygon fill="white" stroke="#666666" points="449,-74 378,-74 378,-55 449,-55 449,-74"/>
<text text-anchor="middle" x="413.5" y="-62" font-family="Helvetica,sans-Serif" font-size="10.00">Enums.hpp</text>
</a>
</g>
</g>
<!-- Node1&#45;&gt;Node7 -->
<g id="edge31" class="edge">
<title>Node1&#45;&gt;Node7</title>
<path fill="none" stroke="#63b8ff" d="M393.41,-274.76C378.57,-255.37 346.46,-207.13 357.5,-165 365.79,-133.36 386.66,-101.17 400.45,-82.29"/>
<polygon fill="#63b8ff" stroke="#63b8ff" points="403.35,-84.24 406.56,-74.14 397.76,-80.04 403.35,-84.24"/>
</g>
<!-- Node10 -->
<g id="node10" class="node">
<title>Node10</title>
<g id="a_node10"><a xlink:href="Curves_8hpp.html" target="_top" xlink:title="Definition of throttle and brake mapping tables.">
<polygon fill="white" stroke="#666666" points="327,-129 256,-129 256,-110 327,-110 327,-129"/>
<text text-anchor="middle" x="291.5" y="-117" font-family="Helvetica,sans-Serif" font-size="10.00">Curves.hpp</text>
</a>
</g>
</g>
<!-- Node1&#45;&gt;Node10 -->
<g id="edge34" class="edge">
<title>Node1&#45;&gt;Node10</title>
<path fill="none" stroke="#63b8ff" d="M375.51,-274.93C358.47,-267.84 336.67,-256.14 323.5,-239 300.64,-209.26 294.09,-164.38 292.22,-139.26"/>
<polygon fill="#63b8ff" stroke="#63b8ff" points="295.72,-139.01 291.66,-129.22 288.73,-139.41 295.72,-139.01"/>
</g>
<!-- Node13 -->
<g id="node13" class="node">
<title>Node13</title>
<g id="a_node13"><a xlink:title=" ">
<polygon fill="#e0e0e0" stroke="#999999" points="746,-74 675,-74 675,-55 746,-55 746,-74"/>
<text text-anchor="middle" x="710.5" y="-62" font-family="Helvetica,sans-Serif" font-size="10.00">mcp2515.h</text>
</a>
</g>
</g>
<!-- Node1&#45;&gt;Node13 -->
<g id="edge38" class="edge">
<title>Node1&#45;&gt;Node13</title>
<path fill="none" stroke="#63b8ff" d="M440.07,-280.12C489.32,-275.07 575.48,-263.38 645.5,-239 694.51,-221.94 718.29,-226.2 748.5,-184 767.78,-157.06 770.6,-140.43 757.5,-110 752.35,-98.03 742.21,-87.76 732.67,-80.12"/>
<polygon fill="#63b8ff" stroke="#63b8ff" points="734.69,-77.26 724.57,-74.11 730.51,-82.88 734.69,-77.26"/>
</g>
<!-- Node14 -->
<g id="node14" class="node">
<title>Node14</title>
<g id="a_node14"><a xlink:href="BMS_8hpp.html" target="_top" xlink:title="Declaration of the BMS class for managing the Accumulator (Kclear BMS) via CAN bus.">
<polygon fill="white" stroke="#666666" points="611,-239 552,-239 552,-220 611,-220 611,-239"/>
<text text-anchor="middle" x="581.5" y="-227" font-family="Helvetica,sans-Serif" font-size="10.00">BMS.hpp</text>
</a>
</g>
</g>
<!-- Node1&#45;&gt;Node14 -->
<g id="edge21" class="edge">
<title>Node1&#45;&gt;Node14</title>
<path fill="none" stroke="#63b8ff" d="M429.58,-274.98C460.1,-266.05 508.26,-251.94 542.16,-242.02"/>
<polygon fill="#63b8ff" stroke="#63b8ff" points="543.58,-245.25 552.19,-239.08 541.61,-238.53 543.58,-245.25"/>
</g>
<!-- Node15 -->
<g id="node15" class="node">
<title>Node15</title>
<g id="a_node15"><a xlink:href="Scheduler_8hpp.html" target="_top" xlink:title="Declaration of the Scheduler class template, for scheduling tasks on multiple MCP2515 instances.">
<polygon fill="white" stroke="#666666" points="718,-184 633,-184 633,-165 718,-165 718,-184"/>
<text text-anchor="middle" x="675.5" y="-172" font-family="Helvetica,sans-Serif" font-size="10.00">Scheduler.hpp</text>
</a>
</g>
</g>
<!-- Node1&#45;&gt;Node15 -->
<g id="edge33" class="edge">
<title>Node1&#45;&gt;Node15</title>
<path fill="none" stroke="#63b8ff" d="M440.16,-283.06C486.42,-280.9 563.79,-272.1 620.5,-239 639.72,-227.78 655.57,-207.38 665.23,-192.73"/>
<polygon fill="#63b8ff" stroke="#63b8ff" points="668.31,-194.41 670.67,-184.08 662.38,-190.68 668.31,-194.41"/>
</g>
<!-- Node17 -->
<g id="node17" class="node">
<title>Node17</title>
<g id="a_node17"><a xlink:href="Telemetry_8hpp.html" target="_top" xlink:title="Declaration of the Telemetry class for sending telemetry data over CAN bus.">
<polygon fill="white" stroke="#666666" points="615,-184 530,-184 530,-165 615,-165 615,-184"/>
<text text-anchor="middle" x="572.5" y="-172" font-family="Helvetica,sans-Serif" font-size="10.00">Telemetry.hpp</text>
</a>
</g>
</g>
<!-- Node1&#45;&gt;Node17 -->
<g id="edge35" class="edge">
<title>Node1&#45;&gt;Node17</title>
<path fill="none" stroke="#63b8ff" d="M416.01,-274.93C431.69,-266.17 456.53,-252.05 477.5,-239 503.53,-222.8 532.75,-203.02 551.82,-189.89"/>
<polygon fill="#63b8ff" stroke="#63b8ff" points="553.83,-192.75 560.07,-184.19 549.85,-186.99 553.83,-192.75"/>
</g>
<!-- Node18 -->
<g id="node18" class="node">
<title>Node18</title>
<g id="a_node18"><a xlink:href="Debug_8hpp.html" target="_top" xlink:title="Debugging macros and functions for serial and CAN output.">
<polygon fill="white" stroke="#666666" points="435,-184 366,-184 366,-165 435,-165 435,-184"/>
<text text-anchor="middle" x="400.5" y="-172" font-family="Helvetica,sans-Serif" font-size="10.00">Debug.hpp</text>
</a>
</g>
</g>
<!-- Node1&#45;&gt;Node18 -->
<g id="edge39" class="edge">
<title>Node1&#45;&gt;Node18</title>
<path fill="none" stroke="#63b8ff" d="M400.5,-274.66C400.5,-257.17 400.5,-217.8 400.5,-194.27"/>
<polygon fill="#63b8ff" stroke="#63b8ff" points="404,-194.16 400.5,-184.16 397,-194.16 404,-194.16"/>
</g>
<!-- Node5 -->
<g id="node5" class="node">
<title>Node5</title>
<g id="a_node5"><a xlink:title=" ">
<polygon fill="#e0e0e0" stroke="#999999" points="308,-19 255,-19 255,0 308,0 308,-19"/>
<text text-anchor="middle" x="281.5" y="-7" font-family="Helvetica,sans-Serif" font-size="10.00">stdint.h</text>
</a>
</g>
</g>
<!-- Node4&#45;&gt;Node5 -->
<g id="edge4" class="edge">
<title>Node4&#45;&gt;Node5</title>
<path fill="none" stroke="#63b8ff" d="M232.26,-164.9C218.32,-144.55 187.51,-92.38 208.5,-55 216.61,-40.56 231.51,-30.26 245.75,-23.22"/>
<polygon fill="#63b8ff" stroke="#63b8ff" points="247.27,-26.38 254.93,-19.06 244.38,-20 247.27,-26.38"/>
</g>
<!-- Node4&#45;&gt;Node6 -->
<g id="edge5" class="edge">
<title>Node4&#45;&gt;Node6</title>
<path fill="none" stroke="#63b8ff" d="M271.4,-165.68C309.54,-156.62 372.63,-141.62 415.58,-131.41"/>
<polygon fill="#63b8ff" stroke="#63b8ff" points="416.58,-134.77 425.5,-129.06 414.96,-127.96 416.58,-134.77"/>
</g>
<!-- Node9 -->
<g id="node9" class="node">
<title>Node9</title>
<g id="a_node9"><a xlink:href="Interp_8hpp.html" target="_top" xlink:title="Declaration and definition of the LinearInterp class template for linear interpolation.">
<polygon fill="white" stroke="#666666" points="283.5,-74 217.5,-74 217.5,-55 283.5,-55 283.5,-74"/>
<text text-anchor="middle" x="250.5" y="-62" font-family="Helvetica,sans-Serif" font-size="10.00">Interp.hpp</text>
</a>
</g>
</g>
<!-- Node4&#45;&gt;Node9 -->
<g id="edge11" class="edge">
<title>Node4&#45;&gt;Node9</title>
<path fill="none" stroke="#63b8ff" d="M239.48,-164.66C241.43,-147.17 245.8,-107.8 248.41,-84.27"/>
<polygon fill="#63b8ff" stroke="#63b8ff" points="251.91,-84.48 249.54,-74.16 244.95,-83.71 251.91,-84.48"/>
</g>
<!-- Node4&#45;&gt;Node10 -->
<g id="edge13" class="edge">
<title>Node4&#45;&gt;Node10</title>
<path fill="none" stroke="#63b8ff" d="M247.25,-164.75C254.97,-157.03 266.4,-145.6 275.72,-136.28"/>
<polygon fill="#63b8ff" stroke="#63b8ff" points="278.31,-138.64 282.91,-129.09 273.36,-133.69 278.31,-138.64"/>
</g>
<!-- Node11 -->
<g id="node11" class="node">
<title>Node11</title>
<g id="a_node11"><a xlink:href="Signal__Processing_8hpp.html" target="_top" xlink:title="Declaration of signal processing functions.">
<polygon fill="white" stroke="#666666" points="143,-129 18,-129 18,-110 143,-110 143,-129"/>
<text text-anchor="middle" x="80.5" y="-117" font-family="Helvetica,sans-Serif" font-size="10.00">Signal_Processing.hpp</text>
</a>
</g>
</g>
<!-- Node4&#45;&gt;Node11 -->
<g id="edge16" class="edge">
<title>Node4&#45;&gt;Node11</title>
<path fill="none" stroke="#63b8ff" d="M213.11,-164.98C186.7,-156.13 145.15,-142.19 115.61,-132.28"/>
<polygon fill="#63b8ff" stroke="#63b8ff" points="116.68,-128.94 106.08,-129.08 114.45,-135.58 116.68,-128.94"/>
</g>
<!-- Node4&#45;&gt;Node13 -->
<g id="edge20" class="edge">
<title>Node4&#45;&gt;Node13</title>
<path fill="none" stroke="#63b8ff" d="M271.04,-169.73C322.38,-163.43 425.1,-149.43 510.5,-129 570.47,-114.65 638.57,-91.52 677.84,-77.49"/>
<polygon fill="#63b8ff" stroke="#63b8ff" points="679.18,-80.72 687.41,-74.04 676.81,-74.14 679.18,-80.72"/>
</g>
<!-- Node6&#45;&gt;Node5 -->
<g id="edge10" class="edge">
<title>Node6&#45;&gt;Node5</title>
<path fill="none" stroke="#63b8ff" d="M441.23,-109.92C422.23,-101.6 393.27,-88.18 369.5,-74 344.56,-59.13 317.75,-39.14 300.37,-25.6"/>
<polygon fill="#63b8ff" stroke="#63b8ff" points="302.21,-22.6 292.19,-19.16 297.88,-28.1 302.21,-22.6"/>
</g>
<!-- Node6&#45;&gt;Node7 -->
<g id="edge6" class="edge">
<title>Node6&#45;&gt;Node7</title>
<path fill="none" stroke="#63b8ff" d="M453.57,-109.75C446.65,-102.11 436.43,-90.82 428.05,-81.56"/>
<polygon fill="#63b8ff" stroke="#63b8ff" points="430.59,-79.15 421.28,-74.09 425.4,-83.85 430.59,-79.15"/>
</g>
<!-- Node8 -->
<g id="node8" class="node">
<title>Node8</title>
<g id="a_node8"><a xlink:title=" ">
<polygon fill="#e0e0e0" stroke="#999999" points="467,-19 424,-19 424,0 467,0 467,-19"/>
<text text-anchor="middle" x="445.5" y="-7" font-family="Helvetica,sans-Serif" font-size="10.00">can.h</text>
</a>
</g>
</g>
<!-- Node6&#45;&gt;Node8 -->
<g id="edge9" class="edge">
<title>Node6&#45;&gt;Node8</title>
<path fill="none" stroke="#63b8ff" d="M461.74,-109.8C461.93,-97.51 461.74,-74.38 458.5,-55 457.04,-46.27 454.43,-36.82 451.94,-28.89"/>
<polygon fill="#63b8ff" stroke="#63b8ff" points="455.2,-27.6 448.72,-19.22 448.56,-29.82 455.2,-27.6"/>
</g>
<!-- Node7&#45;&gt;Node5 -->
<g id="edge7" class="edge">
<title>Node7&#45;&gt;Node5</title>
<path fill="none" stroke="#63b8ff" d="M392.29,-54.98C370.77,-46.34 337.22,-32.87 312.67,-23.02"/>
<polygon fill="#63b8ff" stroke="#63b8ff" points="313.68,-19.65 303.09,-19.17 311.07,-26.14 313.68,-19.65"/>
</g>
<!-- Node7&#45;&gt;Node8 -->
<g id="edge8" class="edge">
<title>Node7&#45;&gt;Node8</title>
<path fill="none" stroke="#63b8ff" d="M418.78,-54.75C423.21,-47.42 429.66,-36.73 435.12,-27.7"/>
<polygon fill="#63b8ff" stroke="#63b8ff" points="438.14,-29.46 440.31,-19.09 432.15,-25.84 438.14,-29.46"/>
</g>
<!-- Node9&#45;&gt;Node5 -->
<g id="edge12" class="edge">
<title>Node9&#45;&gt;Node5</title>
<path fill="none" stroke="#63b8ff" d="M255.62,-54.75C259.86,-47.49 266.03,-36.95 271.28,-27.98"/>
<polygon fill="#63b8ff" stroke="#63b8ff" points="274.45,-29.49 276.48,-19.09 268.41,-25.95 274.45,-29.49"/>
</g>
<!-- Node10&#45;&gt;Node5 -->
<g id="edge15" class="edge">
<title>Node10&#45;&gt;Node5</title>
<path fill="none" stroke="#63b8ff" d="M292.38,-109.83C293.46,-97.57 294.87,-74.48 292.5,-55 291.44,-46.31 289.26,-36.87 287.12,-28.93"/>
<polygon fill="#63b8ff" stroke="#63b8ff" points="290.46,-27.89 284.33,-19.25 283.73,-29.83 290.46,-27.89"/>
</g>
<!-- Node10&#45;&gt;Node9 -->
<g id="edge14" class="edge">
<title>Node10&#45;&gt;Node9</title>
<path fill="none" stroke="#63b8ff" d="M284.73,-109.75C278.94,-102.26 270.44,-91.28 263.36,-82.13"/>
<polygon fill="#63b8ff" stroke="#63b8ff" points="266.03,-79.86 257.14,-74.09 260.49,-84.14 266.03,-79.86"/>
</g>
<!-- Node11&#45;&gt;Node5 -->
<g id="edge17" class="edge">
<title>Node11&#45;&gt;Node5</title>
<path fill="none" stroke="#63b8ff" d="M91.75,-109.94C109.1,-96.98 143.7,-72.1 175.5,-55 198.87,-42.43 226.55,-30.92 247.77,-22.75"/>
<polygon fill="#63b8ff" stroke="#63b8ff" points="249.21,-25.95 257.32,-19.13 246.73,-19.4 249.21,-25.95"/>
</g>
<!-- Node12 -->
<g id="node12" class="node">
<title>Node12</title>
<g id="a_node12"><a xlink:href="Signal__Processing_8tpp.html" target="_top" xlink:title="Definition of Signal Processing functions.">
<polygon fill="white" stroke="#666666" points="123,-74 0,-74 0,-55 123,-55 123,-74"/>
<text text-anchor="middle" x="61.5" y="-62" font-family="Helvetica,sans-Serif" font-size="10.00">Signal_Processing.tpp</text>
</a>
</g>
</g>
<!-- Node11&#45;&gt;Node12 -->
<g id="edge18" class="edge">
<title>Node11&#45;&gt;Node12</title>
<path fill="none" stroke="#63b8ff" d="M72.2,-109.75C68.21,-102.8 64.21,-92.85 61.7,-84.13"/>
<polygon fill="#63b8ff" stroke="#63b8ff" points="65.05,-83.08 59.45,-74.09 58.22,-84.61 65.05,-83.08"/>
</g>
<!-- Node12&#45;&gt;Node11 -->
<g id="edge19" class="edge">
<title>Node12&#45;&gt;Node11</title>
<path fill="none" stroke="#63b8ff" d="M69.71,-74.09C73.74,-81.06 77.8,-91.15 80.32,-99.95"/>
<polygon fill="#63b8ff" stroke="#63b8ff" points="76.92,-100.76 82.53,-109.75 83.75,-99.22 76.92,-100.76"/>
</g>
<!-- Node14&#45;&gt;Node6 -->
<g id="edge29" class="edge">
<title>Node14&#45;&gt;Node6</title>
<path fill="none" stroke="#63b8ff" d="M568.59,-219.91C556.09,-211.37 536.82,-197.6 521.5,-184 504.75,-169.13 487.36,-150.29 475.64,-137.01"/>
<polygon fill="#63b8ff" stroke="#63b8ff" points="478.03,-134.42 468.83,-129.17 472.75,-139.02 478.03,-134.42"/>
</g>
<!-- Node14&#45;&gt;Node13 -->
<g id="edge30" class="edge">
<title>Node14&#45;&gt;Node13</title>
<path fill="none" stroke="#63b8ff" d="M611.09,-227.71C644.12,-225.2 696.95,-216.01 727.5,-184 750.61,-159.79 751.53,-141.94 741.5,-110 738.27,-99.71 731.72,-89.72 725.47,-81.82"/>
<polygon fill="#63b8ff" stroke="#63b8ff" points="728.11,-79.52 718.98,-74.15 722.77,-84.04 728.11,-79.52"/>
</g>
<!-- Node14&#45;&gt;Node15 -->
<g id="edge22" class="edge">
<title>Node14&#45;&gt;Node15</title>
<path fill="none" stroke="#63b8ff" d="M596.6,-219.98C611.32,-211.69 633.92,-198.94 651.17,-189.22"/>
<polygon fill="#63b8ff" stroke="#63b8ff" points="653.13,-192.13 660.12,-184.17 649.69,-186.03 653.13,-192.13"/>
</g>
<!-- Node15&#45;&gt;Node7 -->
<g id="edge23" class="edge">
<title>Node15&#45;&gt;Node7</title>
<path fill="none" stroke="#63b8ff" d="M654.5,-164.84C608.21,-145.76 497.22,-100.01 443.56,-77.89"/>
<polygon fill="#63b8ff" stroke="#63b8ff" points="444.81,-74.62 434.23,-74.05 442.15,-81.09 444.81,-74.62"/>
</g>
<!-- Node15&#45;&gt;Node13 -->
<g id="edge24" class="edge">
<title>Node15&#45;&gt;Node13</title>
<path fill="none" stroke="#63b8ff" d="M691.23,-164.88C703.38,-157.23 719.3,-144.83 726.5,-129 733.25,-114.15 727.41,-96.01 720.97,-82.92"/>
<polygon fill="#63b8ff" stroke="#63b8ff" points="723.99,-81.15 716.13,-74.04 717.85,-84.5 723.99,-81.15"/>
</g>
<!-- Node16 -->
<g id="node16" class="node">
<title>Node16</title>
<g id="a_node16"><a xlink:href="Scheduler_8tpp.html" target="_top" xlink:title="Implementation of the Scheduler class template.">
<polygon fill="white" stroke="#666666" points="717,-129 634,-129 634,-110 717,-110 717,-129"/>
<text text-anchor="middle" x="675.5" y="-117" font-family="Helvetica,sans-Serif" font-size="10.00">Scheduler.tpp</text>
</a>
</g>
</g>
<!-- Node15&#45;&gt;Node16 -->
<g id="edge25" class="edge">
<title>Node15&#45;&gt;Node16</title>
<path fill="none" stroke="#63b8ff" d="M670.33,-164.75C668.84,-157.8 668.4,-147.85 669.02,-139.13"/>
<polygon fill="#63b8ff" stroke="#63b8ff" points="672.51,-139.47 670.37,-129.09 665.57,-138.53 672.51,-139.47"/>
</g>
<!-- Node16&#45;&gt;Node7 -->
<g id="edge26" class="edge">
<title>Node16&#45;&gt;Node7</title>
<path fill="none" stroke="#63b8ff" d="M633.99,-110.1C586.43,-100.48 508.75,-84.77 459.42,-74.79"/>
<polygon fill="#63b8ff" stroke="#63b8ff" points="459.84,-71.3 449.35,-72.75 458.45,-78.16 459.84,-71.3"/>
</g>
<!-- Node16&#45;&gt;Node13 -->
<g id="edge27" class="edge">
<title>Node16&#45;&gt;Node13</title>
<path fill="none" stroke="#63b8ff" d="M681.28,-109.75C686.12,-102.42 693.18,-91.73 699.14,-82.7"/>
<polygon fill="#63b8ff" stroke="#63b8ff" points="702.24,-84.36 704.83,-74.09 696.4,-80.5 702.24,-84.36"/>
</g>
<!-- Node16&#45;&gt;Node15 -->
<g id="edge28" class="edge">
<title>Node16&#45;&gt;Node15</title>
<path fill="none" stroke="#63b8ff" d="M680.63,-129.09C682.14,-135.99 682.59,-145.93 681.99,-154.66"/>
<polygon fill="#63b8ff" stroke="#63b8ff" points="678.5,-154.38 680.67,-164.75 685.44,-155.29 678.5,-154.38"/>
</g>
<!-- Node17&#45;&gt;Node6 -->
<g id="edge36" class="edge">
<title>Node17&#45;&gt;Node6</title>
<path fill="none" stroke="#63b8ff" d="M554.67,-164.98C536.89,-156.5 509.35,-143.35 488.82,-133.54"/>
<polygon fill="#63b8ff" stroke="#63b8ff" points="490.19,-130.32 479.66,-129.17 487.17,-136.64 490.19,-130.32"/>
</g>
<!-- Node17&#45;&gt;Node13 -->
<g id="edge37" class="edge">
<title>Node17&#45;&gt;Node13</title>
<path fill="none" stroke="#63b8ff" d="M578.13,-164.76C586.95,-151.58 605.16,-126.41 625.5,-110 641.76,-96.89 662.48,-85.94 679.4,-78.19"/>
<polygon fill="#63b8ff" stroke="#63b8ff" points="681.13,-81.25 688.85,-74 678.29,-74.85 681.13,-81.25"/>
</g>
<!-- Node18&#45;&gt;Node7 -->
<g id="edge40" class="edge">
<title>Node18&#45;&gt;Node7</title>
<path fill="none" stroke="#63b8ff" d="M401.56,-164.66C403.67,-147.17 408.41,-107.8 411.24,-84.27"/>
<polygon fill="#63b8ff" stroke="#63b8ff" points="414.74,-84.51 412.46,-74.16 407.79,-83.67 414.74,-84.51"/>
</g>
</g>
</svg>
