<?xml version="1.0" encoding="UTF-8" standalone="no"?>
<!DOCTYPE svg PUBLIC "-//W3C//DTD SVG 1.1//EN"
 "http://www.w3.org/Graphics/SVG/1.1/DTD/svg11.dtd">
<!-- Generated by graphviz version 2.43.0 (0)
 -->
<!-- Title: src/main.cpp Pages: 1 -->
<svg width="642pt" height="192pt"
 viewBox="0.00 0.00 642.28 192.00" xmlns="http://www.w3.org/2000/svg" xmlns:xlink="http://www.w3.org/1999/xlink">
<g id="graph0" class="graph" transform="scale(1 1) rotate(0) translate(4 188)">
<title>src/main.cpp</title>
<!-- Node1 -->
<g id="node1" class="node">
<title>Node1</title>
<g id="a_node1"><a xlink:title=" ">
<polygon fill="#999999" stroke="#666666" points="376,-184 297,-184 297,-165 376,-165 376,-184"/>
<text text-anchor="middle" x="336.5" y="-172" font-family="Helvetica,sans-Serif" font-size="10.00">src/main.cpp</text>
</a>
</g>
</g>
<!-- Node2 -->
<g id="node2" class="node">
<title>Node2</title>
<g id="a_node2"><a xlink:title=" ">
<polygon fill="#e0e0e0" stroke="#999999" points="63,-74 0,-74 0,-55 63,-55 63,-74"/>
<text text-anchor="middle" x="31.5" y="-62" font-family="Helvetica,sans-Serif" font-size="10.00">Arduino.h</text>
</a>
</g>
</g>
<!-- Node1&#45;&gt;Node2 -->
<g id="edge1" class="edge">
<title>Node1&#45;&gt;Node2</title>
<path fill="none" stroke="#63b8ff" d="M296.72,-174.26C245.19,-173.56 154.09,-166.47 87.5,-129 67.95,-118 51.81,-97.56 41.96,-82.83"/>
<polygon fill="#63b8ff" stroke="#63b8ff" points="44.75,-80.69 36.43,-74.14 38.85,-84.45 44.75,-80.69"/>
</g>
<!-- Node3 -->
<g id="node3" class="node">
<title>Node3</title>
<g id="a_node3"><a xlink:href="boardConf_8h.html" target="_top" xlink:title=" ">
<polygon fill="white" stroke="#666666" points="172,-129 97,-129 97,-110 172,-110 172,-129"/>
<text text-anchor="middle" x="134.5" y="-117" font-family="Helvetica,sans-Serif" font-size="10.00">boardConf.h</text>
</a>
</g>
</g>
<!-- Node1&#45;&gt;Node3 -->
<g id="edge2" class="edge">
<title>Node1&#45;&gt;Node3</title>
<path fill="none" stroke="#63b8ff" d="M304.05,-164.98C269.54,-155.93 214.84,-141.58 176.94,-131.64"/>
<polygon fill="#63b8ff" stroke="#63b8ff" points="177.77,-128.23 167.21,-129.08 175.99,-135.01 177.77,-128.23"/>
</g>
<!-- Node4 -->
<g id="node4" class="node">
<title>Node4</title>
<g id="a_node4"><a xlink:href="Pedal_8h.html" target="_top" xlink:title=" ">
<polygon fill="white" stroke="#666666" points="243,-129 190,-129 190,-110 243,-110 243,-129"/>
<text text-anchor="middle" x="216.5" y="-117" font-family="Helvetica,sans-Serif" font-size="10.00">Pedal.h</text>
</a>
</g>
</g>
<!-- Node1&#45;&gt;Node4 -->
<g id="edge3" class="edge">
<title>Node1&#45;&gt;Node4</title>
<path fill="none" stroke="#63b8ff" d="M317.22,-164.98C297.83,-156.42 267.69,-143.11 245.43,-133.28"/>
<polygon fill="#63b8ff" stroke="#63b8ff" points="246.69,-130.01 236.13,-129.17 243.86,-136.41 246.69,-130.01"/>
</g>
<!-- Node8 -->
<g id="node8" class="node">
<title>Node8</title>
<g id="a_node8"><a xlink:href="car__state_8h.html" target="_top" xlink:title=" ">
<polygon fill="white" stroke="#666666" points="327,-74 256,-74 256,-55 327,-55 327,-74"/>
<text text-anchor="middle" x="291.5" y="-62" font-family="Helvetica,sans-Serif" font-size="10.00">car_state.h</text>
</a>
</g>
</g>
<!-- Node1&#45;&gt;Node8 -->
<g id="edge18" class="edge">
<title>Node1&#45;&gt;Node8</title>
<path fill="none" stroke="#63b8ff" d="M326.49,-164.7C317.8,-156.41 305.66,-143.19 299.5,-129 293.34,-114.81 291.52,-97.27 291.13,-84.23"/>
<polygon fill="#63b8ff" stroke="#63b8ff" points="294.63,-84.1 291.09,-74.12 287.63,-84.13 294.63,-84.1"/>
</g>
<!-- Node9 -->
<g id="node9" class="node">
<title>Node9</title>
<g id="a_node9"><a xlink:href="Enums_8h.html" target="_top" xlink:title=" ">
<polygon fill="white" stroke="#666666" points="423,-19 364,-19 364,0 423,0 423,-19"/>
<text text-anchor="middle" x="393.5" y="-7" font-family="Helvetica,sans-Serif" font-size="10.00">Enums.h</text>
</a>
</g>
</g>
<!-- Node1&#45;&gt;Node9 -->
<g id="edge17" class="edge">
<title>Node1&#45;&gt;Node9</title>
<path fill="none" stroke="#63b8ff" d="M346.66,-164.7C355.52,-156.42 367.94,-143.2 374.5,-129 389.6,-96.33 392.97,-53.8 393.57,-29.59"/>
<polygon fill="#63b8ff" stroke="#63b8ff" points="397.07,-29.33 393.68,-19.29 390.07,-29.26 397.07,-29.33"/>
</g>
<!-- Node10 -->
<g id="node10" class="node">
<title>Node10</title>
<g id="a_node10"><a xlink:href="BMS_8h.html" target="_top" xlink:title=" ">
<polygon fill="white" stroke="#666666" points="614,-129 567,-129 567,-110 614,-110 614,-129"/>
<text text-anchor="middle" x="590.5" y="-117" font-family="Helvetica,sans-Serif" font-size="10.00">BMS.h</text>
</a>
</g>
</g>
<!-- Node1&#45;&gt;Node10 -->
<g id="edge12" class="edge">
<title>Node1&#45;&gt;Node10</title>
<path fill="none" stroke="#63b8ff" d="M376.16,-165.66C419.71,-156.98 491.68,-142.44 553.5,-129 554.56,-128.77 555.64,-128.53 556.73,-128.29"/>
<polygon fill="#63b8ff" stroke="#63b8ff" points="557.64,-131.67 566.63,-126.07 556.11,-124.84 557.64,-131.67"/>
</g>
<!-- Node11 -->
<g id="node11" class="node">
<title>Node11</title>
<g id="a_node11"><a xlink:title=" ">
<polygon fill="#e0e0e0" stroke="#999999" points="626,-19 555,-19 555,0 626,0 626,-19"/>
<text text-anchor="middle" x="590.5" y="-7" font-family="Helvetica,sans-Serif" font-size="10.00">mcp2515.h</text>
</a>
</g>
</g>
<!-- Node1&#45;&gt;Node11 -->
<g id="edge14" class="edge">
<title>Node1&#45;&gt;Node11</title>
<path fill="none" stroke="#63b8ff" d="M376.27,-173.43C447.45,-172.36 592.13,-165.61 623.5,-129 648.75,-99.54 621.54,-52.21 603.61,-27.21"/>
<polygon fill="#63b8ff" stroke="#63b8ff" points="606.33,-25 597.54,-19.09 600.72,-29.19 606.33,-25"/>
</g>
<!-- Node12 -->
<g id="node12" class="node">
<title>Node12</title>
<g id="a_node12"><a xlink:href="Debug_8h.html" target="_top" xlink:title=" ">
<polygon fill="white" stroke="#666666" points="365,-129 308,-129 308,-110 365,-110 365,-129"/>
<text text-anchor="middle" x="336.5" y="-117" font-family="Helvetica,sans-Serif" font-size="10.00">Debug.h</text>
</a>
</g>
</g>
<!-- Node1&#45;&gt;Node12 -->
<g id="edge15" class="edge">
<title>Node1&#45;&gt;Node12</title>
<path fill="none" stroke="#63b8ff" d="M336.5,-164.75C336.5,-157.8 336.5,-147.85 336.5,-139.13"/>
<polygon fill="#63b8ff" stroke="#63b8ff" points="340,-139.09 336.5,-129.09 333,-139.09 340,-139.09"/>
</g>
<!-- Node13 -->
<g id="node13" class="node">
<title>Node13</title>
<g id="a_node13"><a xlink:href="Scheduler_8hpp.html" target="_top" xlink:title="Declaration of the Scheduler class template, for scheduling tasks on multiple MCP2515 instances.">
<polygon fill="white" stroke="#666666" points="544,-129 459,-129 459,-110 544,-110 544,-129"/>
<text text-anchor="middle" x="501.5" y="-117" font-family="Helvetica,sans-Serif" font-size="10.00">Scheduler.hpp</text>
</a>
</g>
</g>
<!-- Node1&#45;&gt;Node13 -->
<g id="edge19" class="edge">
<title>Node1&#45;&gt;Node13</title>
<path fill="none" stroke="#63b8ff" d="M363.01,-164.98C390.71,-156.09 434.36,-142.07 465.24,-132.15"/>
<polygon fill="#63b8ff" stroke="#63b8ff" points="466.33,-135.47 474.78,-129.08 464.19,-128.81 466.33,-135.47"/>
</g>
<!-- Node4&#45;&gt;Node2 -->
<g id="edge11" class="edge">
<title>Node4&#45;&gt;Node2</title>
<path fill="none" stroke="#63b8ff" d="M189.99,-110.91C158.85,-101.98 106.89,-87.1 70.99,-76.81"/>
<polygon fill="#63b8ff" stroke="#63b8ff" points="71.91,-73.43 61.33,-74.05 69.98,-80.16 71.91,-73.43"/>
</g>
<!-- Node5 -->
<g id="node5" class="node">
<title>Node5</title>
<g id="a_node5"><a xlink:title=" ">
<polygon fill="#e0e0e0" stroke="#999999" points="175,-19 122,-19 122,0 175,0 175,-19"/>
<text text-anchor="middle" x="148.5" y="-7" font-family="Helvetica,sans-Serif" font-size="10.00">stdint.h</text>
</a>
</g>
</g>
<!-- Node4&#45;&gt;Node5 -->
<g id="edge4" class="edge">
<title>Node4&#45;&gt;Node5</title>
<path fill="none" stroke="#63b8ff" d="M189.81,-110.98C161.52,-102.41 119.67,-87.8 110.5,-74 99.76,-57.84 114.92,-38.65 129.15,-25.62"/>
<polygon fill="#63b8ff" stroke="#63b8ff" points="131.48,-28.24 136.8,-19.08 126.93,-22.92 131.48,-28.24"/>
</g>
<!-- Node6 -->
<g id="node6" class="node">
<title>Node6</title>
<g id="a_node6"><a xlink:href="Queue_8h.html" target="_top" xlink:title=" ">
<polygon fill="white" stroke="#666666" points="177,-74 120,-74 120,-55 177,-55 177,-74"/>
<text text-anchor="middle" x="148.5" y="-62" font-family="Helvetica,sans-Serif" font-size="10.00">Queue.h</text>
</a>
</g>
</g>
<!-- Node4&#45;&gt;Node6 -->
<g id="edge5" class="edge">
<title>Node4&#45;&gt;Node6</title>
<path fill="none" stroke="#63b8ff" d="M205.57,-109.98C195.42,-102.07 180.08,-90.11 167.85,-80.58"/>
<polygon fill="#63b8ff" stroke="#63b8ff" points="169.66,-77.56 159.62,-74.17 165.36,-83.08 169.66,-77.56"/>
</g>
<!-- Node7 -->
<g id="node7" class="node">
<title>Node7</title>
<g id="a_node7"><a xlink:title=" ">
<polygon fill="#e0e0e0" stroke="#999999" points="238,-74 195,-74 195,-55 238,-55 238,-74"/>
<text text-anchor="middle" x="216.5" y="-62" font-family="Helvetica,sans-Serif" font-size="10.00">can.h</text>
</a>
</g>
</g>
<!-- Node4&#45;&gt;Node7 -->
<g id="edge7" class="edge">
<title>Node4&#45;&gt;Node7</title>
<path fill="none" stroke="#63b8ff" d="M216.5,-109.75C216.5,-102.8 216.5,-92.85 216.5,-84.13"/>
<polygon fill="#63b8ff" stroke="#63b8ff" points="220,-84.09 216.5,-74.09 213,-84.09 220,-84.09"/>
</g>
<!-- Node4&#45;&gt;Node8 -->
<g id="edge8" class="edge">
<title>Node4&#45;&gt;Node8</title>
<path fill="none" stroke="#63b8ff" d="M228.55,-109.98C239.96,-101.92 257.33,-89.65 270.93,-80.03"/>
<polygon fill="#63b8ff" stroke="#63b8ff" points="273.08,-82.8 279.23,-74.17 269.04,-77.08 273.08,-82.8"/>
</g>
<!-- Node6&#45;&gt;Node5 -->
<g id="edge6" class="edge">
<title>Node6&#45;&gt;Node5</title>
<path fill="none" stroke="#63b8ff" d="M148.5,-54.75C148.5,-47.8 148.5,-37.85 148.5,-29.13"/>
<polygon fill="#63b8ff" stroke="#63b8ff" points="152,-29.09 148.5,-19.09 145,-29.09 152,-29.09"/>
</g>
<!-- Node8&#45;&gt;Node5 -->
<g id="edge10" class="edge">
<title>Node8&#45;&gt;Node5</title>
<path fill="none" stroke="#63b8ff" d="M268.52,-54.98C245,-46.27 208.21,-32.63 181.56,-22.75"/>
<polygon fill="#63b8ff" stroke="#63b8ff" points="182.49,-19.36 171.89,-19.17 180.05,-25.93 182.49,-19.36"/>
</g>
<!-- Node8&#45;&gt;Node9 -->
<g id="edge9" class="edge">
<title>Node8&#45;&gt;Node9</title>
<path fill="none" stroke="#63b8ff" d="M307.89,-54.98C324.07,-46.57 349.07,-33.59 367.88,-23.81"/>
<polygon fill="#63b8ff" stroke="#63b8ff" points="369.55,-26.89 376.81,-19.17 366.33,-20.68 369.55,-26.89"/>
</g>
<!-- Node10&#45;&gt;Node11 -->
<g id="edge13" class="edge">
<title>Node10&#45;&gt;Node11</title>
<path fill="none" stroke="#63b8ff" d="M590.5,-109.66C590.5,-92.17 590.5,-52.8 590.5,-29.27"/>
<polygon fill="#63b8ff" stroke="#63b8ff" points="594,-29.16 590.5,-19.16 587,-29.16 594,-29.16"/>
</g>
<!-- Node12&#45;&gt;Node9 -->
<g id="edge16" class="edge">
<title>Node12&#45;&gt;Node9</title>
<path fill="none" stroke="#63b8ff" d="M341.16,-109.66C350.56,-91.85 371.93,-51.37 384.26,-28.01"/>
<polygon fill="#63b8ff" stroke="#63b8ff" points="387.36,-29.64 388.93,-19.16 381.17,-26.37 387.36,-29.64"/>
</g>
<!-- Node13&#45;&gt;Node9 -->
<g id="edge20" class="edge">
<title>Node13&#45;&gt;Node9</title>
<path fill="none" stroke="#63b8ff" d="M491.26,-109.93C480.96,-101.18 464.73,-87.06 451.5,-74 435.99,-58.68 419.3,-40.18 407.83,-27.11"/>
<polygon fill="#63b8ff" stroke="#63b8ff" points="410.31,-24.63 401.1,-19.39 405.03,-29.23 410.31,-24.63"/>
</g>
<!-- Node13&#45;&gt;Node11 -->
<g id="edge21" class="edge">
<title>Node13&#45;&gt;Node11</title>
<path fill="none" stroke="#63b8ff" d="M513.38,-109.87C524.38,-101.51 540.74,-88.06 552.5,-74 564.32,-59.86 574.82,-41.63 581.78,-28.33"/>
<polygon fill="#63b8ff" stroke="#63b8ff" points="584.97,-29.78 586.36,-19.28 578.72,-26.62 584.97,-29.78"/>
</g>
<!-- Node14 -->
<g id="node14" class="node">
<title>Node14</title>
<g id="a_node14"><a xlink:href="Scheduler_8tpp.html" target="_top" xlink:title="Implementation of the Scheduler class template.">
<polygon fill="white" stroke="#666666" points="543,-74 460,-74 460,-55 543,-55 543,-74"/>
<text text-anchor="middle" x="501.5" y="-62" font-family="Helvetica,sans-Serif" font-size="10.00">Scheduler.tpp</text>
</a>
</g>
</g>
<!-- Node13&#45;&gt;Node14 -->
<g id="edge22" class="edge">
<title>Node13&#45;&gt;Node14</title>
<path fill="none" stroke="#63b8ff" d="M496.33,-109.75C494.84,-102.8 494.4,-92.85 495.02,-84.13"/>
<polygon fill="#63b8ff" stroke="#63b8ff" points="498.51,-84.47 496.37,-74.09 491.57,-83.53 498.51,-84.47"/>
</g>
<!-- Node14&#45;&gt;Node9 -->
<g id="edge23" class="edge">
<title>Node14&#45;&gt;Node9</title>
<path fill="none" stroke="#63b8ff" d="M484.15,-54.98C466.93,-46.54 440.3,-33.47 420.35,-23.68"/>
<polygon fill="#63b8ff" stroke="#63b8ff" points="421.69,-20.43 411.17,-19.17 418.6,-26.72 421.69,-20.43"/>
</g>
<!-- Node14&#45;&gt;Node11 -->
<g id="edge24" class="edge">
<title>Node14&#45;&gt;Node11</title>
<path fill="none" stroke="#63b8ff" d="M515.8,-54.98C529.6,-46.77 550.74,-34.18 567.01,-24.49"/>
<polygon fill="#63b8ff" stroke="#63b8ff" points="569.14,-27.29 575.94,-19.17 565.56,-21.28 569.14,-27.29"/>
</g>
<!-- Node14&#45;&gt;Node13 -->
<g id="edge25" class="edge">
<title>Node14&#45;&gt;Node13</title>
<path fill="none" stroke="#63b8ff" d="M506.63,-74.09C508.14,-80.99 508.59,-90.93 507.99,-99.66"/>
<polygon fill="#63b8ff" stroke="#63b8ff" points="504.5,-99.38 506.67,-109.75 511.44,-100.29 504.5,-99.38"/>
</g>
</g>
</svg>
