<?xml version="1.0" encoding="UTF-8" standalone="no"?>
<!DOCTYPE svg PUBLIC "-//W3C//DTD SVG 1.1//EN"
 "http://www.w3.org/Graphics/SVG/1.1/DTD/svg11.dtd">
<!-- Generated by graphviz version 2.43.0 (0)
 -->
<!-- Title: src/main.cpp Pages: 1 -->
<svg width="634pt" height="247pt"
 viewBox="0.00 0.00 634.00 247.00" xmlns="http://www.w3.org/2000/svg" xmlns:xlink="http://www.w3.org/1999/xlink">
<g id="graph0" class="graph" transform="scale(1 1) rotate(0) translate(4 243)">
<title>src/main.cpp</title>
<!-- Node1 -->
<g id="node1" class="node">
<title>Node1</title>
<g id="a_node1"><a xlink:title=" ">
<polygon fill="#999999" stroke="#666666" points="395,-239 316,-239 316,-220 395,-220 395,-239"/>
<text text-anchor="middle" x="355.5" y="-227" font-family="Helvetica,sans-Serif" font-size="10.00">src/main.cpp</text>
</a>
</g>
</g>
<!-- Node2 -->
<g id="node2" class="node">
<title>Node2</title>
<g id="a_node2"><a xlink:title=" ">
<polygon fill="#e0e0e0" stroke="#999999" points="63,-129 0,-129 0,-110 63,-110 63,-129"/>
<text text-anchor="middle" x="31.5" y="-117" font-family="Helvetica,sans-Serif" font-size="10.00">Arduino.h</text>
</a>
</g>
</g>
<!-- Node1&#45;&gt;Node2 -->
<g id="edge1" class="edge">
<title>Node1&#45;&gt;Node2</title>
<path fill="none" stroke="#63b8ff" d="M315.87,-228.63C263.42,-227.28 169.33,-219.54 98.5,-184 76.23,-172.83 56.29,-151.8 44.08,-137.01"/>
<polygon fill="#63b8ff" stroke="#63b8ff" points="46.78,-134.79 37.81,-129.15 41.3,-139.15 46.78,-134.79"/>
</g>
<!-- Node3 -->
<g id="node3" class="node">
<title>Node3</title>
<g id="a_node3"><a xlink:href="boardConf_8h.html" target="_top" xlink:title=" ">
<polygon fill="white" stroke="#666666" points="183,-184 108,-184 108,-165 183,-165 183,-184"/>
<text text-anchor="middle" x="145.5" y="-172" font-family="Helvetica,sans-Serif" font-size="10.00">boardConf.h</text>
</a>
</g>
</g>
<!-- Node1&#45;&gt;Node3 -->
<g id="edge2" class="edge">
<title>Node1&#45;&gt;Node3</title>
<path fill="none" stroke="#63b8ff" d="M321.76,-219.98C285.82,-210.91 228.78,-196.52 189.37,-186.57"/>
<polygon fill="#63b8ff" stroke="#63b8ff" points="190.06,-183.14 179.5,-184.08 188.34,-189.92 190.06,-183.14"/>
</g>
<!-- Node4 -->
<g id="node4" class="node">
<title>Node4</title>
<g id="a_node4"><a xlink:href="Pedal_8h.html" target="_top" xlink:title=" ">
<polygon fill="white" stroke="#666666" points="254,-184 201,-184 201,-165 254,-165 254,-184"/>
<text text-anchor="middle" x="227.5" y="-172" font-family="Helvetica,sans-Serif" font-size="10.00">Pedal.h</text>
</a>
</g>
</g>
<!-- Node1&#45;&gt;Node4 -->
<g id="edge3" class="edge">
<title>Node1&#45;&gt;Node4</title>
<path fill="none" stroke="#63b8ff" d="M334.93,-219.98C314.07,-211.34 281.53,-197.87 257.73,-188.02"/>
<polygon fill="#63b8ff" stroke="#63b8ff" points="259.02,-184.76 248.44,-184.17 256.34,-191.23 259.02,-184.76"/>
</g>
<!-- Node8 -->
<g id="node8" class="node">
<title>Node8</title>
<g id="a_node8"><a xlink:href="car__state_8h.html" target="_top" xlink:title=" ">
<polygon fill="white" stroke="#666666" points="327,-129 256,-129 256,-110 327,-110 327,-129"/>
<text text-anchor="middle" x="291.5" y="-117" font-family="Helvetica,sans-Serif" font-size="10.00">car_state.h</text>
</a>
</g>
</g>
<!-- Node1&#45;&gt;Node8 -->
<g id="edge22" class="edge">
<title>Node1&#45;&gt;Node8</title>
<path fill="none" stroke="#63b8ff" d="M350.26,-219.66C339.71,-201.85 315.72,-161.37 301.87,-138.01"/>
<polygon fill="#63b8ff" stroke="#63b8ff" points="304.74,-135.98 296.63,-129.16 298.72,-139.55 304.74,-135.98"/>
</g>
<!-- Node9 -->
<g id="node9" class="node">
<title>Node9</title>
<g id="a_node9"><a xlink:href="Enums_8h.html" target="_top" xlink:title=" ">
<polygon fill="white" stroke="#666666" points="423,-19 364,-19 364,0 423,0 423,-19"/>
<text text-anchor="middle" x="393.5" y="-7" font-family="Helvetica,sans-Serif" font-size="10.00">Enums.h</text>
</a>
</g>
</g>
<!-- Node1&#45;&gt;Node9 -->
<g id="edge21" class="edge">
<title>Node1&#45;&gt;Node9</title>
<path fill="none" stroke="#63b8ff" d="M356.99,-219.95C362.58,-187.88 382.4,-74.2 390.26,-29.12"/>
<polygon fill="#63b8ff" stroke="#63b8ff" points="393.71,-29.68 391.98,-19.22 386.81,-28.47 393.71,-29.68"/>
</g>
<!-- Node10 -->
<g id="node10" class="node">
<title>Node10</title>
<g id="a_node10"><a xlink:href="BMS_8h.html" target="_top" xlink:title="Declaration of the BMS class for managing the Accumulator (Kclear BMS) via CAN bus.">
<polygon fill="white" stroke="#666666" points="525,-184 478,-184 478,-165 525,-165 525,-184"/>
<text text-anchor="middle" x="501.5" y="-172" font-family="Helvetica,sans-Serif" font-size="10.00">BMS.h</text>
</a>
</g>
</g>
<!-- Node1&#45;&gt;Node10 -->
<g id="edge12" class="edge">
<title>Node1&#45;&gt;Node10</title>
<path fill="none" stroke="#63b8ff" d="M378.96,-219.98C403.08,-211.23 440.87,-197.51 468.1,-187.62"/>
<polygon fill="#63b8ff" stroke="#63b8ff" points="469.41,-190.87 477.62,-184.17 467.02,-184.29 469.41,-190.87"/>
</g>
<!-- Node11 -->
<g id="node11" class="node">
<title>Node11</title>
<g id="a_node11"><a xlink:href="Scheduler_8hpp.html" target="_top" xlink:title="Declaration of the Scheduler class template, for scheduling tasks on multiple MCP2515 instances.">
<polygon fill="white" stroke="#666666" points="544,-129 459,-129 459,-110 544,-110 544,-129"/>
<text text-anchor="middle" x="501.5" y="-117" font-family="Helvetica,sans-Serif" font-size="10.00">Scheduler.hpp</text>
</a>
</g>
</g>
<!-- Node1&#45;&gt;Node11 -->
<g id="edge23" class="edge">
<title>Node1&#45;&gt;Node11</title>
<path fill="none" stroke="#63b8ff" d="M367.2,-219.84C392.08,-201.44 450.49,-158.23 481.44,-135.34"/>
<polygon fill="#63b8ff" stroke="#63b8ff" points="483.79,-137.96 489.74,-129.2 479.62,-132.33 483.79,-137.96"/>
</g>
<!-- Node12 -->
<g id="node12" class="node">
<title>Node12</title>
<g id="a_node12"><a xlink:title=" ">
<polygon fill="#e0e0e0" stroke="#999999" points="626,-19 555,-19 555,0 626,0 626,-19"/>
<text text-anchor="middle" x="590.5" y="-7" font-family="Helvetica,sans-Serif" font-size="10.00">mcp2515.h</text>
</a>
</g>
</g>
<!-- Node1&#45;&gt;Node12 -->
<g id="edge24" class="edge">
<title>Node1&#45;&gt;Node12</title>
<path fill="none" stroke="#63b8ff" d="M395.08,-226.65C433.71,-223.11 492.62,-212.96 534.5,-184 580.31,-152.33 583.97,-128.68 594.5,-74 597.38,-59.07 596,-41.83 594.12,-29.09"/>
<polygon fill="#63b8ff" stroke="#63b8ff" points="597.56,-28.48 592.42,-19.22 590.66,-29.66 597.56,-28.48"/>
</g>
<!-- Node14 -->
<g id="node14" class="node">
<title>Node14</title>
<g id="a_node14"><a xlink:href="Debug_8h.html" target="_top" xlink:title=" ">
<polygon fill="white" stroke="#666666" points="365,-74 308,-74 308,-55 365,-55 365,-74"/>
<text text-anchor="middle" x="336.5" y="-62" font-family="Helvetica,sans-Serif" font-size="10.00">Debug.h</text>
</a>
</g>
</g>
<!-- Node1&#45;&gt;Node14 -->
<g id="edge25" class="edge">
<title>Node1&#45;&gt;Node14</title>
<path fill="none" stroke="#63b8ff" d="M354.48,-219.74C351.51,-194.31 342.86,-120.08 338.74,-84.69"/>
<polygon fill="#63b8ff" stroke="#63b8ff" points="342.16,-83.83 337.53,-74.31 335.21,-84.64 342.16,-83.83"/>
</g>
<!-- Node4&#45;&gt;Node2 -->
<g id="edge11" class="edge">
<title>Node4&#45;&gt;Node2</title>
<path fill="none" stroke="#63b8ff" d="M200.66,-166.24C167.74,-157.34 111.59,-142.16 73.08,-131.74"/>
<polygon fill="#63b8ff" stroke="#63b8ff" points="73.77,-128.3 63.2,-129.07 71.94,-135.06 73.77,-128.3"/>
</g>
<!-- Node5 -->
<g id="node5" class="node">
<title>Node5</title>
<g id="a_node5"><a xlink:title=" ">
<polygon fill="#e0e0e0" stroke="#999999" points="251,-74 198,-74 198,-55 251,-55 251,-74"/>
<text text-anchor="middle" x="224.5" y="-62" font-family="Helvetica,sans-Serif" font-size="10.00">stdint.h</text>
</a>
</g>
</g>
<!-- Node4&#45;&gt;Node5 -->
<g id="edge4" class="edge">
<title>Node4&#45;&gt;Node5</title>
<path fill="none" stroke="#63b8ff" d="M227.25,-164.66C226.77,-147.17 225.68,-107.8 225.02,-84.27"/>
<polygon fill="#63b8ff" stroke="#63b8ff" points="228.52,-84.06 224.74,-74.16 221.52,-84.25 228.52,-84.06"/>
</g>
<!-- Node6 -->
<g id="node6" class="node">
<title>Node6</title>
<g id="a_node6"><a xlink:href="Queue_8h.html" target="_top" xlink:title=" ">
<polygon fill="white" stroke="#666666" points="138,-129 81,-129 81,-110 138,-110 138,-129"/>
<text text-anchor="middle" x="109.5" y="-117" font-family="Helvetica,sans-Serif" font-size="10.00">Queue.h</text>
</a>
</g>
</g>
<!-- Node4&#45;&gt;Node6 -->
<g id="edge5" class="edge">
<title>Node4&#45;&gt;Node6</title>
<path fill="none" stroke="#63b8ff" d="M208.54,-164.98C189.47,-156.42 159.84,-143.11 137.95,-133.28"/>
<polygon fill="#63b8ff" stroke="#63b8ff" points="139.36,-130.07 128.8,-129.17 136.49,-136.46 139.36,-130.07"/>
</g>
<!-- Node7 -->
<g id="node7" class="node">
<title>Node7</title>
<g id="a_node7"><a xlink:title=" ">
<polygon fill="#e0e0e0" stroke="#999999" points="199,-129 156,-129 156,-110 199,-110 199,-129"/>
<text text-anchor="middle" x="177.5" y="-117" font-family="Helvetica,sans-Serif" font-size="10.00">can.h</text>
</a>
</g>
</g>
<!-- Node4&#45;&gt;Node7 -->
<g id="edge7" class="edge">
<title>Node4&#45;&gt;Node7</title>
<path fill="none" stroke="#63b8ff" d="M219.24,-164.75C212.04,-157.11 201.39,-145.82 192.65,-136.56"/>
<polygon fill="#63b8ff" stroke="#63b8ff" points="195.01,-133.96 185.6,-129.09 189.92,-138.76 195.01,-133.96"/>
</g>
<!-- Node4&#45;&gt;Node8 -->
<g id="edge8" class="edge">
<title>Node4&#45;&gt;Node8</title>
<path fill="none" stroke="#63b8ff" d="M237.78,-164.98C247.34,-157.07 261.78,-145.11 273.28,-135.58"/>
<polygon fill="#63b8ff" stroke="#63b8ff" points="275.56,-138.24 281.03,-129.17 271.1,-132.85 275.56,-138.24"/>
</g>
<!-- Node6&#45;&gt;Node5 -->
<g id="edge6" class="edge">
<title>Node6&#45;&gt;Node5</title>
<path fill="none" stroke="#63b8ff" d="M127.98,-109.98C146.48,-101.46 175.18,-88.23 196.48,-78.41"/>
<polygon fill="#63b8ff" stroke="#63b8ff" points="198.07,-81.53 205.69,-74.17 195.14,-75.18 198.07,-81.53"/>
</g>
<!-- Node8&#45;&gt;Node5 -->
<g id="edge10" class="edge">
<title>Node8&#45;&gt;Node5</title>
<path fill="none" stroke="#63b8ff" d="M280.74,-109.98C270.73,-102.07 255.61,-90.11 243.57,-80.58"/>
<polygon fill="#63b8ff" stroke="#63b8ff" points="245.47,-77.63 235.46,-74.17 241.13,-83.12 245.47,-77.63"/>
</g>
<!-- Node8&#45;&gt;Node9 -->
<g id="edge9" class="edge">
<title>Node8&#45;&gt;Node9</title>
<path fill="none" stroke="#63b8ff" d="M289.97,-109.76C288.17,-96.58 286.75,-71.41 298.5,-55 311.56,-36.76 334.05,-25.77 353.87,-19.27"/>
<polygon fill="#63b8ff" stroke="#63b8ff" points="355.05,-22.57 363.63,-16.35 353.04,-15.87 355.05,-22.57"/>
</g>
<!-- Node10&#45;&gt;Node11 -->
<g id="edge13" class="edge">
<title>Node10&#45;&gt;Node11</title>
<path fill="none" stroke="#63b8ff" d="M501.5,-164.75C501.5,-157.8 501.5,-147.85 501.5,-139.13"/>
<polygon fill="#63b8ff" stroke="#63b8ff" points="505,-139.09 501.5,-129.09 498,-139.09 505,-139.09"/>
</g>
<!-- Node10&#45;&gt;Node12 -->
<g id="edge20" class="edge">
<title>Node10&#45;&gt;Node12</title>
<path fill="none" stroke="#63b8ff" d="M515.24,-164.83C526.91,-156.82 543.33,-143.93 553.5,-129 574.65,-97.93 584.16,-54.21 588.07,-29.48"/>
<polygon fill="#63b8ff" stroke="#63b8ff" points="591.57,-29.69 589.53,-19.29 584.64,-28.69 591.57,-29.69"/>
</g>
<!-- Node11&#45;&gt;Node9 -->
<g id="edge14" class="edge">
<title>Node11&#45;&gt;Node9</title>
<path fill="none" stroke="#63b8ff" d="M491.26,-109.93C480.96,-101.18 464.73,-87.06 451.5,-74 435.99,-58.68 419.3,-40.18 407.83,-27.11"/>
<polygon fill="#63b8ff" stroke="#63b8ff" points="410.31,-24.63 401.1,-19.39 405.03,-29.23 410.31,-24.63"/>
</g>
<!-- Node11&#45;&gt;Node12 -->
<g id="edge15" class="edge">
<title>Node11&#45;&gt;Node12</title>
<path fill="none" stroke="#63b8ff" d="M513.38,-109.87C524.38,-101.51 540.74,-88.06 552.5,-74 564.32,-59.86 574.82,-41.63 581.78,-28.33"/>
<polygon fill="#63b8ff" stroke="#63b8ff" points="584.97,-29.78 586.36,-19.28 578.72,-26.62 584.97,-29.78"/>
</g>
<!-- Node13 -->
<g id="node13" class="node">
<title>Node13</title>
<g id="a_node13"><a xlink:href="Scheduler_8tpp.html" target="_top" xlink:title="Implementation of the Scheduler class template.">
<polygon fill="white" stroke="#666666" points="543,-74 460,-74 460,-55 543,-55 543,-74"/>
<text text-anchor="middle" x="501.5" y="-62" font-family="Helvetica,sans-Serif" font-size="10.00">Scheduler.tpp</text>
</a>
</g>
</g>
<!-- Node11&#45;&gt;Node13 -->
<g id="edge16" class="edge">
<title>Node11&#45;&gt;Node13</title>
<path fill="none" stroke="#63b8ff" d="M496.33,-109.75C494.84,-102.8 494.4,-92.85 495.02,-84.13"/>
<polygon fill="#63b8ff" stroke="#63b8ff" points="498.51,-84.47 496.37,-74.09 491.57,-83.53 498.51,-84.47"/>
</g>
<!-- Node13&#45;&gt;Node9 -->
<g id="edge17" class="edge">
<title>Node13&#45;&gt;Node9</title>
<path fill="none" stroke="#63b8ff" d="M484.15,-54.98C466.93,-46.54 440.3,-33.47 420.35,-23.68"/>
<polygon fill="#63b8ff" stroke="#63b8ff" points="421.69,-20.43 411.17,-19.17 418.6,-26.72 421.69,-20.43"/>
</g>
<!-- Node13&#45;&gt;Node11 -->
<g id="edge19" class="edge">
<title>Node13&#45;&gt;Node11</title>
<path fill="none" stroke="#63b8ff" d="M506.63,-74.09C508.14,-80.99 508.59,-90.93 507.99,-99.66"/>
<polygon fill="#63b8ff" stroke="#63b8ff" points="504.5,-99.38 506.67,-109.75 511.44,-100.29 504.5,-99.38"/>
</g>
<!-- Node13&#45;&gt;Node12 -->
<g id="edge18" class="edge">
<title>Node13&#45;&gt;Node12</title>
<path fill="none" stroke="#63b8ff" d="M515.8,-54.98C529.6,-46.77 550.74,-34.18 567.01,-24.49"/>
<polygon fill="#63b8ff" stroke="#63b8ff" points="569.14,-27.29 575.94,-19.17 565.56,-21.28 569.14,-27.29"/>
</g>
<!-- Node14&#45;&gt;Node9 -->
<g id="edge26" class="edge">
<title>Node14&#45;&gt;Node9</title>
<path fill="none" stroke="#63b8ff" d="M345.66,-54.98C354,-47.23 366.53,-35.58 376.68,-26.14"/>
<polygon fill="#63b8ff" stroke="#63b8ff" points="379.24,-28.54 384.18,-19.17 374.47,-23.42 379.24,-28.54"/>
</g>
</g>
</svg>
