<?xml version="1.0" encoding="UTF-8" standalone="no"?>
<!DOCTYPE svg PUBLIC "-//W3C//DTD SVG 1.1//EN"
 "http://www.w3.org/Graphics/SVG/1.1/DTD/svg11.dtd">
<!-- Generated by graphviz version 2.43.0 (0)
 -->
<!-- Title: schedulerTelemetry Pages: 1 -->
<svg width="643pt" height="134pt"
 viewBox="0.00 0.00 643.00 134.00" xmlns="http://www.w3.org/2000/svg" xmlns:xlink="http://www.w3.org/1999/xlink">
<g id="graph0" class="graph" transform="scale(1 1) rotate(0) translate(4 130)">
<title>schedulerTelemetry</title>
<!-- Node1 -->
<g id="node1" class="node">
<title>Node1</title>
<g id="a_node1"><a xlink:title=" ">
<polygon fill="#999999" stroke="#666666" points="113,-72.5 0,-72.5 0,-53.5 113,-53.5 113,-72.5"/>
<text text-anchor="middle" x="56.5" y="-60.5" font-family="Helvetica,sans-Serif" font-size="10.00">schedulerTelemetry</text>
</a>
</g>
</g>
<!-- Node2 -->
<g id="node2" class="node">
<title>Node2</title>
<g id="a_node2"><a xlink:href="classTelemetry.html#a892ba1df53bea0797e63b8e7a0030d91" target="_top" xlink:title="Sends telemetry data based on the scheduling logic.">
<polygon fill="white" stroke="#666666" points="292,-72.5 149,-72.5 149,-53.5 292,-53.5 292,-72.5"/>
<text text-anchor="middle" x="220.5" y="-60.5" font-family="Helvetica,sans-Serif" font-size="10.00">Telemetry::sendTelemetry</text>
</a>
</g>
</g>
<!-- Node1&#45;&gt;Node2 -->
<g id="edge1" class="edge">
<title>Node1&#45;&gt;Node2</title>
<path fill="none" stroke="#63b8ff" d="M113.25,-63C121.47,-63 130.08,-63 138.69,-63"/>
<polygon fill="#63b8ff" stroke="#63b8ff" points="138.77,-66.5 148.77,-63 138.77,-59.5 138.77,-66.5"/>
</g>
<!-- Node3 -->
<g id="node3" class="node">
<title>Node3</title>
<g id="a_node3"><a xlink:href="classTelemetry.html#a25e2add208dc38e8a1f4e453db89d7f6" target="_top" xlink:title="Internal helper to get and send the BMS telemetry frame.">
<polygon fill="white" stroke="#666666" points="471,-114.5 331,-114.5 331,-95.5 471,-95.5 471,-114.5"/>
<text text-anchor="middle" x="401" y="-102.5" font-family="Helvetica,sans-Serif" font-size="10.00">Telemetry::schedulerBms</text>
</a>
</g>
</g>
<!-- Node2&#45;&gt;Node3 -->
<g id="edge2" class="edge">
<title>Node2&#45;&gt;Node3</title>
<path fill="none" stroke="#63b8ff" d="M262,-72.53C287.93,-78.63 321.77,-86.59 349.45,-93.11"/>
<polygon fill="#63b8ff" stroke="#63b8ff" points="348.81,-96.55 359.35,-95.43 350.41,-89.74 348.81,-96.55"/>
</g>
<!-- Node5 -->
<g id="node5" class="node">
<title>Node5</title>
<g id="a_node5"><a xlink:href="classTelemetry.html#a92acf8de276b3b8ded45d44b97ddd13c" target="_top" xlink:title="Internal helper to get and send the motor telemetry frame.">
<polygon fill="white" stroke="#666666" points="474,-72.5 328,-72.5 328,-53.5 474,-53.5 474,-72.5"/>
<text text-anchor="middle" x="401" y="-60.5" font-family="Helvetica,sans-Serif" font-size="10.00">Telemetry::schedulerMotor</text>
</a>
</g>
</g>
<!-- Node2&#45;&gt;Node5 -->
<g id="edge4" class="edge">
<title>Node2&#45;&gt;Node5</title>
<path fill="none" stroke="#63b8ff" d="M292.05,-63C300.52,-63 309.23,-63 317.86,-63"/>
<polygon fill="#63b8ff" stroke="#63b8ff" points="317.92,-66.5 327.92,-63 317.92,-59.5 317.92,-66.5"/>
</g>
<!-- Node7 -->
<g id="node7" class="node">
<title>Node7</title>
<g id="a_node7"><a xlink:href="classTelemetry.html#ae0589db13eb47fa620f8fc8d9fd0f8be" target="_top" xlink:title="Internal helper to get and send the Pedal telemetry frame.">
<polygon fill="white" stroke="#666666" points="473.5,-30.5 328.5,-30.5 328.5,-11.5 473.5,-11.5 473.5,-30.5"/>
<text text-anchor="middle" x="401" y="-18.5" font-family="Helvetica,sans-Serif" font-size="10.00">Telemetry::schedulerPedal</text>
</a>
</g>
</g>
<!-- Node2&#45;&gt;Node7 -->
<g id="edge6" class="edge">
<title>Node2&#45;&gt;Node7</title>
<path fill="none" stroke="#63b8ff" d="M262,-53.47C287.93,-47.37 321.77,-39.41 349.45,-32.89"/>
<polygon fill="#63b8ff" stroke="#63b8ff" points="350.41,-36.26 359.35,-30.57 348.81,-29.45 350.41,-36.26"/>
</g>
<!-- Node4 -->
<g id="node4" class="node">
<title>Node4</title>
<g id="a_node4"><a xlink:href="structTelemetryFrameBms.html#a6b03b160b930c3a40a06e99f6e6cb175" target="_top" xlink:title="Converts the TelemetryFrameBms to a CAN frame.">
<polygon fill="white" stroke="#666666" points="634.5,-126 510.5,-126 510.5,-96 634.5,-96 634.5,-126"/>
<text text-anchor="start" x="518.5" y="-114" font-family="Helvetica,sans-Serif" font-size="10.00">TelemetryFrameBms::</text>
<text text-anchor="middle" x="572.5" y="-103" font-family="Helvetica,sans-Serif" font-size="10.00">toCanFrame</text>
</a>
</g>
</g>
<!-- Node3&#45;&gt;Node4 -->
<g id="edge3" class="edge">
<title>Node3&#45;&gt;Node4</title>
<path fill="none" stroke="#63b8ff" d="M471.43,-107.46C480.9,-107.79 490.63,-108.14 500.13,-108.47"/>
<polygon fill="#63b8ff" stroke="#63b8ff" points="500.21,-111.98 510.32,-108.83 500.45,-104.98 500.21,-111.98"/>
</g>
<!-- Node6 -->
<g id="node6" class="node">
<title>Node6</title>
<g id="a_node6"><a xlink:href="structTelemetryFrameMotor.html#a34bcb5a8f27caa3a1098c35c051236aa" target="_top" xlink:title="Converts the TelemetryFrameMotor to a CAN frame.">
<polygon fill="white" stroke="#666666" points="635,-78 510,-78 510,-48 635,-48 635,-78"/>
<text text-anchor="start" x="518" y="-66" font-family="Helvetica,sans-Serif" font-size="10.00">TelemetryFrameMotor</text>
<text text-anchor="middle" x="572.5" y="-55" font-family="Helvetica,sans-Serif" font-size="10.00">::toCanFrame</text>
</a>
</g>
</g>
<!-- Node5&#45;&gt;Node6 -->
<g id="edge5" class="edge">
<title>Node5&#45;&gt;Node6</title>
<path fill="none" stroke="#63b8ff" d="M474.37,-63C482.75,-63 491.3,-63 499.67,-63"/>
<polygon fill="#63b8ff" stroke="#63b8ff" points="499.78,-66.5 509.78,-63 499.78,-59.5 499.78,-66.5"/>
</g>
<!-- Node8 -->
<g id="node8" class="node">
<title>Node8</title>
<g id="a_node8"><a xlink:href="structTelemetryFramePedal.html#af36459761c019b01b84e3844f8c38f49" target="_top" xlink:title="Converts the TelemetryFramePedal to a CAN frame.">
<polygon fill="white" stroke="#666666" points="634,-30 511,-30 511,0 634,0 634,-30"/>
<text text-anchor="start" x="519" y="-18" font-family="Helvetica,sans-Serif" font-size="10.00">TelemetryFramePedal</text>
<text text-anchor="middle" x="572.5" y="-7" font-family="Helvetica,sans-Serif" font-size="10.00">::toCanFrame</text>
</a>
</g>
</g>
<!-- Node7&#45;&gt;Node8 -->
<g id="edge7" class="edge">
<title>Node7&#45;&gt;Node8</title>
<path fill="none" stroke="#63b8ff" d="M473.88,-18.46C482.7,-18.14 491.71,-17.82 500.52,-17.51"/>
<polygon fill="#63b8ff" stroke="#63b8ff" points="500.87,-21 510.74,-17.15 500.62,-14.01 500.87,-21"/>
</g>
</g>
</svg>
