<?xml version="1.0" encoding="UTF-8" standalone="no"?>
<!DOCTYPE svg PUBLIC "-//W3C//DTD SVG 1.1//EN"
 "http://www.w3.org/Graphics/SVG/1.1/DTD/svg11.dtd">
<!-- Generated by graphviz version 2.43.0 (0)
 -->
<!-- Title: setup Pages: 1 -->
<svg width="886pt" height="172pt"
 viewBox="0.00 0.00 886.00 172.00" xmlns="http://www.w3.org/2000/svg" xmlns:xlink="http://www.w3.org/1999/xlink">
<g id="graph0" class="graph" transform="scale(1 1) rotate(0) translate(4 168)">
<title>setup</title>
<!-- Node1 -->
<g id="node1" class="node">
<title>Node1</title>
<g id="a_node1"><a xlink:title="Setup function for initializing the VCU system. Initializes MCP2515s, IO pins, as well as own modules...">
<polygon fill="#999999" stroke="#666666" points="44,-94 0,-94 0,-75 44,-75 44,-94"/>
<text text-anchor="middle" x="22" y="-82" font-family="Helvetica,sans-Serif" font-size="10.00">setup</text>
</a>
</g>
</g>
<!-- Node2 -->
<g id="node2" class="node">
<title>Node2</title>
<g id="a_node2"><a xlink:href="Debug_8hpp.html#a8e8d6e3de15309922f25c12f4d7cf727" target="_top" xlink:title="Prints a line to the serial console for general debug.">
<polygon fill="white" stroke="#666666" points="348,-164 246,-164 246,-145 348,-145 348,-164"/>
<text text-anchor="middle" x="297" y="-152" font-family="Helvetica,sans-Serif" font-size="10.00">DBGLN_GENERAL</text>
</a>
</g>
</g>
<!-- Node1&#45;&gt;Node2 -->
<g id="edge1" class="edge">
<title>Node1&#45;&gt;Node2</title>
<path fill="none" stroke="#63b8ff" d="M29.37,-94.12C38.71,-107.28 57.46,-130.42 80,-140.5 129.01,-162.42 190.59,-164.24 235.45,-161.56"/>
<polygon fill="#63b8ff" stroke="#63b8ff" points="235.88,-165.04 245.61,-160.86 235.4,-158.05 235.88,-165.04"/>
</g>
<!-- Node4 -->
<g id="node4" class="node">
<title>Node4</title>
<g id="a_node4"><a xlink:href="namespaceDebug__Serial.html#ad136936636c7b7140cb1e14c55eb5f31" target="_top" xlink:title="Initializes the Debug_Serial interface. It should be called before using any other Debug_Serial funct...">
<polygon fill="white" stroke="#666666" points="209,-131 80,-131 80,-112 209,-112 209,-131"/>
<text text-anchor="middle" x="144.5" y="-119" font-family="Helvetica,sans-Serif" font-size="10.00">Debug_Serial::initialize</text>
</a>
</g>
</g>
<!-- Node1&#45;&gt;Node4 -->
<g id="edge3" class="edge">
<title>Node1&#45;&gt;Node4</title>
<path fill="none" stroke="#63b8ff" d="M44.04,-91.77C54.77,-95.41 68.04,-99.81 80,-103.5 86.11,-105.38 92.57,-107.3 98.94,-109.15"/>
<polygon fill="#63b8ff" stroke="#63b8ff" points="98.23,-112.58 108.81,-111.98 100.16,-105.86 98.23,-112.58"/>
</g>
<!-- Node5 -->
<g id="node5" class="node">
<title>Node5</title>
<g id="a_node5"><a xlink:href="namespaceDebug__CAN.html#a5c8b33000e36a19ccb285e45f666e64e" target="_top" xlink:title="Initializes the Debug_CAN interface. It should be called before using any other Debug_CAN functions.">
<polygon fill="white" stroke="#666666" points="205.5,-94 83.5,-94 83.5,-75 205.5,-75 205.5,-94"/>
<text text-anchor="middle" x="144.5" y="-82" font-family="Helvetica,sans-Serif" font-size="10.00">Debug_CAN::initialize</text>
</a>
</g>
</g>
<!-- Node1&#45;&gt;Node5 -->
<g id="edge4" class="edge">
<title>Node1&#45;&gt;Node5</title>
<path fill="none" stroke="#63b8ff" d="M44.27,-84.5C52.61,-84.5 62.71,-84.5 73.22,-84.5"/>
<polygon fill="#63b8ff" stroke="#63b8ff" points="73.39,-88 83.39,-84.5 73.39,-81 73.39,-88"/>
</g>
<!-- Node6 -->
<g id="node6" class="node">
<title>Node6</title>
<g id="a_node6"><a xlink:href="main_8cpp.html#a95581c94a7dc4a68f61fa24f06cc90d1" target="_top" xlink:title=" ">
<polygon fill="white" stroke="#666666" points="184.5,-57 104.5,-57 104.5,-38 184.5,-38 184.5,-57"/>
<text text-anchor="middle" x="144.5" y="-45" font-family="Helvetica,sans-Serif" font-size="10.00">mcp2515_DL</text>
</a>
</g>
</g>
<!-- Node1&#45;&gt;Node6 -->
<g id="edge5" class="edge">
<title>Node1&#45;&gt;Node6</title>
<path fill="none" stroke="#63b8ff" d="M44.09,-77.76C54.83,-74.34 68.1,-70.16 80,-66.5 86.96,-64.36 94.35,-62.12 101.55,-59.96"/>
<polygon fill="#63b8ff" stroke="#63b8ff" points="102.59,-63.3 111.17,-57.07 100.58,-56.59 102.59,-63.3"/>
</g>
<!-- Node7 -->
<g id="node7" class="node">
<title>Node7</title>
<g id="a_node7"><a xlink:href="main_8cpp.html#a1174b6795782479542559289cd623faf" target="_top" xlink:title=" ">
<polygon fill="white" stroke="#666666" points="192.5,-20 96.5,-20 96.5,-1 192.5,-1 192.5,-20"/>
<text text-anchor="middle" x="144.5" y="-8" font-family="Helvetica,sans-Serif" font-size="10.00">scheduler_pedal</text>
</a>
</g>
</g>
<!-- Node1&#45;&gt;Node7 -->
<g id="edge6" class="edge">
<title>Node1&#45;&gt;Node7</title>
<path fill="none" stroke="#63b8ff" d="M30.37,-74.68C40.3,-62.14 59.13,-40.63 80,-28.5 83.01,-26.75 86.21,-25.16 89.5,-23.72"/>
<polygon fill="#63b8ff" stroke="#63b8ff" points="90.9,-26.93 98.95,-20.04 88.36,-20.41 90.9,-26.93"/>
</g>
<!-- Node3 -->
<g id="node3" class="node">
<title>Node3</title>
<g id="a_node3"><a xlink:href="namespaceDebug__Serial.html#a756fa9286151426012a6f8e178a6c550" target="_top" xlink:title="Prints a string AND a newline to the serial console.">
<polygon fill="white" stroke="#666666" points="716,-150 597,-150 597,-131 716,-131 716,-150"/>
<text text-anchor="middle" x="656.5" y="-138" font-family="Helvetica,sans-Serif" font-size="10.00">Debug_Serial::println</text>
</a>
</g>
</g>
<!-- Node2&#45;&gt;Node3 -->
<g id="edge2" class="edge">
<title>Node2&#45;&gt;Node3</title>
<path fill="none" stroke="#63b8ff" d="M348.09,-152.54C410.36,-150.1 516.95,-145.93 586.82,-143.19"/>
<polygon fill="#63b8ff" stroke="#63b8ff" points="587,-146.69 596.85,-142.8 586.72,-139.69 587,-146.69"/>
</g>
<!-- Node8 -->
<g id="node8" class="node">
<title>Node8</title>
<g id="a_node8"><a xlink:href="classPedal.html#a1027941444ce0b3f32ab8991e05c2015" target="_top" xlink:title="Sends the appropriate CAN frame based on pedal and car state.">
<polygon fill="white" stroke="#666666" points="349,-57 245,-57 245,-38 349,-38 349,-57"/>
<text text-anchor="middle" x="297" y="-45" font-family="Helvetica,sans-Serif" font-size="10.00">Pedal::sendFrame</text>
</a>
</g>
</g>
<!-- Node7&#45;&gt;Node8 -->
<g id="edge7" class="edge">
<title>Node7&#45;&gt;Node8</title>
<path fill="none" stroke="#63b8ff" d="M184.26,-20.03C203.49,-24.76 226.93,-30.52 247.36,-35.54"/>
<polygon fill="#63b8ff" stroke="#63b8ff" points="246.57,-38.95 257.11,-37.94 248.24,-32.15 246.57,-38.95"/>
</g>
<!-- Node9 -->
<g id="node9" class="node">
<title>Node9</title>
<g id="a_node9"><a xlink:href="Debug_8hpp.html#a9a564faad1bd32a5894d3706e38f1067" target="_top" xlink:title="Prints a line to the serial console for throttle debug.">
<polygon fill="white" stroke="#666666" points="518.5,-108 411.5,-108 411.5,-89 518.5,-89 518.5,-108"/>
<text text-anchor="middle" x="465" y="-96" font-family="Helvetica,sans-Serif" font-size="10.00">DBGLN_THROTTLE</text>
</a>
</g>
</g>
<!-- Node8&#45;&gt;Node9 -->
<g id="edge8" class="edge">
<title>Node8&#45;&gt;Node9</title>
<path fill="none" stroke="#63b8ff" d="M329.22,-57.09C355.77,-65.25 394.09,-77.02 423.08,-85.93"/>
<polygon fill="#63b8ff" stroke="#63b8ff" points="422.33,-89.36 432.92,-88.95 424.39,-82.67 422.33,-89.36"/>
</g>
<!-- Node10 -->
<g id="node10" class="node">
<title>Node10</title>
<g id="a_node10"><a xlink:href="classPedal.html#a79e52120f8539d9e847fd0498cc47754" target="_top" xlink:title="Maps the pedal ADC to a torque value, handling deadzones and faults.">
<polygon fill="white" stroke="#666666" points="545,-57 385,-57 385,-38 545,-38 545,-57"/>
<text text-anchor="middle" x="465" y="-45" font-family="Helvetica,sans-Serif" font-size="10.00">Pedal::throttleTorqueMapping</text>
</a>
</g>
</g>
<!-- Node8&#45;&gt;Node10 -->
<g id="edge10" class="edge">
<title>Node8&#45;&gt;Node10</title>
<path fill="none" stroke="#63b8ff" d="M349.16,-47.5C357.31,-47.5 365.94,-47.5 374.66,-47.5"/>
<polygon fill="#63b8ff" stroke="#63b8ff" points="374.92,-51 384.92,-47.5 374.92,-44 374.92,-51"/>
</g>
<!-- Node9&#45;&gt;Node3 -->
<g id="edge9" class="edge">
<title>Node9&#45;&gt;Node3</title>
<path fill="none" stroke="#63b8ff" d="M509,-108.03C536.64,-114.16 572.77,-122.16 602.23,-128.69"/>
<polygon fill="#63b8ff" stroke="#63b8ff" points="601.82,-132.19 612.34,-130.93 603.34,-125.35 601.82,-132.19"/>
</g>
<!-- Node11 -->
<g id="node11" class="node">
<title>Node11</title>
<g id="a_node11"><a xlink:href="classPedal.html#a1dab9adf93f55a5d4477a840a794c0a1" target="_top" xlink:title="Maps the brake ADC to a torque value.">
<polygon fill="white" stroke="#666666" points="732,-95 581,-95 581,-76 732,-76 732,-95"/>
<text text-anchor="middle" x="656.5" y="-83" font-family="Helvetica,sans-Serif" font-size="10.00">Pedal::brakeTorqueMapping</text>
</a>
</g>
</g>
<!-- Node10&#45;&gt;Node11 -->
<g id="edge11" class="edge">
<title>Node10&#45;&gt;Node11</title>
<path fill="none" stroke="#63b8ff" d="M513.82,-57.09C539.39,-62.22 571.06,-68.57 597.97,-73.96"/>
<polygon fill="#63b8ff" stroke="#63b8ff" points="597.53,-77.45 608.03,-75.98 598.91,-70.58 597.53,-77.45"/>
</g>
<!-- Node12 -->
<g id="node12" class="node">
<title>Node12</title>
<g id="a_node12"><a xlink:href="classLinearInterp.html#a3c1654f4a47bb4db5386e38a8bdd6bc1" target="_top" xlink:title=" ">
<polygon fill="white" stroke="#666666" points="878,-76 768,-76 768,-57 878,-57 878,-76"/>
<text text-anchor="middle" x="823" y="-64" font-family="Helvetica,sans-Serif" font-size="10.00">LinearInterp::interp</text>
</a>
</g>
</g>
<!-- Node10&#45;&gt;Node12 -->
<g id="edge13" class="edge">
<title>Node10&#45;&gt;Node12</title>
<path fill="none" stroke="#63b8ff" d="M545.01,-51.72C609.01,-55.13 698.04,-59.88 757.72,-63.07"/>
<polygon fill="#63b8ff" stroke="#63b8ff" points="757.6,-66.57 767.78,-63.61 757.98,-59.58 757.6,-66.57"/>
</g>
<!-- Node13 -->
<g id="node13" class="node">
<title>Node13</title>
<g id="a_node13"><a xlink:href="classLinearInterp.html#ade361a63c34c53564a1bd9e8ae5b6c4b" target="_top" xlink:title=" ">
<polygon fill="white" stroke="#666666" points="708.5,-19 604.5,-19 604.5,0 708.5,0 708.5,-19"/>
<text text-anchor="middle" x="656.5" y="-7" font-family="Helvetica,sans-Serif" font-size="10.00">LinearInterp::start</text>
</a>
</g>
</g>
<!-- Node10&#45;&gt;Node13 -->
<g id="edge14" class="edge">
<title>Node10&#45;&gt;Node13</title>
<path fill="none" stroke="#63b8ff" d="M513.82,-37.91C539.39,-32.78 571.06,-26.43 597.97,-21.04"/>
<polygon fill="#63b8ff" stroke="#63b8ff" points="598.91,-24.42 608.03,-19.02 597.53,-17.55 598.91,-24.42"/>
</g>
<!-- Node11&#45;&gt;Node12 -->
<g id="edge12" class="edge">
<title>Node11&#45;&gt;Node12</title>
<path fill="none" stroke="#63b8ff" d="M732.05,-76.89C740.63,-75.9 749.33,-74.89 757.76,-73.92"/>
<polygon fill="#63b8ff" stroke="#63b8ff" points="758.35,-77.38 767.88,-72.75 757.54,-70.42 758.35,-77.38"/>
</g>
</g>
</svg>
