<?xml version="1.0" encoding="UTF-8" standalone="no"?>
<!DOCTYPE svg PUBLIC "-//W3C//DTD SVG 1.1//EN"
 "http://www.w3.org/Graphics/SVG/1.1/DTD/svg11.dtd">
<!-- Generated by graphviz version 2.43.0 (0)
 -->
<!-- Title: Debug_Serial::println Pages: 1 -->
<svg width="616pt" height="121pt"
 viewBox="0.00 0.00 616.00 121.04" xmlns="http://www.w3.org/2000/svg" xmlns:xlink="http://www.w3.org/1999/xlink">
<g id="graph0" class="graph" transform="scale(1 1) rotate(0) translate(4 117.04)">
<title>Debug_Serial::println</title>
<!-- Node1 -->
<g id="node1" class="node">
<title>Node1</title>
<g id="a_node1"><a xlink:title="Prints a string AND a newline to the serial console.">
<polygon fill="#999999" stroke="#666666" points="608,-56 489,-56 489,-37 608,-37 608,-56"/>
<text text-anchor="middle" x="548.5" y="-44" font-family="Helvetica,sans-Serif" font-size="10.00">Debug_Serial::println</text>
</a>
</g>
</g>
<!-- Node2 -->
<g id="node2" class="node">
<title>Node2</title>
<g id="a_node2"><a xlink:href="Debug_8hpp.html#a8e8d6e3de15309922f25c12f4d7cf727" target="_top" xlink:title="Prints a line to the serial console for general debug.">
<polygon fill="white" stroke="#666666" points="450.5,-56 348.5,-56 348.5,-37 450.5,-37 450.5,-56"/>
<text text-anchor="middle" x="399.5" y="-44" font-family="Helvetica,sans-Serif" font-size="10.00">DBGLN_GENERAL</text>
</a>
</g>
</g>
<!-- Node1&#45;&gt;Node2 -->
<g id="edge1" class="edge">
<title>Node1&#45;&gt;Node2</title>
<path fill="none" stroke="#63b8ff" d="M478.8,-46.5C469.35,-46.5 459.79,-46.5 450.76,-46.5"/>
<polygon fill="#63b8ff" stroke="#63b8ff" points="478.98,-50 488.98,-46.5 478.98,-43 478.98,-50"/>
</g>
<!-- Node7 -->
<g id="node7" class="node">
<title>Node7</title>
<g id="a_node7"><a xlink:href="Debug_8hpp.html#adeb16efc082a41c9b137c2fa9d8162c0" target="_top" xlink:title="Prints a line to the serial console for status debug.">
<polygon fill="white" stroke="#666666" points="446,-19 353,-19 353,0 446,0 446,-19"/>
<text text-anchor="middle" x="399.5" y="-7" font-family="Helvetica,sans-Serif" font-size="10.00">DBGLN_STATUS</text>
</a>
</g>
</g>
<!-- Node1&#45;&gt;Node7 -->
<g id="edge6" class="edge">
<title>Node1&#45;&gt;Node7</title>
<path fill="none" stroke="#63b8ff" d="M499.85,-34.51C479.97,-29.5 457.2,-23.77 438.48,-19.06"/>
<polygon fill="#63b8ff" stroke="#63b8ff" points="499.09,-37.92 509.64,-36.97 500.8,-31.14 499.09,-37.92"/>
</g>
<!-- Node8 -->
<g id="node8" class="node">
<title>Node8</title>
<g id="a_node8"><a xlink:href="Debug_8hpp.html#a9a564faad1bd32a5894d3706e38f1067" target="_top" xlink:title="Prints a line to the serial console for throttle debug.">
<polygon fill="white" stroke="#666666" points="453,-93 346,-93 346,-74 453,-74 453,-93"/>
<text text-anchor="middle" x="399.5" y="-81" font-family="Helvetica,sans-Serif" font-size="10.00">DBGLN_THROTTLE</text>
</a>
</g>
</g>
<!-- Node1&#45;&gt;Node8 -->
<g id="edge7" class="edge">
<title>Node1&#45;&gt;Node8</title>
<path fill="none" stroke="#63b8ff" d="M499.85,-58.49C479.97,-63.5 457.2,-69.23 438.48,-73.94"/>
<polygon fill="#63b8ff" stroke="#63b8ff" points="500.8,-61.86 509.64,-56.03 499.09,-55.08 500.8,-61.86"/>
</g>
<!-- Node3 -->
<g id="node3" class="node">
<title>Node3</title>
<g id="a_node3"><a xlink:href="classBMS.html#a98029edf98499c9a9505fd34462bf272" target="_top" xlink:title="Attempts to start HV. First check BMS is in standby(3) state, then send the HV start command....">
<polygon fill="white" stroke="#666666" points="304,-56 218,-56 218,-37 304,-37 304,-56"/>
<text text-anchor="middle" x="261" y="-44" font-family="Helvetica,sans-Serif" font-size="10.00">BMS::checkHv</text>
</a>
</g>
</g>
<!-- Node2&#45;&gt;Node3 -->
<g id="edge2" class="edge">
<title>Node2&#45;&gt;Node3</title>
<path fill="none" stroke="#63b8ff" d="M338.13,-46.5C326.76,-46.5 315.09,-46.5 304.41,-46.5"/>
<polygon fill="#63b8ff" stroke="#63b8ff" points="338.45,-50 348.45,-46.5 338.45,-43 338.45,-50"/>
</g>
<!-- Node6 -->
<g id="node6" class="node">
<title>Node6</title>
<g id="a_node6"><a xlink:href="main_8cpp.html#a4fc01d736fe50cf5b977f755b675f11d" target="_top" xlink:title="Setup function for initializing the VCU system. Initializes MCP2515s, IO pins, as well as own modules...">
<polygon fill="white" stroke="#666666" points="44,-56 0,-56 0,-37 44,-37 44,-56"/>
<text text-anchor="middle" x="22" y="-44" font-family="Helvetica,sans-Serif" font-size="10.00">setup</text>
</a>
</g>
</g>
<!-- Node2&#45;&gt;Node6 -->
<g id="edge5" class="edge">
<title>Node2&#45;&gt;Node6</title>
<path fill="none" stroke="#63b8ff" d="M352.52,-34.7C338.93,-31.74 323.95,-28.98 310,-27.5 208.35,-16.71 180.9,-11.13 80,-27.5 67.85,-29.47 54.79,-33.66 44.24,-37.61"/>
<polygon fill="#63b8ff" stroke="#63b8ff" points="352.08,-38.19 362.61,-36.99 353.63,-31.36 352.08,-38.19"/>
</g>
<!-- Node4 -->
<g id="node4" class="node">
<title>Node4</title>
<g id="a_node4"><a xlink:href="main_8cpp.html#a1ea17ca2552291c88af3e9ec6804264b" target="_top" xlink:title=" ">
<polygon fill="white" stroke="#666666" points="173,-56 83,-56 83,-37 173,-37 173,-56"/>
<text text-anchor="middle" x="128" y="-44" font-family="Helvetica,sans-Serif" font-size="10.00">scheduler_bms</text>
</a>
</g>
</g>
<!-- Node3&#45;&gt;Node4 -->
<g id="edge3" class="edge">
<title>Node3&#45;&gt;Node4</title>
<path fill="none" stroke="#63b8ff" d="M207.6,-46.5C196.25,-46.5 184.35,-46.5 173.35,-46.5"/>
<polygon fill="#63b8ff" stroke="#63b8ff" points="207.83,-50 217.83,-46.5 207.83,-43 207.83,-50"/>
</g>
<!-- Node5 -->
<g id="node5" class="node">
<title>Node5</title>
<g id="a_node5"><a xlink:href="main_8cpp.html#afe461d27b9c48d5921c00d521181f12f" target="_top" xlink:title="Main loop function for the VCU system. Handles car state transitions, pipes dataflow between modules.">
<polygon fill="white" stroke="#666666" points="41,-93 3,-93 3,-74 41,-74 41,-93"/>
<text text-anchor="middle" x="22" y="-81" font-family="Helvetica,sans-Serif" font-size="10.00">loop</text>
</a>
</g>
</g>
<!-- Node4&#45;&gt;Node5 -->
<g id="edge4" class="edge">
<title>Node4&#45;&gt;Node5</title>
<path fill="none" stroke="#63b8ff" d="M90.7,-59.42C73.96,-65.37 54.82,-72.18 41.18,-77.03"/>
<polygon fill="#63b8ff" stroke="#63b8ff" points="91.97,-62.68 100.22,-56.03 89.62,-56.08 91.97,-62.68"/>
</g>
<!-- Node8&#45;&gt;Node5 -->
<g id="edge11" class="edge">
<title>Node8&#45;&gt;Node5</title>
<path fill="none" stroke="#63b8ff" d="M352.52,-95.3C338.93,-98.26 323.95,-101.02 310,-102.5 208.35,-113.29 180.9,-118.87 80,-102.5 66.61,-100.33 52.12,-95.46 41.1,-91.2"/>
<polygon fill="#63b8ff" stroke="#63b8ff" points="353.63,-98.64 362.61,-93.01 352.08,-91.81 353.63,-98.64"/>
</g>
<!-- Node9 -->
<g id="node9" class="node">
<title>Node9</title>
<g id="a_node9"><a xlink:href="classPedal.html#affd04caf8f42a15c8942567b44e1186e" target="_top" xlink:title="Updates the CAN frame with the most recent pedal value.">
<polygon fill="white" stroke="#666666" points="310,-93 212,-93 212,-74 310,-74 310,-93"/>
<text text-anchor="middle" x="261" y="-81" font-family="Helvetica,sans-Serif" font-size="10.00">Pedal::canFrame</text>
</a>
</g>
</g>
<!-- Node8&#45;&gt;Node9 -->
<g id="edge8" class="edge">
<title>Node8&#45;&gt;Node9</title>
<path fill="none" stroke="#63b8ff" d="M335.45,-83.5C326.96,-83.5 318.35,-83.5 310.17,-83.5"/>
<polygon fill="#63b8ff" stroke="#63b8ff" points="335.73,-87 345.73,-83.5 335.73,-80 335.73,-87"/>
</g>
<!-- Node10 -->
<g id="node10" class="node">
<title>Node10</title>
<g id="a_node10"><a xlink:href="main_8cpp.html#a2668d80d0711f29d4507c48eb984f684" target="_top" xlink:title=" ">
<polygon fill="white" stroke="#666666" points="176,-93 80,-93 80,-74 176,-74 176,-93"/>
<text text-anchor="middle" x="128" y="-81" font-family="Helvetica,sans-Serif" font-size="10.00">scheduler_pedal</text>
</a>
</g>
</g>
<!-- Node9&#45;&gt;Node10 -->
<g id="edge9" class="edge">
<title>Node9&#45;&gt;Node10</title>
<path fill="none" stroke="#63b8ff" d="M201.95,-83.5C193.33,-83.5 184.52,-83.5 176.16,-83.5"/>
<polygon fill="#63b8ff" stroke="#63b8ff" points="201.96,-87 211.96,-83.5 201.96,-80 201.96,-87"/>
</g>
<!-- Node10&#45;&gt;Node6 -->
<g id="edge10" class="edge">
<title>Node10&#45;&gt;Node6</title>
<path fill="none" stroke="#63b8ff" d="M90.39,-70.48C74.9,-64.96 57.4,-58.74 44.12,-54.01"/>
<polygon fill="#63b8ff" stroke="#63b8ff" points="89.62,-73.92 100.22,-73.97 91.97,-67.32 89.62,-73.92"/>
</g>
</g>
</svg>
