<?xml version="1.0" encoding="UTF-8" standalone="no"?>
<!DOCTYPE svg PUBLIC "-//W3C//DTD SVG 1.1//EN"
 "http://www.w3.org/Graphics/SVG/1.1/DTD/svg11.dtd">
<!-- Generated by graphviz version 2.43.0 (0)
 -->
<!-- Title: Debug_CAN::throttle_fault Pages: 1 -->
<!--zoomable 52 -->
<svg id="main" version="1.1" xmlns="http://www.w3.org/2000/svg" xmlns:xlink="http://www.w3.org/1999/xlink" xml:space="preserve" onload="init(evt)">
<style type="text/css"><![CDATA[
.edge:hover path { stroke: red; }
.edge:hover polygon { stroke: red; fill: red; }
]]></style>
<script type="text/javascript"><![CDATA[
var edges = document.getElementsByTagName('g');
if (edges && edges.length) {
  for (var i=0;i<edges.length;i++) {
    if (edges[i].id.substr(0,4)=='edge') {
      edges[i].setAttribute('class','edge');
    }
  }
}
]]></script>
        <defs>
                <circle id="rim" cx="0" cy="0" r="7"/>
                <circle id="rim2" cx="0" cy="0" r="3.5"/>
                <g id="zoomPlus">
                        <use xlink:href="#rim" fill="#404040">
                                <set attributeName="fill" to="#808080" begin="zoomplus.mouseover" end="zoomplus.mouseout"/>
                        </use>
                        <path d="M-4,0h8M0,-4v8" fill="none" stroke="white" stroke-width="1.5" pointer-events="none"/>
                </g>
                <g id="zoomMin">
                        <use xlink:href="#rim" fill="#404040">
                                <set attributeName="fill" to="#808080" begin="zoomminus.mouseover" end="zoomminus.mouseout"/>
                        </use>
                        <path d="M-4,0h8" fill="none" stroke="white" stroke-width="1.5" pointer-events="none"/>
                </g>
                <g id="dirArrow">
                        <path fill="none" stroke="white" stroke-width="1.5" d="M0,-3.0v7 M-2.5,-0.5L0,-3.0L2.5,-0.5"/>
                </g>
               <g id="resetDef">
                       <use xlink:href="#rim2" fill="#404040">
                               <set attributeName="fill" to="#808080" begin="reset.mouseover" end="reset.mouseout"/>
                       </use>
               </g>
        </defs>

<script type="text/javascript">
var viewWidth = 646;
var viewHeight = 52;
var sectionId = 'dynsection-2';
</script>
<script xlink:href="svgpan.js"/>
<svg id="graph" class="graph">
<g id="viewport">
<title>Debug_CAN::throttle_fault</title>
<!-- Node1 -->
<g id="node1" class="node">
<title>Node1</title>
<g id="a_node1"><a xlink:title="Sends a debug throttle fault message over CAN with a float value.">
<polygon fill="#999999" stroke="#666666" points="638,-30 522,-30 522,0 638,0 638,-30"/>
<text text-anchor="start" x="530" y="-18" font-family="Helvetica,sans-Serif" font-size="10.00">Debug_CAN::throttle</text>
<text text-anchor="middle" x="580" y="-7" font-family="Helvetica,sans-Serif" font-size="10.00">_fault</text>
</a>
</g>
</g>
<!-- Node2 -->
<g id="node2" class="node">
<title>Node2</title>
<g id="a_node2"><a xlink:href="Debug_8hpp.html#a27a4d84e5afbe5f46066606c2cfcd97d" target="_top" xlink:title="Sends throttle fault debug info via CAN or serial (if enabled). Overloads for fault status with or wi...">
<polygon fill="white" stroke="#666666" points="486,-24.5 357,-24.5 357,-5.5 486,-5.5 486,-24.5"/>
<text text-anchor="middle" x="421.5" y="-12.5" font-family="Helvetica,sans-Serif" font-size="10.00">DBG_THROTTLE_FAULT</text>
</a>
</g>
</g>
<!-- Node1&#45;&gt;Node2 -->
<g id="edge1" class="edge">
<title>Node1&#45;&gt;Node2</title>
<path fill="none" stroke="#63b8ff" d="M511.49,-15C503.1,-15 494.55,-15 486.22,-15"/>
<polygon fill="#63b8ff" stroke="#63b8ff" points="511.61,-18.5 521.61,-15 511.61,-11.5 511.61,-18.5"/>
</g>
<!-- Node3 -->
<g id="node3" class="node">
<title>Node3</title>
<g id="a_node3"><a xlink:href="classPedal.html#a4025bb96ea422dbba6d3b604a1066bc7" target="_top" xlink:title="Checks for a fault between two pedal sensor readings.">
<polygon fill="white" stroke="#666666" points="321,-43.5 193,-43.5 193,-24.5 321,-24.5 321,-43.5"/>
<text text-anchor="middle" x="257" y="-31.5" font-family="Helvetica,sans-Serif" font-size="10.00">Pedal::checkPedalFault</text>
</a>
</g>
</g>
<!-- Node2&#45;&gt;Node3 -->
<g id="edge2" class="edge">
<title>Node2&#45;&gt;Node3</title>
<path fill="none" stroke="#63b8ff" d="M346.74,-23.62C338.16,-24.63 329.46,-25.64 321.04,-26.63"/>
<polygon fill="#63b8ff" stroke="#63b8ff" points="347.22,-27.09 356.74,-22.45 346.4,-20.14 347.22,-27.09"/>
</g>
<!-- Node4 -->
<g id="node4" class="node">
<title>Node4</title>
<g id="a_node4"><a xlink:href="classPedal.html#a0ec014fb5ce414deded33ae3db05e231" target="_top" xlink:title="Updates pedal sensor readings, applies filtering, and checks for faults.">
<polygon fill="white" stroke="#666666" points="157,-24.5 74,-24.5 74,-5.5 157,-5.5 157,-24.5"/>
<text text-anchor="middle" x="115.5" y="-12.5" font-family="Helvetica,sans-Serif" font-size="10.00">Pedal::update</text>
</a>
</g>
</g>
<!-- Node2&#45;&gt;Node4 -->
<g id="edge5" class="edge">
<title>Node2&#45;&gt;Node4</title>
<path fill="none" stroke="#63b8ff" d="M346.68,-15C287.17,-15 205.7,-15 157.34,-15"/>
<polygon fill="#63b8ff" stroke="#63b8ff" points="346.77,-18.5 356.77,-15 346.77,-11.5 346.77,-18.5"/>
</g>
<!-- Node3&#45;&gt;Node4 -->
<g id="edge3" class="edge">
<title>Node3&#45;&gt;Node4</title>
<path fill="none" stroke="#63b8ff" d="M182.82,-24.03C173.99,-22.83 165.24,-21.64 157.13,-20.53"/>
<polygon fill="#63b8ff" stroke="#63b8ff" points="182.4,-27.51 192.78,-25.39 183.34,-20.57 182.4,-27.51"/>
</g>
<!-- Node5 -->
<g id="node5" class="node">
<title>Node5</title>
<g id="a_node5"><a xlink:href="main_8cpp.html#afe461d27b9c48d5921c00d521181f12f" target="_top" xlink:title="Main loop function for the VCU system. Handles car state transitions, pipes dataflow between modules.">
<polygon fill="white" stroke="#666666" points="38,-24.5 0,-24.5 0,-5.5 38,-5.5 38,-24.5"/>
<text text-anchor="middle" x="19" y="-12.5" font-family="Helvetica,sans-Serif" font-size="10.00">loop</text>
</a>
</g>
</g>
<!-- Node4&#45;&gt;Node5 -->
<g id="edge4" class="edge">
<title>Node4&#45;&gt;Node5</title>
<path fill="none" stroke="#63b8ff" d="M63.63,-15C54.56,-15 45.67,-15 38.3,-15"/>
<polygon fill="#63b8ff" stroke="#63b8ff" points="63.88,-18.5 73.88,-15 63.88,-11.5 63.88,-18.5"/>
</g>
</g>
</svg>
        <g id="navigator" transform="translate(0 0)" fill="#404254">
                <rect fill="#f2f5e9" fill-opacity="0.5" stroke="#606060" stroke-width=".5" x="0" y="0" width="60" height="60"/>
                <use id="zoomplus" xlink:href="#zoomPlus" x="17" y="9" onmousedown="handleZoom(evt,'in')"/>
                <use id="zoomminus" xlink:href="#zoomMin" x="42" y="9" onmousedown="handleZoom(evt,'out')"/>
                <use id="reset" xlink:href="#resetDef" x="30" y="36" onmousedown="handleReset()"/>
                <g id="arrowUp" xlink:href="#dirArrow" transform="translate(30 24)" onmousedown="handlePan(0,-1)">
                  <use xlink:href="#rim" fill="#404040">
                        <set attributeName="fill" to="#808080" begin="arrowUp.mouseover" end="arrowUp.mouseout"/>
                  </use>
                  <path fill="none" stroke="white" stroke-width="1.5" d="M0,-3.0v7 M-2.5,-0.5L0,-3.0L2.5,-0.5"/>
                </g>
                <g id="arrowRight" xlink:href="#dirArrow" transform="rotate(90) translate(36 -43)" onmousedown="handlePan(1,0)">
                  <use xlink:href="#rim" fill="#404040">
                        <set attributeName="fill" to="#808080" begin="arrowRight.mouseover" end="arrowRight.mouseout"/>
                  </use>
                  <path fill="none" stroke="white" stroke-width="1.5" d="M0,-3.0v7 M-2.5,-0.5L0,-3.0L2.5,-0.5"/>
                </g>
                <g id="arrowDown" xlink:href="#dirArrow" transform="rotate(180) translate(-30 -48)" onmousedown="handlePan(0,1)">
                  <use xlink:href="#rim" fill="#404040">
                        <set attributeName="fill" to="#808080" begin="arrowDown.mouseover" end="arrowDown.mouseout"/>
                  </use>
                  <path fill="none" stroke="white" stroke-width="1.5" d="M0,-3.0v7 M-2.5,-0.5L0,-3.0L2.5,-0.5"/>
                </g>
                <g id="arrowLeft" xlink:href="#dirArrow" transform="rotate(270) translate(-36 17)" onmousedown="handlePan(-1,0)">
                  <use xlink:href="#rim" fill="#404040">
                        <set attributeName="fill" to="#808080" begin="arrowLeft.mouseover" end="arrowLeft.mouseout"/>
                  </use>
                  <path fill="none" stroke="white" stroke-width="1.5" d="M0,-3.0v7 M-2.5,-0.5L0,-3.0L2.5,-0.5"/>
                </g>
        </g>
        <svg viewBox="0 0 15 15" width="100%" height="30px" preserveAspectRatio="xMaxYMin meet">
         <g id="arrow_out" transform="scale(0.3 0.3)">
          <a xlink:href="namespaceDebug__CAN_a8e6443068f8aa21ba673ad7bc132e739_icgraph_org.svg" target="_base">
           <rect id="button" ry="5" rx="5" y="6" x="6" height="38" width="38"
                fill="#f2f5e9" fill-opacity="0.5" stroke="#606060" stroke-width="1.0"/>
           <path id="arrow"
             d="M 11.500037,31.436501 C 11.940474,20.09759 22.043105,11.32322 32.158766,21.979434 L 37.068811,17.246167 C 37.068811,17.246167 37.088388,32 37.088388,32 L 22.160133,31.978069 C 22.160133,31.978069 26.997745,27.140456 26.997745,27.140456 C 18.528582,18.264221 13.291696,25.230495 11.500037,31.436501 z"
             style="fill:#404040;"/>
          </a>
         </g>
        </svg>
</svg>
