<?xml version="1.0" encoding="UTF-8" standalone="no"?>
<!DOCTYPE svg PUBLIC "-//W3C//DTD SVG 1.1//EN"
 "http://www.w3.org/Graphics/SVG/1.1/DTD/svg11.dtd">
<!-- Generated by graphviz version 2.43.0 (0)
 -->
<!-- Title: Debug_CAN::status_car Pages: 1 -->
<svg width="361pt" height="64pt"
 viewBox="0.00 0.00 361.00 64.00" xmlns="http://www.w3.org/2000/svg" xmlns:xlink="http://www.w3.org/1999/xlink">
<g id="graph0" class="graph" transform="scale(1 1) rotate(0) translate(4 60)">
<title>Debug_CAN::status_car</title>
<!-- Node1 -->
<g id="node1" class="node">
<title>Node1</title>
<g id="a_node1"><a xlink:title="Sends a debug car status message over CAN. This function prepares a CAN frame with the current car st...">
<polygon fill="#999999" stroke="#666666" points="353,-37 222,-37 222,-18 353,-18 353,-37"/>
<text text-anchor="middle" x="287.5" y="-25" font-family="Helvetica,sans-Serif" font-size="10.00">Debug_CAN::status_car</text>
</a>
</g>
</g>
<!-- Node2 -->
<g id="node2" class="node">
<title>Node2</title>
<g id="a_node2"><a xlink:href="Debug_8h.html#a306ca7fb070dd487be4ea4ec3de74b85" target="_top" xlink:title="Sends car status debug info via CAN or serial (if enabled).">
<polygon fill="white" stroke="#666666" points="186,-37 80,-37 80,-18 186,-18 186,-37"/>
<text text-anchor="middle" x="133" y="-25" font-family="Helvetica,sans-Serif" font-size="10.00">DBG_STATUS_CAR</text>
</a>
</g>
</g>
<!-- Node1&#45;&gt;Node2 -->
<g id="edge1" class="edge">
<title>Node1&#45;&gt;Node2</title>
<path fill="none" stroke="#63b8ff" d="M211.76,-27.5C203.16,-27.5 194.52,-27.5 186.31,-27.5"/>
<polygon fill="#63b8ff" stroke="#63b8ff" points="211.83,-31 221.83,-27.5 211.83,-24 211.83,-31"/>
</g>
<!-- Node3 -->
<g id="node3" class="node">
<title>Node3</title>
<g id="a_node3"><a xlink:href="main_8cpp.html#afe461d27b9c48d5921c00d521181f12f" target="_top" xlink:title="Main loop function for the VCU system. Handles car state transitions, pipes dataflow between modules.">
<polygon fill="white" stroke="#666666" points="41,-56 3,-56 3,-37 41,-37 41,-56"/>
<text text-anchor="middle" x="22" y="-44" font-family="Helvetica,sans-Serif" font-size="10.00">loop</text>
</a>
</g>
</g>
<!-- Node2&#45;&gt;Node3 -->
<g id="edge2" class="edge">
<title>Node2&#45;&gt;Node3</title>
<path fill="none" stroke="#63b8ff" d="M69.67,-38.37C59.24,-40.18 49.2,-41.93 41.13,-43.34"/>
<polygon fill="#63b8ff" stroke="#63b8ff" points="70.48,-41.78 79.73,-36.61 69.28,-34.88 70.48,-41.78"/>
</g>
<!-- Node4 -->
<g id="node4" class="node">
<title>Node4</title>
<g id="a_node4"><a xlink:href="main_8cpp.html#a4fc01d736fe50cf5b977f755b675f11d" target="_top" xlink:title="Setup function for initializing the VCU system. Initializes MCP2515s, IO pins, as well as own modules...">
<polygon fill="white" stroke="#666666" points="44,-19 0,-19 0,0 44,0 44,-19"/>
<text text-anchor="middle" x="22" y="-7" font-family="Helvetica,sans-Serif" font-size="10.00">setup</text>
</a>
</g>
</g>
<!-- Node2&#45;&gt;Node4 -->
<g id="edge3" class="edge">
<title>Node2&#45;&gt;Node4</title>
<path fill="none" stroke="#63b8ff" d="M69.74,-17.22C60.59,-15.71 51.73,-14.24 44.24,-13.01"/>
<polygon fill="#63b8ff" stroke="#63b8ff" points="69.3,-20.69 79.73,-18.87 70.44,-13.79 69.3,-20.69"/>
</g>
</g>
</svg>
