<?xml version="1.0" encoding="UTF-8" standalone="no"?>
<!DOCTYPE svg PUBLIC "-//W3C//DTD SVG 1.1//EN"
 "http://www.w3.org/Graphics/SVG/1.1/DTD/svg11.dtd">
<!-- Generated by graphviz version 2.43.0 (0)
 -->
<!-- Title: Debug_CAN::throttle_fault Pages: 1 -->
<svg width="646pt" height="52pt"
 viewBox="0.00 0.00 646.00 51.50" xmlns="http://www.w3.org/2000/svg" xmlns:xlink="http://www.w3.org/1999/xlink">
<g id="graph0" class="graph" transform="scale(1 1) rotate(0) translate(4 47.5)">
<title>Debug_CAN::throttle_fault</title>
<!-- Node1 -->
<g id="node1" class="node">
<title>Node1</title>
<g id="a_node1"><a xlink:title="Sends a debug throttle fault message over CAN with a float value.">
<polygon fill="#999999" stroke="#666666" points="638,-30 522,-30 522,0 638,0 638,-30"/>
<text text-anchor="start" x="530" y="-18" font-family="Helvetica,sans-Serif" font-size="10.00">Debug_CAN::throttle</text>
<text text-anchor="middle" x="580" y="-7" font-family="Helvetica,sans-Serif" font-size="10.00">_fault</text>
</a>
</g>
</g>
<!-- Node2 -->
<g id="node2" class="node">
<title>Node2</title>
<g id="a_node2"><a xlink:href="Debug_8hpp.html#a83973b3fea610da634610d01cd98e2d8" target="_top" xlink:title="Sends throttle fault debug info via CAN or serial (if enabled). Overloads for fault status with or wi...">
<polygon fill="white" stroke="#666666" points="486,-24.5 357,-24.5 357,-5.5 486,-5.5 486,-24.5"/>
<text text-anchor="middle" x="421.5" y="-12.5" font-family="Helvetica,sans-Serif" font-size="10.00">DBG_THROTTLE_FAULT</text>
</a>
</g>
</g>
<!-- Node1&#45;&gt;Node2 -->
<g id="edge1" class="edge">
<title>Node1&#45;&gt;Node2</title>
<path fill="none" stroke="#63b8ff" d="M511.49,-15C503.1,-15 494.55,-15 486.22,-15"/>
<polygon fill="#63b8ff" stroke="#63b8ff" points="511.61,-18.5 521.61,-15 511.61,-11.5 511.61,-18.5"/>
</g>
<!-- Node3 -->
<g id="node3" class="node">
<title>Node3</title>
<g id="a_node3"><a xlink:href="classPedal.html#a4025bb96ea422dbba6d3b604a1066bc7" target="_top" xlink:title="Checks for a fault between two pedal sensor readings.">
<polygon fill="white" stroke="#666666" points="321,-43.5 193,-43.5 193,-24.5 321,-24.5 321,-43.5"/>
<text text-anchor="middle" x="257" y="-31.5" font-family="Helvetica,sans-Serif" font-size="10.00">Pedal::checkPedalFault</text>
</a>
</g>
</g>
<!-- Node2&#45;&gt;Node3 -->
<g id="edge2" class="edge">
<title>Node2&#45;&gt;Node3</title>
<path fill="none" stroke="#63b8ff" d="M346.74,-23.62C338.16,-24.63 329.46,-25.64 321.04,-26.63"/>
<polygon fill="#63b8ff" stroke="#63b8ff" points="347.22,-27.09 356.74,-22.45 346.4,-20.14 347.22,-27.09"/>
</g>
<!-- Node4 -->
<g id="node4" class="node">
<title>Node4</title>
<g id="a_node4"><a xlink:href="classPedal.html#a0ec014fb5ce414deded33ae3db05e231" target="_top" xlink:title="Updates pedal sensor readings, applies filtering, and checks for faults.">
<polygon fill="white" stroke="#666666" points="157,-24.5 74,-24.5 74,-5.5 157,-5.5 157,-24.5"/>
<text text-anchor="middle" x="115.5" y="-12.5" font-family="Helvetica,sans-Serif" font-size="10.00">Pedal::update</text>
</a>
</g>
</g>
<!-- Node2&#45;&gt;Node4 -->
<g id="edge5" class="edge">
<title>Node2&#45;&gt;Node4</title>
<path fill="none" stroke="#63b8ff" d="M346.68,-15C287.17,-15 205.7,-15 157.34,-15"/>
<polygon fill="#63b8ff" stroke="#63b8ff" points="346.77,-18.5 356.77,-15 346.77,-11.5 346.77,-18.5"/>
</g>
<!-- Node3&#45;&gt;Node4 -->
<g id="edge3" class="edge">
<title>Node3&#45;&gt;Node4</title>
<path fill="none" stroke="#63b8ff" d="M182.82,-24.03C173.99,-22.83 165.24,-21.64 157.13,-20.53"/>
<polygon fill="#63b8ff" stroke="#63b8ff" points="182.4,-27.51 192.78,-25.39 183.34,-20.57 182.4,-27.51"/>
</g>
<!-- Node5 -->
<g id="node5" class="node">
<title>Node5</title>
<g id="a_node5"><a xlink:href="main_8cpp.html#afe461d27b9c48d5921c00d521181f12f" target="_top" xlink:title="Main loop function for the VCU system. Handles car state transitions, pipes dataflow between modules.">
<polygon fill="white" stroke="#666666" points="38,-24.5 0,-24.5 0,-5.5 38,-5.5 38,-24.5"/>
<text text-anchor="middle" x="19" y="-12.5" font-family="Helvetica,sans-Serif" font-size="10.00">loop</text>
</a>
</g>
</g>
<!-- Node4&#45;&gt;Node5 -->
<g id="edge4" class="edge">
<title>Node4&#45;&gt;Node5</title>
<path fill="none" stroke="#63b8ff" d="M63.63,-15C54.56,-15 45.67,-15 38.3,-15"/>
<polygon fill="#63b8ff" stroke="#63b8ff" points="63.88,-18.5 73.88,-15 63.88,-11.5 63.88,-18.5"/>
</g>
</g>
</svg>
