<?xml version="1.0" encoding="UTF-8" standalone="no"?>
<!DOCTYPE svg PUBLIC "-//W3C//DTD SVG 1.1//EN"
 "http://www.w3.org/Graphics/SVG/1.1/DTD/svg11.dtd">
<!-- Generated by graphviz version 2.43.0 (0)
 -->
<!-- Title: Debug_Serial::print Pages: 1 -->
<svg width="597pt" height="101pt"
 viewBox="0.00 0.00 597.00 101.00" xmlns="http://www.w3.org/2000/svg" xmlns:xlink="http://www.w3.org/1999/xlink">
<g id="graph0" class="graph" transform="scale(1 1) rotate(0) translate(4 97)">
<title>Debug_Serial::print</title>
<!-- Node1 -->
<g id="node1" class="node">
<title>Node1</title>
<g id="a_node1"><a xlink:title="Prints a string to the serial console.">
<polygon fill="#999999" stroke="#666666" points="589,-56 479,-56 479,-37 589,-37 589,-56"/>
<text text-anchor="middle" x="534" y="-44" font-family="Helvetica,sans-Serif" font-size="10.00">Debug_Serial::print</text>
</a>
</g>
</g>
<!-- Node2 -->
<g id="node2" class="node">
<title>Node2</title>
<g id="a_node2"><a xlink:href="Debug_8hpp.html#a9d60671317b513353287b53444954a4b" target="_top" xlink:title="Prints a general debug message to the serial console.">
<polygon fill="white" stroke="#666666" points="440,-93 351,-93 351,-74 440,-74 440,-93"/>
<text text-anchor="middle" x="395.5" y="-81" font-family="Helvetica,sans-Serif" font-size="10.00">DBG_GENERAL</text>
</a>
</g>
</g>
<!-- Node1&#45;&gt;Node2 -->
<g id="edge1" class="edge">
<title>Node1&#45;&gt;Node2</title>
<path fill="none" stroke="#63b8ff" d="M488.03,-58.69C469.83,-63.62 449.12,-69.24 432.01,-73.88"/>
<polygon fill="#63b8ff" stroke="#63b8ff" points="489.11,-62.02 497.85,-56.03 487.28,-55.27 489.11,-62.02"/>
</g>
<!-- Node3 -->
<g id="node3" class="node">
<title>Node3</title>
<g id="a_node3"><a xlink:href="Debug_8hpp.html#a3c41dd69d26e414610765b6feb86c475" target="_top" xlink:title="Prints a status message to the serial console.">
<polygon fill="white" stroke="#666666" points="435.5,-56 355.5,-56 355.5,-37 435.5,-37 435.5,-56"/>
<text text-anchor="middle" x="395.5" y="-44" font-family="Helvetica,sans-Serif" font-size="10.00">DBG_STATUS</text>
</a>
</g>
</g>
<!-- Node1&#45;&gt;Node3 -->
<g id="edge2" class="edge">
<title>Node1&#45;&gt;Node3</title>
<path fill="none" stroke="#63b8ff" d="M468.41,-46.5C457.17,-46.5 445.8,-46.5 435.52,-46.5"/>
<polygon fill="#63b8ff" stroke="#63b8ff" points="468.66,-50 478.66,-46.5 468.66,-43 468.66,-50"/>
</g>
<!-- Node4 -->
<g id="node4" class="node">
<title>Node4</title>
<g id="a_node4"><a xlink:href="Debug_8hpp.html#a9d3888b021fa82a4c78185a961fdad84" target="_top" xlink:title="Prints a throttle debug message to the serial console.">
<polygon fill="white" stroke="#666666" points="443,-19 348,-19 348,0 443,0 443,-19"/>
<text text-anchor="middle" x="395.5" y="-7" font-family="Helvetica,sans-Serif" font-size="10.00">DBG_THROTTLE</text>
</a>
</g>
</g>
<!-- Node1&#45;&gt;Node4 -->
<g id="edge3" class="edge">
<title>Node1&#45;&gt;Node4</title>
<path fill="none" stroke="#63b8ff" d="M488.03,-34.31C469.83,-29.38 449.12,-23.76 432.01,-19.12"/>
<polygon fill="#63b8ff" stroke="#63b8ff" points="487.28,-37.73 497.85,-36.97 489.11,-30.98 487.28,-37.73"/>
</g>
<!-- Node5 -->
<g id="node5" class="node">
<title>Node5</title>
<g id="a_node5"><a xlink:href="classPedal.html#aa66167fb494c00db7b8a0b8140e85973" target="_top" xlink:title="Reads motor data from the CAN bus and updates the CarState.">
<polygon fill="white" stroke="#666666" points="312,-19 212,-19 212,0 312,0 312,-19"/>
<text text-anchor="middle" x="262" y="-7" font-family="Helvetica,sans-Serif" font-size="10.00">Pedal::readMotor</text>
</a>
</g>
</g>
<!-- Node4&#45;&gt;Node5 -->
<g id="edge4" class="edge">
<title>Node4&#45;&gt;Node5</title>
<path fill="none" stroke="#63b8ff" d="M337.61,-9.5C329.16,-9.5 320.52,-9.5 312.25,-9.5"/>
<polygon fill="#63b8ff" stroke="#63b8ff" points="337.77,-13 347.77,-9.5 337.77,-6 337.77,-13"/>
</g>
<!-- Node6 -->
<g id="node6" class="node">
<title>Node6</title>
<g id="a_node6"><a xlink:href="main_8cpp.html#a1174b6795782479542559289cd623faf" target="_top" xlink:title=" ">
<polygon fill="white" stroke="#666666" points="176,-19 80,-19 80,0 176,0 176,-19"/>
<text text-anchor="middle" x="128" y="-7" font-family="Helvetica,sans-Serif" font-size="10.00">scheduler_pedal</text>
</a>
</g>
</g>
<!-- Node5&#45;&gt;Node6 -->
<g id="edge5" class="edge">
<title>Node5&#45;&gt;Node6</title>
<path fill="none" stroke="#63b8ff" d="M201.81,-9.5C193.16,-9.5 184.36,-9.5 176,-9.5"/>
<polygon fill="#63b8ff" stroke="#63b8ff" points="201.85,-13 211.85,-9.5 201.85,-6 201.85,-13"/>
</g>
<!-- Node7 -->
<g id="node7" class="node">
<title>Node7</title>
<g id="a_node7"><a xlink:href="main_8cpp.html#a4fc01d736fe50cf5b977f755b675f11d" target="_top" xlink:title="Setup function for initializing the VCU system. Initializes MCP2515s, IO pins, as well as own modules...">
<polygon fill="white" stroke="#666666" points="44,-19 0,-19 0,0 44,0 44,-19"/>
<text text-anchor="middle" x="22" y="-7" font-family="Helvetica,sans-Serif" font-size="10.00">setup</text>
</a>
</g>
</g>
<!-- Node6&#45;&gt;Node7 -->
<g id="edge6" class="edge">
<title>Node6&#45;&gt;Node7</title>
<path fill="none" stroke="#63b8ff" d="M69.62,-9.5C60.56,-9.5 51.73,-9.5 44.23,-9.5"/>
<polygon fill="#63b8ff" stroke="#63b8ff" points="69.87,-13 79.87,-9.5 69.87,-6 69.87,-13"/>
</g>
</g>
</svg>
