<?xml version="1.0" encoding="UTF-8" standalone="no"?>
<!DOCTYPE svg PUBLIC "-//W3C//DTD SVG 1.1//EN"
 "http://www.w3.org/Graphics/SVG/1.1/DTD/svg11.dtd">
<!-- Generated by graphviz version 2.43.0 (0)
 -->
<!-- Title: Debug_Serial::println Pages: 1 -->
<svg width="652pt" height="133pt"
 viewBox="0.00 0.00 652.00 133.11" xmlns="http://www.w3.org/2000/svg" xmlns:xlink="http://www.w3.org/1999/xlink">
<g id="graph0" class="graph" transform="scale(1 1) rotate(0) translate(4 129.11)">
<title>Debug_Serial::println</title>
<!-- Node1 -->
<g id="node1" class="node">
<title>Node1</title>
<g id="a_node1"><a xlink:title="Prints a line to the serial console. This function sends a string message followed by a newline to th...">
<polygon fill="#999999" stroke="#666666" points="644,-56 525,-56 525,-37 644,-37 644,-56"/>
<text text-anchor="middle" x="584.5" y="-44" font-family="Helvetica,sans-Serif" font-size="10.00">Debug_Serial::println</text>
</a>
</g>
</g>
<!-- Node2 -->
<g id="node2" class="node">
<title>Node2</title>
<g id="a_node2"><a xlink:href="Debug_8h.html#a8e8d6e3de15309922f25c12f4d7cf727" target="_top" xlink:title="Prints a line to the serial console for general debug.">
<polygon fill="white" stroke="#666666" points="486.5,-56 384.5,-56 384.5,-37 486.5,-37 486.5,-56"/>
<text text-anchor="middle" x="435.5" y="-44" font-family="Helvetica,sans-Serif" font-size="10.00">DBGLN_GENERAL</text>
</a>
</g>
</g>
<!-- Node1&#45;&gt;Node2 -->
<g id="edge1" class="edge">
<title>Node1&#45;&gt;Node2</title>
<path fill="none" stroke="#63b8ff" d="M514.8,-46.5C505.35,-46.5 495.79,-46.5 486.76,-46.5"/>
<polygon fill="#63b8ff" stroke="#63b8ff" points="514.98,-50 524.98,-46.5 514.98,-43 514.98,-50"/>
</g>
<!-- Node7 -->
<g id="node7" class="node">
<title>Node7</title>
<g id="a_node7"><a xlink:href="Debug_8h.html#adeb16efc082a41c9b137c2fa9d8162c0" target="_top" xlink:title="Prints a line to the serial console for status debug.">
<polygon fill="white" stroke="#666666" points="482,-19 389,-19 389,0 482,0 482,-19"/>
<text text-anchor="middle" x="435.5" y="-7" font-family="Helvetica,sans-Serif" font-size="10.00">DBGLN_STATUS</text>
</a>
</g>
</g>
<!-- Node1&#45;&gt;Node7 -->
<g id="edge6" class="edge">
<title>Node1&#45;&gt;Node7</title>
<path fill="none" stroke="#63b8ff" d="M535.85,-34.51C515.97,-29.5 493.2,-23.77 474.48,-19.06"/>
<polygon fill="#63b8ff" stroke="#63b8ff" points="535.09,-37.92 545.64,-36.97 536.8,-31.14 535.09,-37.92"/>
</g>
<!-- Node8 -->
<g id="node8" class="node">
<title>Node8</title>
<g id="a_node8"><a xlink:href="Debug_8h.html#a9a564faad1bd32a5894d3706e38f1067" target="_top" xlink:title="Prints a line to the serial console for throttle debug.">
<polygon fill="white" stroke="#666666" points="489,-99 382,-99 382,-80 489,-80 489,-99"/>
<text text-anchor="middle" x="435.5" y="-87" font-family="Helvetica,sans-Serif" font-size="10.00">DBGLN_THROTTLE</text>
</a>
</g>
</g>
<!-- Node1&#45;&gt;Node8 -->
<g id="edge7" class="edge">
<title>Node1&#45;&gt;Node8</title>
<path fill="none" stroke="#63b8ff" d="M541.06,-58.92C518.12,-65.63 490.23,-73.78 469.03,-79.98"/>
<polygon fill="#63b8ff" stroke="#63b8ff" points="542.26,-62.21 550.88,-56.04 540.3,-55.49 542.26,-62.21"/>
</g>
<!-- Node3 -->
<g id="node3" class="node">
<title>Node3</title>
<g id="a_node3"><a xlink:href="classBMS.html#a2b5ec1ea35cac26d5defeb652f721975" target="_top" xlink:title="Attempt to start HV. First check BMS is in standby(3) state, then send the HV start command....">
<polygon fill="white" stroke="#666666" points="324,-56 234,-56 234,-37 324,-37 324,-56"/>
<text text-anchor="middle" x="279" y="-44" font-family="Helvetica,sans-Serif" font-size="10.00">BMS::check_hv</text>
</a>
</g>
</g>
<!-- Node2&#45;&gt;Node3 -->
<g id="edge2" class="edge">
<title>Node2&#45;&gt;Node3</title>
<path fill="none" stroke="#63b8ff" d="M374.14,-46.5C357.49,-46.5 339.74,-46.5 324.19,-46.5"/>
<polygon fill="#63b8ff" stroke="#63b8ff" points="374.34,-50 384.34,-46.5 374.34,-43 374.34,-50"/>
</g>
<!-- Node6 -->
<g id="node6" class="node">
<title>Node6</title>
<g id="a_node6"><a xlink:href="main_8cpp.html#a4fc01d736fe50cf5b977f755b675f11d" target="_top" xlink:title="Setup function for initializing the VCU system. Initializes MCP2515s, IO pins, as well as own modules...">
<polygon fill="white" stroke="#666666" points="44,-60 0,-60 0,-41 44,-41 44,-60"/>
<text text-anchor="middle" x="22" y="-48" font-family="Helvetica,sans-Serif" font-size="10.00">setup</text>
</a>
</g>
</g>
<!-- Node2&#45;&gt;Node6 -->
<g id="edge5" class="edge">
<title>Node2&#45;&gt;Node6</title>
<path fill="none" stroke="#63b8ff" d="M388.52,-34.7C374.93,-31.74 359.95,-28.98 346,-27.5 228.43,-15.02 196.32,-9.32 80,-30.5 67.83,-32.72 54.76,-37.14 44.22,-41.26"/>
<polygon fill="#63b8ff" stroke="#63b8ff" points="388.08,-38.19 398.61,-36.99 389.63,-31.36 388.08,-38.19"/>
</g>
<!-- Node4 -->
<g id="node4" class="node">
<title>Node4</title>
<g id="a_node4"><a xlink:href="main_8cpp.html#a1ea17ca2552291c88af3e9ec6804264b" target="_top" xlink:title=" ">
<polygon fill="white" stroke="#666666" points="173,-59 83,-59 83,-40 173,-40 173,-59"/>
<text text-anchor="middle" x="128" y="-47" font-family="Helvetica,sans-Serif" font-size="10.00">scheduler_bms</text>
</a>
</g>
</g>
<!-- Node3&#45;&gt;Node4 -->
<g id="edge3" class="edge">
<title>Node3&#45;&gt;Node4</title>
<path fill="none" stroke="#63b8ff" d="M223.58,-47.6C206.99,-47.93 188.96,-48.29 173.13,-48.61"/>
<polygon fill="#63b8ff" stroke="#63b8ff" points="223.77,-51.09 233.7,-47.39 223.63,-44.09 223.77,-51.09"/>
</g>
<!-- Node5 -->
<g id="node5" class="node">
<title>Node5</title>
<g id="a_node5"><a xlink:href="main_8cpp.html#afe461d27b9c48d5921c00d521181f12f" target="_top" xlink:title="Main loop function for the VCU system. Handles car state transitions, pipes dataflow between modules.">
<polygon fill="white" stroke="#666666" points="41,-97 3,-97 3,-78 41,-78 41,-97"/>
<text text-anchor="middle" x="22" y="-85" font-family="Helvetica,sans-Serif" font-size="10.00">loop</text>
</a>
</g>
</g>
<!-- Node4&#45;&gt;Node5 -->
<g id="edge4" class="edge">
<title>Node4&#45;&gt;Node5</title>
<path fill="none" stroke="#63b8ff" d="M91.16,-62.6C74.26,-68.77 54.83,-75.87 41.05,-80.91"/>
<polygon fill="#63b8ff" stroke="#63b8ff" points="92.56,-65.81 100.76,-59.09 90.16,-59.23 92.56,-65.81"/>
</g>
<!-- Node8&#45;&gt;Node5 -->
<g id="edge8" class="edge">
<title>Node8&#45;&gt;Node5</title>
<path fill="none" stroke="#63b8ff" d="M396.82,-102.08C381.27,-106.65 362.96,-111.24 346,-113.5 228.78,-129.11 196.09,-130 80,-107.5 66.62,-104.91 52.13,-99.79 41.1,-95.38"/>
<polygon fill="#63b8ff" stroke="#63b8ff" points="398.04,-105.37 406.59,-99.11 396.01,-98.67 398.04,-105.37"/>
</g>
<!-- Node9 -->
<g id="node9" class="node">
<title>Node9</title>
<g id="a_node9"><a xlink:href="classPedal.html#a2457466d32f6d9f58f8b8ab6c34cd495" target="_top" xlink:title="Updates the CAN frame with the most recent pedal value.">
<polygon fill="white" stroke="#666666" points="346,-104.5 212,-104.5 212,-74.5 346,-74.5 346,-104.5"/>
<text text-anchor="start" x="220" y="-92.5" font-family="Helvetica,sans-Serif" font-size="10.00">Pedal::pedal_can_frame</text>
<text text-anchor="middle" x="279" y="-81.5" font-family="Helvetica,sans-Serif" font-size="10.00">_update</text>
</a>
</g>
</g>
<!-- Node8&#45;&gt;Node9 -->
<g id="edge9" class="edge">
<title>Node8&#45;&gt;Node9</title>
<path fill="none" stroke="#63b8ff" d="M371.66,-89.5C363.26,-89.5 354.62,-89.5 346.16,-89.5"/>
<polygon fill="#63b8ff" stroke="#63b8ff" points="371.76,-93 381.76,-89.5 371.76,-86 371.76,-93"/>
</g>
<!-- Node10 -->
<g id="node10" class="node">
<title>Node10</title>
<g id="a_node10"><a xlink:href="main_8cpp.html#a2668d80d0711f29d4507c48eb984f684" target="_top" xlink:title=" ">
<polygon fill="white" stroke="#666666" points="176,-98 80,-98 80,-79 176,-79 176,-98"/>
<text text-anchor="middle" x="128" y="-86" font-family="Helvetica,sans-Serif" font-size="10.00">scheduler_pedal</text>
</a>
</g>
</g>
<!-- Node9&#45;&gt;Node10 -->
<g id="edge10" class="edge">
<title>Node9&#45;&gt;Node10</title>
<path fill="none" stroke="#63b8ff" d="M201.64,-88.99C192.99,-88.93 184.38,-88.87 176.26,-88.82"/>
<polygon fill="#63b8ff" stroke="#63b8ff" points="201.76,-92.49 211.78,-89.06 201.8,-85.49 201.76,-92.49"/>
</g>
<!-- Node10&#45;&gt;Node6 -->
<g id="edge11" class="edge">
<title>Node10&#45;&gt;Node6</title>
<path fill="none" stroke="#63b8ff" d="M91.36,-75.48C75.71,-69.76 57.87,-63.24 44.34,-58.3"/>
<polygon fill="#63b8ff" stroke="#63b8ff" points="90.16,-78.77 100.76,-78.91 92.56,-72.19 90.16,-78.77"/>
</g>
</g>
</svg>
