<?xml version="1.0" encoding="UTF-8" standalone="no"?>
<!DOCTYPE svg PUBLIC "-//W3C//DTD SVG 1.1//EN"
 "http://www.w3.org/Graphics/SVG/1.1/DTD/svg11.dtd">
<!-- Generated by graphviz version 2.43.0 (0)
 -->
<!-- Title: Debug_Serial::println Pages: 1 -->
<svg width="652pt" height="190pt"
 viewBox="0.00 0.00 652.00 189.50" xmlns="http://www.w3.org/2000/svg" xmlns:xlink="http://www.w3.org/1999/xlink">
<g id="graph0" class="graph" transform="scale(1 1) rotate(0) translate(4 185.5)">
<title>Debug_Serial::println</title>
<!-- Node1 -->
<g id="node1" class="node">
<title>Node1</title>
<g id="a_node1"><a xlink:title="Prints a line to the serial console. This function sends a string message followed by a newline to th...">
<polygon fill="#999999" stroke="#666666" points="644,-105.5 525,-105.5 525,-86.5 644,-86.5 644,-105.5"/>
<text text-anchor="middle" x="584.5" y="-93.5" font-family="Helvetica,sans-Serif" font-size="10.00">Debug_Serial::println</text>
</a>
</g>
</g>
<!-- Node2 -->
<g id="node2" class="node">
<title>Node2</title>
<g id="a_node2"><a xlink:href="Debug_8h.html#a8e8d6e3de15309922f25c12f4d7cf727" target="_top" xlink:title="Prints a line to the serial console for general debug.">
<polygon fill="white" stroke="#666666" points="486.5,-143.5 384.5,-143.5 384.5,-124.5 486.5,-124.5 486.5,-143.5"/>
<text text-anchor="middle" x="435.5" y="-131.5" font-family="Helvetica,sans-Serif" font-size="10.00">DBGLN_GENERAL</text>
</a>
</g>
</g>
<!-- Node1&#45;&gt;Node2 -->
<g id="edge1" class="edge">
<title>Node1&#45;&gt;Node2</title>
<path fill="none" stroke="#63b8ff" d="M536.65,-108.11C516.17,-113.4 492.51,-119.52 473.33,-124.48"/>
<polygon fill="#63b8ff" stroke="#63b8ff" points="537.6,-111.48 546.41,-105.59 535.85,-104.7 537.6,-111.48"/>
</g>
<!-- Node5 -->
<g id="node5" class="node">
<title>Node5</title>
<g id="a_node5"><a xlink:href="Debug_8h.html#adeb16efc082a41c9b137c2fa9d8162c0" target="_top" xlink:title="Prints a line to the serial console for status debug.">
<polygon fill="white" stroke="#666666" points="174.5,-105.5 81.5,-105.5 81.5,-86.5 174.5,-86.5 174.5,-105.5"/>
<text text-anchor="middle" x="128" y="-93.5" font-family="Helvetica,sans-Serif" font-size="10.00">DBGLN_STATUS</text>
</a>
</g>
</g>
<!-- Node1&#45;&gt;Node5 -->
<g id="edge4" class="edge">
<title>Node1&#45;&gt;Node5</title>
<path fill="none" stroke="#63b8ff" d="M514.28,-96C420.27,-96 254.77,-96 174.81,-96"/>
<polygon fill="#63b8ff" stroke="#63b8ff" points="514.55,-99.5 524.55,-96 514.55,-92.5 514.55,-99.5"/>
</g>
<!-- Node6 -->
<g id="node6" class="node">
<title>Node6</title>
<g id="a_node6"><a xlink:href="Debug_8h.html#a9a564faad1bd32a5894d3706e38f1067" target="_top" xlink:title="Prints a line to the serial console for throttle debug.">
<polygon fill="white" stroke="#666666" points="489,-67.5 382,-67.5 382,-48.5 489,-48.5 489,-67.5"/>
<text text-anchor="middle" x="435.5" y="-55.5" font-family="Helvetica,sans-Serif" font-size="10.00">DBGLN_THROTTLE</text>
</a>
</g>
</g>
<!-- Node1&#45;&gt;Node6 -->
<g id="edge6" class="edge">
<title>Node1&#45;&gt;Node6</title>
<path fill="none" stroke="#63b8ff" d="M536.65,-83.89C516.17,-78.6 492.51,-72.48 473.33,-67.52"/>
<polygon fill="#63b8ff" stroke="#63b8ff" points="535.85,-87.3 546.41,-86.41 537.6,-80.52 535.85,-87.3"/>
</g>
<!-- Node3 -->
<g id="node3" class="node">
<title>Node3</title>
<g id="a_node3"><a xlink:href="classBMS.html#a2b5ec1ea35cac26d5defeb652f721975" target="_top" xlink:title="Keep retrying to send BMS start HV command until it succeeds. First check BMS is in standby(3) state,...">
<polygon fill="white" stroke="#666666" points="324,-181.5 234,-181.5 234,-162.5 324,-162.5 324,-181.5"/>
<text text-anchor="middle" x="279" y="-169.5" font-family="Helvetica,sans-Serif" font-size="10.00">BMS::check_hv</text>
</a>
</g>
</g>
<!-- Node2&#45;&gt;Node3 -->
<g id="edge2" class="edge">
<title>Node2&#45;&gt;Node3</title>
<path fill="none" stroke="#63b8ff" d="M385.55,-146.04C363.96,-151.35 338.96,-157.5 318.71,-162.48"/>
<polygon fill="#63b8ff" stroke="#63b8ff" points="386.64,-149.38 395.51,-143.59 384.97,-142.58 386.64,-149.38"/>
</g>
<!-- Node4 -->
<g id="node4" class="node">
<title>Node4</title>
<g id="a_node4"><a xlink:href="main_8cpp.html#a4fc01d736fe50cf5b977f755b675f11d" target="_top" xlink:title="Setup function for initializing the VCU system. Initializes MCP2515s, IO pins, as well as own modules...">
<polygon fill="white" stroke="#666666" points="44,-105.5 0,-105.5 0,-86.5 44,-86.5 44,-105.5"/>
<text text-anchor="middle" x="22" y="-93.5" font-family="Helvetica,sans-Serif" font-size="10.00">setup</text>
</a>
</g>
</g>
<!-- Node2&#45;&gt;Node4 -->
<g id="edge3" class="edge">
<title>Node2&#45;&gt;Node4</title>
<path fill="none" stroke="#63b8ff" d="M374.28,-135.65C303.28,-136.47 182.01,-134.37 80,-115 67.8,-112.68 54.63,-108.42 44.02,-104.51"/>
<polygon fill="#63b8ff" stroke="#63b8ff" points="374.43,-139.15 384.38,-135.51 374.34,-132.15 374.43,-139.15"/>
</g>
<!-- Node5&#45;&gt;Node4 -->
<g id="edge5" class="edge">
<title>Node5&#45;&gt;Node4</title>
<path fill="none" stroke="#63b8ff" d="M71.29,-96C61.6,-96 52.09,-96 44.11,-96"/>
<polygon fill="#63b8ff" stroke="#63b8ff" points="71.38,-99.5 81.38,-96 71.38,-92.5 71.38,-99.5"/>
</g>
<!-- Node7 -->
<g id="node7" class="node">
<title>Node7</title>
<g id="a_node7"><a xlink:href="main_8cpp.html#afe461d27b9c48d5921c00d521181f12f" target="_top" xlink:title="Main loop function for the VCU system. Handles car state transitions, pipes dataflow between modules.">
<polygon fill="white" stroke="#666666" points="298,-67.5 260,-67.5 260,-48.5 298,-48.5 298,-67.5"/>
<text text-anchor="middle" x="279" y="-55.5" font-family="Helvetica,sans-Serif" font-size="10.00">loop</text>
</a>
</g>
</g>
<!-- Node6&#45;&gt;Node7 -->
<g id="edge7" class="edge">
<title>Node6&#45;&gt;Node7</title>
<path fill="none" stroke="#63b8ff" d="M371.73,-58C345.17,-58 316.25,-58 298.13,-58"/>
<polygon fill="#63b8ff" stroke="#63b8ff" points="371.76,-61.5 381.76,-58 371.76,-54.5 371.76,-61.5"/>
</g>
<!-- Node8 -->
<g id="node8" class="node">
<title>Node8</title>
<g id="a_node8"><a xlink:href="classPedal.html#a2457466d32f6d9f58f8b8ab6c34cd495" target="_top" xlink:title="Updates the CAN frame with the most recent pedal value.">
<polygon fill="white" stroke="#666666" points="346,-30 212,-30 212,0 346,0 346,-30"/>
<text text-anchor="start" x="220" y="-18" font-family="Helvetica,sans-Serif" font-size="10.00">Pedal::pedal_can_frame</text>
<text text-anchor="middle" x="279" y="-7" font-family="Helvetica,sans-Serif" font-size="10.00">_update</text>
</a>
</g>
</g>
<!-- Node6&#45;&gt;Node8 -->
<g id="edge8" class="edge">
<title>Node6&#45;&gt;Node8</title>
<path fill="none" stroke="#63b8ff" d="M390.23,-45.68C372.68,-40.79 352.32,-35.13 333.92,-30.01"/>
<polygon fill="#63b8ff" stroke="#63b8ff" points="389.64,-49.15 400.21,-48.46 391.52,-42.4 389.64,-49.15"/>
</g>
<!-- Node9 -->
<g id="node9" class="node">
<title>Node9</title>
<g id="a_node9"><a xlink:href="main_8cpp.html#a2668d80d0711f29d4507c48eb984f684" target="_top" xlink:title=" ">
<polygon fill="white" stroke="#666666" points="176,-46.5 80,-46.5 80,-27.5 176,-27.5 176,-46.5"/>
<text text-anchor="middle" x="128" y="-34.5" font-family="Helvetica,sans-Serif" font-size="10.00">scheduler_pedal</text>
</a>
</g>
</g>
<!-- Node8&#45;&gt;Node9 -->
<g id="edge9" class="edge">
<title>Node8&#45;&gt;Node9</title>
<path fill="none" stroke="#63b8ff" d="M201.64,-26.27C192.99,-27.55 184.38,-28.82 176.26,-30.02"/>
<polygon fill="#63b8ff" stroke="#63b8ff" points="202.4,-29.7 211.78,-24.78 201.37,-22.78 202.4,-29.7"/>
</g>
<!-- Node9&#45;&gt;Node4 -->
<g id="edge10" class="edge">
<title>Node9&#45;&gt;Node4</title>
<path fill="none" stroke="#63b8ff" d="M101.01,-51.75C81.87,-62.6 56.4,-77.05 39.85,-86.44"/>
<polygon fill="#63b8ff" stroke="#63b8ff" points="102.86,-54.72 109.83,-46.74 99.4,-48.63 102.86,-54.72"/>
</g>
</g>
</svg>
