<?xml version="1.0" encoding="UTF-8" standalone="no"?>
<!DOCTYPE svg PUBLIC "-//W3C//DTD SVG 1.1//EN"
 "http://www.w3.org/Graphics/SVG/1.1/DTD/svg11.dtd">
<!-- Generated by graphviz version 2.43.0 (0)
 -->
<!-- Title: Debug_CAN::throttle_fault Pages: 1 -->
<!--zoomable 140 -->
<svg id="main" version="1.1" xmlns="http://www.w3.org/2000/svg" xmlns:xlink="http://www.w3.org/1999/xlink" xml:space="preserve" onload="init(evt)">
<style type="text/css"><![CDATA[
.edge:hover path { stroke: red; }
.edge:hover polygon { stroke: red; fill: red; }
]]></style>
<script type="text/javascript"><![CDATA[
var edges = document.getElementsByTagName('g');
if (edges && edges.length) {
  for (var i=0;i<edges.length;i++) {
    if (edges[i].id.substr(0,4)=='edge') {
      edges[i].setAttribute('class','edge');
    }
  }
}
]]></script>
        <defs>
                <circle id="rim" cx="0" cy="0" r="7"/>
                <circle id="rim2" cx="0" cy="0" r="3.5"/>
                <g id="zoomPlus">
                        <use xlink:href="#rim" fill="#404040">
                                <set attributeName="fill" to="#808080" begin="zoomplus.mouseover" end="zoomplus.mouseout"/>
                        </use>
                        <path d="M-4,0h8M0,-4v8" fill="none" stroke="white" stroke-width="1.5" pointer-events="none"/>
                </g>
                <g id="zoomMin">
                        <use xlink:href="#rim" fill="#404040">
                                <set attributeName="fill" to="#808080" begin="zoomminus.mouseover" end="zoomminus.mouseout"/>
                        </use>
                        <path d="M-4,0h8" fill="none" stroke="white" stroke-width="1.5" pointer-events="none"/>
                </g>
                <g id="dirArrow">
                        <path fill="none" stroke="white" stroke-width="1.5" d="M0,-3.0v7 M-2.5,-0.5L0,-3.0L2.5,-0.5"/>
                </g>
               <g id="resetDef">
                       <use xlink:href="#rim2" fill="#404040">
                               <set attributeName="fill" to="#808080" begin="reset.mouseover" end="reset.mouseout"/>
                       </use>
               </g>
        </defs>

<script type="text/javascript">
var viewWidth = 978;
var viewHeight = 140;
var sectionId = 'dynsection-5';
</script>
<script xlink:href="svgpan.js"/>
<svg id="graph" class="graph">
<g id="viewport">
<title>Debug_CAN::throttle_fault</title>
<!-- Node1 -->
<g id="node1" class="node">
<title>Node1</title>
<g id="a_node1"><a xlink:title="Sends a debug throttle fault message over CAN. This function prepares a CAN frame with the throttle f...">
<polygon fill="#999999" stroke="#666666" points="970,-66.52 854,-66.52 854,-36.52 970,-36.52 970,-66.52"/>
<text text-anchor="start" x="862" y="-54.52" font-family="Helvetica,sans-Serif" font-size="10.00">Debug_CAN::throttle</text>
<text text-anchor="middle" x="912" y="-43.52" font-family="Helvetica,sans-Serif" font-size="10.00">_fault</text>
</a>
</g>
</g>
<!-- Node2 -->
<g id="node2" class="node">
<title>Node2</title>
<g id="a_node2"><a xlink:href="Debug_8h.html#a27a4d84e5afbe5f46066606c2cfcd97d" target="_top" xlink:title="Sends throttle fault debug info via CAN or serial (if enabled). Overloads for fault status with or wi...">
<polygon fill="white" stroke="#666666" points="818,-61.02 689,-61.02 689,-42.02 818,-42.02 818,-61.02"/>
<text text-anchor="middle" x="753.5" y="-49.02" font-family="Helvetica,sans-Serif" font-size="10.00">DBG_THROTTLE_FAULT</text>
</a>
</g>
</g>
<!-- Node1&#45;&gt;Node2 -->
<g id="edge1" class="edge">
<title>Node1&#45;&gt;Node2</title>
<path fill="none" stroke="#63b8ff" d="M843.49,-51.52C835.1,-51.52 826.55,-51.52 818.22,-51.52"/>
<polygon fill="#63b8ff" stroke="#63b8ff" points="843.61,-55.02 853.61,-51.52 843.61,-48.02 843.61,-55.02"/>
</g>
<!-- Node3 -->
<g id="node3" class="node">
<title>Node3</title>
<g id="a_node3"><a xlink:href="classPedal.html#a00f33fcd9507c62193f2ffc3570b7fba" target="_top" xlink:title="Maps the brake ADC to a torque value.">
<polygon fill="white" stroke="#666666" points="653,-131.52 540,-131.52 540,-101.52 653,-101.52 653,-131.52"/>
<text text-anchor="start" x="548" y="-119.52" font-family="Helvetica,sans-Serif" font-size="10.00">Pedal::brake_torque</text>
<text text-anchor="middle" x="596.5" y="-108.52" font-family="Helvetica,sans-Serif" font-size="10.00">_mapping</text>
</a>
</g>
</g>
<!-- Node2&#45;&gt;Node3 -->
<g id="edge2" class="edge">
<title>Node2&#45;&gt;Node3</title>
<path fill="none" stroke="#63b8ff" d="M720.11,-65.1C694.78,-75.72 659.6,-90.48 633.41,-101.46"/>
<polygon fill="#63b8ff" stroke="#63b8ff" points="721.76,-68.2 729.63,-61.11 719.05,-61.75 721.76,-68.2"/>
</g>
<!-- Node4 -->
<g id="node4" class="node">
<title>Node4</title>
<g id="a_node4"><a xlink:href="classPedal.html#a04ce7e5e20d8405f10f281d6c784e1ef" target="_top" xlink:title="Maps the pedal ADC to a torque value, handling deadzones and faults.">
<polygon fill="white" stroke="#666666" points="504,-98.52 382,-98.52 382,-68.52 504,-68.52 504,-98.52"/>
<text text-anchor="start" x="390" y="-86.52" font-family="Helvetica,sans-Serif" font-size="10.00">Pedal::throttle_torque</text>
<text text-anchor="middle" x="443" y="-75.52" font-family="Helvetica,sans-Serif" font-size="10.00">_mapping</text>
</a>
</g>
</g>
<!-- Node2&#45;&gt;Node4 -->
<g id="edge11" class="edge">
<title>Node2&#45;&gt;Node4</title>
<path fill="none" stroke="#63b8ff" d="M678.86,-59.16C625.43,-64.7 554.05,-72.1 504.06,-77.29"/>
<polygon fill="#63b8ff" stroke="#63b8ff" points="679.37,-62.62 688.95,-58.11 678.64,-55.66 679.37,-62.62"/>
</g>
<!-- Node8 -->
<g id="node8" class="node">
<title>Node8</title>
<g id="a_node8"><a xlink:href="classPedal.html#ab4523086bb60bc43d692198206885f3b" target="_top" xlink:title="Checks for a fault between two pedal sensor readings.">
<polygon fill="white" stroke="#666666" points="651.5,-45.52 541.5,-45.52 541.5,-15.52 651.5,-15.52 651.5,-45.52"/>
<text text-anchor="start" x="549.5" y="-33.52" font-family="Helvetica,sans-Serif" font-size="10.00">Pedal::check_pedal</text>
<text text-anchor="middle" x="596.5" y="-22.52" font-family="Helvetica,sans-Serif" font-size="10.00">_fault</text>
</a>
</g>
</g>
<!-- Node2&#45;&gt;Node8 -->
<g id="edge7" class="edge">
<title>Node2&#45;&gt;Node8</title>
<path fill="none" stroke="#63b8ff" d="M678.5,-41.49C669.53,-40.28 660.51,-39.05 651.91,-37.89"/>
<polygon fill="#63b8ff" stroke="#63b8ff" points="678.18,-44.98 688.56,-42.85 679.12,-38.04 678.18,-44.98"/>
</g>
<!-- Node9 -->
<g id="node9" class="node">
<title>Node9</title>
<g id="a_node9"><a xlink:href="classPedal.html#aef9f2037f590fd4b41f3c50a7c2b3568" target="_top" xlink:title="Updates pedal sensor readings, applies filtering, and checks for faults.">
<polygon fill="white" stroke="#666666" points="501,-29.02 385,-29.02 385,-10.02 501,-10.02 501,-29.02"/>
<text text-anchor="middle" x="443" y="-17.02" font-family="Helvetica,sans-Serif" font-size="10.00">Pedal::pedal_update</text>
</a>
</g>
</g>
<!-- Node2&#45;&gt;Node9 -->
<g id="edge10" class="edge">
<title>Node2&#45;&gt;Node9</title>
<path fill="none" stroke="#63b8ff" d="M728.2,-36.98C708.65,-26.19 680.08,-12.36 653,-6.52 596.67,5.63 529.98,-2.25 487.34,-10.01"/>
<polygon fill="#63b8ff" stroke="#63b8ff" points="726.6,-40.1 737.02,-41.99 730.06,-34.01 726.6,-40.1"/>
</g>
<!-- Node3&#45;&gt;Node4 -->
<g id="edge3" class="edge">
<title>Node3&#45;&gt;Node4</title>
<path fill="none" stroke="#63b8ff" d="M529.98,-102.25C521.39,-100.38 512.63,-98.47 504.14,-96.62"/>
<polygon fill="#63b8ff" stroke="#63b8ff" points="529.43,-105.71 539.95,-104.42 530.92,-98.87 529.43,-105.71"/>
</g>
<!-- Node5 -->
<g id="node5" class="node">
<title>Node5</title>
<g id="a_node5"><a xlink:href="classPedal.html#a2457466d32f6d9f58f8b8ab6c34cd495" target="_top" xlink:title="Updates the CAN frame with the most recent pedal value.">
<polygon fill="white" stroke="#666666" points="346,-98.52 212,-98.52 212,-68.52 346,-68.52 346,-98.52"/>
<text text-anchor="start" x="220" y="-86.52" font-family="Helvetica,sans-Serif" font-size="10.00">Pedal::pedal_can_frame</text>
<text text-anchor="middle" x="279" y="-75.52" font-family="Helvetica,sans-Serif" font-size="10.00">_update</text>
</a>
</g>
</g>
<!-- Node4&#45;&gt;Node5 -->
<g id="edge4" class="edge">
<title>Node4&#45;&gt;Node5</title>
<path fill="none" stroke="#63b8ff" d="M371.49,-83.52C363.05,-83.52 354.46,-83.52 346.09,-83.52"/>
<polygon fill="#63b8ff" stroke="#63b8ff" points="371.68,-87.02 381.68,-83.52 371.68,-80.02 371.68,-87.02"/>
</g>
<!-- Node6 -->
<g id="node6" class="node">
<title>Node6</title>
<g id="a_node6"><a xlink:href="main_8cpp.html#a2668d80d0711f29d4507c48eb984f684" target="_top" xlink:title=" ">
<polygon fill="white" stroke="#666666" points="176,-93.02 80,-93.02 80,-74.02 176,-74.02 176,-93.02"/>
<text text-anchor="middle" x="128" y="-81.02" font-family="Helvetica,sans-Serif" font-size="10.00">scheduler_pedal</text>
</a>
</g>
</g>
<!-- Node5&#45;&gt;Node6 -->
<g id="edge5" class="edge">
<title>Node5&#45;&gt;Node6</title>
<path fill="none" stroke="#63b8ff" d="M201.64,-83.52C192.99,-83.52 184.38,-83.52 176.26,-83.52"/>
<polygon fill="#63b8ff" stroke="#63b8ff" points="201.78,-87.02 211.78,-83.52 201.78,-80.02 201.78,-87.02"/>
</g>
<!-- Node7 -->
<g id="node7" class="node">
<title>Node7</title>
<g id="a_node7"><a xlink:href="main_8cpp.html#a4fc01d736fe50cf5b977f755b675f11d" target="_top" xlink:title="Setup function for initializing the VCU system. Initializes MCP2515s, IO pins, as well as own modules...">
<polygon fill="white" stroke="#666666" points="44,-93.02 0,-93.02 0,-74.02 44,-74.02 44,-93.02"/>
<text text-anchor="middle" x="22" y="-81.02" font-family="Helvetica,sans-Serif" font-size="10.00">setup</text>
</a>
</g>
</g>
<!-- Node6&#45;&gt;Node7 -->
<g id="edge6" class="edge">
<title>Node6&#45;&gt;Node7</title>
<path fill="none" stroke="#63b8ff" d="M69.62,-83.52C60.56,-83.52 51.73,-83.52 44.23,-83.52"/>
<polygon fill="#63b8ff" stroke="#63b8ff" points="69.87,-87.02 79.87,-83.52 69.87,-80.02 69.87,-87.02"/>
</g>
<!-- Node8&#45;&gt;Node9 -->
<g id="edge8" class="edge">
<title>Node8&#45;&gt;Node9</title>
<path fill="none" stroke="#63b8ff" d="M531.03,-25.84C521.12,-25.12 510.95,-24.38 501.21,-23.67"/>
<polygon fill="#63b8ff" stroke="#63b8ff" points="531.01,-29.34 541.23,-26.58 531.51,-22.36 531.01,-29.34"/>
</g>
<!-- Node10 -->
<g id="node10" class="node">
<title>Node10</title>
<g id="a_node10"><a xlink:href="main_8cpp.html#afe461d27b9c48d5921c00d521181f12f" target="_top" xlink:title="Main loop function for the VCU system. Handles car state transitions, pipes dataflow between modules.">
<polygon fill="white" stroke="#666666" points="298,-29.02 260,-29.02 260,-10.02 298,-10.02 298,-29.02"/>
<text text-anchor="middle" x="279" y="-17.02" font-family="Helvetica,sans-Serif" font-size="10.00">loop</text>
</a>
</g>
</g>
<!-- Node9&#45;&gt;Node10 -->
<g id="edge9" class="edge">
<title>Node9&#45;&gt;Node10</title>
<path fill="none" stroke="#63b8ff" d="M374.75,-19.52C346.9,-19.52 316.81,-19.52 298.18,-19.52"/>
<polygon fill="#63b8ff" stroke="#63b8ff" points="374.88,-23.02 384.88,-19.52 374.88,-16.02 374.88,-23.02"/>
</g>
</g>
</svg>
        <g id="navigator" transform="translate(0 0)" fill="#404254">
                <rect fill="#f2f5e9" fill-opacity="0.5" stroke="#606060" stroke-width=".5" x="0" y="0" width="60" height="60"/>
                <use id="zoomplus" xlink:href="#zoomPlus" x="17" y="9" onmousedown="handleZoom(evt,'in')"/>
                <use id="zoomminus" xlink:href="#zoomMin" x="42" y="9" onmousedown="handleZoom(evt,'out')"/>
                <use id="reset" xlink:href="#resetDef" x="30" y="36" onmousedown="handleReset()"/>
                <g id="arrowUp" xlink:href="#dirArrow" transform="translate(30 24)" onmousedown="handlePan(0,-1)">
                  <use xlink:href="#rim" fill="#404040">
                        <set attributeName="fill" to="#808080" begin="arrowUp.mouseover" end="arrowUp.mouseout"/>
                  </use>
                  <path fill="none" stroke="white" stroke-width="1.5" d="M0,-3.0v7 M-2.5,-0.5L0,-3.0L2.5,-0.5"/>
                </g>
                <g id="arrowRight" xlink:href="#dirArrow" transform="rotate(90) translate(36 -43)" onmousedown="handlePan(1,0)">
                  <use xlink:href="#rim" fill="#404040">
                        <set attributeName="fill" to="#808080" begin="arrowRight.mouseover" end="arrowRight.mouseout"/>
                  </use>
                  <path fill="none" stroke="white" stroke-width="1.5" d="M0,-3.0v7 M-2.5,-0.5L0,-3.0L2.5,-0.5"/>
                </g>
                <g id="arrowDown" xlink:href="#dirArrow" transform="rotate(180) translate(-30 -48)" onmousedown="handlePan(0,1)">
                  <use xlink:href="#rim" fill="#404040">
                        <set attributeName="fill" to="#808080" begin="arrowDown.mouseover" end="arrowDown.mouseout"/>
                  </use>
                  <path fill="none" stroke="white" stroke-width="1.5" d="M0,-3.0v7 M-2.5,-0.5L0,-3.0L2.5,-0.5"/>
                </g>
                <g id="arrowLeft" xlink:href="#dirArrow" transform="rotate(270) translate(-36 17)" onmousedown="handlePan(-1,0)">
                  <use xlink:href="#rim" fill="#404040">
                        <set attributeName="fill" to="#808080" begin="arrowLeft.mouseover" end="arrowLeft.mouseout"/>
                  </use>
                  <path fill="none" stroke="white" stroke-width="1.5" d="M0,-3.0v7 M-2.5,-0.5L0,-3.0L2.5,-0.5"/>
                </g>
        </g>
        <svg viewBox="0 0 15 15" width="100%" height="30px" preserveAspectRatio="xMaxYMin meet">
         <g id="arrow_out" transform="scale(0.3 0.3)">
          <a xlink:href="namespaceDebug__CAN_a8e6443068f8aa21ba673ad7bc132e739_icgraph_org.svg" target="_base">
           <rect id="button" ry="5" rx="5" y="6" x="6" height="38" width="38"
                fill="#f2f5e9" fill-opacity="0.5" stroke="#606060" stroke-width="1.0"/>
           <path id="arrow"
             d="M 11.500037,31.436501 C 11.940474,20.09759 22.043105,11.32322 32.158766,21.979434 L 37.068811,17.246167 C 37.068811,17.246167 37.088388,32 37.088388,32 L 22.160133,31.978069 C 22.160133,31.978069 26.997745,27.140456 26.997745,27.140456 C 18.528582,18.264221 13.291696,25.230495 11.500037,31.436501 z"
             style="fill:#404040;"/>
          </a>
         </g>
        </svg>
</svg>
