<?xml version="1.0" encoding="UTF-8" standalone="no"?>
<!DOCTYPE svg PUBLIC "-//W3C//DTD SVG 1.1//EN"
 "http://www.w3.org/Graphics/SVG/1.1/DTD/svg11.dtd">
<!-- Generated by graphviz version 2.43.0 (0)
 -->
<!-- Title: Debug_Serial::print Pages: 1 -->
<svg width="249pt" height="101pt"
 viewBox="0.00 0.00 249.00 101.00" xmlns="http://www.w3.org/2000/svg" xmlns:xlink="http://www.w3.org/1999/xlink">
<g id="graph0" class="graph" transform="scale(1 1) rotate(0) translate(4 97)">
<title>Debug_Serial::print</title>
<!-- Node1 -->
<g id="node1" class="node">
<title>Node1</title>
<g id="a_node1"><a xlink:title="Prints a message to the serial console. This function sends a string message to the serial console fo...">
<polygon fill="#999999" stroke="#666666" points="241,-56 131,-56 131,-37 241,-37 241,-56"/>
<text text-anchor="middle" x="186" y="-44" font-family="Helvetica,sans-Serif" font-size="10.00">Debug_Serial::print</text>
</a>
</g>
</g>
<!-- Node2 -->
<g id="node2" class="node">
<title>Node2</title>
<g id="a_node2"><a xlink:href="Debug_8h.html#a9d60671317b513353287b53444954a4b" target="_top" xlink:title="Prints a general debug message to the serial console.">
<polygon fill="white" stroke="#666666" points="92,-93 3,-93 3,-74 92,-74 92,-93"/>
<text text-anchor="middle" x="47.5" y="-81" font-family="Helvetica,sans-Serif" font-size="10.00">DBG_GENERAL</text>
</a>
</g>
</g>
<!-- Node1&#45;&gt;Node2 -->
<g id="edge1" class="edge">
<title>Node1&#45;&gt;Node2</title>
<path fill="none" stroke="#63b8ff" d="M140.03,-58.69C121.83,-63.62 101.12,-69.24 84.01,-73.88"/>
<polygon fill="#63b8ff" stroke="#63b8ff" points="141.11,-62.02 149.85,-56.03 139.28,-55.27 141.11,-62.02"/>
</g>
<!-- Node3 -->
<g id="node3" class="node">
<title>Node3</title>
<g id="a_node3"><a xlink:href="Debug_8h.html#a3c41dd69d26e414610765b6feb86c475" target="_top" xlink:title="Prints a status message to the serial console.">
<polygon fill="white" stroke="#666666" points="87.5,-56 7.5,-56 7.5,-37 87.5,-37 87.5,-56"/>
<text text-anchor="middle" x="47.5" y="-44" font-family="Helvetica,sans-Serif" font-size="10.00">DBG_STATUS</text>
</a>
</g>
</g>
<!-- Node1&#45;&gt;Node3 -->
<g id="edge2" class="edge">
<title>Node1&#45;&gt;Node3</title>
<path fill="none" stroke="#63b8ff" d="M120.41,-46.5C109.17,-46.5 97.8,-46.5 87.52,-46.5"/>
<polygon fill="#63b8ff" stroke="#63b8ff" points="120.66,-50 130.66,-46.5 120.66,-43 120.66,-50"/>
</g>
<!-- Node4 -->
<g id="node4" class="node">
<title>Node4</title>
<g id="a_node4"><a xlink:href="Debug_8h.html#a9d3888b021fa82a4c78185a961fdad84" target="_top" xlink:title="Prints a throttle debug message to the serial console.">
<polygon fill="white" stroke="#666666" points="95,-19 0,-19 0,0 95,0 95,-19"/>
<text text-anchor="middle" x="47.5" y="-7" font-family="Helvetica,sans-Serif" font-size="10.00">DBG_THROTTLE</text>
</a>
</g>
</g>
<!-- Node1&#45;&gt;Node4 -->
<g id="edge3" class="edge">
<title>Node1&#45;&gt;Node4</title>
<path fill="none" stroke="#63b8ff" d="M140.03,-34.31C121.83,-29.38 101.12,-23.76 84.01,-19.12"/>
<polygon fill="#63b8ff" stroke="#63b8ff" points="139.28,-37.73 149.85,-36.97 141.11,-30.98 139.28,-37.73"/>
</g>
</g>
</svg>
