<?xml version="1.0" encoding="UTF-8" standalone="no"?>
<!DOCTYPE svg PUBLIC "-//W3C//DTD SVG 1.1//EN"
 "http://www.w3.org/Graphics/SVG/1.1/DTD/svg11.dtd">
<!-- Generated by graphviz version 2.43.0 (0)
 -->
<!-- Title: Debug_Serial::println Pages: 1 -->
<!--zoomable 121 -->
<svg id="main" version="1.1" xmlns="http://www.w3.org/2000/svg" xmlns:xlink="http://www.w3.org/1999/xlink" xml:space="preserve" onload="init(evt)">
<style type="text/css"><![CDATA[
.edge:hover path { stroke: red; }
.edge:hover polygon { stroke: red; fill: red; }
]]></style>
<script type="text/javascript"><![CDATA[
var edges = document.getElementsByTagName('g');
if (edges && edges.length) {
  for (var i=0;i<edges.length;i++) {
    if (edges[i].id.substr(0,4)=='edge') {
      edges[i].setAttribute('class','edge');
    }
  }
}
]]></script>
        <defs>
                <circle id="rim" cx="0" cy="0" r="7"/>
                <circle id="rim2" cx="0" cy="0" r="3.5"/>
                <g id="zoomPlus">
                        <use xlink:href="#rim" fill="#404040">
                                <set attributeName="fill" to="#808080" begin="zoomplus.mouseover" end="zoomplus.mouseout"/>
                        </use>
                        <path d="M-4,0h8M0,-4v8" fill="none" stroke="white" stroke-width="1.5" pointer-events="none"/>
                </g>
                <g id="zoomMin">
                        <use xlink:href="#rim" fill="#404040">
                                <set attributeName="fill" to="#808080" begin="zoomminus.mouseover" end="zoomminus.mouseout"/>
                        </use>
                        <path d="M-4,0h8" fill="none" stroke="white" stroke-width="1.5" pointer-events="none"/>
                </g>
                <g id="dirArrow">
                        <path fill="none" stroke="white" stroke-width="1.5" d="M0,-3.0v7 M-2.5,-0.5L0,-3.0L2.5,-0.5"/>
                </g>
               <g id="resetDef">
                       <use xlink:href="#rim2" fill="#404040">
                               <set attributeName="fill" to="#808080" begin="reset.mouseover" end="reset.mouseout"/>
                       </use>
               </g>
        </defs>

<script type="text/javascript">
var viewWidth = 622;
var viewHeight = 121;
var sectionId = 'dynsection-2';
</script>
<script xlink:href="svgpan.js"/>
<svg id="graph" class="graph">
<g id="viewport">
<title>Debug_Serial::println</title>
<!-- Node1 -->
<g id="node1" class="node">
<title>Node1</title>
<g id="a_node1"><a xlink:title="Prints a string AND a newline to the serial console.">
<polygon fill="#999999" stroke="#666666" points="614,-56 495,-56 495,-37 614,-37 614,-56"/>
<text text-anchor="middle" x="554.5" y="-44" font-family="Helvetica,sans-Serif" font-size="10.00">Debug_Serial::println</text>
</a>
</g>
</g>
<!-- Node2 -->
<g id="node2" class="node">
<title>Node2</title>
<g id="a_node2"><a xlink:href="Debug_8hpp.html#a8e8d6e3de15309922f25c12f4d7cf727" target="_top" xlink:title="Prints a line to the serial console for general debug.">
<polygon fill="white" stroke="#666666" points="456.5,-56 354.5,-56 354.5,-37 456.5,-37 456.5,-56"/>
<text text-anchor="middle" x="405.5" y="-44" font-family="Helvetica,sans-Serif" font-size="10.00">DBGLN_GENERAL</text>
</a>
</g>
</g>
<!-- Node1&#45;&gt;Node2 -->
<g id="edge1" class="edge">
<title>Node1&#45;&gt;Node2</title>
<path fill="none" stroke="#63b8ff" d="M484.8,-46.5C475.35,-46.5 465.79,-46.5 456.76,-46.5"/>
<polygon fill="#63b8ff" stroke="#63b8ff" points="484.98,-50 494.98,-46.5 484.98,-43 484.98,-50"/>
</g>
<!-- Node7 -->
<g id="node7" class="node">
<title>Node7</title>
<g id="a_node7"><a xlink:href="Debug_8hpp.html#adeb16efc082a41c9b137c2fa9d8162c0" target="_top" xlink:title="Prints a line to the serial console for status debug.">
<polygon fill="white" stroke="#666666" points="452,-19 359,-19 359,0 452,0 452,-19"/>
<text text-anchor="middle" x="405.5" y="-7" font-family="Helvetica,sans-Serif" font-size="10.00">DBGLN_STATUS</text>
</a>
</g>
</g>
<!-- Node1&#45;&gt;Node7 -->
<g id="edge6" class="edge">
<title>Node1&#45;&gt;Node7</title>
<path fill="none" stroke="#63b8ff" d="M505.85,-34.51C485.97,-29.5 463.2,-23.77 444.48,-19.06"/>
<polygon fill="#63b8ff" stroke="#63b8ff" points="505.09,-37.92 515.64,-36.97 506.8,-31.14 505.09,-37.92"/>
</g>
<!-- Node8 -->
<g id="node8" class="node">
<title>Node8</title>
<g id="a_node8"><a xlink:href="Debug_8hpp.html#a9a564faad1bd32a5894d3706e38f1067" target="_top" xlink:title="Prints a line to the serial console for throttle debug.">
<polygon fill="white" stroke="#666666" points="459,-93 352,-93 352,-74 459,-74 459,-93"/>
<text text-anchor="middle" x="405.5" y="-81" font-family="Helvetica,sans-Serif" font-size="10.00">DBGLN_THROTTLE</text>
</a>
</g>
</g>
<!-- Node1&#45;&gt;Node8 -->
<g id="edge7" class="edge">
<title>Node1&#45;&gt;Node8</title>
<path fill="none" stroke="#63b8ff" d="M505.85,-58.49C485.97,-63.5 463.2,-69.23 444.48,-73.94"/>
<polygon fill="#63b8ff" stroke="#63b8ff" points="506.8,-61.86 515.64,-56.03 505.09,-55.08 506.8,-61.86"/>
</g>
<!-- Node3 -->
<g id="node3" class="node">
<title>Node3</title>
<g id="a_node3"><a xlink:href="classBMS.html#a7de82f50c43e50529739213e98b9b634" target="_top" xlink:title="Attempts to start HV. First check BMS is in standby(3) state, then send the HV start command....">
<polygon fill="white" stroke="#666666" points="307,-56 221,-56 221,-37 307,-37 307,-56"/>
<text text-anchor="middle" x="264" y="-44" font-family="Helvetica,sans-Serif" font-size="10.00">BMS::checkHv</text>
</a>
</g>
</g>
<!-- Node2&#45;&gt;Node3 -->
<g id="edge2" class="edge">
<title>Node2&#45;&gt;Node3</title>
<path fill="none" stroke="#63b8ff" d="M343.83,-46.5C331.42,-46.5 318.61,-46.5 307.02,-46.5"/>
<polygon fill="#63b8ff" stroke="#63b8ff" points="344.14,-50 354.14,-46.5 344.14,-43 344.14,-50"/>
</g>
<!-- Node6 -->
<g id="node6" class="node">
<title>Node6</title>
<g id="a_node6"><a xlink:href="main_8cpp.html#a4fc01d736fe50cf5b977f755b675f11d" target="_top" xlink:title="Setup function for initializing the VCU system. Initializes MCP2515s, IO pins, as well as own modules...">
<polygon fill="white" stroke="#666666" points="44,-56 0,-56 0,-37 44,-37 44,-56"/>
<text text-anchor="middle" x="22" y="-44" font-family="Helvetica,sans-Serif" font-size="10.00">setup</text>
</a>
</g>
</g>
<!-- Node2&#45;&gt;Node6 -->
<g id="edge5" class="edge">
<title>Node2&#45;&gt;Node6</title>
<path fill="none" stroke="#63b8ff" d="M358.52,-34.7C344.93,-31.74 329.95,-28.98 316,-27.5 211.7,-16.43 183.53,-10.7 80,-27.5 67.85,-29.47 54.79,-33.66 44.24,-37.61"/>
<polygon fill="#63b8ff" stroke="#63b8ff" points="358.08,-38.19 368.61,-36.99 359.63,-31.36 358.08,-38.19"/>
</g>
<!-- Node4 -->
<g id="node4" class="node">
<title>Node4</title>
<g id="a_node4"><a xlink:href="main_8cpp.html#a55b57abe9bcb30f6af0fb927f7d576a4" target="_top" xlink:title=" ">
<polygon fill="white" stroke="#666666" points="173,-56 83,-56 83,-37 173,-37 173,-56"/>
<text text-anchor="middle" x="128" y="-44" font-family="Helvetica,sans-Serif" font-size="10.00">scheduler_bms</text>
</a>
</g>
</g>
<!-- Node3&#45;&gt;Node4 -->
<g id="edge3" class="edge">
<title>Node3&#45;&gt;Node4</title>
<path fill="none" stroke="#63b8ff" d="M210.75,-46.5C198.34,-46.5 185.21,-46.5 173.2,-46.5"/>
<polygon fill="#63b8ff" stroke="#63b8ff" points="210.97,-50 220.97,-46.5 210.97,-43 210.97,-50"/>
</g>
<!-- Node5 -->
<g id="node5" class="node">
<title>Node5</title>
<g id="a_node5"><a xlink:href="main_8cpp.html#afe461d27b9c48d5921c00d521181f12f" target="_top" xlink:title="Main loop function for the VCU system. Handles car state transitions, pipes dataflow between modules.">
<polygon fill="white" stroke="#666666" points="41,-93 3,-93 3,-74 41,-74 41,-93"/>
<text text-anchor="middle" x="22" y="-81" font-family="Helvetica,sans-Serif" font-size="10.00">loop</text>
</a>
</g>
</g>
<!-- Node4&#45;&gt;Node5 -->
<g id="edge4" class="edge">
<title>Node4&#45;&gt;Node5</title>
<path fill="none" stroke="#63b8ff" d="M90.7,-59.42C73.96,-65.37 54.82,-72.18 41.18,-77.03"/>
<polygon fill="#63b8ff" stroke="#63b8ff" points="91.97,-62.68 100.22,-56.03 89.62,-56.08 91.97,-62.68"/>
</g>
<!-- Node8&#45;&gt;Node5 -->
<g id="edge8" class="edge">
<title>Node8&#45;&gt;Node5</title>
<path fill="none" stroke="#63b8ff" d="M358.52,-95.3C344.93,-98.26 329.95,-101.02 316,-102.5 211.7,-113.57 183.53,-119.3 80,-102.5 66.61,-100.33 52.12,-95.46 41.1,-91.2"/>
<polygon fill="#63b8ff" stroke="#63b8ff" points="359.63,-98.64 368.61,-93.01 358.08,-91.81 359.63,-98.64"/>
</g>
<!-- Node9 -->
<g id="node9" class="node">
<title>Node9</title>
<g id="a_node9"><a xlink:href="classPedal.html#a1027941444ce0b3f32ab8991e05c2015" target="_top" xlink:title="Sends the appropriate CAN frame to the motor based on pedal and car state.">
<polygon fill="white" stroke="#666666" points="316,-93 212,-93 212,-74 316,-74 316,-93"/>
<text text-anchor="middle" x="264" y="-81" font-family="Helvetica,sans-Serif" font-size="10.00">Pedal::sendFrame</text>
</a>
</g>
</g>
<!-- Node8&#45;&gt;Node9 -->
<g id="edge9" class="edge">
<title>Node8&#45;&gt;Node9</title>
<path fill="none" stroke="#63b8ff" d="M341.59,-83.5C333.17,-83.5 324.62,-83.5 316.43,-83.5"/>
<polygon fill="#63b8ff" stroke="#63b8ff" points="341.76,-87 351.76,-83.5 341.76,-80 341.76,-87"/>
</g>
<!-- Node10 -->
<g id="node10" class="node">
<title>Node10</title>
<g id="a_node10"><a xlink:href="main_8cpp.html#a1174b6795782479542559289cd623faf" target="_top" xlink:title=" ">
<polygon fill="white" stroke="#666666" points="176,-93 80,-93 80,-74 176,-74 176,-93"/>
<text text-anchor="middle" x="128" y="-81" font-family="Helvetica,sans-Serif" font-size="10.00">scheduler_pedal</text>
</a>
</g>
</g>
<!-- Node9&#45;&gt;Node10 -->
<g id="edge10" class="edge">
<title>Node9&#45;&gt;Node10</title>
<path fill="none" stroke="#63b8ff" d="M201.69,-83.5C193.19,-83.5 184.57,-83.5 176.37,-83.5"/>
<polygon fill="#63b8ff" stroke="#63b8ff" points="201.96,-87 211.96,-83.5 201.96,-80 201.96,-87"/>
</g>
<!-- Node10&#45;&gt;Node6 -->
<g id="edge11" class="edge">
<title>Node10&#45;&gt;Node6</title>
<path fill="none" stroke="#63b8ff" d="M90.39,-70.48C74.9,-64.96 57.4,-58.74 44.12,-54.01"/>
<polygon fill="#63b8ff" stroke="#63b8ff" points="89.62,-73.92 100.22,-73.97 91.97,-67.32 89.62,-73.92"/>
</g>
</g>
</svg>
        <g id="navigator" transform="translate(0 0)" fill="#404254">
                <rect fill="#f2f5e9" fill-opacity="0.5" stroke="#606060" stroke-width=".5" x="0" y="0" width="60" height="60"/>
                <use id="zoomplus" xlink:href="#zoomPlus" x="17" y="9" onmousedown="handleZoom(evt,'in')"/>
                <use id="zoomminus" xlink:href="#zoomMin" x="42" y="9" onmousedown="handleZoom(evt,'out')"/>
                <use id="reset" xlink:href="#resetDef" x="30" y="36" onmousedown="handleReset()"/>
                <g id="arrowUp" xlink:href="#dirArrow" transform="translate(30 24)" onmousedown="handlePan(0,-1)">
                  <use xlink:href="#rim" fill="#404040">
                        <set attributeName="fill" to="#808080" begin="arrowUp.mouseover" end="arrowUp.mouseout"/>
                  </use>
                  <path fill="none" stroke="white" stroke-width="1.5" d="M0,-3.0v7 M-2.5,-0.5L0,-3.0L2.5,-0.5"/>
                </g>
                <g id="arrowRight" xlink:href="#dirArrow" transform="rotate(90) translate(36 -43)" onmousedown="handlePan(1,0)">
                  <use xlink:href="#rim" fill="#404040">
                        <set attributeName="fill" to="#808080" begin="arrowRight.mouseover" end="arrowRight.mouseout"/>
                  </use>
                  <path fill="none" stroke="white" stroke-width="1.5" d="M0,-3.0v7 M-2.5,-0.5L0,-3.0L2.5,-0.5"/>
                </g>
                <g id="arrowDown" xlink:href="#dirArrow" transform="rotate(180) translate(-30 -48)" onmousedown="handlePan(0,1)">
                  <use xlink:href="#rim" fill="#404040">
                        <set attributeName="fill" to="#808080" begin="arrowDown.mouseover" end="arrowDown.mouseout"/>
                  </use>
                  <path fill="none" stroke="white" stroke-width="1.5" d="M0,-3.0v7 M-2.5,-0.5L0,-3.0L2.5,-0.5"/>
                </g>
                <g id="arrowLeft" xlink:href="#dirArrow" transform="rotate(270) translate(-36 17)" onmousedown="handlePan(-1,0)">
                  <use xlink:href="#rim" fill="#404040">
                        <set attributeName="fill" to="#808080" begin="arrowLeft.mouseover" end="arrowLeft.mouseout"/>
                  </use>
                  <path fill="none" stroke="white" stroke-width="1.5" d="M0,-3.0v7 M-2.5,-0.5L0,-3.0L2.5,-0.5"/>
                </g>
        </g>
        <svg viewBox="0 0 15 15" width="100%" height="30px" preserveAspectRatio="xMaxYMin meet">
         <g id="arrow_out" transform="scale(0.3 0.3)">
          <a xlink:href="namespaceDebug__Serial_a756fa9286151426012a6f8e178a6c550_icgraph_org.svg" target="_base">
           <rect id="button" ry="5" rx="5" y="6" x="6" height="38" width="38"
                fill="#f2f5e9" fill-opacity="0.5" stroke="#606060" stroke-width="1.0"/>
           <path id="arrow"
             d="M 11.500037,31.436501 C 11.940474,20.09759 22.043105,11.32322 32.158766,21.979434 L 37.068811,17.246167 C 37.068811,17.246167 37.088388,32 37.088388,32 L 22.160133,31.978069 C 22.160133,31.978069 26.997745,27.140456 26.997745,27.140456 C 18.528582,18.264221 13.291696,25.230495 11.500037,31.436501 z"
             style="fill:#404040;"/>
          </a>
         </g>
        </svg>
</svg>
