<?xml version="1.0" encoding="UTF-8" standalone="no"?>
<!DOCTYPE svg PUBLIC "-//W3C//DTD SVG 1.1//EN"
 "http://www.w3.org/Graphics/SVG/1.1/DTD/svg11.dtd">
<!-- Generated by graphviz version 2.43.0 (0)
 -->
<!-- Title: lib/Pedal/Pedal.cpp Pages: 1 -->
<svg width="509pt" height="192pt"
 viewBox="0.00 0.00 509.00 192.00" xmlns="http://www.w3.org/2000/svg" xmlns:xlink="http://www.w3.org/1999/xlink">
<g id="graph0" class="graph" transform="scale(1 1) rotate(0) translate(4 188)">
<title>lib/Pedal/Pedal.cpp</title>
<!-- Node1 -->
<g id="node1" class="node">
<title>Node1</title>
<g id="a_node1"><a xlink:title=" ">
<polygon fill="#999999" stroke="#666666" points="362,-184 253,-184 253,-165 362,-165 362,-184"/>
<text text-anchor="middle" x="307.5" y="-172" font-family="Helvetica,sans-Serif" font-size="10.00">lib/Pedal/Pedal.cpp</text>
</a>
</g>
</g>
<!-- Node2 -->
<g id="node2" class="node">
<title>Node2</title>
<g id="a_node2"><a xlink:href="Pedal_8h.html" target="_top" xlink:title=" ">
<polygon fill="white" stroke="#666666" points="307,-129 254,-129 254,-110 307,-110 307,-129"/>
<text text-anchor="middle" x="280.5" y="-117" font-family="Helvetica,sans-Serif" font-size="10.00">Pedal.h</text>
</a>
</g>
</g>
<!-- Node1&#45;&gt;Node2 -->
<g id="edge1" class="edge">
<title>Node1&#45;&gt;Node2</title>
<path fill="none" stroke="#63b8ff" d="M303.04,-164.75C299.38,-157.57 294.09,-147.18 289.55,-138.27"/>
<polygon fill="#63b8ff" stroke="#63b8ff" points="292.53,-136.41 284.88,-129.09 286.3,-139.59 292.53,-136.41"/>
</g>
<!-- Node8 -->
<g id="node8" class="node">
<title>Node8</title>
<g id="a_node8"><a xlink:title=" ">
<polygon fill="#e0e0e0" stroke="#999999" points="458,-74 395,-74 395,-55 458,-55 458,-74"/>
<text text-anchor="middle" x="426.5" y="-62" font-family="Helvetica,sans-Serif" font-size="10.00">Arduino.h</text>
</a>
</g>
</g>
<!-- Node1&#45;&gt;Node8 -->
<g id="edge15" class="edge">
<title>Node1&#45;&gt;Node8</title>
<path fill="none" stroke="#63b8ff" d="M317.24,-164.66C337.39,-146.38 383.88,-104.18 409.24,-81.17"/>
<polygon fill="#63b8ff" stroke="#63b8ff" points="411.91,-83.47 416.96,-74.16 407.2,-78.29 411.91,-83.47"/>
</g>
<!-- Node9 -->
<g id="node9" class="node">
<title>Node9</title>
<g id="a_node9"><a xlink:href="Signal__Processing_8cpp.html" target="_top" xlink:title=" ">
<polygon fill="white" stroke="#666666" points="185,-129 60,-129 60,-110 185,-110 185,-129"/>
<text text-anchor="middle" x="122.5" y="-117" font-family="Helvetica,sans-Serif" font-size="10.00">Signal_Processing.cpp</text>
</a>
</g>
</g>
<!-- Node1&#45;&gt;Node9 -->
<g id="edge10" class="edge">
<title>Node1&#45;&gt;Node9</title>
<path fill="none" stroke="#63b8ff" d="M277.78,-164.98C246.45,-156.01 196.93,-141.82 162.26,-131.89"/>
<polygon fill="#63b8ff" stroke="#63b8ff" points="163.03,-128.47 152.46,-129.08 161.11,-135.2 163.03,-128.47"/>
</g>
<!-- Node11 -->
<g id="node11" class="node">
<title>Node11</title>
<g id="a_node11"><a xlink:href="Debug_8h.html" target="_top" xlink:title=" ">
<polygon fill="white" stroke="#666666" points="501,-129 444,-129 444,-110 501,-110 501,-129"/>
<text text-anchor="middle" x="472.5" y="-117" font-family="Helvetica,sans-Serif" font-size="10.00">Debug.h</text>
</a>
</g>
</g>
<!-- Node1&#45;&gt;Node11 -->
<g id="edge13" class="edge">
<title>Node1&#45;&gt;Node11</title>
<path fill="none" stroke="#63b8ff" d="M334.01,-164.98C361.71,-156.09 405.36,-142.07 436.24,-132.15"/>
<polygon fill="#63b8ff" stroke="#63b8ff" points="437.33,-135.47 445.78,-129.08 435.19,-128.81 437.33,-135.47"/>
</g>
<!-- Node3 -->
<g id="node3" class="node">
<title>Node3</title>
<g id="a_node3"><a xlink:title=" ">
<polygon fill="#e0e0e0" stroke="#999999" points="215,-19 162,-19 162,0 215,0 215,-19"/>
<text text-anchor="middle" x="188.5" y="-7" font-family="Helvetica,sans-Serif" font-size="10.00">stdint.h</text>
</a>
</g>
</g>
<!-- Node2&#45;&gt;Node3 -->
<g id="edge2" class="edge">
<title>Node2&#45;&gt;Node3</title>
<path fill="none" stroke="#63b8ff" d="M271.38,-109.96C262.22,-101.24 247.88,-87.14 236.5,-74 223.54,-59.03 210.06,-40.94 200.69,-27.9"/>
<polygon fill="#63b8ff" stroke="#63b8ff" points="203.31,-25.54 194.67,-19.41 197.61,-29.59 203.31,-25.54"/>
</g>
<!-- Node4 -->
<g id="node4" class="node">
<title>Node4</title>
<g id="a_node4"><a xlink:href="Queue_8h.html" target="_top" xlink:title=" ">
<polygon fill="white" stroke="#666666" points="188,-74 131,-74 131,-55 188,-55 188,-74"/>
<text text-anchor="middle" x="159.5" y="-62" font-family="Helvetica,sans-Serif" font-size="10.00">Queue.h</text>
</a>
</g>
</g>
<!-- Node2&#45;&gt;Node4 -->
<g id="edge3" class="edge">
<title>Node2&#45;&gt;Node4</title>
<path fill="none" stroke="#63b8ff" d="M261.06,-109.98C241.51,-101.42 211.12,-88.11 188.68,-78.28"/>
<polygon fill="#63b8ff" stroke="#63b8ff" points="189.86,-74.98 179.29,-74.17 187.05,-81.39 189.86,-74.98"/>
</g>
<!-- Node5 -->
<g id="node5" class="node">
<title>Node5</title>
<g id="a_node5"><a xlink:title=" ">
<polygon fill="#e0e0e0" stroke="#999999" points="288,-74 245,-74 245,-55 288,-55 288,-74"/>
<text text-anchor="middle" x="266.5" y="-62" font-family="Helvetica,sans-Serif" font-size="10.00">can.h</text>
</a>
</g>
</g>
<!-- Node2&#45;&gt;Node5 -->
<g id="edge5" class="edge">
<title>Node2&#45;&gt;Node5</title>
<path fill="none" stroke="#63b8ff" d="M278.19,-109.75C276.33,-102.72 273.66,-92.62 271.35,-83.84"/>
<polygon fill="#63b8ff" stroke="#63b8ff" points="274.71,-82.86 268.77,-74.09 267.94,-84.65 274.71,-82.86"/>
</g>
<!-- Node6 -->
<g id="node6" class="node">
<title>Node6</title>
<g id="a_node6"><a xlink:href="car__state_8h.html" target="_top" xlink:title=" ">
<polygon fill="white" stroke="#666666" points="377,-74 306,-74 306,-55 377,-55 377,-74"/>
<text text-anchor="middle" x="341.5" y="-62" font-family="Helvetica,sans-Serif" font-size="10.00">car_state.h</text>
</a>
</g>
</g>
<!-- Node2&#45;&gt;Node6 -->
<g id="edge6" class="edge">
<title>Node2&#45;&gt;Node6</title>
<path fill="none" stroke="#63b8ff" d="M290.3,-109.98C299.32,-102.15 312.91,-90.34 323.82,-80.86"/>
<polygon fill="#63b8ff" stroke="#63b8ff" points="326.27,-83.37 331.52,-74.17 321.68,-78.09 326.27,-83.37"/>
</g>
<!-- Node2&#45;&gt;Node8 -->
<g id="edge9" class="edge">
<title>Node2&#45;&gt;Node8</title>
<path fill="none" stroke="#63b8ff" d="M303.96,-109.98C328.08,-101.23 365.87,-87.51 393.1,-77.62"/>
<polygon fill="#63b8ff" stroke="#63b8ff" points="394.41,-80.87 402.62,-74.17 392.02,-74.29 394.41,-80.87"/>
</g>
<!-- Node4&#45;&gt;Node3 -->
<g id="edge4" class="edge">
<title>Node4&#45;&gt;Node3</title>
<path fill="none" stroke="#63b8ff" d="M164.29,-54.75C168.26,-47.49 174.03,-36.95 178.93,-27.98"/>
<polygon fill="#63b8ff" stroke="#63b8ff" points="182.07,-29.54 183.8,-19.09 175.93,-26.18 182.07,-29.54"/>
</g>
<!-- Node6&#45;&gt;Node3 -->
<g id="edge8" class="edge">
<title>Node6&#45;&gt;Node3</title>
<path fill="none" stroke="#63b8ff" d="M316.92,-54.98C291.45,-46.16 251.46,-32.31 222.87,-22.41"/>
<polygon fill="#63b8ff" stroke="#63b8ff" points="223.87,-19.05 213.27,-19.08 221.58,-25.66 223.87,-19.05"/>
</g>
<!-- Node7 -->
<g id="node7" class="node">
<title>Node7</title>
<g id="a_node7"><a xlink:href="Enums_8h.html" target="_top" xlink:title=" ">
<polygon fill="white" stroke="#666666" points="443,-19 384,-19 384,0 443,0 443,-19"/>
<text text-anchor="middle" x="413.5" y="-7" font-family="Helvetica,sans-Serif" font-size="10.00">Enums.h</text>
</a>
</g>
</g>
<!-- Node6&#45;&gt;Node7 -->
<g id="edge7" class="edge">
<title>Node6&#45;&gt;Node7</title>
<path fill="none" stroke="#63b8ff" d="M353.07,-54.98C363.92,-47 380.38,-34.88 393.38,-25.31"/>
<polygon fill="#63b8ff" stroke="#63b8ff" points="395.74,-27.92 401.72,-19.17 391.59,-22.28 395.74,-27.92"/>
</g>
<!-- Node10 -->
<g id="node10" class="node">
<title>Node10</title>
<g id="a_node10"><a xlink:href="Signal__Processing_8h.html" target="_top" xlink:title=" ">
<polygon fill="white" stroke="#666666" points="113,-74 0,-74 0,-55 113,-55 113,-74"/>
<text text-anchor="middle" x="56.5" y="-62" font-family="Helvetica,sans-Serif" font-size="10.00">Signal_Processing.h</text>
</a>
</g>
</g>
<!-- Node9&#45;&gt;Node10 -->
<g id="edge11" class="edge">
<title>Node9&#45;&gt;Node10</title>
<path fill="none" stroke="#63b8ff" d="M111.9,-109.98C102.04,-102.07 87.15,-90.11 75.28,-80.58"/>
<polygon fill="#63b8ff" stroke="#63b8ff" points="77.29,-77.7 67.3,-74.17 72.9,-83.16 77.29,-77.7"/>
</g>
<!-- Node10&#45;&gt;Node3 -->
<g id="edge12" class="edge">
<title>Node10&#45;&gt;Node3</title>
<path fill="none" stroke="#63b8ff" d="M77.71,-54.98C99.23,-46.34 132.78,-32.87 157.33,-23.02"/>
<polygon fill="#63b8ff" stroke="#63b8ff" points="158.93,-26.14 166.91,-19.17 156.32,-19.65 158.93,-26.14"/>
</g>
<!-- Node11&#45;&gt;Node7 -->
<g id="edge14" class="edge">
<title>Node11&#45;&gt;Node7</title>
<path fill="none" stroke="#63b8ff" d="M473.87,-109.7C475.43,-96.88 476.69,-72.66 467.5,-55 460.95,-42.42 449.14,-32.05 438.23,-24.5"/>
<polygon fill="#63b8ff" stroke="#63b8ff" points="440.09,-21.54 429.79,-19.06 436.3,-27.42 440.09,-21.54"/>
</g>
</g>
</svg>
