<?xml version="1.0" encoding="UTF-8" standalone="no"?>
<!DOCTYPE svg PUBLIC "-//W3C//DTD SVG 1.1//EN"
 "http://www.w3.org/Graphics/SVG/1.1/DTD/svg11.dtd">
<!-- Generated by graphviz version 2.43.0 (0)
 -->
<!-- Title: lib/Pedal/Pedal.hpp Pages: 1 -->
<svg width="325pt" height="137pt"
 viewBox="0.00 0.00 325.00 137.00" xmlns="http://www.w3.org/2000/svg" xmlns:xlink="http://www.w3.org/1999/xlink">
<g id="graph0" class="graph" transform="scale(1 1) rotate(0) translate(4 133)">
<title>lib/Pedal/Pedal.hpp</title>
<!-- Node1 -->
<g id="node1" class="node">
<title>Node1</title>
<g id="a_node1"><a xlink:title=" ">
<polygon fill="#999999" stroke="#666666" points="216.5,-129 106.5,-129 106.5,-110 216.5,-110 216.5,-129"/>
<text text-anchor="middle" x="161.5" y="-117" font-family="Helvetica,sans-Serif" font-size="10.00">lib/Pedal/Pedal.hpp</text>
</a>
</g>
</g>
<!-- Node2 -->
<g id="node2" class="node">
<title>Node2</title>
<g id="a_node2"><a xlink:title=" ">
<polygon fill="#e0e0e0" stroke="#999999" points="111,-19 58,-19 58,0 111,0 111,-19"/>
<text text-anchor="middle" x="84.5" y="-7" font-family="Helvetica,sans-Serif" font-size="10.00">stdint.h</text>
</a>
</g>
</g>
<!-- Node1&#45;&gt;Node2 -->
<g id="edge1" class="edge">
<title>Node1&#45;&gt;Node2</title>
<path fill="none" stroke="#63b8ff" d="M150.88,-109.78C141.09,-101.35 126.58,-87.86 116.5,-74 106.19,-59.82 97.47,-41.83 91.75,-28.62"/>
<polygon fill="#63b8ff" stroke="#63b8ff" points="94.91,-27.1 87.83,-19.22 88.44,-29.79 94.91,-27.1"/>
</g>
<!-- Node3 -->
<g id="node3" class="node">
<title>Node3</title>
<g id="a_node3"><a xlink:href="Queue_8hpp.html" target="_top" xlink:title=" ">
<polygon fill="white" stroke="#666666" points="69,-74 0,-74 0,-55 69,-55 69,-74"/>
<text text-anchor="middle" x="34.5" y="-62" font-family="Helvetica,sans-Serif" font-size="10.00">Queue.hpp</text>
</a>
</g>
</g>
<!-- Node1&#45;&gt;Node3 -->
<g id="edge2" class="edge">
<title>Node1&#45;&gt;Node3</title>
<path fill="none" stroke="#63b8ff" d="M141.1,-109.98C120.48,-101.38 88.39,-87.99 64.81,-78.15"/>
<polygon fill="#63b8ff" stroke="#63b8ff" points="65.85,-74.79 55.28,-74.17 63.16,-81.25 65.85,-74.79"/>
</g>
<!-- Node4 -->
<g id="node4" class="node">
<title>Node4</title>
<g id="a_node4"><a xlink:title=" ">
<polygon fill="#e0e0e0" stroke="#999999" points="249,-19 206,-19 206,0 249,0 249,-19"/>
<text text-anchor="middle" x="227.5" y="-7" font-family="Helvetica,sans-Serif" font-size="10.00">can.h</text>
</a>
</g>
</g>
<!-- Node1&#45;&gt;Node4 -->
<g id="edge4" class="edge">
<title>Node1&#45;&gt;Node4</title>
<path fill="none" stroke="#63b8ff" d="M172.99,-109.78C183.11,-101.56 197.58,-88.38 206.5,-74 215.11,-60.12 220.59,-42.33 223.79,-29.11"/>
<polygon fill="#63b8ff" stroke="#63b8ff" points="227.23,-29.79 225.96,-19.27 220.39,-28.28 227.23,-29.79"/>
</g>
<!-- Node5 -->
<g id="node5" class="node">
<title>Node5</title>
<g id="a_node5"><a xlink:href="car__state_8h.html" target="_top" xlink:title="Definition of the CarState structure representing the state of the car.">
<polygon fill="white" stroke="#666666" points="197,-74 126,-74 126,-55 197,-55 197,-74"/>
<text text-anchor="middle" x="161.5" y="-62" font-family="Helvetica,sans-Serif" font-size="10.00">car_state.h</text>
</a>
</g>
</g>
<!-- Node1&#45;&gt;Node5 -->
<g id="edge5" class="edge">
<title>Node1&#45;&gt;Node5</title>
<path fill="none" stroke="#63b8ff" d="M161.5,-109.75C161.5,-102.8 161.5,-92.85 161.5,-84.13"/>
<polygon fill="#63b8ff" stroke="#63b8ff" points="165,-84.09 161.5,-74.09 158,-84.09 165,-84.09"/>
</g>
<!-- Node7 -->
<g id="node7" class="node">
<title>Node7</title>
<g id="a_node7"><a xlink:title=" ">
<polygon fill="#e0e0e0" stroke="#999999" points="317,-74 254,-74 254,-55 317,-55 317,-74"/>
<text text-anchor="middle" x="285.5" y="-62" font-family="Helvetica,sans-Serif" font-size="10.00">Arduino.h</text>
</a>
</g>
</g>
<!-- Node1&#45;&gt;Node7 -->
<g id="edge9" class="edge">
<title>Node1&#45;&gt;Node7</title>
<path fill="none" stroke="#63b8ff" d="M181.42,-109.98C201.55,-101.38 232.88,-87.99 255.91,-78.15"/>
<polygon fill="#63b8ff" stroke="#63b8ff" points="257.4,-81.32 265.21,-74.17 254.64,-74.88 257.4,-81.32"/>
</g>
<!-- Node3&#45;&gt;Node2 -->
<g id="edge3" class="edge">
<title>Node3&#45;&gt;Node2</title>
<path fill="none" stroke="#63b8ff" d="M42.76,-54.75C49.96,-47.11 60.61,-35.82 69.35,-26.56"/>
<polygon fill="#63b8ff" stroke="#63b8ff" points="72.08,-28.76 76.4,-19.09 66.99,-23.96 72.08,-28.76"/>
</g>
<!-- Node5&#45;&gt;Node2 -->
<g id="edge8" class="edge">
<title>Node5&#45;&gt;Node2</title>
<path fill="none" stroke="#63b8ff" d="M149.13,-54.98C137.41,-46.92 119.58,-34.65 105.61,-25.03"/>
<polygon fill="#63b8ff" stroke="#63b8ff" points="107.32,-21.96 97.1,-19.17 103.35,-27.72 107.32,-21.96"/>
</g>
<!-- Node5&#45;&gt;Node4 -->
<g id="edge7" class="edge">
<title>Node5&#45;&gt;Node4</title>
<path fill="none" stroke="#63b8ff" d="M172.1,-54.98C181.96,-47.07 196.85,-35.11 208.72,-25.58"/>
<polygon fill="#63b8ff" stroke="#63b8ff" points="211.1,-28.16 216.7,-19.17 206.71,-22.7 211.1,-28.16"/>
</g>
<!-- Node6 -->
<g id="node6" class="node">
<title>Node6</title>
<g id="a_node6"><a xlink:href="Enums_8h.html" target="_top" xlink:title=" ">
<polygon fill="white" stroke="#666666" points="188,-19 129,-19 129,0 188,0 188,-19"/>
<text text-anchor="middle" x="158.5" y="-7" font-family="Helvetica,sans-Serif" font-size="10.00">Enums.h</text>
</a>
</g>
</g>
<!-- Node5&#45;&gt;Node6 -->
<g id="edge6" class="edge">
<title>Node5&#45;&gt;Node6</title>
<path fill="none" stroke="#63b8ff" d="M161,-54.75C160.61,-47.8 160.05,-37.85 159.55,-29.13"/>
<polygon fill="#63b8ff" stroke="#63b8ff" points="163.05,-28.88 158.99,-19.09 156.06,-29.27 163.05,-28.88"/>
</g>
</g>
</svg>
