<?xml version="1.0" encoding="UTF-8" standalone="no"?>
<!DOCTYPE svg PUBLIC "-//W3C//DTD SVG 1.1//EN"
 "http://www.w3.org/Graphics/SVG/1.1/DTD/svg11.dtd">
<!-- Generated by graphviz version 2.43.0 (0)
 -->
<!-- Title: lib/Pedal/Pedal.cpp Pages: 1 -->
<!--zoomable 247 -->
<svg id="main" version="1.1" xmlns="http://www.w3.org/2000/svg" xmlns:xlink="http://www.w3.org/1999/xlink" xml:space="preserve" onload="init(evt)">
<style type="text/css"><![CDATA[
.edge:hover path { stroke: red; }
.edge:hover polygon { stroke: red; fill: red; }
]]></style>
<script type="text/javascript"><![CDATA[
var edges = document.getElementsByTagName('g');
if (edges && edges.length) {
  for (var i=0;i<edges.length;i++) {
    if (edges[i].id.substr(0,4)=='edge') {
      edges[i].setAttribute('class','edge');
    }
  }
}
]]></script>
        <defs>
                <circle id="rim" cx="0" cy="0" r="7"/>
                <circle id="rim2" cx="0" cy="0" r="3.5"/>
                <g id="zoomPlus">
                        <use xlink:href="#rim" fill="#404040">
                                <set attributeName="fill" to="#808080" begin="zoomplus.mouseover" end="zoomplus.mouseout"/>
                        </use>
                        <path d="M-4,0h8M0,-4v8" fill="none" stroke="white" stroke-width="1.5" pointer-events="none"/>
                </g>
                <g id="zoomMin">
                        <use xlink:href="#rim" fill="#404040">
                                <set attributeName="fill" to="#808080" begin="zoomminus.mouseover" end="zoomminus.mouseout"/>
                        </use>
                        <path d="M-4,0h8" fill="none" stroke="white" stroke-width="1.5" pointer-events="none"/>
                </g>
                <g id="dirArrow">
                        <path fill="none" stroke="white" stroke-width="1.5" d="M0,-3.0v7 M-2.5,-0.5L0,-3.0L2.5,-0.5"/>
                </g>
               <g id="resetDef">
                       <use xlink:href="#rim2" fill="#404040">
                               <set attributeName="fill" to="#808080" begin="reset.mouseover" end="reset.mouseout"/>
                       </use>
               </g>
        </defs>

<script type="text/javascript">
var viewWidth = 747;
var viewHeight = 247;
var sectionId = 'dynsection-0';
</script>
<script xlink:href="svgpan.js"/>
<svg id="graph" class="graph">
<g id="viewport">
<title>lib/Pedal/Pedal.cpp</title>
<!-- Node1 -->
<g id="node1" class="node">
<title>Node1</title>
<g id="a_node1"><a xlink:title="Implementation of the Pedal class for handling throttle pedal inputs.">
<polygon fill="#999999" stroke="#666666" points="536,-239 427,-239 427,-220 536,-220 536,-239"/>
<text text-anchor="middle" x="481.5" y="-227" font-family="Helvetica,sans-Serif" font-size="10.00">lib/Pedal/Pedal.cpp</text>
</a>
</g>
</g>
<!-- Node2 -->
<g id="node2" class="node">
<title>Node2</title>
<g id="a_node2"><a xlink:href="Pedal_8hpp.html" target="_top" xlink:title="Declaration of the Pedal class for handling throttle and brake pedal inputs.">
<polygon fill="white" stroke="#666666" points="386,-184 321,-184 321,-165 386,-165 386,-184"/>
<text text-anchor="middle" x="353.5" y="-172" font-family="Helvetica,sans-Serif" font-size="10.00">Pedal.hpp</text>
</a>
</g>
</g>
<!-- Node1&#45;&gt;Node2 -->
<g id="edge1" class="edge">
<title>Node1&#45;&gt;Node2</title>
<path fill="none" stroke="#63b8ff" d="M460.93,-219.98C440.07,-211.34 407.53,-197.87 383.73,-188.02"/>
<polygon fill="#63b8ff" stroke="#63b8ff" points="385.02,-184.76 374.44,-184.17 382.34,-191.23 385.02,-184.76"/>
</g>
<!-- Node3 -->
<g id="node3" class="node">
<title>Node3</title>
<g id="a_node3"><a xlink:title=" ">
<polygon fill="#e0e0e0" stroke="#999999" points="429,-19 376,-19 376,0 429,0 429,-19"/>
<text text-anchor="middle" x="402.5" y="-7" font-family="Helvetica,sans-Serif" font-size="10.00">stdint.h</text>
</a>
</g>
</g>
<!-- Node1&#45;&gt;Node3 -->
<g id="edge21" class="edge">
<title>Node1&#45;&gt;Node3</title>
<path fill="none" stroke="#63b8ff" d="M500.84,-219.92C538.07,-202.09 613.94,-158.62 589.5,-110 560.78,-52.88 484.83,-27.45 439.04,-17.02"/>
<polygon fill="#63b8ff" stroke="#63b8ff" points="439.71,-13.58 429.2,-14.9 438.24,-20.42 439.71,-13.58"/>
</g>
<!-- Node4 -->
<g id="node4" class="node">
<title>Node4</title>
<g id="a_node4"><a xlink:href="CarState_8hpp.html" target="_top" xlink:title="Definition of the CarState structure representing the state of the car.">
<polygon fill="white" stroke="#666666" points="143.5,-129 63.5,-129 63.5,-110 143.5,-110 143.5,-129"/>
<text text-anchor="middle" x="103.5" y="-117" font-family="Helvetica,sans-Serif" font-size="10.00">CarState.hpp</text>
</a>
</g>
</g>
<!-- Node1&#45;&gt;Node4 -->
<g id="edge20" class="edge">
<title>Node1&#45;&gt;Node4</title>
<path fill="none" stroke="#63b8ff" d="M433.64,-219.96C392.01,-212.08 330.24,-199.3 277.5,-184 226.06,-169.08 167.9,-146.69 133.54,-132.87"/>
<polygon fill="#63b8ff" stroke="#63b8ff" points="134.67,-129.56 124.09,-129.05 132.05,-136.04 134.67,-129.56"/>
</g>
<!-- Node7 -->
<g id="node7" class="node">
<title>Node7</title>
<g id="a_node7"><a xlink:href="Interp_8hpp.html" target="_top" xlink:title="Declaration and definition of the LinearInterp class template for linear interpolation.">
<polygon fill="white" stroke="#666666" points="482.5,-74 416.5,-74 416.5,-55 482.5,-55 482.5,-74"/>
<text text-anchor="middle" x="449.5" y="-62" font-family="Helvetica,sans-Serif" font-size="10.00">Interp.hpp</text>
</a>
</g>
</g>
<!-- Node1&#45;&gt;Node7 -->
<g id="edge24" class="edge">
<title>Node1&#45;&gt;Node7</title>
<path fill="none" stroke="#63b8ff" d="M480.33,-219.82C477.61,-200.16 470.41,-150.76 461.5,-110 459.62,-101.4 457.14,-91.98 454.92,-84.02"/>
<polygon fill="#63b8ff" stroke="#63b8ff" points="458.26,-82.96 452.14,-74.3 451.53,-84.88 458.26,-82.96"/>
</g>
<!-- Node8 -->
<g id="node8" class="node">
<title>Node8</title>
<g id="a_node8"><a xlink:href="Curves_8hpp.html" target="_top" xlink:title="Definition of throttle and brake mapping tables.">
<polygon fill="white" stroke="#666666" points="581,-129 510,-129 510,-110 581,-110 581,-129"/>
<text text-anchor="middle" x="545.5" y="-117" font-family="Helvetica,sans-Serif" font-size="10.00">Curves.hpp</text>
</a>
</g>
</g>
<!-- Node1&#45;&gt;Node8 -->
<g id="edge25" class="edge">
<title>Node1&#45;&gt;Node8</title>
<path fill="none" stroke="#63b8ff" d="M486.74,-219.66C497.29,-201.85 521.28,-161.37 535.13,-138.01"/>
<polygon fill="#63b8ff" stroke="#63b8ff" points="538.28,-139.55 540.37,-129.16 532.26,-135.98 538.28,-139.55"/>
</g>
<!-- Node9 -->
<g id="node9" class="node">
<title>Node9</title>
<g id="a_node9"><a xlink:href="Signal__Processing_8hpp.html" target="_top" xlink:title="Declaration of signal processing functions.">
<polygon fill="white" stroke="#666666" points="287,-129 162,-129 162,-110 287,-110 287,-129"/>
<text text-anchor="middle" x="224.5" y="-117" font-family="Helvetica,sans-Serif" font-size="10.00">Signal_Processing.hpp</text>
</a>
</g>
</g>
<!-- Node1&#45;&gt;Node9 -->
<g id="edge19" class="edge">
<title>Node1&#45;&gt;Node9</title>
<path fill="none" stroke="#63b8ff" d="M428.78,-219.99C394.28,-213.16 348.84,-201.73 311.5,-184 285.03,-171.43 258.37,-150.46 241.67,-136.08"/>
<polygon fill="#63b8ff" stroke="#63b8ff" points="243.72,-133.22 233.9,-129.24 239.09,-138.48 243.72,-133.22"/>
</g>
<!-- Node12 -->
<g id="node12" class="node">
<title>Node12</title>
<g id="a_node12"><a xlink:href="Queue_8hpp.html" target="_top" xlink:title="Declaration of a simple RingBuffer (circular buffer) template class.">
<polygon fill="white" stroke="#666666" points="707,-74 638,-74 638,-55 707,-55 707,-74"/>
<text text-anchor="middle" x="672.5" y="-62" font-family="Helvetica,sans-Serif" font-size="10.00">Queue.hpp</text>
</a>
</g>
</g>
<!-- Node1&#45;&gt;Node12 -->
<g id="edge22" class="edge">
<title>Node1&#45;&gt;Node12</title>
<path fill="none" stroke="#63b8ff" d="M536.28,-222.6C565.26,-216.92 599.68,-205.8 623.5,-184 652.83,-157.16 665.08,-110.1 669.81,-84.1"/>
<polygon fill="#63b8ff" stroke="#63b8ff" points="673.29,-84.5 671.45,-74.07 666.38,-83.37 673.29,-84.5"/>
</g>
<!-- Node13 -->
<g id="node13" class="node">
<title>Node13</title>
<g id="a_node13"><a xlink:href="Debug_8hpp.html" target="_top" xlink:title="Debugging macros and functions for serial and CAN output.">
<polygon fill="white" stroke="#666666" points="90,-184 21,-184 21,-165 90,-165 90,-184"/>
<text text-anchor="middle" x="55.5" y="-172" font-family="Helvetica,sans-Serif" font-size="10.00">Debug.hpp</text>
</a>
</g>
</g>
<!-- Node1&#45;&gt;Node13 -->
<g id="edge26" class="edge">
<title>Node1&#45;&gt;Node13</title>
<path fill="none" stroke="#63b8ff" d="M426.68,-221.68C341.41,-211.07 178.65,-190.82 100.1,-181.05"/>
<polygon fill="#63b8ff" stroke="#63b8ff" points="100.4,-177.56 90.04,-179.8 99.53,-184.51 100.4,-177.56"/>
</g>
<!-- Node14 -->
<g id="node14" class="node">
<title>Node14</title>
<g id="a_node14"><a xlink:title=" ">
<polygon fill="#e0e0e0" stroke="#999999" points="739,-184 676,-184 676,-165 739,-165 739,-184"/>
<text text-anchor="middle" x="707.5" y="-172" font-family="Helvetica,sans-Serif" font-size="10.00">Arduino.h</text>
</a>
</g>
</g>
<!-- Node1&#45;&gt;Node14 -->
<g id="edge28" class="edge">
<title>Node1&#45;&gt;Node14</title>
<path fill="none" stroke="#63b8ff" d="M517.81,-219.98C558.24,-210.5 623.47,-195.21 665.92,-185.25"/>
<polygon fill="#63b8ff" stroke="#63b8ff" points="666.73,-188.66 675.66,-182.97 665.13,-181.84 666.73,-188.66"/>
</g>
<!-- Node2&#45;&gt;Node3 -->
<g id="edge2" class="edge">
<title>Node2&#45;&gt;Node3</title>
<path fill="none" stroke="#63b8ff" d="M353.27,-164.72C353.14,-152.33 353.68,-129.08 358.5,-110 366.1,-79.9 382.08,-47.44 392.54,-28.05"/>
<polygon fill="#63b8ff" stroke="#63b8ff" points="395.67,-29.64 397.44,-19.19 389.54,-26.25 395.67,-29.64"/>
</g>
<!-- Node2&#45;&gt;Node4 -->
<g id="edge3" class="edge">
<title>Node2&#45;&gt;Node4</title>
<path fill="none" stroke="#63b8ff" d="M320.82,-166.57C278.22,-157.54 203.31,-141.66 153.54,-131.11"/>
<polygon fill="#63b8ff" stroke="#63b8ff" points="154.14,-127.66 143.63,-129.01 152.69,-134.51 154.14,-127.66"/>
</g>
<!-- Node2&#45;&gt;Node7 -->
<g id="edge9" class="edge">
<title>Node2&#45;&gt;Node7</title>
<path fill="none" stroke="#63b8ff" d="M354.09,-164.77C355.39,-151.59 359.52,-126.43 372.5,-110 383.68,-95.85 400.68,-85.36 415.86,-78.12"/>
<polygon fill="#63b8ff" stroke="#63b8ff" points="417.31,-81.31 425.02,-74.03 414.46,-74.91 417.31,-81.31"/>
</g>
<!-- Node2&#45;&gt;Node8 -->
<g id="edge11" class="edge">
<title>Node2&#45;&gt;Node8</title>
<path fill="none" stroke="#63b8ff" d="M384.35,-164.98C417,-155.97 468.7,-141.7 504.7,-131.76"/>
<polygon fill="#63b8ff" stroke="#63b8ff" points="505.7,-135.12 514.41,-129.08 503.84,-128.37 505.7,-135.12"/>
</g>
<!-- Node2&#45;&gt;Node9 -->
<g id="edge14" class="edge">
<title>Node2&#45;&gt;Node9</title>
<path fill="none" stroke="#63b8ff" d="M332.77,-164.98C311.74,-156.34 278.95,-142.87 254.96,-133.02"/>
<polygon fill="#63b8ff" stroke="#63b8ff" points="256.18,-129.73 245.6,-129.17 253.52,-136.21 256.18,-129.73"/>
</g>
<!-- Node11 -->
<g id="node11" class="node">
<title>Node11</title>
<g id="a_node11"><a xlink:title=" ">
<polygon fill="#e0e0e0" stroke="#999999" points="453,-129 382,-129 382,-110 453,-110 453,-129"/>
<text text-anchor="middle" x="417.5" y="-117" font-family="Helvetica,sans-Serif" font-size="10.00">mcp2515.h</text>
</a>
</g>
</g>
<!-- Node2&#45;&gt;Node11 -->
<g id="edge18" class="edge">
<title>Node2&#45;&gt;Node11</title>
<path fill="none" stroke="#63b8ff" d="M363.78,-164.98C373.34,-157.07 387.78,-145.11 399.28,-135.58"/>
<polygon fill="#63b8ff" stroke="#63b8ff" points="401.56,-138.24 407.03,-129.17 397.1,-132.85 401.56,-138.24"/>
</g>
<!-- Node4&#45;&gt;Node3 -->
<g id="edge8" class="edge">
<title>Node4&#45;&gt;Node3</title>
<path fill="none" stroke="#63b8ff" d="M111.84,-110C125.9,-96.18 155.8,-69.01 186.5,-55 245.67,-28 321.43,-17.24 365.7,-13.05"/>
<polygon fill="#63b8ff" stroke="#63b8ff" points="366.07,-16.53 375.72,-12.17 365.45,-9.56 366.07,-16.53"/>
</g>
<!-- Node5 -->
<g id="node5" class="node">
<title>Node5</title>
<g id="a_node5"><a xlink:href="Enums_8hpp.html" target="_top" xlink:title=" ">
<polygon fill="white" stroke="#666666" points="71,-74 0,-74 0,-55 71,-55 71,-74"/>
<text text-anchor="middle" x="35.5" y="-62" font-family="Helvetica,sans-Serif" font-size="10.00">Enums.hpp</text>
</a>
</g>
</g>
<!-- Node4&#45;&gt;Node5 -->
<g id="edge4" class="edge">
<title>Node4&#45;&gt;Node5</title>
<path fill="none" stroke="#63b8ff" d="M92.57,-109.98C82.42,-102.07 67.08,-90.11 54.85,-80.58"/>
<polygon fill="#63b8ff" stroke="#63b8ff" points="56.66,-77.56 46.62,-74.17 52.36,-83.08 56.66,-77.56"/>
</g>
<!-- Node6 -->
<g id="node6" class="node">
<title>Node6</title>
<g id="a_node6"><a xlink:title=" ">
<polygon fill="#e0e0e0" stroke="#999999" points="89,-19 46,-19 46,0 89,0 89,-19"/>
<text text-anchor="middle" x="67.5" y="-7" font-family="Helvetica,sans-Serif" font-size="10.00">can.h</text>
</a>
</g>
</g>
<!-- Node4&#45;&gt;Node6 -->
<g id="edge7" class="edge">
<title>Node4&#45;&gt;Node6</title>
<path fill="none" stroke="#63b8ff" d="M100.55,-109.66C94.7,-92.09 81.48,-52.45 73.65,-28.95"/>
<polygon fill="#63b8ff" stroke="#63b8ff" points="76.87,-27.54 70.39,-19.16 70.23,-29.75 76.87,-27.54"/>
</g>
<!-- Node5&#45;&gt;Node3 -->
<g id="edge5" class="edge">
<title>Node5&#45;&gt;Node3</title>
<path fill="none" stroke="#63b8ff" d="M71.02,-58.37C140.66,-48.31 294.5,-26.1 365.39,-15.86"/>
<polygon fill="#63b8ff" stroke="#63b8ff" points="366.24,-19.27 375.63,-14.38 365.24,-12.35 366.24,-19.27"/>
</g>
<!-- Node5&#45;&gt;Node6 -->
<g id="edge6" class="edge">
<title>Node5&#45;&gt;Node6</title>
<path fill="none" stroke="#63b8ff" d="M40.78,-54.75C45.21,-47.42 51.66,-36.73 57.12,-27.7"/>
<polygon fill="#63b8ff" stroke="#63b8ff" points="60.14,-29.46 62.31,-19.09 54.15,-25.84 60.14,-29.46"/>
</g>
<!-- Node7&#45;&gt;Node3 -->
<g id="edge10" class="edge">
<title>Node7&#45;&gt;Node3</title>
<path fill="none" stroke="#63b8ff" d="M441.74,-54.75C435.03,-47.18 425.16,-36.05 416.99,-26.84"/>
<polygon fill="#63b8ff" stroke="#63b8ff" points="419.37,-24.25 410.12,-19.09 414.13,-28.89 419.37,-24.25"/>
</g>
<!-- Node8&#45;&gt;Node3 -->
<g id="edge13" class="edge">
<title>Node8&#45;&gt;Node3</title>
<path fill="none" stroke="#63b8ff" d="M539.77,-109.72C530.78,-96.49 512.23,-71.25 491.5,-55 474.41,-41.6 452.64,-30.63 434.91,-22.93"/>
<polygon fill="#63b8ff" stroke="#63b8ff" points="436.11,-19.64 425.53,-19 433.4,-26.1 436.11,-19.64"/>
</g>
<!-- Node8&#45;&gt;Node7 -->
<g id="edge12" class="edge">
<title>Node8&#45;&gt;Node7</title>
<path fill="none" stroke="#63b8ff" d="M530.08,-109.98C515.05,-101.69 491.96,-88.94 474.34,-79.22"/>
<polygon fill="#63b8ff" stroke="#63b8ff" points="475.65,-75.94 465.2,-74.17 472.27,-82.07 475.65,-75.94"/>
</g>
<!-- Node9&#45;&gt;Node3 -->
<g id="edge15" class="edge">
<title>Node9&#45;&gt;Node3</title>
<path fill="none" stroke="#63b8ff" d="M214.93,-109.98C201.6,-97.07 180.55,-72.25 194.5,-55 215.62,-28.89 311.71,-17.42 365.59,-12.96"/>
<polygon fill="#63b8ff" stroke="#63b8ff" points="366.08,-16.44 375.77,-12.17 365.53,-9.46 366.08,-16.44"/>
</g>
<!-- Node10 -->
<g id="node10" class="node">
<title>Node10</title>
<g id="a_node10"><a xlink:href="Signal__Processing_8tpp.html" target="_top" xlink:title="Definition of Signal Processing functions.">
<polygon fill="white" stroke="#666666" points="327,-74 204,-74 204,-55 327,-55 327,-74"/>
<text text-anchor="middle" x="265.5" y="-62" font-family="Helvetica,sans-Serif" font-size="10.00">Signal_Processing.tpp</text>
</a>
</g>
</g>
<!-- Node9&#45;&gt;Node10 -->
<g id="edge16" class="edge">
<title>Node9&#45;&gt;Node10</title>
<path fill="none" stroke="#63b8ff" d="M226.1,-109.75C230.37,-102.11 238.74,-90.82 246.81,-81.56"/>
<polygon fill="#63b8ff" stroke="#63b8ff" points="249.5,-83.81 253.72,-74.09 244.37,-79.05 249.5,-83.81"/>
</g>
<!-- Node10&#45;&gt;Node9 -->
<g id="edge17" class="edge">
<title>Node10&#45;&gt;Node9</title>
<path fill="none" stroke="#63b8ff" d="M263.99,-74.09C259.78,-81.68 251.44,-92.95 243.36,-102.24"/>
<polygon fill="#63b8ff" stroke="#63b8ff" points="240.64,-100.02 236.44,-109.75 245.79,-104.77 240.64,-100.02"/>
</g>
<!-- Node12&#45;&gt;Node3 -->
<g id="edge23" class="edge">
<title>Node12&#45;&gt;Node3</title>
<path fill="none" stroke="#63b8ff" d="M637.75,-56.68C586.48,-46.61 491,-27.87 438.83,-17.63"/>
<polygon fill="#63b8ff" stroke="#63b8ff" points="439.49,-14.19 429,-15.7 438.14,-21.06 439.49,-14.19"/>
</g>
<!-- Node13&#45;&gt;Node5 -->
<g id="edge27" class="edge">
<title>Node13&#45;&gt;Node5</title>
<path fill="none" stroke="#63b8ff" d="M53.86,-164.66C50.62,-147.17 43.33,-107.8 38.98,-84.27"/>
<polygon fill="#63b8ff" stroke="#63b8ff" points="42.37,-83.35 37.1,-74.16 35.48,-84.63 42.37,-83.35"/>
</g>
</g>
</svg>
        <g id="navigator" transform="translate(0 0)" fill="#404254">
                <rect fill="#f2f5e9" fill-opacity="0.5" stroke="#606060" stroke-width=".5" x="0" y="0" width="60" height="60"/>
                <use id="zoomplus" xlink:href="#zoomPlus" x="17" y="9" onmousedown="handleZoom(evt,'in')"/>
                <use id="zoomminus" xlink:href="#zoomMin" x="42" y="9" onmousedown="handleZoom(evt,'out')"/>
                <use id="reset" xlink:href="#resetDef" x="30" y="36" onmousedown="handleReset()"/>
                <g id="arrowUp" xlink:href="#dirArrow" transform="translate(30 24)" onmousedown="handlePan(0,-1)">
                  <use xlink:href="#rim" fill="#404040">
                        <set attributeName="fill" to="#808080" begin="arrowUp.mouseover" end="arrowUp.mouseout"/>
                  </use>
                  <path fill="none" stroke="white" stroke-width="1.5" d="M0,-3.0v7 M-2.5,-0.5L0,-3.0L2.5,-0.5"/>
                </g>
                <g id="arrowRight" xlink:href="#dirArrow" transform="rotate(90) translate(36 -43)" onmousedown="handlePan(1,0)">
                  <use xlink:href="#rim" fill="#404040">
                        <set attributeName="fill" to="#808080" begin="arrowRight.mouseover" end="arrowRight.mouseout"/>
                  </use>
                  <path fill="none" stroke="white" stroke-width="1.5" d="M0,-3.0v7 M-2.5,-0.5L0,-3.0L2.5,-0.5"/>
                </g>
                <g id="arrowDown" xlink:href="#dirArrow" transform="rotate(180) translate(-30 -48)" onmousedown="handlePan(0,1)">
                  <use xlink:href="#rim" fill="#404040">
                        <set attributeName="fill" to="#808080" begin="arrowDown.mouseover" end="arrowDown.mouseout"/>
                  </use>
                  <path fill="none" stroke="white" stroke-width="1.5" d="M0,-3.0v7 M-2.5,-0.5L0,-3.0L2.5,-0.5"/>
                </g>
                <g id="arrowLeft" xlink:href="#dirArrow" transform="rotate(270) translate(-36 17)" onmousedown="handlePan(-1,0)">
                  <use xlink:href="#rim" fill="#404040">
                        <set attributeName="fill" to="#808080" begin="arrowLeft.mouseover" end="arrowLeft.mouseout"/>
                  </use>
                  <path fill="none" stroke="white" stroke-width="1.5" d="M0,-3.0v7 M-2.5,-0.5L0,-3.0L2.5,-0.5"/>
                </g>
        </g>
        <svg viewBox="0 0 15 15" width="100%" height="30px" preserveAspectRatio="xMaxYMin meet">
         <g id="arrow_out" transform="scale(0.3 0.3)">
          <a xlink:href="Pedal_8cpp__incl_org.svg" target="_base">
           <rect id="button" ry="5" rx="5" y="6" x="6" height="38" width="38"
                fill="#f2f5e9" fill-opacity="0.5" stroke="#606060" stroke-width="1.0"/>
           <path id="arrow"
             d="M 11.500037,31.436501 C 11.940474,20.09759 22.043105,11.32322 32.158766,21.979434 L 37.068811,17.246167 C 37.068811,17.246167 37.088388,32 37.088388,32 L 22.160133,31.978069 C 22.160133,31.978069 26.997745,27.140456 26.997745,27.140456 C 18.528582,18.264221 13.291696,25.230495 11.500037,31.436501 z"
             style="fill:#404040;"/>
          </a>
         </g>
        </svg>
</svg>
