<?xml version="1.0" encoding="UTF-8" standalone="no"?>
<!DOCTYPE svg PUBLIC "-//W3C//DTD SVG 1.1//EN"
 "http://www.w3.org/Graphics/SVG/1.1/DTD/svg11.dtd">
<!-- Generated by graphviz version 2.43.0 (0)
 -->
<!-- Title: lib/Pedal/Pedal.hpp Pages: 1 -->
<svg width="414pt" height="192pt"
 viewBox="0.00 0.00 414.00 192.00" xmlns="http://www.w3.org/2000/svg" xmlns:xlink="http://www.w3.org/1999/xlink">
<g id="graph0" class="graph" transform="scale(1 1) rotate(0) translate(4 188)">
<title>lib/Pedal/Pedal.hpp</title>
<!-- Node1 -->
<g id="node1" class="node">
<title>Node1</title>
<g id="a_node1"><a xlink:title=" ">
<polygon fill="#999999" stroke="#666666" points="291.5,-184 181.5,-184 181.5,-165 291.5,-165 291.5,-184"/>
<text text-anchor="middle" x="236.5" y="-172" font-family="Helvetica,sans-Serif" font-size="10.00">lib/Pedal/Pedal.hpp</text>
</a>
</g>
</g>
<!-- Node2 -->
<g id="node2" class="node">
<title>Node2</title>
<g id="a_node2"><a xlink:title=" ">
<polygon fill="#e0e0e0" stroke="#999999" points="226,-19 173,-19 173,0 226,0 226,-19"/>
<text text-anchor="middle" x="199.5" y="-7" font-family="Helvetica,sans-Serif" font-size="10.00">stdint.h</text>
</a>
</g>
</g>
<!-- Node1&#45;&gt;Node2 -->
<g id="edge1" class="edge">
<title>Node1&#45;&gt;Node2</title>
<path fill="none" stroke="#63b8ff" d="M240.21,-164.87C245,-152.65 252.28,-129.61 248.5,-110 242.52,-78.94 224.04,-46.78 211.57,-27.71"/>
<polygon fill="#63b8ff" stroke="#63b8ff" points="214.34,-25.57 205.85,-19.24 208.54,-29.49 214.34,-25.57"/>
</g>
<!-- Node3 -->
<g id="node3" class="node">
<title>Node3</title>
<g id="a_node3"><a xlink:href="Queue_8hpp.html" target="_top" xlink:title=" ">
<polygon fill="white" stroke="#666666" points="366,-74 297,-74 297,-55 366,-55 366,-74"/>
<text text-anchor="middle" x="331.5" y="-62" font-family="Helvetica,sans-Serif" font-size="10.00">Queue.hpp</text>
</a>
</g>
</g>
<!-- Node1&#45;&gt;Node3 -->
<g id="edge2" class="edge">
<title>Node1&#45;&gt;Node3</title>
<path fill="none" stroke="#63b8ff" d="M246.42,-164.68C256.02,-155.97 270.8,-142.09 282.5,-129 295.94,-113.96 309.86,-95.62 319.41,-82.52"/>
<polygon fill="#63b8ff" stroke="#63b8ff" points="322.52,-84.19 325.53,-74.03 316.84,-80.1 322.52,-84.19"/>
</g>
<!-- Node4 -->
<g id="node4" class="node">
<title>Node4</title>
<g id="a_node4"><a xlink:href="CarState_8hpp.html" target="_top" xlink:title="Definition of the CarState structure representing the state of the car.">
<polygon fill="white" stroke="#666666" points="101.5,-129 21.5,-129 21.5,-110 101.5,-110 101.5,-129"/>
<text text-anchor="middle" x="61.5" y="-117" font-family="Helvetica,sans-Serif" font-size="10.00">CarState.hpp</text>
</a>
</g>
</g>
<!-- Node1&#45;&gt;Node4 -->
<g id="edge4" class="edge">
<title>Node1&#45;&gt;Node4</title>
<path fill="none" stroke="#63b8ff" d="M208.38,-164.98C178.88,-156.05 132.31,-141.94 99.53,-132.02"/>
<polygon fill="#63b8ff" stroke="#63b8ff" points="100.42,-128.63 89.84,-129.08 98.39,-135.33 100.42,-128.63"/>
</g>
<!-- Node7 -->
<g id="node7" class="node">
<title>Node7</title>
<g id="a_node7"><a xlink:href="Interp_8hpp.html" target="_top" xlink:title="Declaration and definition of the LinearInterp class template for linear interpolation.">
<polygon fill="white" stroke="#666666" points="202.5,-74 136.5,-74 136.5,-55 202.5,-55 202.5,-74"/>
<text text-anchor="middle" x="169.5" y="-62" font-family="Helvetica,sans-Serif" font-size="10.00">Interp.hpp</text>
</a>
</g>
</g>
<!-- Node1&#45;&gt;Node7 -->
<g id="edge10" class="edge">
<title>Node1&#45;&gt;Node7</title>
<path fill="none" stroke="#63b8ff" d="M207.36,-164.87C190.15,-158.1 169.76,-146.79 159.5,-129 151.58,-115.27 155.52,-97.23 160.61,-83.89"/>
<polygon fill="#63b8ff" stroke="#63b8ff" points="163.97,-84.93 164.72,-74.37 157.54,-82.16 163.97,-84.93"/>
</g>
<!-- Node8 -->
<g id="node8" class="node">
<title>Node8</title>
<g id="a_node8"><a xlink:href="Curves_8hpp.html" target="_top" xlink:title="Definition of throttle and brake mapping tables.">
<polygon fill="white" stroke="#666666" points="240,-129 169,-129 169,-110 240,-110 240,-129"/>
<text text-anchor="middle" x="204.5" y="-117" font-family="Helvetica,sans-Serif" font-size="10.00">Curves.hpp</text>
</a>
</g>
</g>
<!-- Node1&#45;&gt;Node8 -->
<g id="edge12" class="edge">
<title>Node1&#45;&gt;Node8</title>
<path fill="none" stroke="#63b8ff" d="M231.22,-164.75C226.79,-157.42 220.34,-146.73 214.88,-137.7"/>
<polygon fill="#63b8ff" stroke="#63b8ff" points="217.85,-135.84 209.69,-129.09 211.86,-139.46 217.85,-135.84"/>
</g>
<!-- Node9 -->
<g id="node9" class="node">
<title>Node9</title>
<g id="a_node9"><a xlink:title=" ">
<polygon fill="#e0e0e0" stroke="#999999" points="406,-129 335,-129 335,-110 406,-110 406,-129"/>
<text text-anchor="middle" x="370.5" y="-117" font-family="Helvetica,sans-Serif" font-size="10.00">mcp2515.h</text>
</a>
</g>
</g>
<!-- Node1&#45;&gt;Node9 -->
<g id="edge15" class="edge">
<title>Node1&#45;&gt;Node9</title>
<path fill="none" stroke="#63b8ff" d="M258.03,-164.98C279.97,-156.3 314.24,-142.75 339.19,-132.88"/>
<polygon fill="#63b8ff" stroke="#63b8ff" points="340.57,-136.1 348.58,-129.17 337.99,-129.59 340.57,-136.1"/>
</g>
<!-- Node3&#45;&gt;Node2 -->
<g id="edge3" class="edge">
<title>Node3&#45;&gt;Node2</title>
<path fill="none" stroke="#63b8ff" d="M310.29,-54.98C288.77,-46.34 255.22,-32.87 230.67,-23.02"/>
<polygon fill="#63b8ff" stroke="#63b8ff" points="231.68,-19.65 221.09,-19.17 229.07,-26.14 231.68,-19.65"/>
</g>
<!-- Node4&#45;&gt;Node2 -->
<g id="edge9" class="edge">
<title>Node4&#45;&gt;Node2</title>
<path fill="none" stroke="#63b8ff" d="M69.52,-109.67C81.44,-96.81 104.89,-72.54 127.5,-55 142.36,-43.47 160.35,-32.35 174.64,-24.11"/>
<polygon fill="#63b8ff" stroke="#63b8ff" points="176.44,-27.11 183.42,-19.13 172.99,-21.02 176.44,-27.11"/>
</g>
<!-- Node5 -->
<g id="node5" class="node">
<title>Node5</title>
<g id="a_node5"><a xlink:href="Enums_8h.html" target="_top" xlink:title="Enumeration definitions for the VCU.">
<polygon fill="white" stroke="#666666" points="80,-74 21,-74 21,-55 80,-55 80,-74"/>
<text text-anchor="middle" x="50.5" y="-62" font-family="Helvetica,sans-Serif" font-size="10.00">Enums.h</text>
</a>
</g>
</g>
<!-- Node4&#45;&gt;Node5 -->
<g id="edge5" class="edge">
<title>Node4&#45;&gt;Node5</title>
<path fill="none" stroke="#63b8ff" d="M59.68,-109.75C58.24,-102.8 56.18,-92.85 54.37,-84.13"/>
<polygon fill="#63b8ff" stroke="#63b8ff" points="57.74,-83.17 52.28,-74.09 50.89,-84.59 57.74,-83.17"/>
</g>
<!-- Node6 -->
<g id="node6" class="node">
<title>Node6</title>
<g id="a_node6"><a xlink:title=" ">
<polygon fill="#e0e0e0" stroke="#999999" points="43,-19 0,-19 0,0 43,0 43,-19"/>
<text text-anchor="middle" x="21.5" y="-7" font-family="Helvetica,sans-Serif" font-size="10.00">can.h</text>
</a>
</g>
</g>
<!-- Node4&#45;&gt;Node6 -->
<g id="edge8" class="edge">
<title>Node4&#45;&gt;Node6</title>
<path fill="none" stroke="#63b8ff" d="M46.07,-109.8C34.15,-102.11 18.54,-89.69 11.5,-74 5.01,-59.54 8.8,-41.58 13.46,-28.45"/>
<polygon fill="#63b8ff" stroke="#63b8ff" points="16.73,-29.7 17.2,-19.12 10.23,-27.1 16.73,-29.7"/>
</g>
<!-- Node5&#45;&gt;Node2 -->
<g id="edge6" class="edge">
<title>Node5&#45;&gt;Node2</title>
<path fill="none" stroke="#63b8ff" d="M74.44,-54.98C99.06,-46.23 137.62,-32.51 165.42,-22.62"/>
<polygon fill="#63b8ff" stroke="#63b8ff" points="166.88,-25.82 175.12,-19.17 164.53,-19.22 166.88,-25.82"/>
</g>
<!-- Node5&#45;&gt;Node6 -->
<g id="edge7" class="edge">
<title>Node5&#45;&gt;Node6</title>
<path fill="none" stroke="#63b8ff" d="M45.71,-54.75C41.74,-47.49 35.97,-36.95 31.07,-27.98"/>
<polygon fill="#63b8ff" stroke="#63b8ff" points="34.07,-26.18 26.2,-19.09 27.93,-29.54 34.07,-26.18"/>
</g>
<!-- Node7&#45;&gt;Node2 -->
<g id="edge11" class="edge">
<title>Node7&#45;&gt;Node2</title>
<path fill="none" stroke="#63b8ff" d="M174.45,-54.75C178.56,-47.49 184.53,-36.95 189.6,-27.98"/>
<polygon fill="#63b8ff" stroke="#63b8ff" points="192.76,-29.52 194.64,-19.09 186.67,-26.07 192.76,-29.52"/>
</g>
<!-- Node8&#45;&gt;Node2 -->
<g id="edge14" class="edge">
<title>Node8&#45;&gt;Node2</title>
<path fill="none" stroke="#63b8ff" d="M206.78,-109.86C209.7,-97.63 214.09,-74.57 211.5,-55 210.34,-46.27 207.97,-36.83 205.63,-28.9"/>
<polygon fill="#63b8ff" stroke="#63b8ff" points="208.93,-27.72 202.59,-19.23 202.25,-29.82 208.93,-27.72"/>
</g>
<!-- Node8&#45;&gt;Node7 -->
<g id="edge13" class="edge">
<title>Node8&#45;&gt;Node7</title>
<path fill="none" stroke="#63b8ff" d="M198.72,-109.75C193.88,-102.42 186.82,-91.73 180.86,-82.7"/>
<polygon fill="#63b8ff" stroke="#63b8ff" points="183.6,-80.5 175.17,-74.09 177.76,-84.36 183.6,-80.5"/>
</g>
</g>
</svg>
