<?xml version="1.0" encoding="UTF-8" standalone="no"?>
<!DOCTYPE svg PUBLIC "-//W3C//DTD SVG 1.1//EN"
 "http://www.w3.org/Graphics/SVG/1.1/DTD/svg11.dtd">
<!-- Generated by graphviz version 2.43.0 (0)
 -->
<!-- Title: lib/Pedal/Pedal.hpp Pages: 1 -->
<svg width="341pt" height="192pt"
 viewBox="0.00 0.00 341.02 192.00" xmlns="http://www.w3.org/2000/svg" xmlns:xlink="http://www.w3.org/1999/xlink">
<g id="graph0" class="graph" transform="scale(1 1) rotate(0) translate(4 188)">
<title>lib/Pedal/Pedal.hpp</title>
<!-- Node1 -->
<g id="node1" class="node">
<title>Node1</title>
<g id="a_node1"><a xlink:title=" ">
<polygon fill="#999999" stroke="#666666" points="195.52,-184 85.52,-184 85.52,-165 195.52,-165 195.52,-184"/>
<text text-anchor="middle" x="140.52" y="-172" font-family="Helvetica,sans-Serif" font-size="10.00">lib/Pedal/Pedal.hpp</text>
</a>
</g>
</g>
<!-- Node2 -->
<g id="node2" class="node">
<title>Node2</title>
<g id="a_node2"><a xlink:title=" ">
<polygon fill="#e0e0e0" stroke="#999999" points="250.02,-19 197.02,-19 197.02,0 250.02,0 250.02,-19"/>
<text text-anchor="middle" x="223.52" y="-7" font-family="Helvetica,sans-Serif" font-size="10.00">stdint.h</text>
</a>
</g>
</g>
<!-- Node1&#45;&gt;Node2 -->
<g id="edge1" class="edge">
<title>Node1&#45;&gt;Node2</title>
<path fill="none" stroke="#63b8ff" d="M85.46,-169.4C41.09,-163.28 -11.74,-148.03 2.52,-110 29.58,-37.82 131.08,-17.99 186.63,-12.55"/>
<polygon fill="#63b8ff" stroke="#63b8ff" points="187.1,-16.02 196.76,-11.67 186.49,-9.05 187.1,-16.02"/>
</g>
<!-- Node3 -->
<g id="node3" class="node">
<title>Node3</title>
<g id="a_node3"><a xlink:title=" ">
<polygon fill="#e0e0e0" stroke="#999999" points="118.02,-74 75.02,-74 75.02,-55 118.02,-55 118.02,-74"/>
<text text-anchor="middle" x="96.52" y="-62" font-family="Helvetica,sans-Serif" font-size="10.00">can.h</text>
</a>
</g>
</g>
<!-- Node1&#45;&gt;Node3 -->
<g id="edge2" class="edge">
<title>Node1&#45;&gt;Node3</title>
<path fill="none" stroke="#63b8ff" d="M136.92,-164.66C129.73,-147.01 113.46,-107.09 103.91,-83.64"/>
<polygon fill="#63b8ff" stroke="#63b8ff" points="107.06,-82.1 100.04,-74.16 100.58,-84.74 107.06,-82.1"/>
</g>
<!-- Node4 -->
<g id="node4" class="node">
<title>Node4</title>
<g id="a_node4"><a xlink:href="Queue_8hpp.html" target="_top" xlink:title=" ">
<polygon fill="white" stroke="#666666" points="81.02,-129 12.02,-129 12.02,-110 81.02,-110 81.02,-129"/>
<text text-anchor="middle" x="46.52" y="-117" font-family="Helvetica,sans-Serif" font-size="10.00">Queue.hpp</text>
</a>
</g>
</g>
<!-- Node1&#45;&gt;Node4 -->
<g id="edge3" class="edge">
<title>Node1&#45;&gt;Node4</title>
<path fill="none" stroke="#63b8ff" d="M125.41,-164.98C110.7,-156.69 88.09,-143.94 70.84,-134.22"/>
<polygon fill="#63b8ff" stroke="#63b8ff" points="72.32,-131.03 61.89,-129.17 68.89,-137.13 72.32,-131.03"/>
</g>
<!-- Node5 -->
<g id="node5" class="node">
<title>Node5</title>
<g id="a_node5"><a xlink:href="CarState_8h.html" target="_top" xlink:title="Definition of the CarState structure representing the state of the car.">
<polygon fill="white" stroke="#666666" points="205.52,-129 137.52,-129 137.52,-110 205.52,-110 205.52,-129"/>
<text text-anchor="middle" x="171.52" y="-117" font-family="Helvetica,sans-Serif" font-size="10.00">CarState.h</text>
</a>
</g>
</g>
<!-- Node1&#45;&gt;Node5 -->
<g id="edge5" class="edge">
<title>Node1&#45;&gt;Node5</title>
<path fill="none" stroke="#63b8ff" d="M145.64,-164.75C149.88,-157.49 156.04,-146.95 161.29,-137.98"/>
<polygon fill="#63b8ff" stroke="#63b8ff" points="164.47,-139.49 166.49,-129.09 158.42,-135.95 164.47,-139.49"/>
</g>
<!-- Node7 -->
<g id="node7" class="node">
<title>Node7</title>
<g id="a_node7"><a xlink:href="Interp_8hpp.html" target="_top" xlink:title="Declaration and definition of the LinearInterp class template for linear interpolation.">
<polygon fill="white" stroke="#666666" points="317.52,-74 251.52,-74 251.52,-55 317.52,-55 317.52,-74"/>
<text text-anchor="middle" x="284.52" y="-62" font-family="Helvetica,sans-Serif" font-size="10.00">Interp.hpp</text>
</a>
</g>
</g>
<!-- Node1&#45;&gt;Node7 -->
<g id="edge9" class="edge">
<title>Node1&#45;&gt;Node7</title>
<path fill="none" stroke="#63b8ff" d="M156.68,-164.98C172.07,-156.59 195.63,-143.04 214.52,-129 234.33,-114.27 255.04,-94.92 268.74,-81.47"/>
<polygon fill="#63b8ff" stroke="#63b8ff" points="271.32,-83.84 275.94,-74.31 266.38,-78.88 271.32,-83.84"/>
</g>
<!-- Node8 -->
<g id="node8" class="node">
<title>Node8</title>
<g id="a_node8"><a xlink:href="Curves_8hpp.html" target="_top" xlink:title="Definition of throttle and brake mapping tables.">
<polygon fill="white" stroke="#666666" points="333.02,-129 262.02,-129 262.02,-110 333.02,-110 333.02,-129"/>
<text text-anchor="middle" x="297.52" y="-117" font-family="Helvetica,sans-Serif" font-size="10.00">Curves.hpp</text>
</a>
</g>
</g>
<!-- Node1&#45;&gt;Node8 -->
<g id="edge11" class="edge">
<title>Node1&#45;&gt;Node8</title>
<path fill="none" stroke="#63b8ff" d="M165.74,-164.98C191.87,-156.16 232.91,-142.31 262.25,-132.41"/>
<polygon fill="#63b8ff" stroke="#63b8ff" points="263.74,-135.6 272.09,-129.08 261.5,-128.96 263.74,-135.6"/>
</g>
<!-- Node4&#45;&gt;Node2 -->
<g id="edge4" class="edge">
<title>Node4&#45;&gt;Node2</title>
<path fill="none" stroke="#63b8ff" d="M46.6,-109.78C47.21,-96.16 50.42,-69.85 65.52,-55 97.87,-23.17 151.13,-13.72 186.75,-11.12"/>
<polygon fill="#63b8ff" stroke="#63b8ff" points="186.97,-14.62 196.75,-10.54 186.56,-7.63 186.97,-14.62"/>
</g>
<!-- Node5&#45;&gt;Node2 -->
<g id="edge8" class="edge">
<title>Node5&#45;&gt;Node2</title>
<path fill="none" stroke="#63b8ff" d="M179.04,-109.84C186.17,-101.24 196.78,-87.44 203.52,-74 210.72,-59.61 216.01,-42.09 219.33,-29.1"/>
<polygon fill="#63b8ff" stroke="#63b8ff" points="222.81,-29.59 221.74,-19.05 216,-27.96 222.81,-29.59"/>
</g>
<!-- Node5&#45;&gt;Node3 -->
<g id="edge7" class="edge">
<title>Node5&#45;&gt;Node3</title>
<path fill="none" stroke="#63b8ff" d="M159.47,-109.98C148.05,-101.92 130.69,-89.65 117.08,-80.03"/>
<polygon fill="#63b8ff" stroke="#63b8ff" points="118.97,-77.08 108.79,-74.17 114.93,-82.8 118.97,-77.08"/>
</g>
<!-- Node6 -->
<g id="node6" class="node">
<title>Node6</title>
<g id="a_node6"><a xlink:href="Enums_8h.html" target="_top" xlink:title="Enumeration definitions for the VCU.">
<polygon fill="white" stroke="#666666" points="195.02,-74 136.02,-74 136.02,-55 195.02,-55 195.02,-74"/>
<text text-anchor="middle" x="165.52" y="-62" font-family="Helvetica,sans-Serif" font-size="10.00">Enums.h</text>
</a>
</g>
</g>
<!-- Node5&#45;&gt;Node6 -->
<g id="edge6" class="edge">
<title>Node5&#45;&gt;Node6</title>
<path fill="none" stroke="#63b8ff" d="M170.53,-109.75C169.74,-102.8 168.61,-92.85 167.63,-84.13"/>
<polygon fill="#63b8ff" stroke="#63b8ff" points="171.09,-83.63 166.49,-74.09 164.14,-84.42 171.09,-83.63"/>
</g>
<!-- Node7&#45;&gt;Node2 -->
<g id="edge10" class="edge">
<title>Node7&#45;&gt;Node2</title>
<path fill="none" stroke="#63b8ff" d="M274.72,-54.98C265.7,-47.15 252.11,-35.34 241.2,-25.86"/>
<polygon fill="#63b8ff" stroke="#63b8ff" points="243.34,-23.09 233.5,-19.17 238.75,-28.37 243.34,-23.09"/>
</g>
<!-- Node8&#45;&gt;Node2 -->
<g id="edge13" class="edge">
<title>Node8&#45;&gt;Node2</title>
<path fill="none" stroke="#63b8ff" d="M306.84,-109.85C319.29,-97.22 338.5,-73.23 326.52,-55 311.88,-32.74 283.49,-21.56 260.21,-15.98"/>
<polygon fill="#63b8ff" stroke="#63b8ff" points="260.79,-12.52 250.28,-13.85 259.32,-19.37 260.79,-12.52"/>
</g>
<!-- Node8&#45;&gt;Node7 -->
<g id="edge12" class="edge">
<title>Node8&#45;&gt;Node7</title>
<path fill="none" stroke="#63b8ff" d="M295.37,-109.75C293.65,-102.72 291.17,-92.62 289.02,-83.84"/>
<polygon fill="#63b8ff" stroke="#63b8ff" points="292.41,-82.97 286.62,-74.09 285.61,-84.63 292.41,-82.97"/>
</g>
</g>
</svg>
