<?xml version="1.0" encoding="UTF-8" standalone="no"?>
<!DOCTYPE svg PUBLIC "-//W3C//DTD SVG 1.1//EN"
 "http://www.w3.org/Graphics/SVG/1.1/DTD/svg11.dtd">
<!-- Generated by graphviz version 2.43.0 (0)
 -->
<!-- Title: lib/Pedal/Pedal.cpp Pages: 1 -->
<svg width="629pt" height="247pt"
 viewBox="0.00 0.00 628.74 247.00" xmlns="http://www.w3.org/2000/svg" xmlns:xlink="http://www.w3.org/1999/xlink">
<g id="graph0" class="graph" transform="scale(1 1) rotate(0) translate(4 243)">
<title>lib/Pedal/Pedal.cpp</title>
<!-- Node1 -->
<g id="node1" class="node">
<title>Node1</title>
<g id="a_node1"><a xlink:title="Implementation of the Pedal class for handling throttle pedal inputs.">
<polygon fill="#999999" stroke="#666666" points="473.74,-239 364.74,-239 364.74,-220 473.74,-220 473.74,-239"/>
<text text-anchor="middle" x="419.24" y="-227" font-family="Helvetica,sans-Serif" font-size="10.00">lib/Pedal/Pedal.cpp</text>
</a>
</g>
</g>
<!-- Node2 -->
<g id="node2" class="node">
<title>Node2</title>
<g id="a_node2"><a xlink:href="Pedal_8hpp.html" target="_top" xlink:title=" ">
<polygon fill="white" stroke="#666666" points="206.74,-184 141.74,-184 141.74,-165 206.74,-165 206.74,-184"/>
<text text-anchor="middle" x="174.24" y="-172" font-family="Helvetica,sans-Serif" font-size="10.00">Pedal.hpp</text>
</a>
</g>
</g>
<!-- Node1&#45;&gt;Node2 -->
<g id="edge1" class="edge">
<title>Node1&#45;&gt;Node2</title>
<path fill="none" stroke="#63b8ff" d="M379.88,-219.98C335.23,-210.33 262.7,-194.64 216.78,-184.7"/>
<polygon fill="#63b8ff" stroke="#63b8ff" points="217.36,-181.25 206.84,-182.55 215.88,-188.09 217.36,-181.25"/>
</g>
<!-- Node10 -->
<g id="node10" class="node">
<title>Node10</title>
<g id="a_node10"><a xlink:href="Signal__Processing_8hpp.html" target="_top" xlink:title=" ">
<polygon fill="white" stroke="#666666" points="539.74,-184 414.74,-184 414.74,-165 539.74,-165 539.74,-184"/>
<text text-anchor="middle" x="477.24" y="-172" font-family="Helvetica,sans-Serif" font-size="10.00">Signal_Processing.hpp</text>
</a>
</g>
</g>
<!-- Node1&#45;&gt;Node10 -->
<g id="edge15" class="edge">
<title>Node1&#45;&gt;Node10</title>
<path fill="none" stroke="#63b8ff" d="M428.56,-219.98C437.05,-212.23 449.8,-200.58 460.12,-191.14"/>
<polygon fill="#63b8ff" stroke="#63b8ff" points="462.73,-193.5 467.75,-184.17 458.01,-188.33 462.73,-193.5"/>
</g>
<!-- Node12 -->
<g id="node12" class="node">
<title>Node12</title>
<g id="a_node12"><a xlink:href="Debug_8hpp.html" target="_top" xlink:title="Debugging macros and functions for serial and CAN output.">
<polygon fill="white" stroke="#666666" points="396.74,-184 327.74,-184 327.74,-165 396.74,-165 396.74,-184"/>
<text text-anchor="middle" x="362.24" y="-172" font-family="Helvetica,sans-Serif" font-size="10.00">Debug.hpp</text>
</a>
</g>
</g>
<!-- Node1&#45;&gt;Node12 -->
<g id="edge19" class="edge">
<title>Node1&#45;&gt;Node12</title>
<path fill="none" stroke="#63b8ff" d="M410.08,-219.98C401.74,-212.23 389.21,-200.58 379.06,-191.14"/>
<polygon fill="#63b8ff" stroke="#63b8ff" points="381.27,-188.42 371.56,-184.17 376.5,-193.54 381.27,-188.42"/>
</g>
<!-- Node13 -->
<g id="node13" class="node">
<title>Node13</title>
<g id="a_node13"><a xlink:title=" ">
<polygon fill="#e0e0e0" stroke="#999999" points="620.74,-184 557.74,-184 557.74,-165 620.74,-165 620.74,-184"/>
<text text-anchor="middle" x="589.24" y="-172" font-family="Helvetica,sans-Serif" font-size="10.00">Arduino.h</text>
</a>
</g>
</g>
<!-- Node1&#45;&gt;Node13 -->
<g id="edge21" class="edge">
<title>Node1&#45;&gt;Node13</title>
<path fill="none" stroke="#63b8ff" d="M446.55,-219.98C475.09,-211.09 520.06,-197.07 551.88,-187.15"/>
<polygon fill="#63b8ff" stroke="#63b8ff" points="553.21,-190.4 561.71,-184.08 551.12,-183.72 553.21,-190.4"/>
</g>
<!-- Node3 -->
<g id="node3" class="node">
<title>Node3</title>
<g id="a_node3"><a xlink:title=" ">
<polygon fill="#e0e0e0" stroke="#999999" points="195.74,-19 142.74,-19 142.74,0 195.74,0 195.74,-19"/>
<text text-anchor="middle" x="169.24" y="-7" font-family="Helvetica,sans-Serif" font-size="10.00">stdint.h</text>
</a>
</g>
</g>
<!-- Node2&#45;&gt;Node3 -->
<g id="edge2" class="edge">
<title>Node2&#45;&gt;Node3</title>
<path fill="none" stroke="#63b8ff" d="M141.7,-165.35C82.75,-149.03 -31.94,-109.2 9.24,-55 24.11,-35.44 90.1,-22.2 132.55,-15.53"/>
<polygon fill="#63b8ff" stroke="#63b8ff" points="133.17,-18.98 142.53,-14.02 132.12,-12.06 133.17,-18.98"/>
</g>
<!-- Node4 -->
<g id="node4" class="node">
<title>Node4</title>
<g id="a_node4"><a xlink:title=" ">
<polygon fill="#e0e0e0" stroke="#999999" points="271.74,-74 228.74,-74 228.74,-55 271.74,-55 271.74,-74"/>
<text text-anchor="middle" x="250.24" y="-62" font-family="Helvetica,sans-Serif" font-size="10.00">can.h</text>
</a>
</g>
</g>
<!-- Node2&#45;&gt;Node4 -->
<g id="edge3" class="edge">
<title>Node2&#45;&gt;Node4</title>
<path fill="none" stroke="#63b8ff" d="M184.61,-164.73C194.17,-156.28 208.35,-142.76 218.24,-129 228.47,-114.76 237.2,-96.78 242.94,-83.59"/>
<polygon fill="#63b8ff" stroke="#63b8ff" points="246.24,-84.77 246.88,-74.2 239.79,-82.06 246.24,-84.77"/>
</g>
<!-- Node5 -->
<g id="node5" class="node">
<title>Node5</title>
<g id="a_node5"><a xlink:href="Queue_8hpp.html" target="_top" xlink:title=" ">
<polygon fill="white" stroke="#666666" points="87.74,-74 18.74,-74 18.74,-55 87.74,-55 87.74,-74"/>
<text text-anchor="middle" x="53.24" y="-62" font-family="Helvetica,sans-Serif" font-size="10.00">Queue.hpp</text>
</a>
</g>
</g>
<!-- Node2&#45;&gt;Node5 -->
<g id="edge4" class="edge">
<title>Node2&#45;&gt;Node5</title>
<path fill="none" stroke="#63b8ff" d="M163.78,-164.74C153.22,-155.85 136.46,-141.62 122.24,-129 104.12,-112.92 83.75,-94.08 69.87,-81.12"/>
<polygon fill="#63b8ff" stroke="#63b8ff" points="72.21,-78.51 62.52,-74.24 67.43,-83.62 72.21,-78.51"/>
</g>
<!-- Node6 -->
<g id="node6" class="node">
<title>Node6</title>
<g id="a_node6"><a xlink:href="CarState_8h.html" target="_top" xlink:title="Definition of the CarState structure representing the state of the car.">
<polygon fill="white" stroke="#666666" points="334.24,-129 266.24,-129 266.24,-110 334.24,-110 334.24,-129"/>
<text text-anchor="middle" x="300.24" y="-117" font-family="Helvetica,sans-Serif" font-size="10.00">CarState.h</text>
</a>
</g>
</g>
<!-- Node2&#45;&gt;Node6 -->
<g id="edge6" class="edge">
<title>Node2&#45;&gt;Node6</title>
<path fill="none" stroke="#63b8ff" d="M194.48,-164.98C214.94,-156.38 246.77,-142.99 270.17,-133.15"/>
<polygon fill="#63b8ff" stroke="#63b8ff" points="271.77,-136.27 279.63,-129.17 269.05,-129.82 271.77,-136.27"/>
</g>
<!-- Node8 -->
<g id="node8" class="node">
<title>Node8</title>
<g id="a_node8"><a xlink:href="Interp_8hpp.html" target="_top" xlink:title="Declaration and definition of the LinearInterp class template for linear interpolation.">
<polygon fill="white" stroke="#666666" points="172.24,-74 106.24,-74 106.24,-55 172.24,-55 172.24,-74"/>
<text text-anchor="middle" x="139.24" y="-62" font-family="Helvetica,sans-Serif" font-size="10.00">Interp.hpp</text>
</a>
</g>
</g>
<!-- Node2&#45;&gt;Node8 -->
<g id="edge10" class="edge">
<title>Node2&#45;&gt;Node8</title>
<path fill="none" stroke="#63b8ff" d="M160.75,-164.75C149.95,-156.87 135.59,-144.21 129.24,-129 123.19,-114.52 126.81,-96.78 131.29,-83.74"/>
<polygon fill="#63b8ff" stroke="#63b8ff" points="134.69,-84.65 135.07,-74.07 128.17,-82.11 134.69,-84.65"/>
</g>
<!-- Node9 -->
<g id="node9" class="node">
<title>Node9</title>
<g id="a_node9"><a xlink:href="Curves_8hpp.html" target="_top" xlink:title="Definition of throttle and brake mapping tables.">
<polygon fill="white" stroke="#666666" points="209.74,-129 138.74,-129 138.74,-110 209.74,-110 209.74,-129"/>
<text text-anchor="middle" x="174.24" y="-117" font-family="Helvetica,sans-Serif" font-size="10.00">Curves.hpp</text>
</a>
</g>
</g>
<!-- Node2&#45;&gt;Node9 -->
<g id="edge12" class="edge">
<title>Node2&#45;&gt;Node9</title>
<path fill="none" stroke="#63b8ff" d="M174.24,-164.75C174.24,-157.8 174.24,-147.85 174.24,-139.13"/>
<polygon fill="#63b8ff" stroke="#63b8ff" points="177.74,-139.09 174.24,-129.09 170.74,-139.09 177.74,-139.09"/>
</g>
<!-- Node5&#45;&gt;Node3 -->
<g id="edge5" class="edge">
<title>Node5&#45;&gt;Node3</title>
<path fill="none" stroke="#63b8ff" d="M71.88,-54.98C90.54,-46.46 119.49,-33.23 140.98,-23.41"/>
<polygon fill="#63b8ff" stroke="#63b8ff" points="142.62,-26.51 150.26,-19.17 139.71,-20.14 142.62,-26.51"/>
</g>
<!-- Node6&#45;&gt;Node3 -->
<g id="edge9" class="edge">
<title>Node6&#45;&gt;Node3</title>
<path fill="none" stroke="#63b8ff" d="M299.81,-109.96C298.7,-96.58 294.69,-70.6 280.24,-55 260.73,-33.95 229.92,-22.65 205.7,-16.72"/>
<polygon fill="#63b8ff" stroke="#63b8ff" points="206.31,-13.27 195.78,-14.49 204.77,-20.1 206.31,-13.27"/>
</g>
<!-- Node6&#45;&gt;Node4 -->
<g id="edge8" class="edge">
<title>Node6&#45;&gt;Node4</title>
<path fill="none" stroke="#63b8ff" d="M291.98,-109.75C284.77,-102.11 274.13,-90.82 265.39,-81.56"/>
<polygon fill="#63b8ff" stroke="#63b8ff" points="267.75,-78.96 258.34,-74.09 262.66,-83.76 267.75,-78.96"/>
</g>
<!-- Node7 -->
<g id="node7" class="node">
<title>Node7</title>
<g id="a_node7"><a xlink:href="Enums_8h.html" target="_top" xlink:title="Enumeration definitions for the VCU.">
<polygon fill="white" stroke="#666666" points="387.74,-74 328.74,-74 328.74,-55 387.74,-55 387.74,-74"/>
<text text-anchor="middle" x="358.24" y="-62" font-family="Helvetica,sans-Serif" font-size="10.00">Enums.h</text>
</a>
</g>
</g>
<!-- Node6&#45;&gt;Node7 -->
<g id="edge7" class="edge">
<title>Node6&#45;&gt;Node7</title>
<path fill="none" stroke="#63b8ff" d="M309.56,-109.98C318.05,-102.23 330.8,-90.58 341.12,-81.14"/>
<polygon fill="#63b8ff" stroke="#63b8ff" points="343.73,-83.5 348.75,-74.17 339.01,-78.33 343.73,-83.5"/>
</g>
<!-- Node8&#45;&gt;Node3 -->
<g id="edge11" class="edge">
<title>Node8&#45;&gt;Node3</title>
<path fill="none" stroke="#63b8ff" d="M144.19,-54.75C148.3,-47.49 154.27,-36.95 159.34,-27.98"/>
<polygon fill="#63b8ff" stroke="#63b8ff" points="162.5,-29.52 164.38,-19.09 156.41,-26.07 162.5,-29.52"/>
</g>
<!-- Node9&#45;&gt;Node3 -->
<g id="edge14" class="edge">
<title>Node9&#45;&gt;Node3</title>
<path fill="none" stroke="#63b8ff" d="M176.51,-109.86C179.43,-97.63 183.83,-74.57 181.24,-55 180.08,-46.27 177.71,-36.83 175.37,-28.9"/>
<polygon fill="#63b8ff" stroke="#63b8ff" points="178.67,-27.72 172.33,-19.23 171.99,-29.82 178.67,-27.72"/>
</g>
<!-- Node9&#45;&gt;Node8 -->
<g id="edge13" class="edge">
<title>Node9&#45;&gt;Node8</title>
<path fill="none" stroke="#63b8ff" d="M168.46,-109.75C163.62,-102.42 156.56,-91.73 150.59,-82.7"/>
<polygon fill="#63b8ff" stroke="#63b8ff" points="153.34,-80.5 144.91,-74.09 147.5,-84.36 153.34,-80.5"/>
</g>
<!-- Node10&#45;&gt;Node3 -->
<g id="edge16" class="edge">
<title>Node10&#45;&gt;Node3</title>
<path fill="none" stroke="#63b8ff" d="M467.78,-164.93C458.71,-156.4 445,-142.65 435.24,-129 413.61,-98.76 426.07,-77.19 396.24,-55 366.65,-32.99 262.68,-19.65 206.28,-13.88"/>
<polygon fill="#63b8ff" stroke="#63b8ff" points="206.3,-10.36 196,-12.86 205.61,-17.33 206.3,-10.36"/>
</g>
<!-- Node11 -->
<g id="node11" class="node">
<title>Node11</title>
<g id="a_node11"><a xlink:href="Signal__Processing_8tpp.html" target="_top" xlink:title=" ">
<polygon fill="white" stroke="#666666" points="567.74,-129 444.74,-129 444.74,-110 567.74,-110 567.74,-129"/>
<text text-anchor="middle" x="506.24" y="-117" font-family="Helvetica,sans-Serif" font-size="10.00">Signal_Processing.tpp</text>
</a>
</g>
</g>
<!-- Node10&#45;&gt;Node11 -->
<g id="edge17" class="edge">
<title>Node10&#45;&gt;Node11</title>
<path fill="none" stroke="#63b8ff" d="M476.86,-164.75C479.32,-157.34 484.86,-146.5 490.65,-137.41"/>
<polygon fill="#63b8ff" stroke="#63b8ff" points="493.59,-139.3 496.41,-129.09 487.84,-135.32 493.59,-139.3"/>
</g>
<!-- Node11&#45;&gt;Node10 -->
<g id="edge18" class="edge">
<title>Node11&#45;&gt;Node10</title>
<path fill="none" stroke="#63b8ff" d="M506.67,-129.09C504.25,-136.45 498.74,-147.27 492.96,-156.39"/>
<polygon fill="#63b8ff" stroke="#63b8ff" points="489.99,-154.53 487.19,-164.75 495.75,-158.5 489.99,-154.53"/>
</g>
<!-- Node12&#45;&gt;Node7 -->
<g id="edge20" class="edge">
<title>Node12&#45;&gt;Node7</title>
<path fill="none" stroke="#63b8ff" d="M361.91,-164.66C361.26,-147.17 359.81,-107.8 358.93,-84.27"/>
<polygon fill="#63b8ff" stroke="#63b8ff" points="362.43,-84.02 358.56,-74.16 355.43,-84.28 362.43,-84.02"/>
</g>
</g>
</svg>
