<?xml version="1.0" encoding="UTF-8" standalone="no"?>
<!DOCTYPE svg PUBLIC "-//W3C//DTD SVG 1.1//EN"
 "http://www.w3.org/Graphics/SVG/1.1/DTD/svg11.dtd">
<!-- Generated by graphviz version 2.43.0 (0)
 -->
<!-- Title: lib/Pedal/Pedal.cpp Pages: 1 -->
<svg width="784pt" height="247pt"
 viewBox="0.00 0.00 784.00 247.00" xmlns="http://www.w3.org/2000/svg" xmlns:xlink="http://www.w3.org/1999/xlink">
<g id="graph0" class="graph" transform="scale(1 1) rotate(0) translate(4 243)">
<title>lib/Pedal/Pedal.cpp</title>
<!-- Node1 -->
<g id="node1" class="node">
<title>Node1</title>
<g id="a_node1"><a xlink:title="Implementation of the Pedal class for handling throttle pedal inputs.">
<polygon fill="#999999" stroke="#666666" points="495,-239 386,-239 386,-220 495,-220 495,-239"/>
<text text-anchor="middle" x="440.5" y="-227" font-family="Helvetica,sans-Serif" font-size="10.00">lib/Pedal/Pedal.cpp</text>
</a>
</g>
</g>
<!-- Node2 -->
<g id="node2" class="node">
<title>Node2</title>
<g id="a_node2"><a xlink:href="Pedal_8hpp.html" target="_top" xlink:title=" ">
<polygon fill="white" stroke="#666666" points="321,-184 256,-184 256,-165 321,-165 321,-184"/>
<text text-anchor="middle" x="288.5" y="-172" font-family="Helvetica,sans-Serif" font-size="10.00">Pedal.hpp</text>
</a>
</g>
</g>
<!-- Node1&#45;&gt;Node2 -->
<g id="edge1" class="edge">
<title>Node1&#45;&gt;Node2</title>
<path fill="none" stroke="#63b8ff" d="M416.08,-219.98C390.78,-211.16 351.05,-197.31 322.64,-187.41"/>
<polygon fill="#63b8ff" stroke="#63b8ff" points="323.71,-184.07 313.11,-184.08 321.4,-190.68 323.71,-184.07"/>
</g>
<!-- Node3 -->
<g id="node3" class="node">
<title>Node3</title>
<g id="a_node3"><a xlink:title=" ">
<polygon fill="#e0e0e0" stroke="#999999" points="338,-19 285,-19 285,0 338,0 338,-19"/>
<text text-anchor="middle" x="311.5" y="-7" font-family="Helvetica,sans-Serif" font-size="10.00">stdint.h</text>
</a>
</g>
</g>
<!-- Node1&#45;&gt;Node3 -->
<g id="edge20" class="edge">
<title>Node1&#45;&gt;Node3</title>
<path fill="none" stroke="#63b8ff" d="M456.88,-219.9C469.65,-212.27 486.65,-199.88 495.5,-184 511.59,-155.15 519.63,-138.25 502.5,-110 468.95,-54.69 393.5,-28.69 348.12,-17.65"/>
<polygon fill="#63b8ff" stroke="#63b8ff" points="348.62,-14.18 338.09,-15.34 347.05,-21 348.62,-14.18"/>
</g>
<!-- Node4 -->
<g id="node4" class="node">
<title>Node4</title>
<g id="a_node4"><a xlink:href="Queue_8hpp.html" target="_top" xlink:title=" ">
<polygon fill="white" stroke="#666666" points="475,-129 406,-129 406,-110 475,-110 475,-129"/>
<text text-anchor="middle" x="440.5" y="-117" font-family="Helvetica,sans-Serif" font-size="10.00">Queue.hpp</text>
</a>
</g>
</g>
<!-- Node1&#45;&gt;Node4 -->
<g id="edge21" class="edge">
<title>Node1&#45;&gt;Node4</title>
<path fill="none" stroke="#63b8ff" d="M440.5,-219.66C440.5,-202.17 440.5,-162.8 440.5,-139.27"/>
<polygon fill="#63b8ff" stroke="#63b8ff" points="444,-139.16 440.5,-129.16 437,-139.16 444,-139.16"/>
</g>
<!-- Node5 -->
<g id="node5" class="node">
<title>Node5</title>
<g id="a_node5"><a xlink:href="CarState_8hpp.html" target="_top" xlink:title="Definition of the CarState structure representing the state of the car.">
<polygon fill="white" stroke="#666666" points="132.5,-129 52.5,-129 52.5,-110 132.5,-110 132.5,-129"/>
<text text-anchor="middle" x="92.5" y="-117" font-family="Helvetica,sans-Serif" font-size="10.00">CarState.hpp</text>
</a>
</g>
</g>
<!-- Node1&#45;&gt;Node5 -->
<g id="edge19" class="edge">
<title>Node1&#45;&gt;Node5</title>
<path fill="none" stroke="#63b8ff" d="M385.59,-221.69C339.99,-215.05 273.86,-203.11 218.5,-184 180.68,-170.95 139.83,-148.7 115.22,-134.31"/>
<polygon fill="#63b8ff" stroke="#63b8ff" points="116.7,-131.12 106.31,-129.03 113.13,-137.14 116.7,-131.12"/>
</g>
<!-- Node8 -->
<g id="node8" class="node">
<title>Node8</title>
<g id="a_node8"><a xlink:href="Interp_8hpp.html" target="_top" xlink:title="Declaration and definition of the LinearInterp class template for linear interpolation.">
<polygon fill="white" stroke="#666666" points="344.5,-74 278.5,-74 278.5,-55 344.5,-55 344.5,-74"/>
<text text-anchor="middle" x="311.5" y="-62" font-family="Helvetica,sans-Serif" font-size="10.00">Interp.hpp</text>
</a>
</g>
</g>
<!-- Node1&#45;&gt;Node8 -->
<g id="edge22" class="edge">
<title>Node1&#45;&gt;Node8</title>
<path fill="none" stroke="#63b8ff" d="M448.76,-219.88C467.72,-199.06 510.7,-145.13 483.5,-110 467.83,-89.76 400.2,-77.06 354.56,-70.63"/>
<polygon fill="#63b8ff" stroke="#63b8ff" points="354.99,-67.16 344.61,-69.28 354.05,-74.1 354.99,-67.16"/>
</g>
<!-- Node9 -->
<g id="node9" class="node">
<title>Node9</title>
<g id="a_node9"><a xlink:href="Curves_8hpp.html" target="_top" xlink:title="Definition of throttle and brake mapping tables.">
<polygon fill="white" stroke="#666666" points="222,-129 151,-129 151,-110 222,-110 222,-129"/>
<text text-anchor="middle" x="186.5" y="-117" font-family="Helvetica,sans-Serif" font-size="10.00">Curves.hpp</text>
</a>
</g>
</g>
<!-- Node1&#45;&gt;Node9 -->
<g id="edge23" class="edge">
<title>Node1&#45;&gt;Node9</title>
<path fill="none" stroke="#63b8ff" d="M385.97,-224.54C345.29,-219.62 289.54,-208.62 246.5,-184 226.22,-172.4 208.62,-151.77 197.82,-137.18"/>
<polygon fill="#63b8ff" stroke="#63b8ff" points="200.66,-135.13 192.01,-129 194.95,-139.18 200.66,-135.13"/>
</g>
<!-- Node11 -->
<g id="node11" class="node">
<title>Node11</title>
<g id="a_node11"><a xlink:href="Signal__Processing_8hpp.html" target="_top" xlink:title="Declaration of signal processing functions.">
<polygon fill="white" stroke="#666666" points="695,-184 570,-184 570,-165 695,-165 695,-184"/>
<text text-anchor="middle" x="632.5" y="-172" font-family="Helvetica,sans-Serif" font-size="10.00">Signal_Processing.hpp</text>
</a>
</g>
</g>
<!-- Node1&#45;&gt;Node11 -->
<g id="edge15" class="edge">
<title>Node1&#45;&gt;Node11</title>
<path fill="none" stroke="#63b8ff" d="M471.35,-219.98C504,-210.97 555.7,-196.7 591.7,-186.76"/>
<polygon fill="#63b8ff" stroke="#63b8ff" points="592.7,-190.12 601.41,-184.08 590.84,-183.37 592.7,-190.12"/>
</g>
<!-- Node13 -->
<g id="node13" class="node">
<title>Node13</title>
<g id="a_node13"><a xlink:href="Debug_8hpp.html" target="_top" xlink:title="Debugging macros and functions for serial and CAN output.">
<polygon fill="white" stroke="#666666" points="72,-184 3,-184 3,-165 72,-165 72,-184"/>
<text text-anchor="middle" x="37.5" y="-172" font-family="Helvetica,sans-Serif" font-size="10.00">Debug.hpp</text>
</a>
</g>
</g>
<!-- Node1&#45;&gt;Node13 -->
<g id="edge24" class="edge">
<title>Node1&#45;&gt;Node13</title>
<path fill="none" stroke="#63b8ff" d="M385.73,-221.3C305.16,-210.7 156.22,-191.11 81.98,-181.35"/>
<polygon fill="#63b8ff" stroke="#63b8ff" points="82.39,-177.87 72.02,-180.04 81.48,-184.81 82.39,-177.87"/>
</g>
<!-- Node14 -->
<g id="node14" class="node">
<title>Node14</title>
<g id="a_node14"><a xlink:title=" ">
<polygon fill="#e0e0e0" stroke="#999999" points="776,-184 713,-184 713,-165 776,-165 776,-184"/>
<text text-anchor="middle" x="744.5" y="-172" font-family="Helvetica,sans-Serif" font-size="10.00">Arduino.h</text>
</a>
</g>
</g>
<!-- Node1&#45;&gt;Node14 -->
<g id="edge26" class="edge">
<title>Node1&#45;&gt;Node14</title>
<path fill="none" stroke="#63b8ff" d="M495.23,-219.97C546.51,-211.82 625.55,-198.86 702.75,-184.28"/>
<polygon fill="#63b8ff" stroke="#63b8ff" points="703.48,-187.7 712.65,-182.4 702.17,-180.82 703.48,-187.7"/>
</g>
<!-- Node2&#45;&gt;Node3 -->
<g id="edge2" class="edge">
<title>Node2&#45;&gt;Node3</title>
<path fill="none" stroke="#63b8ff" d="M284.1,-164.83C274.57,-144.77 254.03,-93.92 269.5,-55 274.02,-43.63 282.97,-33.48 291.46,-25.76"/>
<polygon fill="#63b8ff" stroke="#63b8ff" points="293.91,-28.27 299.29,-19.14 289.39,-22.92 293.91,-28.27"/>
</g>
<!-- Node2&#45;&gt;Node4 -->
<g id="edge3" class="edge">
<title>Node2&#45;&gt;Node4</title>
<path fill="none" stroke="#63b8ff" d="M312.92,-164.98C338.22,-156.16 377.95,-142.31 406.36,-132.41"/>
<polygon fill="#63b8ff" stroke="#63b8ff" points="407.6,-135.68 415.89,-129.08 405.29,-129.07 407.6,-135.68"/>
</g>
<!-- Node2&#45;&gt;Node5 -->
<g id="edge5" class="edge">
<title>Node2&#45;&gt;Node5</title>
<path fill="none" stroke="#63b8ff" d="M257.01,-164.98C223.68,-155.97 170.9,-141.7 134.15,-131.76"/>
<polygon fill="#63b8ff" stroke="#63b8ff" points="134.8,-128.31 124.24,-129.08 132.98,-135.07 134.8,-128.31"/>
</g>
<!-- Node2&#45;&gt;Node8 -->
<g id="edge9" class="edge">
<title>Node2&#45;&gt;Node8</title>
<path fill="none" stroke="#63b8ff" d="M290.38,-164.66C294.12,-147.09 302.57,-107.45 307.57,-83.95"/>
<polygon fill="#63b8ff" stroke="#63b8ff" points="311,-84.67 309.66,-74.16 304.15,-83.21 311,-84.67"/>
</g>
<!-- Node2&#45;&gt;Node9 -->
<g id="edge11" class="edge">
<title>Node2&#45;&gt;Node9</title>
<path fill="none" stroke="#63b8ff" d="M272.11,-164.98C255.93,-156.57 230.93,-143.59 212.12,-133.81"/>
<polygon fill="#63b8ff" stroke="#63b8ff" points="213.67,-130.68 203.19,-129.17 210.45,-136.89 213.67,-130.68"/>
</g>
<!-- Node10 -->
<g id="node10" class="node">
<title>Node10</title>
<g id="a_node10"><a xlink:title=" ">
<polygon fill="#e0e0e0" stroke="#999999" points="388,-129 317,-129 317,-110 388,-110 388,-129"/>
<text text-anchor="middle" x="352.5" y="-117" font-family="Helvetica,sans-Serif" font-size="10.00">mcp2515.h</text>
</a>
</g>
</g>
<!-- Node2&#45;&gt;Node10 -->
<g id="edge14" class="edge">
<title>Node2&#45;&gt;Node10</title>
<path fill="none" stroke="#63b8ff" d="M298.78,-164.98C308.34,-157.07 322.78,-145.11 334.28,-135.58"/>
<polygon fill="#63b8ff" stroke="#63b8ff" points="336.56,-138.24 342.03,-129.17 332.1,-132.85 336.56,-138.24"/>
</g>
<!-- Node4&#45;&gt;Node3 -->
<g id="edge4" class="edge">
<title>Node4&#45;&gt;Node3</title>
<path fill="none" stroke="#63b8ff" d="M429.94,-109.66C408.01,-91.3 357.26,-48.81 329.85,-25.87"/>
<polygon fill="#63b8ff" stroke="#63b8ff" points="331.76,-22.89 321.84,-19.16 327.26,-28.26 331.76,-22.89"/>
</g>
<!-- Node5&#45;&gt;Node3 -->
<g id="edge8" class="edge">
<title>Node5&#45;&gt;Node3</title>
<path fill="none" stroke="#63b8ff" d="M92.49,-109.68C92.97,-95.92 96,-69.42 111.5,-55 134.89,-33.24 223.92,-20.1 274.96,-14.21"/>
<polygon fill="#63b8ff" stroke="#63b8ff" points="275.39,-17.68 284.94,-13.09 274.61,-10.73 275.39,-17.68"/>
</g>
<!-- Node6 -->
<g id="node6" class="node">
<title>Node6</title>
<g id="a_node6"><a xlink:href="Enums_8h.html" target="_top" xlink:title="Enumeration definitions for the VCU.">
<polygon fill="white" stroke="#666666" points="59,-74 0,-74 0,-55 59,-55 59,-74"/>
<text text-anchor="middle" x="29.5" y="-62" font-family="Helvetica,sans-Serif" font-size="10.00">Enums.h</text>
</a>
</g>
</g>
<!-- Node5&#45;&gt;Node6 -->
<g id="edge6" class="edge">
<title>Node5&#45;&gt;Node6</title>
<path fill="none" stroke="#63b8ff" d="M82.38,-109.98C73.06,-102.15 59.03,-90.34 47.76,-80.86"/>
<polygon fill="#63b8ff" stroke="#63b8ff" points="49.71,-77.93 39.81,-74.17 45.21,-83.29 49.71,-77.93"/>
</g>
<!-- Node7 -->
<g id="node7" class="node">
<title>Node7</title>
<g id="a_node7"><a xlink:title=" ">
<polygon fill="#e0e0e0" stroke="#999999" points="164,-74 121,-74 121,-55 164,-55 164,-74"/>
<text text-anchor="middle" x="142.5" y="-62" font-family="Helvetica,sans-Serif" font-size="10.00">can.h</text>
</a>
</g>
</g>
<!-- Node5&#45;&gt;Node7 -->
<g id="edge7" class="edge">
<title>Node5&#45;&gt;Node7</title>
<path fill="none" stroke="#63b8ff" d="M100.76,-109.75C107.96,-102.11 118.61,-90.82 127.35,-81.56"/>
<polygon fill="#63b8ff" stroke="#63b8ff" points="130.08,-83.76 134.4,-74.09 124.99,-78.96 130.08,-83.76"/>
</g>
<!-- Node8&#45;&gt;Node3 -->
<g id="edge10" class="edge">
<title>Node8&#45;&gt;Node3</title>
<path fill="none" stroke="#63b8ff" d="M311.5,-54.75C311.5,-47.8 311.5,-37.85 311.5,-29.13"/>
<polygon fill="#63b8ff" stroke="#63b8ff" points="315,-29.09 311.5,-19.09 308,-29.09 315,-29.09"/>
</g>
<!-- Node9&#45;&gt;Node3 -->
<g id="edge13" class="edge">
<title>Node9&#45;&gt;Node3</title>
<path fill="none" stroke="#63b8ff" d="M191.8,-109.87C200.13,-96.83 217.29,-71.83 236.5,-55 250.7,-42.56 268.86,-31.68 283.75,-23.79"/>
<polygon fill="#63b8ff" stroke="#63b8ff" points="285.69,-26.73 292.99,-19.06 282.5,-20.5 285.69,-26.73"/>
</g>
<!-- Node9&#45;&gt;Node8 -->
<g id="edge12" class="edge">
<title>Node9&#45;&gt;Node8</title>
<path fill="none" stroke="#63b8ff" d="M206.58,-109.98C226.87,-101.38 258.46,-87.99 281.67,-78.15"/>
<polygon fill="#63b8ff" stroke="#63b8ff" points="283.21,-81.3 291.05,-74.17 280.48,-74.85 283.21,-81.3"/>
</g>
<!-- Node11&#45;&gt;Node3 -->
<g id="edge16" class="edge">
<title>Node11&#45;&gt;Node3</title>
<path fill="none" stroke="#63b8ff" d="M656.12,-164.83C682.54,-153.75 719.64,-133.22 703.5,-110 662.59,-51.15 437.6,-22.88 348.17,-13.85"/>
<polygon fill="#63b8ff" stroke="#63b8ff" points="348.5,-10.36 338.21,-12.86 347.81,-17.33 348.5,-10.36"/>
</g>
<!-- Node12 -->
<g id="node12" class="node">
<title>Node12</title>
<g id="a_node12"><a xlink:href="Signal__Processing_8tpp.html" target="_top" xlink:title="Definition of Signal Processing functions.">
<polygon fill="white" stroke="#666666" points="694,-129 571,-129 571,-110 694,-110 694,-129"/>
<text text-anchor="middle" x="632.5" y="-117" font-family="Helvetica,sans-Serif" font-size="10.00">Signal_Processing.tpp</text>
</a>
</g>
</g>
<!-- Node11&#45;&gt;Node12 -->
<g id="edge17" class="edge">
<title>Node11&#45;&gt;Node12</title>
<path fill="none" stroke="#63b8ff" d="M627.33,-164.75C625.84,-157.8 625.4,-147.85 626.02,-139.13"/>
<polygon fill="#63b8ff" stroke="#63b8ff" points="629.51,-139.47 627.37,-129.09 622.57,-138.53 629.51,-139.47"/>
</g>
<!-- Node12&#45;&gt;Node11 -->
<g id="edge18" class="edge">
<title>Node12&#45;&gt;Node11</title>
<path fill="none" stroke="#63b8ff" d="M637.63,-129.09C639.14,-135.99 639.59,-145.93 638.99,-154.66"/>
<polygon fill="#63b8ff" stroke="#63b8ff" points="635.5,-154.38 637.67,-164.75 642.44,-155.29 635.5,-154.38"/>
</g>
<!-- Node13&#45;&gt;Node6 -->
<g id="edge25" class="edge">
<title>Node13&#45;&gt;Node6</title>
<path fill="none" stroke="#63b8ff" d="M36.85,-164.66C35.55,-147.17 32.63,-107.8 30.89,-84.27"/>
<polygon fill="#63b8ff" stroke="#63b8ff" points="34.37,-83.87 30.14,-74.16 27.39,-84.39 34.37,-83.87"/>
</g>
</g>
</svg>
