<?xml version="1.0" encoding="UTF-8" standalone="no"?>
<!DOCTYPE svg PUBLIC "-//W3C//DTD SVG 1.1//EN"
 "http://www.w3.org/Graphics/SVG/1.1/DTD/svg11.dtd">
<!-- Generated by graphviz version 2.43.0 (0)
 -->
<!-- Title: ee_sw_vcu_2025/lib/Pedal/Pedal.cpp Pages: 1 -->
<!--zoomable 258 -->
<svg id="main" version="1.1" xmlns="http://www.w3.org/2000/svg" xmlns:xlink="http://www.w3.org/1999/xlink" xml:space="preserve" onload="init(evt)">
<style type="text/css"><![CDATA[
.edge:hover path { stroke: red; }
.edge:hover polygon { stroke: red; fill: red; }
]]></style>
<script type="text/javascript"><![CDATA[
var edges = document.getElementsByTagName('g');
if (edges && edges.length) {
  for (var i=0;i<edges.length;i++) {
    if (edges[i].id.substr(0,4)=='edge') {
      edges[i].setAttribute('class','edge');
    }
  }
}
]]></script>
        <defs>
                <circle id="rim" cx="0" cy="0" r="7"/>
                <circle id="rim2" cx="0" cy="0" r="3.5"/>
                <g id="zoomPlus">
                        <use xlink:href="#rim" fill="#404040">
                                <set attributeName="fill" to="#808080" begin="zoomplus.mouseover" end="zoomplus.mouseout"/>
                        </use>
                        <path d="M-4,0h8M0,-4v8" fill="none" stroke="white" stroke-width="1.5" pointer-events="none"/>
                </g>
                <g id="zoomMin">
                        <use xlink:href="#rim" fill="#404040">
                                <set attributeName="fill" to="#808080" begin="zoomminus.mouseover" end="zoomminus.mouseout"/>
                        </use>
                        <path d="M-4,0h8" fill="none" stroke="white" stroke-width="1.5" pointer-events="none"/>
                </g>
                <g id="dirArrow">
                        <path fill="none" stroke="white" stroke-width="1.5" d="M0,-3.0v7 M-2.5,-0.5L0,-3.0L2.5,-0.5"/>
                </g>
               <g id="resetDef">
                       <use xlink:href="#rim2" fill="#404040">
                               <set attributeName="fill" to="#808080" begin="reset.mouseover" end="reset.mouseout"/>
                       </use>
               </g>
        </defs>

<script type="text/javascript">
var viewWidth = 741;
var viewHeight = 258;
var sectionId = 'dynsection-0';
</script>
<script xlink:href="svgpan.js"/>
<svg id="graph" class="graph">
<g id="viewport">
<title>ee_sw_vcu_2025/lib/Pedal/Pedal.cpp</title>
<!-- Node1 -->
<g id="node1" class="node">
<title>Node1</title>
<g id="a_node1"><a xlink:title="Implementation of the Pedal class for handling throttle pedal inputs.">
<polygon fill="#999999" stroke="#666666" points="532.5,-250 418.5,-250 418.5,-220 532.5,-220 532.5,-250"/>
<text text-anchor="start" x="426.5" y="-238" font-family="Helvetica,sans-Serif" font-size="10.00">ee_sw_vcu_2025/lib</text>
<text text-anchor="middle" x="475.5" y="-227" font-family="Helvetica,sans-Serif" font-size="10.00">/Pedal/Pedal.cpp</text>
</a>
</g>
</g>
<!-- Node2 -->
<g id="node2" class="node">
<title>Node2</title>
<g id="a_node2"><a xlink:href="Pedal_8hpp.html" target="_top" xlink:title="Declaration of the Pedal class for handling throttle and brake pedal inputs.">
<polygon fill="white" stroke="#666666" points="380,-184 315,-184 315,-165 380,-165 380,-184"/>
<text text-anchor="middle" x="347.5" y="-172" font-family="Helvetica,sans-Serif" font-size="10.00">Pedal.hpp</text>
</a>
</g>
</g>
<!-- Node1&#45;&gt;Node2 -->
<g id="edge1" class="edge">
<title>Node1&#45;&gt;Node2</title>
<path fill="none" stroke="#63b8ff" d="M444.84,-219.99C423.77,-210.36 396.01,-197.67 375.53,-188.31"/>
<polygon fill="#63b8ff" stroke="#63b8ff" points="376.95,-185.11 366.4,-184.14 374.04,-191.48 376.95,-185.11"/>
</g>
<!-- Node3 -->
<g id="node3" class="node">
<title>Node3</title>
<g id="a_node3"><a xlink:title=" ">
<polygon fill="#e0e0e0" stroke="#999999" points="423,-19 370,-19 370,0 423,0 423,-19"/>
<text text-anchor="middle" x="396.5" y="-7" font-family="Helvetica,sans-Serif" font-size="10.00">stdint.h</text>
</a>
</g>
</g>
<!-- Node1&#45;&gt;Node3 -->
<g id="edge21" class="edge">
<title>Node1&#45;&gt;Node3</title>
<path fill="none" stroke="#63b8ff" d="M504.51,-219.84C543.81,-198.56 606.58,-155.91 583.5,-110 554.78,-52.88 478.83,-27.45 433.04,-17.02"/>
<polygon fill="#63b8ff" stroke="#63b8ff" points="433.71,-13.58 423.2,-14.9 432.24,-20.42 433.71,-13.58"/>
</g>
<!-- Node4 -->
<g id="node4" class="node">
<title>Node4</title>
<g id="a_node4"><a xlink:href="CarState_8hpp.html" target="_top" xlink:title="Definition of the CarState structure representing the state of the car.">
<polygon fill="white" stroke="#666666" points="143.5,-129 63.5,-129 63.5,-110 143.5,-110 143.5,-129"/>
<text text-anchor="middle" x="103.5" y="-117" font-family="Helvetica,sans-Serif" font-size="10.00">CarState.hpp</text>
</a>
</g>
</g>
<!-- Node1&#45;&gt;Node4 -->
<g id="edge20" class="edge">
<title>Node1&#45;&gt;Node4</title>
<path fill="none" stroke="#63b8ff" d="M418.13,-221.77C377.2,-212.58 321.04,-199.04 272.5,-184 222.98,-168.66 166.91,-146.64 133.42,-132.97"/>
<polygon fill="#63b8ff" stroke="#63b8ff" points="134.36,-129.57 123.78,-129.01 131.7,-136.05 134.36,-129.57"/>
</g>
<!-- Node7 -->
<g id="node7" class="node">
<title>Node7</title>
<g id="a_node7"><a xlink:href="Interp_8hpp.html" target="_top" xlink:title="Declaration and definition of the LinearInterp class template for linear interpolation.">
<polygon fill="white" stroke="#666666" points="476.5,-74 410.5,-74 410.5,-55 476.5,-55 476.5,-74"/>
<text text-anchor="middle" x="443.5" y="-62" font-family="Helvetica,sans-Serif" font-size="10.00">Interp.hpp</text>
</a>
</g>
</g>
<!-- Node1&#45;&gt;Node7 -->
<g id="edge24" class="edge">
<title>Node1&#45;&gt;Node7</title>
<path fill="none" stroke="#63b8ff" d="M473.69,-219.78C470.65,-196.63 463.97,-149.44 455.5,-110 453.65,-101.39 451.18,-91.97 448.95,-84.02"/>
<polygon fill="#63b8ff" stroke="#63b8ff" points="452.29,-82.94 446.16,-74.3 445.56,-84.88 452.29,-82.94"/>
</g>
<!-- Node8 -->
<g id="node8" class="node">
<title>Node8</title>
<g id="a_node8"><a xlink:href="Curves_8hpp.html" target="_top" xlink:title="Definition of throttle and brake mapping tables.">
<polygon fill="white" stroke="#666666" points="575,-129 504,-129 504,-110 575,-110 575,-129"/>
<text text-anchor="middle" x="539.5" y="-117" font-family="Helvetica,sans-Serif" font-size="10.00">Curves.hpp</text>
</a>
</g>
</g>
<!-- Node1&#45;&gt;Node8 -->
<g id="edge25" class="edge">
<title>Node1&#45;&gt;Node8</title>
<path fill="none" stroke="#63b8ff" d="M483.61,-219.63C495.33,-198.84 516.98,-160.44 529.62,-138.02"/>
<polygon fill="#63b8ff" stroke="#63b8ff" points="532.71,-139.66 534.58,-129.23 526.62,-136.22 532.71,-139.66"/>
</g>
<!-- Node9 -->
<g id="node9" class="node">
<title>Node9</title>
<g id="a_node9"><a xlink:href="SignalProcessing_8hpp.html" target="_top" xlink:title="Declaration of signal processing functions.">
<polygon fill="white" stroke="#666666" points="281.5,-129 161.5,-129 161.5,-110 281.5,-110 281.5,-129"/>
<text text-anchor="middle" x="221.5" y="-117" font-family="Helvetica,sans-Serif" font-size="10.00">SignalProcessing.hpp</text>
</a>
</g>
</g>
<!-- Node1&#45;&gt;Node9 -->
<g id="edge19" class="edge">
<title>Node1&#45;&gt;Node9</title>
<path fill="none" stroke="#63b8ff" d="M418.45,-222.66C384.5,-214.61 341.22,-201.99 305.5,-184 279.92,-171.11 254.18,-150.21 238.07,-135.94"/>
<polygon fill="#63b8ff" stroke="#63b8ff" points="240.33,-133.26 230.57,-129.15 235.64,-138.46 240.33,-133.26"/>
</g>
<!-- Node12 -->
<g id="node12" class="node">
<title>Node12</title>
<g id="a_node12"><a xlink:href="Queue_8hpp.html" target="_top" xlink:title="Declaration of a simple RingBuffer (circular buffer) template class.">
<polygon fill="white" stroke="#666666" points="701,-74 632,-74 632,-55 701,-55 701,-74"/>
<text text-anchor="middle" x="666.5" y="-62" font-family="Helvetica,sans-Serif" font-size="10.00">Queue.hpp</text>
</a>
</g>
</g>
<!-- Node1&#45;&gt;Node12 -->
<g id="edge22" class="edge">
<title>Node1&#45;&gt;Node12</title>
<path fill="none" stroke="#63b8ff" d="M532.82,-225.19C561.3,-218.22 594.45,-205.85 617.5,-184 646.21,-156.78 658.67,-110.25 663.61,-84.34"/>
<polygon fill="#63b8ff" stroke="#63b8ff" points="667.09,-84.76 665.34,-74.31 660.19,-83.58 667.09,-84.76"/>
</g>
<!-- Node13 -->
<g id="node13" class="node">
<title>Node13</title>
<g id="a_node13"><a xlink:href="Debug_8hpp.html" target="_top" xlink:title="Debugging macros and functions for serial and CAN output.">
<polygon fill="white" stroke="#666666" points="89,-184 20,-184 20,-165 89,-165 89,-184"/>
<text text-anchor="middle" x="54.5" y="-172" font-family="Helvetica,sans-Serif" font-size="10.00">Debug.hpp</text>
</a>
</g>
</g>
<!-- Node1&#45;&gt;Node13 -->
<g id="edge26" class="edge">
<title>Node1&#45;&gt;Node13</title>
<path fill="none" stroke="#63b8ff" d="M418.28,-226.05C333.58,-214.28 176.54,-192.46 99.49,-181.75"/>
<polygon fill="#63b8ff" stroke="#63b8ff" points="99.56,-178.23 89.17,-180.32 98.59,-185.16 99.56,-178.23"/>
</g>
<!-- Node14 -->
<g id="node14" class="node">
<title>Node14</title>
<g id="a_node14"><a xlink:title=" ">
<polygon fill="#e0e0e0" stroke="#999999" points="733,-184 670,-184 670,-165 733,-165 733,-184"/>
<text text-anchor="middle" x="701.5" y="-172" font-family="Helvetica,sans-Serif" font-size="10.00">Arduino.h</text>
</a>
</g>
</g>
<!-- Node1&#45;&gt;Node14 -->
<g id="edge28" class="edge">
<title>Node1&#45;&gt;Node14</title>
<path fill="none" stroke="#63b8ff" d="M529.63,-219.99C569.62,-209.64 623.25,-195.75 659.9,-186.27"/>
<polygon fill="#63b8ff" stroke="#63b8ff" points="660.96,-189.61 669.77,-183.71 659.21,-182.83 660.96,-189.61"/>
</g>
<!-- Node2&#45;&gt;Node3 -->
<g id="edge2" class="edge">
<title>Node2&#45;&gt;Node3</title>
<path fill="none" stroke="#63b8ff" d="M347.27,-164.72C347.14,-152.33 347.68,-129.08 352.5,-110 360.1,-79.9 376.08,-47.44 386.54,-28.05"/>
<polygon fill="#63b8ff" stroke="#63b8ff" points="389.67,-29.64 391.44,-19.19 383.54,-26.25 389.67,-29.64"/>
</g>
<!-- Node2&#45;&gt;Node4 -->
<g id="edge3" class="edge">
<title>Node2&#45;&gt;Node4</title>
<path fill="none" stroke="#63b8ff" d="M314.85,-166.41C273.26,-157.37 201.02,-141.68 152.74,-131.2"/>
<polygon fill="#63b8ff" stroke="#63b8ff" points="153.33,-127.74 142.82,-129.04 151.85,-134.58 153.33,-127.74"/>
</g>
<!-- Node2&#45;&gt;Node7 -->
<g id="edge9" class="edge">
<title>Node2&#45;&gt;Node7</title>
<path fill="none" stroke="#63b8ff" d="M348.09,-164.77C349.39,-151.59 353.52,-126.43 366.5,-110 377.68,-95.85 394.68,-85.36 409.86,-78.12"/>
<polygon fill="#63b8ff" stroke="#63b8ff" points="411.31,-81.31 419.02,-74.03 408.46,-74.91 411.31,-81.31"/>
</g>
<!-- Node2&#45;&gt;Node8 -->
<g id="edge11" class="edge">
<title>Node2&#45;&gt;Node8</title>
<path fill="none" stroke="#63b8ff" d="M378.35,-164.98C411,-155.97 462.7,-141.7 498.7,-131.76"/>
<polygon fill="#63b8ff" stroke="#63b8ff" points="499.7,-135.12 508.41,-129.08 497.84,-128.37 499.7,-135.12"/>
</g>
<!-- Node2&#45;&gt;Node9 -->
<g id="edge14" class="edge">
<title>Node2&#45;&gt;Node9</title>
<path fill="none" stroke="#63b8ff" d="M327.26,-164.98C306.8,-156.38 274.97,-142.99 251.57,-133.15"/>
<polygon fill="#63b8ff" stroke="#63b8ff" points="252.69,-129.82 242.11,-129.17 249.97,-136.27 252.69,-129.82"/>
</g>
<!-- Node11 -->
<g id="node11" class="node">
<title>Node11</title>
<g id="a_node11"><a xlink:title=" ">
<polygon fill="#e0e0e0" stroke="#999999" points="447,-129 376,-129 376,-110 447,-110 447,-129"/>
<text text-anchor="middle" x="411.5" y="-117" font-family="Helvetica,sans-Serif" font-size="10.00">mcp2515.h</text>
</a>
</g>
</g>
<!-- Node2&#45;&gt;Node11 -->
<g id="edge18" class="edge">
<title>Node2&#45;&gt;Node11</title>
<path fill="none" stroke="#63b8ff" d="M357.78,-164.98C367.34,-157.07 381.78,-145.11 393.28,-135.58"/>
<polygon fill="#63b8ff" stroke="#63b8ff" points="395.56,-138.24 401.03,-129.17 391.1,-132.85 395.56,-138.24"/>
</g>
<!-- Node4&#45;&gt;Node3 -->
<g id="edge8" class="edge">
<title>Node4&#45;&gt;Node3</title>
<path fill="none" stroke="#63b8ff" d="M112.31,-109.57C126.56,-95.65 156.17,-68.95 186.5,-55 243.59,-28.75 316.57,-17.78 359.74,-13.34"/>
<polygon fill="#63b8ff" stroke="#63b8ff" points="360.17,-16.82 369.79,-12.37 359.5,-9.85 360.17,-16.82"/>
</g>
<!-- Node5 -->
<g id="node5" class="node">
<title>Node5</title>
<g id="a_node5"><a xlink:href="Enums_8hpp.html" target="_top" xlink:title="Enumeration definitions for the VCU.">
<polygon fill="white" stroke="#666666" points="71,-74 0,-74 0,-55 71,-55 71,-74"/>
<text text-anchor="middle" x="35.5" y="-62" font-family="Helvetica,sans-Serif" font-size="10.00">Enums.hpp</text>
</a>
</g>
</g>
<!-- Node4&#45;&gt;Node5 -->
<g id="edge4" class="edge">
<title>Node4&#45;&gt;Node5</title>
<path fill="none" stroke="#63b8ff" d="M92.57,-109.98C82.42,-102.07 67.08,-90.11 54.85,-80.58"/>
<polygon fill="#63b8ff" stroke="#63b8ff" points="56.66,-77.56 46.62,-74.17 52.36,-83.08 56.66,-77.56"/>
</g>
<!-- Node6 -->
<g id="node6" class="node">
<title>Node6</title>
<g id="a_node6"><a xlink:title=" ">
<polygon fill="#e0e0e0" stroke="#999999" points="89,-19 46,-19 46,0 89,0 89,-19"/>
<text text-anchor="middle" x="67.5" y="-7" font-family="Helvetica,sans-Serif" font-size="10.00">can.h</text>
</a>
</g>
</g>
<!-- Node4&#45;&gt;Node6 -->
<g id="edge7" class="edge">
<title>Node4&#45;&gt;Node6</title>
<path fill="none" stroke="#63b8ff" d="M100.55,-109.66C94.7,-92.09 81.48,-52.45 73.65,-28.95"/>
<polygon fill="#63b8ff" stroke="#63b8ff" points="76.87,-27.54 70.39,-19.16 70.23,-29.75 76.87,-27.54"/>
</g>
<!-- Node5&#45;&gt;Node3 -->
<g id="edge5" class="edge">
<title>Node5&#45;&gt;Node3</title>
<path fill="none" stroke="#63b8ff" d="M71.1,-58.27C139.8,-48.19 289.98,-26.14 359.65,-15.91"/>
<polygon fill="#63b8ff" stroke="#63b8ff" points="360.33,-19.35 369.72,-14.43 359.32,-12.42 360.33,-19.35"/>
</g>
<!-- Node5&#45;&gt;Node6 -->
<g id="edge6" class="edge">
<title>Node5&#45;&gt;Node6</title>
<path fill="none" stroke="#63b8ff" d="M40.78,-54.75C45.21,-47.42 51.66,-36.73 57.12,-27.7"/>
<polygon fill="#63b8ff" stroke="#63b8ff" points="60.14,-29.46 62.31,-19.09 54.15,-25.84 60.14,-29.46"/>
</g>
<!-- Node7&#45;&gt;Node3 -->
<g id="edge10" class="edge">
<title>Node7&#45;&gt;Node3</title>
<path fill="none" stroke="#63b8ff" d="M435.74,-54.75C429.03,-47.18 419.16,-36.05 410.99,-26.84"/>
<polygon fill="#63b8ff" stroke="#63b8ff" points="413.37,-24.25 404.12,-19.09 408.13,-28.89 413.37,-24.25"/>
</g>
<!-- Node8&#45;&gt;Node3 -->
<g id="edge13" class="edge">
<title>Node8&#45;&gt;Node3</title>
<path fill="none" stroke="#63b8ff" d="M533.77,-109.72C524.78,-96.49 506.23,-71.25 485.5,-55 468.41,-41.6 446.64,-30.63 428.91,-22.93"/>
<polygon fill="#63b8ff" stroke="#63b8ff" points="430.11,-19.64 419.53,-19 427.4,-26.1 430.11,-19.64"/>
</g>
<!-- Node8&#45;&gt;Node7 -->
<g id="edge12" class="edge">
<title>Node8&#45;&gt;Node7</title>
<path fill="none" stroke="#63b8ff" d="M524.08,-109.98C509.05,-101.69 485.96,-88.94 468.34,-79.22"/>
<polygon fill="#63b8ff" stroke="#63b8ff" points="469.65,-75.94 459.2,-74.17 466.27,-82.07 469.65,-75.94"/>
</g>
<!-- Node9&#45;&gt;Node3 -->
<g id="edge15" class="edge">
<title>Node9&#45;&gt;Node3</title>
<path fill="none" stroke="#63b8ff" d="M212.61,-109.91C200.25,-96.92 180.84,-71.99 194.5,-55 214.81,-29.73 306.96,-17.97 359.5,-13.23"/>
<polygon fill="#63b8ff" stroke="#63b8ff" points="360.1,-16.69 369.76,-12.35 359.5,-9.72 360.1,-16.69"/>
</g>
<!-- Node10 -->
<g id="node10" class="node">
<title>Node10</title>
<g id="a_node10"><a xlink:href="SignalProcessing_8tpp.html" target="_top" xlink:title="Definition of Signal Processing functions.">
<polygon fill="white" stroke="#666666" points="321.5,-74 203.5,-74 203.5,-55 321.5,-55 321.5,-74"/>
<text text-anchor="middle" x="262.5" y="-62" font-family="Helvetica,sans-Serif" font-size="10.00">SignalProcessing.tpp</text>
</a>
</g>
</g>
<!-- Node9&#45;&gt;Node10 -->
<g id="edge16" class="edge">
<title>Node9&#45;&gt;Node10</title>
<path fill="none" stroke="#63b8ff" d="M223.1,-109.75C227.37,-102.11 235.74,-90.82 243.81,-81.56"/>
<polygon fill="#63b8ff" stroke="#63b8ff" points="246.5,-83.81 250.72,-74.09 241.37,-79.05 246.5,-83.81"/>
</g>
<!-- Node10&#45;&gt;Node9 -->
<g id="edge17" class="edge">
<title>Node10&#45;&gt;Node9</title>
<path fill="none" stroke="#63b8ff" d="M260.99,-74.09C256.78,-81.68 248.44,-92.95 240.36,-102.24"/>
<polygon fill="#63b8ff" stroke="#63b8ff" points="237.64,-100.02 233.44,-109.75 242.79,-104.77 237.64,-100.02"/>
</g>
<!-- Node12&#45;&gt;Node3 -->
<g id="edge23" class="edge">
<title>Node12&#45;&gt;Node3</title>
<path fill="none" stroke="#63b8ff" d="M631.75,-56.68C580.48,-46.61 485,-27.87 432.83,-17.63"/>
<polygon fill="#63b8ff" stroke="#63b8ff" points="433.49,-14.19 423,-15.7 432.14,-21.06 433.49,-14.19"/>
</g>
<!-- Node13&#45;&gt;Node5 -->
<g id="edge27" class="edge">
<title>Node13&#45;&gt;Node5</title>
<path fill="none" stroke="#63b8ff" d="M52.95,-164.66C49.87,-147.17 42.94,-107.8 38.8,-84.27"/>
<polygon fill="#63b8ff" stroke="#63b8ff" points="42.2,-83.4 37.02,-74.16 35.31,-84.61 42.2,-83.4"/>
</g>
</g>
</svg>
        <g id="navigator" transform="translate(0 0)" fill="#404254">
                <rect fill="#f2f5e9" fill-opacity="0.5" stroke="#606060" stroke-width=".5" x="0" y="0" width="60" height="60"/>
                <use id="zoomplus" xlink:href="#zoomPlus" x="17" y="9" onmousedown="handleZoom(evt,'in')"/>
                <use id="zoomminus" xlink:href="#zoomMin" x="42" y="9" onmousedown="handleZoom(evt,'out')"/>
                <use id="reset" xlink:href="#resetDef" x="30" y="36" onmousedown="handleReset()"/>
                <g id="arrowUp" xlink:href="#dirArrow" transform="translate(30 24)" onmousedown="handlePan(0,-1)">
                  <use xlink:href="#rim" fill="#404040">
                        <set attributeName="fill" to="#808080" begin="arrowUp.mouseover" end="arrowUp.mouseout"/>
                  </use>
                  <path fill="none" stroke="white" stroke-width="1.5" d="M0,-3.0v7 M-2.5,-0.5L0,-3.0L2.5,-0.5"/>
                </g>
                <g id="arrowRight" xlink:href="#dirArrow" transform="rotate(90) translate(36 -43)" onmousedown="handlePan(1,0)">
                  <use xlink:href="#rim" fill="#404040">
                        <set attributeName="fill" to="#808080" begin="arrowRight.mouseover" end="arrowRight.mouseout"/>
                  </use>
                  <path fill="none" stroke="white" stroke-width="1.5" d="M0,-3.0v7 M-2.5,-0.5L0,-3.0L2.5,-0.5"/>
                </g>
                <g id="arrowDown" xlink:href="#dirArrow" transform="rotate(180) translate(-30 -48)" onmousedown="handlePan(0,1)">
                  <use xlink:href="#rim" fill="#404040">
                        <set attributeName="fill" to="#808080" begin="arrowDown.mouseover" end="arrowDown.mouseout"/>
                  </use>
                  <path fill="none" stroke="white" stroke-width="1.5" d="M0,-3.0v7 M-2.5,-0.5L0,-3.0L2.5,-0.5"/>
                </g>
                <g id="arrowLeft" xlink:href="#dirArrow" transform="rotate(270) translate(-36 17)" onmousedown="handlePan(-1,0)">
                  <use xlink:href="#rim" fill="#404040">
                        <set attributeName="fill" to="#808080" begin="arrowLeft.mouseover" end="arrowLeft.mouseout"/>
                  </use>
                  <path fill="none" stroke="white" stroke-width="1.5" d="M0,-3.0v7 M-2.5,-0.5L0,-3.0L2.5,-0.5"/>
                </g>
        </g>
        <svg viewBox="0 0 15 15" width="100%" height="30px" preserveAspectRatio="xMaxYMin meet">
         <g id="arrow_out" transform="scale(0.3 0.3)">
          <a xlink:href="Pedal_8cpp__incl_org.svg" target="_base">
           <rect id="button" ry="5" rx="5" y="6" x="6" height="38" width="38"
                fill="#f2f5e9" fill-opacity="0.5" stroke="#606060" stroke-width="1.0"/>
           <path id="arrow"
             d="M 11.500037,31.436501 C 11.940474,20.09759 22.043105,11.32322 32.158766,21.979434 L 37.068811,17.246167 C 37.068811,17.246167 37.088388,32 37.088388,32 L 22.160133,31.978069 C 22.160133,31.978069 26.997745,27.140456 26.997745,27.140456 C 18.528582,18.264221 13.291696,25.230495 11.500037,31.436501 z"
             style="fill:#404040;"/>
          </a>
         </g>
        </svg>
</svg>
