<?xml version="1.0" encoding="UTF-8" standalone="no"?>
<!DOCTYPE svg PUBLIC "-//W3C//DTD SVG 1.1//EN"
 "http://www.w3.org/Graphics/SVG/1.1/DTD/svg11.dtd">
<!-- Generated by graphviz version 2.43.0 (0)
 -->
<!-- Title: lib/Pedal/Pedal.h Pages: 1 -->
<svg width="309pt" height="137pt"
 viewBox="0.00 0.00 309.25 137.00" xmlns="http://www.w3.org/2000/svg" xmlns:xlink="http://www.w3.org/1999/xlink">
<g id="graph0" class="graph" transform="scale(1 1) rotate(0) translate(4 133)">
<title>lib/Pedal/Pedal.h</title>
<!-- Node1 -->
<g id="node1" class="node">
<title>Node1</title>
<g id="a_node1"><a xlink:title=" ">
<polygon fill="#999999" stroke="#666666" points="158.75,-129 60.75,-129 60.75,-110 158.75,-110 158.75,-129"/>
<text text-anchor="middle" x="109.75" y="-117" font-family="Helvetica,sans-Serif" font-size="10.00">lib/Pedal/Pedal.h</text>
</a>
</g>
</g>
<!-- Node2 -->
<g id="node2" class="node">
<title>Node2</title>
<g id="a_node2"><a xlink:title=" ">
<polygon fill="#e0e0e0" stroke="#999999" points="68.25,-19 15.25,-19 15.25,0 68.25,0 68.25,-19"/>
<text text-anchor="middle" x="41.75" y="-7" font-family="Helvetica,sans-Serif" font-size="10.00">stdint.h</text>
</a>
</g>
</g>
<!-- Node1&#45;&gt;Node2 -->
<g id="edge1" class="edge">
<title>Node1&#45;&gt;Node2</title>
<path fill="none" stroke="#63b8ff" d="M60.54,-110.35C39.34,-104.13 16.51,-93.2 3.75,-74 -6.99,-57.84 8.17,-38.65 22.41,-25.62"/>
<polygon fill="#63b8ff" stroke="#63b8ff" points="24.73,-28.24 30.05,-19.08 20.18,-22.92 24.73,-28.24"/>
</g>
<!-- Node3 -->
<g id="node3" class="node">
<title>Node3</title>
<g id="a_node3"><a xlink:href="Queue_8h.html" target="_top" xlink:title=" ">
<polygon fill="white" stroke="#666666" points="70.25,-74 13.25,-74 13.25,-55 70.25,-55 70.25,-74"/>
<text text-anchor="middle" x="41.75" y="-62" font-family="Helvetica,sans-Serif" font-size="10.00">Queue.h</text>
</a>
</g>
</g>
<!-- Node1&#45;&gt;Node3 -->
<g id="edge2" class="edge">
<title>Node1&#45;&gt;Node3</title>
<path fill="none" stroke="#63b8ff" d="M98.83,-109.98C88.68,-102.07 73.33,-90.11 61.11,-80.58"/>
<polygon fill="#63b8ff" stroke="#63b8ff" points="62.92,-77.56 52.88,-74.17 58.61,-83.08 62.92,-77.56"/>
</g>
<!-- Node4 -->
<g id="node4" class="node">
<title>Node4</title>
<g id="a_node4"><a xlink:title=" ">
<polygon fill="#e0e0e0" stroke="#999999" points="131.25,-74 88.25,-74 88.25,-55 131.25,-55 131.25,-74"/>
<text text-anchor="middle" x="109.75" y="-62" font-family="Helvetica,sans-Serif" font-size="10.00">can.h</text>
</a>
</g>
</g>
<!-- Node1&#45;&gt;Node4 -->
<g id="edge4" class="edge">
<title>Node1&#45;&gt;Node4</title>
<path fill="none" stroke="#63b8ff" d="M109.75,-109.75C109.75,-102.8 109.75,-92.85 109.75,-84.13"/>
<polygon fill="#63b8ff" stroke="#63b8ff" points="113.25,-84.09 109.75,-74.09 106.25,-84.09 113.25,-84.09"/>
</g>
<!-- Node5 -->
<g id="node5" class="node">
<title>Node5</title>
<g id="a_node5"><a xlink:href="car__state_8h.html" target="_top" xlink:title=" ">
<polygon fill="white" stroke="#666666" points="220.25,-74 149.25,-74 149.25,-55 220.25,-55 220.25,-74"/>
<text text-anchor="middle" x="184.75" y="-62" font-family="Helvetica,sans-Serif" font-size="10.00">car_state.h</text>
</a>
</g>
</g>
<!-- Node1&#45;&gt;Node5 -->
<g id="edge5" class="edge">
<title>Node1&#45;&gt;Node5</title>
<path fill="none" stroke="#63b8ff" d="M121.8,-109.98C133.22,-101.92 150.58,-89.65 164.19,-80.03"/>
<polygon fill="#63b8ff" stroke="#63b8ff" points="166.34,-82.8 172.48,-74.17 162.3,-77.08 166.34,-82.8"/>
</g>
<!-- Node7 -->
<g id="node7" class="node">
<title>Node7</title>
<g id="a_node7"><a xlink:title=" ">
<polygon fill="#e0e0e0" stroke="#999999" points="301.25,-74 238.25,-74 238.25,-55 301.25,-55 301.25,-74"/>
<text text-anchor="middle" x="269.75" y="-62" font-family="Helvetica,sans-Serif" font-size="10.00">Arduino.h</text>
</a>
</g>
</g>
<!-- Node1&#45;&gt;Node7 -->
<g id="edge8" class="edge">
<title>Node1&#45;&gt;Node7</title>
<path fill="none" stroke="#63b8ff" d="M135.46,-109.98C162.2,-101.13 204.28,-87.19 234.2,-77.28"/>
<polygon fill="#63b8ff" stroke="#63b8ff" points="235.45,-80.55 243.84,-74.08 233.25,-73.9 235.45,-80.55"/>
</g>
<!-- Node3&#45;&gt;Node2 -->
<g id="edge3" class="edge">
<title>Node3&#45;&gt;Node2</title>
<path fill="none" stroke="#63b8ff" d="M41.75,-54.75C41.75,-47.8 41.75,-37.85 41.75,-29.13"/>
<polygon fill="#63b8ff" stroke="#63b8ff" points="45.25,-29.09 41.75,-19.09 38.25,-29.09 45.25,-29.09"/>
</g>
<!-- Node5&#45;&gt;Node2 -->
<g id="edge7" class="edge">
<title>Node5&#45;&gt;Node2</title>
<path fill="none" stroke="#63b8ff" d="M161.78,-54.98C138.25,-46.27 101.47,-32.63 74.81,-22.75"/>
<polygon fill="#63b8ff" stroke="#63b8ff" points="75.74,-19.36 65.15,-19.17 73.31,-25.93 75.74,-19.36"/>
</g>
<!-- Node6 -->
<g id="node6" class="node">
<title>Node6</title>
<g id="a_node6"><a xlink:href="Enums_8h.html" target="_top" xlink:title=" ">
<polygon fill="white" stroke="#666666" points="214.25,-19 155.25,-19 155.25,0 214.25,0 214.25,-19"/>
<text text-anchor="middle" x="184.75" y="-7" font-family="Helvetica,sans-Serif" font-size="10.00">Enums.h</text>
</a>
</g>
</g>
<!-- Node5&#45;&gt;Node6 -->
<g id="edge6" class="edge">
<title>Node5&#45;&gt;Node6</title>
<path fill="none" stroke="#63b8ff" d="M184.75,-54.75C184.75,-47.8 184.75,-37.85 184.75,-29.13"/>
<polygon fill="#63b8ff" stroke="#63b8ff" points="188.25,-29.09 184.75,-19.09 181.25,-29.09 188.25,-29.09"/>
</g>
</g>
</svg>
