<?xml version="1.0" encoding="UTF-8" standalone="no"?>
<!DOCTYPE svg PUBLIC "-//W3C//DTD SVG 1.1//EN"
 "http://www.w3.org/Graphics/SVG/1.1/DTD/svg11.dtd">
<!-- Generated by graphviz version 2.43.0 (0)
 -->
<!-- Title: lib/Pedal/Pedal.hpp Pages: 1 -->
<svg width="441pt" height="192pt"
 viewBox="0.00 0.00 441.47 192.00" xmlns="http://www.w3.org/2000/svg" xmlns:xlink="http://www.w3.org/1999/xlink">
<g id="graph0" class="graph" transform="scale(1 1) rotate(0) translate(4 188)">
<title>lib/Pedal/Pedal.hpp</title>
<!-- Node1 -->
<g id="node1" class="node">
<title>Node1</title>
<g id="a_node1"><a xlink:title=" ">
<polygon fill="#999999" stroke="#666666" points="256.97,-184 146.97,-184 146.97,-165 256.97,-165 256.97,-184"/>
<text text-anchor="middle" x="201.97" y="-172" font-family="Helvetica,sans-Serif" font-size="10.00">lib/Pedal/Pedal.hpp</text>
</a>
</g>
</g>
<!-- Node2 -->
<g id="node2" class="node">
<title>Node2</title>
<g id="a_node2"><a xlink:title=" ">
<polygon fill="#e0e0e0" stroke="#999999" points="137.47,-19 84.47,-19 84.47,0 137.47,0 137.47,-19"/>
<text text-anchor="middle" x="110.97" y="-7" font-family="Helvetica,sans-Serif" font-size="10.00">stdint.h</text>
</a>
</g>
</g>
<!-- Node1&#45;&gt;Node2 -->
<g id="edge1" class="edge">
<title>Node1&#45;&gt;Node2</title>
<path fill="none" stroke="#63b8ff" d="M154.13,-164.92C106.21,-153.44 35.22,-127.92 3.97,-74 -14.05,-42.91 36.53,-25.41 74.17,-16.97"/>
<polygon fill="#63b8ff" stroke="#63b8ff" points="75.31,-20.31 84.37,-14.82 73.87,-13.46 75.31,-20.31"/>
</g>
<!-- Node3 -->
<g id="node3" class="node">
<title>Node3</title>
<g id="a_node3"><a xlink:href="Queue_8hpp.html" target="_top" xlink:title=" ">
<polygon fill="white" stroke="#666666" points="82.47,-74 13.47,-74 13.47,-55 82.47,-55 82.47,-74"/>
<text text-anchor="middle" x="47.97" y="-62" font-family="Helvetica,sans-Serif" font-size="10.00">Queue.hpp</text>
</a>
</g>
</g>
<!-- Node1&#45;&gt;Node3 -->
<g id="edge2" class="edge">
<title>Node1&#45;&gt;Node3</title>
<path fill="none" stroke="#63b8ff" d="M186.3,-164.86C171.06,-156.28 147.43,-142.49 127.97,-129 105.84,-113.66 81.81,-94.17 65.92,-80.85"/>
<polygon fill="#63b8ff" stroke="#63b8ff" points="67.9,-77.94 58,-74.16 63.38,-83.29 67.9,-77.94"/>
</g>
<!-- Node4 -->
<g id="node4" class="node">
<title>Node4</title>
<g id="a_node4"><a xlink:href="CarState_8h.html" target="_top" xlink:title="Definition of the CarState structure representing the state of the car.">
<polygon fill="white" stroke="#666666" points="204.97,-129 136.97,-129 136.97,-110 204.97,-110 204.97,-129"/>
<text text-anchor="middle" x="170.97" y="-117" font-family="Helvetica,sans-Serif" font-size="10.00">CarState.h</text>
</a>
</g>
</g>
<!-- Node1&#45;&gt;Node4 -->
<g id="edge4" class="edge">
<title>Node1&#45;&gt;Node4</title>
<path fill="none" stroke="#63b8ff" d="M196.85,-164.75C192.61,-157.49 186.44,-146.95 181.19,-137.98"/>
<polygon fill="#63b8ff" stroke="#63b8ff" points="184.06,-135.95 175.99,-129.09 178.02,-139.49 184.06,-135.95"/>
</g>
<!-- Node7 -->
<g id="node7" class="node">
<title>Node7</title>
<g id="a_node7"><a xlink:href="Interp_8hpp.html" target="_top" xlink:title="Declaration and definition of the LinearInterp class template for linear interpolation.">
<polygon fill="white" stroke="#666666" points="343.97,-74 277.97,-74 277.97,-55 343.97,-55 343.97,-74"/>
<text text-anchor="middle" x="310.97" y="-62" font-family="Helvetica,sans-Serif" font-size="10.00">Interp.hpp</text>
</a>
</g>
</g>
<!-- Node1&#45;&gt;Node7 -->
<g id="edge8" class="edge">
<title>Node1&#45;&gt;Node7</title>
<path fill="none" stroke="#63b8ff" d="M210.29,-164.77C222.09,-152.43 244.43,-129.24 263.97,-110 273.78,-100.34 284.96,-89.74 293.96,-81.3"/>
<polygon fill="#63b8ff" stroke="#63b8ff" points="296.58,-83.64 301.5,-74.26 291.8,-78.52 296.58,-83.64"/>
</g>
<!-- Node8 -->
<g id="node8" class="node">
<title>Node8</title>
<g id="a_node8"><a xlink:href="Curves_8hpp.html" target="_top" xlink:title="Definition of throttle and brake mapping tables.">
<polygon fill="white" stroke="#666666" points="344.47,-129 273.47,-129 273.47,-110 344.47,-110 344.47,-129"/>
<text text-anchor="middle" x="308.97" y="-117" font-family="Helvetica,sans-Serif" font-size="10.00">Curves.hpp</text>
</a>
</g>
</g>
<!-- Node1&#45;&gt;Node8 -->
<g id="edge10" class="edge">
<title>Node1&#45;&gt;Node8</title>
<path fill="none" stroke="#63b8ff" d="M219.16,-164.98C236.22,-156.54 262.6,-143.47 282.36,-133.68"/>
<polygon fill="#63b8ff" stroke="#63b8ff" points="284.06,-136.75 291.46,-129.17 280.95,-130.47 284.06,-136.75"/>
</g>
<!-- Node9 -->
<g id="node9" class="node">
<title>Node9</title>
<g id="a_node9"><a xlink:title=" ">
<polygon fill="#e0e0e0" stroke="#999999" points="433.47,-129 362.47,-129 362.47,-110 433.47,-110 433.47,-129"/>
<text text-anchor="middle" x="397.97" y="-117" font-family="Helvetica,sans-Serif" font-size="10.00">mcp2515.h</text>
</a>
</g>
</g>
<!-- Node1&#45;&gt;Node9 -->
<g id="edge13" class="edge">
<title>Node1&#45;&gt;Node9</title>
<path fill="none" stroke="#63b8ff" d="M233.46,-164.98C266.79,-155.97 319.56,-141.7 356.32,-131.76"/>
<polygon fill="#63b8ff" stroke="#63b8ff" points="357.49,-135.07 366.23,-129.08 355.66,-128.31 357.49,-135.07"/>
</g>
<!-- Node3&#45;&gt;Node2 -->
<g id="edge3" class="edge">
<title>Node3&#45;&gt;Node2</title>
<path fill="none" stroke="#63b8ff" d="M58.09,-54.98C67.4,-47.15 81.44,-35.34 92.71,-25.86"/>
<polygon fill="#63b8ff" stroke="#63b8ff" points="95.26,-28.29 100.66,-19.17 90.76,-22.93 95.26,-28.29"/>
</g>
<!-- Node4&#45;&gt;Node2 -->
<g id="edge7" class="edge">
<title>Node4&#45;&gt;Node2</title>
<path fill="none" stroke="#63b8ff" d="M160.8,-109.95C151.53,-101.65 138.08,-88.24 129.97,-74 122.04,-60.08 117.12,-42.52 114.27,-29.4"/>
<polygon fill="#63b8ff" stroke="#63b8ff" points="117.64,-28.35 112.29,-19.21 110.77,-29.69 117.64,-28.35"/>
</g>
<!-- Node5 -->
<g id="node5" class="node">
<title>Node5</title>
<g id="a_node5"><a xlink:href="Enums_8h.html" target="_top" xlink:title="Enumeration definitions for the VCU.">
<polygon fill="white" stroke="#666666" points="198.47,-74 139.47,-74 139.47,-55 198.47,-55 198.47,-74"/>
<text text-anchor="middle" x="168.97" y="-62" font-family="Helvetica,sans-Serif" font-size="10.00">Enums.h</text>
</a>
</g>
</g>
<!-- Node4&#45;&gt;Node5 -->
<g id="edge5" class="edge">
<title>Node4&#45;&gt;Node5</title>
<path fill="none" stroke="#63b8ff" d="M170.64,-109.75C170.38,-102.8 170,-92.85 169.67,-84.13"/>
<polygon fill="#63b8ff" stroke="#63b8ff" points="173.17,-83.95 169.29,-74.09 166.17,-84.21 173.17,-83.95"/>
</g>
<!-- Node6 -->
<g id="node6" class="node">
<title>Node6</title>
<g id="a_node6"><a xlink:title=" ">
<polygon fill="#e0e0e0" stroke="#999999" points="259.47,-74 216.47,-74 216.47,-55 259.47,-55 259.47,-74"/>
<text text-anchor="middle" x="237.97" y="-62" font-family="Helvetica,sans-Serif" font-size="10.00">can.h</text>
</a>
</g>
</g>
<!-- Node4&#45;&gt;Node6 -->
<g id="edge6" class="edge">
<title>Node4&#45;&gt;Node6</title>
<path fill="none" stroke="#63b8ff" d="M181.73,-109.98C191.73,-102.07 206.86,-90.11 218.9,-80.58"/>
<polygon fill="#63b8ff" stroke="#63b8ff" points="221.34,-83.12 227.01,-74.17 216.99,-77.63 221.34,-83.12"/>
</g>
<!-- Node7&#45;&gt;Node2 -->
<g id="edge9" class="edge">
<title>Node7&#45;&gt;Node2</title>
<path fill="none" stroke="#63b8ff" d="M278.84,-54.98C243,-45.49 185.16,-30.16 147.6,-20.21"/>
<polygon fill="#63b8ff" stroke="#63b8ff" points="148.15,-16.73 137.58,-17.55 146.35,-23.5 148.15,-16.73"/>
</g>
<!-- Node8&#45;&gt;Node2 -->
<g id="edge12" class="edge">
<title>Node8&#45;&gt;Node2</title>
<path fill="none" stroke="#63b8ff" d="M322.39,-109.94C340.39,-97.41 368.42,-73.55 352.97,-55 327.25,-24.13 208.66,-14.6 147.57,-11.71"/>
<polygon fill="#63b8ff" stroke="#63b8ff" points="147.72,-8.22 137.57,-11.28 147.41,-15.21 147.72,-8.22"/>
</g>
<!-- Node8&#45;&gt;Node7 -->
<g id="edge11" class="edge">
<title>Node8&#45;&gt;Node7</title>
<path fill="none" stroke="#63b8ff" d="M309.3,-109.75C309.56,-102.8 309.94,-92.85 310.27,-84.13"/>
<polygon fill="#63b8ff" stroke="#63b8ff" points="313.76,-84.21 310.64,-74.09 306.77,-83.95 313.76,-84.21"/>
</g>
</g>
</svg>
