<?xml version="1.0" encoding="UTF-8" standalone="no"?>
<!DOCTYPE svg PUBLIC "-//W3C//DTD SVG 1.1//EN"
 "http://www.w3.org/Graphics/SVG/1.1/DTD/svg11.dtd">
<!-- Generated by graphviz version 2.43.0 (0)
 -->
<!-- Title: lib/Pedal/Pedal.cpp Pages: 1 -->
<!--zoomable 247 -->
<svg id="main" version="1.1" xmlns="http://www.w3.org/2000/svg" xmlns:xlink="http://www.w3.org/1999/xlink" xml:space="preserve" onload="init(evt)">
<style type="text/css"><![CDATA[
.edge:hover path { stroke: red; }
.edge:hover polygon { stroke: red; fill: red; }
]]></style>
<script type="text/javascript"><![CDATA[
var edges = document.getElementsByTagName('g');
if (edges && edges.length) {
  for (var i=0;i<edges.length;i++) {
    if (edges[i].id.substr(0,4)=='edge') {
      edges[i].setAttribute('class','edge');
    }
  }
}
]]></script>
        <defs>
                <circle id="rim" cx="0" cy="0" r="7"/>
                <circle id="rim2" cx="0" cy="0" r="3.5"/>
                <g id="zoomPlus">
                        <use xlink:href="#rim" fill="#404040">
                                <set attributeName="fill" to="#808080" begin="zoomplus.mouseover" end="zoomplus.mouseout"/>
                        </use>
                        <path d="M-4,0h8M0,-4v8" fill="none" stroke="white" stroke-width="1.5" pointer-events="none"/>
                </g>
                <g id="zoomMin">
                        <use xlink:href="#rim" fill="#404040">
                                <set attributeName="fill" to="#808080" begin="zoomminus.mouseover" end="zoomminus.mouseout"/>
                        </use>
                        <path d="M-4,0h8" fill="none" stroke="white" stroke-width="1.5" pointer-events="none"/>
                </g>
                <g id="dirArrow">
                        <path fill="none" stroke="white" stroke-width="1.5" d="M0,-3.0v7 M-2.5,-0.5L0,-3.0L2.5,-0.5"/>
                </g>
               <g id="resetDef">
                       <use xlink:href="#rim2" fill="#404040">
                               <set attributeName="fill" to="#808080" begin="reset.mouseover" end="reset.mouseout"/>
                       </use>
               </g>
        </defs>

<script type="text/javascript">
var viewWidth = 602;
var viewHeight = 247;
var sectionId = 'dynsection-0';
</script>
<script xlink:href="svgpan.js"/>
<svg id="graph" class="graph">
<g id="viewport">
<title>lib/Pedal/Pedal.cpp</title>
<!-- Node1 -->
<g id="node1" class="node">
<title>Node1</title>
<g id="a_node1"><a xlink:title="Implementation of the Pedal class for handling throttle pedal inputs.">
<polygon fill="#999999" stroke="#666666" points="447.47,-239 338.47,-239 338.47,-220 447.47,-220 447.47,-239"/>
<text text-anchor="middle" x="392.97" y="-227" font-family="Helvetica,sans-Serif" font-size="10.00">lib/Pedal/Pedal.cpp</text>
</a>
</g>
</g>
<!-- Node2 -->
<g id="node2" class="node">
<title>Node2</title>
<g id="a_node2"><a xlink:href="Pedal_8hpp.html" target="_top" xlink:title=" ">
<polygon fill="white" stroke="#666666" points="179.47,-184 114.47,-184 114.47,-165 179.47,-165 179.47,-184"/>
<text text-anchor="middle" x="146.97" y="-172" font-family="Helvetica,sans-Serif" font-size="10.00">Pedal.hpp</text>
</a>
</g>
</g>
<!-- Node1&#45;&gt;Node2 -->
<g id="edge1" class="edge">
<title>Node1&#45;&gt;Node2</title>
<path fill="none" stroke="#63b8ff" d="M353.45,-219.98C308.62,-210.33 235.79,-194.64 189.69,-184.7"/>
<polygon fill="#63b8ff" stroke="#63b8ff" points="190.22,-181.24 179.71,-182.55 188.75,-188.08 190.22,-181.24"/>
</g>
<!-- Node11 -->
<g id="node11" class="node">
<title>Node11</title>
<g id="a_node11"><a xlink:href="Signal__Processing_8hpp.html" target="_top" xlink:title=" ">
<polygon fill="white" stroke="#666666" points="513.47,-184 388.47,-184 388.47,-165 513.47,-165 513.47,-184"/>
<text text-anchor="middle" x="450.97" y="-172" font-family="Helvetica,sans-Serif" font-size="10.00">Signal_Processing.hpp</text>
</a>
</g>
</g>
<!-- Node1&#45;&gt;Node11 -->
<g id="edge15" class="edge">
<title>Node1&#45;&gt;Node11</title>
<path fill="none" stroke="#63b8ff" d="M402.29,-219.98C410.78,-212.23 423.53,-200.58 433.85,-191.14"/>
<polygon fill="#63b8ff" stroke="#63b8ff" points="436.46,-193.5 441.48,-184.17 431.74,-188.33 436.46,-193.5"/>
</g>
<!-- Node13 -->
<g id="node13" class="node">
<title>Node13</title>
<g id="a_node13"><a xlink:href="Debug_8hpp.html" target="_top" xlink:title="Debugging macros and functions for serial and CAN output.">
<polygon fill="white" stroke="#666666" points="370.47,-184 301.47,-184 301.47,-165 370.47,-165 370.47,-184"/>
<text text-anchor="middle" x="335.97" y="-172" font-family="Helvetica,sans-Serif" font-size="10.00">Debug.hpp</text>
</a>
</g>
</g>
<!-- Node1&#45;&gt;Node13 -->
<g id="edge19" class="edge">
<title>Node1&#45;&gt;Node13</title>
<path fill="none" stroke="#63b8ff" d="M383.81,-219.98C375.47,-212.23 362.94,-200.58 352.79,-191.14"/>
<polygon fill="#63b8ff" stroke="#63b8ff" points="355,-188.42 345.3,-184.17 350.24,-193.54 355,-188.42"/>
</g>
<!-- Node14 -->
<g id="node14" class="node">
<title>Node14</title>
<g id="a_node14"><a xlink:title=" ">
<polygon fill="#e0e0e0" stroke="#999999" points="594.47,-184 531.47,-184 531.47,-165 594.47,-165 594.47,-184"/>
<text text-anchor="middle" x="562.97" y="-172" font-family="Helvetica,sans-Serif" font-size="10.00">Arduino.h</text>
</a>
</g>
</g>
<!-- Node1&#45;&gt;Node14 -->
<g id="edge21" class="edge">
<title>Node1&#45;&gt;Node14</title>
<path fill="none" stroke="#63b8ff" d="M420.28,-219.98C448.83,-211.09 493.8,-197.07 525.61,-187.15"/>
<polygon fill="#63b8ff" stroke="#63b8ff" points="526.94,-190.4 535.44,-184.08 524.85,-183.72 526.94,-190.4"/>
</g>
<!-- Node3 -->
<g id="node3" class="node">
<title>Node3</title>
<g id="a_node3"><a xlink:title=" ">
<polygon fill="#e0e0e0" stroke="#999999" points="204.47,-19 151.47,-19 151.47,0 204.47,0 204.47,-19"/>
<text text-anchor="middle" x="177.97" y="-7" font-family="Helvetica,sans-Serif" font-size="10.00">stdint.h</text>
</a>
</g>
</g>
<!-- Node2&#45;&gt;Node3 -->
<g id="edge2" class="edge">
<title>Node2&#45;&gt;Node3</title>
<path fill="none" stroke="#63b8ff" d="M114.39,-168.71C88.36,-163.28 52.62,-151.99 29.97,-129 6.06,-104.73 -10.81,-82 9.97,-55 25.86,-34.36 96.73,-21.32 141.2,-15.01"/>
<polygon fill="#63b8ff" stroke="#63b8ff" points="141.91,-18.45 151.34,-13.63 140.96,-11.52 141.91,-18.45"/>
</g>
<!-- Node4 -->
<g id="node4" class="node">
<title>Node4</title>
<g id="a_node4"><a xlink:href="Queue_8hpp.html" target="_top" xlink:title=" ">
<polygon fill="white" stroke="#666666" points="88.47,-74 19.47,-74 19.47,-55 88.47,-55 88.47,-74"/>
<text text-anchor="middle" x="53.97" y="-62" font-family="Helvetica,sans-Serif" font-size="10.00">Queue.hpp</text>
</a>
</g>
</g>
<!-- Node2&#45;&gt;Node4 -->
<g id="edge3" class="edge">
<title>Node2&#45;&gt;Node4</title>
<path fill="none" stroke="#63b8ff" d="M114.41,-169.88C88.86,-165.13 54.9,-154.19 37.97,-129 28.69,-115.18 35.26,-96.39 42.59,-82.84"/>
<polygon fill="#63b8ff" stroke="#63b8ff" points="45.72,-84.42 47.84,-74.04 39.71,-80.84 45.72,-84.42"/>
</g>
<!-- Node5 -->
<g id="node5" class="node">
<title>Node5</title>
<g id="a_node5"><a xlink:href="CarState_8h.html" target="_top" xlink:title="Definition of the CarState structure representing the state of the car.">
<polygon fill="white" stroke="#666666" points="332.97,-129 264.97,-129 264.97,-110 332.97,-110 332.97,-129"/>
<text text-anchor="middle" x="298.97" y="-117" font-family="Helvetica,sans-Serif" font-size="10.00">CarState.h</text>
</a>
</g>
</g>
<!-- Node2&#45;&gt;Node5 -->
<g id="edge5" class="edge">
<title>Node2&#45;&gt;Node5</title>
<path fill="none" stroke="#63b8ff" d="M171.39,-164.98C196.69,-156.16 236.43,-142.31 264.83,-132.41"/>
<polygon fill="#63b8ff" stroke="#63b8ff" points="266.07,-135.68 274.36,-129.08 263.76,-129.07 266.07,-135.68"/>
</g>
<!-- Node8 -->
<g id="node8" class="node">
<title>Node8</title>
<g id="a_node8"><a xlink:href="Interp_8hpp.html" target="_top" xlink:title="Declaration and definition of the LinearInterp class template for linear interpolation.">
<polygon fill="white" stroke="#666666" points="180.97,-74 114.97,-74 114.97,-55 180.97,-55 180.97,-74"/>
<text text-anchor="middle" x="147.97" y="-62" font-family="Helvetica,sans-Serif" font-size="10.00">Interp.hpp</text>
</a>
</g>
</g>
<!-- Node2&#45;&gt;Node8 -->
<g id="edge9" class="edge">
<title>Node2&#45;&gt;Node8</title>
<path fill="none" stroke="#63b8ff" d="M147.05,-164.66C147.21,-147.17 147.58,-107.8 147.8,-84.27"/>
<polygon fill="#63b8ff" stroke="#63b8ff" points="151.3,-84.19 147.89,-74.16 144.3,-84.13 151.3,-84.19"/>
</g>
<!-- Node9 -->
<g id="node9" class="node">
<title>Node9</title>
<g id="a_node9"><a xlink:href="Curves_8hpp.html" target="_top" xlink:title="Definition of throttle and brake mapping tables.">
<polygon fill="white" stroke="#666666" points="246.47,-129 175.47,-129 175.47,-110 246.47,-110 246.47,-129"/>
<text text-anchor="middle" x="210.97" y="-117" font-family="Helvetica,sans-Serif" font-size="10.00">Curves.hpp</text>
</a>
</g>
</g>
<!-- Node2&#45;&gt;Node9 -->
<g id="edge11" class="edge">
<title>Node2&#45;&gt;Node9</title>
<path fill="none" stroke="#63b8ff" d="M157.25,-164.98C166.81,-157.07 181.25,-145.11 192.76,-135.58"/>
<polygon fill="#63b8ff" stroke="#63b8ff" points="195.03,-138.24 200.5,-129.17 190.57,-132.85 195.03,-138.24"/>
</g>
<!-- Node10 -->
<g id="node10" class="node">
<title>Node10</title>
<g id="a_node10"><a xlink:title=" ">
<polygon fill="#e0e0e0" stroke="#999999" points="118.47,-129 47.47,-129 47.47,-110 118.47,-110 118.47,-129"/>
<text text-anchor="middle" x="82.97" y="-117" font-family="Helvetica,sans-Serif" font-size="10.00">mcp2515.h</text>
</a>
</g>
</g>
<!-- Node2&#45;&gt;Node10 -->
<g id="edge14" class="edge">
<title>Node2&#45;&gt;Node10</title>
<path fill="none" stroke="#63b8ff" d="M136.69,-164.98C127.13,-157.07 112.69,-145.11 101.19,-135.58"/>
<polygon fill="#63b8ff" stroke="#63b8ff" points="103.37,-132.85 93.44,-129.17 98.91,-138.24 103.37,-132.85"/>
</g>
<!-- Node4&#45;&gt;Node3 -->
<g id="edge4" class="edge">
<title>Node4&#45;&gt;Node3</title>
<path fill="none" stroke="#63b8ff" d="M73.89,-54.98C94.02,-46.38 125.35,-32.99 148.38,-23.15"/>
<polygon fill="#63b8ff" stroke="#63b8ff" points="149.87,-26.32 157.69,-19.17 147.11,-19.88 149.87,-26.32"/>
</g>
<!-- Node5&#45;&gt;Node3 -->
<g id="edge8" class="edge">
<title>Node5&#45;&gt;Node3</title>
<path fill="none" stroke="#63b8ff" d="M289.07,-109.66C268.49,-91.3 220.9,-48.81 195.19,-25.87"/>
<polygon fill="#63b8ff" stroke="#63b8ff" points="197.46,-23.21 187.67,-19.16 192.8,-28.43 197.46,-23.21"/>
</g>
<!-- Node6 -->
<g id="node6" class="node">
<title>Node6</title>
<g id="a_node6"><a xlink:href="Enums_8h.html" target="_top" xlink:title="Enumeration definitions for the VCU.">
<polygon fill="white" stroke="#666666" points="395.47,-74 336.47,-74 336.47,-55 395.47,-55 395.47,-74"/>
<text text-anchor="middle" x="365.97" y="-62" font-family="Helvetica,sans-Serif" font-size="10.00">Enums.h</text>
</a>
</g>
</g>
<!-- Node5&#45;&gt;Node6 -->
<g id="edge6" class="edge">
<title>Node5&#45;&gt;Node6</title>
<path fill="none" stroke="#63b8ff" d="M309.74,-109.98C319.74,-102.07 334.86,-90.11 346.9,-80.58"/>
<polygon fill="#63b8ff" stroke="#63b8ff" points="349.34,-83.12 355.01,-74.17 345,-77.63 349.34,-83.12"/>
</g>
<!-- Node7 -->
<g id="node7" class="node">
<title>Node7</title>
<g id="a_node7"><a xlink:title=" ">
<polygon fill="#e0e0e0" stroke="#999999" points="318.47,-74 275.47,-74 275.47,-55 318.47,-55 318.47,-74"/>
<text text-anchor="middle" x="296.97" y="-62" font-family="Helvetica,sans-Serif" font-size="10.00">can.h</text>
</a>
</g>
</g>
<!-- Node5&#45;&gt;Node7 -->
<g id="edge7" class="edge">
<title>Node5&#45;&gt;Node7</title>
<path fill="none" stroke="#63b8ff" d="M298.64,-109.75C298.38,-102.8 298,-92.85 297.67,-84.13"/>
<polygon fill="#63b8ff" stroke="#63b8ff" points="301.17,-83.95 297.3,-74.09 294.17,-84.21 301.17,-83.95"/>
</g>
<!-- Node8&#45;&gt;Node3 -->
<g id="edge10" class="edge">
<title>Node8&#45;&gt;Node3</title>
<path fill="none" stroke="#63b8ff" d="M152.92,-54.75C157.03,-47.49 163,-36.95 168.08,-27.98"/>
<polygon fill="#63b8ff" stroke="#63b8ff" points="171.23,-29.52 173.11,-19.09 165.14,-26.07 171.23,-29.52"/>
</g>
<!-- Node9&#45;&gt;Node3 -->
<g id="edge13" class="edge">
<title>Node9&#45;&gt;Node3</title>
<path fill="none" stroke="#63b8ff" d="M208.27,-109.66C202.9,-92.09 190.79,-52.45 183.61,-28.95"/>
<polygon fill="#63b8ff" stroke="#63b8ff" points="186.89,-27.7 180.62,-19.16 180.19,-29.74 186.89,-27.7"/>
</g>
<!-- Node9&#45;&gt;Node8 -->
<g id="edge12" class="edge">
<title>Node9&#45;&gt;Node8</title>
<path fill="none" stroke="#63b8ff" d="M200.85,-109.98C191.54,-102.15 177.5,-90.34 166.23,-80.86"/>
<polygon fill="#63b8ff" stroke="#63b8ff" points="168.18,-77.93 158.28,-74.17 163.68,-83.29 168.18,-77.93"/>
</g>
<!-- Node11&#45;&gt;Node3 -->
<g id="edge16" class="edge">
<title>Node11&#45;&gt;Node3</title>
<path fill="none" stroke="#63b8ff" d="M474.74,-164.84C500.81,-153.93 537.08,-133.71 521.97,-110 488.52,-57.5 296.9,-26.25 215.04,-15.13"/>
<polygon fill="#63b8ff" stroke="#63b8ff" points="215.07,-11.6 204.7,-13.75 214.15,-18.54 215.07,-11.6"/>
</g>
<!-- Node12 -->
<g id="node12" class="node">
<title>Node12</title>
<g id="a_node12"><a xlink:href="Signal__Processing_8tpp.html" target="_top" xlink:title=" ">
<polygon fill="white" stroke="#666666" points="512.47,-129 389.47,-129 389.47,-110 512.47,-110 512.47,-129"/>
<text text-anchor="middle" x="450.97" y="-117" font-family="Helvetica,sans-Serif" font-size="10.00">Signal_Processing.tpp</text>
</a>
</g>
</g>
<!-- Node11&#45;&gt;Node12 -->
<g id="edge17" class="edge">
<title>Node11&#45;&gt;Node12</title>
<path fill="none" stroke="#63b8ff" d="M445.8,-164.75C444.31,-157.8 443.87,-147.85 444.49,-139.13"/>
<polygon fill="#63b8ff" stroke="#63b8ff" points="447.98,-139.47 445.84,-129.09 441.04,-138.53 447.98,-139.47"/>
</g>
<!-- Node12&#45;&gt;Node11 -->
<g id="edge18" class="edge">
<title>Node12&#45;&gt;Node11</title>
<path fill="none" stroke="#63b8ff" d="M456.1,-129.09C457.61,-135.99 458.07,-145.93 457.46,-154.66"/>
<polygon fill="#63b8ff" stroke="#63b8ff" points="453.97,-154.38 456.14,-164.75 460.91,-155.29 453.97,-154.38"/>
</g>
<!-- Node13&#45;&gt;Node6 -->
<g id="edge20" class="edge">
<title>Node13&#45;&gt;Node6</title>
<path fill="none" stroke="#63b8ff" d="M338.43,-164.66C343.31,-147.09 354.32,-107.45 360.85,-83.95"/>
<polygon fill="#63b8ff" stroke="#63b8ff" points="364.26,-84.73 363.57,-74.16 357.52,-82.86 364.26,-84.73"/>
</g>
</g>
</svg>
        <g id="navigator" transform="translate(0 0)" fill="#404254">
                <rect fill="#f2f5e9" fill-opacity="0.5" stroke="#606060" stroke-width=".5" x="0" y="0" width="60" height="60"/>
                <use id="zoomplus" xlink:href="#zoomPlus" x="17" y="9" onmousedown="handleZoom(evt,'in')"/>
                <use id="zoomminus" xlink:href="#zoomMin" x="42" y="9" onmousedown="handleZoom(evt,'out')"/>
                <use id="reset" xlink:href="#resetDef" x="30" y="36" onmousedown="handleReset()"/>
                <g id="arrowUp" xlink:href="#dirArrow" transform="translate(30 24)" onmousedown="handlePan(0,-1)">
                  <use xlink:href="#rim" fill="#404040">
                        <set attributeName="fill" to="#808080" begin="arrowUp.mouseover" end="arrowUp.mouseout"/>
                  </use>
                  <path fill="none" stroke="white" stroke-width="1.5" d="M0,-3.0v7 M-2.5,-0.5L0,-3.0L2.5,-0.5"/>
                </g>
                <g id="arrowRight" xlink:href="#dirArrow" transform="rotate(90) translate(36 -43)" onmousedown="handlePan(1,0)">
                  <use xlink:href="#rim" fill="#404040">
                        <set attributeName="fill" to="#808080" begin="arrowRight.mouseover" end="arrowRight.mouseout"/>
                  </use>
                  <path fill="none" stroke="white" stroke-width="1.5" d="M0,-3.0v7 M-2.5,-0.5L0,-3.0L2.5,-0.5"/>
                </g>
                <g id="arrowDown" xlink:href="#dirArrow" transform="rotate(180) translate(-30 -48)" onmousedown="handlePan(0,1)">
                  <use xlink:href="#rim" fill="#404040">
                        <set attributeName="fill" to="#808080" begin="arrowDown.mouseover" end="arrowDown.mouseout"/>
                  </use>
                  <path fill="none" stroke="white" stroke-width="1.5" d="M0,-3.0v7 M-2.5,-0.5L0,-3.0L2.5,-0.5"/>
                </g>
                <g id="arrowLeft" xlink:href="#dirArrow" transform="rotate(270) translate(-36 17)" onmousedown="handlePan(-1,0)">
                  <use xlink:href="#rim" fill="#404040">
                        <set attributeName="fill" to="#808080" begin="arrowLeft.mouseover" end="arrowLeft.mouseout"/>
                  </use>
                  <path fill="none" stroke="white" stroke-width="1.5" d="M0,-3.0v7 M-2.5,-0.5L0,-3.0L2.5,-0.5"/>
                </g>
        </g>
        <svg viewBox="0 0 15 15" width="100%" height="30px" preserveAspectRatio="xMaxYMin meet">
         <g id="arrow_out" transform="scale(0.3 0.3)">
          <a xlink:href="Pedal_8cpp__incl_org.svg" target="_base">
           <rect id="button" ry="5" rx="5" y="6" x="6" height="38" width="38"
                fill="#f2f5e9" fill-opacity="0.5" stroke="#606060" stroke-width="1.0"/>
           <path id="arrow"
             d="M 11.500037,31.436501 C 11.940474,20.09759 22.043105,11.32322 32.158766,21.979434 L 37.068811,17.246167 C 37.068811,17.246167 37.088388,32 37.088388,32 L 22.160133,31.978069 C 22.160133,31.978069 26.997745,27.140456 26.997745,27.140456 C 18.528582,18.264221 13.291696,25.230495 11.500037,31.436501 z"
             style="fill:#404040;"/>
          </a>
         </g>
        </svg>
</svg>
