<?xml version="1.0" encoding="UTF-8" standalone="no"?>
<!DOCTYPE svg PUBLIC "-//W3C//DTD SVG 1.1//EN"
 "http://www.w3.org/Graphics/SVG/1.1/DTD/svg11.dtd">
<!-- Generated by graphviz version 2.43.0 (0)
 -->
<!-- Title: lib/Pedal/Pedal.hpp Pages: 1 -->
<svg width="441pt" height="192pt"
 viewBox="0.00 0.00 441.29 192.00" xmlns="http://www.w3.org/2000/svg" xmlns:xlink="http://www.w3.org/1999/xlink">
<g id="graph0" class="graph" transform="scale(1 1) rotate(0) translate(4 188)">
<title>lib/Pedal/Pedal.hpp</title>
<!-- Node1 -->
<g id="node1" class="node">
<title>Node1</title>
<g id="a_node1"><a xlink:title=" ">
<polygon fill="#999999" stroke="#666666" points="258.79,-184 148.79,-184 148.79,-165 258.79,-165 258.79,-184"/>
<text text-anchor="middle" x="203.79" y="-172" font-family="Helvetica,sans-Serif" font-size="10.00">lib/Pedal/Pedal.hpp</text>
</a>
</g>
</g>
<!-- Node2 -->
<g id="node2" class="node">
<title>Node2</title>
<g id="a_node2"><a xlink:title=" ">
<polygon fill="#e0e0e0" stroke="#999999" points="137.29,-19 84.29,-19 84.29,0 137.29,0 137.29,-19"/>
<text text-anchor="middle" x="110.79" y="-7" font-family="Helvetica,sans-Serif" font-size="10.00">stdint.h</text>
</a>
</g>
</g>
<!-- Node1&#45;&gt;Node2 -->
<g id="edge1" class="edge">
<title>Node1&#45;&gt;Node2</title>
<path fill="none" stroke="#63b8ff" d="M153.77,-164.96C105.12,-153.62 34.24,-128.29 3.79,-74 -13.74,-42.74 36.39,-25.33 73.85,-16.94"/>
<polygon fill="#63b8ff" stroke="#63b8ff" points="74.94,-20.29 84.01,-14.82 73.5,-13.44 74.94,-20.29"/>
</g>
<!-- Node3 -->
<g id="node3" class="node">
<title>Node3</title>
<g id="a_node3"><a xlink:href="Queue_8hpp.html" target="_top" xlink:title=" ">
<polygon fill="white" stroke="#666666" points="82.29,-74 13.29,-74 13.29,-55 82.29,-55 82.29,-74"/>
<text text-anchor="middle" x="47.79" y="-62" font-family="Helvetica,sans-Serif" font-size="10.00">Queue.hpp</text>
</a>
</g>
</g>
<!-- Node1&#45;&gt;Node3 -->
<g id="edge2" class="edge">
<title>Node1&#45;&gt;Node3</title>
<path fill="none" stroke="#63b8ff" d="M184.97,-164.91C167.68,-156.67 141.65,-143.39 120.79,-129 99.99,-114.64 78.42,-95.23 64.18,-81.66"/>
<polygon fill="#63b8ff" stroke="#63b8ff" points="66.32,-78.86 56.69,-74.43 61.45,-83.89 66.32,-78.86"/>
</g>
<!-- Node4 -->
<g id="node4" class="node">
<title>Node4</title>
<g id="a_node4"><a xlink:href="CarState_8hpp.html" target="_top" xlink:title="Definition of the CarState structure representing the state of the car.">
<polygon fill="white" stroke="#666666" points="209.79,-129 129.79,-129 129.79,-110 209.79,-110 209.79,-129"/>
<text text-anchor="middle" x="169.79" y="-117" font-family="Helvetica,sans-Serif" font-size="10.00">CarState.hpp</text>
</a>
</g>
</g>
<!-- Node1&#45;&gt;Node4 -->
<g id="edge4" class="edge">
<title>Node1&#45;&gt;Node4</title>
<path fill="none" stroke="#63b8ff" d="M198.18,-164.75C193.48,-157.42 186.62,-146.73 180.82,-137.7"/>
<polygon fill="#63b8ff" stroke="#63b8ff" points="183.65,-135.62 175.3,-129.09 177.76,-139.4 183.65,-135.62"/>
</g>
<!-- Node7 -->
<g id="node7" class="node">
<title>Node7</title>
<g id="a_node7"><a xlink:href="Interp_8hpp.html" target="_top" xlink:title="Declaration and definition of the LinearInterp class template for linear interpolation.">
<polygon fill="white" stroke="#666666" points="343.79,-74 277.79,-74 277.79,-55 343.79,-55 343.79,-74"/>
<text text-anchor="middle" x="310.79" y="-62" font-family="Helvetica,sans-Serif" font-size="10.00">Interp.hpp</text>
</a>
</g>
</g>
<!-- Node1&#45;&gt;Node7 -->
<g id="edge8" class="edge">
<title>Node1&#45;&gt;Node7</title>
<path fill="none" stroke="#63b8ff" d="M211.79,-164.73C223.16,-152.34 244.71,-129.1 263.79,-110 273.52,-100.26 284.7,-89.65 293.72,-81.24"/>
<polygon fill="#63b8ff" stroke="#63b8ff" points="296.34,-83.58 301.28,-74.21 291.57,-78.45 296.34,-83.58"/>
</g>
<!-- Node8 -->
<g id="node8" class="node">
<title>Node8</title>
<g id="a_node8"><a xlink:href="Curves_8hpp.html" target="_top" xlink:title="Definition of throttle and brake mapping tables.">
<polygon fill="white" stroke="#666666" points="344.29,-129 273.29,-129 273.29,-110 344.29,-110 344.29,-129"/>
<text text-anchor="middle" x="308.79" y="-117" font-family="Helvetica,sans-Serif" font-size="10.00">Curves.hpp</text>
</a>
</g>
</g>
<!-- Node1&#45;&gt;Node8 -->
<g id="edge10" class="edge">
<title>Node1&#45;&gt;Node8</title>
<path fill="none" stroke="#63b8ff" d="M220.66,-164.98C237.4,-156.54 263.29,-143.47 282.69,-133.68"/>
<polygon fill="#63b8ff" stroke="#63b8ff" points="284.27,-136.8 291.62,-129.17 281.11,-130.55 284.27,-136.8"/>
</g>
<!-- Node9 -->
<g id="node9" class="node">
<title>Node9</title>
<g id="a_node9"><a xlink:title=" ">
<polygon fill="#e0e0e0" stroke="#999999" points="433.29,-129 362.29,-129 362.29,-110 433.29,-110 433.29,-129"/>
<text text-anchor="middle" x="397.79" y="-117" font-family="Helvetica,sans-Serif" font-size="10.00">mcp2515.h</text>
</a>
</g>
</g>
<!-- Node1&#45;&gt;Node9 -->
<g id="edge13" class="edge">
<title>Node1&#45;&gt;Node9</title>
<path fill="none" stroke="#63b8ff" d="M234.96,-164.98C267.96,-155.97 320.19,-141.7 356.57,-131.76"/>
<polygon fill="#63b8ff" stroke="#63b8ff" points="357.66,-135.09 366.38,-129.08 355.81,-128.34 357.66,-135.09"/>
</g>
<!-- Node3&#45;&gt;Node2 -->
<g id="edge3" class="edge">
<title>Node3&#45;&gt;Node2</title>
<path fill="none" stroke="#63b8ff" d="M57.92,-54.98C67.23,-47.15 81.26,-35.34 92.53,-25.86"/>
<polygon fill="#63b8ff" stroke="#63b8ff" points="95.09,-28.29 100.49,-19.17 90.58,-22.93 95.09,-28.29"/>
</g>
<!-- Node4&#45;&gt;Node2 -->
<g id="edge7" class="edge">
<title>Node4&#45;&gt;Node2</title>
<path fill="none" stroke="#63b8ff" d="M159.88,-109.9C150.84,-101.56 137.72,-88.13 129.79,-74 121.95,-60.03 117.02,-42.47 114.15,-29.37"/>
<polygon fill="#63b8ff" stroke="#63b8ff" points="117.51,-28.32 112.14,-19.19 110.65,-29.68 117.51,-28.32"/>
</g>
<!-- Node5 -->
<g id="node5" class="node">
<title>Node5</title>
<g id="a_node5"><a xlink:href="Enums_8h.html" target="_top" xlink:title="Enumeration definitions for the VCU.">
<polygon fill="white" stroke="#666666" points="198.29,-74 139.29,-74 139.29,-55 198.29,-55 198.29,-74"/>
<text text-anchor="middle" x="168.79" y="-62" font-family="Helvetica,sans-Serif" font-size="10.00">Enums.h</text>
</a>
</g>
</g>
<!-- Node4&#45;&gt;Node5 -->
<g id="edge5" class="edge">
<title>Node4&#45;&gt;Node5</title>
<path fill="none" stroke="#63b8ff" d="M169.63,-109.75C169.5,-102.8 169.31,-92.85 169.14,-84.13"/>
<polygon fill="#63b8ff" stroke="#63b8ff" points="172.64,-84.02 168.96,-74.09 165.64,-84.15 172.64,-84.02"/>
</g>
<!-- Node6 -->
<g id="node6" class="node">
<title>Node6</title>
<g id="a_node6"><a xlink:title=" ">
<polygon fill="#e0e0e0" stroke="#999999" points="259.29,-74 216.29,-74 216.29,-55 259.29,-55 259.29,-74"/>
<text text-anchor="middle" x="237.79" y="-62" font-family="Helvetica,sans-Serif" font-size="10.00">can.h</text>
</a>
</g>
</g>
<!-- Node4&#45;&gt;Node6 -->
<g id="edge6" class="edge">
<title>Node4&#45;&gt;Node6</title>
<path fill="none" stroke="#63b8ff" d="M180.72,-109.98C190.87,-102.07 206.22,-90.11 218.44,-80.58"/>
<polygon fill="#63b8ff" stroke="#63b8ff" points="220.93,-83.08 226.67,-74.17 216.63,-77.56 220.93,-83.08"/>
</g>
<!-- Node7&#45;&gt;Node2 -->
<g id="edge9" class="edge">
<title>Node7&#45;&gt;Node2</title>
<path fill="none" stroke="#63b8ff" d="M278.66,-54.98C242.83,-45.49 184.99,-30.16 147.43,-20.21"/>
<polygon fill="#63b8ff" stroke="#63b8ff" points="147.97,-16.73 137.41,-17.55 146.18,-23.5 147.97,-16.73"/>
</g>
<!-- Node8&#45;&gt;Node2 -->
<g id="edge12" class="edge">
<title>Node8&#45;&gt;Node2</title>
<path fill="none" stroke="#63b8ff" d="M322.21,-109.94C340.21,-97.41 368.24,-73.55 352.79,-55 327.08,-24.13 208.48,-14.6 147.39,-11.71"/>
<polygon fill="#63b8ff" stroke="#63b8ff" points="147.54,-8.22 137.4,-11.28 147.23,-15.21 147.54,-8.22"/>
</g>
<!-- Node8&#45;&gt;Node7 -->
<g id="edge11" class="edge">
<title>Node8&#45;&gt;Node7</title>
<path fill="none" stroke="#63b8ff" d="M309.12,-109.75C309.39,-102.8 309.76,-92.85 310.09,-84.13"/>
<polygon fill="#63b8ff" stroke="#63b8ff" points="313.59,-84.21 310.47,-74.09 306.59,-83.95 313.59,-84.21"/>
</g>
</g>
</svg>
