<?xml version="1.0" encoding="UTF-8" standalone="no"?>
<!DOCTYPE svg PUBLIC "-//W3C//DTD SVG 1.1//EN"
 "http://www.w3.org/Graphics/SVG/1.1/DTD/svg11.dtd">
<!-- Generated by graphviz version 2.43.0 (0)
 -->
<!-- Title: ee_sw_vcu_2025/lib/Scheduler/Scheduler.hpp Pages: 1 -->
<svg width="364pt" height="170pt"
 viewBox="0.00 0.00 363.50 170.00" xmlns="http://www.w3.org/2000/svg" xmlns:xlink="http://www.w3.org/1999/xlink">
<g id="graph0" class="graph" transform="scale(1 1) rotate(0) translate(4 166)">
<title>ee_sw_vcu_2025/lib/Scheduler/Scheduler.hpp</title>
<!-- Node1 -->
<g id="node1" class="node">
<title>Node1</title>
<g id="a_node1"><a xlink:title="Declaration of the Scheduler class template, for scheduling tasks on multiple MCP2515 instances.">
<polygon fill="#999999" stroke="#666666" points="307.5,-162 168.5,-162 168.5,-132 307.5,-132 307.5,-162"/>
<text text-anchor="start" x="176.5" y="-150" font-family="Helvetica,sans-Serif" font-size="10.00">ee_sw_vcu_2025/lib</text>
<text text-anchor="middle" x="238" y="-139" font-family="Helvetica,sans-Serif" font-size="10.00">/Scheduler/Scheduler.hpp</text>
</a>
</g>
</g>
<!-- Node2 -->
<g id="node2" class="node">
<title>Node2</title>
<g id="a_node2"><a xlink:href="BMS_8hpp.html" target="_top" xlink:title="Declaration of the BMS class for managing the Accumulator (Kclear BMS) via CAN bus.">
<polygon fill="white" stroke="#666666" points="162,-96 48,-96 48,-66 162,-66 162,-96"/>
<text text-anchor="start" x="56" y="-84" font-family="Helvetica,sans-Serif" font-size="10.00">ee_sw_vcu_2025/lib</text>
<text text-anchor="middle" x="105" y="-73" font-family="Helvetica,sans-Serif" font-size="10.00">/BMS/BMS.hpp</text>
</a>
</g>
</g>
<!-- Node1&#45;&gt;Node2 -->
<g id="edge1" class="edge">
<title>Node1&#45;&gt;Node2</title>
<path fill="none" stroke="#63b8ff" d="M199.58,-127.51C178.72,-117.47 153.33,-105.26 134.12,-96.01"/>
<polygon fill="#63b8ff" stroke="#63b8ff" points="198.28,-130.77 208.81,-131.95 201.32,-124.46 198.28,-130.77"/>
</g>
<!-- Node4 -->
<g id="node4" class="node">
<title>Node4</title>
<g id="a_node4"><a xlink:href="main_8cpp.html" target="_top" xlink:title="Main VCU program entry point.">
<polygon fill="white" stroke="#666666" points="248,-30 132,-30 132,0 248,0 248,-30"/>
<text text-anchor="start" x="140" y="-18" font-family="Helvetica,sans-Serif" font-size="10.00">ee_sw_vcu_2025/src</text>
<text text-anchor="middle" x="190" y="-7" font-family="Helvetica,sans-Serif" font-size="10.00">/main.cpp</text>
</a>
</g>
</g>
<!-- Node1&#45;&gt;Node4 -->
<g id="edge6" class="edge">
<title>Node1&#45;&gt;Node4</title>
<path fill="none" stroke="#63b8ff" d="M223.4,-122.93C218.62,-114.67 213.63,-105.14 210,-96 201.18,-73.78 195.36,-46.5 192.37,-30.23"/>
<polygon fill="#63b8ff" stroke="#63b8ff" points="220.46,-124.85 228.6,-131.63 226.47,-121.25 220.46,-124.85"/>
</g>
<!-- Node5 -->
<g id="node5" class="node">
<title>Node5</title>
<g id="a_node5"><a xlink:href="Scheduler_8tpp.html" target="_top" xlink:title="Implementation of the Scheduler class template.">
<polygon fill="white" stroke="#666666" points="355.5,-96 218.5,-96 218.5,-66 355.5,-66 355.5,-96"/>
<text text-anchor="start" x="226.5" y="-84" font-family="Helvetica,sans-Serif" font-size="10.00">ee_sw_vcu_2025/lib</text>
<text text-anchor="middle" x="287" y="-73" font-family="Helvetica,sans-Serif" font-size="10.00">/Scheduler/Scheduler.tpp</text>
</a>
</g>
</g>
<!-- Node1&#45;&gt;Node5 -->
<g id="edge4" class="edge">
<title>Node1&#45;&gt;Node5</title>
<path fill="none" stroke="#63b8ff" d="M248.93,-123.24C255.33,-114.21 263.32,-104.11 270.44,-96.16"/>
<polygon fill="#63b8ff" stroke="#63b8ff" points="245.85,-121.55 243.15,-131.8 251.65,-125.47 245.85,-121.55"/>
</g>
<!-- Node3 -->
<g id="node3" class="node">
<title>Node3</title>
<g id="a_node3"><a xlink:href="BMS_8cpp.html" target="_top" xlink:title="Implementation of the BMS class for managing the Accumulator (Kclear BMS) via CAN bus.">
<polygon fill="white" stroke="#666666" points="114,-30 0,-30 0,0 114,0 114,-30"/>
<text text-anchor="start" x="8" y="-18" font-family="Helvetica,sans-Serif" font-size="10.00">ee_sw_vcu_2025/lib</text>
<text text-anchor="middle" x="57" y="-7" font-family="Helvetica,sans-Serif" font-size="10.00">/BMS/BMS.cpp</text>
</a>
</g>
</g>
<!-- Node2&#45;&gt;Node3 -->
<g id="edge2" class="edge">
<title>Node2&#45;&gt;Node3</title>
<path fill="none" stroke="#63b8ff" d="M88.14,-57.53C81.32,-48.43 73.65,-38.19 67.62,-30.16"/>
<polygon fill="#63b8ff" stroke="#63b8ff" points="85.55,-59.9 94.35,-65.8 91.15,-55.7 85.55,-59.9"/>
</g>
<!-- Node2&#45;&gt;Node4 -->
<g id="edge3" class="edge">
<title>Node2&#45;&gt;Node4</title>
<path fill="none" stroke="#63b8ff" d="M131.89,-59.75C144.67,-50.13 159.64,-38.86 171.19,-30.16"/>
<polygon fill="#63b8ff" stroke="#63b8ff" points="129.75,-56.99 123.86,-65.8 133.96,-62.58 129.75,-56.99"/>
</g>
<!-- Node5&#45;&gt;Node1 -->
<g id="edge5" class="edge">
<title>Node5&#45;&gt;Node1</title>
<path fill="none" stroke="#63b8ff" d="M276.1,-104.71C269.71,-113.74 261.72,-123.84 254.59,-131.8"/>
<polygon fill="#63b8ff" stroke="#63b8ff" points="279.18,-106.41 281.87,-96.16 273.38,-102.5 279.18,-106.41"/>
</g>
</g>
</svg>
