<?xml version="1.0" encoding="UTF-8" standalone="no"?>
<!DOCTYPE svg PUBLIC "-//W3C//DTD SVG 1.1//EN"
 "http://www.w3.org/Graphics/SVG/1.1/DTD/svg11.dtd">
<!-- Generated by graphviz version 2.43.0 (0)
 -->
<!-- Title: lib/Scheduler/Scheduler.hpp Pages: 1 -->
<svg width="200pt" height="192pt"
 viewBox="0.00 0.00 200.00 192.00" xmlns="http://www.w3.org/2000/svg" xmlns:xlink="http://www.w3.org/1999/xlink">
<g id="graph0" class="graph" transform="scale(1 1) rotate(0) translate(4 188)">
<title>lib/Scheduler/Scheduler.hpp</title>
<!-- Node1 -->
<g id="node1" class="node">
<title>Node1</title>
<g id="a_node1"><a xlink:title="Declaration of the Scheduler class template, for scheduling tasks on multiple MCP2515 instances.">
<polygon fill="#999999" stroke="#666666" points="177,-184 26,-184 26,-165 177,-165 177,-184"/>
<text text-anchor="middle" x="101.5" y="-172" font-family="Helvetica,sans-Serif" font-size="10.00">lib/Scheduler/Scheduler.hpp</text>
</a>
</g>
</g>
<!-- Node2 -->
<g id="node2" class="node">
<title>Node2</title>
<g id="a_node2"><a xlink:href="Enums_8h.html" target="_top" xlink:title="Enumeration definitions for the VCU.">
<polygon fill="white" stroke="#666666" points="89,-74 30,-74 30,-55 89,-55 89,-74"/>
<text text-anchor="middle" x="59.5" y="-62" font-family="Helvetica,sans-Serif" font-size="10.00">Enums.h</text>
</a>
</g>
</g>
<!-- Node1&#45;&gt;Node2 -->
<g id="edge1" class="edge">
<title>Node1&#45;&gt;Node2</title>
<path fill="none" stroke="#63b8ff" d="M85.77,-164.88C73.62,-157.23 57.7,-144.83 50.5,-129 43.96,-114.6 47.44,-96.64 51.85,-83.49"/>
<polygon fill="#63b8ff" stroke="#63b8ff" points="55.12,-84.73 55.4,-74.14 48.57,-82.25 55.12,-84.73"/>
</g>
<!-- Node5 -->
<g id="node5" class="node">
<title>Node5</title>
<g id="a_node5"><a xlink:title=" ">
<polygon fill="#e0e0e0" stroke="#999999" points="192,-74 121,-74 121,-55 192,-55 192,-74"/>
<text text-anchor="middle" x="156.5" y="-62" font-family="Helvetica,sans-Serif" font-size="10.00">mcp2515.h</text>
</a>
</g>
</g>
<!-- Node1&#45;&gt;Node5 -->
<g id="edge4" class="edge">
<title>Node1&#45;&gt;Node5</title>
<path fill="none" stroke="#63b8ff" d="M116.97,-164.75C128.96,-157.03 144.81,-144.6 152.5,-129 159.3,-115.21 159.89,-97.64 159.01,-84.48"/>
<polygon fill="#63b8ff" stroke="#63b8ff" points="162.46,-83.85 157.98,-74.25 155.5,-84.55 162.46,-83.85"/>
</g>
<!-- Node6 -->
<g id="node6" class="node">
<title>Node6</title>
<g id="a_node6"><a xlink:href="Scheduler_8tpp.html" target="_top" xlink:title="Implementation of the Scheduler class template.">
<polygon fill="white" stroke="#666666" points="143,-129 60,-129 60,-110 143,-110 143,-129"/>
<text text-anchor="middle" x="101.5" y="-117" font-family="Helvetica,sans-Serif" font-size="10.00">Scheduler.tpp</text>
</a>
</g>
</g>
<!-- Node1&#45;&gt;Node6 -->
<g id="edge5" class="edge">
<title>Node1&#45;&gt;Node6</title>
<path fill="none" stroke="#63b8ff" d="M96.33,-164.75C94.84,-157.8 94.4,-147.85 95.02,-139.13"/>
<polygon fill="#63b8ff" stroke="#63b8ff" points="98.51,-139.47 96.37,-129.09 91.57,-138.53 98.51,-139.47"/>
</g>
<!-- Node3 -->
<g id="node3" class="node">
<title>Node3</title>
<g id="a_node3"><a xlink:title=" ">
<polygon fill="#e0e0e0" stroke="#999999" points="53,-19 0,-19 0,0 53,0 53,-19"/>
<text text-anchor="middle" x="26.5" y="-7" font-family="Helvetica,sans-Serif" font-size="10.00">stdint.h</text>
</a>
</g>
</g>
<!-- Node2&#45;&gt;Node3 -->
<g id="edge2" class="edge">
<title>Node2&#45;&gt;Node3</title>
<path fill="none" stroke="#63b8ff" d="M54.05,-54.75C49.49,-47.42 42.83,-36.73 37.21,-27.7"/>
<polygon fill="#63b8ff" stroke="#63b8ff" points="40.1,-25.73 31.85,-19.09 34.16,-29.43 40.1,-25.73"/>
</g>
<!-- Node4 -->
<g id="node4" class="node">
<title>Node4</title>
<g id="a_node4"><a xlink:title=" ">
<polygon fill="#e0e0e0" stroke="#999999" points="114,-19 71,-19 71,0 114,0 114,-19"/>
<text text-anchor="middle" x="92.5" y="-7" font-family="Helvetica,sans-Serif" font-size="10.00">can.h</text>
</a>
</g>
</g>
<!-- Node2&#45;&gt;Node4 -->
<g id="edge3" class="edge">
<title>Node2&#45;&gt;Node4</title>
<path fill="none" stroke="#63b8ff" d="M64.95,-54.75C69.51,-47.42 76.17,-36.73 81.79,-27.7"/>
<polygon fill="#63b8ff" stroke="#63b8ff" points="84.84,-29.43 87.15,-19.09 78.9,-25.73 84.84,-29.43"/>
</g>
<!-- Node6&#45;&gt;Node1 -->
<g id="edge8" class="edge">
<title>Node6&#45;&gt;Node1</title>
<path fill="none" stroke="#63b8ff" d="M106.63,-129.09C108.14,-135.99 108.59,-145.93 107.99,-154.66"/>
<polygon fill="#63b8ff" stroke="#63b8ff" points="104.5,-154.38 106.67,-164.75 111.44,-155.29 104.5,-154.38"/>
</g>
<!-- Node6&#45;&gt;Node2 -->
<g id="edge6" class="edge">
<title>Node6&#45;&gt;Node2</title>
<path fill="none" stroke="#63b8ff" d="M94.56,-109.75C88.63,-102.26 79.93,-91.28 72.68,-82.13"/>
<polygon fill="#63b8ff" stroke="#63b8ff" points="75.26,-79.75 66.31,-74.09 69.77,-84.1 75.26,-79.75"/>
</g>
<!-- Node6&#45;&gt;Node5 -->
<g id="edge7" class="edge">
<title>Node6&#45;&gt;Node5</title>
<path fill="none" stroke="#63b8ff" d="M110.58,-109.75C118.59,-102.03 130.46,-90.6 140.12,-81.28"/>
<polygon fill="#63b8ff" stroke="#63b8ff" points="142.81,-83.55 147.59,-74.09 137.96,-78.51 142.81,-83.55"/>
</g>
</g>
</svg>
