<?xml version="1.0" encoding="UTF-8" standalone="no"?>
<!DOCTYPE svg PUBLIC "-//W3C//DTD SVG 1.1//EN"
 "http://www.w3.org/Graphics/SVG/1.1/DTD/svg11.dtd">
<!-- Generated by graphviz version 2.43.0 (0)
 -->
<!-- Title: lib/Scheduler/Scheduler.hpp Pages: 1 -->
<svg width="159pt" height="137pt"
 viewBox="0.00 0.00 159.00 137.00" xmlns="http://www.w3.org/2000/svg" xmlns:xlink="http://www.w3.org/1999/xlink">
<g id="graph0" class="graph" transform="scale(1 1) rotate(0) translate(4 133)">
<title>lib/Scheduler/Scheduler.hpp</title>
<!-- Node1 -->
<g id="node1" class="node">
<title>Node1</title>
<g id="a_node1"><a xlink:title="Declaration of the Scheduler class template, for scheduling tasks on multiple MCP2515 instances.">
<polygon fill="#999999" stroke="#666666" points="151,-129 0,-129 0,-110 151,-110 151,-129"/>
<text text-anchor="middle" x="75.5" y="-117" font-family="Helvetica,sans-Serif" font-size="10.00">lib/Scheduler/Scheduler.hpp</text>
</a>
</g>
</g>
<!-- Node2 -->
<g id="node2" class="node">
<title>Node2</title>
<g id="a_node2"><a xlink:title=" ">
<polygon fill="#e0e0e0" stroke="#999999" points="76,-19 5,-19 5,0 76,0 76,-19"/>
<text text-anchor="middle" x="40.5" y="-7" font-family="Helvetica,sans-Serif" font-size="10.00">mcp2515.h</text>
</a>
</g>
</g>
<!-- Node1&#45;&gt;Node2 -->
<g id="edge1" class="edge">
<title>Node1&#45;&gt;Node2</title>
<path fill="none" stroke="#63b8ff" d="M59.77,-109.88C47.62,-102.23 31.7,-89.83 24.5,-74 17.75,-59.15 23.59,-41.01 30.03,-27.92"/>
<polygon fill="#63b8ff" stroke="#63b8ff" points="33.15,-29.5 34.87,-19.04 27.01,-26.15 33.15,-29.5"/>
</g>
<!-- Node3 -->
<g id="node3" class="node">
<title>Node3</title>
<g id="a_node3"><a xlink:href="Scheduler_8tpp.html" target="_top" xlink:title="Implementation of the Scheduler class template.">
<polygon fill="white" stroke="#666666" points="117,-74 34,-74 34,-55 117,-55 117,-74"/>
<text text-anchor="middle" x="75.5" y="-62" font-family="Helvetica,sans-Serif" font-size="10.00">Scheduler.tpp</text>
</a>
</g>
</g>
<!-- Node1&#45;&gt;Node3 -->
<g id="edge2" class="edge">
<title>Node1&#45;&gt;Node3</title>
<path fill="none" stroke="#63b8ff" d="M70.33,-109.75C68.84,-102.8 68.4,-92.85 69.02,-84.13"/>
<polygon fill="#63b8ff" stroke="#63b8ff" points="72.51,-84.47 70.37,-74.09 65.57,-83.53 72.51,-84.47"/>
</g>
<!-- Node3&#45;&gt;Node1 -->
<g id="edge4" class="edge">
<title>Node3&#45;&gt;Node1</title>
<path fill="none" stroke="#63b8ff" d="M80.63,-74.09C82.14,-80.99 82.59,-90.93 81.99,-99.66"/>
<polygon fill="#63b8ff" stroke="#63b8ff" points="78.5,-99.38 80.67,-109.75 85.44,-100.29 78.5,-99.38"/>
</g>
<!-- Node3&#45;&gt;Node2 -->
<g id="edge3" class="edge">
<title>Node3&#45;&gt;Node2</title>
<path fill="none" stroke="#63b8ff" d="M69.72,-54.75C64.88,-47.42 57.82,-36.73 51.86,-27.7"/>
<polygon fill="#63b8ff" stroke="#63b8ff" points="54.6,-25.5 46.17,-19.09 48.76,-29.36 54.6,-25.5"/>
</g>
</g>
</svg>
