<?xml version="1.0" encoding="UTF-8" standalone="no"?>
<!DOCTYPE svg PUBLIC "-//W3C//DTD SVG 1.1//EN"
 "http://www.w3.org/Graphics/SVG/1.1/DTD/svg11.dtd">
<!-- Generated by graphviz version 2.43.0 (0)
 -->
<!-- Title: lib/Scheduler/Scheduler.hpp Pages: 1 -->
<svg width="341pt" height="137pt"
 viewBox="0.00 0.00 340.50 137.00" xmlns="http://www.w3.org/2000/svg" xmlns:xlink="http://www.w3.org/1999/xlink">
<g id="graph0" class="graph" transform="scale(1 1) rotate(0) translate(4 133)">
<title>lib/Scheduler/Scheduler.hpp</title>
<!-- Node1 -->
<g id="node1" class="node">
<title>Node1</title>
<g id="a_node1"><a xlink:title="Declaration of the Scheduler class template, for scheduling tasks on multiple MCP2515 instances.">
<polygon fill="#999999" stroke="#666666" points="282.5,-129 131.5,-129 131.5,-110 282.5,-110 282.5,-129"/>
<text text-anchor="middle" x="207" y="-117" font-family="Helvetica,sans-Serif" font-size="10.00">lib/Scheduler/Scheduler.hpp</text>
</a>
</g>
</g>
<!-- Node2 -->
<g id="node2" class="node">
<title>Node2</title>
<g id="a_node2"><a xlink:href="BMS_8h.html" target="_top" xlink:title="Declaration of the BMS class for managing the Accumulator (Kclear BMS) via CAN bus.">
<polygon fill="white" stroke="#666666" points="127.5,-74 40.5,-74 40.5,-55 127.5,-55 127.5,-74"/>
<text text-anchor="middle" x="84" y="-62" font-family="Helvetica,sans-Serif" font-size="10.00">lib/BMS/BMS.h</text>
</a>
</g>
</g>
<!-- Node1&#45;&gt;Node2 -->
<g id="edge1" class="edge">
<title>Node1&#45;&gt;Node2</title>
<path fill="none" stroke="#63b8ff" d="M177.75,-105.9C155.03,-96.11 124.13,-82.79 104.12,-74.17"/>
<polygon fill="#63b8ff" stroke="#63b8ff" points="176.67,-109.24 187.24,-109.98 179.44,-102.81 176.67,-109.24"/>
</g>
<!-- Node4 -->
<g id="node4" class="node">
<title>Node4</title>
<g id="a_node4"><a xlink:href="main_8cpp.html" target="_top" xlink:title=" ">
<polygon fill="white" stroke="#666666" points="195.5,-19 116.5,-19 116.5,0 195.5,0 195.5,-19"/>
<text text-anchor="middle" x="156" y="-7" font-family="Helvetica,sans-Serif" font-size="10.00">src/main.cpp</text>
</a>
</g>
</g>
<!-- Node1&#45;&gt;Node4 -->
<g id="edge6" class="edge">
<title>Node1&#45;&gt;Node4</title>
<path fill="none" stroke="#63b8ff" d="M193.13,-102.02C186.9,-93.98 179.87,-83.91 175,-74 165.86,-55.41 160.18,-31.57 157.61,-19.05"/>
<polygon fill="#63b8ff" stroke="#63b8ff" points="190.44,-104.26 199.44,-109.86 195.9,-99.88 190.44,-104.26"/>
</g>
<!-- Node5 -->
<g id="node5" class="node">
<title>Node5</title>
<g id="a_node5"><a xlink:href="Scheduler_8tpp.html" target="_top" xlink:title="Implementation of the Scheduler class template.">
<polygon fill="white" stroke="#666666" points="332.5,-74 183.5,-74 183.5,-55 332.5,-55 332.5,-74"/>
<text text-anchor="middle" x="258" y="-62" font-family="Helvetica,sans-Serif" font-size="10.00">lib/Scheduler/Scheduler.tpp</text>
</a>
</g>
</g>
<!-- Node1&#45;&gt;Node5 -->
<g id="edge4" class="edge">
<title>Node1&#45;&gt;Node5</title>
<path fill="none" stroke="#63b8ff" d="M216.61,-101.96C224.64,-92.72 235.73,-81.6 244.6,-74.09"/>
<polygon fill="#63b8ff" stroke="#63b8ff" points="213.86,-99.79 210.26,-109.75 219.29,-104.21 213.86,-99.79"/>
</g>
<!-- Node3 -->
<g id="node3" class="node">
<title>Node3</title>
<g id="a_node3"><a xlink:href="BMS_8cpp.html" target="_top" xlink:title="Implementation of the BMS class for managing the Accumulator (Kclear BMS) via CAN bus.">
<polygon fill="white" stroke="#666666" points="98,-19 0,-19 0,0 98,0 98,-19"/>
<text text-anchor="middle" x="49" y="-7" font-family="Helvetica,sans-Serif" font-size="10.00">lib/BMS/BMS.cpp</text>
</a>
</g>
</g>
<!-- Node2&#45;&gt;Node3 -->
<g id="edge2" class="edge">
<title>Node2&#45;&gt;Node3</title>
<path fill="none" stroke="#63b8ff" d="M72.7,-46.39C66.68,-37.27 59.53,-26.45 54.67,-19.09"/>
<polygon fill="#63b8ff" stroke="#63b8ff" points="69.79,-48.33 78.22,-54.75 75.63,-44.47 69.79,-48.33"/>
</g>
<!-- Node2&#45;&gt;Node4 -->
<g id="edge3" class="edge">
<title>Node2&#45;&gt;Node4</title>
<path fill="none" stroke="#63b8ff" d="M103.87,-48.88C116.82,-39.34 133.3,-27.21 144.22,-19.17"/>
<polygon fill="#63b8ff" stroke="#63b8ff" points="101.55,-46.24 95.57,-54.98 105.7,-51.88 101.55,-46.24"/>
</g>
<!-- Node5&#45;&gt;Node1 -->
<g id="edge5" class="edge">
<title>Node5&#45;&gt;Node1</title>
<path fill="none" stroke="#63b8ff" d="M248.44,-81.99C240.38,-91.26 229.21,-102.46 220.31,-109.98"/>
<polygon fill="#63b8ff" stroke="#63b8ff" points="251.2,-84.13 254.81,-74.17 245.78,-79.71 251.2,-84.13"/>
</g>
</g>
</svg>
