<?xml version="1.0" encoding="UTF-8" standalone="no"?>
<!DOCTYPE svg PUBLIC "-//W3C//DTD SVG 1.1//EN"
 "http://www.w3.org/Graphics/SVG/1.1/DTD/svg11.dtd">
<!-- Generated by graphviz version 2.43.0 (0)
 -->
<!-- Title: ee_sw_vcu_2025/lib/Scheduler/Scheduler.tpp Pages: 1 -->
<svg width="256pt" height="236pt"
 viewBox="0.00 0.00 256.00 236.00" xmlns="http://www.w3.org/2000/svg" xmlns:xlink="http://www.w3.org/1999/xlink">
<g id="graph0" class="graph" transform="scale(1 1) rotate(0) translate(4 232)">
<title>ee_sw_vcu_2025/lib/Scheduler/Scheduler.tpp</title>
<!-- Node1 -->
<g id="node1" class="node">
<title>Node1</title>
<g id="a_node1"><a xlink:title="Implementation of the Scheduler class template.">
<polygon fill="#999999" stroke="#666666" points="215.5,-228 78.5,-228 78.5,-198 215.5,-198 215.5,-228"/>
<text text-anchor="start" x="86.5" y="-216" font-family="Helvetica,sans-Serif" font-size="10.00">ee_sw_vcu_2025/lib</text>
<text text-anchor="middle" x="147" y="-205" font-family="Helvetica,sans-Serif" font-size="10.00">/Scheduler/Scheduler.tpp</text>
</a>
</g>
</g>
<!-- Node2 -->
<g id="node2" class="node">
<title>Node2</title>
<g id="a_node2"><a xlink:href="Scheduler_8hpp.html" target="_top" xlink:title="Declaration of the Scheduler class template, for scheduling tasks on multiple MCP2515 instances.">
<polygon fill="white" stroke="#666666" points="216.5,-162 77.5,-162 77.5,-132 216.5,-132 216.5,-162"/>
<text text-anchor="start" x="85.5" y="-150" font-family="Helvetica,sans-Serif" font-size="10.00">ee_sw_vcu_2025/lib</text>
<text text-anchor="middle" x="147" y="-139" font-family="Helvetica,sans-Serif" font-size="10.00">/Scheduler/Scheduler.hpp</text>
</a>
</g>
</g>
<!-- Node1&#45;&gt;Node2 -->
<g id="edge1" class="edge">
<title>Node1&#45;&gt;Node2</title>
<path fill="none" stroke="#63b8ff" d="M140.43,-187.83C140.02,-179.17 140.31,-169.7 141.29,-162.16"/>
<polygon fill="#63b8ff" stroke="#63b8ff" points="136.95,-188.13 141.28,-197.8 143.92,-187.54 136.95,-188.13"/>
</g>
<!-- Node2&#45;&gt;Node1 -->
<g id="edge5" class="edge">
<title>Node2&#45;&gt;Node1</title>
<path fill="none" stroke="#63b8ff" d="M153.57,-172.13C153.98,-180.78 153.7,-190.26 152.72,-197.8"/>
<polygon fill="#63b8ff" stroke="#63b8ff" points="157.05,-171.83 152.71,-162.16 150.08,-172.43 157.05,-171.83"/>
</g>
<!-- Node3 -->
<g id="node3" class="node">
<title>Node3</title>
<g id="a_node3"><a xlink:href="BMS_8hpp.html" target="_top" xlink:title="Declaration of the BMS class for managing the Accumulator (Kclear BMS) via CAN bus.">
<polygon fill="white" stroke="#666666" points="162,-96 48,-96 48,-66 162,-66 162,-96"/>
<text text-anchor="start" x="56" y="-84" font-family="Helvetica,sans-Serif" font-size="10.00">ee_sw_vcu_2025/lib</text>
<text text-anchor="middle" x="105" y="-73" font-family="Helvetica,sans-Serif" font-size="10.00">/BMS/BMS.hpp</text>
</a>
</g>
</g>
<!-- Node2&#45;&gt;Node3 -->
<g id="edge2" class="edge">
<title>Node2&#45;&gt;Node3</title>
<path fill="none" stroke="#63b8ff" d="M132.07,-123.24C126.14,-114.21 119.51,-104.11 114.3,-96.16"/>
<polygon fill="#63b8ff" stroke="#63b8ff" points="129.27,-125.36 137.68,-131.8 135.12,-121.52 129.27,-125.36"/>
</g>
<!-- Node5 -->
<g id="node5" class="node">
<title>Node5</title>
<g id="a_node5"><a xlink:href="main_8cpp.html" target="_top" xlink:title="Main VCU program entry point.">
<polygon fill="white" stroke="#666666" points="248,-30 132,-30 132,0 248,0 248,-30"/>
<text text-anchor="start" x="140" y="-18" font-family="Helvetica,sans-Serif" font-size="10.00">ee_sw_vcu_2025/src</text>
<text text-anchor="middle" x="190" y="-7" font-family="Helvetica,sans-Serif" font-size="10.00">/main.cpp</text>
</a>
</g>
</g>
<!-- Node2&#45;&gt;Node5 -->
<g id="edge6" class="edge">
<title>Node2&#45;&gt;Node5</title>
<path fill="none" stroke="#63b8ff" d="M159.39,-122.84C163.49,-114.54 167.81,-105 171,-96 178.96,-73.53 184.62,-46.33 187.59,-30.14"/>
<polygon fill="#63b8ff" stroke="#63b8ff" points="156.19,-121.41 154.77,-131.91 162.43,-124.59 156.19,-121.41"/>
</g>
<!-- Node4 -->
<g id="node4" class="node">
<title>Node4</title>
<g id="a_node4"><a xlink:href="BMS_8cpp.html" target="_top" xlink:title="Implementation of the BMS class for managing the Accumulator (Kclear BMS) via CAN bus.">
<polygon fill="white" stroke="#666666" points="114,-30 0,-30 0,0 114,0 114,-30"/>
<text text-anchor="start" x="8" y="-18" font-family="Helvetica,sans-Serif" font-size="10.00">ee_sw_vcu_2025/lib</text>
<text text-anchor="middle" x="57" y="-7" font-family="Helvetica,sans-Serif" font-size="10.00">/BMS/BMS.cpp</text>
</a>
</g>
</g>
<!-- Node3&#45;&gt;Node4 -->
<g id="edge3" class="edge">
<title>Node3&#45;&gt;Node4</title>
<path fill="none" stroke="#63b8ff" d="M88.14,-57.53C81.32,-48.43 73.65,-38.19 67.62,-30.16"/>
<polygon fill="#63b8ff" stroke="#63b8ff" points="85.55,-59.9 94.35,-65.8 91.15,-55.7 85.55,-59.9"/>
</g>
<!-- Node3&#45;&gt;Node5 -->
<g id="edge4" class="edge">
<title>Node3&#45;&gt;Node5</title>
<path fill="none" stroke="#63b8ff" d="M131.89,-59.75C144.67,-50.13 159.64,-38.86 171.19,-30.16"/>
<polygon fill="#63b8ff" stroke="#63b8ff" points="129.75,-56.99 123.86,-65.8 133.96,-62.58 129.75,-56.99"/>
</g>
</g>
</svg>
