<?xml version="1.0" encoding="UTF-8" standalone="no"?>
<!DOCTYPE svg PUBLIC "-//W3C//DTD SVG 1.1//EN"
 "http://www.w3.org/Graphics/SVG/1.1/DTD/svg11.dtd">
<!-- Generated by graphviz version 2.43.0 (0)
 -->
<!-- Title: vehicle_control_unit/lib/Scheduler/Scheduler.hpp Pages: 1 -->
<svg width="379pt" height="170pt"
 viewBox="0.00 0.00 378.50 170.00" xmlns="http://www.w3.org/2000/svg" xmlns:xlink="http://www.w3.org/1999/xlink">
<g id="graph0" class="graph" transform="scale(1 1) rotate(0) translate(4 166)">
<title>vehicle_control_unit/lib/Scheduler/Scheduler.hpp</title>
<!-- Node1 -->
<g id="node1" class="node">
<title>Node1</title>
<g id="a_node1"><a xlink:title="Declaration of the Scheduler class template, for scheduling tasks on multiple MCP2515 instances.">
<polygon fill="#999999" stroke="#666666" points="319.5,-162 165.5,-162 165.5,-132 319.5,-132 319.5,-162"/>
<text text-anchor="start" x="173.5" y="-150" font-family="Helvetica,sans-Serif" font-size="10.00">vehicle_control_unit</text>
<text text-anchor="middle" x="242.5" y="-139" font-family="Helvetica,sans-Serif" font-size="10.00">/lib/Scheduler/Scheduler.hpp</text>
</a>
</g>
</g>
<!-- Node2 -->
<g id="node2" class="node">
<title>Node2</title>
<g id="a_node2"><a xlink:href="BMS_8hpp.html" target="_top" xlink:title="Declaration of the BMS class for managing the Accumulator (Kclear BMS) via CAN bus.">
<polygon fill="white" stroke="#666666" points="162,-96 47,-96 47,-66 162,-66 162,-96"/>
<text text-anchor="start" x="55" y="-84" font-family="Helvetica,sans-Serif" font-size="10.00">vehicle_control_unit</text>
<text text-anchor="middle" x="104.5" y="-73" font-family="Helvetica,sans-Serif" font-size="10.00">/lib/BMS/BMS.hpp</text>
</a>
</g>
</g>
<!-- Node1&#45;&gt;Node2 -->
<g id="edge1" class="edge">
<title>Node1&#45;&gt;Node2</title>
<path fill="none" stroke="#63b8ff" d="M202.93,-127.65C181.23,-117.58 154.74,-105.3 134.71,-96.01"/>
<polygon fill="#63b8ff" stroke="#63b8ff" points="201.67,-130.92 212.22,-131.95 204.62,-124.57 201.67,-130.92"/>
</g>
<!-- Node4 -->
<g id="node4" class="node">
<title>Node4</title>
<g id="a_node4"><a xlink:href="main_8cpp.html" target="_top" xlink:title="Main VCU program entry point.">
<polygon fill="white" stroke="#666666" points="248,-30 133,-30 133,0 248,0 248,-30"/>
<text text-anchor="start" x="141" y="-18" font-family="Helvetica,sans-Serif" font-size="10.00">vehicle_control_unit</text>
<text text-anchor="middle" x="190.5" y="-7" font-family="Helvetica,sans-Serif" font-size="10.00">/src/main.cpp</text>
</a>
</g>
</g>
<!-- Node1&#45;&gt;Node4 -->
<g id="edge6" class="edge">
<title>Node1&#45;&gt;Node4</title>
<path fill="none" stroke="#63b8ff" d="M225.25,-123.53C219.55,-115.24 213.62,-105.53 209.5,-96 199.98,-73.99 194.77,-46.41 192.32,-30.06"/>
<polygon fill="#63b8ff" stroke="#63b8ff" points="222.58,-125.81 231.25,-131.9 228.27,-121.73 222.58,-125.81"/>
</g>
<!-- Node5 -->
<g id="node5" class="node">
<title>Node5</title>
<g id="a_node5"><a xlink:href="Scheduler_8tpp.html" target="_top" xlink:title="Implementation of the Scheduler class template.">
<polygon fill="white" stroke="#666666" points="370.5,-96 218.5,-96 218.5,-66 370.5,-66 370.5,-96"/>
<text text-anchor="start" x="226.5" y="-84" font-family="Helvetica,sans-Serif" font-size="10.00">vehicle_control_unit</text>
<text text-anchor="middle" x="294.5" y="-73" font-family="Helvetica,sans-Serif" font-size="10.00">/lib/Scheduler/Scheduler.tpp</text>
</a>
</g>
</g>
<!-- Node1&#45;&gt;Node5 -->
<g id="edge4" class="edge">
<title>Node1&#45;&gt;Node5</title>
<path fill="none" stroke="#63b8ff" d="M254.28,-123.53C261.14,-114.43 269.71,-104.19 277.28,-96.16"/>
<polygon fill="#63b8ff" stroke="#63b8ff" points="251.33,-121.64 248.32,-131.8 257.01,-125.73 251.33,-121.64"/>
</g>
<!-- Node3 -->
<g id="node3" class="node">
<title>Node3</title>
<g id="a_node3"><a xlink:href="BMS_8cpp.html" target="_top" xlink:title="Implementation of the BMS class for managing the Accumulator (Kclear BMS) via CAN bus.">
<polygon fill="white" stroke="#666666" points="115,-30 0,-30 0,0 115,0 115,-30"/>
<text text-anchor="start" x="8" y="-18" font-family="Helvetica,sans-Serif" font-size="10.00">vehicle_control_unit</text>
<text text-anchor="middle" x="57.5" y="-7" font-family="Helvetica,sans-Serif" font-size="10.00">/lib/BMS/BMS.cpp</text>
</a>
</g>
</g>
<!-- Node2&#45;&gt;Node3 -->
<g id="edge2" class="edge">
<title>Node2&#45;&gt;Node3</title>
<path fill="none" stroke="#63b8ff" d="M88,-57.53C81.31,-48.43 73.8,-38.19 67.9,-30.16"/>
<polygon fill="#63b8ff" stroke="#63b8ff" points="85.33,-59.81 94.07,-65.8 90.97,-55.66 85.33,-59.81"/>
</g>
<!-- Node2&#45;&gt;Node4 -->
<g id="edge3" class="edge">
<title>Node2&#45;&gt;Node4</title>
<path fill="none" stroke="#63b8ff" d="M131.71,-59.75C144.64,-50.13 159.79,-38.86 171.47,-30.16"/>
<polygon fill="#63b8ff" stroke="#63b8ff" points="129.52,-57.02 123.59,-65.8 133.7,-62.63 129.52,-57.02"/>
</g>
<!-- Node5&#45;&gt;Node1 -->
<g id="edge5" class="edge">
<title>Node5&#45;&gt;Node1</title>
<path fill="none" stroke="#63b8ff" d="M282.75,-104.43C275.9,-113.53 267.33,-123.76 259.76,-131.8"/>
<polygon fill="#63b8ff" stroke="#63b8ff" points="285.7,-106.32 288.71,-96.16 280.02,-102.23 285.7,-106.32"/>
</g>
</g>
</svg>
