<?xml version="1.0" encoding="UTF-8" standalone="no"?>
<!DOCTYPE svg PUBLIC "-//W3C//DTD SVG 1.1//EN"
 "http://www.w3.org/Graphics/SVG/1.1/DTD/svg11.dtd">
<!-- Generated by graphviz version 2.43.0 (0)
 -->
<!-- Title: vehicle_control_unit/lib/Scheduler/Scheduler.tpp Pages: 1 -->
<svg width="256pt" height="236pt"
 viewBox="0.00 0.00 256.00 236.00" xmlns="http://www.w3.org/2000/svg" xmlns:xlink="http://www.w3.org/1999/xlink">
<g id="graph0" class="graph" transform="scale(1 1) rotate(0) translate(4 232)">
<title>vehicle_control_unit/lib/Scheduler/Scheduler.tpp</title>
<!-- Node1 -->
<g id="node1" class="node">
<title>Node1</title>
<g id="a_node1"><a xlink:title="Implementation of the Scheduler class template.">
<polygon fill="#999999" stroke="#666666" points="223.5,-228 71.5,-228 71.5,-198 223.5,-198 223.5,-228"/>
<text text-anchor="start" x="79.5" y="-216" font-family="Helvetica,sans-Serif" font-size="10.00">vehicle_control_unit</text>
<text text-anchor="middle" x="147.5" y="-205" font-family="Helvetica,sans-Serif" font-size="10.00">/lib/Scheduler/Scheduler.tpp</text>
</a>
</g>
</g>
<!-- Node2 -->
<g id="node2" class="node">
<title>Node2</title>
<g id="a_node2"><a xlink:href="Scheduler_8hpp.html" target="_top" xlink:title="Declaration of the Scheduler class template, for scheduling tasks on multiple MCP2515 instances.">
<polygon fill="white" stroke="#666666" points="224.5,-162 70.5,-162 70.5,-132 224.5,-132 224.5,-162"/>
<text text-anchor="start" x="78.5" y="-150" font-family="Helvetica,sans-Serif" font-size="10.00">vehicle_control_unit</text>
<text text-anchor="middle" x="147.5" y="-139" font-family="Helvetica,sans-Serif" font-size="10.00">/lib/Scheduler/Scheduler.hpp</text>
</a>
</g>
</g>
<!-- Node1&#45;&gt;Node2 -->
<g id="edge1" class="edge">
<title>Node1&#45;&gt;Node2</title>
<path fill="none" stroke="#63b8ff" d="M140.93,-187.83C140.52,-179.17 140.81,-169.7 141.79,-162.16"/>
<polygon fill="#63b8ff" stroke="#63b8ff" points="137.45,-188.13 141.78,-197.8 144.42,-187.54 137.45,-188.13"/>
</g>
<!-- Node2&#45;&gt;Node1 -->
<g id="edge5" class="edge">
<title>Node2&#45;&gt;Node1</title>
<path fill="none" stroke="#63b8ff" d="M154.07,-172.13C154.48,-180.78 154.2,-190.26 153.22,-197.8"/>
<polygon fill="#63b8ff" stroke="#63b8ff" points="157.55,-171.83 153.21,-162.16 150.58,-172.43 157.55,-171.83"/>
</g>
<!-- Node3 -->
<g id="node3" class="node">
<title>Node3</title>
<g id="a_node3"><a xlink:href="BMS_8hpp.html" target="_top" xlink:title="Declaration of the BMS class for managing the Accumulator (Kclear BMS) via CAN bus.">
<polygon fill="white" stroke="#666666" points="162,-96 47,-96 47,-66 162,-66 162,-96"/>
<text text-anchor="start" x="55" y="-84" font-family="Helvetica,sans-Serif" font-size="10.00">vehicle_control_unit</text>
<text text-anchor="middle" x="104.5" y="-73" font-family="Helvetica,sans-Serif" font-size="10.00">/lib/BMS/BMS.hpp</text>
</a>
</g>
</g>
<!-- Node2&#45;&gt;Node3 -->
<g id="edge2" class="edge">
<title>Node2&#45;&gt;Node3</title>
<path fill="none" stroke="#63b8ff" d="M132.21,-123.24C126.14,-114.21 119.36,-104.11 114.02,-96.16"/>
<polygon fill="#63b8ff" stroke="#63b8ff" points="129.47,-125.45 137.96,-131.8 135.29,-121.54 129.47,-125.45"/>
</g>
<!-- Node5 -->
<g id="node5" class="node">
<title>Node5</title>
<g id="a_node5"><a xlink:href="main_8cpp.html" target="_top" xlink:title="Main VCU program entry point.">
<polygon fill="white" stroke="#666666" points="248,-30 133,-30 133,0 248,0 248,-30"/>
<text text-anchor="start" x="141" y="-18" font-family="Helvetica,sans-Serif" font-size="10.00">vehicle_control_unit</text>
<text text-anchor="middle" x="190.5" y="-7" font-family="Helvetica,sans-Serif" font-size="10.00">/src/main.cpp</text>
</a>
</g>
</g>
<!-- Node2&#45;&gt;Node5 -->
<g id="edge6" class="edge">
<title>Node2&#45;&gt;Node5</title>
<path fill="none" stroke="#63b8ff" d="M159.89,-122.84C163.99,-114.54 168.31,-105 171.5,-96 179.46,-73.53 185.12,-46.33 188.09,-30.14"/>
<polygon fill="#63b8ff" stroke="#63b8ff" points="156.69,-121.41 155.27,-131.91 162.93,-124.59 156.69,-121.41"/>
</g>
<!-- Node4 -->
<g id="node4" class="node">
<title>Node4</title>
<g id="a_node4"><a xlink:href="BMS_8cpp.html" target="_top" xlink:title="Implementation of the BMS class for managing the Accumulator (Kclear BMS) via CAN bus.">
<polygon fill="white" stroke="#666666" points="115,-30 0,-30 0,0 115,0 115,-30"/>
<text text-anchor="start" x="8" y="-18" font-family="Helvetica,sans-Serif" font-size="10.00">vehicle_control_unit</text>
<text text-anchor="middle" x="57.5" y="-7" font-family="Helvetica,sans-Serif" font-size="10.00">/lib/BMS/BMS.cpp</text>
</a>
</g>
</g>
<!-- Node3&#45;&gt;Node4 -->
<g id="edge3" class="edge">
<title>Node3&#45;&gt;Node4</title>
<path fill="none" stroke="#63b8ff" d="M88,-57.53C81.31,-48.43 73.8,-38.19 67.9,-30.16"/>
<polygon fill="#63b8ff" stroke="#63b8ff" points="85.33,-59.81 94.07,-65.8 90.97,-55.66 85.33,-59.81"/>
</g>
<!-- Node3&#45;&gt;Node5 -->
<g id="edge4" class="edge">
<title>Node3&#45;&gt;Node5</title>
<path fill="none" stroke="#63b8ff" d="M131.71,-59.75C144.64,-50.13 159.79,-38.86 171.47,-30.16"/>
<polygon fill="#63b8ff" stroke="#63b8ff" points="129.52,-57.02 123.59,-65.8 133.7,-62.63 129.52,-57.02"/>
</g>
</g>
</svg>
