<?xml version="1.0" encoding="UTF-8" standalone="no"?>
<!DOCTYPE svg PUBLIC "-//W3C//DTD SVG 1.1//EN"
 "http://www.w3.org/Graphics/SVG/1.1/DTD/svg11.dtd">
<!-- Generated by graphviz version 2.43.0 (0)
 -->
<!-- Title: lib/Scheduler/Scheduler.tpp Pages: 1 -->
<svg width="174pt" height="137pt"
 viewBox="0.00 0.00 174.00 137.00" xmlns="http://www.w3.org/2000/svg" xmlns:xlink="http://www.w3.org/1999/xlink">
<g id="graph0" class="graph" transform="scale(1 1) rotate(0) translate(4 133)">
<title>lib/Scheduler/Scheduler.tpp</title>
<!-- Node1 -->
<g id="node1" class="node">
<title>Node1</title>
<g id="a_node1"><a xlink:title="Implementation of the Scheduler class template.">
<polygon fill="#999999" stroke="#666666" points="149,-129 0,-129 0,-110 149,-110 149,-129"/>
<text text-anchor="middle" x="74.5" y="-117" font-family="Helvetica,sans-Serif" font-size="10.00">lib/Scheduler/Scheduler.tpp</text>
</a>
</g>
</g>
<!-- Node2 -->
<g id="node2" class="node">
<title>Node2</title>
<g id="a_node2"><a xlink:href="Enums_8h.html" target="_top" xlink:title="Enumeration definitions for the VCU.">
<polygon fill="white" stroke="#666666" points="62,-19 3,-19 3,0 62,0 62,-19"/>
<text text-anchor="middle" x="32.5" y="-7" font-family="Helvetica,sans-Serif" font-size="10.00">Enums.h</text>
</a>
</g>
</g>
<!-- Node1&#45;&gt;Node2 -->
<g id="edge1" class="edge">
<title>Node1&#45;&gt;Node2</title>
<path fill="none" stroke="#63b8ff" d="M58.47,-109.95C46.09,-102.35 29.85,-89.97 22.5,-74 15.87,-59.6 19.68,-41.63 24.38,-28.49"/>
<polygon fill="#63b8ff" stroke="#63b8ff" points="27.65,-29.72 28.16,-19.14 21.16,-27.1 27.65,-29.72"/>
</g>
<!-- Node3 -->
<g id="node3" class="node">
<title>Node3</title>
<g id="a_node3"><a xlink:title=" ">
<polygon fill="#e0e0e0" stroke="#999999" points="166,-19 95,-19 95,0 166,0 166,-19"/>
<text text-anchor="middle" x="130.5" y="-7" font-family="Helvetica,sans-Serif" font-size="10.00">mcp2515.h</text>
</a>
</g>
</g>
<!-- Node1&#45;&gt;Node3 -->
<g id="edge2" class="edge">
<title>Node1&#45;&gt;Node3</title>
<path fill="none" stroke="#63b8ff" d="M90.26,-109.82C102.49,-102.15 118.65,-89.73 126.5,-74 133.37,-60.24 133.95,-42.67 133.05,-29.5"/>
<polygon fill="#63b8ff" stroke="#63b8ff" points="136.5,-28.85 132,-19.26 129.54,-29.57 136.5,-28.85"/>
</g>
<!-- Node4 -->
<g id="node4" class="node">
<title>Node4</title>
<g id="a_node4"><a xlink:href="Scheduler_8hpp.html" target="_top" xlink:title="Declaration of the Scheduler class template, for scheduling tasks on multiple MCP2515 instances.">
<polygon fill="white" stroke="#666666" points="117,-74 32,-74 32,-55 117,-55 117,-74"/>
<text text-anchor="middle" x="74.5" y="-62" font-family="Helvetica,sans-Serif" font-size="10.00">Scheduler.hpp</text>
</a>
</g>
</g>
<!-- Node1&#45;&gt;Node4 -->
<g id="edge3" class="edge">
<title>Node1&#45;&gt;Node4</title>
<path fill="none" stroke="#63b8ff" d="M69.33,-109.75C67.84,-102.8 67.4,-92.85 68.02,-84.13"/>
<polygon fill="#63b8ff" stroke="#63b8ff" points="71.51,-84.47 69.37,-74.09 64.57,-83.53 71.51,-84.47"/>
</g>
<!-- Node4&#45;&gt;Node1 -->
<g id="edge6" class="edge">
<title>Node4&#45;&gt;Node1</title>
<path fill="none" stroke="#63b8ff" d="M79.63,-74.09C81.14,-80.99 81.59,-90.93 80.99,-99.66"/>
<polygon fill="#63b8ff" stroke="#63b8ff" points="77.5,-99.38 79.67,-109.75 84.44,-100.29 77.5,-99.38"/>
</g>
<!-- Node4&#45;&gt;Node2 -->
<g id="edge4" class="edge">
<title>Node4&#45;&gt;Node2</title>
<path fill="none" stroke="#63b8ff" d="M67.56,-54.75C61.63,-47.26 52.93,-36.28 45.68,-27.13"/>
<polygon fill="#63b8ff" stroke="#63b8ff" points="48.26,-24.75 39.31,-19.09 42.77,-29.1 48.26,-24.75"/>
</g>
<!-- Node4&#45;&gt;Node3 -->
<g id="edge5" class="edge">
<title>Node4&#45;&gt;Node3</title>
<path fill="none" stroke="#63b8ff" d="M83.5,-54.98C91.69,-47.23 104.01,-35.58 113.97,-26.14"/>
<polygon fill="#63b8ff" stroke="#63b8ff" points="116.48,-28.59 121.34,-19.17 111.67,-23.5 116.48,-28.59"/>
</g>
</g>
</svg>
