<?xml version="1.0" encoding="UTF-8" standalone="no"?>
<!DOCTYPE svg PUBLIC "-//W3C//DTD SVG 1.1//EN"
 "http://www.w3.org/Graphics/SVG/1.1/DTD/svg11.dtd">
<!-- Generated by graphviz version 2.43.0 (0)
 -->
<!-- Title: lib/Scheduler/Scheduler.tpp Pages: 1 -->
<svg width="205pt" height="192pt"
 viewBox="0.00 0.00 205.00 192.00" xmlns="http://www.w3.org/2000/svg" xmlns:xlink="http://www.w3.org/1999/xlink">
<g id="graph0" class="graph" transform="scale(1 1) rotate(0) translate(4 188)">
<title>lib/Scheduler/Scheduler.tpp</title>
<!-- Node1 -->
<g id="node1" class="node">
<title>Node1</title>
<g id="a_node1"><a xlink:title="Implementation of the Scheduler class template.">
<polygon fill="#999999" stroke="#666666" points="179,-184 30,-184 30,-165 179,-165 179,-184"/>
<text text-anchor="middle" x="104.5" y="-172" font-family="Helvetica,sans-Serif" font-size="10.00">lib/Scheduler/Scheduler.tpp</text>
</a>
</g>
</g>
<!-- Node2 -->
<g id="node2" class="node">
<title>Node2</title>
<g id="a_node2"><a xlink:href="Enums_8hpp.html" target="_top" xlink:title=" ">
<polygon fill="white" stroke="#666666" points="95,-74 24,-74 24,-55 95,-55 95,-74"/>
<text text-anchor="middle" x="59.5" y="-62" font-family="Helvetica,sans-Serif" font-size="10.00">Enums.hpp</text>
</a>
</g>
</g>
<!-- Node1&#45;&gt;Node2 -->
<g id="edge1" class="edge">
<title>Node1&#45;&gt;Node2</title>
<path fill="none" stroke="#63b8ff" d="M88.47,-164.95C76.09,-157.35 59.85,-144.97 52.5,-129 45.98,-114.83 48.73,-97.07 52.54,-83.94"/>
<polygon fill="#63b8ff" stroke="#63b8ff" points="55.95,-84.77 55.81,-74.17 49.32,-82.54 55.95,-84.77"/>
</g>
<!-- Node5 -->
<g id="node5" class="node">
<title>Node5</title>
<g id="a_node5"><a xlink:title=" ">
<polygon fill="#e0e0e0" stroke="#999999" points="197,-74 126,-74 126,-55 197,-55 197,-74"/>
<text text-anchor="middle" x="161.5" y="-62" font-family="Helvetica,sans-Serif" font-size="10.00">mcp2515.h</text>
</a>
</g>
</g>
<!-- Node1&#45;&gt;Node5 -->
<g id="edge4" class="edge">
<title>Node1&#45;&gt;Node5</title>
<path fill="none" stroke="#63b8ff" d="M120.2,-164.79C132.39,-157.1 148.52,-144.67 156.5,-129 163.48,-115.28 164.35,-97.7 163.69,-84.52"/>
<polygon fill="#63b8ff" stroke="#63b8ff" points="167.15,-83.95 162.83,-74.28 160.18,-84.53 167.15,-83.95"/>
</g>
<!-- Node6 -->
<g id="node6" class="node">
<title>Node6</title>
<g id="a_node6"><a xlink:href="Scheduler_8hpp.html" target="_top" xlink:title="Declaration of the Scheduler class template, for scheduling tasks on multiple MCP2515 instances.">
<polygon fill="white" stroke="#666666" points="147,-129 62,-129 62,-110 147,-110 147,-129"/>
<text text-anchor="middle" x="104.5" y="-117" font-family="Helvetica,sans-Serif" font-size="10.00">Scheduler.hpp</text>
</a>
</g>
</g>
<!-- Node1&#45;&gt;Node6 -->
<g id="edge5" class="edge">
<title>Node1&#45;&gt;Node6</title>
<path fill="none" stroke="#63b8ff" d="M99.33,-164.75C97.84,-157.8 97.4,-147.85 98.02,-139.13"/>
<polygon fill="#63b8ff" stroke="#63b8ff" points="101.51,-139.47 99.37,-129.09 94.57,-138.53 101.51,-139.47"/>
</g>
<!-- Node3 -->
<g id="node3" class="node">
<title>Node3</title>
<g id="a_node3"><a xlink:title=" ">
<polygon fill="#e0e0e0" stroke="#999999" points="53,-19 0,-19 0,0 53,0 53,-19"/>
<text text-anchor="middle" x="26.5" y="-7" font-family="Helvetica,sans-Serif" font-size="10.00">stdint.h</text>
</a>
</g>
</g>
<!-- Node2&#45;&gt;Node3 -->
<g id="edge2" class="edge">
<title>Node2&#45;&gt;Node3</title>
<path fill="none" stroke="#63b8ff" d="M54.05,-54.75C49.49,-47.42 42.83,-36.73 37.21,-27.7"/>
<polygon fill="#63b8ff" stroke="#63b8ff" points="40.1,-25.73 31.85,-19.09 34.16,-29.43 40.1,-25.73"/>
</g>
<!-- Node4 -->
<g id="node4" class="node">
<title>Node4</title>
<g id="a_node4"><a xlink:title=" ">
<polygon fill="#e0e0e0" stroke="#999999" points="114,-19 71,-19 71,0 114,0 114,-19"/>
<text text-anchor="middle" x="92.5" y="-7" font-family="Helvetica,sans-Serif" font-size="10.00">can.h</text>
</a>
</g>
</g>
<!-- Node2&#45;&gt;Node4 -->
<g id="edge3" class="edge">
<title>Node2&#45;&gt;Node4</title>
<path fill="none" stroke="#63b8ff" d="M64.95,-54.75C69.51,-47.42 76.17,-36.73 81.79,-27.7"/>
<polygon fill="#63b8ff" stroke="#63b8ff" points="84.84,-29.43 87.15,-19.09 78.9,-25.73 84.84,-29.43"/>
</g>
<!-- Node6&#45;&gt;Node1 -->
<g id="edge8" class="edge">
<title>Node6&#45;&gt;Node1</title>
<path fill="none" stroke="#63b8ff" d="M109.63,-129.09C111.14,-135.99 111.59,-145.93 110.99,-154.66"/>
<polygon fill="#63b8ff" stroke="#63b8ff" points="107.5,-154.38 109.67,-164.75 114.44,-155.29 107.5,-154.38"/>
</g>
<!-- Node6&#45;&gt;Node2 -->
<g id="edge6" class="edge">
<title>Node6&#45;&gt;Node2</title>
<path fill="none" stroke="#63b8ff" d="M97.07,-109.75C90.65,-102.18 81.19,-91.05 73.38,-81.84"/>
<polygon fill="#63b8ff" stroke="#63b8ff" points="75.93,-79.45 66.79,-74.09 70.6,-83.98 75.93,-79.45"/>
</g>
<!-- Node6&#45;&gt;Node5 -->
<g id="edge7" class="edge">
<title>Node6&#45;&gt;Node5</title>
<path fill="none" stroke="#63b8ff" d="M113.66,-109.98C122,-102.23 134.53,-90.58 144.68,-81.14"/>
<polygon fill="#63b8ff" stroke="#63b8ff" points="147.24,-83.54 152.18,-74.17 142.47,-78.42 147.24,-83.54"/>
</g>
</g>
</svg>
