<?xml version="1.0" encoding="UTF-8" standalone="no"?>
<!DOCTYPE svg PUBLIC "-//W3C//DTD SVG 1.1//EN"
 "http://www.w3.org/Graphics/SVG/1.1/DTD/svg11.dtd">
<!-- Generated by graphviz version 2.43.0 (0)
 -->
<!-- Title: lib/Scheduler/Scheduler.tpp Pages: 1 -->
<svg width="157pt" height="137pt"
 viewBox="0.00 0.00 157.00 137.00" xmlns="http://www.w3.org/2000/svg" xmlns:xlink="http://www.w3.org/1999/xlink">
<g id="graph0" class="graph" transform="scale(1 1) rotate(0) translate(4 133)">
<title>lib/Scheduler/Scheduler.tpp</title>
<!-- Node1 -->
<g id="node1" class="node">
<title>Node1</title>
<g id="a_node1"><a xlink:title="Implementation of the Scheduler class template.">
<polygon fill="#999999" stroke="#666666" points="149,-129 0,-129 0,-110 149,-110 149,-129"/>
<text text-anchor="middle" x="74.5" y="-117" font-family="Helvetica,sans-Serif" font-size="10.00">lib/Scheduler/Scheduler.tpp</text>
</a>
</g>
</g>
<!-- Node2 -->
<g id="node2" class="node">
<title>Node2</title>
<g id="a_node2"><a xlink:title=" ">
<polygon fill="#e0e0e0" stroke="#999999" points="74,-19 3,-19 3,0 74,0 74,-19"/>
<text text-anchor="middle" x="38.5" y="-7" font-family="Helvetica,sans-Serif" font-size="10.00">mcp2515.h</text>
</a>
</g>
</g>
<!-- Node1&#45;&gt;Node2 -->
<g id="edge1" class="edge">
<title>Node1&#45;&gt;Node2</title>
<path fill="none" stroke="#63b8ff" d="M58.47,-109.95C46.09,-102.35 29.85,-89.97 22.5,-74 15.68,-59.19 21.53,-41.04 27.98,-27.94"/>
<polygon fill="#63b8ff" stroke="#63b8ff" points="31.12,-29.51 32.84,-19.05 24.98,-26.15 31.12,-29.51"/>
</g>
<!-- Node3 -->
<g id="node3" class="node">
<title>Node3</title>
<g id="a_node3"><a xlink:href="Scheduler_8hpp.html" target="_top" xlink:title="Declaration of the Scheduler class template, for scheduling tasks on multiple MCP2515 instances.">
<polygon fill="white" stroke="#666666" points="117,-74 32,-74 32,-55 117,-55 117,-74"/>
<text text-anchor="middle" x="74.5" y="-62" font-family="Helvetica,sans-Serif" font-size="10.00">Scheduler.hpp</text>
</a>
</g>
</g>
<!-- Node1&#45;&gt;Node3 -->
<g id="edge2" class="edge">
<title>Node1&#45;&gt;Node3</title>
<path fill="none" stroke="#63b8ff" d="M69.33,-109.75C67.84,-102.8 67.4,-92.85 68.02,-84.13"/>
<polygon fill="#63b8ff" stroke="#63b8ff" points="71.51,-84.47 69.37,-74.09 64.57,-83.53 71.51,-84.47"/>
</g>
<!-- Node3&#45;&gt;Node1 -->
<g id="edge4" class="edge">
<title>Node3&#45;&gt;Node1</title>
<path fill="none" stroke="#63b8ff" d="M79.63,-74.09C81.14,-80.99 81.59,-90.93 80.99,-99.66"/>
<polygon fill="#63b8ff" stroke="#63b8ff" points="77.5,-99.38 79.67,-109.75 84.44,-100.29 77.5,-99.38"/>
</g>
<!-- Node3&#45;&gt;Node2 -->
<g id="edge3" class="edge">
<title>Node3&#45;&gt;Node2</title>
<path fill="none" stroke="#63b8ff" d="M68.56,-54.75C63.52,-47.34 56.16,-36.5 49.99,-27.41"/>
<polygon fill="#63b8ff" stroke="#63b8ff" points="52.85,-25.39 44.33,-19.09 47.06,-29.33 52.85,-25.39"/>
</g>
</g>
</svg>
