<?xml version="1.0" encoding="UTF-8" standalone="no"?>
<!DOCTYPE svg PUBLIC "-//W3C//DTD SVG 1.1//EN"
 "http://www.w3.org/Graphics/SVG/1.1/DTD/svg11.dtd">
<!-- Generated by graphviz version 2.43.0 (0)
 -->
<!-- Title: lib/Scheduler/Scheduler.hpp Pages: 1 -->
<svg width="174pt" height="137pt"
 viewBox="0.00 0.00 174.00 137.00" xmlns="http://www.w3.org/2000/svg" xmlns:xlink="http://www.w3.org/1999/xlink">
<g id="graph0" class="graph" transform="scale(1 1) rotate(0) translate(4 133)">
<title>lib/Scheduler/Scheduler.hpp</title>
<!-- Node1 -->
<g id="node1" class="node">
<title>Node1</title>
<g id="a_node1"><a xlink:title="Declaration of the Scheduler class template, for scheduling tasks on multiple MCP2515 instances.">
<polygon fill="#999999" stroke="#666666" points="151,-129 0,-129 0,-110 151,-110 151,-129"/>
<text text-anchor="middle" x="75.5" y="-117" font-family="Helvetica,sans-Serif" font-size="10.00">lib/Scheduler/Scheduler.hpp</text>
</a>
</g>
</g>
<!-- Node2 -->
<g id="node2" class="node">
<title>Node2</title>
<g id="a_node2"><a xlink:href="Enums_8h.html" target="_top" xlink:title="Enumeration definitions for the VCU.">
<polygon fill="white" stroke="#666666" points="63,-19 4,-19 4,0 63,0 63,-19"/>
<text text-anchor="middle" x="33.5" y="-7" font-family="Helvetica,sans-Serif" font-size="10.00">Enums.h</text>
</a>
</g>
</g>
<!-- Node1&#45;&gt;Node2 -->
<g id="edge1" class="edge">
<title>Node1&#45;&gt;Node2</title>
<path fill="none" stroke="#63b8ff" d="M59.77,-109.88C47.62,-102.23 31.7,-89.83 24.5,-74 17.96,-59.6 21.44,-41.64 25.85,-28.49"/>
<polygon fill="#63b8ff" stroke="#63b8ff" points="29.12,-29.73 29.4,-19.14 22.57,-27.25 29.12,-29.73"/>
</g>
<!-- Node3 -->
<g id="node3" class="node">
<title>Node3</title>
<g id="a_node3"><a xlink:title=" ">
<polygon fill="#e0e0e0" stroke="#999999" points="166,-19 95,-19 95,0 166,0 166,-19"/>
<text text-anchor="middle" x="130.5" y="-7" font-family="Helvetica,sans-Serif" font-size="10.00">mcp2515.h</text>
</a>
</g>
</g>
<!-- Node1&#45;&gt;Node3 -->
<g id="edge2" class="edge">
<title>Node1&#45;&gt;Node3</title>
<path fill="none" stroke="#63b8ff" d="M90.97,-109.75C102.96,-102.03 118.81,-89.6 126.5,-74 133.3,-60.21 133.89,-42.64 133.01,-29.48"/>
<polygon fill="#63b8ff" stroke="#63b8ff" points="136.46,-28.85 131.98,-19.25 129.5,-29.55 136.46,-28.85"/>
</g>
<!-- Node4 -->
<g id="node4" class="node">
<title>Node4</title>
<g id="a_node4"><a xlink:href="Scheduler_8tpp.html" target="_top" xlink:title="Implementation of the Scheduler class template.">
<polygon fill="white" stroke="#666666" points="117,-74 34,-74 34,-55 117,-55 117,-74"/>
<text text-anchor="middle" x="75.5" y="-62" font-family="Helvetica,sans-Serif" font-size="10.00">Scheduler.tpp</text>
</a>
</g>
</g>
<!-- Node1&#45;&gt;Node4 -->
<g id="edge3" class="edge">
<title>Node1&#45;&gt;Node4</title>
<path fill="none" stroke="#63b8ff" d="M70.33,-109.75C68.84,-102.8 68.4,-92.85 69.02,-84.13"/>
<polygon fill="#63b8ff" stroke="#63b8ff" points="72.51,-84.47 70.37,-74.09 65.57,-83.53 72.51,-84.47"/>
</g>
<!-- Node4&#45;&gt;Node1 -->
<g id="edge6" class="edge">
<title>Node4&#45;&gt;Node1</title>
<path fill="none" stroke="#63b8ff" d="M80.63,-74.09C82.14,-80.99 82.59,-90.93 81.99,-99.66"/>
<polygon fill="#63b8ff" stroke="#63b8ff" points="78.5,-99.38 80.67,-109.75 85.44,-100.29 78.5,-99.38"/>
</g>
<!-- Node4&#45;&gt;Node2 -->
<g id="edge4" class="edge">
<title>Node4&#45;&gt;Node2</title>
<path fill="none" stroke="#63b8ff" d="M68.56,-54.75C62.63,-47.26 53.93,-36.28 46.68,-27.13"/>
<polygon fill="#63b8ff" stroke="#63b8ff" points="49.26,-24.75 40.31,-19.09 43.77,-29.1 49.26,-24.75"/>
</g>
<!-- Node4&#45;&gt;Node3 -->
<g id="edge5" class="edge">
<title>Node4&#45;&gt;Node3</title>
<path fill="none" stroke="#63b8ff" d="M84.58,-54.75C92.59,-47.03 104.46,-35.6 114.12,-26.28"/>
<polygon fill="#63b8ff" stroke="#63b8ff" points="116.81,-28.55 121.59,-19.09 111.96,-23.51 116.81,-28.55"/>
</g>
</g>
</svg>
