<?xml version="1.0" encoding="UTF-8" standalone="no"?>
<!DOCTYPE svg PUBLIC "-//W3C//DTD SVG 1.1//EN"
 "http://www.w3.org/Graphics/SVG/1.1/DTD/svg11.dtd">
<!-- Generated by graphviz version 2.43.0 (0)
 -->
<!-- Title: lib/Signal_Processing/Signal_Processing.tpp Pages: 1 -->
<svg width="134pt" height="148pt"
 viewBox="0.00 0.00 134.00 148.00" xmlns="http://www.w3.org/2000/svg" xmlns:xlink="http://www.w3.org/1999/xlink">
<g id="graph0" class="graph" transform="scale(1 1) rotate(0) translate(4 144)">
<title>lib/Signal_Processing/Signal_Processing.tpp</title>
<!-- Node1 -->
<g id="node1" class="node">
<title>Node1</title>
<g id="a_node1"><a xlink:title=" ">
<polygon fill="#999999" stroke="#666666" points="126,-140 0,-140 0,-110 126,-110 126,-140"/>
<text text-anchor="start" x="8" y="-128" font-family="Helvetica,sans-Serif" font-size="10.00">lib/Signal_Processing</text>
<text text-anchor="middle" x="63" y="-117" font-family="Helvetica,sans-Serif" font-size="10.00">/Signal_Processing.tpp</text>
</a>
</g>
</g>
<!-- Node2 -->
<g id="node2" class="node">
<title>Node2</title>
<g id="a_node2"><a xlink:href="Signal__Processing_8hpp.html" target="_top" xlink:title=" ">
<polygon fill="white" stroke="#666666" points="125.5,-74 0.5,-74 0.5,-55 125.5,-55 125.5,-74"/>
<text text-anchor="middle" x="63" y="-62" font-family="Helvetica,sans-Serif" font-size="10.00">Signal_Processing.hpp</text>
</a>
</g>
</g>
<!-- Node1&#45;&gt;Node2 -->
<g id="edge1" class="edge">
<title>Node1&#45;&gt;Node2</title>
<path fill="none" stroke="#63b8ff" d="M57.12,-109.84C56.15,-102.21 55.99,-92.7 56.64,-84.45"/>
<polygon fill="#63b8ff" stroke="#63b8ff" points="60.14,-84.65 58.02,-74.27 53.21,-83.71 60.14,-84.65"/>
</g>
<!-- Node2&#45;&gt;Node1 -->
<g id="edge3" class="edge">
<title>Node2&#45;&gt;Node1</title>
<path fill="none" stroke="#63b8ff" d="M67.98,-74.27C69.42,-81.03 69.98,-90.72 69.66,-99.75"/>
<polygon fill="#63b8ff" stroke="#63b8ff" points="66.16,-99.6 68.88,-109.84 73.14,-100.14 66.16,-99.6"/>
</g>
<!-- Node3 -->
<g id="node3" class="node">
<title>Node3</title>
<g id="a_node3"><a xlink:title=" ">
<polygon fill="#e0e0e0" stroke="#999999" points="89.5,-19 36.5,-19 36.5,0 89.5,0 89.5,-19"/>
<text text-anchor="middle" x="63" y="-7" font-family="Helvetica,sans-Serif" font-size="10.00">stdint.h</text>
</a>
</g>
</g>
<!-- Node2&#45;&gt;Node3 -->
<g id="edge2" class="edge">
<title>Node2&#45;&gt;Node3</title>
<path fill="none" stroke="#63b8ff" d="M63,-54.75C63,-47.8 63,-37.85 63,-29.13"/>
<polygon fill="#63b8ff" stroke="#63b8ff" points="66.5,-29.09 63,-19.09 59.5,-29.09 66.5,-29.09"/>
</g>
</g>
</svg>
