<?xml version="1.0" encoding="UTF-8" standalone="no"?>
<!DOCTYPE svg PUBLIC "-//W3C//DTD SVG 1.1//EN"
 "http://www.w3.org/Graphics/SVG/1.1/DTD/svg11.dtd">
<!-- Generated by graphviz version 2.43.0 (0)
 -->
<!-- Title: vehicle_control_unit/lib/SignalProcessing/SignalProcessing.tpp Pages: 1 -->
<svg width="256pt" height="258pt"
 viewBox="0.00 0.00 256.00 258.00" xmlns="http://www.w3.org/2000/svg" xmlns:xlink="http://www.w3.org/1999/xlink">
<g id="graph0" class="graph" transform="scale(1 1) rotate(0) translate(4 254)">
<title>vehicle_control_unit/lib/SignalProcessing/SignalProcessing.tpp</title>
<!-- Node1 -->
<g id="node1" class="node">
<title>Node1</title>
<g id="a_node1"><a xlink:title="Definition of Signal Processing functions.">
<polygon fill="#999999" stroke="#666666" points="161,-250 40,-250 40,-209 161,-209 161,-250"/>
<text text-anchor="start" x="48" y="-238" font-family="Helvetica,sans-Serif" font-size="10.00">vehicle_control_unit</text>
<text text-anchor="start" x="48" y="-227" font-family="Helvetica,sans-Serif" font-size="10.00">/lib/SignalProcessing</text>
<text text-anchor="middle" x="100.5" y="-216" font-family="Helvetica,sans-Serif" font-size="10.00">/SignalProcessing.tpp</text>
</a>
</g>
</g>
<!-- Node2 -->
<g id="node2" class="node">
<title>Node2</title>
<g id="a_node2"><a xlink:href="SignalProcessing_8hpp.html" target="_top" xlink:title="Declaration of signal processing functions.">
<polygon fill="white" stroke="#666666" points="162,-173 39,-173 39,-132 162,-132 162,-173"/>
<text text-anchor="start" x="47" y="-161" font-family="Helvetica,sans-Serif" font-size="10.00">vehicle_control_unit</text>
<text text-anchor="start" x="47" y="-150" font-family="Helvetica,sans-Serif" font-size="10.00">/lib/SignalProcessing</text>
<text text-anchor="middle" x="100.5" y="-139" font-family="Helvetica,sans-Serif" font-size="10.00">/SignalProcessing.hpp</text>
</a>
</g>
</g>
<!-- Node1&#45;&gt;Node2 -->
<g id="edge1" class="edge">
<title>Node1&#45;&gt;Node2</title>
<path fill="none" stroke="#63b8ff" d="M93.88,-198.69C93.59,-190.08 93.79,-180.9 94.49,-173.07"/>
<polygon fill="#63b8ff" stroke="#63b8ff" points="90.39,-199.02 94.48,-208.79 97.38,-198.6 90.39,-199.02"/>
</g>
<!-- Node2&#45;&gt;Node1 -->
<g id="edge6" class="edge">
<title>Node2&#45;&gt;Node1</title>
<path fill="none" stroke="#63b8ff" d="M107.12,-183.16C107.41,-191.77 107.21,-200.96 106.52,-208.79"/>
<polygon fill="#63b8ff" stroke="#63b8ff" points="110.6,-182.85 106.51,-173.07 103.62,-183.27 110.6,-182.85"/>
</g>
<!-- Node3 -->
<g id="node3" class="node">
<title>Node3</title>
<g id="a_node3"><a xlink:href="Pedal_8cpp.html" target="_top" xlink:title="Implementation of the Pedal class for handling throttle pedal inputs.">
<polygon fill="white" stroke="#666666" points="115,-30 0,-30 0,0 115,0 115,-30"/>
<text text-anchor="start" x="8" y="-18" font-family="Helvetica,sans-Serif" font-size="10.00">vehicle_control_unit</text>
<text text-anchor="middle" x="57.5" y="-7" font-family="Helvetica,sans-Serif" font-size="10.00">/lib/Pedal/Pedal.cpp</text>
</a>
</g>
</g>
<!-- Node2&#45;&gt;Node3 -->
<g id="edge2" class="edge">
<title>Node2&#45;&gt;Node3</title>
<path fill="none" stroke="#63b8ff" d="M87.55,-122.54C84.03,-114.08 80.39,-104.76 77.5,-96 70,-73.3 63.78,-46.17 60.35,-30.05"/>
<polygon fill="#63b8ff" stroke="#63b8ff" points="84.44,-124.17 91.58,-131.99 90.88,-121.42 84.44,-124.17"/>
</g>
<!-- Node4 -->
<g id="node4" class="node">
<title>Node4</title>
<g id="a_node4"><a xlink:href="Pedal_8hpp.html" target="_top" xlink:title="Declaration of the Pedal class for handling throttle and brake pedal inputs.">
<polygon fill="white" stroke="#666666" points="201,-96 86,-96 86,-66 201,-66 201,-96"/>
<text text-anchor="start" x="94" y="-84" font-family="Helvetica,sans-Serif" font-size="10.00">vehicle_control_unit</text>
<text text-anchor="middle" x="143.5" y="-73" font-family="Helvetica,sans-Serif" font-size="10.00">/lib/Pedal/Pedal.hpp</text>
</a>
</g>
</g>
<!-- Node2&#45;&gt;Node4 -->
<g id="edge3" class="edge">
<title>Node2&#45;&gt;Node4</title>
<path fill="none" stroke="#63b8ff" d="M118.06,-123.11C123.84,-113.78 130,-103.82 134.81,-96.04"/>
<polygon fill="#63b8ff" stroke="#63b8ff" points="114.99,-121.42 112.71,-131.77 120.94,-125.11 114.99,-121.42"/>
</g>
<!-- Node4&#45;&gt;Node3 -->
<g id="edge4" class="edge">
<title>Node4&#45;&gt;Node3</title>
<path fill="none" stroke="#63b8ff" d="M116.29,-59.75C103.36,-50.13 88.21,-38.86 76.53,-30.16"/>
<polygon fill="#63b8ff" stroke="#63b8ff" points="114.3,-62.63 124.41,-65.8 118.48,-57.02 114.3,-62.63"/>
</g>
<!-- Node5 -->
<g id="node5" class="node">
<title>Node5</title>
<g id="a_node5"><a xlink:href="main_8cpp.html" target="_top" xlink:title="Main VCU program entry point.">
<polygon fill="white" stroke="#666666" points="248,-30 133,-30 133,0 248,0 248,-30"/>
<text text-anchor="start" x="141" y="-18" font-family="Helvetica,sans-Serif" font-size="10.00">vehicle_control_unit</text>
<text text-anchor="middle" x="190.5" y="-7" font-family="Helvetica,sans-Serif" font-size="10.00">/src/main.cpp</text>
</a>
</g>
</g>
<!-- Node4&#45;&gt;Node5 -->
<g id="edge5" class="edge">
<title>Node4&#45;&gt;Node5</title>
<path fill="none" stroke="#63b8ff" d="M160,-57.53C166.69,-48.43 174.2,-38.19 180.1,-30.16"/>
<polygon fill="#63b8ff" stroke="#63b8ff" points="157.03,-55.66 153.93,-65.8 162.67,-59.81 157.03,-55.66"/>
</g>
</g>
</svg>
