<?xml version="1.0" encoding="UTF-8" standalone="no"?>
<!DOCTYPE svg PUBLIC "-//W3C//DTD SVG 1.1//EN"
 "http://www.w3.org/Graphics/SVG/1.1/DTD/svg11.dtd">
<!-- Generated by graphviz version 2.43.0 (0)
 -->
<!-- Title: ee_sw_vcu_2025/lib/SignalProcessing/SignalProcessing.hpp Pages: 1 -->
<svg width="431pt" height="170pt"
 viewBox="0.00 0.00 431.00 170.00" xmlns="http://www.w3.org/2000/svg" xmlns:xlink="http://www.w3.org/1999/xlink">
<g id="graph0" class="graph" transform="scale(1 1) rotate(0) translate(4 166)">
<title>ee_sw_vcu_2025/lib/SignalProcessing/SignalProcessing.hpp</title>
<!-- Node1 -->
<g id="node1" class="node">
<title>Node1</title>
<g id="a_node1"><a xlink:title="Declaration of signal processing functions.">
<polygon fill="#999999" stroke="#666666" points="335.5,-162 126.5,-162 126.5,-132 335.5,-132 335.5,-162"/>
<text text-anchor="start" x="134.5" y="-150" font-family="Helvetica,sans-Serif" font-size="10.00">ee_sw_vcu_2025/lib</text>
<text text-anchor="middle" x="231" y="-139" font-family="Helvetica,sans-Serif" font-size="10.00">/SignalProcessing/SignalProcessing.hpp</text>
</a>
</g>
</g>
<!-- Node2 -->
<g id="node2" class="node">
<title>Node2</title>
<g id="a_node2"><a xlink:href="Pedal_8cpp.html" target="_top" xlink:title="Implementation of the Pedal class for handling throttle pedal inputs.">
<polygon fill="white" stroke="#666666" points="114,-30 0,-30 0,0 114,0 114,-30"/>
<text text-anchor="start" x="8" y="-18" font-family="Helvetica,sans-Serif" font-size="10.00">ee_sw_vcu_2025/lib</text>
<text text-anchor="middle" x="57" y="-7" font-family="Helvetica,sans-Serif" font-size="10.00">/Pedal/Pedal.cpp</text>
</a>
</g>
</g>
<!-- Node1&#45;&gt;Node2 -->
<g id="edge1" class="edge">
<title>Node1&#45;&gt;Node2</title>
<path fill="none" stroke="#63b8ff" d="M126.5,-128.51C107.62,-121.16 89.63,-110.74 76,-96 59.24,-77.86 56.45,-47.7 56.41,-30.06"/>
<polygon fill="#63b8ff" stroke="#63b8ff" points="125.54,-131.88 136.14,-131.97 127.91,-125.29 125.54,-131.88"/>
</g>
<!-- Node3 -->
<g id="node3" class="node">
<title>Node3</title>
<g id="a_node3"><a xlink:href="Pedal_8hpp.html" target="_top" xlink:title="Declaration of the Pedal class for handling throttle and brake pedal inputs.">
<polygon fill="white" stroke="#666666" points="199,-96 85,-96 85,-66 199,-66 199,-96"/>
<text text-anchor="start" x="93" y="-84" font-family="Helvetica,sans-Serif" font-size="10.00">ee_sw_vcu_2025/lib</text>
<text text-anchor="middle" x="142" y="-73" font-family="Helvetica,sans-Serif" font-size="10.00">/Pedal/Pedal.hpp</text>
</a>
</g>
</g>
<!-- Node1&#45;&gt;Node3 -->
<g id="edge2" class="edge">
<title>Node1&#45;&gt;Node3</title>
<path fill="none" stroke="#63b8ff" d="M202.84,-125.75C189.46,-116.13 173.78,-104.86 161.7,-96.16"/>
<polygon fill="#63b8ff" stroke="#63b8ff" points="201.09,-128.8 211.25,-131.8 205.17,-123.12 201.09,-128.8"/>
</g>
<!-- Node5 -->
<g id="node5" class="node">
<title>Node5</title>
<g id="a_node5"><a xlink:href="SignalProcessing_8tpp.html" target="_top" xlink:title="Definition of Signal Processing functions.">
<polygon fill="white" stroke="#666666" points="423,-96 217,-96 217,-66 423,-66 423,-96"/>
<text text-anchor="start" x="225" y="-84" font-family="Helvetica,sans-Serif" font-size="10.00">ee_sw_vcu_2025/lib</text>
<text text-anchor="middle" x="320" y="-73" font-family="Helvetica,sans-Serif" font-size="10.00">/SignalProcessing/SignalProcessing.tpp</text>
</a>
</g>
</g>
<!-- Node1&#45;&gt;Node5 -->
<g id="edge5" class="edge">
<title>Node1&#45;&gt;Node5</title>
<path fill="none" stroke="#63b8ff" d="M253.19,-125.48C265.79,-115.91 281.5,-104.77 294.59,-96.16"/>
<polygon fill="#63b8ff" stroke="#63b8ff" points="250.8,-122.91 245.03,-131.8 255.08,-128.44 250.8,-122.91"/>
</g>
<!-- Node3&#45;&gt;Node2 -->
<g id="edge3" class="edge">
<title>Node3&#45;&gt;Node2</title>
<path fill="none" stroke="#63b8ff" d="M115.11,-59.75C102.33,-50.13 87.36,-38.86 75.81,-30.16"/>
<polygon fill="#63b8ff" stroke="#63b8ff" points="113.04,-62.58 123.14,-65.8 117.25,-56.99 113.04,-62.58"/>
</g>
<!-- Node4 -->
<g id="node4" class="node">
<title>Node4</title>
<g id="a_node4"><a xlink:href="main_8cpp.html" target="_top" xlink:title="Main VCU program entry point.">
<polygon fill="white" stroke="#666666" points="248,-30 132,-30 132,0 248,0 248,-30"/>
<text text-anchor="start" x="140" y="-18" font-family="Helvetica,sans-Serif" font-size="10.00">ee_sw_vcu_2025/src</text>
<text text-anchor="middle" x="190" y="-7" font-family="Helvetica,sans-Serif" font-size="10.00">/main.cpp</text>
</a>
</g>
</g>
<!-- Node3&#45;&gt;Node4 -->
<g id="edge4" class="edge">
<title>Node3&#45;&gt;Node4</title>
<path fill="none" stroke="#63b8ff" d="M158.86,-57.53C165.68,-48.43 173.35,-38.19 179.38,-30.16"/>
<polygon fill="#63b8ff" stroke="#63b8ff" points="155.85,-55.7 152.65,-65.8 161.45,-59.9 155.85,-55.7"/>
</g>
<!-- Node5&#45;&gt;Node1 -->
<g id="edge6" class="edge">
<title>Node5&#45;&gt;Node1</title>
<path fill="none" stroke="#63b8ff" d="M297.87,-102.48C285.28,-112.04 269.57,-123.18 256.47,-131.8"/>
<polygon fill="#63b8ff" stroke="#63b8ff" points="300.26,-105.06 306.02,-96.16 295.97,-99.52 300.26,-105.06"/>
</g>
</g>
</svg>
