<?xml version="1.0" encoding="UTF-8" standalone="no"?>
<!DOCTYPE svg PUBLIC "-//W3C//DTD SVG 1.1//EN"
 "http://www.w3.org/Graphics/SVG/1.1/DTD/svg11.dtd">
<!-- Generated by graphviz version 2.43.0 (0)
 -->
<!-- Title: vehicle_control_unit/lib/SignalProcessing/SignalProcessing.hpp Pages: 1 -->
<svg width="200pt" height="104pt"
 viewBox="0.00 0.00 200.00 104.00" xmlns="http://www.w3.org/2000/svg" xmlns:xlink="http://www.w3.org/1999/xlink">
<g id="graph0" class="graph" transform="scale(1 1) rotate(0) translate(4 100)">
<title>vehicle_control_unit/lib/SignalProcessing/SignalProcessing.hpp</title>
<!-- Node1 -->
<g id="node1" class="node">
<title>Node1</title>
<g id="a_node1"><a xlink:title="Declaration of signal processing functions.">
<polygon fill="#999999" stroke="#666666" points="192,-96 69,-96 69,-55 192,-55 192,-96"/>
<text text-anchor="start" x="77" y="-84" font-family="Helvetica,sans-Serif" font-size="10.00">vehicle_control_unit</text>
<text text-anchor="start" x="77" y="-73" font-family="Helvetica,sans-Serif" font-size="10.00">/lib/SignalProcessing</text>
<text text-anchor="middle" x="130.5" y="-62" font-family="Helvetica,sans-Serif" font-size="10.00">/SignalProcessing.hpp</text>
</a>
</g>
</g>
<!-- Node2 -->
<g id="node2" class="node">
<title>Node2</title>
<g id="a_node2"><a xlink:title=" ">
<polygon fill="#e0e0e0" stroke="#999999" points="53,-19 0,-19 0,0 53,0 53,-19"/>
<text text-anchor="middle" x="26.5" y="-7" font-family="Helvetica,sans-Serif" font-size="10.00">stdint.h</text>
</a>
</g>
</g>
<!-- Node1&#45;&gt;Node2 -->
<g id="edge1" class="edge">
<title>Node1&#45;&gt;Node2</title>
<path fill="none" stroke="#63b8ff" d="M98.73,-54.95C82.76,-45.12 63.76,-33.43 49.26,-24.51"/>
<polygon fill="#63b8ff" stroke="#63b8ff" points="50.81,-21.35 40.46,-19.09 47.14,-27.31 50.81,-21.35"/>
</g>
<!-- Node3 -->
<g id="node3" class="node">
<title>Node3</title>
<g id="a_node3"><a xlink:href="SignalProcessing_8tpp.html" target="_top" xlink:title="Definition of Signal Processing functions.">
<polygon fill="white" stroke="#666666" points="189.5,-19 71.5,-19 71.5,0 189.5,0 189.5,-19"/>
<text text-anchor="middle" x="130.5" y="-7" font-family="Helvetica,sans-Serif" font-size="10.00">SignalProcessing.tpp</text>
</a>
</g>
</g>
<!-- Node1&#45;&gt;Node3 -->
<g id="edge2" class="edge">
<title>Node1&#45;&gt;Node3</title>
<path fill="none" stroke="#63b8ff" d="M124.23,-54.95C123.57,-46.76 123.59,-37.28 124.3,-29.19"/>
<polygon fill="#63b8ff" stroke="#63b8ff" points="127.77,-29.65 125.68,-19.26 120.84,-28.68 127.77,-29.65"/>
</g>
<!-- Node3&#45;&gt;Node1 -->
<g id="edge3" class="edge">
<title>Node3&#45;&gt;Node1</title>
<path fill="none" stroke="#63b8ff" d="M135.32,-19.26C136.72,-25.9 137.36,-35.45 137.24,-44.74"/>
<polygon fill="#63b8ff" stroke="#63b8ff" points="133.73,-44.8 136.77,-54.95 140.72,-45.12 133.73,-44.8"/>
</g>
</g>
</svg>
