<?xml version="1.0" encoding="UTF-8" standalone="no"?>
<!DOCTYPE svg PUBLIC "-//W3C//DTD SVG 1.1//EN"
 "http://www.w3.org/Graphics/SVG/1.1/DTD/svg11.dtd">
<!-- Generated by graphviz version 2.43.0 (0)
 -->
<!-- Title: lib/Signal_Processing/Signal_Processing.cpp Pages: 1 -->
<svg width="136pt" height="148pt"
 viewBox="0.00 0.00 136.00 148.00" xmlns="http://www.w3.org/2000/svg" xmlns:xlink="http://www.w3.org/1999/xlink">
<g id="graph0" class="graph" transform="scale(1 1) rotate(0) translate(4 144)">
<title>lib/Signal_Processing/Signal_Processing.cpp</title>
<!-- Node1 -->
<g id="node1" class="node">
<title>Node1</title>
<g id="a_node1"><a xlink:title=" ">
<polygon fill="#999999" stroke="#666666" points="128,-140 0,-140 0,-110 128,-110 128,-140"/>
<text text-anchor="start" x="8" y="-128" font-family="Helvetica,sans-Serif" font-size="10.00">lib/Signal_Processing</text>
<text text-anchor="middle" x="64" y="-117" font-family="Helvetica,sans-Serif" font-size="10.00">/Signal_Processing.cpp</text>
</a>
</g>
</g>
<!-- Node2 -->
<g id="node2" class="node">
<title>Node2</title>
<g id="a_node2"><a xlink:href="Signal__Processing_8h.html" target="_top" xlink:title=" ">
<polygon fill="white" stroke="#666666" points="120.5,-74 7.5,-74 7.5,-55 120.5,-55 120.5,-74"/>
<text text-anchor="middle" x="64" y="-62" font-family="Helvetica,sans-Serif" font-size="10.00">Signal_Processing.h</text>
</a>
</g>
</g>
<!-- Node1&#45;&gt;Node2 -->
<g id="edge1" class="edge">
<title>Node1&#45;&gt;Node2</title>
<path fill="none" stroke="#63b8ff" d="M64,-109.84C64,-102.21 64,-92.7 64,-84.45"/>
<polygon fill="#63b8ff" stroke="#63b8ff" points="67.5,-84.27 64,-74.27 60.5,-84.27 67.5,-84.27"/>
</g>
<!-- Node3 -->
<g id="node3" class="node">
<title>Node3</title>
<g id="a_node3"><a xlink:title=" ">
<polygon fill="#e0e0e0" stroke="#999999" points="90.5,-19 37.5,-19 37.5,0 90.5,0 90.5,-19"/>
<text text-anchor="middle" x="64" y="-7" font-family="Helvetica,sans-Serif" font-size="10.00">stdint.h</text>
</a>
</g>
</g>
<!-- Node2&#45;&gt;Node3 -->
<g id="edge2" class="edge">
<title>Node2&#45;&gt;Node3</title>
<path fill="none" stroke="#63b8ff" d="M64,-54.75C64,-47.8 64,-37.85 64,-29.13"/>
<polygon fill="#63b8ff" stroke="#63b8ff" points="67.5,-29.09 64,-19.09 60.5,-29.09 67.5,-29.09"/>
</g>
</g>
</svg>
