<?xml version="1.0" encoding="UTF-8" standalone="no"?>
<!DOCTYPE svg PUBLIC "-//W3C//DTD SVG 1.1//EN"
 "http://www.w3.org/Graphics/SVG/1.1/DTD/svg11.dtd">
<!-- Generated by graphviz version 2.43.0 (0)
 -->
<!-- Title: lib/Signal_Processing/Signal_Processing.tpp Pages: 1 -->
<svg width="214pt" height="214pt"
 viewBox="0.00 0.00 214.00 214.00" xmlns="http://www.w3.org/2000/svg" xmlns:xlink="http://www.w3.org/1999/xlink">
<g id="graph0" class="graph" transform="scale(1 1) rotate(0) translate(4 210)">
<title>lib/Signal_Processing/Signal_Processing.tpp</title>
<!-- Node1 -->
<g id="node1" class="node">
<title>Node1</title>
<g id="a_node1"><a xlink:title="Definition of Signal Processing functions.">
<polygon fill="#999999" stroke="#666666" points="158.5,-206 32.5,-206 32.5,-176 158.5,-176 158.5,-206"/>
<text text-anchor="start" x="40.5" y="-194" font-family="Helvetica,sans-Serif" font-size="10.00">lib/Signal_Processing</text>
<text text-anchor="middle" x="95.5" y="-183" font-family="Helvetica,sans-Serif" font-size="10.00">/Signal_Processing.tpp</text>
</a>
</g>
</g>
<!-- Node2 -->
<g id="node2" class="node">
<title>Node2</title>
<g id="a_node2"><a xlink:href="Signal__Processing_8hpp.html" target="_top" xlink:title="Declaration of signal processing functions.">
<polygon fill="white" stroke="#666666" points="159.5,-140 31.5,-140 31.5,-110 159.5,-110 159.5,-140"/>
<text text-anchor="start" x="39.5" y="-128" font-family="Helvetica,sans-Serif" font-size="10.00">lib/Signal_Processing</text>
<text text-anchor="middle" x="95.5" y="-117" font-family="Helvetica,sans-Serif" font-size="10.00">/Signal_Processing.hpp</text>
</a>
</g>
</g>
<!-- Node1&#45;&gt;Node2 -->
<g id="edge1" class="edge">
<title>Node1&#45;&gt;Node2</title>
<path fill="none" stroke="#63b8ff" d="M88.93,-165.83C88.52,-157.17 88.81,-147.7 89.79,-140.16"/>
<polygon fill="#63b8ff" stroke="#63b8ff" points="85.45,-166.13 89.78,-175.8 92.42,-165.54 85.45,-166.13"/>
</g>
<!-- Node2&#45;&gt;Node1 -->
<g id="edge6" class="edge">
<title>Node2&#45;&gt;Node1</title>
<path fill="none" stroke="#63b8ff" d="M102.07,-150.13C102.48,-158.78 102.2,-168.26 101.22,-175.8"/>
<polygon fill="#63b8ff" stroke="#63b8ff" points="105.55,-149.83 101.21,-140.16 98.58,-150.43 105.55,-149.83"/>
</g>
<!-- Node3 -->
<g id="node3" class="node">
<title>Node3</title>
<g id="a_node3"><a xlink:href="Pedal_8cpp.html" target="_top" xlink:title="Implementation of the Pedal class for handling throttle pedal inputs.">
<polygon fill="white" stroke="#666666" points="109,-19 0,-19 0,0 109,0 109,-19"/>
<text text-anchor="middle" x="54.5" y="-7" font-family="Helvetica,sans-Serif" font-size="10.00">lib/Pedal/Pedal.cpp</text>
</a>
</g>
</g>
<!-- Node2&#45;&gt;Node3 -->
<g id="edge2" class="edge">
<title>Node2&#45;&gt;Node3</title>
<path fill="none" stroke="#63b8ff" d="M84.51,-100.64C80.78,-92.32 76.75,-82.83 73.5,-74 66.43,-54.78 60,-31.59 56.75,-19.24"/>
<polygon fill="#63b8ff" stroke="#63b8ff" points="81.33,-102.11 88.67,-109.75 87.7,-99.2 81.33,-102.11"/>
</g>
<!-- Node4 -->
<g id="node4" class="node">
<title>Node4</title>
<g id="a_node4"><a xlink:href="Pedal_8hpp.html" target="_top" xlink:title="Declaration of the Pedal class for handling throttle and brake pedal inputs.">
<polygon fill="white" stroke="#666666" points="192.5,-74 82.5,-74 82.5,-55 192.5,-55 192.5,-74"/>
<text text-anchor="middle" x="137.5" y="-62" font-family="Helvetica,sans-Serif" font-size="10.00">lib/Pedal/Pedal.hpp</text>
</a>
</g>
</g>
<!-- Node2&#45;&gt;Node4 -->
<g id="edge3" class="edge">
<title>Node2&#45;&gt;Node4</title>
<path fill="none" stroke="#63b8ff" d="M111.65,-101.51C118.48,-91.99 126.04,-81.47 131.21,-74.27"/>
<polygon fill="#63b8ff" stroke="#63b8ff" points="108.66,-99.67 105.67,-109.84 114.34,-103.76 108.66,-99.67"/>
</g>
<!-- Node4&#45;&gt;Node3 -->
<g id="edge4" class="edge">
<title>Node4&#45;&gt;Node3</title>
<path fill="none" stroke="#63b8ff" d="M115.46,-49.42C100.39,-39.81 80.91,-27.37 68.08,-19.17"/>
<polygon fill="#63b8ff" stroke="#63b8ff" points="113.85,-52.55 124.16,-54.98 117.62,-46.65 113.85,-52.55"/>
</g>
<!-- Node5 -->
<g id="node5" class="node">
<title>Node5</title>
<g id="a_node5"><a xlink:href="main_8cpp.html" target="_top" xlink:title="Main VCU program entry point.">
<polygon fill="white" stroke="#666666" points="206,-19 127,-19 127,0 206,0 206,-19"/>
<text text-anchor="middle" x="166.5" y="-7" font-family="Helvetica,sans-Serif" font-size="10.00">src/main.cpp</text>
</a>
</g>
</g>
<!-- Node4&#45;&gt;Node5 -->
<g id="edge5" class="edge">
<title>Node4&#45;&gt;Node5</title>
<path fill="none" stroke="#63b8ff" d="M147.18,-45.82C152.1,-36.82 157.86,-26.29 161.8,-19.09"/>
<polygon fill="#63b8ff" stroke="#63b8ff" points="144.02,-44.3 142.29,-54.75 150.16,-47.66 144.02,-44.3"/>
</g>
</g>
</svg>
