<?xml version="1.0" encoding="UTF-8" standalone="no"?>
<!DOCTYPE svg PUBLIC "-//W3C//DTD SVG 1.1//EN"
 "http://www.w3.org/Graphics/SVG/1.1/DTD/svg11.dtd">
<!-- Generated by graphviz version 2.43.0 (0)
 -->
<!-- Title: ee_sw_vcu_2025/lib/SignalProcessing/SignalProcessing.tpp Pages: 1 -->
<svg width="214pt" height="148pt"
 viewBox="0.00 0.00 214.00 148.00" xmlns="http://www.w3.org/2000/svg" xmlns:xlink="http://www.w3.org/1999/xlink">
<g id="graph0" class="graph" transform="scale(1 1) rotate(0) translate(4 144)">
<title>ee_sw_vcu_2025/lib/SignalProcessing/SignalProcessing.tpp</title>
<!-- Node1 -->
<g id="node1" class="node">
<title>Node1</title>
<g id="a_node1"><a xlink:title="Definition of Signal Processing functions.">
<polygon fill="#999999" stroke="#666666" points="206,-140 0,-140 0,-110 206,-110 206,-140"/>
<text text-anchor="start" x="8" y="-128" font-family="Helvetica,sans-Serif" font-size="10.00">ee_sw_vcu_2025/lib</text>
<text text-anchor="middle" x="103" y="-117" font-family="Helvetica,sans-Serif" font-size="10.00">/SignalProcessing/SignalProcessing.tpp</text>
</a>
</g>
</g>
<!-- Node2 -->
<g id="node2" class="node">
<title>Node2</title>
<g id="a_node2"><a xlink:href="SignalProcessing_8hpp.html" target="_top" xlink:title="Declaration of signal processing functions.">
<polygon fill="white" stroke="#666666" points="163,-74 43,-74 43,-55 163,-55 163,-74"/>
<text text-anchor="middle" x="103" y="-62" font-family="Helvetica,sans-Serif" font-size="10.00">SignalProcessing.hpp</text>
</a>
</g>
</g>
<!-- Node1&#45;&gt;Node2 -->
<g id="edge1" class="edge">
<title>Node1&#45;&gt;Node2</title>
<path fill="none" stroke="#63b8ff" d="M97.12,-109.84C96.15,-102.21 95.99,-92.7 96.64,-84.45"/>
<polygon fill="#63b8ff" stroke="#63b8ff" points="100.14,-84.65 98.02,-74.27 93.21,-83.71 100.14,-84.65"/>
</g>
<!-- Node2&#45;&gt;Node1 -->
<g id="edge3" class="edge">
<title>Node2&#45;&gt;Node1</title>
<path fill="none" stroke="#63b8ff" d="M107.98,-74.27C109.42,-81.03 109.98,-90.72 109.66,-99.75"/>
<polygon fill="#63b8ff" stroke="#63b8ff" points="106.16,-99.6 108.88,-109.84 113.14,-100.14 106.16,-99.6"/>
</g>
<!-- Node3 -->
<g id="node3" class="node">
<title>Node3</title>
<g id="a_node3"><a xlink:title=" ">
<polygon fill="#e0e0e0" stroke="#999999" points="129.5,-19 76.5,-19 76.5,0 129.5,0 129.5,-19"/>
<text text-anchor="middle" x="103" y="-7" font-family="Helvetica,sans-Serif" font-size="10.00">stdint.h</text>
</a>
</g>
</g>
<!-- Node2&#45;&gt;Node3 -->
<g id="edge2" class="edge">
<title>Node2&#45;&gt;Node3</title>
<path fill="none" stroke="#63b8ff" d="M103,-54.75C103,-47.8 103,-37.85 103,-29.13"/>
<polygon fill="#63b8ff" stroke="#63b8ff" points="106.5,-29.09 103,-19.09 99.5,-29.09 106.5,-29.09"/>
</g>
</g>
</svg>
