<?xml version="1.0" encoding="UTF-8" standalone="no"?>
<!DOCTYPE svg PUBLIC "-//W3C//DTD SVG 1.1//EN"
 "http://www.w3.org/Graphics/SVG/1.1/DTD/svg11.dtd">
<!-- Generated by graphviz version 2.43.0 (0)
 -->
<!-- Title: lib/Signal_Processing/Signal_Processing.hpp Pages: 1 -->
<svg width="345pt" height="159pt"
 viewBox="0.00 0.00 344.50 159.00" xmlns="http://www.w3.org/2000/svg" xmlns:xlink="http://www.w3.org/1999/xlink">
<g id="graph0" class="graph" transform="scale(1 1) rotate(0) translate(4 155)">
<title>lib/Signal_Processing/Signal_Processing.hpp</title>
<!-- Node1 -->
<g id="node1" class="node">
<title>Node1</title>
<g id="a_node1"><a xlink:title="Declaration of signal processing functions.">
<polygon fill="#999999" stroke="#666666" points="269.5,-151 141.5,-151 141.5,-121 269.5,-121 269.5,-151"/>
<text text-anchor="start" x="149.5" y="-139" font-family="Helvetica,sans-Serif" font-size="10.00">lib/Signal_Processing</text>
<text text-anchor="middle" x="205.5" y="-128" font-family="Helvetica,sans-Serif" font-size="10.00">/Signal_Processing.hpp</text>
</a>
</g>
</g>
<!-- Node2 -->
<g id="node2" class="node">
<title>Node2</title>
<g id="a_node2"><a xlink:href="Pedal_8cpp.html" target="_top" xlink:title="Implementation of the Pedal class for handling throttle pedal inputs.">
<polygon fill="white" stroke="#666666" points="109,-19 0,-19 0,0 109,0 109,-19"/>
<text text-anchor="middle" x="54.5" y="-7" font-family="Helvetica,sans-Serif" font-size="10.00">lib/Pedal/Pedal.cpp</text>
</a>
</g>
</g>
<!-- Node1&#45;&gt;Node2 -->
<g id="edge1" class="edge">
<title>Node1&#45;&gt;Node2</title>
<path fill="none" stroke="#63b8ff" d="M131.73,-120.72C110.36,-113.29 88.72,-102.04 73.5,-85 56.6,-66.09 54.32,-34.21 54.27,-19.03"/>
<polygon fill="#63b8ff" stroke="#63b8ff" points="130.91,-124.14 141.5,-123.88 133.06,-117.48 130.91,-124.14"/>
</g>
<!-- Node3 -->
<g id="node3" class="node">
<title>Node3</title>
<g id="a_node3"><a xlink:href="Pedal_8hpp.html" target="_top" xlink:title="Declaration of the Pedal class for handling throttle and brake pedal inputs.">
<polygon fill="white" stroke="#666666" points="192.5,-79.5 82.5,-79.5 82.5,-60.5 192.5,-60.5 192.5,-79.5"/>
<text text-anchor="middle" x="137.5" y="-67.5" font-family="Helvetica,sans-Serif" font-size="10.00">lib/Pedal/Pedal.hpp</text>
</a>
</g>
</g>
<!-- Node1&#45;&gt;Node3 -->
<g id="edge2" class="edge">
<title>Node1&#45;&gt;Node3</title>
<path fill="none" stroke="#63b8ff" d="M183.12,-113.93C170.81,-102.35 156.21,-88.61 146.9,-79.84"/>
<polygon fill="#63b8ff" stroke="#63b8ff" points="180.73,-116.49 190.41,-120.8 185.53,-111.39 180.73,-116.49"/>
</g>
<!-- Node5 -->
<g id="node5" class="node">
<title>Node5</title>
<g id="a_node5"><a xlink:href="Signal__Processing_8tpp.html" target="_top" xlink:title="Definition of Signal Processing functions.">
<polygon fill="white" stroke="#666666" points="336.5,-85 210.5,-85 210.5,-55 336.5,-55 336.5,-85"/>
<text text-anchor="start" x="218.5" y="-73" font-family="Helvetica,sans-Serif" font-size="10.00">lib/Signal_Processing</text>
<text text-anchor="middle" x="273.5" y="-62" font-family="Helvetica,sans-Serif" font-size="10.00">/Signal_Processing.tpp</text>
</a>
</g>
</g>
<!-- Node1&#45;&gt;Node5 -->
<g id="edge5" class="edge">
<title>Node1&#45;&gt;Node5</title>
<path fill="none" stroke="#63b8ff" d="M222.06,-113.37C231.34,-104.06 242.86,-93.44 252.74,-85.16"/>
<polygon fill="#63b8ff" stroke="#63b8ff" points="219.31,-111.18 214.87,-120.8 224.34,-116.04 219.31,-111.18"/>
</g>
<!-- Node3&#45;&gt;Node2 -->
<g id="edge3" class="edge">
<title>Node3&#45;&gt;Node2</title>
<path fill="none" stroke="#63b8ff" d="M116.71,-54.35C100.99,-43.27 79.94,-28.43 66.8,-19.17"/>
<polygon fill="#63b8ff" stroke="#63b8ff" points="115.06,-57.47 125.25,-60.37 119.1,-51.75 115.06,-57.47"/>
</g>
<!-- Node4 -->
<g id="node4" class="node">
<title>Node4</title>
<g id="a_node4"><a xlink:href="main_8cpp.html" target="_top" xlink:title="Main VCU program entry point.">
<polygon fill="white" stroke="#666666" points="206,-19 127,-19 127,0 206,0 206,-19"/>
<text text-anchor="middle" x="166.5" y="-7" font-family="Helvetica,sans-Serif" font-size="10.00">src/main.cpp</text>
</a>
</g>
</g>
<!-- Node3&#45;&gt;Node4 -->
<g id="edge4" class="edge">
<title>Node3&#45;&gt;Node4</title>
<path fill="none" stroke="#63b8ff" d="M146.35,-51.15C151.61,-40.54 158.04,-27.56 162.2,-19.17"/>
<polygon fill="#63b8ff" stroke="#63b8ff" points="143.08,-49.85 141.78,-60.37 149.36,-52.96 143.08,-49.85"/>
</g>
<!-- Node5&#45;&gt;Node1 -->
<g id="edge6" class="edge">
<title>Node5&#45;&gt;Node1</title>
<path fill="none" stroke="#63b8ff" d="M256.98,-92.59C247.71,-101.89 236.19,-112.51 226.31,-120.8"/>
<polygon fill="#63b8ff" stroke="#63b8ff" points="259.73,-94.79 264.17,-85.16 254.7,-89.92 259.73,-94.79"/>
</g>
</g>
</svg>
