<?xml version="1.0" encoding="UTF-8" standalone="no"?>
<!DOCTYPE svg PUBLIC "-//W3C//DTD SVG 1.1//EN"
 "http://www.w3.org/Graphics/SVG/1.1/DTD/svg11.dtd">
<!-- Generated by graphviz version 2.43.0 (0)
 -->
<!-- Title: vehicle_control_unit/lib/SignalProcessing/SignalProcessing.hpp Pages: 1 -->
<svg width="348pt" height="192pt"
 viewBox="0.00 0.00 348.00 192.00" xmlns="http://www.w3.org/2000/svg" xmlns:xlink="http://www.w3.org/1999/xlink">
<g id="graph0" class="graph" transform="scale(1 1) rotate(0) translate(4 188)">
<title>vehicle_control_unit/lib/SignalProcessing/SignalProcessing.hpp</title>
<!-- Node1 -->
<g id="node1" class="node">
<title>Node1</title>
<g id="a_node1"><a xlink:title="Declaration of signal processing functions.">
<polygon fill="#999999" stroke="#666666" points="273,-184 150,-184 150,-143 273,-143 273,-184"/>
<text text-anchor="start" x="158" y="-172" font-family="Helvetica,sans-Serif" font-size="10.00">vehicle_control_unit</text>
<text text-anchor="start" x="158" y="-161" font-family="Helvetica,sans-Serif" font-size="10.00">/lib/SignalProcessing</text>
<text text-anchor="middle" x="211.5" y="-150" font-family="Helvetica,sans-Serif" font-size="10.00">/SignalProcessing.hpp</text>
</a>
</g>
</g>
<!-- Node2 -->
<g id="node2" class="node">
<title>Node2</title>
<g id="a_node2"><a xlink:href="Pedal_8cpp.html" target="_top" xlink:title="Implementation of the Pedal class for handling throttle pedal inputs.">
<polygon fill="white" stroke="#666666" points="115,-30 0,-30 0,0 115,0 115,-30"/>
<text text-anchor="start" x="8" y="-18" font-family="Helvetica,sans-Serif" font-size="10.00">vehicle_control_unit</text>
<text text-anchor="middle" x="57.5" y="-7" font-family="Helvetica,sans-Serif" font-size="10.00">/lib/Pedal/Pedal.cpp</text>
</a>
</g>
</g>
<!-- Node1&#45;&gt;Node2 -->
<g id="edge1" class="edge">
<title>Node1&#45;&gt;Node2</title>
<path fill="none" stroke="#63b8ff" d="M140.09,-147.01C117.11,-138.71 93.49,-126.09 77.5,-107 59.01,-84.93 56.56,-49.55 56.79,-30.05"/>
<polygon fill="#63b8ff" stroke="#63b8ff" points="139.28,-150.43 149.88,-150.31 141.52,-143.8 139.28,-150.43"/>
</g>
<!-- Node3 -->
<g id="node3" class="node">
<title>Node3</title>
<g id="a_node3"><a xlink:href="Pedal_8hpp.html" target="_top" xlink:title="Declaration of the Pedal class for handling throttle and brake pedal inputs.">
<polygon fill="white" stroke="#666666" points="201,-101.5 86,-101.5 86,-71.5 201,-71.5 201,-101.5"/>
<text text-anchor="start" x="94" y="-89.5" font-family="Helvetica,sans-Serif" font-size="10.00">vehicle_control_unit</text>
<text text-anchor="middle" x="143.5" y="-78.5" font-family="Helvetica,sans-Serif" font-size="10.00">/lib/Pedal/Pedal.hpp</text>
</a>
</g>
</g>
<!-- Node1&#45;&gt;Node3 -->
<g id="edge2" class="edge">
<title>Node1&#45;&gt;Node3</title>
<path fill="none" stroke="#63b8ff" d="M186.79,-135.24C176.54,-123.94 165.08,-111.3 156.52,-101.86"/>
<polygon fill="#63b8ff" stroke="#63b8ff" points="184.32,-137.74 193.63,-142.79 189.51,-133.04 184.32,-137.74"/>
</g>
<!-- Node5 -->
<g id="node5" class="node">
<title>Node5</title>
<g id="a_node5"><a xlink:href="SignalProcessing_8tpp.html" target="_top" xlink:title="Definition of Signal Processing functions.">
<polygon fill="white" stroke="#666666" points="340,-107 219,-107 219,-66 340,-66 340,-107"/>
<text text-anchor="start" x="227" y="-95" font-family="Helvetica,sans-Serif" font-size="10.00">vehicle_control_unit</text>
<text text-anchor="start" x="227" y="-84" font-family="Helvetica,sans-Serif" font-size="10.00">/lib/SignalProcessing</text>
<text text-anchor="middle" x="279.5" y="-73" font-family="Helvetica,sans-Serif" font-size="10.00">/SignalProcessing.tpp</text>
</a>
</g>
</g>
<!-- Node1&#45;&gt;Node5 -->
<g id="edge5" class="edge">
<title>Node1&#45;&gt;Node5</title>
<path fill="none" stroke="#63b8ff" d="M229.94,-134.95C237.92,-125.7 247.27,-115.58 255.74,-107.07"/>
<polygon fill="#63b8ff" stroke="#63b8ff" points="227.1,-132.89 223.34,-142.79 232.46,-137.4 227.1,-132.89"/>
</g>
<!-- Node3&#45;&gt;Node2 -->
<g id="edge3" class="edge">
<title>Node3&#45;&gt;Node2</title>
<path fill="none" stroke="#63b8ff" d="M118.29,-65.13C104.33,-53.85 87.34,-40.12 74.88,-30.04"/>
<polygon fill="#63b8ff" stroke="#63b8ff" points="116.12,-67.87 126.1,-71.44 120.52,-62.43 116.12,-67.87"/>
</g>
<!-- Node4 -->
<g id="node4" class="node">
<title>Node4</title>
<g id="a_node4"><a xlink:href="main_8cpp.html" target="_top" xlink:title="Main VCU program entry point.">
<polygon fill="white" stroke="#666666" points="248,-30 133,-30 133,0 248,0 248,-30"/>
<text text-anchor="start" x="141" y="-18" font-family="Helvetica,sans-Serif" font-size="10.00">vehicle_control_unit</text>
<text text-anchor="middle" x="190.5" y="-7" font-family="Helvetica,sans-Serif" font-size="10.00">/src/main.cpp</text>
</a>
</g>
</g>
<!-- Node3&#45;&gt;Node4 -->
<g id="edge4" class="edge">
<title>Node3&#45;&gt;Node4</title>
<path fill="none" stroke="#63b8ff" d="M158.8,-62.88C166.11,-52.07 174.64,-39.46 181,-30.04"/>
<polygon fill="#63b8ff" stroke="#63b8ff" points="155.71,-61.19 153.01,-71.44 161.51,-65.11 155.71,-61.19"/>
</g>
<!-- Node5&#45;&gt;Node1 -->
<g id="edge6" class="edge">
<title>Node5&#45;&gt;Node1</title>
<path fill="none" stroke="#63b8ff" d="M261.18,-114.9C253.22,-124.14 243.87,-134.27 235.39,-142.79"/>
<polygon fill="#63b8ff" stroke="#63b8ff" points="264.01,-116.98 267.76,-107.07 258.65,-112.48 264.01,-116.98"/>
</g>
</g>
</svg>
