<?xml version="1.0" encoding="UTF-8" standalone="no"?>
<!DOCTYPE svg PUBLIC "-//W3C//DTD SVG 1.1//EN"
 "http://www.w3.org/Graphics/SVG/1.1/DTD/svg11.dtd">
<!-- Generated by graphviz version 2.43.0 (0)
 -->
<!-- Title: vehicle_control_unit/lib/SignalProcessing/SignalProcessing.tpp Pages: 1 -->
<svg width="129pt" height="159pt"
 viewBox="0.00 0.00 129.00 159.00" xmlns="http://www.w3.org/2000/svg" xmlns:xlink="http://www.w3.org/1999/xlink">
<g id="graph0" class="graph" transform="scale(1 1) rotate(0) translate(4 155)">
<title>vehicle_control_unit/lib/SignalProcessing/SignalProcessing.tpp</title>
<!-- Node1 -->
<g id="node1" class="node">
<title>Node1</title>
<g id="a_node1"><a xlink:title="Definition of Signal Processing functions.">
<polygon fill="#999999" stroke="#666666" points="121,-151 0,-151 0,-110 121,-110 121,-151"/>
<text text-anchor="start" x="8" y="-139" font-family="Helvetica,sans-Serif" font-size="10.00">vehicle_control_unit</text>
<text text-anchor="start" x="8" y="-128" font-family="Helvetica,sans-Serif" font-size="10.00">/lib/SignalProcessing</text>
<text text-anchor="middle" x="60.5" y="-117" font-family="Helvetica,sans-Serif" font-size="10.00">/SignalProcessing.tpp</text>
</a>
</g>
</g>
<!-- Node2 -->
<g id="node2" class="node">
<title>Node2</title>
<g id="a_node2"><a xlink:href="SignalProcessing_8hpp.html" target="_top" xlink:title="Declaration of signal processing functions.">
<polygon fill="white" stroke="#666666" points="120.5,-74 0.5,-74 0.5,-55 120.5,-55 120.5,-74"/>
<text text-anchor="middle" x="60.5" y="-62" font-family="Helvetica,sans-Serif" font-size="10.00">SignalProcessing.hpp</text>
</a>
</g>
</g>
<!-- Node1&#45;&gt;Node2 -->
<g id="edge1" class="edge">
<title>Node1&#45;&gt;Node2</title>
<path fill="none" stroke="#63b8ff" d="M54.23,-109.95C53.57,-101.76 53.59,-92.28 54.3,-84.19"/>
<polygon fill="#63b8ff" stroke="#63b8ff" points="57.77,-84.65 55.68,-74.26 50.84,-83.68 57.77,-84.65"/>
</g>
<!-- Node2&#45;&gt;Node1 -->
<g id="edge3" class="edge">
<title>Node2&#45;&gt;Node1</title>
<path fill="none" stroke="#63b8ff" d="M65.32,-74.26C66.72,-80.9 67.36,-90.45 67.24,-99.74"/>
<polygon fill="#63b8ff" stroke="#63b8ff" points="63.73,-99.8 66.77,-109.95 70.72,-100.12 63.73,-99.8"/>
</g>
<!-- Node3 -->
<g id="node3" class="node">
<title>Node3</title>
<g id="a_node3"><a xlink:title=" ">
<polygon fill="#e0e0e0" stroke="#999999" points="87,-19 34,-19 34,0 87,0 87,-19"/>
<text text-anchor="middle" x="60.5" y="-7" font-family="Helvetica,sans-Serif" font-size="10.00">stdint.h</text>
</a>
</g>
</g>
<!-- Node2&#45;&gt;Node3 -->
<g id="edge2" class="edge">
<title>Node2&#45;&gt;Node3</title>
<path fill="none" stroke="#63b8ff" d="M60.5,-54.75C60.5,-47.8 60.5,-37.85 60.5,-29.13"/>
<polygon fill="#63b8ff" stroke="#63b8ff" points="64,-29.09 60.5,-19.09 57,-29.09 64,-29.09"/>
</g>
</g>
</svg>
