<?xml version="1.0" encoding="UTF-8" standalone="no"?>
<!DOCTYPE svg PUBLIC "-//W3C//DTD SVG 1.1//EN"
 "http://www.w3.org/Graphics/SVG/1.1/DTD/svg11.dtd">
<!-- Generated by graphviz version 2.43.0 (0)
 -->
<!-- Title: lib/Signal_Processing/Signal_Processing.hpp Pages: 1 -->
<svg width="205pt" height="93pt"
 viewBox="0.00 0.00 204.50 93.00" xmlns="http://www.w3.org/2000/svg" xmlns:xlink="http://www.w3.org/1999/xlink">
<g id="graph0" class="graph" transform="scale(1 1) rotate(0) translate(4 89)">
<title>lib/Signal_Processing/Signal_Processing.hpp</title>
<!-- Node1 -->
<g id="node1" class="node">
<title>Node1</title>
<g id="a_node1"><a xlink:title="Declaration of signal processing functions.">
<polygon fill="#999999" stroke="#666666" points="196.5,-85 68.5,-85 68.5,-55 196.5,-55 196.5,-85"/>
<text text-anchor="start" x="76.5" y="-73" font-family="Helvetica,sans-Serif" font-size="10.00">lib/Signal_Processing</text>
<text text-anchor="middle" x="132.5" y="-62" font-family="Helvetica,sans-Serif" font-size="10.00">/Signal_Processing.hpp</text>
</a>
</g>
</g>
<!-- Node2 -->
<g id="node2" class="node">
<title>Node2</title>
<g id="a_node2"><a xlink:title=" ">
<polygon fill="#e0e0e0" stroke="#999999" points="53,-19 0,-19 0,0 53,0 53,-19"/>
<text text-anchor="middle" x="26.5" y="-7" font-family="Helvetica,sans-Serif" font-size="10.00">stdint.h</text>
</a>
</g>
</g>
<!-- Node1&#45;&gt;Node2 -->
<g id="edge1" class="edge">
<title>Node1&#45;&gt;Node2</title>
<path fill="none" stroke="#63b8ff" d="M107.11,-54.99C90.21,-45.66 68.12,-33.47 51.34,-24.21"/>
<polygon fill="#63b8ff" stroke="#63b8ff" points="52.6,-20.91 42.15,-19.14 49.22,-27.04 52.6,-20.91"/>
</g>
<!-- Node3 -->
<g id="node3" class="node">
<title>Node3</title>
<g id="a_node3"><a xlink:href="Signal__Processing_8tpp.html" target="_top" xlink:title="Definition of Signal Processing functions.">
<polygon fill="white" stroke="#666666" points="194,-19 71,-19 71,0 194,0 194,-19"/>
<text text-anchor="middle" x="132.5" y="-7" font-family="Helvetica,sans-Serif" font-size="10.00">Signal_Processing.tpp</text>
</a>
</g>
</g>
<!-- Node1&#45;&gt;Node3 -->
<g id="edge2" class="edge">
<title>Node1&#45;&gt;Node3</title>
<path fill="none" stroke="#63b8ff" d="M126.62,-54.84C125.65,-47.21 125.49,-37.7 126.14,-29.45"/>
<polygon fill="#63b8ff" stroke="#63b8ff" points="129.64,-29.65 127.52,-19.27 122.71,-28.71 129.64,-29.65"/>
</g>
<!-- Node3&#45;&gt;Node1 -->
<g id="edge3" class="edge">
<title>Node3&#45;&gt;Node1</title>
<path fill="none" stroke="#63b8ff" d="M137.48,-19.27C138.92,-26.03 139.48,-35.72 139.16,-44.75"/>
<polygon fill="#63b8ff" stroke="#63b8ff" points="135.66,-44.6 138.38,-54.84 142.64,-45.14 135.66,-44.6"/>
</g>
</g>
</svg>
