<?xml version="1.0" encoding="UTF-8" standalone="no"?>
<!DOCTYPE svg PUBLIC "-//W3C//DTD SVG 1.1//EN"
 "http://www.w3.org/Graphics/SVG/1.1/DTD/svg11.dtd">
<!-- Generated by graphviz version 2.43.0 (0)
 -->
<!-- Title: ee_sw_vcu_2025/lib/SignalProcessing/SignalProcessing.tpp Pages: 1 -->
<svg width="262pt" height="236pt"
 viewBox="0.00 0.00 261.50 236.00" xmlns="http://www.w3.org/2000/svg" xmlns:xlink="http://www.w3.org/1999/xlink">
<g id="graph0" class="graph" transform="scale(1 1) rotate(0) translate(4 232)">
<title>ee_sw_vcu_2025/lib/SignalProcessing/SignalProcessing.tpp</title>
<!-- Node1 -->
<g id="node1" class="node">
<title>Node1</title>
<g id="a_node1"><a xlink:title="Definition of Signal Processing functions.">
<polygon fill="#999999" stroke="#666666" points="207.5,-228 1.5,-228 1.5,-198 207.5,-198 207.5,-228"/>
<text text-anchor="start" x="9.5" y="-216" font-family="Helvetica,sans-Serif" font-size="10.00">ee_sw_vcu_2025/lib</text>
<text text-anchor="middle" x="104.5" y="-205" font-family="Helvetica,sans-Serif" font-size="10.00">/SignalProcessing/SignalProcessing.tpp</text>
</a>
</g>
</g>
<!-- Node2 -->
<g id="node2" class="node">
<title>Node2</title>
<g id="a_node2"><a xlink:href="SignalProcessing_8hpp.html" target="_top" xlink:title="Declaration of signal processing functions.">
<polygon fill="white" stroke="#666666" points="209,-162 0,-162 0,-132 209,-132 209,-162"/>
<text text-anchor="start" x="8" y="-150" font-family="Helvetica,sans-Serif" font-size="10.00">ee_sw_vcu_2025/lib</text>
<text text-anchor="middle" x="104.5" y="-139" font-family="Helvetica,sans-Serif" font-size="10.00">/SignalProcessing/SignalProcessing.hpp</text>
</a>
</g>
</g>
<!-- Node1&#45;&gt;Node2 -->
<g id="edge1" class="edge">
<title>Node1&#45;&gt;Node2</title>
<path fill="none" stroke="#63b8ff" d="M97.93,-187.83C97.52,-179.17 97.81,-169.7 98.79,-162.16"/>
<polygon fill="#63b8ff" stroke="#63b8ff" points="94.45,-188.13 98.78,-197.8 101.42,-187.54 94.45,-188.13"/>
</g>
<!-- Node2&#45;&gt;Node1 -->
<g id="edge6" class="edge">
<title>Node2&#45;&gt;Node1</title>
<path fill="none" stroke="#63b8ff" d="M111.07,-172.13C111.48,-180.78 111.2,-190.26 110.22,-197.8"/>
<polygon fill="#63b8ff" stroke="#63b8ff" points="114.55,-171.83 110.21,-162.16 107.58,-172.43 114.55,-171.83"/>
</g>
<!-- Node3 -->
<g id="node3" class="node">
<title>Node3</title>
<g id="a_node3"><a xlink:href="Pedal_8cpp.html" target="_top" xlink:title="Implementation of the Pedal class for handling throttle pedal inputs.">
<polygon fill="white" stroke="#666666" points="119.5,-30 5.5,-30 5.5,0 119.5,0 119.5,-30"/>
<text text-anchor="start" x="13.5" y="-18" font-family="Helvetica,sans-Serif" font-size="10.00">ee_sw_vcu_2025/lib</text>
<text text-anchor="middle" x="62.5" y="-7" font-family="Helvetica,sans-Serif" font-size="10.00">/Pedal/Pedal.cpp</text>
</a>
</g>
</g>
<!-- Node2&#45;&gt;Node3 -->
<g id="edge2" class="edge">
<title>Node2&#45;&gt;Node3</title>
<path fill="none" stroke="#63b8ff" d="M92.66,-122.79C88.74,-114.48 84.59,-104.96 81.5,-96 73.73,-73.46 68.01,-46.29 64.97,-30.11"/>
<polygon fill="#63b8ff" stroke="#63b8ff" points="89.56,-124.41 97.09,-131.87 95.85,-121.35 89.56,-124.41"/>
</g>
<!-- Node4 -->
<g id="node4" class="node">
<title>Node4</title>
<g id="a_node4"><a xlink:href="Pedal_8hpp.html" target="_top" xlink:title="Declaration of the Pedal class for handling throttle and brake pedal inputs.">
<polygon fill="white" stroke="#666666" points="204.5,-96 90.5,-96 90.5,-66 204.5,-66 204.5,-96"/>
<text text-anchor="start" x="98.5" y="-84" font-family="Helvetica,sans-Serif" font-size="10.00">ee_sw_vcu_2025/lib</text>
<text text-anchor="middle" x="147.5" y="-73" font-family="Helvetica,sans-Serif" font-size="10.00">/Pedal/Pedal.hpp</text>
</a>
</g>
</g>
<!-- Node2&#45;&gt;Node4 -->
<g id="edge3" class="edge">
<title>Node2&#45;&gt;Node4</title>
<path fill="none" stroke="#63b8ff" d="M119.79,-123.24C125.86,-114.21 132.64,-104.11 137.98,-96.16"/>
<polygon fill="#63b8ff" stroke="#63b8ff" points="116.71,-121.54 114.04,-131.8 122.53,-125.45 116.71,-121.54"/>
</g>
<!-- Node4&#45;&gt;Node3 -->
<g id="edge4" class="edge">
<title>Node4&#45;&gt;Node3</title>
<path fill="none" stroke="#63b8ff" d="M120.61,-59.75C107.83,-50.13 92.86,-38.86 81.31,-30.16"/>
<polygon fill="#63b8ff" stroke="#63b8ff" points="118.54,-62.58 128.64,-65.8 122.75,-56.99 118.54,-62.58"/>
</g>
<!-- Node5 -->
<g id="node5" class="node">
<title>Node5</title>
<g id="a_node5"><a xlink:href="main_8cpp.html" target="_top" xlink:title="Main VCU program entry point.">
<polygon fill="white" stroke="#666666" points="253.5,-30 137.5,-30 137.5,0 253.5,0 253.5,-30"/>
<text text-anchor="start" x="145.5" y="-18" font-family="Helvetica,sans-Serif" font-size="10.00">ee_sw_vcu_2025/src</text>
<text text-anchor="middle" x="195.5" y="-7" font-family="Helvetica,sans-Serif" font-size="10.00">/main.cpp</text>
</a>
</g>
</g>
<!-- Node4&#45;&gt;Node5 -->
<g id="edge5" class="edge">
<title>Node4&#45;&gt;Node5</title>
<path fill="none" stroke="#63b8ff" d="M164.36,-57.53C171.18,-48.43 178.85,-38.19 184.88,-30.16"/>
<polygon fill="#63b8ff" stroke="#63b8ff" points="161.35,-55.7 158.15,-65.8 166.95,-59.9 161.35,-55.7"/>
</g>
</g>
</svg>
