<?xml version="1.0" encoding="UTF-8" standalone="no"?>
<!DOCTYPE svg PUBLIC "-//W3C//DTD SVG 1.1//EN"
 "http://www.w3.org/Graphics/SVG/1.1/DTD/svg11.dtd">
<!-- Generated by graphviz version 2.43.0 (0)
 -->
<!-- Title: lib/Signal_Processing/Signal_Processing.tpp Pages: 1 -->
<svg width="136pt" height="159pt"
 viewBox="0.00 0.00 136.00 159.00" xmlns="http://www.w3.org/2000/svg" xmlns:xlink="http://www.w3.org/1999/xlink">
<g id="graph0" class="graph" transform="scale(1 1) rotate(0) translate(4 155)">
<title>lib/Signal_Processing/Signal_Processing.tpp</title>
<!-- Node1 -->
<g id="node1" class="node">
<title>Node1</title>
<g id="a_node1"><a xlink:title="Definition of Signal Processing functions.">
<polygon fill="#999999" stroke="#666666" points="127,-151 1,-151 1,-121 127,-121 127,-151"/>
<text text-anchor="start" x="9" y="-139" font-family="Helvetica,sans-Serif" font-size="10.00">lib/Signal_Processing</text>
<text text-anchor="middle" x="64" y="-128" font-family="Helvetica,sans-Serif" font-size="10.00">/Signal_Processing.tpp</text>
</a>
</g>
</g>
<!-- Node2 -->
<g id="node2" class="node">
<title>Node2</title>
<g id="a_node2"><a xlink:href="Signal__Processing_8hpp.html" target="_top" xlink:title=" ">
<polygon fill="white" stroke="#666666" points="128,-85 0,-85 0,-55 128,-55 128,-85"/>
<text text-anchor="start" x="8" y="-73" font-family="Helvetica,sans-Serif" font-size="10.00">lib/Signal_Processing</text>
<text text-anchor="middle" x="64" y="-62" font-family="Helvetica,sans-Serif" font-size="10.00">/Signal_Processing.hpp</text>
</a>
</g>
</g>
<!-- Node1&#45;&gt;Node2 -->
<g id="edge1" class="edge">
<title>Node1&#45;&gt;Node2</title>
<path fill="none" stroke="#63b8ff" d="M57.43,-110.83C57.02,-102.17 57.31,-92.7 58.29,-85.16"/>
<polygon fill="#63b8ff" stroke="#63b8ff" points="53.95,-111.13 58.28,-120.8 60.92,-110.54 53.95,-111.13"/>
</g>
<!-- Node2&#45;&gt;Node1 -->
<g id="edge3" class="edge">
<title>Node2&#45;&gt;Node1</title>
<path fill="none" stroke="#63b8ff" d="M70.57,-95.13C70.98,-103.78 70.7,-113.26 69.72,-120.8"/>
<polygon fill="#63b8ff" stroke="#63b8ff" points="74.05,-94.83 69.71,-85.16 67.08,-95.43 74.05,-94.83"/>
</g>
<!-- Node3 -->
<g id="node3" class="node">
<title>Node3</title>
<g id="a_node3"><a xlink:href="Pedal_8cpp.html" target="_top" xlink:title="Implementation of the Pedal class for handling throttle pedal inputs.">
<polygon fill="white" stroke="#666666" points="118.5,-19 9.5,-19 9.5,0 118.5,0 118.5,-19"/>
<text text-anchor="middle" x="64" y="-7" font-family="Helvetica,sans-Serif" font-size="10.00">lib/Pedal/Pedal.cpp</text>
</a>
</g>
</g>
<!-- Node2&#45;&gt;Node3 -->
<g id="edge2" class="edge">
<title>Node2&#45;&gt;Node3</title>
<path fill="none" stroke="#63b8ff" d="M64,-44.75C64,-35.72 64,-26.03 64,-19.27"/>
<polygon fill="#63b8ff" stroke="#63b8ff" points="60.5,-44.84 64,-54.84 67.5,-44.84 60.5,-44.84"/>
</g>
</g>
</svg>
