<?xml version="1.0" encoding="UTF-8" standalone="no"?>
<!DOCTYPE svg PUBLIC "-//W3C//DTD SVG 1.1//EN"
 "http://www.w3.org/Graphics/SVG/1.1/DTD/svg11.dtd">
<!-- Generated by graphviz version 2.43.0 (0)
 -->
<!-- Title: TelemetryFrameMotor::toCanFrame Pages: 1 -->
<svg width="723pt" height="38pt"
 viewBox="0.00 0.00 723.00 38.00" xmlns="http://www.w3.org/2000/svg" xmlns:xlink="http://www.w3.org/1999/xlink">
<g id="graph0" class="graph" transform="scale(1 1) rotate(0) translate(4 34)">
<title>TelemetryFrameMotor::toCanFrame</title>
<!-- Node1 -->
<g id="node1" class="node">
<title>Node1</title>
<g id="a_node1"><a xlink:title="Converts the TelemetryFrameMotor to a CAN frame.">
<polygon fill="#999999" stroke="#666666" points="715,-30 590,-30 590,0 715,0 715,-30"/>
<text text-anchor="start" x="598" y="-18" font-family="Helvetica,sans-Serif" font-size="10.00">TelemetryFrameMotor</text>
<text text-anchor="middle" x="652.5" y="-7" font-family="Helvetica,sans-Serif" font-size="10.00">::toCanFrame</text>
</a>
</g>
</g>
<!-- Node2 -->
<g id="node2" class="node">
<title>Node2</title>
<g id="a_node2"><a xlink:href="classTelemetry.html#a92acf8de276b3b8ded45d44b97ddd13c" target="_top" xlink:title="Internal helper to get and send the motor telemetry frame.">
<polygon fill="white" stroke="#666666" points="554,-24.5 408,-24.5 408,-5.5 554,-5.5 554,-24.5"/>
<text text-anchor="middle" x="481" y="-12.5" font-family="Helvetica,sans-Serif" font-size="10.00">Telemetry::schedulerMotor</text>
</a>
</g>
</g>
<!-- Node1&#45;&gt;Node2 -->
<g id="edge1" class="edge">
<title>Node1&#45;&gt;Node2</title>
<path fill="none" stroke="#63b8ff" d="M579.68,-15C571.27,-15 562.69,-15 554.28,-15"/>
<polygon fill="#63b8ff" stroke="#63b8ff" points="579.83,-18.5 589.83,-15 579.83,-11.5 579.83,-18.5"/>
</g>
<!-- Node3 -->
<g id="node3" class="node">
<title>Node3</title>
<g id="a_node3"><a xlink:href="classTelemetry.html#a892ba1df53bea0797e63b8e7a0030d91" target="_top" xlink:title="Sends telemetry data based on the scheduling logic.">
<polygon fill="white" stroke="#666666" points="372,-24.5 229,-24.5 229,-5.5 372,-5.5 372,-24.5"/>
<text text-anchor="middle" x="300.5" y="-12.5" font-family="Helvetica,sans-Serif" font-size="10.00">Telemetry::sendTelemetry</text>
</a>
</g>
</g>
<!-- Node2&#45;&gt;Node3 -->
<g id="edge2" class="edge">
<title>Node2&#45;&gt;Node3</title>
<path fill="none" stroke="#63b8ff" d="M397.87,-15C389.27,-15 380.58,-15 372.12,-15"/>
<polygon fill="#63b8ff" stroke="#63b8ff" points="397.91,-18.5 407.91,-15 397.91,-11.5 397.91,-18.5"/>
</g>
<!-- Node4 -->
<g id="node4" class="node">
<title>Node4</title>
<g id="a_node4"><a xlink:href="main_8cpp.html#a18a2a13352158a1c448c163c58e2b486" target="_top" xlink:title=" ">
<polygon fill="white" stroke="#666666" points="193,-24.5 80,-24.5 80,-5.5 193,-5.5 193,-24.5"/>
<text text-anchor="middle" x="136.5" y="-12.5" font-family="Helvetica,sans-Serif" font-size="10.00">schedulerTelemetry</text>
</a>
</g>
</g>
<!-- Node3&#45;&gt;Node4 -->
<g id="edge3" class="edge">
<title>Node3&#45;&gt;Node4</title>
<path fill="none" stroke="#63b8ff" d="M218.79,-15C210.15,-15 201.5,-15 193.24,-15"/>
<polygon fill="#63b8ff" stroke="#63b8ff" points="218.92,-18.5 228.92,-15 218.92,-11.5 218.92,-18.5"/>
</g>
<!-- Node5 -->
<g id="node5" class="node">
<title>Node5</title>
<g id="a_node5"><a xlink:href="main_8cpp.html#a4fc01d736fe50cf5b977f755b675f11d" target="_top" xlink:title="Setup function for initializing the VCU system. Initializes MCP2515s, IO pins, as well as own modules...">
<polygon fill="white" stroke="#666666" points="44,-24.5 0,-24.5 0,-5.5 44,-5.5 44,-24.5"/>
<text text-anchor="middle" x="22" y="-12.5" font-family="Helvetica,sans-Serif" font-size="10.00">setup</text>
</a>
</g>
</g>
<!-- Node4&#45;&gt;Node5 -->
<g id="edge4" class="edge">
<title>Node4&#45;&gt;Node5</title>
<path fill="none" stroke="#63b8ff" d="M69.8,-15C60.57,-15 51.69,-15 44.19,-15"/>
<polygon fill="#63b8ff" stroke="#63b8ff" points="69.91,-18.5 79.91,-15 69.91,-11.5 69.91,-18.5"/>
</g>
</g>
</svg>
