<?xml version="1.0" encoding="UTF-8" standalone="no"?>
<!DOCTYPE svg PUBLIC "-//W3C//DTD SVG 1.1//EN"
 "http://www.w3.org/Graphics/SVG/1.1/DTD/svg11.dtd">
<!-- Generated by graphviz version 2.43.0 (0)
 -->
<!-- Title: CarState Pages: 1 -->
<svg width="483pt" height="524pt"
 viewBox="0.00 0.00 483.00 524.00" xmlns="http://www.w3.org/2000/svg" xmlns:xlink="http://www.w3.org/1999/xlink">
<g id="graph0" class="graph" transform="scale(1 1) rotate(0) translate(4 520)">
<title>CarState</title>
<!-- Node1 -->
<g id="node1" class="node">
<title>Node1</title>
<g id="a_node1"><a xlink:title="Represents the state of the car. Holds telemetry data and status, used as central data sharing struct...">
<polygon fill="#999999" stroke="#666666" points="231,-0.5 231,-68.5 321,-68.5 321,-0.5 231,-0.5"/>
<text text-anchor="middle" x="276" y="-56.5" font-family="Helvetica,sans-Serif" font-size="10.00">CarState</text>
<polyline fill="none" stroke="#666666" points="231,-49.5 321,-49.5 "/>
<text text-anchor="start" x="239" y="-37.5" font-family="Helvetica,sans-Serif" font-size="10.00">+ status_millis</text>
<text text-anchor="start" x="239" y="-26.5" font-family="Helvetica,sans-Serif" font-size="10.00">+ millis</text>
<polyline fill="none" stroke="#666666" points="231,-19.5 321,-19.5 "/>
<text text-anchor="middle" x="276" y="-7.5" font-family="Helvetica,sans-Serif" font-size="10.00"> </text>
</a>
</g>
</g>
<!-- Node2 -->
<g id="node2" class="node">
<title>Node2</title>
<g id="a_node2"><a xlink:href="structTelemetryFramePedal.html" target="_top" xlink:title="Telemetry frame structure for the Pedals.">
<polygon fill="white" stroke="#666666" points="72.5,-116.5 72.5,-206.5 195.5,-206.5 195.5,-116.5 72.5,-116.5"/>
<text text-anchor="middle" x="134" y="-194.5" font-family="Helvetica,sans-Serif" font-size="10.00">TelemetryFramePedal</text>
<polyline fill="none" stroke="#666666" points="72.5,-187.5 195.5,-187.5 "/>
<text text-anchor="start" x="80.5" y="-175.5" font-family="Helvetica,sans-Serif" font-size="10.00">+ apps_5v</text>
<text text-anchor="start" x="80.5" y="-164.5" font-family="Helvetica,sans-Serif" font-size="10.00">+ apps_3v3</text>
<text text-anchor="start" x="80.5" y="-153.5" font-family="Helvetica,sans-Serif" font-size="10.00">+ brake</text>
<text text-anchor="start" x="80.5" y="-142.5" font-family="Helvetica,sans-Serif" font-size="10.00">+ hall_sensor</text>
<polyline fill="none" stroke="#666666" points="72.5,-135.5 195.5,-135.5 "/>
<text text-anchor="start" x="80.5" y="-123.5" font-family="Helvetica,sans-Serif" font-size="10.00">+ toCanFrame()</text>
</a>
</g>
</g>
<!-- Node2&#45;&gt;Node1 -->
<g id="edge1" class="edge">
<title>Node2&#45;&gt;Node1</title>
<path fill="none" stroke="#404040" d="M184.06,-116.43C198.74,-103.51 214.72,-89.45 229.18,-76.71"/>
<polygon fill="none" stroke="#404040" points="229.43,-76.5 231.29,-69.53 238.44,-68.57 236.58,-75.53 229.43,-76.5"/>
<text text-anchor="middle" x="233.5" y="-90" font-family="Helvetica,sans-Serif" font-size="10.00"> +pedal</text>
</g>
<!-- Node3 -->
<g id="node3" class="node">
<title>Node3</title>
<g id="a_node3"><a xlink:href="unionTelemetryFramePedal_1_1StateByteStatus.html" target="_top" xlink:title="Union of bits for car status besides Pedal.">
<polygon fill="white" stroke="#666666" points="2.5,-254.5 2.5,-322.5 125.5,-322.5 125.5,-254.5 2.5,-254.5"/>
<text text-anchor="start" x="10.5" y="-310.5" font-family="Helvetica,sans-Serif" font-size="10.00">TelemetryFramePedal</text>
<text text-anchor="middle" x="64" y="-299.5" font-family="Helvetica,sans-Serif" font-size="10.00">::StateByteStatus</text>
<polyline fill="none" stroke="#666666" points="2.5,-292.5 125.5,-292.5 "/>
<text text-anchor="start" x="10.5" y="-280.5" font-family="Helvetica,sans-Serif" font-size="10.00">+ byte</text>
<polyline fill="none" stroke="#666666" points="2.5,-273.5 125.5,-273.5 "/>
<text text-anchor="middle" x="64" y="-261.5" font-family="Helvetica,sans-Serif" font-size="10.00"> </text>
</a>
</g>
</g>
<!-- Node3&#45;&gt;Node2 -->
<g id="edge2" class="edge">
<title>Node3&#45;&gt;Node2</title>
<path fill="none" stroke="#404040" d="M82.57,-254.33C88.97,-242.92 96.3,-229.81 103.4,-217.15"/>
<polygon fill="none" stroke="#404040" points="103.41,-217.13 102.85,-209.94 109.27,-206.66 109.83,-213.85 103.41,-217.13"/>
<text text-anchor="middle" x="120" y="-228" font-family="Helvetica,sans-Serif" font-size="10.00"> +status</text>
</g>
<!-- Node4 -->
<g id="node4" class="node">
<title>Node4</title>
<g id="a_node4"><a xlink:href="structTelemetryFramePedal_1_1StateByteStatus_1_1Bits.html" target="_top" xlink:title="Bitfield representation of the status bits.">
<polygon fill="white" stroke="#666666" points="0,-376 0,-510 126,-510 126,-376 0,-376"/>
<text text-anchor="start" x="8" y="-498" font-family="Helvetica,sans-Serif" font-size="10.00">TelemetryFramePedal</text>
<text text-anchor="middle" x="63" y="-487" font-family="Helvetica,sans-Serif" font-size="10.00">::StateByteStatus::Bits</text>
<polyline fill="none" stroke="#666666" points="0,-480 126,-480 "/>
<text text-anchor="start" x="8" y="-468" font-family="Helvetica,sans-Serif" font-size="10.00">+ car_status</text>
<text text-anchor="start" x="8" y="-457" font-family="Helvetica,sans-Serif" font-size="10.00">+ state_unknown</text>
<text text-anchor="start" x="8" y="-446" font-family="Helvetica,sans-Serif" font-size="10.00">+ hv_ready</text>
<text text-anchor="start" x="8" y="-435" font-family="Helvetica,sans-Serif" font-size="10.00">+ bms_no_msg</text>
<text text-anchor="start" x="8" y="-424" font-family="Helvetica,sans-Serif" font-size="10.00">+ motor_no_read</text>
<text text-anchor="start" x="8" y="-413" font-family="Helvetica,sans-Serif" font-size="10.00">+ screenshot</text>
<text text-anchor="start" x="8" y="-402" font-family="Helvetica,sans-Serif" font-size="10.00">+ force_stop</text>
<polyline fill="none" stroke="#666666" points="0,-395 126,-395 "/>
<text text-anchor="middle" x="63" y="-383" font-family="Helvetica,sans-Serif" font-size="10.00"> </text>
</a>
</g>
</g>
<!-- Node4&#45;&gt;Node3 -->
<g id="edge3" class="edge">
<title>Node4&#45;&gt;Node3</title>
<path fill="none" stroke="#404040" d="M63.43,-376C63.52,-362.23 63.62,-348.01 63.7,-335.18"/>
<polygon fill="none" stroke="#404040" points="63.7,-334.88 59.74,-328.85 63.78,-322.88 67.74,-328.9 63.7,-334.88"/>
<text text-anchor="middle" x="79" y="-344" font-family="Helvetica,sans-Serif" font-size="10.00"> +bits</text>
</g>
<!-- Node5 -->
<g id="node5" class="node">
<title>Node5</title>
<g id="a_node5"><a xlink:href="unionTelemetryFramePedal_1_1StateByteFaults.html" target="_top" xlink:title="Union of bits for pedal faults.">
<polygon fill="white" stroke="#666666" points="144.5,-254.5 144.5,-322.5 267.5,-322.5 267.5,-254.5 144.5,-254.5"/>
<text text-anchor="start" x="152.5" y="-310.5" font-family="Helvetica,sans-Serif" font-size="10.00">TelemetryFramePedal</text>
<text text-anchor="middle" x="206" y="-299.5" font-family="Helvetica,sans-Serif" font-size="10.00">::StateByteFaults</text>
<polyline fill="none" stroke="#666666" points="144.5,-292.5 267.5,-292.5 "/>
<text text-anchor="start" x="152.5" y="-280.5" font-family="Helvetica,sans-Serif" font-size="10.00">+ byte</text>
<polyline fill="none" stroke="#666666" points="144.5,-273.5 267.5,-273.5 "/>
<text text-anchor="middle" x="206" y="-261.5" font-family="Helvetica,sans-Serif" font-size="10.00"> </text>
</a>
</g>
</g>
<!-- Node5&#45;&gt;Node2 -->
<g id="edge4" class="edge">
<title>Node5&#45;&gt;Node2</title>
<path fill="none" stroke="#404040" d="M186.89,-254.33C180.32,-242.92 172.77,-229.81 165.48,-217.15"/>
<polygon fill="none" stroke="#404040" points="165.43,-217.06 158.96,-213.86 159.44,-206.66 165.9,-209.86 165.43,-217.06"/>
<text text-anchor="middle" x="195" y="-228" font-family="Helvetica,sans-Serif" font-size="10.00"> +faults</text>
</g>
<!-- Node6 -->
<g id="node6" class="node">
<title>Node6</title>
<g id="a_node6"><a xlink:href="structTelemetryFramePedal_1_1StateByteFaults_1_1Bits.html" target="_top" xlink:title="Bitfield representation of the fault bits.">
<polygon fill="white" stroke="#666666" points="144,-370.5 144,-515.5 268,-515.5 268,-370.5 144,-370.5"/>
<text text-anchor="start" x="152" y="-503.5" font-family="Helvetica,sans-Serif" font-size="10.00">TelemetryFramePedal</text>
<text text-anchor="middle" x="206" y="-492.5" font-family="Helvetica,sans-Serif" font-size="10.00">::StateByteFaults::Bits</text>
<polyline fill="none" stroke="#666666" points="144,-485.5 268,-485.5 "/>
<text text-anchor="start" x="152" y="-473.5" font-family="Helvetica,sans-Serif" font-size="10.00">+ fault_active</text>
<text text-anchor="start" x="152" y="-462.5" font-family="Helvetica,sans-Serif" font-size="10.00">+ fault_exceeded</text>
<text text-anchor="start" x="152" y="-451.5" font-family="Helvetica,sans-Serif" font-size="10.00">+ apps_5v_low</text>
<text text-anchor="start" x="152" y="-440.5" font-family="Helvetica,sans-Serif" font-size="10.00">+ apps_5v_high</text>
<text text-anchor="start" x="152" y="-429.5" font-family="Helvetica,sans-Serif" font-size="10.00">+ apps_3v3_low</text>
<text text-anchor="start" x="152" y="-418.5" font-family="Helvetica,sans-Serif" font-size="10.00">+ apps_3v3_high</text>
<text text-anchor="start" x="152" y="-407.5" font-family="Helvetica,sans-Serif" font-size="10.00">+ brake_low</text>
<text text-anchor="start" x="152" y="-396.5" font-family="Helvetica,sans-Serif" font-size="10.00">+ brake_high</text>
<polyline fill="none" stroke="#666666" points="144,-389.5 268,-389.5 "/>
<text text-anchor="middle" x="206" y="-377.5" font-family="Helvetica,sans-Serif" font-size="10.00"> </text>
</a>
</g>
</g>
<!-- Node6&#45;&gt;Node5 -->
<g id="edge5" class="edge">
<title>Node6&#45;&gt;Node5</title>
<path fill="none" stroke="#404040" d="M206,-370.22C206,-358.09 206,-345.82 206,-334.62"/>
<polygon fill="none" stroke="#404040" points="206,-334.51 202,-328.51 206,-322.51 210,-328.51 206,-334.51"/>
<text text-anchor="middle" x="221" y="-344" font-family="Helvetica,sans-Serif" font-size="10.00"> +bits</text>
</g>
<!-- Node7 -->
<g id="node7" class="node">
<title>Node7</title>
<g id="a_node7"><a xlink:href="structTelemetryFrameMotor.html" target="_top" xlink:title="Telemetry frame structure for motor signals.">
<polygon fill="white" stroke="#666666" points="213.5,-116.5 213.5,-206.5 338.5,-206.5 338.5,-116.5 213.5,-116.5"/>
<text text-anchor="middle" x="276" y="-194.5" font-family="Helvetica,sans-Serif" font-size="10.00">TelemetryFrameMotor</text>
<polyline fill="none" stroke="#666666" points="213.5,-187.5 338.5,-187.5 "/>
<text text-anchor="start" x="221.5" y="-175.5" font-family="Helvetica,sans-Serif" font-size="10.00">+ torque_val</text>
<text text-anchor="start" x="221.5" y="-164.5" font-family="Helvetica,sans-Serif" font-size="10.00">+ motor_rpm</text>
<text text-anchor="start" x="221.5" y="-153.5" font-family="Helvetica,sans-Serif" font-size="10.00">+ motor_error</text>
<text text-anchor="start" x="221.5" y="-142.5" font-family="Helvetica,sans-Serif" font-size="10.00">+ motor_warn</text>
<polyline fill="none" stroke="#666666" points="213.5,-135.5 338.5,-135.5 "/>
<text text-anchor="start" x="221.5" y="-123.5" font-family="Helvetica,sans-Serif" font-size="10.00">+ toCanFrame()</text>
</a>
</g>
</g>
<!-- Node7&#45;&gt;Node1 -->
<g id="edge6" class="edge">
<title>Node7&#45;&gt;Node1</title>
<path fill="none" stroke="#404040" d="M276,-116.43C276,-104.87 276,-92.38 276,-80.76"/>
<polygon fill="none" stroke="#404040" points="276,-80.57 272,-74.57 276,-68.57 280,-74.57 276,-80.57"/>
<text text-anchor="middle" x="296.5" y="-90" font-family="Helvetica,sans-Serif" font-size="10.00"> +motor</text>
</g>
<!-- Node8 -->
<g id="node8" class="node">
<title>Node8</title>
<g id="a_node8"><a xlink:href="structTelemetryFrameBms.html" target="_top" xlink:title="Telemetry frame structure for the BMS data.">
<polygon fill="white" stroke="#666666" points="357,-133 357,-190 475,-190 475,-133 357,-133"/>
<text text-anchor="middle" x="416" y="-178" font-family="Helvetica,sans-Serif" font-size="10.00">TelemetryFrameBms</text>
<polyline fill="none" stroke="#666666" points="357,-171 475,-171 "/>
<text text-anchor="start" x="365" y="-159" font-family="Helvetica,sans-Serif" font-size="10.00">+ bms_data</text>
<polyline fill="none" stroke="#666666" points="357,-152 475,-152 "/>
<text text-anchor="start" x="365" y="-140" font-family="Helvetica,sans-Serif" font-size="10.00">+ toCanFrame()</text>
</a>
</g>
</g>
<!-- Node8&#45;&gt;Node1 -->
<g id="edge7" class="edge">
<title>Node8&#45;&gt;Node1</title>
<path fill="none" stroke="#404040" d="M384.93,-132.76C366.56,-116.35 342.94,-95.27 322.39,-76.92"/>
<polygon fill="none" stroke="#404040" points="322.15,-76.71 315.01,-75.69 313.2,-68.71 320.34,-69.73 322.15,-76.71"/>
<text text-anchor="middle" x="362.5" y="-90" font-family="Helvetica,sans-Serif" font-size="10.00"> +bms</text>
</g>
</g>
</svg>
