<?xml version="1.0" encoding="UTF-8" standalone="no"?>
<!DOCTYPE svg PUBLIC "-//W3C//DTD SVG 1.1//EN"
 "http://www.w3.org/Graphics/SVG/1.1/DTD/svg11.dtd">
<!-- Generated by graphviz version 2.43.0 (0)
 -->
<!-- Title: CarState Pages: 1 -->
<svg width="478pt" height="430pt"
 viewBox="0.00 0.00 478.00 430.00" xmlns="http://www.w3.org/2000/svg" xmlns:xlink="http://www.w3.org/1999/xlink">
<g id="graph0" class="graph" transform="scale(1 1) rotate(0) translate(4 426)">
<title>CarState</title>
<!-- Node1 -->
<g id="node1" class="node">
<title>Node1</title>
<g id="a_node1"><a xlink:title="Represents the state of the car. Holds telemetry data and status, used as central data sharing struct...">
<polygon fill="#999999" stroke="#666666" points="151,-0.5 151,-68.5 241,-68.5 241,-0.5 151,-0.5"/>
<text text-anchor="middle" x="196" y="-56.5" font-family="Helvetica,sans-Serif" font-size="10.00">CarState</text>
<polyline fill="none" stroke="#666666" points="151,-49.5 241,-49.5 "/>
<text text-anchor="start" x="159" y="-37.5" font-family="Helvetica,sans-Serif" font-size="10.00">+ status_millis</text>
<text text-anchor="start" x="159" y="-26.5" font-family="Helvetica,sans-Serif" font-size="10.00">+ millis</text>
<polyline fill="none" stroke="#666666" points="151,-19.5 241,-19.5 "/>
<text text-anchor="middle" x="196" y="-7.5" font-family="Helvetica,sans-Serif" font-size="10.00"> </text>
</a>
</g>
</g>
<!-- Node2 -->
<g id="node2" class="node">
<title>Node2</title>
<g id="a_node2"><a xlink:href="structTelemetryFrameAdc.html" target="_top" xlink:title="Telemetry frame structure for ADC readings.">
<polygon fill="white" stroke="#666666" points="0,-116.5 0,-206.5 114,-206.5 114,-116.5 0,-116.5"/>
<text text-anchor="middle" x="57" y="-194.5" font-family="Helvetica,sans-Serif" font-size="10.00">TelemetryFrameAdc</text>
<polyline fill="none" stroke="#666666" points="0,-187.5 114,-187.5 "/>
<text text-anchor="start" x="8" y="-175.5" font-family="Helvetica,sans-Serif" font-size="10.00">+ apps_5v</text>
<text text-anchor="start" x="8" y="-164.5" font-family="Helvetica,sans-Serif" font-size="10.00">+ apps_3v3</text>
<text text-anchor="start" x="8" y="-153.5" font-family="Helvetica,sans-Serif" font-size="10.00">+ brake</text>
<text text-anchor="start" x="8" y="-142.5" font-family="Helvetica,sans-Serif" font-size="10.00">+ hall_sensor</text>
<polyline fill="none" stroke="#666666" points="0,-135.5 114,-135.5 "/>
<text text-anchor="start" x="8" y="-123.5" font-family="Helvetica,sans-Serif" font-size="10.00">+ toCanFrame()</text>
</a>
</g>
</g>
<!-- Node2&#45;&gt;Node1 -->
<g id="edge1" class="edge">
<title>Node2&#45;&gt;Node1</title>
<path fill="none" stroke="#404040" d="M106.01,-116.43C120.37,-103.51 136.01,-89.45 150.17,-76.71"/>
<polygon fill="none" stroke="#404040" points="150.31,-76.59 152.09,-69.6 159.23,-68.57 157.44,-75.55 150.31,-76.59"/>
<text text-anchor="middle" x="148.5" y="-90" font-family="Helvetica,sans-Serif" font-size="10.00"> +adc</text>
</g>
<!-- Node3 -->
<g id="node3" class="node">
<title>Node3</title>
<g id="a_node3"><a xlink:href="structTelemetryFrameDigital.html" target="_top" xlink:title="Telemetry frame structure for digital signals.">
<polygon fill="white" stroke="#666666" points="132,-116.5 132,-206.5 260,-206.5 260,-116.5 132,-116.5"/>
<text text-anchor="middle" x="196" y="-194.5" font-family="Helvetica,sans-Serif" font-size="10.00">TelemetryFrameDigital</text>
<polyline fill="none" stroke="#666666" points="132,-187.5 260,-187.5 "/>
<text text-anchor="start" x="140" y="-175.5" font-family="Helvetica,sans-Serif" font-size="10.00">+ motor_rpm</text>
<text text-anchor="start" x="140" y="-164.5" font-family="Helvetica,sans-Serif" font-size="10.00">+ motor_speed</text>
<text text-anchor="start" x="140" y="-153.5" font-family="Helvetica,sans-Serif" font-size="10.00">+ apps_3v3_scaled</text>
<text text-anchor="start" x="140" y="-142.5" font-family="Helvetica,sans-Serif" font-size="10.00">+ torque_val</text>
<polyline fill="none" stroke="#666666" points="132,-135.5 260,-135.5 "/>
<text text-anchor="start" x="140" y="-123.5" font-family="Helvetica,sans-Serif" font-size="10.00">+ toCanFrame()</text>
</a>
</g>
</g>
<!-- Node3&#45;&gt;Node1 -->
<g id="edge2" class="edge">
<title>Node3&#45;&gt;Node1</title>
<path fill="none" stroke="#404040" d="M196,-116.43C196,-104.87 196,-92.38 196,-80.76"/>
<polygon fill="none" stroke="#404040" points="196,-80.57 192,-74.57 196,-68.57 200,-74.57 196,-80.57"/>
<text text-anchor="middle" x="217.5" y="-90" font-family="Helvetica,sans-Serif" font-size="10.00"> +digital</text>
</g>
<!-- Node4 -->
<g id="node4" class="node">
<title>Node4</title>
<g id="a_node4"><a xlink:href="structTelemetryFrameState.html" target="_top" xlink:title="Telemetry frame structure for VCU states.">
<polygon fill="white" stroke="#666666" points="278,-133 278,-190 400,-190 400,-133 278,-133"/>
<text text-anchor="middle" x="339" y="-178" font-family="Helvetica,sans-Serif" font-size="10.00">TelemetryFrameState</text>
<polyline fill="none" stroke="#666666" points="278,-171 400,-171 "/>
<text text-anchor="start" x="286" y="-159" font-family="Helvetica,sans-Serif" font-size="10.00">+ bms_data</text>
<polyline fill="none" stroke="#666666" points="278,-152 400,-152 "/>
<text text-anchor="start" x="286" y="-140" font-family="Helvetica,sans-Serif" font-size="10.00">+ toCanFrame()</text>
</a>
</g>
</g>
<!-- Node4&#45;&gt;Node1 -->
<g id="edge3" class="edge">
<title>Node4&#45;&gt;Node1</title>
<path fill="none" stroke="#404040" d="M307.26,-132.76C288.41,-116.28 264.15,-95.08 243.1,-76.67"/>
<polygon fill="none" stroke="#404040" points="243.03,-76.61 235.88,-75.67 234,-68.71 241.15,-69.65 243.03,-76.61"/>
<text text-anchor="middle" x="285.5" y="-90" font-family="Helvetica,sans-Serif" font-size="10.00"> +state</text>
</g>
<!-- Node5 -->
<g id="node5" class="node">
<title>Node5</title>
<g id="a_node5"><a xlink:href="unionTelemetryFrameState_1_1StateByte0.html" target="_top" xlink:title=" ">
<polygon fill="white" stroke="#666666" points="208,-260 208,-416 330,-416 330,-260 208,-260"/>
<text text-anchor="start" x="216" y="-404" font-family="Helvetica,sans-Serif" font-size="10.00">TelemetryFrameState</text>
<text text-anchor="middle" x="269" y="-393" font-family="Helvetica,sans-Serif" font-size="10.00">::StateByte0</text>
<polyline fill="none" stroke="#666666" points="208,-386 330,-386 "/>
<text text-anchor="start" x="216" y="-374" font-family="Helvetica,sans-Serif" font-size="10.00">+ byte</text>
<text text-anchor="start" x="216" y="-363" font-family="Helvetica,sans-Serif" font-size="10.00">+ car_status</text>
<text text-anchor="start" x="216" y="-352" font-family="Helvetica,sans-Serif" font-size="10.00">+ state_unknown</text>
<text text-anchor="start" x="216" y="-341" font-family="Helvetica,sans-Serif" font-size="10.00">+ hv_ready</text>
<text text-anchor="start" x="216" y="-330" font-family="Helvetica,sans-Serif" font-size="10.00">+ bms_no_msg</text>
<text text-anchor="start" x="216" y="-319" font-family="Helvetica,sans-Serif" font-size="10.00">+ bms_wrong_id</text>
<text text-anchor="start" x="216" y="-308" font-family="Helvetica,sans-Serif" font-size="10.00">+ force_stop</text>
<text text-anchor="start" x="216" y="-297" font-family="Helvetica,sans-Serif" font-size="10.00">+ screenshot</text>
<text text-anchor="start" x="216" y="-286" font-family="Helvetica,sans-Serif" font-size="10.00">+ bits</text>
<polyline fill="none" stroke="#666666" points="208,-279 330,-279 "/>
<text text-anchor="middle" x="269" y="-267" font-family="Helvetica,sans-Serif" font-size="10.00"> </text>
</a>
</g>
</g>
<!-- Node5&#45;&gt;Node4 -->
<g id="edge4" class="edge">
<title>Node5&#45;&gt;Node4</title>
<path fill="none" stroke="#404040" d="M299.91,-259.95C308,-239.78 316.39,-218.86 323.31,-201.6"/>
<polygon fill="none" stroke="#404040" points="323.38,-201.43 321.9,-194.37 327.85,-190.29 329.33,-197.35 323.38,-201.43"/>
<text text-anchor="middle" x="333" y="-228" font-family="Helvetica,sans-Serif" font-size="10.00"> +status</text>
</g>
<!-- Node6 -->
<g id="node6" class="node">
<title>Node6</title>
<g id="a_node6"><a xlink:href="unionTelemetryFrameState_1_1StateByte1.html" target="_top" xlink:title=" ">
<polygon fill="white" stroke="#666666" points="348,-254.5 348,-421.5 470,-421.5 470,-254.5 348,-254.5"/>
<text text-anchor="start" x="356" y="-409.5" font-family="Helvetica,sans-Serif" font-size="10.00">TelemetryFrameState</text>
<text text-anchor="middle" x="409" y="-398.5" font-family="Helvetica,sans-Serif" font-size="10.00">::StateByte1</text>
<polyline fill="none" stroke="#666666" points="348,-391.5 470,-391.5 "/>
<text text-anchor="start" x="356" y="-379.5" font-family="Helvetica,sans-Serif" font-size="10.00">+ byte</text>
<text text-anchor="start" x="356" y="-368.5" font-family="Helvetica,sans-Serif" font-size="10.00">+ fault_active</text>
<text text-anchor="start" x="356" y="-357.5" font-family="Helvetica,sans-Serif" font-size="10.00">+ fault_exceeded</text>
<text text-anchor="start" x="356" y="-346.5" font-family="Helvetica,sans-Serif" font-size="10.00">+ apps_5v_low</text>
<text text-anchor="start" x="356" y="-335.5" font-family="Helvetica,sans-Serif" font-size="10.00">+ apps_5v_high</text>
<text text-anchor="start" x="356" y="-324.5" font-family="Helvetica,sans-Serif" font-size="10.00">+ apps_3v3_low</text>
<text text-anchor="start" x="356" y="-313.5" font-family="Helvetica,sans-Serif" font-size="10.00">+ apps_3v3_high</text>
<text text-anchor="start" x="356" y="-302.5" font-family="Helvetica,sans-Serif" font-size="10.00">+ brake_low</text>
<text text-anchor="start" x="356" y="-291.5" font-family="Helvetica,sans-Serif" font-size="10.00">+ brake_high</text>
<text text-anchor="start" x="356" y="-280.5" font-family="Helvetica,sans-Serif" font-size="10.00">+ bits</text>
<polyline fill="none" stroke="#666666" points="348,-273.5 470,-273.5 "/>
<text text-anchor="middle" x="409" y="-261.5" font-family="Helvetica,sans-Serif" font-size="10.00"> </text>
</a>
</g>
</g>
<!-- Node6&#45;&gt;Node4 -->
<g id="edge5" class="edge">
<title>Node6&#45;&gt;Node4</title>
<path fill="none" stroke="#404040" d="M375.84,-254.35C368.47,-235.96 360.98,-217.29 354.7,-201.63"/>
<polygon fill="none" stroke="#404040" points="354.62,-201.44 348.67,-197.36 350.15,-190.3 356.1,-194.38 354.62,-201.44"/>
<text text-anchor="middle" x="387" y="-228" font-family="Helvetica,sans-Serif" font-size="10.00"> +faults</text>
</g>
</g>
</svg>
