<?xml version="1.0" encoding="UTF-8" standalone="no"?>
<!DOCTYPE svg PUBLIC "-//W3C//DTD SVG 1.1//EN"
 "http://www.w3.org/Graphics/SVG/1.1/DTD/svg11.dtd">
<!-- Generated by graphviz version 2.43.0 (0)
 -->
<!-- Title: TelemetryFrameState Pages: 1 -->
<svg width="270pt" height="281pt"
 viewBox="0.00 0.00 270.00 281.00" xmlns="http://www.w3.org/2000/svg" xmlns:xlink="http://www.w3.org/1999/xlink">
<g id="graph0" class="graph" transform="scale(1 1) rotate(0) translate(4 277)">
<title>TelemetryFrameState</title>
<!-- Node1 -->
<g id="node1" class="node">
<title>Node1</title>
<g id="a_node1"><a xlink:title="Telemetry frame structure for VCU states.">
<polygon fill="#999999" stroke="#666666" points="70,-0.5 70,-57.5 192,-57.5 192,-0.5 70,-0.5"/>
<text text-anchor="middle" x="131" y="-45.5" font-family="Helvetica,sans-Serif" font-size="10.00">TelemetryFrameState</text>
<polyline fill="none" stroke="#666666" points="70,-38.5 192,-38.5 "/>
<text text-anchor="start" x="78" y="-26.5" font-family="Helvetica,sans-Serif" font-size="10.00">+ bms_data</text>
<polyline fill="none" stroke="#666666" points="70,-19.5 192,-19.5 "/>
<text text-anchor="start" x="78" y="-7.5" font-family="Helvetica,sans-Serif" font-size="10.00">+ toCanFrame()</text>
</a>
</g>
</g>
<!-- Node2 -->
<g id="node2" class="node">
<title>Node2</title>
<g id="a_node2"><a xlink:href="unionTelemetryFrameState_1_1StateByte0.html" target="_top" xlink:title=" ">
<polygon fill="white" stroke="#666666" points="0,-111 0,-267 122,-267 122,-111 0,-111"/>
<text text-anchor="start" x="8" y="-255" font-family="Helvetica,sans-Serif" font-size="10.00">TelemetryFrameState</text>
<text text-anchor="middle" x="61" y="-244" font-family="Helvetica,sans-Serif" font-size="10.00">::StateByte0</text>
<polyline fill="none" stroke="#666666" points="0,-237 122,-237 "/>
<text text-anchor="start" x="8" y="-225" font-family="Helvetica,sans-Serif" font-size="10.00">+ byte</text>
<text text-anchor="start" x="8" y="-214" font-family="Helvetica,sans-Serif" font-size="10.00">+ car_status</text>
<text text-anchor="start" x="8" y="-203" font-family="Helvetica,sans-Serif" font-size="10.00">+ state_unknown</text>
<text text-anchor="start" x="8" y="-192" font-family="Helvetica,sans-Serif" font-size="10.00">+ hv_ready</text>
<text text-anchor="start" x="8" y="-181" font-family="Helvetica,sans-Serif" font-size="10.00">+ bms_no_msg</text>
<text text-anchor="start" x="8" y="-170" font-family="Helvetica,sans-Serif" font-size="10.00">+ bms_wrong_id</text>
<text text-anchor="start" x="8" y="-159" font-family="Helvetica,sans-Serif" font-size="10.00">+ force_stop</text>
<text text-anchor="start" x="8" y="-148" font-family="Helvetica,sans-Serif" font-size="10.00">+ screenshot</text>
<text text-anchor="start" x="8" y="-137" font-family="Helvetica,sans-Serif" font-size="10.00">+ bits</text>
<polyline fill="none" stroke="#666666" points="0,-130 122,-130 "/>
<text text-anchor="middle" x="61" y="-118" font-family="Helvetica,sans-Serif" font-size="10.00"> </text>
</a>
</g>
</g>
<!-- Node2&#45;&gt;Node1 -->
<g id="edge1" class="edge">
<title>Node2&#45;&gt;Node1</title>
<path fill="none" stroke="#404040" d="M95.18,-110.85C101.66,-96.22 108.18,-81.5 113.85,-68.71"/>
<polygon fill="none" stroke="#404040" points="113.93,-68.53 112.7,-61.42 118.79,-57.56 120.02,-64.66 113.93,-68.53"/>
<text text-anchor="middle" x="132" y="-79" font-family="Helvetica,sans-Serif" font-size="10.00"> +status</text>
</g>
<!-- Node3 -->
<g id="node3" class="node">
<title>Node3</title>
<g id="a_node3"><a xlink:href="unionTelemetryFrameState_1_1StateByte1.html" target="_top" xlink:title=" ">
<polygon fill="white" stroke="#666666" points="140,-105.5 140,-272.5 262,-272.5 262,-105.5 140,-105.5"/>
<text text-anchor="start" x="148" y="-260.5" font-family="Helvetica,sans-Serif" font-size="10.00">TelemetryFrameState</text>
<text text-anchor="middle" x="201" y="-249.5" font-family="Helvetica,sans-Serif" font-size="10.00">::StateByte1</text>
<polyline fill="none" stroke="#666666" points="140,-242.5 262,-242.5 "/>
<text text-anchor="start" x="148" y="-230.5" font-family="Helvetica,sans-Serif" font-size="10.00">+ byte</text>
<text text-anchor="start" x="148" y="-219.5" font-family="Helvetica,sans-Serif" font-size="10.00">+ fault_active</text>
<text text-anchor="start" x="148" y="-208.5" font-family="Helvetica,sans-Serif" font-size="10.00">+ fault_exceeded</text>
<text text-anchor="start" x="148" y="-197.5" font-family="Helvetica,sans-Serif" font-size="10.00">+ apps_5v_low</text>
<text text-anchor="start" x="148" y="-186.5" font-family="Helvetica,sans-Serif" font-size="10.00">+ apps_5v_high</text>
<text text-anchor="start" x="148" y="-175.5" font-family="Helvetica,sans-Serif" font-size="10.00">+ apps_3v3_low</text>
<text text-anchor="start" x="148" y="-164.5" font-family="Helvetica,sans-Serif" font-size="10.00">+ apps_3v3_high</text>
<text text-anchor="start" x="148" y="-153.5" font-family="Helvetica,sans-Serif" font-size="10.00">+ brake_low</text>
<text text-anchor="start" x="148" y="-142.5" font-family="Helvetica,sans-Serif" font-size="10.00">+ brake_high</text>
<text text-anchor="start" x="148" y="-131.5" font-family="Helvetica,sans-Serif" font-size="10.00">+ bits</text>
<polyline fill="none" stroke="#666666" points="140,-124.5 262,-124.5 "/>
<text text-anchor="middle" x="201" y="-112.5" font-family="Helvetica,sans-Serif" font-size="10.00"> </text>
</a>
</g>
</g>
<!-- Node3&#45;&gt;Node1 -->
<g id="edge2" class="edge">
<title>Node3&#45;&gt;Node1</title>
<path fill="none" stroke="#404040" d="M170.1,-105.47C165.91,-95.45 161.49,-85.43 157,-76 155.85,-73.58 154.62,-71.11 153.34,-68.63"/>
<polygon fill="none" stroke="#404040" points="153.25,-68.47 146.89,-65.07 147.59,-57.89 153.95,-61.29 153.25,-68.47"/>
<text text-anchor="middle" x="181" y="-79" font-family="Helvetica,sans-Serif" font-size="10.00"> +faults</text>
</g>
</g>
</svg>
