<?xml version="1.0" encoding="UTF-8" standalone="no"?>
<!DOCTYPE svg PUBLIC "-//W3C//DTD SVG 1.1//EN"
 "http://www.w3.org/Graphics/SVG/1.1/DTD/svg11.dtd">
<!-- Generated by graphviz version 2.43.0 (0)
 -->
<!-- Title: CarState Pages: 1 -->
<!--zoomable 535 -->
<svg id="main" version="1.1" xmlns="http://www.w3.org/2000/svg" xmlns:xlink="http://www.w3.org/1999/xlink" xml:space="preserve" onload="init(evt)">
<style type="text/css"><![CDATA[
.edge:hover path { stroke: red; }
.edge:hover polygon { stroke: red; fill: red; }
]]></style>
<script type="text/javascript"><![CDATA[
var edges = document.getElementsByTagName('g');
if (edges && edges.length) {
  for (var i=0;i<edges.length;i++) {
    if (edges[i].id.substr(0,4)=='edge') {
      edges[i].setAttribute('class','edge');
    }
  }
}
]]></script>
        <defs>
                <circle id="rim" cx="0" cy="0" r="7"/>
                <circle id="rim2" cx="0" cy="0" r="3.5"/>
                <g id="zoomPlus">
                        <use xlink:href="#rim" fill="#404040">
                                <set attributeName="fill" to="#808080" begin="zoomplus.mouseover" end="zoomplus.mouseout"/>
                        </use>
                        <path d="M-4,0h8M0,-4v8" fill="none" stroke="white" stroke-width="1.5" pointer-events="none"/>
                </g>
                <g id="zoomMin">
                        <use xlink:href="#rim" fill="#404040">
                                <set attributeName="fill" to="#808080" begin="zoomminus.mouseover" end="zoomminus.mouseout"/>
                        </use>
                        <path d="M-4,0h8" fill="none" stroke="white" stroke-width="1.5" pointer-events="none"/>
                </g>
                <g id="dirArrow">
                        <path fill="none" stroke="white" stroke-width="1.5" d="M0,-3.0v7 M-2.5,-0.5L0,-3.0L2.5,-0.5"/>
                </g>
               <g id="resetDef">
                       <use xlink:href="#rim2" fill="#404040">
                               <set attributeName="fill" to="#808080" begin="reset.mouseover" end="reset.mouseout"/>
                       </use>
               </g>
        </defs>

<script type="text/javascript">
var viewWidth = 483;
var viewHeight = 535;
var sectionId = 'dynsection-0';
</script>
<script xlink:href="svgpan.js"/>
<svg id="graph" class="graph">
<g id="viewport">
<title>CarState</title>
<!-- Node1 -->
<g id="node1" class="node">
<title>Node1</title>
<g id="a_node1"><a xlink:title="Represents the state of the car. Holds telemetry data and status, used as central data sharing struct...">
<polygon fill="#999999" stroke="#666666" points="231,-0.5 231,-68.5 321,-68.5 321,-0.5 231,-0.5"/>
<text text-anchor="middle" x="276" y="-56.5" font-family="Helvetica,sans-Serif" font-size="10.00">CarState</text>
<polyline fill="none" stroke="#666666" points="231,-49.5 321,-49.5 "/>
<text text-anchor="start" x="239" y="-37.5" font-family="Helvetica,sans-Serif" font-size="10.00">+ status_millis</text>
<text text-anchor="start" x="239" y="-26.5" font-family="Helvetica,sans-Serif" font-size="10.00">+ millis</text>
<polyline fill="none" stroke="#666666" points="231,-19.5 321,-19.5 "/>
<text text-anchor="middle" x="276" y="-7.5" font-family="Helvetica,sans-Serif" font-size="10.00"> </text>
</a>
</g>
</g>
<!-- Node2 -->
<g id="node2" class="node">
<title>Node2</title>
<g id="a_node2"><a xlink:href="structTelemetryFramePedal.html" target="_top" xlink:title="Telemetry frame structure for the Pedals.">
<polygon fill="white" stroke="#666666" points="72.5,-116.5 72.5,-217.5 195.5,-217.5 195.5,-116.5 72.5,-116.5"/>
<text text-anchor="middle" x="134" y="-205.5" font-family="Helvetica,sans-Serif" font-size="10.00">TelemetryFramePedal</text>
<polyline fill="none" stroke="#666666" points="72.5,-198.5 195.5,-198.5 "/>
<text text-anchor="start" x="80.5" y="-186.5" font-family="Helvetica,sans-Serif" font-size="10.00">+ apps_5v</text>
<text text-anchor="start" x="80.5" y="-175.5" font-family="Helvetica,sans-Serif" font-size="10.00">+ apps_3v3</text>
<text text-anchor="start" x="80.5" y="-164.5" font-family="Helvetica,sans-Serif" font-size="10.00">+ apps_3v3_scaled</text>
<text text-anchor="start" x="80.5" y="-153.5" font-family="Helvetica,sans-Serif" font-size="10.00">+ brake</text>
<text text-anchor="start" x="80.5" y="-142.5" font-family="Helvetica,sans-Serif" font-size="10.00">+ hall_sensor</text>
<polyline fill="none" stroke="#666666" points="72.5,-135.5 195.5,-135.5 "/>
<text text-anchor="start" x="80.5" y="-123.5" font-family="Helvetica,sans-Serif" font-size="10.00">+ toCanFrame()</text>
</a>
</g>
</g>
<!-- Node2&#45;&gt;Node1 -->
<g id="edge1" class="edge">
<title>Node2&#45;&gt;Node1</title>
<path fill="none" stroke="#404040" d="M188.09,-116.29C202.23,-103.3 217.31,-89.43 230.93,-76.92"/>
<polygon fill="none" stroke="#404040" points="231.25,-76.63 232.96,-69.62 240.09,-68.51 238.37,-75.51 231.25,-76.63"/>
<text text-anchor="middle" x="237.5" y="-90" font-family="Helvetica,sans-Serif" font-size="10.00"> +pedal</text>
</g>
<!-- Node3 -->
<g id="node3" class="node">
<title>Node3</title>
<g id="a_node3"><a xlink:href="unionTelemetryFramePedal_1_1StateByteStatus.html" target="_top" xlink:title="Union of bits for car status besides Pedal.">
<polygon fill="white" stroke="#666666" points="2.5,-265.5 2.5,-333.5 125.5,-333.5 125.5,-265.5 2.5,-265.5"/>
<text text-anchor="start" x="10.5" y="-321.5" font-family="Helvetica,sans-Serif" font-size="10.00">TelemetryFramePedal</text>
<text text-anchor="middle" x="64" y="-310.5" font-family="Helvetica,sans-Serif" font-size="10.00">::StateByteStatus</text>
<polyline fill="none" stroke="#666666" points="2.5,-303.5 125.5,-303.5 "/>
<text text-anchor="start" x="10.5" y="-291.5" font-family="Helvetica,sans-Serif" font-size="10.00">+ byte</text>
<polyline fill="none" stroke="#666666" points="2.5,-284.5 125.5,-284.5 "/>
<text text-anchor="middle" x="64" y="-272.5" font-family="Helvetica,sans-Serif" font-size="10.00"> </text>
</a>
</g>
</g>
<!-- Node3&#45;&gt;Node2 -->
<g id="edge2" class="edge">
<title>Node3&#45;&gt;Node2</title>
<path fill="none" stroke="#404040" d="M81.85,-265.23C87.8,-254.13 94.63,-241.4 101.35,-228.88"/>
<polygon fill="none" stroke="#404040" points="101.52,-228.55 100.83,-221.37 107.19,-217.98 107.88,-225.15 101.52,-228.55"/>
<text text-anchor="middle" x="118" y="-239" font-family="Helvetica,sans-Serif" font-size="10.00"> +status</text>
</g>
<!-- Node4 -->
<g id="node4" class="node">
<title>Node4</title>
<g id="a_node4"><a xlink:href="structTelemetryFramePedal_1_1StateByteStatus_1_1Bits.html" target="_top" xlink:title="Bitfield representation of the status bits.">
<polygon fill="white" stroke="#666666" points="0,-387 0,-521 126,-521 126,-387 0,-387"/>
<text text-anchor="start" x="8" y="-509" font-family="Helvetica,sans-Serif" font-size="10.00">TelemetryFramePedal</text>
<text text-anchor="middle" x="63" y="-498" font-family="Helvetica,sans-Serif" font-size="10.00">::StateByteStatus::Bits</text>
<polyline fill="none" stroke="#666666" points="0,-491 126,-491 "/>
<text text-anchor="start" x="8" y="-479" font-family="Helvetica,sans-Serif" font-size="10.00">+ car_status</text>
<text text-anchor="start" x="8" y="-468" font-family="Helvetica,sans-Serif" font-size="10.00">+ state_unknown</text>
<text text-anchor="start" x="8" y="-457" font-family="Helvetica,sans-Serif" font-size="10.00">+ hv_ready</text>
<text text-anchor="start" x="8" y="-446" font-family="Helvetica,sans-Serif" font-size="10.00">+ bms_no_msg</text>
<text text-anchor="start" x="8" y="-435" font-family="Helvetica,sans-Serif" font-size="10.00">+ bms_wrong_id</text>
<text text-anchor="start" x="8" y="-424" font-family="Helvetica,sans-Serif" font-size="10.00">+ screenshot</text>
<text text-anchor="start" x="8" y="-413" font-family="Helvetica,sans-Serif" font-size="10.00">+ force_stop</text>
<polyline fill="none" stroke="#666666" points="0,-406 126,-406 "/>
<text text-anchor="middle" x="63" y="-394" font-family="Helvetica,sans-Serif" font-size="10.00"> </text>
</a>
</g>
</g>
<!-- Node4&#45;&gt;Node3 -->
<g id="edge3" class="edge">
<title>Node4&#45;&gt;Node3</title>
<path fill="none" stroke="#404040" d="M63.43,-387C63.52,-373.23 63.62,-359.01 63.7,-346.18"/>
<polygon fill="none" stroke="#404040" points="63.7,-345.88 59.74,-339.85 63.78,-333.88 67.74,-339.9 63.7,-345.88"/>
<text text-anchor="middle" x="79" y="-355" font-family="Helvetica,sans-Serif" font-size="10.00"> +bits</text>
</g>
<!-- Node5 -->
<g id="node5" class="node">
<title>Node5</title>
<g id="a_node5"><a xlink:href="unionTelemetryFramePedal_1_1StateByteFaults.html" target="_top" xlink:title="Union of bits for pedal faults.">
<polygon fill="white" stroke="#666666" points="144.5,-265.5 144.5,-333.5 267.5,-333.5 267.5,-265.5 144.5,-265.5"/>
<text text-anchor="start" x="152.5" y="-321.5" font-family="Helvetica,sans-Serif" font-size="10.00">TelemetryFramePedal</text>
<text text-anchor="middle" x="206" y="-310.5" font-family="Helvetica,sans-Serif" font-size="10.00">::StateByteFaults</text>
<polyline fill="none" stroke="#666666" points="144.5,-303.5 267.5,-303.5 "/>
<text text-anchor="start" x="152.5" y="-291.5" font-family="Helvetica,sans-Serif" font-size="10.00">+ byte</text>
<polyline fill="none" stroke="#666666" points="144.5,-284.5 267.5,-284.5 "/>
<text text-anchor="middle" x="206" y="-272.5" font-family="Helvetica,sans-Serif" font-size="10.00"> </text>
</a>
</g>
</g>
<!-- Node5&#45;&gt;Node2 -->
<g id="edge4" class="edge">
<title>Node5&#45;&gt;Node2</title>
<path fill="none" stroke="#404040" d="M187.65,-265.23C181.46,-254.02 174.35,-241.14 167.38,-228.5"/>
<polygon fill="none" stroke="#404040" points="167.37,-228.48 160.97,-225.16 161.57,-217.98 167.97,-221.3 167.37,-228.48"/>
<text text-anchor="middle" x="197" y="-239" font-family="Helvetica,sans-Serif" font-size="10.00"> +faults</text>
</g>
<!-- Node6 -->
<g id="node6" class="node">
<title>Node6</title>
<g id="a_node6"><a xlink:href="structTelemetryFramePedal_1_1StateByteFaults_1_1Bits.html" target="_top" xlink:title="Bitfield representation of the fault bits.">
<polygon fill="white" stroke="#666666" points="144,-381.5 144,-526.5 268,-526.5 268,-381.5 144,-381.5"/>
<text text-anchor="start" x="152" y="-514.5" font-family="Helvetica,sans-Serif" font-size="10.00">TelemetryFramePedal</text>
<text text-anchor="middle" x="206" y="-503.5" font-family="Helvetica,sans-Serif" font-size="10.00">::StateByteFaults::Bits</text>
<polyline fill="none" stroke="#666666" points="144,-496.5 268,-496.5 "/>
<text text-anchor="start" x="152" y="-484.5" font-family="Helvetica,sans-Serif" font-size="10.00">+ fault_active</text>
<text text-anchor="start" x="152" y="-473.5" font-family="Helvetica,sans-Serif" font-size="10.00">+ fault_exceeded</text>
<text text-anchor="start" x="152" y="-462.5" font-family="Helvetica,sans-Serif" font-size="10.00">+ apps_5v_low</text>
<text text-anchor="start" x="152" y="-451.5" font-family="Helvetica,sans-Serif" font-size="10.00">+ apps_5v_high</text>
<text text-anchor="start" x="152" y="-440.5" font-family="Helvetica,sans-Serif" font-size="10.00">+ apps_3v3_low</text>
<text text-anchor="start" x="152" y="-429.5" font-family="Helvetica,sans-Serif" font-size="10.00">+ apps_3v3_high</text>
<text text-anchor="start" x="152" y="-418.5" font-family="Helvetica,sans-Serif" font-size="10.00">+ brake_low</text>
<text text-anchor="start" x="152" y="-407.5" font-family="Helvetica,sans-Serif" font-size="10.00">+ brake_high</text>
<polyline fill="none" stroke="#666666" points="144,-400.5 268,-400.5 "/>
<text text-anchor="middle" x="206" y="-388.5" font-family="Helvetica,sans-Serif" font-size="10.00"> </text>
</a>
</g>
</g>
<!-- Node6&#45;&gt;Node5 -->
<g id="edge5" class="edge">
<title>Node6&#45;&gt;Node5</title>
<path fill="none" stroke="#404040" d="M206,-381.22C206,-369.09 206,-356.82 206,-345.62"/>
<polygon fill="none" stroke="#404040" points="206,-345.51 202,-339.51 206,-333.51 210,-339.51 206,-345.51"/>
<text text-anchor="middle" x="221" y="-355" font-family="Helvetica,sans-Serif" font-size="10.00"> +bits</text>
</g>
<!-- Node7 -->
<g id="node7" class="node">
<title>Node7</title>
<g id="a_node7"><a xlink:href="structTelemetryFrameMotor.html" target="_top" xlink:title="Telemetry frame structure for motor signals.">
<polygon fill="white" stroke="#666666" points="213.5,-122 213.5,-212 338.5,-212 338.5,-122 213.5,-122"/>
<text text-anchor="middle" x="276" y="-200" font-family="Helvetica,sans-Serif" font-size="10.00">TelemetryFrameMotor</text>
<polyline fill="none" stroke="#666666" points="213.5,-193 338.5,-193 "/>
<text text-anchor="start" x="221.5" y="-181" font-family="Helvetica,sans-Serif" font-size="10.00">+ torque_val</text>
<text text-anchor="start" x="221.5" y="-170" font-family="Helvetica,sans-Serif" font-size="10.00">+ motor_rpm</text>
<text text-anchor="start" x="221.5" y="-159" font-family="Helvetica,sans-Serif" font-size="10.00">+ motor_error</text>
<text text-anchor="start" x="221.5" y="-148" font-family="Helvetica,sans-Serif" font-size="10.00">+ motor_warn</text>
<polyline fill="none" stroke="#666666" points="213.5,-141 338.5,-141 "/>
<text text-anchor="start" x="221.5" y="-129" font-family="Helvetica,sans-Serif" font-size="10.00">+ toCanFrame()</text>
</a>
</g>
</g>
<!-- Node7&#45;&gt;Node1 -->
<g id="edge6" class="edge">
<title>Node7&#45;&gt;Node1</title>
<path fill="none" stroke="#404040" d="M276,-121.82C276,-108.71 276,-94.32 276,-81.12"/>
<polygon fill="none" stroke="#404040" points="276,-80.91 272,-74.91 276,-68.91 280,-74.91 276,-80.91"/>
<text text-anchor="middle" x="296.5" y="-90" font-family="Helvetica,sans-Serif" font-size="10.00"> +motor</text>
</g>
<!-- Node8 -->
<g id="node8" class="node">
<title>Node8</title>
<g id="a_node8"><a xlink:href="structTelemetryFrameBms.html" target="_top" xlink:title="Telemetry frame structure for the BMS data.">
<polygon fill="white" stroke="#666666" points="357,-138.5 357,-195.5 475,-195.5 475,-138.5 357,-138.5"/>
<text text-anchor="middle" x="416" y="-183.5" font-family="Helvetica,sans-Serif" font-size="10.00">TelemetryFrameBms</text>
<polyline fill="none" stroke="#666666" points="357,-176.5 475,-176.5 "/>
<text text-anchor="start" x="365" y="-164.5" font-family="Helvetica,sans-Serif" font-size="10.00">+ bms_data</text>
<polyline fill="none" stroke="#666666" points="357,-157.5 475,-157.5 "/>
<text text-anchor="start" x="365" y="-145.5" font-family="Helvetica,sans-Serif" font-size="10.00">+ toCanFrame()</text>
</a>
</g>
</g>
<!-- Node8&#45;&gt;Node1 -->
<g id="edge7" class="edge">
<title>Node8&#45;&gt;Node1</title>
<path fill="none" stroke="#404040" d="M386.31,-138.32C367.21,-120.52 342.03,-97.05 320.55,-77.03"/>
<polygon fill="none" stroke="#404040" points="320.38,-76.87 313.26,-75.7 311.6,-68.68 318.72,-69.85 320.38,-76.87"/>
<text text-anchor="middle" x="357.5" y="-90" font-family="Helvetica,sans-Serif" font-size="10.00"> +bms</text>
</g>
</g>
</svg>
        <g id="navigator" transform="translate(0 0)" fill="#404254">
                <rect fill="#f2f5e9" fill-opacity="0.5" stroke="#606060" stroke-width=".5" x="0" y="0" width="60" height="60"/>
                <use id="zoomplus" xlink:href="#zoomPlus" x="17" y="9" onmousedown="handleZoom(evt,'in')"/>
                <use id="zoomminus" xlink:href="#zoomMin" x="42" y="9" onmousedown="handleZoom(evt,'out')"/>
                <use id="reset" xlink:href="#resetDef" x="30" y="36" onmousedown="handleReset()"/>
                <g id="arrowUp" xlink:href="#dirArrow" transform="translate(30 24)" onmousedown="handlePan(0,-1)">
                  <use xlink:href="#rim" fill="#404040">
                        <set attributeName="fill" to="#808080" begin="arrowUp.mouseover" end="arrowUp.mouseout"/>
                  </use>
                  <path fill="none" stroke="white" stroke-width="1.5" d="M0,-3.0v7 M-2.5,-0.5L0,-3.0L2.5,-0.5"/>
                </g>
                <g id="arrowRight" xlink:href="#dirArrow" transform="rotate(90) translate(36 -43)" onmousedown="handlePan(1,0)">
                  <use xlink:href="#rim" fill="#404040">
                        <set attributeName="fill" to="#808080" begin="arrowRight.mouseover" end="arrowRight.mouseout"/>
                  </use>
                  <path fill="none" stroke="white" stroke-width="1.5" d="M0,-3.0v7 M-2.5,-0.5L0,-3.0L2.5,-0.5"/>
                </g>
                <g id="arrowDown" xlink:href="#dirArrow" transform="rotate(180) translate(-30 -48)" onmousedown="handlePan(0,1)">
                  <use xlink:href="#rim" fill="#404040">
                        <set attributeName="fill" to="#808080" begin="arrowDown.mouseover" end="arrowDown.mouseout"/>
                  </use>
                  <path fill="none" stroke="white" stroke-width="1.5" d="M0,-3.0v7 M-2.5,-0.5L0,-3.0L2.5,-0.5"/>
                </g>
                <g id="arrowLeft" xlink:href="#dirArrow" transform="rotate(270) translate(-36 17)" onmousedown="handlePan(-1,0)">
                  <use xlink:href="#rim" fill="#404040">
                        <set attributeName="fill" to="#808080" begin="arrowLeft.mouseover" end="arrowLeft.mouseout"/>
                  </use>
                  <path fill="none" stroke="white" stroke-width="1.5" d="M0,-3.0v7 M-2.5,-0.5L0,-3.0L2.5,-0.5"/>
                </g>
        </g>
        <svg viewBox="0 0 15 15" width="100%" height="30px" preserveAspectRatio="xMaxYMin meet">
         <g id="arrow_out" transform="scale(0.3 0.3)">
          <a xlink:href="structCarState__coll__graph_org.svg" target="_base">
           <rect id="button" ry="5" rx="5" y="6" x="6" height="38" width="38"
                fill="#f2f5e9" fill-opacity="0.5" stroke="#606060" stroke-width="1.0"/>
           <path id="arrow"
             d="M 11.500037,31.436501 C 11.940474,20.09759 22.043105,11.32322 32.158766,21.979434 L 37.068811,17.246167 C 37.068811,17.246167 37.088388,32 37.088388,32 L 22.160133,31.978069 C 22.160133,31.978069 26.997745,27.140456 26.997745,27.140456 C 18.528582,18.264221 13.291696,25.230495 11.500037,31.436501 z"
             style="fill:#404040;"/>
          </a>
         </g>
        </svg>
</svg>
