<?xml version="1.0" encoding="UTF-8" standalone="no"?>
<!DOCTYPE svg PUBLIC "-//W3C//DTD SVG 1.1//EN"
 "http://www.w3.org/Graphics/SVG/1.1/DTD/svg11.dtd">
<!-- Generated by graphviz version 2.43.0 (0)
 -->
<!-- Title: TelemetryFrameAdc::toCanFrame Pages: 1 -->
<svg width="708pt" height="38pt"
 viewBox="0.00 0.00 708.00 38.00" xmlns="http://www.w3.org/2000/svg" xmlns:xlink="http://www.w3.org/1999/xlink">
<g id="graph0" class="graph" transform="scale(1 1) rotate(0) translate(4 34)">
<title>TelemetryFrameAdc::toCanFrame</title>
<!-- Node1 -->
<g id="node1" class="node">
<title>Node1</title>
<g id="a_node1"><a xlink:title="Converts the TelemetryFrameAdc to a CAN frame.">
<polygon fill="#999999" stroke="#666666" points="700,-30 580,-30 580,0 700,0 700,-30"/>
<text text-anchor="start" x="588" y="-18" font-family="Helvetica,sans-Serif" font-size="10.00">TelemetryFrameAdc::</text>
<text text-anchor="middle" x="640" y="-7" font-family="Helvetica,sans-Serif" font-size="10.00">toCanFrame</text>
</a>
</g>
</g>
<!-- Node2 -->
<g id="node2" class="node">
<title>Node2</title>
<g id="a_node2"><a xlink:href="classTelemetry.html#aeed89696476accb74fb8807b92fbdcd8" target="_top" xlink:title="Internal helper to get and send the ADC telemetry frame.">
<polygon fill="white" stroke="#666666" points="544,-24.5 408,-24.5 408,-5.5 544,-5.5 544,-24.5"/>
<text text-anchor="middle" x="476" y="-12.5" font-family="Helvetica,sans-Serif" font-size="10.00">Telemetry::schedulerAdc</text>
</a>
</g>
</g>
<!-- Node1&#45;&gt;Node2 -->
<g id="edge1" class="edge">
<title>Node1&#45;&gt;Node2</title>
<path fill="none" stroke="#63b8ff" d="M569.44,-15C561.02,-15 552.44,-15 544.06,-15"/>
<polygon fill="#63b8ff" stroke="#63b8ff" points="569.6,-18.5 579.6,-15 569.6,-11.5 569.6,-18.5"/>
</g>
<!-- Node3 -->
<g id="node3" class="node">
<title>Node3</title>
<g id="a_node3"><a xlink:href="classTelemetry.html#a892ba1df53bea0797e63b8e7a0030d91" target="_top" xlink:title="Sends telemetry data based on the scheduling logic.">
<polygon fill="white" stroke="#666666" points="372,-24.5 229,-24.5 229,-5.5 372,-5.5 372,-24.5"/>
<text text-anchor="middle" x="300.5" y="-12.5" font-family="Helvetica,sans-Serif" font-size="10.00">Telemetry::sendTelemetry</text>
</a>
</g>
</g>
<!-- Node2&#45;&gt;Node3 -->
<g id="edge2" class="edge">
<title>Node2&#45;&gt;Node3</title>
<path fill="none" stroke="#63b8ff" d="M397.64,-15C389.15,-15 380.54,-15 372.13,-15"/>
<polygon fill="#63b8ff" stroke="#63b8ff" points="397.92,-18.5 407.92,-15 397.92,-11.5 397.92,-18.5"/>
</g>
<!-- Node4 -->
<g id="node4" class="node">
<title>Node4</title>
<g id="a_node4"><a xlink:href="main_8cpp.html#a18a2a13352158a1c448c163c58e2b486" target="_top" xlink:title=" ">
<polygon fill="white" stroke="#666666" points="193,-24.5 80,-24.5 80,-5.5 193,-5.5 193,-24.5"/>
<text text-anchor="middle" x="136.5" y="-12.5" font-family="Helvetica,sans-Serif" font-size="10.00">schedulerTelemetry</text>
</a>
</g>
</g>
<!-- Node3&#45;&gt;Node4 -->
<g id="edge3" class="edge">
<title>Node3&#45;&gt;Node4</title>
<path fill="none" stroke="#63b8ff" d="M218.79,-15C210.15,-15 201.5,-15 193.24,-15"/>
<polygon fill="#63b8ff" stroke="#63b8ff" points="218.92,-18.5 228.92,-15 218.92,-11.5 218.92,-18.5"/>
</g>
<!-- Node5 -->
<g id="node5" class="node">
<title>Node5</title>
<g id="a_node5"><a xlink:href="main_8cpp.html#a4fc01d736fe50cf5b977f755b675f11d" target="_top" xlink:title="Setup function for initializing the VCU system. Initializes MCP2515s, IO pins, as well as own modules...">
<polygon fill="white" stroke="#666666" points="44,-24.5 0,-24.5 0,-5.5 44,-5.5 44,-24.5"/>
<text text-anchor="middle" x="22" y="-12.5" font-family="Helvetica,sans-Serif" font-size="10.00">setup</text>
</a>
</g>
</g>
<!-- Node4&#45;&gt;Node5 -->
<g id="edge4" class="edge">
<title>Node4&#45;&gt;Node5</title>
<path fill="none" stroke="#63b8ff" d="M69.8,-15C60.57,-15 51.69,-15 44.19,-15"/>
<polygon fill="#63b8ff" stroke="#63b8ff" points="69.91,-18.5 79.91,-15 69.91,-11.5 69.91,-18.5"/>
</g>
</g>
</svg>
