<?xml version="1.0" encoding="UTF-8" standalone="no"?>
<!DOCTYPE svg PUBLIC "-//W3C//DTD SVG 1.1//EN"
 "http://www.w3.org/Graphics/SVG/1.1/DTD/svg11.dtd">
<!-- Generated by graphviz version 2.43.0 (0)
 -->
<!-- Title: TelemetryFramePedal::toCanFrame Pages: 1 -->
<svg width="544pt" height="38pt"
 viewBox="0.00 0.00 544.00 38.00" xmlns="http://www.w3.org/2000/svg" xmlns:xlink="http://www.w3.org/1999/xlink">
<g id="graph0" class="graph" transform="scale(1 1) rotate(0) translate(4 34)">
<title>TelemetryFramePedal::toCanFrame</title>
<!-- Node1 -->
<g id="node1" class="node">
<title>Node1</title>
<g id="a_node1"><a xlink:title="Converts the TelemetryFramePedal to a CAN frame.">
<polygon fill="#999999" stroke="#666666" points="536,-30 413,-30 413,0 536,0 536,-30"/>
<text text-anchor="start" x="421" y="-18" font-family="Helvetica,sans-Serif" font-size="10.00">TelemetryFramePedal</text>
<text text-anchor="middle" x="474.5" y="-7" font-family="Helvetica,sans-Serif" font-size="10.00">::toCanFrame</text>
</a>
</g>
</g>
<!-- Node2 -->
<g id="node2" class="node">
<title>Node2</title>
<g id="a_node2"><a xlink:href="classTelemetry.html#a8fea6e56820f19a233237434f32aa511" target="_top" xlink:title="Internal helper to get and send the Pedal telemetry frame.">
<polygon fill="white" stroke="#666666" points="377,-24.5 256,-24.5 256,-5.5 377,-5.5 377,-24.5"/>
<text text-anchor="middle" x="316.5" y="-12.5" font-family="Helvetica,sans-Serif" font-size="10.00">Telemetry::sendPedal</text>
</a>
</g>
</g>
<!-- Node1&#45;&gt;Node2 -->
<g id="edge1" class="edge">
<title>Node1&#45;&gt;Node2</title>
<path fill="none" stroke="#63b8ff" d="M402.47,-15C393.98,-15 385.38,-15 377.07,-15"/>
<polygon fill="#63b8ff" stroke="#63b8ff" points="402.74,-18.5 412.74,-15 402.74,-11.5 402.74,-18.5"/>
</g>
<!-- Node3 -->
<g id="node3" class="node">
<title>Node3</title>
<g id="a_node3"><a xlink:href="main_8cpp.html#a2e1609fa80a6555982d945314147b005" target="_top" xlink:title=" ">
<polygon fill="white" stroke="#666666" points="220,-24.5 80,-24.5 80,-5.5 220,-5.5 220,-24.5"/>
<text text-anchor="middle" x="150" y="-12.5" font-family="Helvetica,sans-Serif" font-size="10.00">schedulerTelemetryPedal</text>
</a>
</g>
</g>
<!-- Node2&#45;&gt;Node3 -->
<g id="edge2" class="edge">
<title>Node2&#45;&gt;Node3</title>
<path fill="none" stroke="#63b8ff" d="M245.47,-15C237.04,-15 228.43,-15 220.02,-15"/>
<polygon fill="#63b8ff" stroke="#63b8ff" points="245.65,-18.5 255.65,-15 245.65,-11.5 245.65,-18.5"/>
</g>
<!-- Node4 -->
<g id="node4" class="node">
<title>Node4</title>
<g id="a_node4"><a xlink:href="main_8cpp.html#a4fc01d736fe50cf5b977f755b675f11d" target="_top" xlink:title="Setup function for initializing the VCU system. Initializes MCP2515s, IO pins, as well as own modules...">
<polygon fill="white" stroke="#666666" points="44,-24.5 0,-24.5 0,-5.5 44,-5.5 44,-24.5"/>
<text text-anchor="middle" x="22" y="-12.5" font-family="Helvetica,sans-Serif" font-size="10.00">setup</text>
</a>
</g>
</g>
<!-- Node3&#45;&gt;Node4 -->
<g id="edge3" class="edge">
<title>Node3&#45;&gt;Node4</title>
<path fill="none" stroke="#63b8ff" d="M69.55,-15C60.31,-15 51.58,-15 44.23,-15"/>
<polygon fill="#63b8ff" stroke="#63b8ff" points="69.73,-18.5 79.73,-15 69.73,-11.5 69.73,-18.5"/>
</g>
</g>
</svg>
