<?xml version="1.0" encoding="UTF-8" standalone="no"?>
<!DOCTYPE svg PUBLIC "-//W3C//DTD SVG 1.1//EN"
 "http://www.w3.org/Graphics/SVG/1.1/DTD/svg11.dtd">
<!-- Generated by graphviz version 2.43.0 (0)
 -->
<!-- Title: lib/Telemetry/Telemetry.hpp Pages: 1 -->
<svg width="256pt" height="82pt"
 viewBox="0.00 0.00 256.00 82.00" xmlns="http://www.w3.org/2000/svg" xmlns:xlink="http://www.w3.org/1999/xlink">
<g id="graph0" class="graph" transform="scale(1 1) rotate(0) translate(4 78)">
<title>lib/Telemetry/Telemetry.hpp</title>
<!-- Node1 -->
<g id="node1" class="node">
<title>Node1</title>
<g id="a_node1"><a xlink:title="Declaration of the Telemetry class for sending telemetry data over CAN bus.">
<polygon fill="#999999" stroke="#666666" points="217.5,-74 65.5,-74 65.5,-55 217.5,-55 217.5,-74"/>
<text text-anchor="middle" x="141.5" y="-62" font-family="Helvetica,sans-Serif" font-size="10.00">lib/Telemetry/Telemetry.hpp</text>
</a>
</g>
</g>
<!-- Node2 -->
<g id="node2" class="node">
<title>Node2</title>
<g id="a_node2"><a xlink:href="Telemetry_8cpp.html" target="_top" xlink:title="Implementation of the Telemetry class for sending telemetry data over CAN bus.">
<polygon fill="white" stroke="#666666" points="151,-19 0,-19 0,0 151,0 151,-19"/>
<text text-anchor="middle" x="75.5" y="-7" font-family="Helvetica,sans-Serif" font-size="10.00">lib/Telemetry/Telemetry.cpp</text>
</a>
</g>
</g>
<!-- Node1&#45;&gt;Node2 -->
<g id="edge1" class="edge">
<title>Node1&#45;&gt;Node2</title>
<path fill="none" stroke="#63b8ff" d="M122.95,-48.6C111.12,-39.11 96.21,-27.13 86.3,-19.17"/>
<polygon fill="#63b8ff" stroke="#63b8ff" points="120.91,-51.45 130.9,-54.98 125.29,-45.99 120.91,-51.45"/>
</g>
<!-- Node3 -->
<g id="node3" class="node">
<title>Node3</title>
<g id="a_node3"><a xlink:href="main_8cpp.html" target="_top" xlink:title="Main VCU program entry point.">
<polygon fill="white" stroke="#666666" points="248,-19 169,-19 169,0 248,0 248,-19"/>
<text text-anchor="middle" x="208.5" y="-7" font-family="Helvetica,sans-Serif" font-size="10.00">src/main.cpp</text>
</a>
</g>
</g>
<!-- Node1&#45;&gt;Node3 -->
<g id="edge2" class="edge">
<title>Node1&#45;&gt;Node3</title>
<path fill="none" stroke="#63b8ff" d="M160.33,-48.6C172.34,-39.11 187.47,-27.13 197.54,-19.17"/>
<polygon fill="#63b8ff" stroke="#63b8ff" points="157.94,-46.04 152.26,-54.98 162.28,-51.53 157.94,-46.04"/>
</g>
</g>
</svg>
