<?xml version="1.0" encoding="UTF-8" standalone="no"?>
<!DOCTYPE svg PUBLIC "-//W3C//DTD SVG 1.1//EN"
 "http://www.w3.org/Graphics/SVG/1.1/DTD/svg11.dtd">
<!-- Generated by graphviz version 2.43.0 (0)
 -->
<!-- Title: vehicle_control_unit/lib/Telemetry/Telemetry.hpp Pages: 1 -->
<svg width="296pt" height="104pt"
 viewBox="0.00 0.00 295.50 104.00" xmlns="http://www.w3.org/2000/svg" xmlns:xlink="http://www.w3.org/1999/xlink">
<g id="graph0" class="graph" transform="scale(1 1) rotate(0) translate(4 100)">
<title>vehicle_control_unit/lib/Telemetry/Telemetry.hpp</title>
<!-- Node1 -->
<g id="node1" class="node">
<title>Node1</title>
<g id="a_node1"><a xlink:title="Declaration of the Telemetry class for sending telemetry data over CAN bus.">
<polygon fill="#999999" stroke="#666666" points="230.5,-96 75.5,-96 75.5,-66 230.5,-66 230.5,-96"/>
<text text-anchor="start" x="83.5" y="-84" font-family="Helvetica,sans-Serif" font-size="10.00">vehicle_control_unit</text>
<text text-anchor="middle" x="153" y="-73" font-family="Helvetica,sans-Serif" font-size="10.00">/lib/Telemetry/Telemetry.hpp</text>
</a>
</g>
</g>
<!-- Node2 -->
<g id="node2" class="node">
<title>Node2</title>
<g id="a_node2"><a xlink:href="Telemetry_8cpp.html" target="_top" xlink:title="Implementation of the Telemetry class for sending telemetry data over CAN bus.">
<polygon fill="white" stroke="#666666" points="154,-30 0,-30 0,0 154,0 154,-30"/>
<text text-anchor="start" x="8" y="-18" font-family="Helvetica,sans-Serif" font-size="10.00">vehicle_control_unit</text>
<text text-anchor="middle" x="77" y="-7" font-family="Helvetica,sans-Serif" font-size="10.00">/lib/Telemetry/Telemetry.cpp</text>
</a>
</g>
</g>
<!-- Node1&#45;&gt;Node2 -->
<g id="edge1" class="edge">
<title>Node1&#45;&gt;Node2</title>
<path fill="none" stroke="#63b8ff" d="M128.3,-59.2C117.02,-49.7 103.95,-38.69 93.82,-30.16"/>
<polygon fill="#63b8ff" stroke="#63b8ff" points="126.23,-62.03 136.13,-65.8 130.74,-56.68 126.23,-62.03"/>
</g>
<!-- Node3 -->
<g id="node3" class="node">
<title>Node3</title>
<g id="a_node3"><a xlink:href="main_8cpp.html" target="_top" xlink:title="Main VCU program entry point.">
<polygon fill="white" stroke="#666666" points="287.5,-30 172.5,-30 172.5,0 287.5,0 287.5,-30"/>
<text text-anchor="start" x="180.5" y="-18" font-family="Helvetica,sans-Serif" font-size="10.00">vehicle_control_unit</text>
<text text-anchor="middle" x="230" y="-7" font-family="Helvetica,sans-Serif" font-size="10.00">/src/main.cpp</text>
</a>
</g>
</g>
<!-- Node1&#45;&gt;Node3 -->
<g id="edge2" class="edge">
<title>Node1&#45;&gt;Node3</title>
<path fill="none" stroke="#63b8ff" d="M178.02,-59.2C189.45,-49.7 202.7,-38.69 212.96,-30.16"/>
<polygon fill="#63b8ff" stroke="#63b8ff" points="175.54,-56.71 170.09,-65.8 180.02,-62.1 175.54,-56.71"/>
</g>
</g>
</svg>
