<?xml version="1.0" encoding="UTF-8" standalone="no"?>
<!DOCTYPE svg PUBLIC "-//W3C//DTD SVG 1.1//EN"
 "http://www.w3.org/Graphics/SVG/1.1/DTD/svg11.dtd">
<!-- Generated by graphviz version 2.43.0 (0)
 -->
<!-- Title: ee_sw_vcu_2025/lib/Telemetry/Telemetry.hpp Pages: 1 -->
<svg width="197pt" height="203pt"
 viewBox="0.00 0.00 197.00 203.00" xmlns="http://www.w3.org/2000/svg" xmlns:xlink="http://www.w3.org/1999/xlink">
<g id="graph0" class="graph" transform="scale(1 1) rotate(0) translate(4 199)">
<title>ee_sw_vcu_2025/lib/Telemetry/Telemetry.hpp</title>
<!-- Node1 -->
<g id="node1" class="node">
<title>Node1</title>
<g id="a_node1"><a xlink:title="Declaration of the Telemetry class for sending telemetry data over CAN bus.">
<polygon fill="#999999" stroke="#666666" points="176.5,-195 36.5,-195 36.5,-165 176.5,-165 176.5,-195"/>
<text text-anchor="start" x="44.5" y="-183" font-family="Helvetica,sans-Serif" font-size="10.00">ee_sw_vcu_2025/lib</text>
<text text-anchor="middle" x="106.5" y="-172" font-family="Helvetica,sans-Serif" font-size="10.00">/Telemetry/Telemetry.hpp</text>
</a>
</g>
</g>
<!-- Node2 -->
<g id="node2" class="node">
<title>Node2</title>
<g id="a_node2"><a xlink:href="CarState_8hpp.html" target="_top" xlink:title="Definition of the CarState structure representing the state of the car.">
<polygon fill="white" stroke="#666666" points="99.5,-129 19.5,-129 19.5,-110 99.5,-110 99.5,-129"/>
<text text-anchor="middle" x="59.5" y="-117" font-family="Helvetica,sans-Serif" font-size="10.00">CarState.hpp</text>
</a>
</g>
</g>
<!-- Node1&#45;&gt;Node2 -->
<g id="edge1" class="edge">
<title>Node1&#45;&gt;Node2</title>
<path fill="none" stroke="#63b8ff" d="M95.12,-164.84C88.44,-156.52 79.95,-145.96 72.94,-137.23"/>
<polygon fill="#63b8ff" stroke="#63b8ff" points="75.53,-134.87 66.54,-129.27 70.08,-139.25 75.53,-134.87"/>
</g>
<!-- Node6 -->
<g id="node6" class="node">
<title>Node6</title>
<g id="a_node6"><a xlink:title=" ">
<polygon fill="#e0e0e0" stroke="#999999" points="189,-129 118,-129 118,-110 189,-110 189,-129"/>
<text text-anchor="middle" x="153.5" y="-117" font-family="Helvetica,sans-Serif" font-size="10.00">mcp2515.h</text>
</a>
</g>
</g>
<!-- Node1&#45;&gt;Node6 -->
<g id="edge7" class="edge">
<title>Node1&#45;&gt;Node6</title>
<path fill="none" stroke="#63b8ff" d="M117.88,-164.84C124.56,-156.52 133.05,-145.96 140.06,-137.23"/>
<polygon fill="#63b8ff" stroke="#63b8ff" points="142.92,-139.25 146.46,-129.27 137.47,-134.87 142.92,-139.25"/>
</g>
<!-- Node3 -->
<g id="node3" class="node">
<title>Node3</title>
<g id="a_node3"><a xlink:href="Enums_8hpp.html" target="_top" xlink:title="Enumeration definitions for the VCU.">
<polygon fill="white" stroke="#666666" points="95,-74 24,-74 24,-55 95,-55 95,-74"/>
<text text-anchor="middle" x="59.5" y="-62" font-family="Helvetica,sans-Serif" font-size="10.00">Enums.hpp</text>
</a>
</g>
</g>
<!-- Node2&#45;&gt;Node3 -->
<g id="edge2" class="edge">
<title>Node2&#45;&gt;Node3</title>
<path fill="none" stroke="#63b8ff" d="M59.5,-109.75C59.5,-102.8 59.5,-92.85 59.5,-84.13"/>
<polygon fill="#63b8ff" stroke="#63b8ff" points="63,-84.09 59.5,-74.09 56,-84.09 63,-84.09"/>
</g>
<!-- Node4 -->
<g id="node4" class="node">
<title>Node4</title>
<g id="a_node4"><a xlink:title=" ">
<polygon fill="#e0e0e0" stroke="#999999" points="53,-19 0,-19 0,0 53,0 53,-19"/>
<text text-anchor="middle" x="26.5" y="-7" font-family="Helvetica,sans-Serif" font-size="10.00">stdint.h</text>
</a>
</g>
</g>
<!-- Node2&#45;&gt;Node4 -->
<g id="edge6" class="edge">
<title>Node2&#45;&gt;Node4</title>
<path fill="none" stroke="#63b8ff" d="M46.01,-109.75C35.21,-101.87 20.85,-89.21 14.5,-74 8.36,-59.29 12.73,-41.36 17.83,-28.31"/>
<polygon fill="#63b8ff" stroke="#63b8ff" points="21.09,-29.6 21.9,-19.04 14.68,-26.79 21.09,-29.6"/>
</g>
<!-- Node5 -->
<g id="node5" class="node">
<title>Node5</title>
<g id="a_node5"><a xlink:title=" ">
<polygon fill="#e0e0e0" stroke="#999999" points="129,-19 86,-19 86,0 129,0 129,-19"/>
<text text-anchor="middle" x="107.5" y="-7" font-family="Helvetica,sans-Serif" font-size="10.00">can.h</text>
</a>
</g>
</g>
<!-- Node2&#45;&gt;Node5 -->
<g id="edge5" class="edge">
<title>Node2&#45;&gt;Node5</title>
<path fill="none" stroke="#63b8ff" d="M72.38,-109.99C83.11,-102.08 97.7,-89.26 104.5,-74 110.75,-59.96 111.09,-42.42 110.1,-29.32"/>
<polygon fill="#63b8ff" stroke="#63b8ff" points="113.56,-28.73 109,-19.17 106.6,-29.49 113.56,-28.73"/>
</g>
<!-- Node3&#45;&gt;Node4 -->
<g id="edge3" class="edge">
<title>Node3&#45;&gt;Node4</title>
<path fill="none" stroke="#63b8ff" d="M54.05,-54.75C49.49,-47.42 42.83,-36.73 37.21,-27.7"/>
<polygon fill="#63b8ff" stroke="#63b8ff" points="40.1,-25.73 31.85,-19.09 34.16,-29.43 40.1,-25.73"/>
</g>
<!-- Node3&#45;&gt;Node5 -->
<g id="edge4" class="edge">
<title>Node3&#45;&gt;Node5</title>
<path fill="none" stroke="#63b8ff" d="M67.43,-54.75C74.35,-47.11 84.57,-35.82 92.95,-26.56"/>
<polygon fill="#63b8ff" stroke="#63b8ff" points="95.6,-28.85 99.72,-19.09 90.41,-24.15 95.6,-28.85"/>
</g>
</g>
</svg>
