<?xml version="1.0" encoding="UTF-8" standalone="no"?>
<!DOCTYPE svg PUBLIC "-//W3C//DTD SVG 1.1//EN"
 "http://www.w3.org/Graphics/SVG/1.1/DTD/svg11.dtd">
<!-- Generated by graphviz version 2.43.0 (0)
 -->
<!-- Title: TelemetryFramePedal::StateByteStatus Pages: 1 -->
<svg width="134pt" height="259pt"
 viewBox="0.00 0.00 134.00 259.00" xmlns="http://www.w3.org/2000/svg" xmlns:xlink="http://www.w3.org/1999/xlink">
<g id="graph0" class="graph" transform="scale(1 1) rotate(0) translate(4 255)">
<title>TelemetryFramePedal::StateByteStatus</title>
<!-- Node1 -->
<g id="node1" class="node">
<title>Node1</title>
<g id="a_node1"><a xlink:title="Union of bits for car status besides Pedal.">
<polygon fill="#999999" stroke="#666666" points="1.5,-0.5 1.5,-68.5 124.5,-68.5 124.5,-0.5 1.5,-0.5"/>
<text text-anchor="start" x="9.5" y="-56.5" font-family="Helvetica,sans-Serif" font-size="10.00">TelemetryFramePedal</text>
<text text-anchor="middle" x="63" y="-45.5" font-family="Helvetica,sans-Serif" font-size="10.00">::StateByteStatus</text>
<polyline fill="none" stroke="#666666" points="1.5,-38.5 124.5,-38.5 "/>
<text text-anchor="start" x="9.5" y="-26.5" font-family="Helvetica,sans-Serif" font-size="10.00">+ byte</text>
<polyline fill="none" stroke="#666666" points="1.5,-19.5 124.5,-19.5 "/>
<text text-anchor="middle" x="63" y="-7.5" font-family="Helvetica,sans-Serif" font-size="10.00"> </text>
</a>
</g>
</g>
<!-- Node2 -->
<g id="node2" class="node">
<title>Node2</title>
<g id="a_node2"><a xlink:href="structTelemetryFramePedal_1_1StateByteStatus_1_1Bits.html" target="_top" xlink:title="Bitfield representation of the status bits.">
<polygon fill="white" stroke="#666666" points="0,-116.5 0,-250.5 126,-250.5 126,-116.5 0,-116.5"/>
<text text-anchor="start" x="8" y="-238.5" font-family="Helvetica,sans-Serif" font-size="10.00">TelemetryFramePedal</text>
<text text-anchor="middle" x="63" y="-227.5" font-family="Helvetica,sans-Serif" font-size="10.00">::StateByteStatus::Bits</text>
<polyline fill="none" stroke="#666666" points="0,-220.5 126,-220.5 "/>
<text text-anchor="start" x="8" y="-208.5" font-family="Helvetica,sans-Serif" font-size="10.00">+ car_status</text>
<text text-anchor="start" x="8" y="-197.5" font-family="Helvetica,sans-Serif" font-size="10.00">+ state_unknown</text>
<text text-anchor="start" x="8" y="-186.5" font-family="Helvetica,sans-Serif" font-size="10.00">+ hv_ready</text>
<text text-anchor="start" x="8" y="-175.5" font-family="Helvetica,sans-Serif" font-size="10.00">+ bms_no_msg</text>
<text text-anchor="start" x="8" y="-164.5" font-family="Helvetica,sans-Serif" font-size="10.00">+ motor_no_read</text>
<text text-anchor="start" x="8" y="-153.5" font-family="Helvetica,sans-Serif" font-size="10.00">+ screenshot</text>
<text text-anchor="start" x="8" y="-142.5" font-family="Helvetica,sans-Serif" font-size="10.00">+ force_stop</text>
<polyline fill="none" stroke="#666666" points="0,-135.5 126,-135.5 "/>
<text text-anchor="middle" x="63" y="-123.5" font-family="Helvetica,sans-Serif" font-size="10.00"> </text>
</a>
</g>
</g>
<!-- Node2&#45;&gt;Node1 -->
<g id="edge1" class="edge">
<title>Node2&#45;&gt;Node1</title>
<path fill="none" stroke="#404040" d="M63,-116.31C63,-104.35 63,-92.13 63,-80.93"/>
<polygon fill="none" stroke="#404040" points="63,-80.79 59,-74.79 63,-68.79 67,-74.79 63,-80.79"/>
<text text-anchor="middle" x="78" y="-90" font-family="Helvetica,sans-Serif" font-size="10.00"> +bits</text>
</g>
</g>
</svg>
